<svg class="main-svg" xmlns="http://www.w3.org/2000/svg" xmlns:xlink="http://www.w3.org/1999/xlink" width="700" height="500" style="" viewBox="0 0 700 500"><rect x="0" y="0" width="700" height="500" style="fill: rgb(255, 255, 255); fill-opacity: 1;"/><defs id="defs-24a19f"><g class="clips"/><g class="gradients"/><g class="patterns"/></defs><g class="bglayer"/><g class="layer-below"><g class="imagelayer"/><g class="shapelayer"/></g><g class="cartesianlayer"/><g class="polarlayer"/><g class="ternarylayer"/><g class="geolayer"/><g class="funnelarealayer"/><g class="pielayer"/><g class="iciclelayer"/><g class="treemaplayer"/><g class="sunburstlayer"/><g class="glimages"/><g class="sankey" transform="translate(80,100)matrix(1 0 0 1 0 0)" style="box-sizing: content-box; position: absolute; left: 0px; shape-rendering: geometricprecision; pointer-events: auto;"><g class="sankey-links" style="fill: none;"><path class="sankey-link" d="M15,-1.7053025658242404e-13C270,-1.7053025658242404e-13 270,-1.8474111129762605e-13 525,-1.8474111129762605e-13L525,131.91056910569085C270,131.91056910569085 270,131.91056910569088 15,131.91056910569088Z" style="stroke: rgb(68, 68, 68); stroke-opacity: 1; fill: rgb(233, 226, 154); fill-opacity: 1; stroke-width: 0; opacity: 1;"/><path class="sankey-link" d="M15,131.91056910569088C270,131.91056910569088 270,182.68292682926813 525,182.68292682926813L525,184.91869918699172C270,184.91869918699172 270,134.14634146341447 15,134.14634146341447Z" style="stroke: rgb(68, 68, 68); stroke-opacity: 1; fill: rgb(231, 218, 138); fill-opacity: 1; stroke-width: 0; opacity: 1;"/><path class="sankey-link" d="M15,149.1463414634145C270,149.1463414634145 270,131.91056910569085 525,131.91056910569085L525,152.03252032520305C270,152.03252032520305 270,169.2682926829267 15,169.2682926829267Z" style="stroke: rgb(68, 68, 68); stroke-opacity: 1; fill: rgb(228, 190, 96); fill-opacity: 1; stroke-width: 0; opacity: 1;"/><path class="sankey-link" d="M15,169.2682926829267C270,169.2682926829267 270,184.91869918699172 525,184.91869918699172L525,227.3983739837397C270,227.3983739837397 270,211.74796747967468 15,211.74796747967468Z" style="stroke: rgb(68, 68, 68); stroke-opacity: 1; fill: rgb(228, 181, 84); fill-opacity: 1; stroke-width: 0; opacity: 1;"/><path class="sankey-link" d="M15,211.74796747967468C270,211.74796747967468 270,255.8130081300812 525,255.8130081300812L525,258.0487804878048C270,258.0487804878048 270,213.98373983739828 15,213.98373983739828Z" style="stroke: rgb(68, 68, 68); stroke-opacity: 1; fill: rgb(227, 171, 72); fill-opacity: 1; stroke-width: 0; opacity: 1;"/><path class="sankey-link" d="M15,228.98373983739828C270,228.98373983739828 270,152.03252032520305 525,152.03252032520305L525,160.97560975609736C270,160.97560975609736 270,237.92682926829258 15,237.92682926829258Z" style="stroke: rgb(68, 68, 68); stroke-opacity: 1; fill: rgb(226, 151, 53); fill-opacity: 1; stroke-width: 0; opacity: 1;"/><path class="sankey-link" d="M15,237.92682926829258C270,237.92682926829258 270,258.0487804878048 525,258.0487804878048L525,282.64227642276416C270,282.64227642276416 270,262.52032520325196 15,262.52032520325196Z" style="stroke: rgb(68, 68, 68); stroke-opacity: 1; fill: rgb(225, 129, 37); fill-opacity: 1; stroke-width: 0; opacity: 1;"/><path class="sankey-link" d="M15,277.52032520325196C270,277.52032520325196 270,160.97560975609736 525,160.97560975609736L525,167.68292682926807C270,167.68292682926807 270,284.2276422764227 15,284.2276422764227Z" style="stroke: rgb(68, 68, 68); stroke-opacity: 1; fill: rgb(223, 106, 27); fill-opacity: 1; stroke-width: 0; opacity: 1;"/><path class="sankey-link" d="M15,284.22764227642267C270,284.22764227642267 270,227.3983739837397 525,227.3983739837397L525,240.8130081300812C270,240.8130081300812 270,297.6422764227641 15,297.6422764227641Z" style="stroke: rgb(68, 68, 68); stroke-opacity: 1; fill: rgb(221, 93, 25); fill-opacity: 1; stroke-width: 0; opacity: 1;"/><path class="sankey-link" d="M15,297.64227642276416C270,297.64227642276416 270,282.6422764227641 525,282.6422764227641L525,284.8780487804877C270,284.8780487804877 270,299.87804878048775 15,299.87804878048775Z" style="stroke: rgb(68, 68, 68); stroke-opacity: 1; fill: rgb(220, 79, 24); fill-opacity: 1; stroke-width: 0; opacity: 1;"/><path class="sankey-link" d="M15,299.87804878048775C270,299.87804878048775 270,299.8780487804878 525,299.8780487804878L525,320C270,320 270,319.99999999999994 15,319.99999999999994Z" style="stroke: rgb(68, 68, 68); stroke-opacity: 1; fill: rgb(218, 64, 25); fill-opacity: 1; stroke-width: 0; opacity: 1;"/></g><g class="sankey-node-set" style="cursor: move;"><g class="sankey-node" transform="translate(0.000,-0.000)" style="opacity: 1;"><rect class="node-rect" width="15" height="134.14634146341467" style="stroke-width: 0.5; stroke: rgb(0, 0, 0); stroke-opacity: 1; fill: rgb(0, 0, 0); fill-opacity: 1;"/><text class="node-label" data-notex="1" x="0" y="0" text-anchor="start" transform="translate(18.25,75.47317073170734)" style="cursor: default; font-family: 'Courier New', monospace; font-size: 24px; fill: rgb(42, 63, 95); fill-opacity: 1; white-space: pre; text-shadow: white 1px 1px 1px, white -1px -1px 1px, white 1px -1px 1px, white -1px 1px 1px;">Subtype 0</text></g><g class="sankey-node" transform="translate(0.000,149.146)" style="opacity: 1;"><rect class="node-rect" width="15" height="64.83739837398377" style="stroke-width: 0.5; stroke: rgb(0, 0, 0); stroke-opacity: 1; fill: rgb(0, 0, 0); fill-opacity: 1;"/><text class="node-label" data-notex="1" x="0" y="0" text-anchor="start" transform="translate(18.25,40.818699186991886)" style="cursor: default; font-family: 'Courier New', monospace; font-size: 24px; fill: rgb(42, 63, 95); fill-opacity: 1; white-space: pre; text-shadow: white 1px 1px 1px, white -1px -1px 1px, white 1px -1px 1px, white -1px 1px 1px;">Subtype 1</text></g><g class="sankey-node" transform="translate(0.000,228.984)" style="opacity: 1;"><rect class="node-rect" width="15" height="33.53658536585368" style="stroke-width: 0.5; stroke: rgb(0, 0, 0); stroke-opacity: 1; fill: rgb(0, 0, 0); fill-opacity: 1;"/><text class="node-label" data-notex="1" x="0" y="0" text-anchor="start" transform="translate(18.25,25.16829268292684)" style="cursor: default; font-family: 'Courier New', monospace; font-size: 24px; fill: rgb(42, 63, 95); fill-opacity: 1; white-space: pre; text-shadow: white 1px 1px 1px, white -1px -1px 1px, white 1px -1px 1px, white -1px 1px 1px;">Subtype 2</text></g><g class="sankey-node" transform="translate(0.000,277.520)" style="opacity: 1;"><rect class="node-rect" width="15" height="42.47967479674804" style="stroke-width: 0.5; stroke: rgb(0, 0, 0); stroke-opacity: 1; fill: rgb(0, 0, 0); fill-opacity: 1;"/><text class="node-label" data-notex="1" x="0" y="0" text-anchor="start" transform="translate(18.25,29.63983739837402)" style="cursor: default; font-family: 'Courier New', monospace; font-size: 24px; fill: rgb(42, 63, 95); fill-opacity: 1; white-space: pre; text-shadow: white 1px 1px 1px, white -1px -1px 1px, white 1px -1px 1px, white -1px 1px 1px;">Subtype 3</text></g><g class="sankey-node" transform="translate(525.000,-0.000)" style="opacity: 1;"><rect class="node-rect" width="15" height="167.6829268292683" style="stroke-width: 0.5; stroke: rgb(0, 0, 0); stroke-opacity: 1; fill: rgb(0, 0, 0); fill-opacity: 1;"/><text class="node-label" data-notex="1" x="0" y="0" text-anchor="end" transform="translate(-3.25,92.24146341463415)" style="cursor: default; font-family: 'Courier New', monospace; font-size: 24px; fill: rgb(42, 63, 95); fill-opacity: 1; white-space: pre; text-shadow: white 1px 1px 1px, white -1px -1px 1px, white 1px -1px 1px, white -1px 1px 1px;"> Subtype 0</text></g><g class="sankey-node" transform="translate(525.000,182.683)" style="opacity: 1;"><rect class="node-rect" width="15" height="58.13008130081306" style="stroke-width: 0.5; stroke: rgb(0, 0, 0); stroke-opacity: 1; fill: rgb(0, 0, 0); fill-opacity: 1;"/><text class="node-label" data-notex="1" x="0" y="0" text-anchor="end" transform="translate(-3.25,37.46504065040653)" style="cursor: default; font-family: 'Courier New', monospace; font-size: 24px; fill: rgb(42, 63, 95); fill-opacity: 1; white-space: pre; text-shadow: white 1px 1px 1px, white -1px -1px 1px, white 1px -1px 1px, white -1px 1px 1px;">Subtype 1</text></g><g class="sankey-node" transform="translate(525.000,255.813)" style="opacity: 1;"><rect class="node-rect" width="15" height="29.065040650406615" style="stroke-width: 0.5; stroke: rgb(0, 0, 0); stroke-opacity: 1; fill: rgb(0, 0, 0); fill-opacity: 1;"/><text class="node-label" data-notex="1" x="0" y="0" text-anchor="end" transform="translate(-3.25,22.932520325203306)" style="cursor: default; font-family: 'Courier New', monospace; font-size: 24px; fill: rgb(42, 63, 95); fill-opacity: 1; white-space: pre; text-shadow: white 1px 1px 1px, white -1px -1px 1px, white 1px -1px 1px, white -1px 1px 1px;">Subtype 2</text></g><g class="sankey-node" transform="translate(525.000,299.878)" style="opacity: 1;"><rect class="node-rect" width="15" height="20.121951219512198" style="stroke-width: 0.5; stroke: rgb(0, 0, 0); stroke-opacity: 1; fill: rgb(0, 0, 0); fill-opacity: 1;"/><text class="node-label" data-notex="1" x="0" y="0" text-anchor="end" transform="translate(-3.25,18.460975609756098)" style="cursor: default; font-family: 'Courier New', monospace; font-size: 24px; fill: rgb(42, 63, 95); fill-opacity: 1; white-space: pre; text-shadow: white 1px 1px 1px, white -1px -1px 1px, white 1px -1px 1px, white -1px 1px 1px;">Subtype 3</text></g></g></g><defs id="topdefs-24a19f"><g class="clips"/></defs><g class="layer-above"><g class="imagelayer"/><g class="shapelayer"/></g><g class="infolayer"><g class="g-gtitle"/><g class="first-render"/></g></svg>