<?xml version="1.0" encoding="utf-8" standalone="no"?>
<!DOCTYPE svg PUBLIC "-//W3C//DTD SVG 1.1//EN"
  "http://www.w3.org/Graphics/SVG/1.1/DTD/svg11.dtd">
<!-- Created with matplotlib (https://matplotlib.org/) -->
<svg height="460.8pt" version="1.1" viewBox="0 0 576 460.8" width="576pt" xmlns="http://www.w3.org/2000/svg" xmlns:xlink="http://www.w3.org/1999/xlink">
 <metadata>
  <rdf:RDF xmlns:cc="http://creativecommons.org/ns#" xmlns:dc="http://purl.org/dc/elements/1.1/" xmlns:rdf="http://www.w3.org/1999/02/22-rdf-syntax-ns#">
   <cc:Work>
    <dc:type rdf:resource="http://purl.org/dc/dcmitype/StillImage"/>
    <dc:date>2022-02-13T16:43:14.783506</dc:date>
    <dc:format>image/svg+xml</dc:format>
    <dc:creator>
     <cc:Agent>
      <dc:title>Matplotlib v3.3.3, https://matplotlib.org/</dc:title>
     </cc:Agent>
    </dc:creator>
   </cc:Work>
  </rdf:RDF>
 </metadata>
 <defs>
  <style type="text/css">*{stroke-linecap:butt;stroke-linejoin:round;}</style>
 </defs>
 <g id="figure_1">
  <g id="patch_1">
   <path d="M 0 460.8 
L 576 460.8 
L 576 0 
L 0 0 
z
" style="fill:#ffffff;"/>
  </g>
  <g id="axes_1">
   <g id="patch_2">
    <path d="M 124.02 377.06 
L 565.2 377.06 
L 565.2 10.8 
L 124.02 10.8 
z
" style="fill:#ffffff;"/>
   </g>
   <g id="PolyCollection_1">
    <defs>
     <path d="M 144.073636 -433.351818 
L 144.073636 -433.351818 
L 161.719001 -433.351818 
L 161.719001 -409.793387 
L 179.364365 -409.793387 
L 179.364365 -384.473031 
L 197.009729 -384.473031 
L 197.009729 -379.843614 
L 214.655093 -379.843614 
L 214.655093 -348.475338 
L 249.945822 -348.475338 
L 249.945822 -327.970002 
L 285.23655 -327.970002 
L 285.23655 -311.021008 
L 320.527278 -311.021008 
L 320.527278 -304.284276 
L 355.818007 -304.284276 
L 355.818007 -286.09914 
L 391.108735 -286.09914 
L 391.108735 -270.019318 
L 426.399464 -270.019318 
L 426.399464 -246.64873 
L 461.690192 -246.64873 
L 461.690192 -216.055279 
L 461.690192 -293.004949 
L 461.690192 -293.004949 
L 461.690192 -297.225878 
L 426.399464 -297.225878 
L 426.399464 -310.969557 
L 391.108735 -310.969557 
L 391.108735 -323.180988 
L 355.818007 -323.180988 
L 355.818007 -336.910086 
L 320.527278 -336.910086 
L 320.527278 -342.276101 
L 285.23655 -342.276101 
L 285.23655 -356.646652 
L 249.945822 -356.646652 
L 249.945822 -374.023559 
L 214.655093 -374.023559 
L 214.655093 -399.821553 
L 197.009729 -399.821553 
L 197.009729 -403.386774 
L 179.364365 -403.386774 
L 179.364365 -422.562226 
L 161.719001 -422.562226 
L 161.719001 -433.351818 
L 144.073636 -433.351818 
z
" id="mdb9b0f82a6" style="stroke:#ff7f0e;stroke-opacity:0.2;"/>
    </defs>
    <g clip-path="url(#pb05c189a25)">
     <use style="fill:#ff7f0e;fill-opacity:0.2;stroke:#ff7f0e;stroke-opacity:0.2;" x="0" xlink:href="#mdb9b0f82a6" y="460.8"/>
    </g>
   </g>
   <g id="PolyCollection_2">
    <defs>
     <path d="M 144.073636 -433.351818 
L 144.073636 -433.351818 
L 160.209301 -433.351818 
L 160.209301 -433.351818 
L 166.586271 -433.351818 
L 166.586271 -433.351818 
L 167.649099 -433.351818 
L 167.649099 -433.351818 
L 169.09841 -433.351818 
L 169.09841 -433.351818 
L 172.480136 -433.351818 
L 172.480136 -427.218723 
L 173.253102 -427.218723 
L 173.253102 -427.218723 
L 174.895655 -427.218723 
L 174.895655 -426.433505 
L 175.185517 -426.433505 
L 175.185517 -425.304432 
L 175.282138 -425.304432 
L 175.282138 -425.304432 
L 175.572 -425.304432 
L 175.572 -425.304432 
L 175.668621 -425.304432 
L 175.668621 -425.304432 
L 175.958483 -425.304432 
L 175.958483 -424.115865 
L 176.538208 -424.115865 
L 176.538208 -422.93309 
L 176.634829 -422.93309 
L 176.634829 -420.599972 
L 177.117932 -420.599972 
L 177.117932 -419.450757 
L 177.214553 -419.450757 
L 177.214553 -419.450757 
L 177.311174 -419.450757 
L 177.311174 -419.450757 
L 177.407795 -419.450757 
L 177.407795 -418.306015 
L 177.504415 -418.306015 
L 177.504415 -417.169503 
L 177.697657 -417.169503 
L 177.697657 -416.044439 
L 177.890898 -416.044439 
L 177.890898 -416.044439 
L 177.987519 -416.044439 
L 177.987519 -414.921279 
L 178.277381 -414.921279 
L 178.277381 -414.921279 
L 178.374002 -414.921279 
L 178.374002 -414.921279 
L 178.470623 -414.921279 
L 178.470623 -413.782594 
L 178.567244 -413.782594 
L 178.567244 -413.782594 
L 178.663864 -413.782594 
L 178.663864 -411.508572 
L 178.760485 -411.508572 
L 178.760485 -409.251674 
L 178.857106 -409.251674 
L 178.857106 -409.251674 
L 178.953727 -409.251674 
L 178.953727 -409.251674 
L 179.050347 -409.251674 
L 179.050347 -408.126078 
L 179.146968 -408.126078 
L 179.146968 -407.003174 
L 179.243589 -407.003174 
L 179.243589 -403.646746 
L 179.34021 -403.646746 
L 179.34021 -402.538998 
L 179.43683 -402.538998 
L 179.43683 -402.538998 
L 179.533451 -402.538998 
L 179.533451 -402.538998 
L 179.630072 -402.538998 
L 179.630072 -402.538998 
L 179.919934 -402.538998 
L 179.919934 -400.3057 
L 180.016555 -400.3057 
L 180.016555 -400.3057 
L 180.113176 -400.3057 
L 180.113176 -399.183781 
L 180.306417 -399.183781 
L 180.306417 -399.183781 
L 180.499659 -399.183781 
L 180.499659 -398.058095 
L 180.596279 -398.058095 
L 180.596279 -396.932665 
L 180.789521 -396.932665 
L 180.789521 -396.932665 
L 180.982762 -396.932665 
L 180.982762 -395.803067 
L 181.079383 -395.803067 
L 181.079383 -395.803067 
L 181.176004 -395.803067 
L 181.176004 -395.803067 
L 181.272625 -395.803067 
L 181.272625 -395.803067 
L 181.369245 -395.803067 
L 181.369245 -395.803067 
L 181.465866 -395.803067 
L 181.465866 -395.803067 
L 181.659108 -395.803067 
L 181.659108 -395.803067 
L 181.852349 -395.803067 
L 181.852349 -395.803067 
L 181.94897 -395.803067 
L 181.94897 -395.803067 
L 182.045591 -395.803067 
L 182.045591 -395.803067 
L 182.142211 -395.803067 
L 182.142211 -395.803067 
L 182.335453 -395.803067 
L 182.335453 -395.803067 
L 182.432074 -395.803067 
L 182.432074 -395.803067 
L 182.528694 -395.803067 
L 182.528694 -394.571634 
L 182.625315 -394.571634 
L 182.625315 -394.571634 
L 182.721936 -394.571634 
L 182.721936 -394.571634 
L 182.915177 -394.571634 
L 182.915177 -394.571634 
L 183.108419 -394.571634 
L 183.108419 -393.309993 
L 183.20504 -393.309993 
L 183.20504 -392.049108 
L 183.30166 -392.049108 
L 183.30166 -389.533692 
L 183.398281 -389.533692 
L 183.398281 -389.533692 
L 183.591523 -389.533692 
L 183.591523 -389.533692 
L 183.688143 -389.533692 
L 183.688143 -389.533692 
L 183.881385 -389.533692 
L 183.881385 -388.262453 
L 183.978006 -388.262453 
L 183.978006 -386.996399 
L 184.074626 -386.996399 
L 184.074626 -386.996399 
L 184.364489 -386.996399 
L 184.364489 -386.996399 
L 184.654351 -386.996399 
L 184.654351 -386.996399 
L 184.750972 -386.996399 
L 184.750972 -385.71328 
L 184.944213 -385.71328 
L 184.944213 -384.435113 
L 185.330696 -384.435113 
L 185.330696 -384.435113 
L 185.427317 -384.435113 
L 185.427317 -384.435113 
L 185.717179 -384.435113 
L 185.717179 -384.435113 
L 185.91042 -384.435113 
L 185.91042 -384.435113 
L 186.007041 -384.435113 
L 186.007041 -383.133311 
L 186.103662 -383.133311 
L 186.103662 -383.133311 
L 186.296903 -383.133311 
L 186.296903 -383.133311 
L 186.393524 -383.133311 
L 186.393524 -383.133311 
L 187.069869 -383.133311 
L 187.069869 -383.133311 
L 187.649594 -383.133311 
L 187.649594 -383.133311 
L 187.842835 -383.133311 
L 187.842835 -383.133311 
L 188.132698 -383.133311 
L 188.132698 -381.800828 
L 188.325939 -381.800828 
L 188.325939 -381.800828 
L 188.42256 -381.800828 
L 188.42256 -380.461219 
L 188.615801 -380.461219 
L 188.615801 -380.461219 
L 188.712422 -380.461219 
L 188.712422 -380.461219 
L 190.161733 -380.461219 
L 190.161733 -380.461219 
L 190.451596 -380.461219 
L 190.451596 -380.461219 
L 190.741458 -380.461219 
L 190.741458 -379.088702 
L 190.838079 -379.088702 
L 190.838079 -379.088702 
L 191.127941 -379.088702 
L 191.127941 -377.714969 
L 191.224562 -377.714969 
L 191.224562 -377.714969 
L 191.321182 -377.714969 
L 191.321182 -376.333182 
L 191.417803 -376.333182 
L 191.417803 -373.58445 
L 191.611045 -373.58445 
L 191.611045 -373.58445 
L 191.900907 -373.58445 
L 191.900907 -373.58445 
L 191.997528 -373.58445 
L 191.997528 -373.58445 
L 192.384011 -373.58445 
L 192.384011 -372.183236 
L 192.770494 -372.183236 
L 192.770494 -372.183236 
L 192.867114 -372.183236 
L 192.867114 -372.183236 
L 193.446839 -372.183236 
L 193.446839 -372.183236 
L 193.54346 -372.183236 
L 193.54346 -370.758616 
L 194.026563 -370.758616 
L 194.026563 -369.331701 
L 194.89615 -369.331701 
L 194.89615 -367.909563 
L 195.669116 -367.909563 
L 195.669116 -366.491986 
L 196.635324 -366.491986 
L 196.635324 -366.491986 
L 200.01705 -366.491986 
L 200.01705 -366.491986 
L 200.210291 -366.491986 
L 200.210291 -366.491986 
L 201.949465 -366.491986 
L 201.949465 -365.049326 
L 202.722431 -365.049326 
L 202.722431 -365.049326 
L 203.785259 -365.049326 
L 203.785259 -365.049326 
L 204.171742 -365.049326 
L 204.171742 -365.049326 
L 204.461604 -365.049326 
L 204.461604 -365.049326 
L 206.587261 -365.049326 
L 206.587261 -365.049326 
L 206.973744 -365.049326 
L 206.973744 -365.049326 
L 207.456847 -365.049326 
L 207.456847 -365.049326 
L 207.553468 -365.049326 
L 207.553468 -365.049326 
L 208.133193 -365.049326 
L 208.133193 -365.049326 
L 208.229813 -365.049326 
L 208.229813 -365.049326 
L 208.712917 -365.049326 
L 208.712917 -363.532141 
L 209.389262 -363.532141 
L 209.389262 -363.532141 
L 209.485883 -363.532141 
L 209.485883 -363.532141 
L 209.679125 -363.532141 
L 209.679125 -363.532141 
L 209.775745 -363.532141 
L 209.775745 -363.532141 
L 210.838574 -363.532141 
L 210.838574 -361.986256 
L 211.031815 -361.986256 
L 211.031815 -360.445854 
L 211.128436 -360.445854 
L 211.128436 -360.445854 
L 211.514919 -360.445854 
L 211.514919 -358.901976 
L 211.61154 -358.901976 
L 211.61154 -358.901976 
L 211.70816 -358.901976 
L 211.70816 -358.901976 
L 212.287885 -358.901976 
L 212.287885 -358.901976 
L 212.384506 -358.901976 
L 212.384506 -357.327395 
L 212.481126 -357.327395 
L 212.481126 -357.327395 
L 212.674368 -357.327395 
L 212.674368 -357.327395 
L 212.96423 -357.327395 
L 212.96423 -357.327395 
L 213.060851 -357.327395 
L 213.060851 -355.730217 
L 213.640575 -355.730217 
L 213.640575 -355.730217 
L 213.737196 -355.730217 
L 213.737196 -354.119333 
L 214.027058 -354.119333 
L 214.027058 -352.5139 
L 214.123679 -352.5139 
L 214.123679 -352.5139 
L 214.2203 -352.5139 
L 214.2203 -350.903949 
L 214.316921 -350.903949 
L 214.316921 -350.903949 
L 214.413541 -350.903949 
L 214.413541 -349.289267 
L 214.510162 -349.289267 
L 214.510162 -347.669643 
L 214.606783 -347.669643 
L 214.606783 -347.669643 
L 214.703404 -347.669643 
L 214.703404 -347.669643 
L 214.800024 -347.669643 
L 214.800024 -347.669643 
L 214.993266 -347.669643 
L 214.993266 -347.669643 
L 215.089887 -347.669643 
L 215.089887 -347.669643 
L 215.186507 -347.669643 
L 215.186507 -347.669643 
L 215.283128 -347.669643 
L 215.283128 -345.992435 
L 215.57299 -345.992435 
L 215.57299 -345.992435 
L 215.766232 -345.992435 
L 215.766232 -344.298792 
L 215.959473 -344.298792 
L 215.959473 -344.298792 
L 216.442577 -344.298792 
L 216.442577 -342.599499 
L 216.539198 -342.599499 
L 216.539198 -342.599499 
L 216.732439 -342.599499 
L 216.732439 -342.599499 
L 216.925681 -342.599499 
L 216.925681 -342.599499 
L 217.118922 -342.599499 
L 217.118922 -342.599499 
L 217.215543 -342.599499 
L 217.215543 -340.859441 
L 217.602026 -340.859441 
L 217.602026 -340.859441 
L 218.181751 -340.859441 
L 218.181751 -340.859441 
L 218.374992 -340.859441 
L 218.374992 -340.859441 
L 218.471613 -340.859441 
L 218.471613 -339.088831 
L 218.568234 -339.088831 
L 218.568234 -339.088831 
L 218.858096 -339.088831 
L 218.858096 -339.088831 
L 219.147958 -339.088831 
L 219.147958 -339.088831 
L 219.631062 -339.088831 
L 219.631062 -337.273369 
L 219.727682 -337.273369 
L 219.727682 -337.273369 
L 219.824303 -337.273369 
L 219.824303 -337.273369 
L 220.597269 -337.273369 
L 220.597269 -337.273369 
L 220.69389 -337.273369 
L 220.69389 -337.273369 
L 221.176994 -337.273369 
L 221.176994 -335.410467 
L 221.370235 -335.410467 
L 221.370235 -333.540394 
L 222.433063 -333.540394 
L 222.433063 -333.540394 
L 223.012788 -333.540394 
L 223.012788 -333.540394 
L 223.206029 -333.540394 
L 223.206029 -331.648456 
L 223.882375 -331.648456 
L 223.882375 -331.648456 
L 223.978995 -331.648456 
L 223.978995 -329.748686 
L 224.075616 -329.748686 
L 224.075616 -327.855617 
L 224.365478 -327.855617 
L 224.365478 -324.059017 
L 224.751961 -324.059017 
L 224.751961 -322.170081 
L 225.041824 -322.170081 
L 225.041824 -322.170081 
L 225.718169 -322.170081 
L 225.718169 -322.170081 
L 226.684376 -322.170081 
L 226.684376 -322.170081 
L 228.037067 -322.170081 
L 228.037067 -322.170081 
L 228.42355 -322.170081 
L 228.42355 -322.170081 
L 229.486378 -322.170081 
L 229.486378 -320.208653 
L 229.969482 -320.208653 
L 229.969482 -318.253886 
L 230.355965 -318.253886 
L 230.355965 -318.253886 
L 230.452586 -318.253886 
L 230.452586 -318.253886 
L 231.03231 -318.253886 
L 231.03231 -316.255123 
L 231.322172 -316.255123 
L 231.322172 -314.263167 
L 231.708655 -314.263167 
L 231.708655 -314.263167 
L 232.481621 -314.263167 
L 232.481621 -312.242555 
L 232.674863 -312.242555 
L 232.674863 -310.228716 
L 234.510657 -310.228716 
L 234.510657 -308.203251 
L 237.119417 -308.203251 
L 237.119417 -306.165779 
L 237.795762 -306.165779 
L 237.795762 -306.165779 
L 238.472108 -306.165779 
L 238.472108 -304.115911 
L 238.665349 -304.115911 
L 238.665349 -302.072626 
L 240.211281 -302.072626 
L 240.211281 -300.035729 
L 241.080868 -300.035729 
L 241.080868 -300.035729 
L 242.047075 -300.035729 
L 242.047075 -300.035729 
L 242.336938 -300.035729 
L 242.336938 -300.035729 
L 242.820041 -300.035729 
L 242.820041 -297.945348 
L 242.916662 -297.945348 
L 242.916662 -297.945348 
L 243.786249 -297.945348 
L 243.786249 -297.945348 
L 245.525422 -297.945348 
L 245.525422 -295.819765 
L 245.911905 -295.819765 
L 245.911905 -295.819765 
L 246.878113 -295.819765 
L 246.878113 -295.819765 
L 247.167975 -295.819765 
L 247.167975 -293.657414 
L 247.264596 -293.657414 
L 247.264596 -291.479718 
L 247.361217 -291.479718 
L 247.361217 -289.309368 
L 247.554458 -289.309368 
L 247.554458 -284.989899 
L 247.651079 -284.989899 
L 247.651079 -284.989899 
L 247.940941 -284.989899 
L 247.940941 -284.989899 
L 248.424045 -284.989899 
L 248.424045 -284.989899 
L 248.617286 -284.989899 
L 248.617286 -284.989899 
L 248.907149 -284.989899 
L 248.907149 -284.989899 
L 249.390252 -284.989899 
L 249.390252 -284.989899 
L 249.680115 -284.989899 
L 249.680115 -284.989899 
L 251.129426 -284.989899 
L 251.129426 -284.989899 
L 251.515909 -284.989899 
L 251.515909 -284.989899 
L 252.868599 -284.989899 
L 252.868599 -284.989899 
L 253.448324 -284.989899 
L 253.448324 -284.989899 
L 254.22129 -284.989899 
L 254.22129 -284.989899 
L 255.187497 -284.989899 
L 255.187497 -282.358363 
L 256.346946 -282.358363 
L 256.346946 -279.740081 
L 256.733429 -279.740081 
L 256.733429 -277.134562 
L 257.119912 -277.134562 
L 257.119912 -274.541355 
L 257.603016 -274.541355 
L 257.603016 -274.541355 
L 258.08612 -274.541355 
L 258.08612 -274.541355 
L 258.472603 -274.541355 
L 258.472603 -274.541355 
L 259.632052 -274.541355 
L 259.632052 -274.541355 
L 260.888121 -274.541355 
L 260.888121 -271.771841 
L 260.984742 -271.771841 
L 260.984742 -271.771841 
L 264.463089 -271.771841 
L 264.463089 -268.933551 
L 265.139434 -268.933551 
L 265.139434 -266.110817 
L 265.429297 -266.110817 
L 265.429297 -266.110817 
L 266.105642 -266.110817 
L 266.105642 -266.110817 
L 266.395504 -266.110817 
L 266.395504 -266.110817 
L 266.685366 -266.110817 
L 266.685366 -263.166764 
L 266.975229 -263.166764 
L 266.975229 -260.239683 
L 267.748195 -260.239683 
L 267.748195 -260.239683 
L 268.231298 -260.239683 
L 268.231298 -260.239683 
L 268.521161 -260.239683 
L 268.521161 -257.229439 
L 271.0333 -257.229439 
L 271.0333 -257.229439 
L 278.183235 -257.229439 
L 278.183235 -254.129796 
L 281.468341 -254.129796 
L 281.468341 -251.049349 
L 281.564962 -251.049349 
L 281.564962 -251.049349 
L 281.951445 -251.049349 
L 281.951445 -251.049349 
L 283.014273 -251.049349 
L 283.014273 -247.870873 
L 284.753446 -247.870873 
L 284.753446 -247.870873 
L 284.946688 -247.870873 
L 284.946688 -244.65063 
L 285.429792 -244.65063 
L 285.429792 -241.451287 
L 285.526412 -241.451287 
L 285.526412 -241.451287 
L 285.912895 -241.451287 
L 285.912895 -238.206552 
L 286.975723 -238.206552 
L 286.975723 -238.206552 
L 287.458827 -238.206552 
L 287.458827 -238.206552 
L 288.135172 -238.206552 
L 288.135172 -234.842036 
L 291.420278 -234.842036 
L 291.420278 -234.842036 
L 291.516899 -234.842036 
L 291.516899 -234.842036 
L 295.671591 -234.842036 
L 295.671591 -231.346265 
L 295.864832 -231.346265 
L 295.864832 -231.346265 
L 298.473593 -231.346265 
L 298.473593 -227.793329 
L 301.372215 -227.793329 
L 301.372215 -224.267911 
L 301.758698 -224.267911 
L 301.758698 -220.769139 
L 302.531664 -220.769139 
L 302.531664 -217.296238 
L 303.014768 -217.296238 
L 303.014768 -217.296238 
L 312.870084 -217.296238 
L 312.870084 -217.296238 
L 313.159946 -217.296238 
L 313.159946 -217.296238 
L 315.865327 -217.296238 
L 315.865327 -213.558242 
L 319.247054 -213.558242 
L 319.247054 -213.558242 
L 319.440295 -213.558242 
L 319.440295 -209.74336 
L 322.62878 -209.74336 
L 322.62878 -209.74336 
L 324.561195 -209.74336 
L 324.561195 -205.72174 
L 336.735409 -205.72174 
L 336.735409 -201.740739 
L 336.83203 -201.740739 
L 336.83203 -197.799158 
L 338.377962 -197.799158 
L 338.377962 -197.799158 
L 342.822516 -197.799158 
L 342.822516 -197.799158 
L 349.682589 -197.799158 
L 349.682589 -197.799158 
L 352.38797 -197.799158 
L 352.38797 -197.799158 
L 355.673076 -197.799158 
L 355.673076 -197.799158 
L 356.639283 -197.799158 
L 356.639283 -197.799158 
L 360.407492 -197.799158 
L 360.407492 -197.799158 
L 370.842533 -197.799158 
L 370.842533 -192.682329 
L 372.388465 -192.682329 
L 372.388465 -192.682329 
L 380.021504 -192.682329 
L 380.021504 -192.682329 
L 382.243782 -192.682329 
L 382.243782 -187.156263 
L 384.272817 -187.156263 
L 384.272817 -181.741738 
L 385.528887 -181.741738 
L 385.528887 -181.741738 
L 389.393717 -181.741738 
L 389.393717 -176.136864 
L 391.326132 -176.136864 
L 391.326132 -176.136864 
L 391.905856 -176.136864 
L 391.905856 -176.136864 
L 392.292339 -176.136864 
L 392.292339 -176.136864 
L 392.485581 -176.136864 
L 392.485581 -176.136864 
L 394.224754 -176.136864 
L 394.224754 -176.136864 
L 394.514617 -176.136864 
L 394.514617 -176.136864 
L 395.674066 -176.136864 
L 395.674066 -176.136864 
L 397.026756 -176.136864 
L 397.026756 -176.136864 
L 401.084828 -176.136864 
L 401.084828 -166.240427 
L 409.684074 -166.240427 
L 409.684074 -166.240427 
L 414.804974 -166.240427 
L 414.804974 -166.240427 
L 420.988702 -166.240427 
L 420.988702 -166.240427 
L 422.05153 -166.240427 
L 422.05153 -166.240427 
L 425.723118 -166.240427 
L 425.723118 -148.565898 
L 426.979188 -148.565898 
L 426.979188 -148.565898 
L 427.945396 -148.565898 
L 427.945396 -148.565898 
L 440.409472 -148.565898 
L 440.409472 -148.565898 
L 442.148646 -148.565898 
L 442.148646 -118.65118 
L 460.216726 -118.65118 
L 460.216726 -100.388182 
L 461.376175 -100.388182 
L 461.376175 -100.388182 
L 545.146364 -100.388182 
L 545.146364 -100.388182 
L 545.146364 -196.827675 
L 545.146364 -196.827675 
L 545.146364 -196.827675 
L 461.376175 -196.827675 
L 461.376175 -196.827675 
L 460.216726 -196.827675 
L 460.216726 -213.802784 
L 442.148646 -213.802784 
L 442.148646 -222.853503 
L 440.409472 -222.853503 
L 440.409472 -222.853503 
L 427.945396 -222.853503 
L 427.945396 -222.853503 
L 426.979188 -222.853503 
L 426.979188 -222.853503 
L 425.723118 -222.853503 
L 425.723118 -230.405499 
L 422.05153 -230.405499 
L 422.05153 -230.405499 
L 420.988702 -230.405499 
L 420.988702 -230.405499 
L 414.804974 -230.405499 
L 414.804974 -230.405499 
L 409.684074 -230.405499 
L 409.684074 -230.405499 
L 401.084828 -230.405499 
L 401.084828 -236.589037 
L 397.026756 -236.589037 
L 397.026756 -236.589037 
L 395.674066 -236.589037 
L 395.674066 -236.589037 
L 394.514617 -236.589037 
L 394.514617 -236.589037 
L 394.224754 -236.589037 
L 394.224754 -236.589037 
L 392.485581 -236.589037 
L 392.485581 -236.589037 
L 392.292339 -236.589037 
L 392.292339 -236.589037 
L 391.905856 -236.589037 
L 391.905856 -236.589037 
L 391.326132 -236.589037 
L 391.326132 -236.589037 
L 389.393717 -236.589037 
L 389.393717 -241.32972 
L 385.528887 -241.32972 
L 385.528887 -241.32972 
L 384.272817 -241.32972 
L 384.272817 -245.8609 
L 382.243782 -245.8609 
L 382.243782 -250.309987 
L 380.021504 -250.309987 
L 380.021504 -250.309987 
L 372.388465 -250.309987 
L 372.388465 -250.309987 
L 370.842533 -250.309987 
L 370.842533 -254.479733 
L 360.407492 -254.479733 
L 360.407492 -254.479733 
L 356.639283 -254.479733 
L 356.639283 -254.479733 
L 355.673076 -254.479733 
L 355.673076 -254.479733 
L 352.38797 -254.479733 
L 352.38797 -254.479733 
L 349.682589 -254.479733 
L 349.682589 -254.479733 
L 342.822516 -254.479733 
L 342.822516 -254.479733 
L 338.377962 -254.479733 
L 338.377962 -254.479733 
L 336.83203 -254.479733 
L 336.83203 -258.025542 
L 336.735409 -258.025542 
L 336.735409 -261.541797 
L 324.561195 -261.541797 
L 324.561195 -265.027768 
L 322.62878 -265.027768 
L 322.62878 -265.027768 
L 319.440295 -265.027768 
L 319.440295 -268.360511 
L 319.247054 -268.360511 
L 319.247054 -268.360511 
L 315.865327 -268.360511 
L 315.865327 -271.610722 
L 313.159946 -271.610722 
L 313.159946 -271.610722 
L 312.870084 -271.610722 
L 312.870084 -271.610722 
L 303.014768 -271.610722 
L 303.014768 -271.610722 
L 302.531664 -271.610722 
L 302.531664 -274.682333 
L 301.758698 -274.682333 
L 301.758698 -277.734552 
L 301.372215 -277.734552 
L 301.372215 -280.766917 
L 298.473593 -280.766917 
L 298.473593 -283.778892 
L 295.864832 -283.778892 
L 295.864832 -283.778892 
L 295.671591 -283.778892 
L 295.671591 -286.726999 
L 291.516899 -286.726999 
L 291.516899 -286.726999 
L 291.420278 -286.726999 
L 291.420278 -286.726999 
L 288.135172 -286.726999 
L 288.135172 -289.574914 
L 287.458827 -289.574914 
L 287.458827 -289.574914 
L 286.975723 -289.574914 
L 286.975723 -289.574914 
L 285.912895 -289.574914 
L 285.912895 -292.330741 
L 285.526412 -292.330741 
L 285.526412 -292.330741 
L 285.429792 -292.330741 
L 285.429792 -295.035678 
L 284.946688 -295.035678 
L 284.946688 -297.725207 
L 284.753446 -297.725207 
L 284.753446 -297.725207 
L 283.014273 -297.725207 
L 283.014273 -300.3665 
L 281.951445 -300.3665 
L 281.951445 -300.3665 
L 281.564962 -300.3665 
L 281.564962 -300.3665 
L 281.468341 -300.3665 
L 281.468341 -302.931338 
L 278.183235 -302.931338 
L 278.183235 -305.482113 
L 271.0333 -305.482113 
L 271.0333 -305.482113 
L 268.521161 -305.482113 
L 268.521161 -307.962606 
L 268.231298 -307.962606 
L 268.231298 -307.962606 
L 267.748195 -307.962606 
L 267.748195 -307.962606 
L 266.975229 -307.962606 
L 266.975229 -310.37737 
L 266.685366 -310.37737 
L 266.685366 -312.779747 
L 266.395504 -312.779747 
L 266.395504 -312.779747 
L 266.105642 -312.779747 
L 266.105642 -312.779747 
L 265.429297 -312.779747 
L 265.429297 -312.779747 
L 265.139434 -312.779747 
L 265.139434 -315.097777 
L 264.463089 -315.097777 
L 264.463089 -317.404476 
L 260.984742 -317.404476 
L 260.984742 -317.404476 
L 260.888121 -317.404476 
L 260.888121 -319.655813 
L 259.632052 -319.655813 
L 259.632052 -319.655813 
L 258.472603 -319.655813 
L 258.472603 -319.655813 
L 258.08612 -319.655813 
L 258.08612 -319.655813 
L 257.603016 -319.655813 
L 257.603016 -319.655813 
L 257.119912 -319.655813 
L 257.119912 -321.795481 
L 256.733429 -321.795481 
L 256.733429 -323.926139 
L 256.346946 -323.926139 
L 256.346946 -326.047513 
L 255.187497 -326.047513 
L 255.187497 -328.159301 
L 254.22129 -328.159301 
L 254.22129 -328.159301 
L 253.448324 -328.159301 
L 253.448324 -328.159301 
L 252.868599 -328.159301 
L 252.868599 -328.159301 
L 251.515909 -328.159301 
L 251.515909 -328.159301 
L 251.129426 -328.159301 
L 251.129426 -328.159301 
L 249.680115 -328.159301 
L 249.680115 -328.159301 
L 249.390252 -328.159301 
L 249.390252 -328.159301 
L 248.907149 -328.159301 
L 248.907149 -328.159301 
L 248.617286 -328.159301 
L 248.617286 -328.159301 
L 248.424045 -328.159301 
L 248.424045 -328.159301 
L 247.940941 -328.159301 
L 247.940941 -328.159301 
L 247.651079 -328.159301 
L 247.651079 -328.159301 
L 247.554458 -328.159301 
L 247.554458 -331.822172 
L 247.361217 -331.822172 
L 247.361217 -333.645561 
L 247.264596 -333.645561 
L 247.264596 -335.463428 
L 247.167975 -335.463428 
L 247.167975 -337.262629 
L 246.878113 -337.262629 
L 246.878113 -337.262629 
L 245.911905 -337.262629 
L 245.911905 -337.262629 
L 245.525422 -337.262629 
L 245.525422 -339.03108 
L 243.786249 -339.03108 
L 243.786249 -339.03108 
L 242.916662 -339.03108 
L 242.916662 -339.03108 
L 242.820041 -339.03108 
L 242.820041 -340.769998 
L 242.336938 -340.769998 
L 242.336938 -340.769998 
L 242.047075 -340.769998 
L 242.047075 -340.769998 
L 241.080868 -340.769998 
L 241.080868 -340.769998 
L 240.211281 -340.769998 
L 240.211281 -342.469126 
L 238.665349 -342.469126 
L 238.665349 -344.16344 
L 238.472108 -344.16344 
L 238.472108 -345.852826 
L 237.795762 -345.852826 
L 237.795762 -345.852826 
L 237.119417 -345.852826 
L 237.119417 -347.526336 
L 234.510657 -347.526336 
L 234.510657 -349.184264 
L 232.674863 -349.184264 
L 232.674863 -350.826886 
L 232.481621 -350.826886 
L 232.481621 -352.46451 
L 231.708655 -352.46451 
L 231.708655 -352.46451 
L 231.322172 -352.46451 
L 231.322172 -354.077287 
L 231.03231 -354.077287 
L 231.03231 -355.685073 
L 230.452586 -355.685073 
L 230.452586 -355.685073 
L 230.355965 -355.685073 
L 230.355965 -355.685073 
L 229.969482 -355.685073 
L 229.969482 -357.259716 
L 229.486378 -357.259716 
L 229.486378 -358.82949 
L 228.42355 -358.82949 
L 228.42355 -358.82949 
L 228.037067 -358.82949 
L 228.037067 -358.82949 
L 226.684376 -358.82949 
L 226.684376 -358.82949 
L 225.718169 -358.82949 
L 225.718169 -358.82949 
L 225.041824 -358.82949 
L 225.041824 -358.82949 
L 224.751961 -358.82949 
L 224.751961 -360.350682 
L 224.365478 -360.350682 
L 224.365478 -363.379341 
L 224.075616 -363.379341 
L 224.075616 -364.878405 
L 223.978995 -364.878405 
L 223.978995 -366.37264 
L 223.882375 -366.37264 
L 223.882375 -366.37264 
L 223.206029 -366.37264 
L 223.206029 -367.854041 
L 223.012788 -367.854041 
L 223.012788 -367.854041 
L 222.433063 -367.854041 
L 222.433063 -367.854041 
L 221.370235 -367.854041 
L 221.370235 -369.315148 
L 221.176994 -369.315148 
L 221.176994 -370.763877 
L 220.69389 -370.763877 
L 220.69389 -370.763877 
L 220.597269 -370.763877 
L 220.597269 -370.763877 
L 219.824303 -370.763877 
L 219.824303 -370.763877 
L 219.727682 -370.763877 
L 219.727682 -370.763877 
L 219.631062 -370.763877 
L 219.631062 -372.178959 
L 219.147958 -372.178959 
L 219.147958 -372.178959 
L 218.858096 -372.178959 
L 218.858096 -372.178959 
L 218.568234 -372.178959 
L 218.568234 -372.178959 
L 218.471613 -372.178959 
L 218.471613 -373.562071 
L 218.374992 -373.562071 
L 218.374992 -373.562071 
L 218.181751 -373.562071 
L 218.181751 -373.562071 
L 217.602026 -373.562071 
L 217.602026 -373.562071 
L 217.215543 -373.562071 
L 217.215543 -374.921163 
L 217.118922 -374.921163 
L 217.118922 -374.921163 
L 216.925681 -374.921163 
L 216.925681 -374.921163 
L 216.732439 -374.921163 
L 216.732439 -374.921163 
L 216.539198 -374.921163 
L 216.539198 -374.921163 
L 216.442577 -374.921163 
L 216.442577 -376.250952 
L 215.959473 -376.250952 
L 215.959473 -376.250952 
L 215.766232 -376.250952 
L 215.766232 -377.570602 
L 215.57299 -377.570602 
L 215.57299 -377.570602 
L 215.283128 -377.570602 
L 215.283128 -378.874315 
L 215.186507 -378.874315 
L 215.186507 -378.874315 
L 215.089887 -378.874315 
L 215.089887 -378.874315 
L 214.993266 -378.874315 
L 214.993266 -378.874315 
L 214.800024 -378.874315 
L 214.800024 -378.874315 
L 214.703404 -378.874315 
L 214.703404 -378.874315 
L 214.606783 -378.874315 
L 214.606783 -378.874315 
L 214.510162 -378.874315 
L 214.510162 -380.140091 
L 214.413541 -380.140091 
L 214.413541 -381.396674 
L 214.316921 -381.396674 
L 214.316921 -381.396674 
L 214.2203 -381.396674 
L 214.2203 -382.644119 
L 214.123679 -382.644119 
L 214.123679 -382.644119 
L 214.027058 -382.644119 
L 214.027058 -383.882473 
L 213.737196 -383.882473 
L 213.737196 -385.116894 
L 213.640575 -385.116894 
L 213.640575 -385.116894 
L 213.060851 -385.116894 
L 213.060851 -386.337166 
L 212.96423 -386.337166 
L 212.96423 -386.337166 
L 212.674368 -386.337166 
L 212.674368 -386.337166 
L 212.481126 -386.337166 
L 212.481126 -386.337166 
L 212.384506 -386.337166 
L 212.384506 -387.538714 
L 212.287885 -387.538714 
L 212.287885 -387.538714 
L 211.70816 -387.538714 
L 211.70816 -387.538714 
L 211.61154 -387.538714 
L 211.61154 -387.538714 
L 211.514919 -387.538714 
L 211.514919 -388.717447 
L 211.128436 -388.717447 
L 211.128436 -388.717447 
L 211.031815 -388.717447 
L 211.031815 -389.887757 
L 210.838574 -389.887757 
L 210.838574 -391.05414 
L 209.775745 -391.05414 
L 209.775745 -391.05414 
L 209.679125 -391.05414 
L 209.679125 -391.05414 
L 209.485883 -391.05414 
L 209.485883 -391.05414 
L 209.389262 -391.05414 
L 209.389262 -391.05414 
L 208.712917 -391.05414 
L 208.712917 -392.198906 
L 208.229813 -392.198906 
L 208.229813 -392.198906 
L 208.133193 -392.198906 
L 208.133193 -392.198906 
L 207.553468 -392.198906 
L 207.553468 -392.198906 
L 207.456847 -392.198906 
L 207.456847 -392.198906 
L 206.973744 -392.198906 
L 206.973744 -392.198906 
L 206.587261 -392.198906 
L 206.587261 -392.198906 
L 204.461604 -392.198906 
L 204.461604 -392.198906 
L 204.171742 -392.198906 
L 204.171742 -392.198906 
L 203.785259 -392.198906 
L 203.785259 -392.198906 
L 202.722431 -392.198906 
L 202.722431 -392.198906 
L 201.949465 -392.198906 
L 201.949465 -393.298436 
L 200.210291 -393.298436 
L 200.210291 -393.298436 
L 200.01705 -393.298436 
L 200.01705 -393.298436 
L 196.635324 -393.298436 
L 196.635324 -393.298436 
L 195.669116 -393.298436 
L 195.669116 -394.378905 
L 194.89615 -394.378905 
L 194.89615 -395.455968 
L 194.026563 -395.455968 
L 194.026563 -396.529503 
L 193.54346 -396.529503 
L 193.54346 -397.59567 
L 193.446839 -397.59567 
L 193.446839 -397.59567 
L 192.867114 -397.59567 
L 192.867114 -397.59567 
L 192.770494 -397.59567 
L 192.770494 -397.59567 
L 192.384011 -397.59567 
L 192.384011 -398.643655 
L 191.997528 -398.643655 
L 191.997528 -398.643655 
L 191.900907 -398.643655 
L 191.900907 -398.643655 
L 191.611045 -398.643655 
L 191.611045 -398.643655 
L 191.417803 -398.643655 
L 191.417803 -400.694043 
L 191.321182 -400.694043 
L 191.321182 -401.713767 
L 191.224562 -401.713767 
L 191.224562 -401.713767 
L 191.127941 -401.713767 
L 191.127941 -402.723076 
L 190.838079 -402.723076 
L 190.838079 -402.723076 
L 190.741458 -402.723076 
L 190.741458 -403.725267 
L 190.451596 -403.725267 
L 190.451596 -403.725267 
L 190.161733 -403.725267 
L 190.161733 -403.725267 
L 188.712422 -403.725267 
L 188.712422 -403.725267 
L 188.615801 -403.725267 
L 188.615801 -403.725267 
L 188.42256 -403.725267 
L 188.42256 -404.704756 
L 188.325939 -404.704756 
L 188.325939 -404.704756 
L 188.132698 -404.704756 
L 188.132698 -405.674361 
L 187.842835 -405.674361 
L 187.842835 -405.674361 
L 187.649594 -405.674361 
L 187.649594 -405.674361 
L 187.069869 -405.674361 
L 187.069869 -405.674361 
L 186.393524 -405.674361 
L 186.393524 -405.674361 
L 186.296903 -405.674361 
L 186.296903 -405.674361 
L 186.103662 -405.674361 
L 186.103662 -405.674361 
L 186.007041 -405.674361 
L 186.007041 -406.622598 
L 185.91042 -406.622598 
L 185.91042 -406.622598 
L 185.717179 -406.622598 
L 185.717179 -406.622598 
L 185.427317 -406.622598 
L 185.427317 -406.622598 
L 185.330696 -406.622598 
L 185.330696 -406.622598 
L 184.944213 -406.622598 
L 184.944213 -407.5531 
L 184.750972 -407.5531 
L 184.750972 -408.479854 
L 184.654351 -408.479854 
L 184.654351 -408.479854 
L 184.364489 -408.479854 
L 184.364489 -408.479854 
L 184.074626 -408.479854 
L 184.074626 -408.479854 
L 183.978006 -408.479854 
L 183.978006 -409.392071 
L 183.881385 -409.392071 
L 183.881385 -410.300373 
L 183.688143 -410.300373 
L 183.688143 -410.300373 
L 183.591523 -410.300373 
L 183.591523 -410.300373 
L 183.398281 -410.300373 
L 183.398281 -410.300373 
L 183.30166 -410.300373 
L 183.30166 -412.084367 
L 183.20504 -412.084367 
L 183.20504 -412.967543 
L 183.108419 -412.967543 
L 183.108419 -413.84382 
L 182.915177 -413.84382 
L 182.915177 -413.84382 
L 182.721936 -413.84382 
L 182.721936 -413.84382 
L 182.625315 -413.84382 
L 182.625315 -413.84382 
L 182.528694 -413.84382 
L 182.528694 -414.699175 
L 182.432074 -414.699175 
L 182.432074 -414.699175 
L 182.335453 -414.699175 
L 182.335453 -414.699175 
L 182.142211 -414.699175 
L 182.142211 -414.699175 
L 182.045591 -414.699175 
L 182.045591 -414.699175 
L 181.94897 -414.699175 
L 181.94897 -414.699175 
L 181.852349 -414.699175 
L 181.852349 -414.699175 
L 181.659108 -414.699175 
L 181.659108 -414.699175 
L 181.465866 -414.699175 
L 181.465866 -414.699175 
L 181.369245 -414.699175 
L 181.369245 -414.699175 
L 181.272625 -414.699175 
L 181.272625 -414.699175 
L 181.176004 -414.699175 
L 181.176004 -414.699175 
L 181.079383 -414.699175 
L 181.079383 -414.699175 
L 180.982762 -414.699175 
L 180.982762 -415.50104 
L 180.789521 -415.50104 
L 180.789521 -415.50104 
L 180.596279 -415.50104 
L 180.596279 -416.295104 
L 180.499659 -416.295104 
L 180.499659 -417.083252 
L 180.306417 -417.083252 
L 180.306417 -417.083252 
L 180.113176 -417.083252 
L 180.113176 -417.863436 
L 180.016555 -417.863436 
L 180.016555 -417.863436 
L 179.919934 -417.863436 
L 179.919934 -419.39957 
L 179.630072 -419.39957 
L 179.630072 -419.39957 
L 179.533451 -419.39957 
L 179.533451 -419.39957 
L 179.43683 -419.39957 
L 179.43683 -419.39957 
L 179.34021 -419.39957 
L 179.34021 -420.153559 
L 179.243589 -420.153559 
L 179.243589 -422.384993 
L 179.146968 -422.384993 
L 179.146968 -423.114087 
L 179.050347 -423.114087 
L 179.050347 -423.835222 
L 178.953727 -423.835222 
L 178.953727 -423.835222 
L 178.857106 -423.835222 
L 178.857106 -423.835222 
L 178.760485 -423.835222 
L 178.760485 -425.25025 
L 178.663864 -425.25025 
L 178.663864 -426.627306 
L 178.567244 -426.627306 
L 178.567244 -426.627306 
L 178.470623 -426.627306 
L 178.470623 -427.297657 
L 178.374002 -427.297657 
L 178.374002 -427.297657 
L 178.277381 -427.297657 
L 178.277381 -427.297657 
L 177.987519 -427.297657 
L 177.987519 -427.949462 
L 177.890898 -427.949462 
L 177.890898 -427.949462 
L 177.697657 -427.949462 
L 177.697657 -428.587347 
L 177.504415 -428.587347 
L 177.504415 -429.212459 
L 177.407795 -429.212459 
L 177.407795 -429.821668 
L 177.311174 -429.821668 
L 177.311174 -429.821668 
L 177.214553 -429.821668 
L 177.214553 -429.821668 
L 177.117932 -429.821668 
L 177.117932 -430.411512 
L 176.634829 -430.411512 
L 176.634829 -431.523944 
L 176.538208 -431.523944 
L 176.538208 -432.03564 
L 175.958483 -432.03564 
L 175.958483 -432.505854 
L 175.668621 -432.505854 
L 175.668621 -432.505854 
L 175.572 -432.505854 
L 175.572 -432.505854 
L 175.282138 -432.505854 
L 175.282138 -432.505854 
L 175.185517 -432.505854 
L 175.185517 -432.914966 
L 174.895655 -432.914966 
L 174.895655 -433.229049 
L 173.253102 -433.229049 
L 173.253102 -433.229049 
L 172.480136 -433.229049 
L 172.480136 -433.351818 
L 169.09841 -433.351818 
L 169.09841 -433.351818 
L 167.649099 -433.351818 
L 167.649099 -433.351818 
L 166.586271 -433.351818 
L 166.586271 -433.351818 
L 160.209301 -433.351818 
L 160.209301 -433.351818 
L 144.073636 -433.351818 
z
" id="m0a8ebe6178" style="stroke:#2ca02c;stroke-opacity:0.2;"/>
    </defs>
    <g clip-path="url(#pb05c189a25)">
     <use style="fill:#2ca02c;fill-opacity:0.2;stroke:#2ca02c;stroke-opacity:0.2;" x="0" xlink:href="#m0a8ebe6178" y="460.8"/>
    </g>
   </g>
   <g id="matplotlib.axis_1">
    <g id="xtick_1">
     <g id="line2d_1">
      <defs>
       <path d="M 0 0 
L 0 3.5 
" id="me0f77e95af" style="stroke:#000000;stroke-width:0.8;"/>
      </defs>
      <g>
       <use style="stroke:#000000;stroke-width:0.8;" x="144.073636" xlink:href="#me0f77e95af" y="377.06"/>
      </g>
     </g>
     <g id="text_1">
      <text style="font-family:DejaVu Sans;font-size:32px;font-stretch:normal;font-style:normal;font-weight:normal;text-anchor:middle;" transform="rotate(-0, 144.073636, 408.375)" x="144.073636" y="408.375">0</text>
     </g>
    </g>
    <g id="xtick_2">
     <g id="line2d_2">
      <g>
       <use style="stroke:#000000;stroke-width:0.8;" x="291.118338" xlink:href="#me0f77e95af" y="377.06"/>
      </g>
     </g>
     <g id="text_2">
      <text style="font-family:DejaVu Sans;font-size:32px;font-stretch:normal;font-style:normal;font-weight:normal;text-anchor:middle;" transform="rotate(-0, 291.118338, 408.375)" x="291.118338" y="408.375">50</text>
     </g>
    </g>
    <g id="xtick_3">
     <g id="line2d_3">
      <g>
       <use style="stroke:#000000;stroke-width:0.8;" x="438.16304" xlink:href="#me0f77e95af" y="377.06"/>
      </g>
     </g>
     <g id="text_3">
      <text style="font-family:DejaVu Sans;font-size:32px;font-stretch:normal;font-style:normal;font-weight:normal;text-anchor:middle;" transform="rotate(-0, 438.16304, 408.375)" x="438.16304" y="408.375">100</text>
     </g>
    </g>
    <g id="text_4">
     <text style="font-family:DejaVu Sans;font-size:32px;font-stretch:normal;font-style:normal;font-weight:normal;text-anchor:middle;" transform="rotate(-0, 344.61, 443.345)" x="344.61" y="443.345">Time from MCI visit (months)</text>
    </g>
   </g>
   <g id="matplotlib.axis_2">
    <g id="ytick_1">
     <g id="line2d_4">
      <defs>
       <path d="M 0 0 
L -3.5 0 
" id="m4e896ad4c8" style="stroke:#000000;stroke-width:0.8;"/>
      </defs>
      <g>
       <use style="stroke:#000000;stroke-width:0.8;" x="124.02" xlink:href="#m4e896ad4c8" y="372.20757"/>
      </g>
     </g>
     <g id="text_5">
      <text style="font-family:DejaVu Sans;font-size:32px;font-stretch:normal;font-style:normal;font-weight:normal;text-anchor:end;" transform="rotate(-0, 117.02, 384.36507)" x="117.02" y="384.36507">0.00</text>
     </g>
    </g>
    <g id="ytick_2">
     <g id="line2d_5">
      <g>
       <use style="stroke:#000000;stroke-width:0.8;" x="124.02" xlink:href="#m4e896ad4c8" y="286.017723"/>
      </g>
     </g>
     <g id="text_6">
      <text style="font-family:DejaVu Sans;font-size:32px;font-stretch:normal;font-style:normal;font-weight:normal;text-anchor:end;" transform="rotate(-0, 117.02, 298.175223)" x="117.02" y="298.175223">0.25</text>
     </g>
    </g>
    <g id="ytick_3">
     <g id="line2d_6">
      <g>
       <use style="stroke:#000000;stroke-width:0.8;" x="124.02" xlink:href="#m4e896ad4c8" y="199.827876"/>
      </g>
     </g>
     <g id="text_7">
      <text style="font-family:DejaVu Sans;font-size:32px;font-stretch:normal;font-style:normal;font-weight:normal;text-anchor:end;" transform="rotate(-0, 117.02, 211.985376)" x="117.02" y="211.985376">0.50</text>
     </g>
    </g>
    <g id="ytick_4">
     <g id="line2d_7">
      <g>
       <use style="stroke:#000000;stroke-width:0.8;" x="124.02" xlink:href="#m4e896ad4c8" y="113.638029"/>
      </g>
     </g>
     <g id="text_8">
      <text style="font-family:DejaVu Sans;font-size:32px;font-stretch:normal;font-style:normal;font-weight:normal;text-anchor:end;" transform="rotate(-0, 117.02, 125.795529)" x="117.02" y="125.795529">0.75</text>
     </g>
    </g>
    <g id="ytick_5">
     <g id="line2d_8">
      <g>
       <use style="stroke:#000000;stroke-width:0.8;" x="124.02" xlink:href="#m4e896ad4c8" y="27.448182"/>
      </g>
     </g>
     <g id="text_9">
      <text style="font-family:DejaVu Sans;font-size:32px;font-stretch:normal;font-style:normal;font-weight:normal;text-anchor:end;" transform="rotate(-0, 117.02, 39.605682)" x="117.02" y="39.605682">1.00</text>
     </g>
    </g>
    <g id="text_10">
     <text style="font-family:DejaVu Sans;font-size:32px;font-stretch:normal;font-style:normal;font-weight:normal;text-anchor:middle;" transform="rotate(-90, 35.115, 193.93)" x="35.115" y="193.93">Survival rate</text>
    </g>
   </g>
   <g id="line2d_9">
    <path clip-path="url(#pb05c189a25)" d="M 144.073636 27.448182 
L 161.719001 27.448182 
L 161.719001 43.42159 
L 179.364365 43.42159 
L 179.364365 65.792595 
L 197.009729 65.792595 
L 197.009729 69.889051 
L 214.655093 69.889051 
L 214.655093 98.56425 
L 249.945822 98.56425 
L 249.945822 117.567258 
L 285.23655 117.567258 
L 285.23655 133.271947 
L 320.527278 133.271947 
L 320.527278 139.32095 
L 355.818007 139.32095 
L 355.818007 155.244821 
L 391.108735 155.244821 
L 391.108735 169.394566 
L 426.399464 169.394566 
L 426.399464 187.832112 
L 461.690192 187.832112 
L 461.690192 204.593517 
" style="fill:none;stroke:#ff7f0e;stroke-linecap:square;stroke-width:3;"/>
   </g>
   <g id="line2d_10">
    <path clip-path="url(#pb05c189a25)" d="M 144.073636 27.448182 
L 172.480136 27.448182 
L 172.480136 28.318786 
L 174.895655 28.318786 
L 174.895655 29.191601 
L 175.185517 29.191601 
L 175.185517 30.064415 
L 175.282138 30.064415 
L 175.958483 30.064415 
L 175.958483 30.94396 
L 176.538208 30.94396 
L 176.634829 33.587153 
L 177.117932 33.587153 
L 177.214553 34.47128 
L 177.214553 34.47128 
L 177.407795 34.47128 
L 177.504415 36.251191 
L 177.697657 36.251191 
L 177.697657 37.142322 
L 177.987519 37.142322 
L 177.987519 38.038218 
L 178.470623 38.038218 
L 178.470623 38.948761 
L 178.567244 38.948761 
L 178.663864 38.948761 
L 178.760485 42.631264 
L 179.050347 42.631264 
L 179.146968 44.490662 
L 179.243589 44.490662 
L 179.34021 48.235998 
L 179.919934 48.235998 
L 179.919934 50.130568 
L 180.016555 50.130568 
L 180.113176 50.130568 
L 180.113176 51.086286 
L 180.499659 51.086286 
L 180.596279 53.012064 
L 180.982762 53.012064 
L 180.982762 53.982263 
L 181.079383 53.982263 
L 182.528694 53.982263 
L 182.528694 55.025625 
L 182.625315 55.025625 
L 183.108419 55.025625 
L 183.20504 57.165151 
L 183.30166 57.165151 
L 183.30166 59.315611 
L 183.398281 59.315611 
L 183.881385 59.315611 
L 183.978006 61.496042 
L 184.750972 61.496042 
L 184.750972 62.601777 
L 184.944213 62.601777 
L 184.944213 63.707512 
L 186.007041 63.707512 
L 186.007041 64.833425 
L 186.103662 64.833425 
L 188.132698 64.833425 
L 188.132698 65.984639 
L 188.42256 65.984639 
L 188.42256 67.144574 
L 190.741458 67.144574 
L 190.741458 68.33159 
L 190.838079 68.33159 
L 191.127941 68.33159 
L 191.127941 69.52326 
L 191.224562 69.52326 
L 191.321182 69.52326 
L 191.417803 73.126645 
L 192.384011 73.126645 
L 192.384011 74.352387 
L 193.54346 74.352387 
L 193.54346 75.598643 
L 194.026563 75.598643 
L 194.026563 76.850157 
L 194.89615 76.850157 
L 194.89615 78.101672 
L 195.669116 78.101672 
L 195.669116 79.353186 
L 201.949465 79.353186 
L 201.949465 80.626466 
L 208.712917 80.626466 
L 208.712917 81.957886 
L 210.838574 81.957886 
L 210.838574 83.314193 
L 211.031815 83.314193 
L 211.031815 84.6705 
L 211.128436 84.6705 
L 211.514919 84.6705 
L 211.514919 86.033235 
L 211.61154 86.033235 
L 212.384506 86.033235 
L 212.384506 87.422431 
L 212.481126 87.422431 
L 213.060851 87.422431 
L 213.060851 88.832258 
L 213.737196 88.832258 
L 213.737196 90.256255 
L 214.027058 90.256255 
L 214.027058 91.680252 
L 214.123679 91.680252 
L 214.2203 91.680252 
L 214.2203 93.111513 
L 214.316921 93.111513 
L 214.413541 93.111513 
L 214.510162 95.996285 
L 215.283128 95.996285 
L 215.283128 97.489319 
L 215.766232 97.489319 
L 215.766232 98.99876 
L 216.442577 98.99876 
L 216.442577 100.516587 
L 216.539198 100.516587 
L 217.215543 100.516587 
L 217.215543 102.069107 
L 218.471613 102.069107 
L 218.471613 103.648864 
L 218.568234 103.648864 
L 219.631062 103.648864 
L 219.631062 105.266687 
L 219.727682 105.266687 
L 221.176994 105.266687 
L 221.176994 106.924705 
L 221.370235 106.924705 
L 221.370235 108.593151 
L 223.206029 108.593151 
L 223.206029 110.282987 
L 223.978995 110.282987 
L 224.075616 113.684605 
L 224.365478 113.684605 
L 224.365478 117.10875 
L 224.751961 117.10875 
L 224.751961 118.820823 
L 229.486378 118.820823 
L 229.486378 120.592758 
L 229.969482 120.592758 
L 229.969482 122.364693 
L 231.03231 122.364693 
L 231.03231 124.175149 
L 231.322172 124.175149 
L 231.322172 125.985605 
L 232.481621 125.985605 
L 232.481621 127.823082 
L 232.674863 127.823082 
L 232.674863 129.660559 
L 234.510657 129.660559 
L 234.510657 131.512063 
L 237.119417 131.512063 
L 237.119417 133.37792 
L 238.472108 133.37792 
L 238.472108 135.258468 
L 238.665349 135.258468 
L 238.665349 137.139017 
L 240.211281 137.139017 
L 240.211281 139.019565 
L 242.820041 139.019565 
L 242.820041 140.946739 
L 242.916662 140.946739 
L 245.525422 140.946739 
L 245.525422 142.906576 
L 247.167975 142.906576 
L 247.264596 146.912065 
L 247.361217 146.912065 
L 247.361217 148.923632 
L 247.554458 148.923632 
L 247.554458 152.946766 
L 247.651079 152.946766 
L 255.187497 152.946766 
L 255.187497 155.330036 
L 256.346946 155.330036 
L 256.346946 157.713305 
L 256.733429 157.713305 
L 256.733429 160.096575 
L 257.119912 160.096575 
L 257.119912 162.479844 
L 260.888121 162.479844 
L 260.888121 165.006684 
L 260.984742 165.006684 
L 264.463089 165.006684 
L 264.463089 167.596696 
L 265.139434 167.596696 
L 265.139434 170.186707 
L 266.685366 170.186707 
L 266.685366 172.880318 
L 266.975229 172.880318 
L 266.975229 175.57393 
L 268.521161 175.57393 
L 268.521161 178.343418 
L 278.183235 178.343418 
L 278.183235 181.194361 
L 281.468341 181.194361 
L 281.468341 184.045304 
L 281.564962 184.045304 
L 283.014273 184.045304 
L 283.014273 186.98534 
L 284.946688 186.98534 
L 284.946688 189.972795 
L 285.429792 189.972795 
L 285.429792 192.96025 
L 285.526412 192.96025 
L 285.912895 192.96025 
L 285.912895 195.998341 
L 288.135172 195.998341 
L 288.135172 199.144934 
L 295.671591 199.144934 
L 295.671591 202.410267 
L 298.473593 202.410267 
L 298.473593 205.739626 
L 301.372215 205.739626 
L 301.372215 209.068984 
L 301.758698 209.068984 
L 301.758698 212.398343 
L 302.531664 212.398343 
L 302.531664 215.727702 
L 315.865327 215.727702 
L 315.865327 219.284063 
L 319.440295 219.284063 
L 319.440295 222.925099 
L 324.561195 222.925099 
L 324.561195 226.752854 
L 336.735409 226.752854 
L 336.83203 234.408366 
L 370.842533 234.408366 
L 370.842533 239.160062 
L 382.243782 239.160062 
L 382.243782 244.277274 
L 384.272817 244.277274 
L 384.272817 249.394486 
L 389.393717 249.394486 
L 389.393717 254.734185 
L 401.084828 254.734185 
L 401.084828 263.125141 
L 425.723118 263.125141 
L 425.723118 276.760445 
L 442.148646 276.760445 
L 442.148646 300.622226 
L 460.216726 300.622226 
L 460.216726 324.484007 
L 545.146364 324.484007 
L 545.146364 324.484007 
" style="fill:none;stroke:#2ca02c;stroke-linecap:square;stroke-width:3;"/>
   </g>
   <g id="patch_3">
    <path d="M 124.02 377.06 
L 124.02 10.8 
" style="fill:none;stroke:#000000;stroke-linecap:square;stroke-linejoin:miter;stroke-width:0.8;"/>
   </g>
   <g id="patch_4">
    <path d="M 565.2 377.06 
L 565.2 10.8 
" style="fill:none;stroke:#000000;stroke-linecap:square;stroke-linejoin:miter;stroke-width:0.8;"/>
   </g>
   <g id="patch_5">
    <path d="M 124.02 377.06 
L 565.2 377.06 
" style="fill:none;stroke:#000000;stroke-linecap:square;stroke-linejoin:miter;stroke-width:0.8;"/>
   </g>
   <g id="patch_6">
    <path d="M 124.02 10.8 
L 565.2 10.8 
" style="fill:none;stroke:#000000;stroke-linecap:square;stroke-linejoin:miter;stroke-width:0.8;"/>
   </g>
   <g id="legend_1">
    <g id="patch_7">
     <path d="M 404.13 100.455 
L 548.4 100.455 
Q 553.2 100.455 553.2 95.655 
L 553.2 27.6 
Q 553.2 22.8 548.4 22.8 
L 404.13 22.8 
Q 399.33 22.8 399.33 27.6 
L 399.33 95.655 
Q 399.33 100.455 404.13 100.455 
z
" style="fill:#ffffff;opacity:0.8;stroke:#cccccc;stroke-linejoin:miter;"/>
    </g>
    <g id="line2d_11">
     <path d="M 408.93 42.23625 
L 456.93 42.23625 
" style="fill:none;stroke:#ff7f0e;stroke-linecap:square;stroke-width:3;"/>
    </g>
    <g id="line2d_12"/>
    <g id="text_11">
     <text style="font-family:DejaVu Sans;font-size:24px;font-stretch:normal;font-style:normal;font-weight:normal;text-anchor:start;" transform="rotate(-0, 476.13, 50.63625)" x="476.13" y="50.63625">ADNI</text>
    </g>
    <g id="line2d_13">
     <path d="M 408.93 77.46375 
L 456.93 77.46375 
" style="fill:none;stroke:#2ca02c;stroke-linecap:square;stroke-width:3;"/>
    </g>
    <g id="line2d_14"/>
    <g id="text_12">
     <text style="font-family:DejaVu Sans;font-size:24px;font-stretch:normal;font-style:normal;font-weight:normal;text-anchor:start;" transform="rotate(-0, 476.13, 85.86375)" x="476.13" y="85.86375">NACC</text>
    </g>
   </g>
  </g>
 </g>
 <defs>
  <clipPath id="pb05c189a25">
   <rect height="366.26" width="441.18" x="124.02" y="10.8"/>
  </clipPath>
 </defs>
</svg>
