<?xml version="1.0" encoding="utf-8" standalone="no"?>
<!DOCTYPE svg PUBLIC "-//W3C//DTD SVG 1.1//EN"
  "http://www.w3.org/Graphics/SVG/1.1/DTD/svg11.dtd">
<!-- Created with matplotlib (https://matplotlib.org/) -->
<svg height="460.8pt" version="1.1" viewBox="0 0 576 460.8" width="576pt" xmlns="http://www.w3.org/2000/svg" xmlns:xlink="http://www.w3.org/1999/xlink">
 <metadata>
  <rdf:RDF xmlns:cc="http://creativecommons.org/ns#" xmlns:dc="http://purl.org/dc/elements/1.1/" xmlns:rdf="http://www.w3.org/1999/02/22-rdf-syntax-ns#">
   <cc:Work>
    <dc:type rdf:resource="http://purl.org/dc/dcmitype/StillImage"/>
    <dc:date>2022-02-13T16:43:11.116114</dc:date>
    <dc:format>image/svg+xml</dc:format>
    <dc:creator>
     <cc:Agent>
      <dc:title>Matplotlib v3.3.3, https://matplotlib.org/</dc:title>
     </cc:Agent>
    </dc:creator>
   </cc:Work>
  </rdf:RDF>
 </metadata>
 <defs>
  <style type="text/css">*{stroke-linecap:butt;stroke-linejoin:round;}</style>
 </defs>
 <g id="figure_1">
  <g id="patch_1">
   <path d="M 0 460.8 
L 576 460.8 
L 576 0 
L 0 0 
z
" style="fill:#ffffff;"/>
  </g>
  <g id="axes_1">
   <g id="patch_2">
    <path d="M 93.49 279.354243 
L 556.662122 279.354243 
L 556.662122 10.8 
L 93.49 10.8 
z
" style="fill:#ffffff;"/>
   </g>
   <g id="PolyCollection_1">
    <defs>
     <path d="M 151.386515 -292.724162 
L 144.873895 -292.724162 
L 144.44396 -293.867843 
L 144.013375 -295.011524 
L 143.582571 -296.155206 
L 143.151802 -297.298887 
L 142.721261 -298.442568 
L 142.291223 -299.58625 
L 141.862184 -300.729931 
L 141.434988 -301.873612 
L 141.010928 -303.017294 
L 140.591811 -304.160975 
L 140.179974 -305.304656 
L 139.778241 -306.448338 
L 139.389824 -307.592019 
L 139.018173 -308.7357 
L 138.666768 -309.879382 
L 138.338874 -311.023063 
L 138.037275 -312.166744 
L 137.763994 -313.310425 
L 137.520019 -314.454107 
L 137.305068 -315.597788 
L 137.117383 -316.741469 
L 136.953601 -317.885151 
L 136.808683 -319.028832 
L 136.675932 -320.172513 
L 136.547095 -321.316195 
L 136.412549 -322.459876 
L 136.261561 -323.603557 
L 136.082616 -324.747239 
L 135.863803 -325.89092 
L 135.593227 -327.034601 
L 135.259433 -328.178283 
L 134.851833 -329.321964 
L 134.361093 -330.465645 
L 133.77948 -331.609327 
L 133.101142 -332.753008 
L 132.32232 -333.896689 
L 131.441476 -335.040371 
L 130.459349 -336.184052 
L 129.378929 -337.327733 
L 128.205372 -338.471414 
L 126.945868 -339.615096 
L 125.609465 -340.758777 
L 124.206886 -341.902458 
L 122.750332 -343.04614 
L 121.253298 -344.189821 
L 119.730403 -345.333502 
L 118.197233 -346.477184 
L 116.670198 -347.620865 
L 115.166387 -348.764546 
L 113.703419 -349.908228 
L 112.29926 -351.051909 
L 110.972002 -352.19559 
L 109.739593 -353.339272 
L 108.619502 -354.482953 
L 107.628331 -355.626634 
L 106.781373 -356.770316 
L 106.092137 -357.913997 
L 105.571874 -359.057678 
L 105.229121 -360.20136 
L 105.069303 -361.345041 
L 105.094433 -362.488722 
L 105.302936 -363.632403 
L 105.689625 -364.776085 
L 106.24583 -365.919766 
L 106.959708 -367.063447 
L 107.816697 -368.207129 
L 108.800105 -369.35081 
L 109.8918 -370.494491 
L 111.072948 -371.638173 
L 112.324766 -372.781854 
L 113.629233 -373.925535 
L 114.969713 -375.069217 
L 116.331462 -376.212898 
L 117.70198 -377.356579 
L 119.071204 -378.500261 
L 120.431528 -379.643942 
L 121.777679 -380.787623 
L 123.106445 -381.931305 
L 124.416314 -383.074986 
L 125.707035 -384.218667 
L 126.97916 -385.362349 
L 128.233589 -386.50603 
L 129.471166 -387.649711 
L 130.69234 -388.793392 
L 131.896918 -389.937074 
L 133.083915 -391.080755 
L 134.251509 -392.224436 
L 135.397082 -393.368118 
L 136.517346 -394.511799 
L 137.60852 -395.65548 
L 138.666549 -396.799162 
L 139.687343 -397.942843 
L 140.666993 -399.086524 
L 141.601985 -400.230206 
L 142.489356 -401.373887 
L 143.326819 -402.517568 
L 144.112828 -403.66125 
L 144.8466 -404.804931 
L 145.528089 -405.948612 
L 151.386515 -405.948612 
L 151.386515 -405.948612 
L 151.386515 -404.804931 
L 151.386515 -403.66125 
L 151.386515 -402.517568 
L 151.386515 -401.373887 
L 151.386515 -400.230206 
L 151.386515 -399.086524 
L 151.386515 -397.942843 
L 151.386515 -396.799162 
L 151.386515 -395.65548 
L 151.386515 -394.511799 
L 151.386515 -393.368118 
L 151.386515 -392.224436 
L 151.386515 -391.080755 
L 151.386515 -389.937074 
L 151.386515 -388.793392 
L 151.386515 -387.649711 
L 151.386515 -386.50603 
L 151.386515 -385.362349 
L 151.386515 -384.218667 
L 151.386515 -383.074986 
L 151.386515 -381.931305 
L 151.386515 -380.787623 
L 151.386515 -379.643942 
L 151.386515 -378.500261 
L 151.386515 -377.356579 
L 151.386515 -376.212898 
L 151.386515 -375.069217 
L 151.386515 -373.925535 
L 151.386515 -372.781854 
L 151.386515 -371.638173 
L 151.386515 -370.494491 
L 151.386515 -369.35081 
L 151.386515 -368.207129 
L 151.386515 -367.063447 
L 151.386515 -365.919766 
L 151.386515 -364.776085 
L 151.386515 -363.632403 
L 151.386515 -362.488722 
L 151.386515 -361.345041 
L 151.386515 -360.20136 
L 151.386515 -359.057678 
L 151.386515 -357.913997 
L 151.386515 -356.770316 
L 151.386515 -355.626634 
L 151.386515 -354.482953 
L 151.386515 -353.339272 
L 151.386515 -352.19559 
L 151.386515 -351.051909 
L 151.386515 -349.908228 
L 151.386515 -348.764546 
L 151.386515 -347.620865 
L 151.386515 -346.477184 
L 151.386515 -345.333502 
L 151.386515 -344.189821 
L 151.386515 -343.04614 
L 151.386515 -341.902458 
L 151.386515 -340.758777 
L 151.386515 -339.615096 
L 151.386515 -338.471414 
L 151.386515 -337.327733 
L 151.386515 -336.184052 
L 151.386515 -335.040371 
L 151.386515 -333.896689 
L 151.386515 -332.753008 
L 151.386515 -331.609327 
L 151.386515 -330.465645 
L 151.386515 -329.321964 
L 151.386515 -328.178283 
L 151.386515 -327.034601 
L 151.386515 -325.89092 
L 151.386515 -324.747239 
L 151.386515 -323.603557 
L 151.386515 -322.459876 
L 151.386515 -321.316195 
L 151.386515 -320.172513 
L 151.386515 -319.028832 
L 151.386515 -317.885151 
L 151.386515 -316.741469 
L 151.386515 -315.597788 
L 151.386515 -314.454107 
L 151.386515 -313.310425 
L 151.386515 -312.166744 
L 151.386515 -311.023063 
L 151.386515 -309.879382 
L 151.386515 -308.7357 
L 151.386515 -307.592019 
L 151.386515 -306.448338 
L 151.386515 -305.304656 
L 151.386515 -304.160975 
L 151.386515 -303.017294 
L 151.386515 -301.873612 
L 151.386515 -300.729931 
L 151.386515 -299.58625 
L 151.386515 -298.442568 
L 151.386515 -297.298887 
L 151.386515 -296.155206 
L 151.386515 -295.011524 
L 151.386515 -293.867843 
L 151.386515 -292.724162 
z
" id="m4685d9b431" style="stroke:#3d3d3d;stroke-width:3;"/>
    </defs>
    <g clip-path="url(#p27bd32e479)">
     <use style="fill:#e1812c;stroke:#3d3d3d;stroke-width:3;" x="0" xlink:href="#m4685d9b431" y="460.8"/>
    </g>
   </g>
   <g id="PolyCollection_2">
    <defs>
     <path d="M 158.589303 -306.877218 
L 151.386515 -306.877218 
L 151.386515 -308.12812 
L 151.386515 -309.379021 
L 151.386515 -310.629922 
L 151.386515 -311.880824 
L 151.386515 -313.131725 
L 151.386515 -314.382627 
L 151.386515 -315.633528 
L 151.386515 -316.88443 
L 151.386515 -318.135331 
L 151.386515 -319.386232 
L 151.386515 -320.637134 
L 151.386515 -321.888035 
L 151.386515 -323.138937 
L 151.386515 -324.389838 
L 151.386515 -325.64074 
L 151.386515 -326.891641 
L 151.386515 -328.142543 
L 151.386515 -329.393444 
L 151.386515 -330.644345 
L 151.386515 -331.895247 
L 151.386515 -333.146148 
L 151.386515 -334.39705 
L 151.386515 -335.647951 
L 151.386515 -336.898853 
L 151.386515 -338.149754 
L 151.386515 -339.400656 
L 151.386515 -340.651557 
L 151.386515 -341.902458 
L 151.386515 -343.15336 
L 151.386515 -344.404261 
L 151.386515 -345.655163 
L 151.386515 -346.906064 
L 151.386515 -348.156966 
L 151.386515 -349.407867 
L 151.386515 -350.658769 
L 151.386515 -351.90967 
L 151.386515 -353.160571 
L 151.386515 -354.411473 
L 151.386515 -355.662374 
L 151.386515 -356.913276 
L 151.386515 -358.164177 
L 151.386515 -359.415079 
L 151.386515 -360.66598 
L 151.386515 -361.916881 
L 151.386515 -363.167783 
L 151.386515 -364.418684 
L 151.386515 -365.669586 
L 151.386515 -366.920487 
L 151.386515 -368.171389 
L 151.386515 -369.42229 
L 151.386515 -370.673192 
L 151.386515 -371.924093 
L 151.386515 -373.174994 
L 151.386515 -374.425896 
L 151.386515 -375.676797 
L 151.386515 -376.927699 
L 151.386515 -378.1786 
L 151.386515 -379.429502 
L 151.386515 -380.680403 
L 151.386515 -381.931305 
L 151.386515 -383.182206 
L 151.386515 -384.433107 
L 151.386515 -385.684009 
L 151.386515 -386.93491 
L 151.386515 -388.185812 
L 151.386515 -389.436713 
L 151.386515 -390.687615 
L 151.386515 -391.938516 
L 151.386515 -393.189418 
L 151.386515 -394.440319 
L 151.386515 -395.69122 
L 151.386515 -396.942122 
L 151.386515 -398.193023 
L 151.386515 -399.443925 
L 151.386515 -400.694826 
L 151.386515 -401.945728 
L 151.386515 -403.196629 
L 151.386515 -404.447531 
L 151.386515 -405.698432 
L 151.386515 -406.949333 
L 151.386515 -408.200235 
L 151.386515 -409.451136 
L 151.386515 -410.702038 
L 151.386515 -411.952939 
L 151.386515 -413.203841 
L 151.386515 -414.454742 
L 151.386515 -415.705643 
L 151.386515 -416.956545 
L 151.386515 -418.207446 
L 151.386515 -419.458348 
L 151.386515 -420.709249 
L 151.386515 -421.960151 
L 151.386515 -423.211052 
L 151.386515 -424.461954 
L 151.386515 -425.712855 
L 151.386515 -426.963756 
L 151.386515 -428.214658 
L 151.386515 -429.465559 
L 151.386515 -430.716461 
L 156.770533 -430.716461 
L 156.770533 -430.716461 
L 157.066851 -429.465559 
L 157.353334 -428.214658 
L 157.630787 -426.963756 
L 157.900951 -425.712855 
L 158.166458 -424.461954 
L 158.430743 -423.211052 
L 158.697902 -421.960151 
L 158.972516 -420.709249 
L 159.259442 -419.458348 
L 159.563587 -418.207446 
L 159.889671 -416.956545 
L 160.242016 -415.705643 
L 160.624344 -414.454742 
L 161.039622 -413.203841 
L 161.489962 -411.952939 
L 161.976568 -410.702038 
L 162.499758 -409.451136 
L 163.059036 -408.200235 
L 163.653232 -406.949333 
L 164.280674 -405.698432 
L 164.93941 -404.447531 
L 165.627421 -403.196629 
L 166.342852 -401.945728 
L 167.084205 -400.694826 
L 167.85049 -399.443925 
L 168.641324 -398.193023 
L 169.456954 -396.942122 
L 170.298211 -395.69122 
L 171.166379 -394.440319 
L 172.063003 -393.189418 
L 172.989627 -391.938516 
L 173.947505 -390.687615 
L 174.937272 -389.436713 
L 175.958628 -388.185812 
L 177.010041 -386.93491 
L 178.088501 -385.684009 
L 179.189334 -384.433107 
L 180.306107 -383.182206 
L 181.430626 -381.931305 
L 182.553026 -380.680403 
L 183.661972 -379.429502 
L 184.744944 -378.1786 
L 185.788592 -376.927699 
L 186.779162 -375.676797 
L 187.702947 -374.425896 
L 188.546752 -373.174994 
L 189.298338 -371.924093 
L 189.946829 -370.673192 
L 190.483056 -369.42229 
L 190.899817 -368.171389 
L 191.192049 -366.920487 
L 191.3569 -365.669586 
L 191.39371 -364.418684 
L 191.3039 -363.167783 
L 191.090794 -361.916881 
L 190.759378 -360.66598 
L 190.31603 -359.415079 
L 189.768229 -358.164177 
L 189.124272 -356.913276 
L 188.39301 -355.662374 
L 187.583614 -354.411473 
L 186.705383 -353.160571 
L 185.767594 -351.90967 
L 184.779394 -350.658769 
L 183.749717 -349.407867 
L 182.687244 -348.156966 
L 181.600366 -346.906064 
L 180.497169 -345.655163 
L 179.385408 -344.404261 
L 178.272493 -343.15336 
L 177.165455 -341.902458 
L 176.070913 -340.651557 
L 174.995035 -339.400656 
L 173.943488 -338.149754 
L 172.921389 -336.898853 
L 171.933264 -335.647951 
L 170.982993 -334.39705 
L 170.073776 -333.146148 
L 169.208089 -331.895247 
L 168.387652 -330.644345 
L 167.613399 -329.393444 
L 166.885456 -328.142543 
L 166.203126 -326.891641 
L 165.564887 -325.64074 
L 164.968406 -324.389838 
L 164.410574 -323.138937 
L 163.887574 -321.888035 
L 163.394964 -320.637134 
L 162.927814 -319.386232 
L 162.480855 -318.135331 
L 162.048673 -316.88443 
L 161.62591 -315.633528 
L 161.207487 -314.382627 
L 160.788826 -313.131725 
L 160.366046 -311.880824 
L 159.936145 -310.629922 
L 159.497134 -309.379021 
L 159.048113 -308.12812 
L 158.589303 -306.877218 
z
" id="ma9e047c565" style="stroke:#3d3d3d;stroke-width:3;"/>
    </defs>
    <g clip-path="url(#p27bd32e479)">
     <use style="fill:#3a923a;stroke:#3d3d3d;stroke-width:3;" x="0" xlink:href="#ma9e047c565" y="460.8"/>
    </g>
   </g>
   <g id="PolyCollection_3">
    <defs>
     <path d="M 267.179546 -299.80069 
L 259.568434 -299.80069 
L 259.292555 -300.872891 
L 259.033352 -301.945092 
L 258.787877 -303.017294 
L 258.552341 -304.089495 
L 258.322278 -305.161696 
L 258.092733 -306.233897 
L 257.858476 -307.306099 
L 257.6142 -308.3783 
L 257.354724 -309.450501 
L 257.075163 -310.522702 
L 256.771068 -311.594903 
L 256.43852 -312.667105 
L 256.074197 -313.739306 
L 255.675375 -314.811507 
L 255.239915 -315.883708 
L 254.766203 -316.95591 
L 254.253075 -318.028111 
L 253.699734 -319.100312 
L 253.105663 -320.172513 
L 252.470564 -321.244715 
L 251.794302 -322.316916 
L 251.076897 -323.389117 
L 250.318542 -324.461318 
L 249.519658 -325.53352 
L 248.680976 -326.605721 
L 247.803655 -327.677922 
L 246.8894 -328.750123 
L 245.940589 -329.822325 
L 244.960385 -330.894526 
L 243.952818 -331.966727 
L 242.922825 -333.038928 
L 241.876238 -334.111129 
L 240.819707 -335.183331 
L 239.760559 -336.255532 
L 238.706596 -337.327733 
L 237.665828 -338.399934 
L 236.646173 -339.472136 
L 235.655121 -340.544337 
L 234.699394 -341.616538 
L 233.784622 -342.688739 
L 232.915058 -343.760941 
L 232.093355 -344.833142 
L 231.320424 -345.905343 
L 230.595389 -346.977544 
L 229.915643 -348.049746 
L 229.277021 -349.121947 
L 228.674066 -350.194148 
L 228.100395 -351.266349 
L 227.549138 -352.33855 
L 227.013427 -353.410752 
L 226.486915 -354.482953 
L 225.964294 -355.555154 
L 225.441768 -356.627355 
L 224.917486 -357.699557 
L 224.391873 -358.771758 
L 223.867861 -359.843959 
L 223.350997 -360.91616 
L 222.849417 -361.988362 
L 222.373687 -363.060563 
L 221.936507 -364.132764 
L 221.552298 -365.204965 
L 221.236676 -366.277167 
L 221.005848 -367.349368 
L 220.875946 -368.421569 
L 220.862333 -369.49377 
L 220.978915 -370.565971 
L 221.237482 -371.638173 
L 221.647123 -372.710374 
L 222.213734 -373.782575 
L 222.939647 -374.854776 
L 223.823402 -375.926978 
L 224.859671 -376.999179 
L 226.039344 -378.07138 
L 227.349775 -379.143581 
L 228.775173 -380.215783 
L 230.297128 -381.287984 
L 231.895242 -382.360185 
L 233.547839 -383.432386 
L 235.23272 -384.504588 
L 236.92792 -385.576789 
L 238.612451 -386.64899 
L 240.266963 -387.721191 
L 241.874337 -388.793392 
L 243.420136 -389.865594 
L 244.89294 -390.937795 
L 246.284526 -392.009996 
L 247.589898 -393.082197 
L 248.807176 -394.154399 
L 249.937356 -395.2266 
L 250.983953 -396.298801 
L 251.952561 -397.371002 
L 252.850356 -398.443204 
L 253.685561 -399.515405 
L 254.46692 -400.587606 
L 255.203195 -401.659807 
L 255.902716 -402.732009 
L 256.573003 -403.80421 
L 257.220473 -404.876411 
L 257.850243 -405.948612 
L 267.179546 -405.948612 
L 267.179546 -405.948612 
L 267.179546 -404.876411 
L 267.179546 -403.80421 
L 267.179546 -402.732009 
L 267.179546 -401.659807 
L 267.179546 -400.587606 
L 267.179546 -399.515405 
L 267.179546 -398.443204 
L 267.179546 -397.371002 
L 267.179546 -396.298801 
L 267.179546 -395.2266 
L 267.179546 -394.154399 
L 267.179546 -393.082197 
L 267.179546 -392.009996 
L 267.179546 -390.937795 
L 267.179546 -389.865594 
L 267.179546 -388.793392 
L 267.179546 -387.721191 
L 267.179546 -386.64899 
L 267.179546 -385.576789 
L 267.179546 -384.504588 
L 267.179546 -383.432386 
L 267.179546 -382.360185 
L 267.179546 -381.287984 
L 267.179546 -380.215783 
L 267.179546 -379.143581 
L 267.179546 -378.07138 
L 267.179546 -376.999179 
L 267.179546 -375.926978 
L 267.179546 -374.854776 
L 267.179546 -373.782575 
L 267.179546 -372.710374 
L 267.179546 -371.638173 
L 267.179546 -370.565971 
L 267.179546 -369.49377 
L 267.179546 -368.421569 
L 267.179546 -367.349368 
L 267.179546 -366.277167 
L 267.179546 -365.204965 
L 267.179546 -364.132764 
L 267.179546 -363.060563 
L 267.179546 -361.988362 
L 267.179546 -360.91616 
L 267.179546 -359.843959 
L 267.179546 -358.771758 
L 267.179546 -357.699557 
L 267.179546 -356.627355 
L 267.179546 -355.555154 
L 267.179546 -354.482953 
L 267.179546 -353.410752 
L 267.179546 -352.33855 
L 267.179546 -351.266349 
L 267.179546 -350.194148 
L 267.179546 -349.121947 
L 267.179546 -348.049746 
L 267.179546 -346.977544 
L 267.179546 -345.905343 
L 267.179546 -344.833142 
L 267.179546 -343.760941 
L 267.179546 -342.688739 
L 267.179546 -341.616538 
L 267.179546 -340.544337 
L 267.179546 -339.472136 
L 267.179546 -338.399934 
L 267.179546 -337.327733 
L 267.179546 -336.255532 
L 267.179546 -335.183331 
L 267.179546 -334.111129 
L 267.179546 -333.038928 
L 267.179546 -331.966727 
L 267.179546 -330.894526 
L 267.179546 -329.822325 
L 267.179546 -328.750123 
L 267.179546 -327.677922 
L 267.179546 -326.605721 
L 267.179546 -325.53352 
L 267.179546 -324.461318 
L 267.179546 -323.389117 
L 267.179546 -322.316916 
L 267.179546 -321.244715 
L 267.179546 -320.172513 
L 267.179546 -319.100312 
L 267.179546 -318.028111 
L 267.179546 -316.95591 
L 267.179546 -315.883708 
L 267.179546 -314.811507 
L 267.179546 -313.739306 
L 267.179546 -312.667105 
L 267.179546 -311.594903 
L 267.179546 -310.522702 
L 267.179546 -309.450501 
L 267.179546 -308.3783 
L 267.179546 -307.306099 
L 267.179546 -306.233897 
L 267.179546 -305.161696 
L 267.179546 -304.089495 
L 267.179546 -303.017294 
L 267.179546 -301.945092 
L 267.179546 -300.872891 
L 267.179546 -299.80069 
z
" id="ma0f2fa1ad8" style="stroke:#3d3d3d;stroke-width:3;"/>
    </defs>
    <g clip-path="url(#p27bd32e479)">
     <use style="fill:#e1812c;stroke:#3d3d3d;stroke-width:3;" x="0" xlink:href="#ma0f2fa1ad8" y="460.8"/>
    </g>
   </g>
   <g id="PolyCollection_4">
    <defs>
     <path d="M 268.737913 -232.573672 
L 267.179546 -232.573672 
L 267.179546 -234.539375 
L 267.179546 -236.505077 
L 267.179546 -238.470779 
L 267.179546 -240.436481 
L 267.179546 -242.402184 
L 267.179546 -244.367886 
L 267.179546 -246.333588 
L 267.179546 -248.299291 
L 267.179546 -250.264993 
L 267.179546 -252.230695 
L 267.179546 -254.196397 
L 267.179546 -256.1621 
L 267.179546 -258.127802 
L 267.179546 -260.093504 
L 267.179546 -262.059206 
L 267.179546 -264.024909 
L 267.179546 -265.990611 
L 267.179546 -267.956313 
L 267.179546 -269.922015 
L 267.179546 -271.887718 
L 267.179546 -273.85342 
L 267.179546 -275.819122 
L 267.179546 -277.784825 
L 267.179546 -279.750527 
L 267.179546 -281.716229 
L 267.179546 -283.681931 
L 267.179546 -285.647634 
L 267.179546 -287.613336 
L 267.179546 -289.579038 
L 267.179546 -291.54474 
L 267.179546 -293.510443 
L 267.179546 -295.476145 
L 267.179546 -297.441847 
L 267.179546 -299.407549 
L 267.179546 -301.373252 
L 267.179546 -303.338954 
L 267.179546 -305.304656 
L 267.179546 -307.270359 
L 267.179546 -309.236061 
L 267.179546 -311.201763 
L 267.179546 -313.167465 
L 267.179546 -315.133168 
L 267.179546 -317.09887 
L 267.179546 -319.064572 
L 267.179546 -321.030274 
L 267.179546 -322.995977 
L 267.179546 -324.961679 
L 267.179546 -326.927381 
L 267.179546 -328.893083 
L 267.179546 -330.858786 
L 267.179546 -332.824488 
L 267.179546 -334.79019 
L 267.179546 -336.755892 
L 267.179546 -338.721595 
L 267.179546 -340.687297 
L 267.179546 -342.652999 
L 267.179546 -344.618702 
L 267.179546 -346.584404 
L 267.179546 -348.550106 
L 267.179546 -350.515808 
L 267.179546 -352.481511 
L 267.179546 -354.447213 
L 267.179546 -356.412915 
L 267.179546 -358.378617 
L 267.179546 -360.34432 
L 267.179546 -362.310022 
L 267.179546 -364.275724 
L 267.179546 -366.241426 
L 267.179546 -368.207129 
L 267.179546 -370.172831 
L 267.179546 -372.138533 
L 267.179546 -374.104236 
L 267.179546 -376.069938 
L 267.179546 -378.03564 
L 267.179546 -380.001342 
L 267.179546 -381.967045 
L 267.179546 -383.932747 
L 267.179546 -385.898449 
L 267.179546 -387.864151 
L 267.179546 -389.829854 
L 267.179546 -391.795556 
L 267.179546 -393.761258 
L 267.179546 -395.72696 
L 267.179546 -397.692663 
L 267.179546 -399.658365 
L 267.179546 -401.624067 
L 267.179546 -403.58977 
L 267.179546 -405.555472 
L 267.179546 -407.521174 
L 267.179546 -409.486876 
L 267.179546 -411.452579 
L 267.179546 -413.418281 
L 267.179546 -415.383983 
L 267.179546 -417.349685 
L 267.179546 -419.315388 
L 267.179546 -421.28109 
L 267.179546 -423.246792 
L 267.179546 -425.212494 
L 267.179546 -427.178197 
L 278.73378 -427.178197 
L 278.73378 -427.178197 
L 280.037071 -425.212494 
L 281.399058 -423.246792 
L 282.809755 -421.28109 
L 284.257522 -419.315388 
L 285.72924 -417.349685 
L 287.210566 -415.383983 
L 288.686267 -413.418281 
L 290.140618 -411.452579 
L 291.557852 -409.486876 
L 292.922633 -407.521174 
L 294.220524 -405.555472 
L 295.438423 -403.58977 
L 296.564931 -401.624067 
L 297.590628 -399.658365 
L 298.508238 -397.692663 
L 299.312668 -395.72696 
L 300.000925 -393.761258 
L 300.571918 -391.795556 
L 301.026167 -389.829854 
L 301.365446 -387.864151 
L 301.592397 -385.898449 
L 301.710147 -383.932747 
L 301.721962 -381.967045 
L 301.630971 -380.001342 
L 301.439973 -378.03564 
L 301.151358 -376.069938 
L 300.767115 -374.104236 
L 300.288955 -372.138533 
L 299.718499 -370.172831 
L 299.05754 -368.207129 
L 298.308329 -366.241426 
L 297.47387 -364.275724 
L 296.558191 -362.310022 
L 295.566569 -360.34432 
L 294.505686 -358.378617 
L 293.3837 -356.412915 
L 292.210229 -354.447213 
L 290.996238 -352.481511 
L 289.75383 -350.515808 
L 288.495968 -348.550106 
L 287.236122 -346.584404 
L 285.987873 -344.618702 
L 284.764488 -342.652999 
L 283.578496 -340.687297 
L 282.441284 -338.721595 
L 281.362728 -336.755892 
L 280.350897 -334.79019 
L 279.411822 -332.824488 
L 278.549365 -330.858786 
L 277.765172 -328.893083 
L 277.058735 -326.927381 
L 276.427537 -324.961679 
L 275.867281 -322.995977 
L 275.372194 -321.030274 
L 274.935379 -319.064572 
L 274.549197 -317.09887 
L 274.20566 -315.133168 
L 273.89682 -313.167465 
L 273.615109 -311.201763 
L 273.353644 -309.236061 
L 273.106457 -307.270359 
L 272.868653 -305.304656 
L 272.636488 -303.338954 
L 272.407365 -301.373252 
L 272.179762 -299.407549 
L 271.953097 -297.441847 
L 271.727552 -295.476145 
L 271.503868 -293.510443 
L 271.283142 -291.54474 
L 271.066628 -289.579038 
L 270.855575 -287.613336 
L 270.651106 -285.647634 
L 270.454141 -283.681931 
L 270.265371 -281.716229 
L 270.085276 -279.750527 
L 269.914181 -277.784825 
L 269.752322 -275.819122 
L 269.599934 -273.85342 
L 269.457318 -271.887718 
L 269.324892 -269.922015 
L 269.203214 -267.956313 
L 269.092966 -265.990611 
L 268.994903 -264.024909 
L 268.909771 -262.059206 
L 268.838208 -260.093504 
L 268.780624 -258.127802 
L 268.73709 -256.1621 
L 268.707248 -254.196397 
L 268.690235 -252.230695 
L 268.684657 -250.264993 
L 268.688602 -248.299291 
L 268.699692 -246.333588 
L 268.715186 -244.367886 
L 268.732107 -242.402184 
L 268.747405 -240.436481 
L 268.758119 -238.470779 
L 268.761547 -236.505077 
L 268.755397 -234.539375 
L 268.737913 -232.573672 
z
" id="mdc562c0ec9" style="stroke:#3d3d3d;stroke-width:3;"/>
    </defs>
    <g clip-path="url(#p27bd32e479)">
     <use style="fill:#3a923a;stroke:#3d3d3d;stroke-width:3;" x="0" xlink:href="#mdc562c0ec9" y="460.8"/>
    </g>
   </g>
   <g id="PolyCollection_5">
    <defs>
     <path d="M 382.972576 -310.415482 
L 373.074748 -310.415482 
L 372.437 -311.416203 
L 371.793513 -312.416924 
L 371.145365 -313.417646 
L 370.493186 -314.418367 
L 369.837128 -315.419088 
L 369.176864 -316.419809 
L 368.511608 -317.42053 
L 367.840165 -318.421251 
L 367.160997 -319.421973 
L 366.472315 -320.422694 
L 365.772186 -321.423415 
L 365.058653 -322.424136 
L 364.329858 -323.424857 
L 363.584166 -324.425578 
L 362.820278 -325.426299 
L 362.037328 -326.427021 
L 361.234965 -327.427742 
L 360.413395 -328.428463 
L 359.573406 -329.429184 
L 358.716353 -330.429905 
L 357.84411 -331.430626 
L 356.959 -332.431348 
L 356.063699 -333.432069 
L 355.161112 -334.43279 
L 354.254257 -335.433511 
L 353.346137 -336.434232 
L 352.439621 -337.434953 
L 351.537354 -338.435674 
L 350.641675 -339.436396 
L 349.754585 -340.437117 
L 348.877742 -341.437838 
L 348.012495 -342.438559 
L 347.159951 -343.43928 
L 346.321081 -344.440001 
L 345.496846 -345.440723 
L 344.688337 -346.441444 
L 343.896925 -347.442165 
L 343.124402 -348.442886 
L 342.373103 -349.443607 
L 341.646002 -350.444328 
L 340.946771 -351.445049 
L 340.279791 -352.445771 
L 339.650121 -353.446492 
L 339.063411 -354.447213 
L 338.525773 -355.447934 
L 338.043608 -356.448655 
L 337.623402 -357.449376 
L 337.271498 -358.450097 
L 336.993852 -359.450819 
L 336.795799 -360.45154 
L 336.681825 -361.452261 
L 336.655364 -362.452982 
L 336.718636 -363.453703 
L 336.872524 -364.454424 
L 337.116497 -365.455146 
L 337.448594 -366.455867 
L 337.86545 -367.456588 
L 338.362377 -368.457309 
L 338.933497 -369.45803 
L 339.571899 -370.458751 
L 340.269844 -371.459472 
L 341.018982 -372.460194 
L 341.810588 -373.460915 
L 342.635802 -374.461636 
L 343.485866 -375.462357 
L 344.352344 -376.463078 
L 345.22733 -377.463799 
L 346.10363 -378.464521 
L 346.974909 -379.465242 
L 347.835813 -380.465963 
L 348.68205 -381.466684 
L 349.510443 -382.467405 
L 350.31894 -383.468126 
L 351.106592 -384.468847 
L 351.873504 -385.469569 
L 352.620754 -386.47029 
L 353.350279 -387.471011 
L 354.064754 -388.471732 
L 354.767444 -389.472453 
L 355.462045 -390.473174 
L 356.152522 -391.473896 
L 356.842945 -392.474617 
L 357.537322 -393.475338 
L 358.239449 -394.476059 
L 358.952766 -395.47678 
L 359.680235 -396.477501 
L 360.424229 -397.478222 
L 361.186457 -398.478944 
L 361.967899 -399.479665 
L 362.768773 -400.480386 
L 363.588532 -401.481107 
L 364.425875 -402.481828 
L 365.278786 -403.482549 
L 366.144596 -404.483271 
L 367.020062 -405.483992 
L 367.901454 -406.484713 
L 368.784661 -407.485434 
L 369.665304 -408.486155 
L 370.538843 -409.486876 
L 382.972576 -409.486876 
L 382.972576 -409.486876 
L 382.972576 -408.486155 
L 382.972576 -407.485434 
L 382.972576 -406.484713 
L 382.972576 -405.483992 
L 382.972576 -404.483271 
L 382.972576 -403.482549 
L 382.972576 -402.481828 
L 382.972576 -401.481107 
L 382.972576 -400.480386 
L 382.972576 -399.479665 
L 382.972576 -398.478944 
L 382.972576 -397.478222 
L 382.972576 -396.477501 
L 382.972576 -395.47678 
L 382.972576 -394.476059 
L 382.972576 -393.475338 
L 382.972576 -392.474617 
L 382.972576 -391.473896 
L 382.972576 -390.473174 
L 382.972576 -389.472453 
L 382.972576 -388.471732 
L 382.972576 -387.471011 
L 382.972576 -386.47029 
L 382.972576 -385.469569 
L 382.972576 -384.468847 
L 382.972576 -383.468126 
L 382.972576 -382.467405 
L 382.972576 -381.466684 
L 382.972576 -380.465963 
L 382.972576 -379.465242 
L 382.972576 -378.464521 
L 382.972576 -377.463799 
L 382.972576 -376.463078 
L 382.972576 -375.462357 
L 382.972576 -374.461636 
L 382.972576 -373.460915 
L 382.972576 -372.460194 
L 382.972576 -371.459472 
L 382.972576 -370.458751 
L 382.972576 -369.45803 
L 382.972576 -368.457309 
L 382.972576 -367.456588 
L 382.972576 -366.455867 
L 382.972576 -365.455146 
L 382.972576 -364.454424 
L 382.972576 -363.453703 
L 382.972576 -362.452982 
L 382.972576 -361.452261 
L 382.972576 -360.45154 
L 382.972576 -359.450819 
L 382.972576 -358.450097 
L 382.972576 -357.449376 
L 382.972576 -356.448655 
L 382.972576 -355.447934 
L 382.972576 -354.447213 
L 382.972576 -353.446492 
L 382.972576 -352.445771 
L 382.972576 -351.445049 
L 382.972576 -350.444328 
L 382.972576 -349.443607 
L 382.972576 -348.442886 
L 382.972576 -347.442165 
L 382.972576 -346.441444 
L 382.972576 -345.440723 
L 382.972576 -344.440001 
L 382.972576 -343.43928 
L 382.972576 -342.438559 
L 382.972576 -341.437838 
L 382.972576 -340.437117 
L 382.972576 -339.436396 
L 382.972576 -338.435674 
L 382.972576 -337.434953 
L 382.972576 -336.434232 
L 382.972576 -335.433511 
L 382.972576 -334.43279 
L 382.972576 -333.432069 
L 382.972576 -332.431348 
L 382.972576 -331.430626 
L 382.972576 -330.429905 
L 382.972576 -329.429184 
L 382.972576 -328.428463 
L 382.972576 -327.427742 
L 382.972576 -326.427021 
L 382.972576 -325.426299 
L 382.972576 -324.425578 
L 382.972576 -323.424857 
L 382.972576 -322.424136 
L 382.972576 -321.423415 
L 382.972576 -320.422694 
L 382.972576 -319.421973 
L 382.972576 -318.421251 
L 382.972576 -317.42053 
L 382.972576 -316.419809 
L 382.972576 -315.419088 
L 382.972576 -314.418367 
L 382.972576 -313.417646 
L 382.972576 -312.416924 
L 382.972576 -311.416203 
L 382.972576 -310.415482 
z
" id="mb5d02538ec" style="stroke:#3d3d3d;stroke-width:3;"/>
    </defs>
    <g clip-path="url(#p27bd32e479)">
     <use style="fill:#e1812c;stroke:#3d3d3d;stroke-width:3;" x="0" xlink:href="#mb5d02538ec" y="460.8"/>
    </g>
   </g>
   <g id="PolyCollection_6">
    <defs>
     <path d="M 390.756152 -296.262426 
L 382.972576 -296.262426 
L 382.972576 -297.656287 
L 382.972576 -299.050149 
L 382.972576 -300.444011 
L 382.972576 -301.837872 
L 382.972576 -303.231734 
L 382.972576 -304.625595 
L 382.972576 -306.019457 
L 382.972576 -307.413319 
L 382.972576 -308.80718 
L 382.972576 -310.201042 
L 382.972576 -311.594903 
L 382.972576 -312.988765 
L 382.972576 -314.382627 
L 382.972576 -315.776488 
L 382.972576 -317.17035 
L 382.972576 -318.564212 
L 382.972576 -319.958073 
L 382.972576 -321.351935 
L 382.972576 -322.745796 
L 382.972576 -324.139658 
L 382.972576 -325.53352 
L 382.972576 -326.927381 
L 382.972576 -328.321243 
L 382.972576 -329.715104 
L 382.972576 -331.108966 
L 382.972576 -332.502828 
L 382.972576 -333.896689 
L 382.972576 -335.290551 
L 382.972576 -336.684412 
L 382.972576 -338.078274 
L 382.972576 -339.472136 
L 382.972576 -340.865997 
L 382.972576 -342.259859 
L 382.972576 -343.65372 
L 382.972576 -345.047582 
L 382.972576 -346.441444 
L 382.972576 -347.835305 
L 382.972576 -349.229167 
L 382.972576 -350.623028 
L 382.972576 -352.01689 
L 382.972576 -353.410752 
L 382.972576 -354.804613 
L 382.972576 -356.198475 
L 382.972576 -357.592337 
L 382.972576 -358.986198 
L 382.972576 -360.38006 
L 382.972576 -361.773921 
L 382.972576 -363.167783 
L 382.972576 -364.561645 
L 382.972576 -365.955506 
L 382.972576 -367.349368 
L 382.972576 -368.743229 
L 382.972576 -370.137091 
L 382.972576 -371.530953 
L 382.972576 -372.924814 
L 382.972576 -374.318676 
L 382.972576 -375.712537 
L 382.972576 -377.106399 
L 382.972576 -378.500261 
L 382.972576 -379.894122 
L 382.972576 -381.287984 
L 382.972576 -382.681845 
L 382.972576 -384.075707 
L 382.972576 -385.469569 
L 382.972576 -386.86343 
L 382.972576 -388.257292 
L 382.972576 -389.651153 
L 382.972576 -391.045015 
L 382.972576 -392.438877 
L 382.972576 -393.832738 
L 382.972576 -395.2266 
L 382.972576 -396.620461 
L 382.972576 -398.014323 
L 382.972576 -399.408185 
L 382.972576 -400.802046 
L 382.972576 -402.195908 
L 382.972576 -403.58977 
L 382.972576 -404.983631 
L 382.972576 -406.377493 
L 382.972576 -407.771354 
L 382.972576 -409.165216 
L 382.972576 -410.559078 
L 382.972576 -411.952939 
L 382.972576 -413.346801 
L 382.972576 -414.740662 
L 382.972576 -416.134524 
L 382.972576 -417.528386 
L 382.972576 -418.922247 
L 382.972576 -420.316109 
L 382.972576 -421.70997 
L 382.972576 -423.103832 
L 382.972576 -424.497694 
L 382.972576 -425.891555 
L 382.972576 -427.285417 
L 382.972576 -428.679278 
L 382.972576 -430.07314 
L 382.972576 -431.467002 
L 382.972576 -432.860863 
L 382.972576 -434.254725 
L 393.092195 -434.254725 
L 393.092195 -434.254725 
L 393.691613 -432.860863 
L 394.299585 -431.467002 
L 394.914943 -430.07314 
L 395.536631 -428.679278 
L 396.16372 -427.285417 
L 396.795429 -425.891555 
L 397.431124 -424.497694 
L 398.070333 -423.103832 
L 398.712733 -421.70997 
L 399.35815 -420.316109 
L 400.006543 -418.922247 
L 400.657983 -417.528386 
L 401.312631 -416.134524 
L 401.970707 -414.740662 
L 402.632458 -413.346801 
L 403.298122 -411.952939 
L 403.967886 -410.559078 
L 404.64185 -409.165216 
L 405.319985 -407.771354 
L 406.002094 -406.377493 
L 406.687772 -404.983631 
L 407.376375 -403.58977 
L 408.066988 -402.195908 
L 408.758396 -400.802046 
L 409.449069 -399.408185 
L 410.137139 -398.014323 
L 410.820398 -396.620461 
L 411.496294 -395.2266 
L 412.161931 -393.832738 
L 412.814087 -392.438877 
L 413.449224 -391.045015 
L 414.06352 -389.651153 
L 414.652891 -388.257292 
L 415.213034 -386.86343 
L 415.739467 -385.469569 
L 416.227576 -384.075707 
L 416.672667 -382.681845 
L 417.070029 -381.287984 
L 417.414993 -379.894122 
L 417.703002 -378.500261 
L 417.929679 -377.106399 
L 418.090906 -375.712537 
L 418.182902 -374.318676 
L 418.202295 -372.924814 
L 418.14621 -371.530953 
L 418.012342 -370.137091 
L 417.799032 -368.743229 
L 417.505337 -367.349368 
L 417.131096 -365.955506 
L 416.67698 -364.561645 
L 416.144538 -363.167783 
L 415.536221 -361.773921 
L 414.855403 -360.38006 
L 414.106367 -358.986198 
L 413.294288 -357.592337 
L 412.425187 -356.198475 
L 411.505866 -354.804613 
L 410.543824 -353.410752 
L 409.547157 -352.01689 
L 408.524432 -350.623028 
L 407.484555 -349.229167 
L 406.43662 -347.835305 
L 405.389754 -346.441444 
L 404.352955 -345.047582 
L 403.334925 -343.65372 
L 402.343915 -342.259859 
L 401.387576 -340.865997 
L 400.472812 -339.472136 
L 399.605666 -338.078274 
L 398.791212 -336.684412 
L 398.033476 -335.290551 
L 397.335377 -333.896689 
L 396.698702 -332.502828 
L 396.124097 -331.108966 
L 395.611094 -329.715104 
L 395.158155 -328.321243 
L 394.762746 -326.927381 
L 394.421429 -325.53352 
L 394.129974 -324.139658 
L 393.88348 -322.745796 
L 393.676517 -321.351935 
L 393.503265 -319.958073 
L 393.35766 -318.564212 
L 393.233541 -317.17035 
L 393.124791 -315.776488 
L 393.025464 -314.382627 
L 392.929911 -312.988765 
L 392.832884 -311.594903 
L 392.729631 -310.201042 
L 392.615963 -308.80718 
L 392.488318 -307.413319 
L 392.343795 -306.019457 
L 392.180172 -304.625595 
L 391.995913 -303.231734 
L 391.79015 -301.837872 
L 391.562654 -300.444011 
L 391.313797 -299.050149 
L 391.044496 -297.656287 
L 390.756152 -296.262426 
z
" id="m66e1308020" style="stroke:#3d3d3d;stroke-width:3;"/>
    </defs>
    <g clip-path="url(#p27bd32e479)">
     <use style="fill:#3a923a;stroke:#3d3d3d;stroke-width:3;" x="0" xlink:href="#m66e1308020" y="460.8"/>
    </g>
   </g>
   <g id="PolyCollection_7">
    <defs>
     <path d="M 498.765607 -292.724162 
L 492.704878 -292.724162 
L 491.888993 -294.010803 
L 491.040713 -295.297445 
L 490.159658 -296.584086 
L 489.241921 -297.870728 
L 488.280503 -299.157369 
L 487.266402 -300.444011 
L 486.190273 -301.730652 
L 485.044417 -303.017294 
L 483.824807 -304.303935 
L 482.532822 -305.590577 
L 481.176339 -306.877218 
L 479.769977 -308.16386 
L 478.334347 -309.450501 
L 476.894372 -310.737143 
L 475.476866 -312.023784 
L 474.107713 -313.310425 
L 472.809048 -314.597067 
L 471.596861 -315.883708 
L 470.479367 -317.17035 
L 469.45637 -318.456991 
L 468.519691 -319.743633 
L 467.654541 -321.030274 
L 466.841621 -322.316916 
L 466.059615 -323.603557 
L 465.287721 -324.890199 
L 464.507916 -326.17684 
L 463.706692 -327.463482 
L 462.87614 -328.750123 
L 462.014321 -330.036765 
L 461.124983 -331.323406 
L 460.216733 -332.610048 
L 459.301836 -333.896689 
L 458.394821 -335.183331 
L 457.511078 -336.469972 
L 456.66564 -337.756614 
L 455.872247 -339.043255 
L 455.142798 -340.329897 
L 454.487164 -341.616538 
L 453.913302 -342.90318 
L 453.427546 -344.189821 
L 453.034911 -345.476463 
L 452.739272 -346.763104 
L 452.543336 -348.049746 
L 452.448394 -349.336387 
L 452.453935 -350.623028 
L 452.557258 -351.90967 
L 452.753276 -353.196311 
L 453.034635 -354.482953 
L 453.392269 -355.769594 
L 453.816351 -357.056236 
L 454.297551 -358.342877 
L 454.828385 -359.629519 
L 455.404419 -360.91616 
L 456.025066 -362.202802 
L 456.693784 -363.489443 
L 457.417568 -364.776085 
L 458.205727 -366.062726 
L 459.06808 -367.349368 
L 460.012823 -368.636009 
L 461.044347 -369.922651 
L 462.161394 -371.209292 
L 463.355835 -372.495934 
L 464.612346 -373.782575 
L 465.909086 -375.069217 
L 467.219375 -376.355858 
L 468.514189 -377.6425 
L 469.76516 -378.929141 
L 470.947711 -380.215783 
L 472.043868 -381.502424 
L 473.044374 -382.789066 
L 473.949781 -384.075707 
L 474.770368 -385.362349 
L 475.524849 -386.64899 
L 476.238067 -387.935631 
L 476.93794 -389.222273 
L 477.652102 -390.508914 
L 478.404653 -391.795556 
L 479.21347 -393.082197 
L 480.088403 -394.368839 
L 481.030553 -395.65548 
L 482.032694 -396.942122 
L 483.08068 -398.228763 
L 484.155599 -399.515405 
L 485.236311 -400.802046 
L 486.301973 -402.088688 
L 487.334231 -403.375329 
L 488.318787 -404.661971 
L 489.246225 -405.948612 
L 490.112072 -407.235254 
L 490.916216 -408.521895 
L 491.661854 -409.808537 
L 492.354219 -411.095178 
L 492.99931 -412.38182 
L 493.602801 -413.668461 
L 494.169269 -414.955103 
L 494.701773 -416.241744 
L 495.20178 -417.528386 
L 495.669375 -418.815027 
L 496.103645 -420.101669 
L 498.765607 -420.101669 
L 498.765607 -420.101669 
L 498.765607 -418.815027 
L 498.765607 -417.528386 
L 498.765607 -416.241744 
L 498.765607 -414.955103 
L 498.765607 -413.668461 
L 498.765607 -412.38182 
L 498.765607 -411.095178 
L 498.765607 -409.808537 
L 498.765607 -408.521895 
L 498.765607 -407.235254 
L 498.765607 -405.948612 
L 498.765607 -404.661971 
L 498.765607 -403.375329 
L 498.765607 -402.088688 
L 498.765607 -400.802046 
L 498.765607 -399.515405 
L 498.765607 -398.228763 
L 498.765607 -396.942122 
L 498.765607 -395.65548 
L 498.765607 -394.368839 
L 498.765607 -393.082197 
L 498.765607 -391.795556 
L 498.765607 -390.508914 
L 498.765607 -389.222273 
L 498.765607 -387.935631 
L 498.765607 -386.64899 
L 498.765607 -385.362349 
L 498.765607 -384.075707 
L 498.765607 -382.789066 
L 498.765607 -381.502424 
L 498.765607 -380.215783 
L 498.765607 -378.929141 
L 498.765607 -377.6425 
L 498.765607 -376.355858 
L 498.765607 -375.069217 
L 498.765607 -373.782575 
L 498.765607 -372.495934 
L 498.765607 -371.209292 
L 498.765607 -369.922651 
L 498.765607 -368.636009 
L 498.765607 -367.349368 
L 498.765607 -366.062726 
L 498.765607 -364.776085 
L 498.765607 -363.489443 
L 498.765607 -362.202802 
L 498.765607 -360.91616 
L 498.765607 -359.629519 
L 498.765607 -358.342877 
L 498.765607 -357.056236 
L 498.765607 -355.769594 
L 498.765607 -354.482953 
L 498.765607 -353.196311 
L 498.765607 -351.90967 
L 498.765607 -350.623028 
L 498.765607 -349.336387 
L 498.765607 -348.049746 
L 498.765607 -346.763104 
L 498.765607 -345.476463 
L 498.765607 -344.189821 
L 498.765607 -342.90318 
L 498.765607 -341.616538 
L 498.765607 -340.329897 
L 498.765607 -339.043255 
L 498.765607 -337.756614 
L 498.765607 -336.469972 
L 498.765607 -335.183331 
L 498.765607 -333.896689 
L 498.765607 -332.610048 
L 498.765607 -331.323406 
L 498.765607 -330.036765 
L 498.765607 -328.750123 
L 498.765607 -327.463482 
L 498.765607 -326.17684 
L 498.765607 -324.890199 
L 498.765607 -323.603557 
L 498.765607 -322.316916 
L 498.765607 -321.030274 
L 498.765607 -319.743633 
L 498.765607 -318.456991 
L 498.765607 -317.17035 
L 498.765607 -315.883708 
L 498.765607 -314.597067 
L 498.765607 -313.310425 
L 498.765607 -312.023784 
L 498.765607 -310.737143 
L 498.765607 -309.450501 
L 498.765607 -308.16386 
L 498.765607 -306.877218 
L 498.765607 -305.590577 
L 498.765607 -304.303935 
L 498.765607 -303.017294 
L 498.765607 -301.730652 
L 498.765607 -300.444011 
L 498.765607 -299.157369 
L 498.765607 -297.870728 
L 498.765607 -296.584086 
L 498.765607 -295.297445 
L 498.765607 -294.010803 
L 498.765607 -292.724162 
z
" id="m1e3a476734" style="stroke:#3d3d3d;stroke-width:3;"/>
    </defs>
    <g clip-path="url(#p27bd32e479)">
     <use style="fill:#e1812c;stroke:#3d3d3d;stroke-width:3;" x="0" xlink:href="#m1e3a476734" y="460.8"/>
    </g>
   </g>
   <g id="PolyCollection_8">
    <defs>
     <path d="M 499.659619 -193.652768 
L 498.765607 -193.652768 
L 498.765607 -196.11883 
L 498.765607 -198.584893 
L 498.765607 -201.050956 
L 498.765607 -203.517019 
L 498.765607 -205.983082 
L 498.765607 -208.449145 
L 498.765607 -210.915207 
L 498.765607 -213.38127 
L 498.765607 -215.847333 
L 498.765607 -218.313396 
L 498.765607 -220.779459 
L 498.765607 -223.245522 
L 498.765607 -225.711585 
L 498.765607 -228.177647 
L 498.765607 -230.64371 
L 498.765607 -233.109773 
L 498.765607 -235.575836 
L 498.765607 -238.041899 
L 498.765607 -240.507962 
L 498.765607 -242.974024 
L 498.765607 -245.440087 
L 498.765607 -247.90615 
L 498.765607 -250.372213 
L 498.765607 -252.838276 
L 498.765607 -255.304339 
L 498.765607 -257.770401 
L 498.765607 -260.236464 
L 498.765607 -262.702527 
L 498.765607 -265.16859 
L 498.765607 -267.634653 
L 498.765607 -270.100716 
L 498.765607 -272.566779 
L 498.765607 -275.032841 
L 498.765607 -277.498904 
L 498.765607 -279.964967 
L 498.765607 -282.43103 
L 498.765607 -284.897093 
L 498.765607 -287.363156 
L 498.765607 -289.829218 
L 498.765607 -292.295281 
L 498.765607 -294.761344 
L 498.765607 -297.227407 
L 498.765607 -299.69347 
L 498.765607 -302.159533 
L 498.765607 -304.625595 
L 498.765607 -307.091658 
L 498.765607 -309.557721 
L 498.765607 -312.023784 
L 498.765607 -314.489847 
L 498.765607 -316.95591 
L 498.765607 -319.421973 
L 498.765607 -321.888035 
L 498.765607 -324.354098 
L 498.765607 -326.820161 
L 498.765607 -329.286224 
L 498.765607 -331.752287 
L 498.765607 -334.21835 
L 498.765607 -336.684412 
L 498.765607 -339.150475 
L 498.765607 -341.616538 
L 498.765607 -344.082601 
L 498.765607 -346.548664 
L 498.765607 -349.014727 
L 498.765607 -351.480789 
L 498.765607 -353.946852 
L 498.765607 -356.412915 
L 498.765607 -358.878978 
L 498.765607 -361.345041 
L 498.765607 -363.811104 
L 498.765607 -366.277167 
L 498.765607 -368.743229 
L 498.765607 -371.209292 
L 498.765607 -373.675355 
L 498.765607 -376.141418 
L 498.765607 -378.607481 
L 498.765607 -381.073544 
L 498.765607 -383.539606 
L 498.765607 -386.005669 
L 498.765607 -388.471732 
L 498.765607 -390.937795 
L 498.765607 -393.403858 
L 498.765607 -395.869921 
L 498.765607 -398.335983 
L 498.765607 -400.802046 
L 498.765607 -403.268109 
L 498.765607 -405.734172 
L 498.765607 -408.200235 
L 498.765607 -410.666298 
L 498.765607 -413.132361 
L 498.765607 -415.598423 
L 498.765607 -418.064486 
L 498.765607 -420.530549 
L 498.765607 -422.996612 
L 498.765607 -425.462675 
L 498.765607 -427.928738 
L 498.765607 -430.3948 
L 498.765607 -432.860863 
L 498.765607 -435.326926 
L 498.765607 -437.792989 
L 500.072378 -437.792989 
L 500.072378 -437.792989 
L 500.263425 -435.326926 
L 500.461396 -432.860863 
L 500.679189 -430.3948 
L 500.938057 -427.928738 
L 501.266545 -425.462675 
L 501.697873 -422.996612 
L 502.266182 -420.530549 
L 503.002376 -418.064486 
L 503.930496 -415.598423 
L 505.065539 -413.132361 
L 506.413248 -410.666298 
L 507.971915 -408.200235 
L 509.735529 -405.734172 
L 511.697084 -403.268109 
L 513.850588 -400.802046 
L 516.190518 -398.335983 
L 518.708143 -395.869921 
L 521.385133 -393.403858 
L 524.186002 -390.937795 
L 527.051736 -388.471732 
L 529.897206 -386.005669 
L 532.614376 -383.539606 
L 535.081926 -381.073544 
L 537.180113 -378.607481 
L 538.807942 -376.141418 
L 539.898702 -373.675355 
L 540.430074 -371.209292 
L 540.426341 -368.743229 
L 539.95238 -366.277167 
L 539.101354 -363.811104 
L 537.979585 -361.345041 
L 536.692452 -358.878978 
L 535.334278 -356.412915 
L 533.983402 -353.946852 
L 532.701733 -351.480789 
L 531.536688 -349.014727 
L 530.523054 -346.548664 
L 529.683006 -344.082601 
L 529.023848 -341.616538 
L 528.534466 -339.150475 
L 528.182425 -336.684412 
L 527.913713 -334.21835 
L 527.656441 -331.752287 
L 527.3286 -329.286224 
L 526.848791 -326.820161 
L 526.147918 -324.354098 
L 525.179599 -321.888035 
L 523.927285 -319.421973 
L 522.40682 -316.95591 
L 520.664066 -314.489847 
L 518.768164 -312.023784 
L 516.801713 -309.557721 
L 514.849674 -307.091658 
L 512.988909 -304.625595 
L 511.280041 -302.159533 
L 509.762779 -299.69347 
L 508.455045 -297.227407 
L 507.355443 -294.761344 
L 506.447964 -292.295281 
L 505.707549 -289.829218 
L 505.105215 -287.363156 
L 504.611936 -284.897093 
L 504.201017 -282.43103 
L 503.849201 -279.964967 
L 503.536993 -277.498904 
L 503.248675 -275.032841 
L 502.972263 -272.566779 
L 502.699462 -270.100716 
L 502.425531 -267.634653 
L 502.148977 -265.16859 
L 501.871076 -262.702527 
L 501.595269 -260.236464 
L 501.326514 -257.770401 
L 501.070581 -255.304339 
L 500.833297 -252.838276 
L 500.619726 -250.372213 
L 500.433391 -247.90615 
L 500.275721 -245.440087 
L 500.145943 -242.974024 
L 500.04153 -240.507962 
L 499.959139 -238.041899 
L 499.89575 -235.575836 
L 499.849604 -233.109773 
L 499.82056 -230.64371 
L 499.809688 -228.177647 
L 499.818197 -225.711585 
L 499.846062 -223.245522 
L 499.890863 -220.779459 
L 499.947252 -218.313396 
L 500.007295 -215.847333 
L 500.061573 -213.38127 
L 500.100732 -210.915207 
L 500.117008 -208.449145 
L 500.105351 -205.983082 
L 500.063923 -203.517019 
L 499.993993 -201.050956 
L 499.899386 -198.584893 
L 499.785721 -196.11883 
L 499.659619 -193.652768 
z
" id="m12de943122" style="stroke:#3d3d3d;stroke-width:3;"/>
    </defs>
    <g clip-path="url(#p27bd32e479)">
     <use style="fill:#3a923a;stroke:#3d3d3d;stroke-width:3;" x="0" xlink:href="#m12de943122" y="460.8"/>
    </g>
   </g>
   <g id="patch_3">
    <path clip-path="url(#p27bd32e479)" d="M 151.386515 362.680363 
L 151.386515 362.680363 
L 151.386515 362.680363 
L 151.386515 362.680363 
z
" style="fill:#e1812c;stroke:#3d3d3d;stroke-linejoin:miter;stroke-width:1.5;"/>
   </g>
   <g id="patch_4">
    <path clip-path="url(#p27bd32e479)" d="M 151.386515 362.680363 
L 151.386515 362.680363 
L 151.386515 362.680363 
L 151.386515 362.680363 
z
" style="fill:#3a923a;stroke:#3d3d3d;stroke-linejoin:miter;stroke-width:1.5;"/>
   </g>
   <g id="matplotlib.axis_1">
    <g id="xtick_1">
     <g id="line2d_1">
      <defs>
       <path d="M 0 0 
L 0 3.5 
" id="m7fc60fbd8d" style="stroke:#000000;stroke-width:0.8;"/>
      </defs>
      <g>
       <use style="stroke:#000000;stroke-width:0.8;" x="151.386515" xlink:href="#m7fc60fbd8d" y="279.354243"/>
      </g>
     </g>
     <g id="text_1">
      <text style="font-family:DejaVu Sans;font-size:32px;font-stretch:normal;font-style:normal;font-weight:normal;" transform="translate(93.732564 303.547545)rotate(-315)">&lt;2 years</text>
     </g>
    </g>
    <g id="xtick_2">
     <g id="line2d_2">
      <g>
       <use style="stroke:#000000;stroke-width:0.8;" x="267.179546" xlink:href="#m7fc60fbd8d" y="279.354243"/>
      </g>
     </g>
     <g id="text_2">
      <text style="font-family:DejaVu Sans;font-size:32px;font-stretch:normal;font-style:normal;font-weight:normal;" transform="translate(209.525594 303.547545)rotate(-315)">&lt;4 years</text>
     </g>
    </g>
    <g id="xtick_3">
     <g id="line2d_3">
      <g>
       <use style="stroke:#000000;stroke-width:0.8;" x="382.972576" xlink:href="#m7fc60fbd8d" y="279.354243"/>
      </g>
     </g>
     <g id="text_3">
      <text style="font-family:DejaVu Sans;font-size:32px;font-stretch:normal;font-style:normal;font-weight:normal;" transform="translate(325.318625 303.547545)rotate(-315)">≥4 years</text>
     </g>
    </g>
    <g id="xtick_4">
     <g id="line2d_4">
      <g>
       <use style="stroke:#000000;stroke-width:0.8;" x="498.765607" xlink:href="#m7fc60fbd8d" y="279.354243"/>
      </g>
     </g>
     <g id="text_4">
      <text style="font-family:DejaVu Sans;font-size:32px;font-stretch:normal;font-style:normal;font-weight:normal;" transform="translate(439.133524 303.547545)rotate(-315)">Censored</text>
     </g>
    </g>
    <g id="text_5">
     <text style="font-family:DejaVu Sans;font-size:32px;font-stretch:normal;font-style:normal;font-weight:normal;text-anchor:middle;" transform="rotate(-0, 325.076061, 443.345)" x="325.076061" y="443.345">Years since diagnosis</text>
    </g>
   </g>
   <g id="matplotlib.axis_2">
    <g id="ytick_1">
     <g id="line2d_5">
      <defs>
       <path d="M 0 0 
L -3.5 0 
" id="m90a9b172ab" style="stroke:#000000;stroke-width:0.8;"/>
      </defs>
      <g>
       <use style="stroke:#000000;stroke-width:0.8;" x="93.49" xlink:href="#m90a9b172ab" y="221.149799"/>
      </g>
     </g>
     <g id="text_6">
      <text style="font-family:DejaVu Sans;font-size:32px;font-stretch:normal;font-style:normal;font-weight:normal;text-anchor:end;" transform="rotate(-0, 86.49, 233.307299)" x="86.49" y="233.307299">40</text>
     </g>
    </g>
    <g id="ytick_2">
     <g id="line2d_6">
      <g>
       <use style="stroke:#000000;stroke-width:0.8;" x="93.49" xlink:href="#m90a9b172ab" y="150.384518"/>
      </g>
     </g>
     <g id="text_7">
      <text style="font-family:DejaVu Sans;font-size:32px;font-stretch:normal;font-style:normal;font-weight:normal;text-anchor:end;" transform="rotate(-0, 86.49, 162.542018)" x="86.49" y="162.542018">60</text>
     </g>
    </g>
    <g id="ytick_3">
     <g id="line2d_7">
      <g>
       <use style="stroke:#000000;stroke-width:0.8;" x="93.49" xlink:href="#m90a9b172ab" y="79.619236"/>
      </g>
     </g>
     <g id="text_8">
      <text style="font-family:DejaVu Sans;font-size:32px;font-stretch:normal;font-style:normal;font-weight:normal;text-anchor:end;" transform="rotate(-0, 86.49, 91.776736)" x="86.49" y="91.776736">80</text>
     </g>
    </g>
    <g id="text_9">
     <text style="font-family:DejaVu Sans;font-size:32px;font-stretch:normal;font-style:normal;font-weight:normal;text-anchor:middle;" transform="rotate(-90, 35.115, 145.077122)" x="35.115" y="145.077122">Age (yrs)</text>
    </g>
   </g>
   <g id="line2d_8">
    <path clip-path="url(#p27bd32e479)" d="M 123.036693 117.655575 
L 151.386515 117.655575 
" style="fill:none;stroke:#3d3d3d;stroke-dasharray:13.5,13.5;stroke-dashoffset:0;stroke-width:3;"/>
   </g>
   <g id="line2d_9">
    <path clip-path="url(#p27bd32e479)" d="M 105.690695 100.848821 
L 151.386515 100.848821 
" style="fill:none;stroke:#3d3d3d;stroke-dasharray:27,27;stroke-dashoffset:0;stroke-width:3;"/>
   </g>
   <g id="line2d_10">
    <path clip-path="url(#p27bd32e479)" d="M 107.403976 93.772293 
L 151.386515 93.772293 
" style="fill:none;stroke:#3d3d3d;stroke-dasharray:13.5,13.5;stroke-dashoffset:0;stroke-width:3;"/>
   </g>
   <g id="line2d_11">
    <path clip-path="url(#p27bd32e479)" d="M 151.386515 113.232745 
L 182.374236 113.232745 
" style="fill:none;stroke:#3d3d3d;stroke-dasharray:13.5,13.5;stroke-dashoffset:0;stroke-width:3;"/>
   </g>
   <g id="line2d_12">
    <path clip-path="url(#p27bd32e479)" d="M 151.386515 93.772293 
L 190.793994 93.772293 
" style="fill:none;stroke:#3d3d3d;stroke-dasharray:27,27;stroke-dashoffset:0;stroke-width:3;"/>
   </g>
   <g id="line2d_13">
    <path clip-path="url(#p27bd32e479)" d="M 151.386515 79.619236 
L 182.24136 79.619236 
" style="fill:none;stroke:#3d3d3d;stroke-dasharray:13.5,13.5;stroke-dashoffset:0;stroke-width:3;"/>
   </g>
   <g id="line2d_14">
    <path clip-path="url(#p27bd32e479)" d="M 233.257703 116.771009 
L 267.179546 116.771009 
" style="fill:none;stroke:#3d3d3d;stroke-dasharray:13.5,13.5;stroke-dashoffset:0;stroke-width:3;"/>
   </g>
   <g id="line2d_15">
    <path clip-path="url(#p27bd32e479)" d="M 224.300978 100.848821 
L 267.179546 100.848821 
" style="fill:none;stroke:#3d3d3d;stroke-dasharray:27,27;stroke-dashoffset:0;stroke-width:3;"/>
   </g>
   <g id="line2d_16">
    <path clip-path="url(#p27bd32e479)" d="M 222.663392 86.695764 
L 267.179546 86.695764 
" style="fill:none;stroke:#3d3d3d;stroke-dasharray:13.5,13.5;stroke-dashoffset:0;stroke-width:3;"/>
   </g>
   <g id="line2d_17">
    <path clip-path="url(#p27bd32e479)" d="M 267.179546 106.156217 
L 291.959922 106.156217 
" style="fill:none;stroke:#3d3d3d;stroke-dasharray:13.5,13.5;stroke-dashoffset:0;stroke-width:3;"/>
   </g>
   <g id="line2d_18">
    <path clip-path="url(#p27bd32e479)" d="M 267.179546 83.1575 
L 301.097369 83.1575 
" style="fill:none;stroke:#3d3d3d;stroke-dasharray:27,27;stroke-dashoffset:0;stroke-width:3;"/>
   </g>
   <g id="line2d_19">
    <path clip-path="url(#p27bd32e479)" d="M 267.179546 65.46618 
L 298.991337 65.46618 
" style="fill:none;stroke:#3d3d3d;stroke-dasharray:13.5,13.5;stroke-dashoffset:0;stroke-width:3;"/>
   </g>
   <g id="line2d_20">
    <path clip-path="url(#p27bd32e479)" d="M 348.362096 118.540141 
L 382.972576 118.540141 
" style="fill:none;stroke:#3d3d3d;stroke-dasharray:13.5,13.5;stroke-dashoffset:0;stroke-width:3;"/>
   </g>
   <g id="line2d_21">
    <path clip-path="url(#p27bd32e479)" d="M 337.181176 97.310557 
L 382.972576 97.310557 
" style="fill:none;stroke:#3d3d3d;stroke-dasharray:27,27;stroke-dashoffset:0;stroke-width:3;"/>
   </g>
   <g id="line2d_22">
    <path clip-path="url(#p27bd32e479)" d="M 345.604783 83.1575 
L 382.972576 83.1575 
" style="fill:none;stroke:#3d3d3d;stroke-dasharray:13.5,13.5;stroke-dashoffset:0;stroke-width:3;"/>
   </g>
   <g id="line2d_23">
    <path clip-path="url(#p27bd32e479)" d="M 382.972576 104.387085 
L 412.130661 104.387085 
" style="fill:none;stroke:#3d3d3d;stroke-dasharray:13.5,13.5;stroke-dashoffset:0;stroke-width:3;"/>
   </g>
   <g id="line2d_24">
    <path clip-path="url(#p27bd32e479)" d="M 382.972576 86.695764 
L 417.830798 86.695764 
" style="fill:none;stroke:#3d3d3d;stroke-dasharray:27,27;stroke-dashoffset:0;stroke-width:3;"/>
   </g>
   <g id="line2d_25">
    <path clip-path="url(#p27bd32e479)" d="M 382.972576 65.46618 
L 411.211057 65.46618 
" style="fill:none;stroke:#3d3d3d;stroke-dasharray:13.5,13.5;stroke-dashoffset:0;stroke-width:3;"/>
   </g>
   <g id="line2d_26">
    <path clip-path="url(#p27bd32e479)" d="M 461.501389 129.154933 
L 498.765607 129.154933 
" style="fill:none;stroke:#3d3d3d;stroke-dasharray:13.5,13.5;stroke-dashoffset:0;stroke-width:3;"/>
   </g>
   <g id="line2d_27">
    <path clip-path="url(#p27bd32e479)" d="M 452.911566 111.463613 
L 498.765607 111.463613 
" style="fill:none;stroke:#3d3d3d;stroke-dasharray:27,27;stroke-dashoffset:0;stroke-width:3;"/>
   </g>
   <g id="line2d_28">
    <path clip-path="url(#p27bd32e479)" d="M 461.42156 90.234029 
L 498.765607 90.234029 
" style="fill:none;stroke:#3d3d3d;stroke-dasharray:13.5,13.5;stroke-dashoffset:0;stroke-width:3;"/>
   </g>
   <g id="line2d_29">
    <path clip-path="url(#p27bd32e479)" d="M 498.765607 132.693197 
L 527.04297 132.693197 
" style="fill:none;stroke:#3d3d3d;stroke-dasharray:13.5,13.5;stroke-dashoffset:0;stroke-width:3;"/>
   </g>
   <g id="line2d_30">
    <path clip-path="url(#p27bd32e479)" d="M 498.765607 104.387085 
L 534.968591 104.387085 
" style="fill:none;stroke:#3d3d3d;stroke-dasharray:27,27;stroke-dashoffset:0;stroke-width:3;"/>
   </g>
   <g id="line2d_31">
    <path clip-path="url(#p27bd32e479)" d="M 498.765607 84.042066 
L 538.407518 84.042066 
" style="fill:none;stroke:#3d3d3d;stroke-dasharray:13.5,13.5;stroke-dashoffset:0;stroke-width:3;"/>
   </g>
   <g id="legend_1">
    <g id="patch_5">
     <path d="M 110.29 267.354243 
L 254.56 267.354243 
Q 259.36 267.354243 259.36 262.554243 
L 259.36 194.499243 
Q 259.36 189.699243 254.56 189.699243 
L 110.29 189.699243 
Q 105.49 189.699243 105.49 194.499243 
L 105.49 262.554243 
Q 105.49 267.354243 110.29 267.354243 
z
" style="fill:#ffffff;opacity:0.8;stroke:#cccccc;stroke-linejoin:miter;"/>
    </g>
    <g id="patch_6">
     <path d="M 115.09 217.535493 
L 163.09 217.535493 
L 163.09 200.735493 
L 115.09 200.735493 
z
" style="fill:#e1812c;stroke:#3d3d3d;stroke-linejoin:miter;stroke-width:1.5;"/>
    </g>
    <g id="text_10">
     <text style="font-family:DejaVu Sans;font-size:24px;font-stretch:normal;font-style:normal;font-weight:normal;text-anchor:start;" transform="rotate(-0, 182.29, 217.535493)" x="182.29" y="217.535493">ADNI</text>
    </g>
    <g id="patch_7">
     <path d="M 115.09 252.762993 
L 163.09 252.762993 
L 163.09 235.962993 
L 115.09 235.962993 
z
" style="fill:#3a923a;stroke:#3d3d3d;stroke-linejoin:miter;stroke-width:1.5;"/>
    </g>
    <g id="text_11">
     <text style="font-family:DejaVu Sans;font-size:24px;font-stretch:normal;font-style:normal;font-weight:normal;text-anchor:start;" transform="rotate(-0, 182.29, 252.762993)" x="182.29" y="252.762993">NACC</text>
    </g>
   </g>
  </g>
 </g>
 <defs>
  <clipPath id="p27bd32e479">
   <rect height="268.554243" width="463.172122" x="93.49" y="10.8"/>
  </clipPath>
 </defs>
</svg>
