<?xml version="1.0" encoding="utf-8" standalone="no"?>
<!DOCTYPE svg PUBLIC "-//W3C//DTD SVG 1.1//EN"
  "http://www.w3.org/Graphics/SVG/1.1/DTD/svg11.dtd">
<!-- Created with matplotlib (https://matplotlib.org/) -->
<svg height="460.8pt" version="1.1" viewBox="0 0 576 460.8" width="576pt" xmlns="http://www.w3.org/2000/svg" xmlns:xlink="http://www.w3.org/1999/xlink">
 <metadata>
  <rdf:RDF xmlns:cc="http://creativecommons.org/ns#" xmlns:dc="http://purl.org/dc/elements/1.1/" xmlns:rdf="http://www.w3.org/1999/02/22-rdf-syntax-ns#">
   <cc:Work>
    <dc:type rdf:resource="http://purl.org/dc/dcmitype/StillImage"/>
    <dc:date>2022-02-13T16:43:14.014099</dc:date>
    <dc:format>image/svg+xml</dc:format>
    <dc:creator>
     <cc:Agent>
      <dc:title>Matplotlib v3.3.3, https://matplotlib.org/</dc:title>
     </cc:Agent>
    </dc:creator>
   </cc:Work>
  </rdf:RDF>
 </metadata>
 <defs>
  <style type="text/css">*{stroke-linecap:butt;stroke-linejoin:round;}</style>
 </defs>
 <g id="figure_1">
  <g id="patch_1">
   <path d="M 0 460.8 
L 576 460.8 
L 576 0 
L 0 0 
z
" style="fill:#ffffff;"/>
  </g>
  <g id="axes_1">
   <g id="patch_2">
    <path d="M 113.85 279.354243 
L 556.662122 279.354243 
L 556.662122 10.8 
L 113.85 10.8 
z
" style="fill:#ffffff;"/>
   </g>
   <g id="PathCollection_1"/>
   <g id="PathCollection_2"/>
   <g id="PolyCollection_1">
    <defs>
     <path d="M 169.201515 -194.984442 
L 161.538364 -194.984442 
L 160.703632 -196.212429 
L 159.806546 -197.440416 
L 158.843899 -198.668403 
L 157.812774 -199.89639 
L 156.710814 -201.124378 
L 155.536531 -202.352365 
L 154.289605 -203.580352 
L 152.971173 -204.808339 
L 151.584062 -206.036326 
L 150.132961 -207.264314 
L 148.624487 -208.492301 
L 147.067161 -209.720288 
L 145.471269 -210.948275 
L 143.848629 -212.176262 
L 142.212274 -213.40425 
L 140.576086 -214.632237 
L 138.9544 -215.860224 
L 137.361633 -217.088211 
L 135.81195 -218.316198 
L 134.31901 -219.544186 
L 132.895804 -220.772173 
L 131.554587 -222.00016 
L 130.306904 -223.228147 
L 129.163684 -224.456134 
L 128.135367 -225.684122 
L 127.232032 -226.912109 
L 126.463482 -228.140096 
L 125.839243 -229.368083 
L 125.368454 -230.59607 
L 125.059631 -231.824058 
L 124.920303 -233.052045 
L 124.956533 -234.280032 
L 125.172372 -235.508019 
L 125.569275 -236.736006 
L 126.145556 -237.963994 
L 126.895918 -239.191981 
L 127.811141 -240.419968 
L 128.877947 -241.647955 
L 130.079096 -242.875942 
L 131.393711 -244.10393 
L 132.797834 -245.331917 
L 134.265171 -246.559904 
L 135.768008 -247.787891 
L 137.278206 -249.015878 
L 138.768242 -250.243866 
L 140.212209 -251.471853 
L 141.586721 -252.69984 
L 142.871677 -253.927827 
L 144.050839 -255.155814 
L 145.112203 -256.383802 
L 146.048167 -257.611789 
L 146.855496 -258.839776 
L 147.535113 -260.067763 
L 148.091751 -261.29575 
L 148.533491 -262.523738 
L 148.871237 -263.751725 
L 149.118149 -264.979712 
L 149.289078 -266.207699 
L 149.400007 -267.435686 
L 149.467532 -268.663674 
L 149.508368 -269.891661 
L 149.538911 -271.119648 
L 149.574823 -272.347635 
L 149.630671 -273.575622 
L 149.71959 -274.80361 
L 149.852996 -276.031597 
L 150.040329 -277.259584 
L 150.288855 -278.487571 
L 150.603513 -279.715558 
L 150.986837 -280.943546 
L 151.438937 -282.171533 
L 151.957573 -283.39952 
L 152.538293 -284.627507 
L 153.174662 -285.855494 
L 153.858552 -287.083482 
L 154.580502 -288.311469 
L 155.33011 -289.539456 
L 156.09646 -290.767443 
L 156.868557 -291.99543 
L 157.635735 -293.223418 
L 158.388047 -294.451405 
L 159.116599 -295.679392 
L 159.813811 -296.907379 
L 160.473624 -298.135366 
L 161.091608 -299.363354 
L 161.665002 -300.591341 
L 162.192676 -301.819328 
L 162.675019 -303.047315 
L 163.113767 -304.275302 
L 163.511792 -305.50329 
L 163.872844 -306.731277 
L 164.201288 -307.959264 
L 164.501831 -309.187251 
L 164.779256 -310.415238 
L 165.038187 -311.643226 
L 165.282881 -312.871213 
L 165.517065 -314.0992 
L 165.743815 -315.327187 
L 165.965488 -316.555174 
L 169.201515 -316.555174 
L 169.201515 -316.555174 
L 169.201515 -315.327187 
L 169.201515 -314.0992 
L 169.201515 -312.871213 
L 169.201515 -311.643226 
L 169.201515 -310.415238 
L 169.201515 -309.187251 
L 169.201515 -307.959264 
L 169.201515 -306.731277 
L 169.201515 -305.50329 
L 169.201515 -304.275302 
L 169.201515 -303.047315 
L 169.201515 -301.819328 
L 169.201515 -300.591341 
L 169.201515 -299.363354 
L 169.201515 -298.135366 
L 169.201515 -296.907379 
L 169.201515 -295.679392 
L 169.201515 -294.451405 
L 169.201515 -293.223418 
L 169.201515 -291.99543 
L 169.201515 -290.767443 
L 169.201515 -289.539456 
L 169.201515 -288.311469 
L 169.201515 -287.083482 
L 169.201515 -285.855494 
L 169.201515 -284.627507 
L 169.201515 -283.39952 
L 169.201515 -282.171533 
L 169.201515 -280.943546 
L 169.201515 -279.715558 
L 169.201515 -278.487571 
L 169.201515 -277.259584 
L 169.201515 -276.031597 
L 169.201515 -274.80361 
L 169.201515 -273.575622 
L 169.201515 -272.347635 
L 169.201515 -271.119648 
L 169.201515 -269.891661 
L 169.201515 -268.663674 
L 169.201515 -267.435686 
L 169.201515 -266.207699 
L 169.201515 -264.979712 
L 169.201515 -263.751725 
L 169.201515 -262.523738 
L 169.201515 -261.29575 
L 169.201515 -260.067763 
L 169.201515 -258.839776 
L 169.201515 -257.611789 
L 169.201515 -256.383802 
L 169.201515 -255.155814 
L 169.201515 -253.927827 
L 169.201515 -252.69984 
L 169.201515 -251.471853 
L 169.201515 -250.243866 
L 169.201515 -249.015878 
L 169.201515 -247.787891 
L 169.201515 -246.559904 
L 169.201515 -245.331917 
L 169.201515 -244.10393 
L 169.201515 -242.875942 
L 169.201515 -241.647955 
L 169.201515 -240.419968 
L 169.201515 -239.191981 
L 169.201515 -237.963994 
L 169.201515 -236.736006 
L 169.201515 -235.508019 
L 169.201515 -234.280032 
L 169.201515 -233.052045 
L 169.201515 -231.824058 
L 169.201515 -230.59607 
L 169.201515 -229.368083 
L 169.201515 -228.140096 
L 169.201515 -226.912109 
L 169.201515 -225.684122 
L 169.201515 -224.456134 
L 169.201515 -223.228147 
L 169.201515 -222.00016 
L 169.201515 -220.772173 
L 169.201515 -219.544186 
L 169.201515 -218.316198 
L 169.201515 -217.088211 
L 169.201515 -215.860224 
L 169.201515 -214.632237 
L 169.201515 -213.40425 
L 169.201515 -212.176262 
L 169.201515 -210.948275 
L 169.201515 -209.720288 
L 169.201515 -208.492301 
L 169.201515 -207.264314 
L 169.201515 -206.036326 
L 169.201515 -204.808339 
L 169.201515 -203.580352 
L 169.201515 -202.352365 
L 169.201515 -201.124378 
L 169.201515 -199.89639 
L 169.201515 -198.668403 
L 169.201515 -197.440416 
L 169.201515 -196.212429 
L 169.201515 -194.984442 
z
" id="m112765ac3f" style="stroke:#3d3d3d;stroke-width:3;"/>
    </defs>
    <g clip-path="url(#pb026cd6874)">
     <use style="fill:#e1812c;stroke:#3d3d3d;stroke-width:3;" x="0" xlink:href="#m112765ac3f" y="460.8"/>
    </g>
   </g>
   <g id="PolyCollection_2">
    <defs>
     <path d="M 279.904546 -200.662551 
L 263.199511 -200.662551 
L 261.504475 -202.162553 
L 259.748708 -203.662554 
L 257.944448 -205.162555 
L 256.105572 -206.662557 
L 254.247467 -208.162558 
L 252.386852 -209.66256 
L 250.541541 -211.162561 
L 248.730149 -212.662562 
L 246.971742 -214.162564 
L 245.285429 -215.662565 
L 243.689913 -217.162567 
L 242.203011 -218.662568 
L 240.841152 -220.162569 
L 239.618894 -221.662571 
L 238.548465 -223.162572 
L 237.639357 -224.662574 
L 236.898009 -226.162575 
L 236.32759 -227.662577 
L 235.927895 -229.162578 
L 235.695381 -230.662579 
L 235.623333 -232.162581 
L 235.702163 -233.662582 
L 235.919817 -235.162584 
L 236.262283 -236.662585 
L 236.714168 -238.162586 
L 237.259305 -239.662588 
L 237.881365 -241.162589 
L 238.564435 -242.662591 
L 239.293541 -244.162592 
L 240.055078 -245.662593 
L 240.837145 -247.162595 
L 241.629762 -248.662596 
L 242.424977 -250.162598 
L 243.216866 -251.662599 
L 244.001438 -253.1626 
L 244.776462 -254.662602 
L 245.54124 -256.162603 
L 246.296339 -257.662605 
L 247.043312 -259.162606 
L 247.784416 -260.662607 
L 248.522344 -262.162609 
L 249.259988 -263.66261 
L 250.000228 -265.162612 
L 250.74576 -266.662613 
L 251.498961 -268.162614 
L 252.261785 -269.662616 
L 253.035694 -271.162617 
L 253.821617 -272.662619 
L 254.619934 -274.16262 
L 255.430483 -275.662621 
L 256.252582 -277.162623 
L 257.085073 -278.662624 
L 257.926366 -280.162626 
L 258.774505 -281.662627 
L 259.627229 -283.162629 
L 260.482041 -284.66263 
L 261.336271 -286.162631 
L 262.187143 -287.662633 
L 263.031826 -289.162634 
L 263.867487 -290.662636 
L 264.691329 -292.162637 
L 265.500624 -293.662638 
L 266.292737 -295.16264 
L 267.065146 -296.662641 
L 267.815451 -298.162643 
L 268.541385 -299.662644 
L 269.240817 -301.162645 
L 269.911761 -302.662647 
L 270.552379 -304.162648 
L 271.160982 -305.66265 
L 271.736045 -307.162651 
L 272.276212 -308.662652 
L 272.780307 -310.162654 
L 273.247357 -311.662655 
L 273.676606 -313.162657 
L 274.067548 -314.662658 
L 274.419953 -316.162659 
L 274.733909 -317.662661 
L 275.009856 -319.162662 
L 275.248634 -320.662664 
L 275.451514 -322.162665 
L 275.62024 -323.662666 
L 275.757044 -325.162668 
L 275.86466 -326.662669 
L 275.946311 -328.162671 
L 276.005672 -329.662672 
L 276.046817 -331.162674 
L 276.074132 -332.662675 
L 276.092205 -334.162676 
L 276.105704 -335.662678 
L 276.119227 -337.162679 
L 276.137158 -338.662681 
L 276.163515 -340.162682 
L 276.201812 -341.662683 
L 276.254933 -343.162685 
L 276.325041 -344.662686 
L 276.413507 -346.162688 
L 276.520889 -347.662689 
L 276.646929 -349.16269 
L 279.904546 -349.16269 
L 279.904546 -349.16269 
L 279.904546 -347.662689 
L 279.904546 -346.162688 
L 279.904546 -344.662686 
L 279.904546 -343.162685 
L 279.904546 -341.662683 
L 279.904546 -340.162682 
L 279.904546 -338.662681 
L 279.904546 -337.162679 
L 279.904546 -335.662678 
L 279.904546 -334.162676 
L 279.904546 -332.662675 
L 279.904546 -331.162674 
L 279.904546 -329.662672 
L 279.904546 -328.162671 
L 279.904546 -326.662669 
L 279.904546 -325.162668 
L 279.904546 -323.662666 
L 279.904546 -322.162665 
L 279.904546 -320.662664 
L 279.904546 -319.162662 
L 279.904546 -317.662661 
L 279.904546 -316.162659 
L 279.904546 -314.662658 
L 279.904546 -313.162657 
L 279.904546 -311.662655 
L 279.904546 -310.162654 
L 279.904546 -308.662652 
L 279.904546 -307.162651 
L 279.904546 -305.66265 
L 279.904546 -304.162648 
L 279.904546 -302.662647 
L 279.904546 -301.162645 
L 279.904546 -299.662644 
L 279.904546 -298.162643 
L 279.904546 -296.662641 
L 279.904546 -295.16264 
L 279.904546 -293.662638 
L 279.904546 -292.162637 
L 279.904546 -290.662636 
L 279.904546 -289.162634 
L 279.904546 -287.662633 
L 279.904546 -286.162631 
L 279.904546 -284.66263 
L 279.904546 -283.162629 
L 279.904546 -281.662627 
L 279.904546 -280.162626 
L 279.904546 -278.662624 
L 279.904546 -277.162623 
L 279.904546 -275.662621 
L 279.904546 -274.16262 
L 279.904546 -272.662619 
L 279.904546 -271.162617 
L 279.904546 -269.662616 
L 279.904546 -268.162614 
L 279.904546 -266.662613 
L 279.904546 -265.162612 
L 279.904546 -263.66261 
L 279.904546 -262.162609 
L 279.904546 -260.662607 
L 279.904546 -259.162606 
L 279.904546 -257.662605 
L 279.904546 -256.162603 
L 279.904546 -254.662602 
L 279.904546 -253.1626 
L 279.904546 -251.662599 
L 279.904546 -250.162598 
L 279.904546 -248.662596 
L 279.904546 -247.162595 
L 279.904546 -245.662593 
L 279.904546 -244.162592 
L 279.904546 -242.662591 
L 279.904546 -241.162589 
L 279.904546 -239.662588 
L 279.904546 -238.162586 
L 279.904546 -236.662585 
L 279.904546 -235.162584 
L 279.904546 -233.662582 
L 279.904546 -232.162581 
L 279.904546 -230.662579 
L 279.904546 -229.162578 
L 279.904546 -227.662577 
L 279.904546 -226.162575 
L 279.904546 -224.662574 
L 279.904546 -223.162572 
L 279.904546 -221.662571 
L 279.904546 -220.162569 
L 279.904546 -218.662568 
L 279.904546 -217.162567 
L 279.904546 -215.662565 
L 279.904546 -214.162564 
L 279.904546 -212.662562 
L 279.904546 -211.162561 
L 279.904546 -209.66256 
L 279.904546 -208.162558 
L 279.904546 -206.662557 
L 279.904546 -205.162555 
L 279.904546 -203.662554 
L 279.904546 -202.162553 
L 279.904546 -200.662551 
z
" id="ma1eeb52c5a" style="stroke:#3d3d3d;stroke-width:3;"/>
    </defs>
    <g clip-path="url(#pb026cd6874)">
     <use style="fill:#e1812c;stroke:#3d3d3d;stroke-width:3;" x="0" xlink:href="#ma1eeb52c5a" y="460.8"/>
    </g>
   </g>
   <g id="PolyCollection_3">
    <defs>
     <path d="M 390.607576 -195.909215 
L 365.79169 -195.909215 
L 364.034523 -197.26966 
L 362.30071 -198.630104 
L 360.605818 -199.990549 
L 358.964712 -201.350994 
L 357.391196 -202.711438 
L 355.897711 -204.071883 
L 354.495086 -205.432328 
L 353.192354 -206.792772 
L 351.996662 -208.153217 
L 350.913246 -209.513662 
L 349.945502 -210.874106 
L 349.095122 -212.234551 
L 348.362301 -213.594996 
L 347.745994 -214.95544 
L 347.24421 -216.315885 
L 346.854318 -217.67633 
L 346.573355 -219.036774 
L 346.398309 -220.397219 
L 346.326364 -221.757664 
L 346.35509 -223.118108 
L 346.482573 -224.478553 
L 346.707472 -225.838998 
L 347.029008 -227.199442 
L 347.446875 -228.559887 
L 347.96111 -229.920332 
L 348.571891 -231.280776 
L 349.279319 -232.641221 
L 350.083169 -234.001666 
L 350.982641 -235.36211 
L 351.976132 -236.722555 
L 353.061023 -238.083 
L 354.233517 -239.443444 
L 355.488527 -240.803889 
L 356.81961 -242.164334 
L 358.218975 -243.524778 
L 359.67754 -244.885223 
L 361.185051 -246.245668 
L 362.730246 -247.606112 
L 364.301065 -248.966557 
L 365.884894 -250.327002 
L 367.468823 -251.687446 
L 369.03993 -253.047891 
L 370.58555 -254.408336 
L 372.093551 -255.76878 
L 373.552575 -257.129225 
L 374.95227 -258.48967 
L 376.283476 -259.850114 
L 377.538377 -261.210559 
L 378.710614 -262.571004 
L 379.795349 -263.931448 
L 380.789287 -265.291893 
L 381.690654 -266.652338 
L 382.499133 -268.012782 
L 383.215766 -269.373227 
L 383.842824 -270.733672 
L 384.38365 -272.094116 
L 384.842494 -273.454561 
L 385.224326 -274.815006 
L 385.534657 -276.17545 
L 385.779364 -277.535895 
L 385.964531 -278.89634 
L 386.096299 -280.256784 
L 386.18075 -281.617229 
L 386.223808 -282.977674 
L 386.231172 -284.338118 
L 386.208268 -285.698563 
L 386.160226 -287.059008 
L 386.091876 -288.419452 
L 386.007755 -289.779897 
L 385.912122 -291.140342 
L 385.808979 -292.500786 
L 385.702085 -293.861231 
L 385.594966 -295.221676 
L 385.490917 -296.58212 
L 385.39299 -297.942565 
L 385.30398 -299.30301 
L 385.226391 -300.663454 
L 385.162408 -302.023899 
L 385.113859 -303.384344 
L 385.082188 -304.744789 
L 385.068429 -306.105233 
L 385.073193 -307.465678 
L 385.096671 -308.826123 
L 385.138648 -310.186567 
L 385.198541 -311.547012 
L 385.27544 -312.907457 
L 385.368175 -314.267901 
L 385.475379 -315.628346 
L 385.595563 -316.988791 
L 385.727186 -318.349235 
L 385.868721 -319.70968 
L 386.018715 -321.070125 
L 386.175827 -322.430569 
L 386.338857 -323.791014 
L 386.506761 -325.151459 
L 386.678648 -326.511903 
L 386.853759 -327.872348 
L 387.031444 -329.232793 
L 387.211127 -330.593237 
L 390.607576 -330.593237 
L 390.607576 -330.593237 
L 390.607576 -329.232793 
L 390.607576 -327.872348 
L 390.607576 -326.511903 
L 390.607576 -325.151459 
L 390.607576 -323.791014 
L 390.607576 -322.430569 
L 390.607576 -321.070125 
L 390.607576 -319.70968 
L 390.607576 -318.349235 
L 390.607576 -316.988791 
L 390.607576 -315.628346 
L 390.607576 -314.267901 
L 390.607576 -312.907457 
L 390.607576 -311.547012 
L 390.607576 -310.186567 
L 390.607576 -308.826123 
L 390.607576 -307.465678 
L 390.607576 -306.105233 
L 390.607576 -304.744789 
L 390.607576 -303.384344 
L 390.607576 -302.023899 
L 390.607576 -300.663454 
L 390.607576 -299.30301 
L 390.607576 -297.942565 
L 390.607576 -296.58212 
L 390.607576 -295.221676 
L 390.607576 -293.861231 
L 390.607576 -292.500786 
L 390.607576 -291.140342 
L 390.607576 -289.779897 
L 390.607576 -288.419452 
L 390.607576 -287.059008 
L 390.607576 -285.698563 
L 390.607576 -284.338118 
L 390.607576 -282.977674 
L 390.607576 -281.617229 
L 390.607576 -280.256784 
L 390.607576 -278.89634 
L 390.607576 -277.535895 
L 390.607576 -276.17545 
L 390.607576 -274.815006 
L 390.607576 -273.454561 
L 390.607576 -272.094116 
L 390.607576 -270.733672 
L 390.607576 -269.373227 
L 390.607576 -268.012782 
L 390.607576 -266.652338 
L 390.607576 -265.291893 
L 390.607576 -263.931448 
L 390.607576 -262.571004 
L 390.607576 -261.210559 
L 390.607576 -259.850114 
L 390.607576 -258.48967 
L 390.607576 -257.129225 
L 390.607576 -255.76878 
L 390.607576 -254.408336 
L 390.607576 -253.047891 
L 390.607576 -251.687446 
L 390.607576 -250.327002 
L 390.607576 -248.966557 
L 390.607576 -247.606112 
L 390.607576 -246.245668 
L 390.607576 -244.885223 
L 390.607576 -243.524778 
L 390.607576 -242.164334 
L 390.607576 -240.803889 
L 390.607576 -239.443444 
L 390.607576 -238.083 
L 390.607576 -236.722555 
L 390.607576 -235.36211 
L 390.607576 -234.001666 
L 390.607576 -232.641221 
L 390.607576 -231.280776 
L 390.607576 -229.920332 
L 390.607576 -228.559887 
L 390.607576 -227.199442 
L 390.607576 -225.838998 
L 390.607576 -224.478553 
L 390.607576 -223.118108 
L 390.607576 -221.757664 
L 390.607576 -220.397219 
L 390.607576 -219.036774 
L 390.607576 -217.67633 
L 390.607576 -216.315885 
L 390.607576 -214.95544 
L 390.607576 -213.594996 
L 390.607576 -212.234551 
L 390.607576 -210.874106 
L 390.607576 -209.513662 
L 390.607576 -208.153217 
L 390.607576 -206.792772 
L 390.607576 -205.432328 
L 390.607576 -204.071883 
L 390.607576 -202.711438 
L 390.607576 -201.350994 
L 390.607576 -199.990549 
L 390.607576 -198.630104 
L 390.607576 -197.26966 
L 390.607576 -195.909215 
z
" id="m2d3925efc4" style="stroke:#3d3d3d;stroke-width:3;"/>
    </defs>
    <g clip-path="url(#pb026cd6874)">
     <use style="fill:#e1812c;stroke:#3d3d3d;stroke-width:3;" x="0" xlink:href="#m2d3925efc4" y="460.8"/>
    </g>
   </g>
   <g id="PolyCollection_4">
    <defs>
     <path d="M 501.310607 -193.652768 
L 486.266795 -193.652768 
L 482.474848 -195.427586 
L 478.529267 -197.202403 
L 474.598053 -198.977221 
L 470.832027 -200.752039 
L 467.352745 -202.526857 
L 464.253877 -204.301675 
L 461.612256 -206.076493 
L 459.500289 -207.851311 
L 457.991148 -209.626129 
L 457.152319 -211.400947 
L 457.029394 -213.175765 
L 457.62735 -214.950583 
L 458.898108 -216.725401 
L 460.740583 -218.500219 
L 463.014006 -220.275037 
L 465.560103 -222.049855 
L 468.226939 -223.824673 
L 470.887806 -225.599491 
L 473.451485 -227.374309 
L 475.8637 -229.149127 
L 478.101968 -230.923945 
L 480.166886 -232.698763 
L 482.07246 -234.473581 
L 483.837301 -236.248398 
L 485.477817 -238.023216 
L 487.004101 -239.798034 
L 488.418672 -241.572852 
L 489.717636 -243.34767 
L 490.893225 -245.122488 
L 491.936522 -246.897306 
L 492.839549 -248.672124 
L 493.596696 -250.446942 
L 494.206062 -252.22176 
L 494.671341 -253.996578 
L 495.004265 -255.771396 
L 495.226752 -257.546214 
L 495.371389 -259.321032 
L 495.479051 -261.09585 
L 495.593433 -262.870668 
L 495.753496 -264.645486 
L 495.985854 -266.420304 
L 496.299402 -268.195122 
L 496.683914 -269.96994 
L 497.113162 -271.744758 
L 497.551747 -273.519576 
L 497.963779 -275.294393 
L 498.32109 -277.069211 
L 498.60893 -278.844029 
L 498.827867 -280.618847 
L 498.991786 -282.393665 
L 499.122916 -284.168483 
L 499.245555 -285.943301 
L 499.380265 -287.718119 
L 499.539898 -289.492937 
L 499.728069 -291.267755 
L 499.939927 -293.042573 
L 500.164558 -294.817391 
L 500.388125 -296.592209 
L 500.596931 -298.367027 
L 500.779779 -300.141845 
L 500.929313 -301.916663 
L 501.042303 -303.691481 
L 501.119129 -305.466299 
L 501.162851 -307.241117 
L 501.178297 -309.015935 
L 501.171435 -310.790753 
L 501.149047 -312.565571 
L 501.118501 -314.340388 
L 501.087357 -316.115206 
L 501.062619 -317.890024 
L 501.049731 -319.664842 
L 501.051609 -321.43966 
L 501.068119 -323.214478 
L 501.096224 -324.989296 
L 501.130816 -326.764114 
L 501.16591 -328.538932 
L 501.195817 -330.31375 
L 501.215993 -332.088568 
L 501.223441 -333.863386 
L 501.216811 -335.638204 
L 501.196332 -337.413022 
L 501.163734 -339.18784 
L 501.122083 -340.962658 
L 501.075456 -342.737476 
L 501.028345 -344.512294 
L 500.984889 -346.287112 
L 500.948153 -348.06193 
L 500.919721 -349.836748 
L 500.899742 -351.611566 
L 500.887338 -353.386383 
L 500.881151 -355.161201 
L 500.87978 -356.936019 
L 500.882044 -358.710837 
L 500.887141 -360.485655 
L 500.894815 -362.260473 
L 500.905521 -364.035291 
L 500.920446 -365.810109 
L 500.941201 -367.584927 
L 500.969181 -369.359745 
L 501.310607 -369.359745 
L 501.310607 -369.359745 
L 501.310607 -367.584927 
L 501.310607 -365.810109 
L 501.310607 -364.035291 
L 501.310607 -362.260473 
L 501.310607 -360.485655 
L 501.310607 -358.710837 
L 501.310607 -356.936019 
L 501.310607 -355.161201 
L 501.310607 -353.386383 
L 501.310607 -351.611566 
L 501.310607 -349.836748 
L 501.310607 -348.06193 
L 501.310607 -346.287112 
L 501.310607 -344.512294 
L 501.310607 -342.737476 
L 501.310607 -340.962658 
L 501.310607 -339.18784 
L 501.310607 -337.413022 
L 501.310607 -335.638204 
L 501.310607 -333.863386 
L 501.310607 -332.088568 
L 501.310607 -330.31375 
L 501.310607 -328.538932 
L 501.310607 -326.764114 
L 501.310607 -324.989296 
L 501.310607 -323.214478 
L 501.310607 -321.43966 
L 501.310607 -319.664842 
L 501.310607 -317.890024 
L 501.310607 -316.115206 
L 501.310607 -314.340388 
L 501.310607 -312.565571 
L 501.310607 -310.790753 
L 501.310607 -309.015935 
L 501.310607 -307.241117 
L 501.310607 -305.466299 
L 501.310607 -303.691481 
L 501.310607 -301.916663 
L 501.310607 -300.141845 
L 501.310607 -298.367027 
L 501.310607 -296.592209 
L 501.310607 -294.817391 
L 501.310607 -293.042573 
L 501.310607 -291.267755 
L 501.310607 -289.492937 
L 501.310607 -287.718119 
L 501.310607 -285.943301 
L 501.310607 -284.168483 
L 501.310607 -282.393665 
L 501.310607 -280.618847 
L 501.310607 -278.844029 
L 501.310607 -277.069211 
L 501.310607 -275.294393 
L 501.310607 -273.519576 
L 501.310607 -271.744758 
L 501.310607 -269.96994 
L 501.310607 -268.195122 
L 501.310607 -266.420304 
L 501.310607 -264.645486 
L 501.310607 -262.870668 
L 501.310607 -261.09585 
L 501.310607 -259.321032 
L 501.310607 -257.546214 
L 501.310607 -255.771396 
L 501.310607 -253.996578 
L 501.310607 -252.22176 
L 501.310607 -250.446942 
L 501.310607 -248.672124 
L 501.310607 -246.897306 
L 501.310607 -245.122488 
L 501.310607 -243.34767 
L 501.310607 -241.572852 
L 501.310607 -239.798034 
L 501.310607 -238.023216 
L 501.310607 -236.248398 
L 501.310607 -234.473581 
L 501.310607 -232.698763 
L 501.310607 -230.923945 
L 501.310607 -229.149127 
L 501.310607 -227.374309 
L 501.310607 -225.599491 
L 501.310607 -223.824673 
L 501.310607 -222.049855 
L 501.310607 -220.275037 
L 501.310607 -218.500219 
L 501.310607 -216.725401 
L 501.310607 -214.950583 
L 501.310607 -213.175765 
L 501.310607 -211.400947 
L 501.310607 -209.626129 
L 501.310607 -207.851311 
L 501.310607 -206.076493 
L 501.310607 -204.301675 
L 501.310607 -202.526857 
L 501.310607 -200.752039 
L 501.310607 -198.977221 
L 501.310607 -197.202403 
L 501.310607 -195.427586 
L 501.310607 -193.652768 
z
" id="m7288737668" style="stroke:#3d3d3d;stroke-width:3;"/>
    </defs>
    <g clip-path="url(#pb026cd6874)">
     <use style="fill:#e1812c;stroke:#3d3d3d;stroke-width:3;" x="0" xlink:href="#m7288737668" y="460.8"/>
    </g>
   </g>
   <g id="patch_3">
    <path clip-path="url(#pb026cd6874)" d="M 169.201515 281.943609 
L 169.201515 281.943609 
L 169.201515 281.943609 
L 169.201515 281.943609 
z
" style="fill:#e1812c;stroke:#3d3d3d;stroke-linejoin:miter;stroke-width:1.5;"/>
   </g>
   <g id="patch_4">
    <path clip-path="url(#pb026cd6874)" d="M 169.201515 281.943609 
L 169.201515 281.943609 
L 169.201515 281.943609 
L 169.201515 281.943609 
z
" style="fill:#3a923a;stroke:#3d3d3d;stroke-linejoin:miter;stroke-width:1.5;"/>
   </g>
   <g id="matplotlib.axis_1">
    <g id="xtick_1">
     <g id="line2d_1">
      <defs>
       <path d="M 0 0 
L 0 3.5 
" id="md2ca8ad01b" style="stroke:#000000;stroke-width:0.8;"/>
      </defs>
      <g>
       <use style="stroke:#000000;stroke-width:0.8;" x="169.201515" xlink:href="#md2ca8ad01b" y="279.354243"/>
      </g>
     </g>
     <g id="text_1">
      <text style="font-family:DejaVu Sans;font-size:32px;font-stretch:normal;font-style:normal;font-weight:normal;" transform="translate(111.547564 303.547545)rotate(-315)">&lt;2 years</text>
     </g>
    </g>
    <g id="xtick_2">
     <g id="line2d_2">
      <g>
       <use style="stroke:#000000;stroke-width:0.8;" x="279.904546" xlink:href="#md2ca8ad01b" y="279.354243"/>
      </g>
     </g>
     <g id="text_2">
      <text style="font-family:DejaVu Sans;font-size:32px;font-stretch:normal;font-style:normal;font-weight:normal;" transform="translate(222.250594 303.547545)rotate(-315)">&lt;4 years</text>
     </g>
    </g>
    <g id="xtick_3">
     <g id="line2d_3">
      <g>
       <use style="stroke:#000000;stroke-width:0.8;" x="390.607576" xlink:href="#md2ca8ad01b" y="279.354243"/>
      </g>
     </g>
     <g id="text_3">
      <text style="font-family:DejaVu Sans;font-size:32px;font-stretch:normal;font-style:normal;font-weight:normal;" transform="translate(332.953625 303.547545)rotate(-315)">≥4 years</text>
     </g>
    </g>
    <g id="xtick_4">
     <g id="line2d_4">
      <g>
       <use style="stroke:#000000;stroke-width:0.8;" x="501.310607" xlink:href="#md2ca8ad01b" y="279.354243"/>
      </g>
     </g>
     <g id="text_4">
      <text style="font-family:DejaVu Sans;font-size:32px;font-stretch:normal;font-style:normal;font-weight:normal;" transform="translate(441.678524 303.547545)rotate(-315)">Censored</text>
     </g>
    </g>
    <g id="text_5">
     <text style="font-family:DejaVu Sans;font-size:32px;font-stretch:normal;font-style:normal;font-weight:normal;text-anchor:middle;" transform="rotate(-0, 335.256061, 443.345)" x="335.256061" y="443.345">Years since diagnosis</text>
    </g>
   </g>
   <g id="matplotlib.axis_2">
    <g id="ytick_1">
     <g id="line2d_5">
      <defs>
       <path d="M 0 0 
L -3.5 0 
" id="m9f9492278e" style="stroke:#000000;stroke-width:0.8;"/>
      </defs>
      <g>
       <use style="stroke:#000000;stroke-width:0.8;" x="113.85" xlink:href="#m9f9492278e" y="189.466253"/>
      </g>
     </g>
     <g id="text_6">
      <text style="font-family:DejaVu Sans;font-size:32px;font-stretch:normal;font-style:normal;font-weight:normal;text-anchor:end;" transform="rotate(-0, 106.85, 201.623753)" x="106.85" y="201.623753">50</text>
     </g>
    </g>
    <g id="ytick_2">
     <g id="line2d_6">
      <g>
       <use style="stroke:#000000;stroke-width:0.8;" x="113.85" xlink:href="#m9f9492278e" y="96.988896"/>
      </g>
     </g>
     <g id="text_7">
      <text style="font-family:DejaVu Sans;font-size:32px;font-stretch:normal;font-style:normal;font-weight:normal;text-anchor:end;" transform="rotate(-0, 106.85, 109.146396)" x="106.85" y="109.146396">100</text>
     </g>
    </g>
    <g id="text_8">
     <text style="font-family:DejaVu Sans;font-size:32px;font-stretch:normal;font-style:normal;font-weight:normal;text-anchor:middle;" transform="rotate(-90, 35.115, 145.077122)" x="35.115" y="145.077122">p-tau (pg/mL)</text>
    </g>
   </g>
   <g id="line2d_7">
    <path clip-path="url(#pb026cd6874)" d="M 130.69585 237.577598 
L 169.201515 237.577598 
" style="fill:none;stroke:#3d3d3d;stroke-dasharray:13.5,13.5;stroke-dashoffset:0;stroke-width:3;"/>
   </g>
   <g id="line2d_8">
    <path clip-path="url(#pb026cd6874)" d="M 127.318974 222.009035 
L 169.201515 222.009035 
" style="fill:none;stroke:#3d3d3d;stroke-dasharray:27,27;stroke-dashoffset:0;stroke-width:3;"/>
   </g>
   <g id="line2d_9">
    <path clip-path="url(#pb026cd6874)" d="M 149.07454 197.067892 
L 169.201515 197.067892 
" style="fill:none;stroke:#3d3d3d;stroke-dasharray:13.5,13.5;stroke-dashoffset:0;stroke-width:3;"/>
   </g>
   <g id="line2d_10">
    <path clip-path="url(#pb026cd6874)" d="M 237.328075 235.205553 
L 279.904546 235.205553 
" style="fill:none;stroke:#3d3d3d;stroke-dasharray:13.5,13.5;stroke-dashoffset:0;stroke-width:3;"/>
   </g>
   <g id="line2d_11">
    <path clip-path="url(#pb026cd6874)" d="M 238.301596 219.040512 
L 279.904546 219.040512 
" style="fill:none;stroke:#3d3d3d;stroke-dasharray:27,27;stroke-dashoffset:0;stroke-width:3;"/>
   </g>
   <g id="line2d_12">
    <path clip-path="url(#pb026cd6874)" d="M 252.538213 190.779431 
L 279.904546 190.779431 
" style="fill:none;stroke:#3d3d3d;stroke-dasharray:13.5,13.5;stroke-dashoffset:0;stroke-width:3;"/>
   </g>
   <g id="line2d_13">
    <path clip-path="url(#pb026cd6874)" d="M 349.510246 249.132643 
L 390.607576 249.132643 
" style="fill:none;stroke:#3d3d3d;stroke-dasharray:13.5,13.5;stroke-dashoffset:0;stroke-width:3;"/>
   </g>
   <g id="line2d_14">
    <path clip-path="url(#pb026cd6874)" d="M 348.387575 230.378235 
L 390.607576 230.378235 
" style="fill:none;stroke:#3d3d3d;stroke-dasharray:27,27;stroke-dashoffset:0;stroke-width:3;"/>
   </g>
   <g id="line2d_15">
    <path clip-path="url(#pb026cd6874)" d="M 355.839718 219.872808 
L 390.607576 219.872808 
" style="fill:none;stroke:#3d3d3d;stroke-dasharray:13.5,13.5;stroke-dashoffset:0;stroke-width:3;"/>
   </g>
   <g id="line2d_16">
    <path clip-path="url(#pb026cd6874)" d="M 459.918392 253.053683 
L 501.310607 253.053683 
" style="fill:none;stroke:#3d3d3d;stroke-dasharray:13.5,13.5;stroke-dashoffset:0;stroke-width:3;"/>
   </g>
   <g id="line2d_17">
    <path clip-path="url(#pb026cd6874)" d="M 459.322233 244.555014 
L 501.310607 244.555014 
" style="fill:none;stroke:#3d3d3d;stroke-dasharray:27,27;stroke-dashoffset:0;stroke-width:3;"/>
   </g>
   <g id="line2d_18">
    <path clip-path="url(#pb026cd6874)" d="M 478.334054 230.688035 
L 501.310607 230.688035 
" style="fill:none;stroke:#3d3d3d;stroke-dasharray:13.5,13.5;stroke-dashoffset:0;stroke-width:3;"/>
   </g>
   <g id="PathCollection_3">
    <defs>
     <path d="M 0 2.5 
C 0.663008 2.5 1.29895 2.236584 1.767767 1.767767 
C 2.236584 1.29895 2.5 0.663008 2.5 -0 
C 2.5 -0.663008 2.236584 -1.29895 1.767767 -1.767767 
C 1.29895 -2.236584 0.663008 -2.5 0 -2.5 
C -0.663008 -2.5 -1.29895 -2.236584 -1.767767 -1.767767 
C -2.236584 -1.29895 -2.5 -0.663008 -2.5 0 
C -2.5 0.663008 -2.236584 1.29895 -1.767767 1.767767 
C -1.29895 2.236584 -0.663008 2.5 0 2.5 
z
" id="C0_0_e8fc4ffa15"/>
    </defs>
   </g>
   <g id="PathCollection_4">
    <defs>
     <path d="M 0 2.5 
C 0.663008 2.5 1.29895 2.236584 1.767767 1.767767 
C 2.236584 1.29895 2.5 0.663008 2.5 -0 
C 2.5 -0.663008 2.236584 -1.29895 1.767767 -1.767767 
C 1.29895 -2.236584 0.663008 -2.5 0 -2.5 
C -0.663008 -2.5 -1.29895 -2.236584 -1.767767 -1.767767 
C -2.236584 -1.29895 -2.5 -0.663008 -2.5 0 
C -2.5 0.663008 -2.236584 1.29895 -1.767767 1.767767 
C -1.29895 2.236584 -0.663008 2.5 0 2.5 
z
" id="C1_0_60be492232"/>
    </defs>
    <g clip-path="url(#pb026cd6874)">
     <use style="fill:#2ca02c;" x="191.342121" xlink:href="#C1_0_60be492232" y="185.767159"/>
    </g>
    <g clip-path="url(#pb026cd6874)">
     <use style="fill:#2ca02c;" x="191.342121" xlink:href="#C1_0_60be492232" y="172.820329"/>
    </g>
    <g clip-path="url(#pb026cd6874)">
     <use style="fill:#2ca02c;" x="191.342121" xlink:href="#C1_0_60be492232" y="167.271687"/>
    </g>
    <g clip-path="url(#pb026cd6874)">
     <use style="fill:#2ca02c;" x="186.134317" xlink:href="#C1_0_60be492232" y="167.271687"/>
    </g>
    <g clip-path="url(#pb026cd6874)">
     <use style="fill:#2ca02c;" x="191.342121" xlink:href="#C1_0_60be492232" y="163.572593"/>
    </g>
    <g clip-path="url(#pb026cd6874)">
     <use style="fill:#2ca02c;" x="186.134317" xlink:href="#C1_0_60be492232" y="163.572593"/>
    </g>
   </g>
   <g id="PathCollection_5">
    <defs>
     <path d="M 0 2.5 
C 0.663008 2.5 1.29895 2.236584 1.767767 1.767767 
C 2.236584 1.29895 2.5 0.663008 2.5 -0 
C 2.5 -0.663008 2.236584 -1.29895 1.767767 -1.767767 
C 1.29895 -2.236584 0.663008 -2.5 0 -2.5 
C -0.663008 -2.5 -1.29895 -2.236584 -1.767767 -1.767767 
C -2.236584 -1.29895 -2.5 -0.663008 -2.5 0 
C -2.5 0.663008 -2.236584 1.29895 -1.767767 1.767767 
C -1.29895 2.236584 -0.663008 2.5 0 2.5 
z
" id="C2_0_13865c8ce9"/>
    </defs>
   </g>
   <g id="PathCollection_6">
    <defs>
     <path d="M 0 2.5 
C 0.663008 2.5 1.29895 2.236584 1.767767 1.767767 
C 2.236584 1.29895 2.5 0.663008 2.5 -0 
C 2.5 -0.663008 2.236584 -1.29895 1.767767 -1.767767 
C 1.29895 -2.236584 0.663008 -2.5 0 -2.5 
C -0.663008 -2.5 -1.29895 -2.236584 -1.767767 -1.767767 
C -2.236584 -1.29895 -2.5 -0.663008 -2.5 0 
C -2.5 0.663008 -2.236584 1.29895 -1.767767 1.767767 
C -1.29895 2.236584 -0.663008 2.5 0 2.5 
z
" id="C3_0_4ead0e120e"/>
    </defs>
    <g clip-path="url(#pb026cd6874)">
     <use style="fill:#2ca02c;" x="302.045152" xlink:href="#C3_0_4ead0e120e" y="222.758101"/>
    </g>
    <g clip-path="url(#pb026cd6874)">
     <use style="fill:#2ca02c;" x="302.045152" xlink:href="#C3_0_4ead0e120e" y="163.572593"/>
    </g>
    <g clip-path="url(#pb026cd6874)">
     <use style="fill:#2ca02c;" x="302.045152" xlink:href="#C3_0_4ead0e120e" y="23.007011"/>
    </g>
   </g>
   <g id="PathCollection_7">
    <defs>
     <path d="M 0 2.5 
C 0.663008 2.5 1.29895 2.236584 1.767767 1.767767 
C 2.236584 1.29895 2.5 0.663008 2.5 -0 
C 2.5 -0.663008 2.236584 -1.29895 1.767767 -1.767767 
C 1.29895 -2.236584 0.663008 -2.5 0 -2.5 
C -0.663008 -2.5 -1.29895 -2.236584 -1.767767 -1.767767 
C -2.236584 -1.29895 -2.5 -0.663008 -2.5 0 
C -2.5 0.663008 -2.236584 1.29895 -1.767767 1.767767 
C -1.29895 2.236584 -0.663008 2.5 0 2.5 
z
" id="C4_0_47fcf0b660"/>
    </defs>
   </g>
   <g id="PathCollection_8">
    <defs>
     <path d="M 0 2.5 
C 0.663008 2.5 1.29895 2.236584 1.767767 1.767767 
C 2.236584 1.29895 2.5 0.663008 2.5 -0 
C 2.5 -0.663008 2.236584 -1.29895 1.767767 -1.767767 
C 1.29895 -2.236584 0.663008 -2.5 0 -2.5 
C -0.663008 -2.5 -1.29895 -2.236584 -1.767767 -1.767767 
C -2.236584 -1.29895 -2.5 -0.663008 -2.5 0 
C -2.5 0.663008 -2.236584 1.29895 -1.767767 1.767767 
C -1.29895 2.236584 -0.663008 2.5 0 2.5 
z
" id="C5_0_bbd6a3f3f8"/>
    </defs>
    <g clip-path="url(#pb026cd6874)">
     <use style="fill:#2ca02c;" x="412.748182" xlink:href="#C5_0_bbd6a3f3f8" y="226.457196"/>
    </g>
    <g clip-path="url(#pb026cd6874)">
     <use style="fill:#2ca02c;" x="412.748182" xlink:href="#C5_0_bbd6a3f3f8" y="180.218517"/>
    </g>
    <g clip-path="url(#pb026cd6874)">
     <use style="fill:#2ca02c;" x="412.748182" xlink:href="#C5_0_bbd6a3f3f8" y="98.838443"/>
    </g>
   </g>
   <g id="PathCollection_9">
    <defs>
     <path d="M 0 2.5 
C 0.663008 2.5 1.29895 2.236584 1.767767 1.767767 
C 2.236584 1.29895 2.5 0.663008 2.5 -0 
C 2.5 -0.663008 2.236584 -1.29895 1.767767 -1.767767 
C 1.29895 -2.236584 0.663008 -2.5 0 -2.5 
C -0.663008 -2.5 -1.29895 -2.236584 -1.767767 -1.767767 
C -2.236584 -1.29895 -2.5 -0.663008 -2.5 0 
C -2.5 0.663008 -2.236584 1.29895 -1.767767 1.767767 
C -1.29895 2.236584 -0.663008 2.5 0 2.5 
z
" id="C6_0_a9c57d7a99"/>
    </defs>
   </g>
   <g id="PathCollection_10">
    <defs>
     <path d="M 0 2.5 
C 0.663008 2.5 1.29895 2.236584 1.767767 1.767767 
C 2.236584 1.29895 2.5 0.663008 2.5 -0 
C 2.5 -0.663008 2.236584 -1.29895 1.767767 -1.767767 
C 1.29895 -2.236584 0.663008 -2.5 0 -2.5 
C -0.663008 -2.5 -1.29895 -2.236584 -1.767767 -1.767767 
C -2.236584 -1.29895 -2.5 -0.663008 -2.5 0 
C -2.5 0.663008 -2.236584 1.29895 -1.767767 1.767767 
C -1.29895 2.236584 -0.663008 2.5 0 2.5 
z
" id="C7_0_ab88dba6bd"/>
    </defs>
    <g clip-path="url(#pb026cd6874)">
     <use style="fill:#2ca02c;" x="523.451213" xlink:href="#C7_0_ab88dba6bd" y="237.554478"/>
    </g>
    <g clip-path="url(#pb026cd6874)">
     <use style="fill:#2ca02c;" x="523.451213" xlink:href="#C7_0_ab88dba6bd" y="219.059007"/>
    </g>
    <g clip-path="url(#pb026cd6874)">
     <use style="fill:#2ca02c;" x="519.123059" xlink:href="#C7_0_ab88dba6bd" y="217.20946"/>
    </g>
    <g clip-path="url(#pb026cd6874)">
     <use style="fill:#2ca02c;" x="523.451213" xlink:href="#C7_0_ab88dba6bd" y="202.413083"/>
    </g>
    <g clip-path="url(#pb026cd6874)">
     <use style="fill:#2ca02c;" x="523.451213" xlink:href="#C7_0_ab88dba6bd" y="193.165347"/>
    </g>
    <g clip-path="url(#pb026cd6874)">
     <use style="fill:#2ca02c;" x="523.451213" xlink:href="#C7_0_ab88dba6bd" y="183.917612"/>
    </g>
    <g clip-path="url(#pb026cd6874)">
     <use style="fill:#2ca02c;" x="523.451213" xlink:href="#C7_0_ab88dba6bd" y="150.625763"/>
    </g>
    <g clip-path="url(#pb026cd6874)">
     <use style="fill:#2ca02c;" x="523.451213" xlink:href="#C7_0_ab88dba6bd" y="139.52848"/>
    </g>
    <g clip-path="url(#pb026cd6874)">
     <use style="fill:#2ca02c;" x="523.451213" xlink:href="#C7_0_ab88dba6bd" y="47.051124"/>
    </g>
   </g>
   <g id="legend_1">
    <g id="patch_5">
     <path d="M 263.121061 170.91 
L 407.391061 170.91 
Q 412.191061 170.91 412.191061 166.11 
L 412.191061 27.6 
Q 412.191061 22.8 407.391061 22.8 
L 263.121061 22.8 
Q 258.321061 22.8 258.321061 27.6 
L 258.321061 166.11 
Q 258.321061 170.91 263.121061 170.91 
z
" style="fill:#ffffff;opacity:0.8;stroke:#cccccc;stroke-linejoin:miter;"/>
    </g>
    <g id="patch_6">
     <path d="M 267.921061 50.63625 
L 315.921061 50.63625 
L 315.921061 33.83625 
L 267.921061 33.83625 
z
" style="fill:#e1812c;stroke:#3d3d3d;stroke-linejoin:miter;stroke-width:1.5;"/>
    </g>
    <g id="text_9">
     <text style="font-family:DejaVu Sans;font-size:24px;font-stretch:normal;font-style:normal;font-weight:normal;text-anchor:start;" transform="rotate(-0, 335.121061, 50.63625)" x="335.121061" y="50.63625">ADNI</text>
    </g>
    <g id="patch_7">
     <path d="M 267.921061 85.86375 
L 315.921061 85.86375 
L 315.921061 69.06375 
L 267.921061 69.06375 
z
" style="fill:#3a923a;stroke:#3d3d3d;stroke-linejoin:miter;stroke-width:1.5;"/>
    </g>
    <g id="text_10">
     <text style="font-family:DejaVu Sans;font-size:24px;font-stretch:normal;font-style:normal;font-weight:normal;text-anchor:start;" transform="rotate(-0, 335.121061, 85.86375)" x="335.121061" y="85.86375">NACC</text>
    </g>
    <g id="PathCollection_11">
     <defs>
      <path d="M 0 3.872983 
C 1.027127 3.872983 2.012324 3.464901 2.738613 2.738613 
C 3.464901 2.012324 3.872983 1.027127 3.872983 0 
C 3.872983 -1.027127 3.464901 -2.012324 2.738613 -2.738613 
C 2.012324 -3.464901 1.027127 -3.872983 0 -3.872983 
C -1.027127 -3.872983 -2.012324 -3.464901 -2.738613 -2.738613 
C -3.464901 -2.012324 -3.872983 -1.027127 -3.872983 0 
C -3.872983 1.027127 -3.464901 2.012324 -2.738613 2.738613 
C -2.012324 3.464901 -1.027127 3.872983 0 3.872983 
z
" id="m0d45bb950b" style="stroke:#ff7f0e;"/>
     </defs>
     <g>
      <use style="fill:#ff7f0e;stroke:#ff7f0e;" x="291.921061" xlink:href="#m0d45bb950b" y="114.79125"/>
     </g>
    </g>
    <g id="text_11">
     <text style="font-family:DejaVu Sans;font-size:24px;font-stretch:normal;font-style:normal;font-weight:normal;text-anchor:start;" transform="rotate(-0, 335.121061, 121.09125)" x="335.121061" y="121.09125">ADNI</text>
    </g>
    <g id="PathCollection_12">
     <defs>
      <path d="M 0 3.872983 
C 1.027127 3.872983 2.012324 3.464901 2.738613 2.738613 
C 3.464901 2.012324 3.872983 1.027127 3.872983 0 
C 3.872983 -1.027127 3.464901 -2.012324 2.738613 -2.738613 
C 2.012324 -3.464901 1.027127 -3.872983 0 -3.872983 
C -1.027127 -3.872983 -2.012324 -3.464901 -2.738613 -2.738613 
C -3.464901 -2.012324 -3.872983 -1.027127 -3.872983 0 
C -3.872983 1.027127 -3.464901 2.012324 -2.738613 2.738613 
C -2.012324 3.464901 -1.027127 3.872983 0 3.872983 
z
" id="md63462d162" style="stroke:#2ca02c;"/>
     </defs>
     <g>
      <use style="fill:#2ca02c;stroke:#2ca02c;" x="291.921061" xlink:href="#md63462d162" y="150.01875"/>
     </g>
    </g>
    <g id="text_12">
     <text style="font-family:DejaVu Sans;font-size:24px;font-stretch:normal;font-style:normal;font-weight:normal;text-anchor:start;" transform="rotate(-0, 335.121061, 156.31875)" x="335.121061" y="156.31875">NACC</text>
    </g>
   </g>
  </g>
 </g>
 <defs>
  <clipPath id="pb026cd6874">
   <rect height="268.554243" width="442.812122" x="113.85" y="10.8"/>
  </clipPath>
 </defs>
</svg>
