<?xml version="1.0" encoding="utf-8" standalone="no"?>
<!DOCTYPE svg PUBLIC "-//W3C//DTD SVG 1.1//EN"
  "http://www.w3.org/Graphics/SVG/1.1/DTD/svg11.dtd">
<!-- Created with matplotlib (https://matplotlib.org/) -->
<svg height="460.8pt" version="1.1" viewBox="0 0 576 460.8" width="576pt" xmlns="http://www.w3.org/2000/svg" xmlns:xlink="http://www.w3.org/1999/xlink">
 <metadata>
  <rdf:RDF xmlns:cc="http://creativecommons.org/ns#" xmlns:dc="http://purl.org/dc/elements/1.1/" xmlns:rdf="http://www.w3.org/1999/02/22-rdf-syntax-ns#">
   <cc:Work>
    <dc:type rdf:resource="http://purl.org/dc/dcmitype/StillImage"/>
    <dc:date>2022-02-13T16:43:11.617678</dc:date>
    <dc:format>image/svg+xml</dc:format>
    <dc:creator>
     <cc:Agent>
      <dc:title>Matplotlib v3.3.3, https://matplotlib.org/</dc:title>
     </cc:Agent>
    </dc:creator>
   </cc:Work>
  </rdf:RDF>
 </metadata>
 <defs>
  <style type="text/css">*{stroke-linecap:butt;stroke-linejoin:round;}</style>
 </defs>
 <g id="figure_1">
  <g id="patch_1">
   <path d="M 0 460.8 
L 576 460.8 
L 576 0 
L 0 0 
z
" style="fill:#ffffff;"/>
  </g>
  <g id="axes_1">
   <g id="patch_2">
    <path d="M 93.49 279.354243 
L 556.662122 279.354243 
L 556.662122 10.8 
L 93.49 10.8 
z
" style="fill:#ffffff;"/>
   </g>
   <g id="PolyCollection_1">
    <defs>
     <path d="M 151.386515 -306.33287 
L 139.050486 -306.33287 
L 137.893977 -307.66075 
L 136.690049 -308.98863 
L 135.444301 -310.31651 
L 134.163033 -311.64439 
L 132.853127 -312.97227 
L 131.521898 -314.30015 
L 130.176929 -315.62803 
L 128.82589 -316.95591 
L 127.476366 -318.28379 
L 126.135668 -319.61167 
L 124.810678 -320.93955 
L 123.507693 -322.26743 
L 122.232315 -323.59531 
L 120.989359 -324.92319 
L 119.782803 -326.25107 
L 118.615778 -327.57895 
L 117.490597 -328.90683 
L 116.408819 -330.23471 
L 115.371351 -331.56259 
L 114.378576 -332.89047 
L 113.430508 -334.21835 
L 112.526953 -335.54623 
L 111.667687 -336.87411 
L 110.852621 -338.20199 
L 110.081956 -339.52987 
L 109.356323 -340.85775 
L 108.676882 -342.18563 
L 108.045398 -343.51351 
L 107.464265 -344.84139 
L 106.936494 -346.169269 
L 106.465645 -347.497149 
L 106.055724 -348.825029 
L 105.711029 -350.152909 
L 105.43596 -351.480789 
L 105.234801 -352.808669 
L 105.111478 -354.136549 
L 105.069303 -355.464429 
L 105.110731 -356.792309 
L 105.237116 -358.120189 
L 105.448505 -359.448069 
L 105.743468 -360.775949 
L 106.118973 -362.103829 
L 106.570332 -363.431709 
L 107.091197 -364.759589 
L 107.673638 -366.087469 
L 108.308284 -367.415349 
L 108.98453 -368.743229 
L 109.690801 -370.071109 
L 110.41487 -371.398989 
L 111.144211 -372.726869 
L 111.866368 -374.054749 
L 112.569337 -375.382629 
L 113.241935 -376.710509 
L 113.874145 -378.038389 
L 114.457412 -379.366269 
L 114.984895 -380.694149 
L 115.451647 -382.022029 
L 115.854729 -383.349909 
L 116.193246 -384.677789 
L 116.46831 -386.005669 
L 116.682926 -387.333549 
L 116.841821 -388.661429 
L 116.95121 -389.989309 
L 117.018522 -391.317189 
L 117.052094 -392.645069 
L 117.060849 -393.972949 
L 117.053972 -395.300829 
L 117.040596 -396.628709 
L 117.029517 -397.956589 
L 117.02894 -399.284469 
L 117.046271 -400.612349 
L 117.087958 -401.940229 
L 117.159389 -403.268109 
L 117.264836 -404.595989 
L 117.40746 -405.923869 
L 117.589357 -407.251749 
L 117.811646 -408.579629 
L 118.074593 -409.907509 
L 118.377753 -411.235389 
L 118.720136 -412.563269 
L 119.100367 -413.891149 
L 119.516853 -415.219029 
L 119.96793 -416.546909 
L 120.451997 -417.874789 
L 120.967622 -419.202669 
L 121.513621 -420.530549 
L 122.089108 -421.858429 
L 122.693511 -423.186309 
L 123.326556 -424.514189 
L 123.988228 -425.842069 
L 124.678701 -427.169949 
L 125.398251 -428.497829 
L 126.147151 -429.825709 
L 126.925557 -431.153589 
L 127.733399 -432.481469 
L 128.57026 -433.809349 
L 129.435284 -435.137229 
L 130.327084 -436.465109 
L 131.24368 -437.792989 
L 151.386515 -437.792989 
L 151.386515 -437.792989 
L 151.386515 -436.465109 
L 151.386515 -435.137229 
L 151.386515 -433.809349 
L 151.386515 -432.481469 
L 151.386515 -431.153589 
L 151.386515 -429.825709 
L 151.386515 -428.497829 
L 151.386515 -427.169949 
L 151.386515 -425.842069 
L 151.386515 -424.514189 
L 151.386515 -423.186309 
L 151.386515 -421.858429 
L 151.386515 -420.530549 
L 151.386515 -419.202669 
L 151.386515 -417.874789 
L 151.386515 -416.546909 
L 151.386515 -415.219029 
L 151.386515 -413.891149 
L 151.386515 -412.563269 
L 151.386515 -411.235389 
L 151.386515 -409.907509 
L 151.386515 -408.579629 
L 151.386515 -407.251749 
L 151.386515 -405.923869 
L 151.386515 -404.595989 
L 151.386515 -403.268109 
L 151.386515 -401.940229 
L 151.386515 -400.612349 
L 151.386515 -399.284469 
L 151.386515 -397.956589 
L 151.386515 -396.628709 
L 151.386515 -395.300829 
L 151.386515 -393.972949 
L 151.386515 -392.645069 
L 151.386515 -391.317189 
L 151.386515 -389.989309 
L 151.386515 -388.661429 
L 151.386515 -387.333549 
L 151.386515 -386.005669 
L 151.386515 -384.677789 
L 151.386515 -383.349909 
L 151.386515 -382.022029 
L 151.386515 -380.694149 
L 151.386515 -379.366269 
L 151.386515 -378.038389 
L 151.386515 -376.710509 
L 151.386515 -375.382629 
L 151.386515 -374.054749 
L 151.386515 -372.726869 
L 151.386515 -371.398989 
L 151.386515 -370.071109 
L 151.386515 -368.743229 
L 151.386515 -367.415349 
L 151.386515 -366.087469 
L 151.386515 -364.759589 
L 151.386515 -363.431709 
L 151.386515 -362.103829 
L 151.386515 -360.775949 
L 151.386515 -359.448069 
L 151.386515 -358.120189 
L 151.386515 -356.792309 
L 151.386515 -355.464429 
L 151.386515 -354.136549 
L 151.386515 -352.808669 
L 151.386515 -351.480789 
L 151.386515 -350.152909 
L 151.386515 -348.825029 
L 151.386515 -347.497149 
L 151.386515 -346.169269 
L 151.386515 -344.84139 
L 151.386515 -343.51351 
L 151.386515 -342.18563 
L 151.386515 -340.85775 
L 151.386515 -339.52987 
L 151.386515 -338.20199 
L 151.386515 -336.87411 
L 151.386515 -335.54623 
L 151.386515 -334.21835 
L 151.386515 -332.89047 
L 151.386515 -331.56259 
L 151.386515 -330.23471 
L 151.386515 -328.90683 
L 151.386515 -327.57895 
L 151.386515 -326.25107 
L 151.386515 -324.92319 
L 151.386515 -323.59531 
L 151.386515 -322.26743 
L 151.386515 -320.93955 
L 151.386515 -319.61167 
L 151.386515 -318.28379 
L 151.386515 -316.95591 
L 151.386515 -315.62803 
L 151.386515 -314.30015 
L 151.386515 -312.97227 
L 151.386515 -311.64439 
L 151.386515 -310.31651 
L 151.386515 -308.98863 
L 151.386515 -307.66075 
L 151.386515 -306.33287 
z
" id="m56caf6e9bf" style="stroke:#3d3d3d;stroke-width:3;"/>
    </defs>
    <g clip-path="url(#p89d1c64906)">
     <use style="fill:#e1812c;stroke:#3d3d3d;stroke-width:3;" x="0" xlink:href="#m56caf6e9bf" y="460.8"/>
    </g>
   </g>
   <g id="PolyCollection_2">
    <defs>
     <path d="M 164.385996 -268.772836 
L 151.386515 -268.772836 
L 151.386515 -270.290413 
L 151.386515 -271.80799 
L 151.386515 -273.325567 
L 151.386515 -274.843144 
L 151.386515 -276.360721 
L 151.386515 -277.878298 
L 151.386515 -279.395876 
L 151.386515 -280.913453 
L 151.386515 -282.43103 
L 151.386515 -283.948607 
L 151.386515 -285.466184 
L 151.386515 -286.983761 
L 151.386515 -288.501338 
L 151.386515 -290.018916 
L 151.386515 -291.536493 
L 151.386515 -293.05407 
L 151.386515 -294.571647 
L 151.386515 -296.089224 
L 151.386515 -297.606801 
L 151.386515 -299.124378 
L 151.386515 -300.641955 
L 151.386515 -302.159533 
L 151.386515 -303.67711 
L 151.386515 -305.194687 
L 151.386515 -306.712264 
L 151.386515 -308.229841 
L 151.386515 -309.747418 
L 151.386515 -311.264995 
L 151.386515 -312.782573 
L 151.386515 -314.30015 
L 151.386515 -315.817727 
L 151.386515 -317.335304 
L 151.386515 -318.852881 
L 151.386515 -320.370458 
L 151.386515 -321.888035 
L 151.386515 -323.405612 
L 151.386515 -324.92319 
L 151.386515 -326.440767 
L 151.386515 -327.958344 
L 151.386515 -329.475921 
L 151.386515 -330.993498 
L 151.386515 -332.511075 
L 151.386515 -334.028652 
L 151.386515 -335.54623 
L 151.386515 -337.063807 
L 151.386515 -338.581384 
L 151.386515 -340.098961 
L 151.386515 -341.616538 
L 151.386515 -343.134115 
L 151.386515 -344.651692 
L 151.386515 -346.169269 
L 151.386515 -347.686847 
L 151.386515 -349.204424 
L 151.386515 -350.722001 
L 151.386515 -352.239578 
L 151.386515 -353.757155 
L 151.386515 -355.274732 
L 151.386515 -356.792309 
L 151.386515 -358.309887 
L 151.386515 -359.827464 
L 151.386515 -361.345041 
L 151.386515 -362.862618 
L 151.386515 -364.380195 
L 151.386515 -365.897772 
L 151.386515 -367.415349 
L 151.386515 -368.932926 
L 151.386515 -370.450504 
L 151.386515 -371.968081 
L 151.386515 -373.485658 
L 151.386515 -375.003235 
L 151.386515 -376.520812 
L 151.386515 -378.038389 
L 151.386515 -379.555966 
L 151.386515 -381.073544 
L 151.386515 -382.591121 
L 151.386515 -384.108698 
L 151.386515 -385.626275 
L 151.386515 -387.143852 
L 151.386515 -388.661429 
L 151.386515 -390.179006 
L 151.386515 -391.696584 
L 151.386515 -393.214161 
L 151.386515 -394.731738 
L 151.386515 -396.249315 
L 151.386515 -397.766892 
L 151.386515 -399.284469 
L 151.386515 -400.802046 
L 151.386515 -402.319623 
L 151.386515 -403.837201 
L 151.386515 -405.354778 
L 151.386515 -406.872355 
L 151.386515 -408.389932 
L 151.386515 -409.907509 
L 151.386515 -411.425086 
L 151.386515 -412.942663 
L 151.386515 -414.460241 
L 151.386515 -415.977818 
L 151.386515 -417.495395 
L 151.386515 -419.012972 
L 172.226531 -419.012972 
L 172.226531 -419.012972 
L 172.884339 -417.495395 
L 173.500704 -415.977818 
L 174.073794 -414.460241 
L 174.602592 -412.942663 
L 175.086939 -411.425086 
L 175.527556 -409.907509 
L 175.926043 -408.389932 
L 176.284868 -406.872355 
L 176.607318 -405.354778 
L 176.897445 -403.837201 
L 177.159982 -402.319623 
L 177.400241 -400.802046 
L 177.624 -399.284469 
L 177.837365 -397.766892 
L 178.046634 -396.249315 
L 178.25814 -394.731738 
L 178.478098 -393.214161 
L 178.712451 -391.696584 
L 178.966717 -390.179006 
L 179.245848 -388.661429 
L 179.554096 -387.143852 
L 179.894905 -385.626275 
L 180.270808 -384.108698 
L 180.683358 -382.591121 
L 181.133076 -381.073544 
L 181.619426 -379.555966 
L 182.140813 -378.038389 
L 182.694614 -376.520812 
L 183.277222 -375.003235 
L 183.884124 -373.485658 
L 184.509987 -371.968081 
L 185.148774 -370.450504 
L 185.793866 -368.932926 
L 186.438197 -367.415349 
L 187.074391 -365.897772 
L 187.694914 -364.380195 
L 188.292209 -362.862618 
L 188.858838 -361.345041 
L 189.387613 -359.827464 
L 189.871718 -358.309887 
L 190.304815 -356.792309 
L 190.681139 -355.274732 
L 190.995581 -353.757155 
L 191.243747 -352.239578 
L 191.422009 -350.722001 
L 191.527536 -349.204424 
L 191.558315 -347.686847 
L 191.513152 -346.169269 
L 191.391667 -344.651692 
L 191.194274 -343.134115 
L 190.922155 -341.616538 
L 190.577221 -340.098961 
L 190.162073 -338.581384 
L 189.67995 -337.063807 
L 189.13468 -335.54623 
L 188.530619 -334.028652 
L 187.872598 -332.511075 
L 187.165853 -330.993498 
L 186.415969 -329.475921 
L 185.628806 -327.958344 
L 184.810438 -326.440767 
L 183.967079 -324.92319 
L 183.105016 -323.405612 
L 182.230533 -321.888035 
L 181.349843 -320.370458 
L 180.469014 -318.852881 
L 179.593898 -317.335304 
L 178.73006 -315.817727 
L 177.882712 -314.30015 
L 177.056649 -312.782573 
L 176.256188 -311.264995 
L 175.485116 -309.747418 
L 174.746644 -308.229841 
L 174.043368 -306.712264 
L 173.37724 -305.194687 
L 172.749551 -303.67711 
L 172.160923 -302.159533 
L 171.611311 -300.641955 
L 171.10002 -299.124378 
L 170.62573 -297.606801 
L 170.186539 -296.089224 
L 169.780005 -294.571647 
L 169.403213 -293.05407 
L 169.052833 -291.536493 
L 168.725205 -290.018916 
L 168.416411 -288.501338 
L 168.122365 -286.983761 
L 167.838898 -285.466184 
L 167.561845 -283.948607 
L 167.287132 -282.43103 
L 167.010854 -280.913453 
L 166.729359 -279.395876 
L 166.439309 -277.878298 
L 166.137748 -276.360721 
L 165.822152 -274.843144 
L 165.490468 -273.325567 
L 165.141147 -271.80799 
L 164.773158 -270.290413 
L 164.385996 -268.772836 
z
" id="m6bbfefaa2e" style="stroke:#3d3d3d;stroke-width:3;"/>
    </defs>
    <g clip-path="url(#p89d1c64906)">
     <use style="fill:#3a923a;stroke:#3d3d3d;stroke-width:3;" x="0" xlink:href="#m6bbfefaa2e" y="460.8"/>
    </g>
   </g>
   <g id="PolyCollection_3">
    <defs>
     <path d="M 267.179546 -325.112887 
L 258.68307 -325.112887 
L 257.911402 -326.25107 
L 257.100856 -327.389252 
L 256.253385 -328.527435 
L 255.37145 -329.665618 
L 254.457976 -330.803801 
L 253.516307 -331.941984 
L 252.55013 -333.080167 
L 251.563389 -334.21835 
L 250.560187 -335.356532 
L 249.544682 -336.494715 
L 248.520977 -337.632898 
L 247.493024 -338.771081 
L 246.464524 -339.909264 
L 245.438855 -341.047447 
L 244.419009 -342.18563 
L 243.407555 -343.323812 
L 242.406623 -344.461995 
L 241.417906 -345.600178 
L 240.44269 -346.738361 
L 239.481889 -347.876544 
L 238.536107 -349.014727 
L 237.605694 -350.152909 
L 236.690819 -351.291092 
L 235.791533 -352.429275 
L 234.907837 -353.567458 
L 234.039738 -354.705641 
L 233.1873 -355.843824 
L 232.350694 -356.982007 
L 231.530232 -358.120189 
L 230.726402 -359.258372 
L 229.939896 -360.396555 
L 229.171637 -361.534738 
L 228.422801 -362.672921 
L 227.694835 -363.811104 
L 226.989476 -364.949287 
L 226.308753 -366.087469 
L 225.65499 -367.225652 
L 225.030786 -368.363835 
L 224.438985 -369.502018 
L 223.882623 -370.640201 
L 223.364857 -371.778384 
L 222.888869 -372.916566 
L 222.457753 -374.054749 
L 222.07439 -375.192932 
L 221.741306 -376.331115 
L 221.460535 -377.469298 
L 221.233479 -378.607481 
L 221.060792 -379.745664 
L 220.942275 -380.883846 
L 220.876812 -382.022029 
L 220.862333 -383.160212 
L 220.895822 -384.298395 
L 220.973359 -385.436578 
L 221.090212 -386.574761 
L 221.240951 -387.712944 
L 221.419609 -388.851126 
L 221.619852 -389.989309 
L 221.835175 -391.127492 
L 222.059096 -392.265675 
L 222.285363 -393.403858 
L 222.508133 -394.542041 
L 222.722158 -395.680223 
L 222.922933 -396.818406 
L 223.106831 -397.956589 
L 223.271202 -399.094772 
L 223.414456 -400.232955 
L 223.536103 -401.371138 
L 223.636772 -402.509321 
L 223.718194 -403.647503 
L 223.783164 -404.785686 
L 223.835464 -405.923869 
L 223.87977 -407.062052 
L 223.921527 -408.200235 
L 223.966802 -409.338418 
L 224.022124 -410.476601 
L 224.094307 -411.614783 
L 224.190264 -412.752966 
L 224.31682 -413.891149 
L 224.480537 -415.029332 
L 224.687547 -416.167515 
L 224.943401 -417.305698 
L 225.252957 -418.44388 
L 225.620286 -419.582063 
L 226.04862 -420.720246 
L 226.540331 -421.858429 
L 227.096941 -422.996612 
L 227.719166 -424.134795 
L 228.406974 -425.272978 
L 229.159663 -426.41116 
L 229.975947 -427.549343 
L 230.854039 -428.687526 
L 231.791723 -429.825709 
L 232.786411 -430.963892 
L 233.835189 -432.102075 
L 234.93483 -433.240258 
L 236.081793 -434.37844 
L 237.27221 -435.516623 
L 238.501848 -436.654806 
L 239.766079 -437.792989 
L 267.179546 -437.792989 
L 267.179546 -437.792989 
L 267.179546 -436.654806 
L 267.179546 -435.516623 
L 267.179546 -434.37844 
L 267.179546 -433.240258 
L 267.179546 -432.102075 
L 267.179546 -430.963892 
L 267.179546 -429.825709 
L 267.179546 -428.687526 
L 267.179546 -427.549343 
L 267.179546 -426.41116 
L 267.179546 -425.272978 
L 267.179546 -424.134795 
L 267.179546 -422.996612 
L 267.179546 -421.858429 
L 267.179546 -420.720246 
L 267.179546 -419.582063 
L 267.179546 -418.44388 
L 267.179546 -417.305698 
L 267.179546 -416.167515 
L 267.179546 -415.029332 
L 267.179546 -413.891149 
L 267.179546 -412.752966 
L 267.179546 -411.614783 
L 267.179546 -410.476601 
L 267.179546 -409.338418 
L 267.179546 -408.200235 
L 267.179546 -407.062052 
L 267.179546 -405.923869 
L 267.179546 -404.785686 
L 267.179546 -403.647503 
L 267.179546 -402.509321 
L 267.179546 -401.371138 
L 267.179546 -400.232955 
L 267.179546 -399.094772 
L 267.179546 -397.956589 
L 267.179546 -396.818406 
L 267.179546 -395.680223 
L 267.179546 -394.542041 
L 267.179546 -393.403858 
L 267.179546 -392.265675 
L 267.179546 -391.127492 
L 267.179546 -389.989309 
L 267.179546 -388.851126 
L 267.179546 -387.712944 
L 267.179546 -386.574761 
L 267.179546 -385.436578 
L 267.179546 -384.298395 
L 267.179546 -383.160212 
L 267.179546 -382.022029 
L 267.179546 -380.883846 
L 267.179546 -379.745664 
L 267.179546 -378.607481 
L 267.179546 -377.469298 
L 267.179546 -376.331115 
L 267.179546 -375.192932 
L 267.179546 -374.054749 
L 267.179546 -372.916566 
L 267.179546 -371.778384 
L 267.179546 -370.640201 
L 267.179546 -369.502018 
L 267.179546 -368.363835 
L 267.179546 -367.225652 
L 267.179546 -366.087469 
L 267.179546 -364.949287 
L 267.179546 -363.811104 
L 267.179546 -362.672921 
L 267.179546 -361.534738 
L 267.179546 -360.396555 
L 267.179546 -359.258372 
L 267.179546 -358.120189 
L 267.179546 -356.982007 
L 267.179546 -355.843824 
L 267.179546 -354.705641 
L 267.179546 -353.567458 
L 267.179546 -352.429275 
L 267.179546 -351.291092 
L 267.179546 -350.152909 
L 267.179546 -349.014727 
L 267.179546 -347.876544 
L 267.179546 -346.738361 
L 267.179546 -345.600178 
L 267.179546 -344.461995 
L 267.179546 -343.323812 
L 267.179546 -342.18563 
L 267.179546 -341.047447 
L 267.179546 -339.909264 
L 267.179546 -338.771081 
L 267.179546 -337.632898 
L 267.179546 -336.494715 
L 267.179546 -335.356532 
L 267.179546 -334.21835 
L 267.179546 -333.080167 
L 267.179546 -331.941984 
L 267.179546 -330.803801 
L 267.179546 -329.665618 
L 267.179546 -328.527435 
L 267.179546 -327.389252 
L 267.179546 -326.25107 
L 267.179546 -325.112887 
z
" id="mdb99196361" style="stroke:#3d3d3d;stroke-width:3;"/>
    </defs>
    <g clip-path="url(#p89d1c64906)">
     <use style="fill:#e1812c;stroke:#3d3d3d;stroke-width:3;" x="0" xlink:href="#mdb99196361" y="460.8"/>
    </g>
   </g>
   <g id="PolyCollection_4">
    <defs>
     <path d="M 273.21126 -268.772836 
L 267.179546 -268.772836 
L 267.179546 -270.48011 
L 267.179546 -272.187384 
L 267.179546 -273.894659 
L 267.179546 -275.601933 
L 267.179546 -277.309207 
L 267.179546 -279.016481 
L 267.179546 -280.723756 
L 267.179546 -282.43103 
L 267.179546 -284.138304 
L 267.179546 -285.845578 
L 267.179546 -287.552853 
L 267.179546 -289.260127 
L 267.179546 -290.967401 
L 267.179546 -292.674676 
L 267.179546 -294.38195 
L 267.179546 -296.089224 
L 267.179546 -297.796498 
L 267.179546 -299.503773 
L 267.179546 -301.211047 
L 267.179546 -302.918321 
L 267.179546 -304.625595 
L 267.179546 -306.33287 
L 267.179546 -308.040144 
L 267.179546 -309.747418 
L 267.179546 -311.454693 
L 267.179546 -313.161967 
L 267.179546 -314.869241 
L 267.179546 -316.576515 
L 267.179546 -318.28379 
L 267.179546 -319.991064 
L 267.179546 -321.698338 
L 267.179546 -323.405612 
L 267.179546 -325.112887 
L 267.179546 -326.820161 
L 267.179546 -328.527435 
L 267.179546 -330.23471 
L 267.179546 -331.941984 
L 267.179546 -333.649258 
L 267.179546 -335.356532 
L 267.179546 -337.063807 
L 267.179546 -338.771081 
L 267.179546 -340.478355 
L 267.179546 -342.18563 
L 267.179546 -343.892904 
L 267.179546 -345.600178 
L 267.179546 -347.307452 
L 267.179546 -349.014727 
L 267.179546 -350.722001 
L 267.179546 -352.429275 
L 267.179546 -354.136549 
L 267.179546 -355.843824 
L 267.179546 -357.551098 
L 267.179546 -359.258372 
L 267.179546 -360.965647 
L 267.179546 -362.672921 
L 267.179546 -364.380195 
L 267.179546 -366.087469 
L 267.179546 -367.794744 
L 267.179546 -369.502018 
L 267.179546 -371.209292 
L 267.179546 -372.916566 
L 267.179546 -374.623841 
L 267.179546 -376.331115 
L 267.179546 -378.038389 
L 267.179546 -379.745664 
L 267.179546 -381.452938 
L 267.179546 -383.160212 
L 267.179546 -384.867486 
L 267.179546 -386.574761 
L 267.179546 -388.282035 
L 267.179546 -389.989309 
L 267.179546 -391.696584 
L 267.179546 -393.403858 
L 267.179546 -395.111132 
L 267.179546 -396.818406 
L 267.179546 -398.525681 
L 267.179546 -400.232955 
L 267.179546 -401.940229 
L 267.179546 -403.647503 
L 267.179546 -405.354778 
L 267.179546 -407.062052 
L 267.179546 -408.769326 
L 267.179546 -410.476601 
L 267.179546 -412.183875 
L 267.179546 -413.891149 
L 267.179546 -415.598423 
L 267.179546 -417.305698 
L 267.179546 -419.012972 
L 267.179546 -420.720246 
L 267.179546 -422.42752 
L 267.179546 -424.134795 
L 267.179546 -425.842069 
L 267.179546 -427.549343 
L 267.179546 -429.256618 
L 267.179546 -430.963892 
L 267.179546 -432.671166 
L 267.179546 -434.37844 
L 267.179546 -436.085715 
L 267.179546 -437.792989 
L 284.574884 -437.792989 
L 284.574884 -437.792989 
L 285.572051 -436.085715 
L 286.567806 -434.37844 
L 287.559858 -432.671166 
L 288.546406 -430.963892 
L 289.526142 -429.256618 
L 290.498227 -427.549343 
L 291.462246 -425.842069 
L 292.418146 -424.134795 
L 293.366154 -422.42752 
L 294.306678 -420.720246 
L 295.240208 -419.012972 
L 296.167194 -417.305698 
L 297.087933 -415.598423 
L 298.002459 -413.891149 
L 298.910427 -412.183875 
L 299.811024 -410.476601 
L 300.702886 -408.769326 
L 301.584032 -407.062052 
L 302.451829 -405.354778 
L 303.302973 -403.647503 
L 304.133501 -401.940229 
L 304.938826 -400.232955 
L 305.713798 -398.525681 
L 306.452793 -396.818406 
L 307.149818 -395.111132 
L 307.798638 -393.403858 
L 308.392911 -391.696584 
L 308.92634 -389.989309 
L 309.392817 -388.282035 
L 309.786573 -386.574761 
L 310.102313 -384.867486 
L 310.335346 -383.160212 
L 310.481686 -381.452938 
L 310.538142 -379.745664 
L 310.502381 -378.038389 
L 310.372962 -376.331115 
L 310.149354 -374.623841 
L 309.831925 -372.916566 
L 309.421907 -371.209292 
L 308.921351 -369.502018 
L 308.333062 -367.794744 
L 307.660523 -366.087469 
L 306.907816 -364.380195 
L 306.079542 -362.672921 
L 305.180739 -360.965647 
L 304.216805 -359.258372 
L 303.193436 -357.551098 
L 302.116562 -355.843824 
L 300.992304 -354.136549 
L 299.826931 -352.429275 
L 298.626831 -350.722001 
L 297.398491 -349.014727 
L 296.148475 -347.307452 
L 294.883414 -345.600178 
L 293.609989 -343.892904 
L 292.334914 -342.18563 
L 291.064916 -340.478355 
L 289.806708 -338.771081 
L 288.566951 -337.063807 
L 287.352212 -335.356532 
L 286.168906 -333.649258 
L 285.023239 -331.941984 
L 283.921135 -330.23471 
L 282.868157 -328.527435 
L 281.869427 -326.820161 
L 280.929541 -325.112887 
L 280.052489 -323.405612 
L 279.241569 -321.698338 
L 278.499319 -319.991064 
L 277.82745 -318.28379 
L 277.226795 -316.576515 
L 276.697274 -314.869241 
L 276.237872 -313.161967 
L 275.846644 -311.454693 
L 275.52073 -309.747418 
L 275.256402 -308.040144 
L 275.049127 -306.33287 
L 274.893649 -304.625595 
L 274.784091 -302.918321 
L 274.714077 -301.211047 
L 274.676866 -299.503773 
L 274.665487 -297.796498 
L 274.672897 -296.089224 
L 274.692124 -294.38195 
L 274.716415 -292.674676 
L 274.739375 -290.967401 
L 274.755097 -289.260127 
L 274.758268 -287.552853 
L 274.744267 -285.845578 
L 274.709232 -284.138304 
L 274.650112 -282.43103 
L 274.564692 -280.723756 
L 274.451595 -279.016481 
L 274.310262 -277.309207 
L 274.140911 -275.601933 
L 273.944481 -273.894659 
L 273.722556 -272.187384 
L 273.477279 -270.48011 
L 273.21126 -268.772836 
z
" id="m089f3673e9" style="stroke:#3d3d3d;stroke-width:3;"/>
    </defs>
    <g clip-path="url(#p89d1c64906)">
     <use style="fill:#3a923a;stroke:#3d3d3d;stroke-width:3;" x="0" xlink:href="#m089f3673e9" y="460.8"/>
    </g>
   </g>
   <g id="PolyCollection_5">
    <defs>
     <path d="M 382.972576 -325.112887 
L 378.65773 -325.112887 
L 378.42819 -326.25107 
L 378.188987 -327.389252 
L 377.937791 -328.527435 
L 377.671981 -329.665618 
L 377.388696 -330.803801 
L 377.084907 -331.941984 
L 376.757493 -333.080167 
L 376.403333 -334.21835 
L 376.01941 -335.356532 
L 375.602918 -336.494715 
L 375.15137 -337.632898 
L 374.662715 -338.771081 
L 374.135441 -339.909264 
L 373.568677 -341.047447 
L 372.962275 -342.18563 
L 372.31688 -343.323812 
L 371.633979 -344.461995 
L 370.915919 -345.600178 
L 370.165905 -346.738361 
L 369.387963 -347.876544 
L 368.586875 -349.014727 
L 367.768082 -350.152909 
L 366.937565 -351.291092 
L 366.101694 -352.429275 
L 365.267061 -353.567458 
L 364.440297 -354.705641 
L 363.627888 -355.843824 
L 362.835978 -356.982007 
L 362.070193 -358.120189 
L 361.335467 -359.258372 
L 360.635901 -360.396555 
L 359.974643 -361.534738 
L 359.353796 -362.672921 
L 358.774373 -363.811104 
L 358.236278 -364.949287 
L 357.738328 -366.087469 
L 357.278314 -367.225652 
L 356.853087 -368.363835 
L 356.458678 -369.502018 
L 356.090437 -370.640201 
L 355.743189 -371.778384 
L 355.411403 -372.916566 
L 355.089362 -374.054749 
L 354.771334 -375.192932 
L 354.451731 -376.331115 
L 354.125264 -377.469298 
L 353.787074 -378.607481 
L 353.432849 -379.745664 
L 353.058918 -380.883846 
L 352.662326 -382.022029 
L 352.240878 -383.160212 
L 351.793171 -384.298395 
L 351.318596 -385.436578 
L 350.817324 -386.574761 
L 350.290269 -387.712944 
L 349.739043 -388.851126 
L 349.165893 -389.989309 
L 348.573627 -391.127492 
L 347.965541 -392.265675 
L 347.345339 -393.403858 
L 346.717055 -394.542041 
L 346.084979 -395.680223 
L 345.453595 -396.818406 
L 344.827524 -397.956589 
L 344.211476 -399.094772 
L 343.610215 -400.232955 
L 343.028536 -401.371138 
L 342.471245 -402.509321 
L 341.943147 -403.647503 
L 341.449035 -404.785686 
L 340.993679 -405.923869 
L 340.58181 -407.062052 
L 340.218099 -408.200235 
L 339.907118 -409.338418 
L 339.653308 -410.476601 
L 339.460915 -411.614783 
L 339.333936 -412.752966 
L 339.276047 -413.891149 
L 339.290536 -415.029332 
L 339.380227 -416.167515 
L 339.547423 -417.305698 
L 339.793848 -418.44388 
L 340.120603 -419.582063 
L 340.52815 -420.720246 
L 341.016295 -421.858429 
L 341.584207 -422.996612 
L 342.230436 -424.134795 
L 342.952962 -425.272978 
L 343.74924 -426.41116 
L 344.616256 -427.549343 
L 345.550588 -428.687526 
L 346.548458 -429.825709 
L 347.605776 -430.963892 
L 348.718184 -432.102075 
L 349.881075 -433.240258 
L 351.089612 -434.37844 
L 352.338732 -435.516623 
L 353.623145 -436.654806 
L 354.937326 -437.792989 
L 382.972576 -437.792989 
L 382.972576 -437.792989 
L 382.972576 -436.654806 
L 382.972576 -435.516623 
L 382.972576 -434.37844 
L 382.972576 -433.240258 
L 382.972576 -432.102075 
L 382.972576 -430.963892 
L 382.972576 -429.825709 
L 382.972576 -428.687526 
L 382.972576 -427.549343 
L 382.972576 -426.41116 
L 382.972576 -425.272978 
L 382.972576 -424.134795 
L 382.972576 -422.996612 
L 382.972576 -421.858429 
L 382.972576 -420.720246 
L 382.972576 -419.582063 
L 382.972576 -418.44388 
L 382.972576 -417.305698 
L 382.972576 -416.167515 
L 382.972576 -415.029332 
L 382.972576 -413.891149 
L 382.972576 -412.752966 
L 382.972576 -411.614783 
L 382.972576 -410.476601 
L 382.972576 -409.338418 
L 382.972576 -408.200235 
L 382.972576 -407.062052 
L 382.972576 -405.923869 
L 382.972576 -404.785686 
L 382.972576 -403.647503 
L 382.972576 -402.509321 
L 382.972576 -401.371138 
L 382.972576 -400.232955 
L 382.972576 -399.094772 
L 382.972576 -397.956589 
L 382.972576 -396.818406 
L 382.972576 -395.680223 
L 382.972576 -394.542041 
L 382.972576 -393.403858 
L 382.972576 -392.265675 
L 382.972576 -391.127492 
L 382.972576 -389.989309 
L 382.972576 -388.851126 
L 382.972576 -387.712944 
L 382.972576 -386.574761 
L 382.972576 -385.436578 
L 382.972576 -384.298395 
L 382.972576 -383.160212 
L 382.972576 -382.022029 
L 382.972576 -380.883846 
L 382.972576 -379.745664 
L 382.972576 -378.607481 
L 382.972576 -377.469298 
L 382.972576 -376.331115 
L 382.972576 -375.192932 
L 382.972576 -374.054749 
L 382.972576 -372.916566 
L 382.972576 -371.778384 
L 382.972576 -370.640201 
L 382.972576 -369.502018 
L 382.972576 -368.363835 
L 382.972576 -367.225652 
L 382.972576 -366.087469 
L 382.972576 -364.949287 
L 382.972576 -363.811104 
L 382.972576 -362.672921 
L 382.972576 -361.534738 
L 382.972576 -360.396555 
L 382.972576 -359.258372 
L 382.972576 -358.120189 
L 382.972576 -356.982007 
L 382.972576 -355.843824 
L 382.972576 -354.705641 
L 382.972576 -353.567458 
L 382.972576 -352.429275 
L 382.972576 -351.291092 
L 382.972576 -350.152909 
L 382.972576 -349.014727 
L 382.972576 -347.876544 
L 382.972576 -346.738361 
L 382.972576 -345.600178 
L 382.972576 -344.461995 
L 382.972576 -343.323812 
L 382.972576 -342.18563 
L 382.972576 -341.047447 
L 382.972576 -339.909264 
L 382.972576 -338.771081 
L 382.972576 -337.632898 
L 382.972576 -336.494715 
L 382.972576 -335.356532 
L 382.972576 -334.21835 
L 382.972576 -333.080167 
L 382.972576 -331.941984 
L 382.972576 -330.803801 
L 382.972576 -329.665618 
L 382.972576 -328.527435 
L 382.972576 -327.389252 
L 382.972576 -326.25107 
L 382.972576 -325.112887 
z
" id="m9181927d6f" style="stroke:#3d3d3d;stroke-width:3;"/>
    </defs>
    <g clip-path="url(#p89d1c64906)">
     <use style="fill:#e1812c;stroke:#3d3d3d;stroke-width:3;" x="0" xlink:href="#m9181927d6f" y="460.8"/>
    </g>
   </g>
   <g id="PolyCollection_6">
    <defs>
     <path d="M 387.354009 -306.33287 
L 382.972576 -306.33287 
L 382.972576 -307.66075 
L 382.972576 -308.98863 
L 382.972576 -310.31651 
L 382.972576 -311.64439 
L 382.972576 -312.97227 
L 382.972576 -314.30015 
L 382.972576 -315.62803 
L 382.972576 -316.95591 
L 382.972576 -318.28379 
L 382.972576 -319.61167 
L 382.972576 -320.93955 
L 382.972576 -322.26743 
L 382.972576 -323.59531 
L 382.972576 -324.92319 
L 382.972576 -326.25107 
L 382.972576 -327.57895 
L 382.972576 -328.90683 
L 382.972576 -330.23471 
L 382.972576 -331.56259 
L 382.972576 -332.89047 
L 382.972576 -334.21835 
L 382.972576 -335.54623 
L 382.972576 -336.87411 
L 382.972576 -338.20199 
L 382.972576 -339.52987 
L 382.972576 -340.85775 
L 382.972576 -342.18563 
L 382.972576 -343.51351 
L 382.972576 -344.84139 
L 382.972576 -346.169269 
L 382.972576 -347.497149 
L 382.972576 -348.825029 
L 382.972576 -350.152909 
L 382.972576 -351.480789 
L 382.972576 -352.808669 
L 382.972576 -354.136549 
L 382.972576 -355.464429 
L 382.972576 -356.792309 
L 382.972576 -358.120189 
L 382.972576 -359.448069 
L 382.972576 -360.775949 
L 382.972576 -362.103829 
L 382.972576 -363.431709 
L 382.972576 -364.759589 
L 382.972576 -366.087469 
L 382.972576 -367.415349 
L 382.972576 -368.743229 
L 382.972576 -370.071109 
L 382.972576 -371.398989 
L 382.972576 -372.726869 
L 382.972576 -374.054749 
L 382.972576 -375.382629 
L 382.972576 -376.710509 
L 382.972576 -378.038389 
L 382.972576 -379.366269 
L 382.972576 -380.694149 
L 382.972576 -382.022029 
L 382.972576 -383.349909 
L 382.972576 -384.677789 
L 382.972576 -386.005669 
L 382.972576 -387.333549 
L 382.972576 -388.661429 
L 382.972576 -389.989309 
L 382.972576 -391.317189 
L 382.972576 -392.645069 
L 382.972576 -393.972949 
L 382.972576 -395.300829 
L 382.972576 -396.628709 
L 382.972576 -397.956589 
L 382.972576 -399.284469 
L 382.972576 -400.612349 
L 382.972576 -401.940229 
L 382.972576 -403.268109 
L 382.972576 -404.595989 
L 382.972576 -405.923869 
L 382.972576 -407.251749 
L 382.972576 -408.579629 
L 382.972576 -409.907509 
L 382.972576 -411.235389 
L 382.972576 -412.563269 
L 382.972576 -413.891149 
L 382.972576 -415.219029 
L 382.972576 -416.546909 
L 382.972576 -417.874789 
L 382.972576 -419.202669 
L 382.972576 -420.530549 
L 382.972576 -421.858429 
L 382.972576 -423.186309 
L 382.972576 -424.514189 
L 382.972576 -425.842069 
L 382.972576 -427.169949 
L 382.972576 -428.497829 
L 382.972576 -429.825709 
L 382.972576 -431.153589 
L 382.972576 -432.481469 
L 382.972576 -433.809349 
L 382.972576 -435.137229 
L 382.972576 -436.465109 
L 382.972576 -437.792989 
L 398.539105 -437.792989 
L 398.539105 -437.792989 
L 399.308925 -436.465109 
L 400.068799 -435.137229 
L 400.816983 -433.809349 
L 401.552242 -432.481469 
L 402.273888 -431.153589 
L 402.981805 -429.825709 
L 403.676471 -428.497829 
L 404.35896 -427.169949 
L 405.030942 -425.842069 
L 405.694652 -424.514189 
L 406.352867 -423.186309 
L 407.008842 -421.858429 
L 407.666248 -420.530549 
L 408.329078 -419.202669 
L 409.001543 -417.874789 
L 409.687945 -416.546909 
L 410.392534 -415.219029 
L 411.119348 -413.891149 
L 411.872044 -412.563269 
L 412.653717 -411.235389 
L 413.46672 -409.907509 
L 414.312484 -408.579629 
L 415.191349 -407.251749 
L 416.102413 -405.923869 
L 417.043403 -404.595989 
L 418.010584 -403.268109 
L 418.998697 -401.940229 
L 420.000955 -400.612349 
L 421.009075 -399.284469 
L 422.013373 -397.956589 
L 423.002901 -396.628709 
L 423.96565 -395.300829 
L 424.888782 -393.972949 
L 425.758919 -392.645069 
L 426.562459 -391.317189 
L 427.28591 -389.989309 
L 427.916245 -388.661429 
L 428.441247 -387.333549 
L 428.849842 -386.005669 
L 429.132409 -384.677789 
L 429.281046 -383.349909 
L 429.289788 -382.022029 
L 429.154769 -380.694149 
L 428.87432 -379.366269 
L 428.449003 -378.038389 
L 427.881573 -376.710509 
L 427.176887 -375.382629 
L 426.341747 -374.054749 
L 425.384694 -372.726869 
L 424.315763 -371.398989 
L 423.146211 -370.071109 
L 421.888221 -368.743229 
L 420.554603 -367.415349 
L 419.158498 -366.087469 
L 417.713098 -364.759589 
L 416.231388 -363.431709 
L 414.725919 -362.103829 
L 413.20861 -360.775949 
L 411.690603 -359.448069 
L 410.182139 -358.120189 
L 408.692483 -356.792309 
L 407.229887 -355.464429 
L 405.801578 -354.136549 
L 404.413783 -352.808669 
L 403.071766 -351.480789 
L 401.779898 -350.152909 
L 400.541726 -348.825029 
L 399.360053 -347.497149 
L 398.237025 -346.169269 
L 397.174209 -344.84139 
L 396.172672 -343.51351 
L 395.233042 -342.18563 
L 394.355568 -340.85775 
L 393.540164 -339.52987 
L 392.786439 -338.20199 
L 392.09372 -336.87411 
L 391.46106 -335.54623 
L 390.88724 -334.21835 
L 390.370759 -332.89047 
L 389.909829 -331.56259 
L 389.502357 -330.23471 
L 389.145938 -328.90683 
L 388.837841 -327.57895 
L 388.575016 -326.25107 
L 388.354092 -324.92319 
L 388.171398 -323.59531 
L 388.022991 -322.26743 
L 387.904695 -320.93955 
L 387.812149 -319.61167 
L 387.740872 -318.28379 
L 387.68633 -316.95591 
L 387.644016 -315.62803 
L 387.609529 -314.30015 
L 387.578657 -312.97227 
L 387.547457 -311.64439 
L 387.512334 -310.31651 
L 387.470107 -308.98863 
L 387.418064 -307.66075 
L 387.354009 -306.33287 
z
" id="maf84da1b43" style="stroke:#3d3d3d;stroke-width:3;"/>
    </defs>
    <g clip-path="url(#p89d1c64906)">
     <use style="fill:#3a923a;stroke:#3d3d3d;stroke-width:3;" x="0" xlink:href="#maf84da1b43" y="460.8"/>
    </g>
   </g>
   <g id="PolyCollection_7">
    <defs>
     <path d="M 498.765607 -231.212802 
L 498.429567 -231.212802 
L 498.436808 -233.29947 
L 498.457606 -235.386139 
L 498.489388 -237.472807 
L 498.528449 -239.559476 
L 498.570662 -241.646144 
L 498.612181 -243.732813 
L 498.649979 -245.819482 
L 498.682118 -247.90615 
L 498.707755 -249.992819 
L 498.726932 -252.079487 
L 498.740249 -254.166156 
L 498.748511 -256.252824 
L 498.752432 -258.339493 
L 498.752421 -260.426161 
L 498.748468 -262.51283 
L 498.740139 -264.599499 
L 498.726674 -266.686167 
L 498.707176 -268.772836 
L 498.680876 -270.859504 
L 498.647429 -272.946173 
L 498.607167 -275.032841 
L 498.561218 -277.11951 
L 498.511411 -279.206178 
L 498.459929 -281.292847 
L 498.408774 -283.379516 
L 498.359149 -285.466184 
L 498.31097 -287.552853 
L 498.262644 -289.639521 
L 498.211182 -291.72619 
L 498.152556 -293.812858 
L 498.082077 -295.899527 
L 497.994551 -297.986196 
L 497.88408 -300.072864 
L 497.743637 -302.159533 
L 497.564772 -304.246201 
L 497.337985 -306.33287 
L 497.054133 -308.419538 
L 496.706831 -310.506207 
L 496.295223 -312.592875 
L 495.825985 -314.679544 
L 495.313339 -316.766213 
L 494.776356 -318.852881 
L 494.233859 -320.93955 
L 493.698492 -323.026218 
L 493.1723 -325.112887 
L 492.646146 -327.199555 
L 492.10406 -329.286224 
L 491.531672 -331.372892 
L 490.92583 -333.459561 
L 490.301476 -335.54623 
L 489.692308 -337.632898 
L 489.143958 -339.719567 
L 488.70134 -341.806235 
L 488.394488 -343.892904 
L 488.228146 -345.979572 
L 488.179142 -348.066241 
L 488.202557 -350.152909 
L 488.244106 -352.239578 
L 488.253641 -354.326247 
L 488.194421 -356.412915 
L 488.044966 -358.499584 
L 487.793945 -360.586252 
L 487.431891 -362.672921 
L 486.945048 -364.759589 
L 486.315372 -366.846258 
L 485.52728 -368.932926 
L 484.577718 -371.019595 
L 483.483578 -373.106264 
L 482.280982 -375.192932 
L 481.014518 -377.279601 
L 479.719706 -379.366269 
L 478.40638 -381.452938 
L 477.051709 -383.539606 
L 475.608378 -385.626275 
L 474.026818 -387.712944 
L 472.283209 -389.799612 
L 470.400777 -391.886281 
L 468.453168 -393.972949 
L 466.545584 -396.059618 
L 464.7793 -398.146286 
L 463.213708 -400.232955 
L 461.842918 -402.319623 
L 460.599083 -404.406292 
L 459.38362 -406.492961 
L 458.114801 -408.579629 
L 456.771762 -410.666298 
L 455.415037 -412.752966 
L 454.172896 -414.839635 
L 453.197481 -416.926303 
L 452.608459 -419.012972 
L 452.448394 -421.09964 
L 452.669953 -423.186309 
L 453.161827 -425.272978 
L 453.803628 -427.359646 
L 454.527181 -429.446315 
L 455.358397 -431.532983 
L 456.42156 -433.619652 
L 457.903039 -435.70632 
L 459.9875 -437.792989 
L 498.765607 -437.792989 
L 498.765607 -437.792989 
L 498.765607 -435.70632 
L 498.765607 -433.619652 
L 498.765607 -431.532983 
L 498.765607 -429.446315 
L 498.765607 -427.359646 
L 498.765607 -425.272978 
L 498.765607 -423.186309 
L 498.765607 -421.09964 
L 498.765607 -419.012972 
L 498.765607 -416.926303 
L 498.765607 -414.839635 
L 498.765607 -412.752966 
L 498.765607 -410.666298 
L 498.765607 -408.579629 
L 498.765607 -406.492961 
L 498.765607 -404.406292 
L 498.765607 -402.319623 
L 498.765607 -400.232955 
L 498.765607 -398.146286 
L 498.765607 -396.059618 
L 498.765607 -393.972949 
L 498.765607 -391.886281 
L 498.765607 -389.799612 
L 498.765607 -387.712944 
L 498.765607 -385.626275 
L 498.765607 -383.539606 
L 498.765607 -381.452938 
L 498.765607 -379.366269 
L 498.765607 -377.279601 
L 498.765607 -375.192932 
L 498.765607 -373.106264 
L 498.765607 -371.019595 
L 498.765607 -368.932926 
L 498.765607 -366.846258 
L 498.765607 -364.759589 
L 498.765607 -362.672921 
L 498.765607 -360.586252 
L 498.765607 -358.499584 
L 498.765607 -356.412915 
L 498.765607 -354.326247 
L 498.765607 -352.239578 
L 498.765607 -350.152909 
L 498.765607 -348.066241 
L 498.765607 -345.979572 
L 498.765607 -343.892904 
L 498.765607 -341.806235 
L 498.765607 -339.719567 
L 498.765607 -337.632898 
L 498.765607 -335.54623 
L 498.765607 -333.459561 
L 498.765607 -331.372892 
L 498.765607 -329.286224 
L 498.765607 -327.199555 
L 498.765607 -325.112887 
L 498.765607 -323.026218 
L 498.765607 -320.93955 
L 498.765607 -318.852881 
L 498.765607 -316.766213 
L 498.765607 -314.679544 
L 498.765607 -312.592875 
L 498.765607 -310.506207 
L 498.765607 -308.419538 
L 498.765607 -306.33287 
L 498.765607 -304.246201 
L 498.765607 -302.159533 
L 498.765607 -300.072864 
L 498.765607 -297.986196 
L 498.765607 -295.899527 
L 498.765607 -293.812858 
L 498.765607 -291.72619 
L 498.765607 -289.639521 
L 498.765607 -287.552853 
L 498.765607 -285.466184 
L 498.765607 -283.379516 
L 498.765607 -281.292847 
L 498.765607 -279.206178 
L 498.765607 -277.11951 
L 498.765607 -275.032841 
L 498.765607 -272.946173 
L 498.765607 -270.859504 
L 498.765607 -268.772836 
L 498.765607 -266.686167 
L 498.765607 -264.599499 
L 498.765607 -262.51283 
L 498.765607 -260.426161 
L 498.765607 -258.339493 
L 498.765607 -256.252824 
L 498.765607 -254.166156 
L 498.765607 -252.079487 
L 498.765607 -249.992819 
L 498.765607 -247.90615 
L 498.765607 -245.819482 
L 498.765607 -243.732813 
L 498.765607 -241.646144 
L 498.765607 -239.559476 
L 498.765607 -237.472807 
L 498.765607 -235.386139 
L 498.765607 -233.29947 
L 498.765607 -231.212802 
z
" id="mde082ea325" style="stroke:#3d3d3d;stroke-width:3;"/>
    </defs>
    <g clip-path="url(#p89d1c64906)">
     <use style="fill:#e1812c;stroke:#3d3d3d;stroke-width:3;" x="0" xlink:href="#mde082ea325" y="460.8"/>
    </g>
   </g>
   <g id="PolyCollection_8">
    <defs>
     <path d="M 499.379673 -193.652768 
L 498.765607 -193.652768 
L 498.765607 -196.11883 
L 498.765607 -198.584893 
L 498.765607 -201.050956 
L 498.765607 -203.517019 
L 498.765607 -205.983082 
L 498.765607 -208.449145 
L 498.765607 -210.915207 
L 498.765607 -213.38127 
L 498.765607 -215.847333 
L 498.765607 -218.313396 
L 498.765607 -220.779459 
L 498.765607 -223.245522 
L 498.765607 -225.711585 
L 498.765607 -228.177647 
L 498.765607 -230.64371 
L 498.765607 -233.109773 
L 498.765607 -235.575836 
L 498.765607 -238.041899 
L 498.765607 -240.507962 
L 498.765607 -242.974024 
L 498.765607 -245.440087 
L 498.765607 -247.90615 
L 498.765607 -250.372213 
L 498.765607 -252.838276 
L 498.765607 -255.304339 
L 498.765607 -257.770401 
L 498.765607 -260.236464 
L 498.765607 -262.702527 
L 498.765607 -265.16859 
L 498.765607 -267.634653 
L 498.765607 -270.100716 
L 498.765607 -272.566779 
L 498.765607 -275.032841 
L 498.765607 -277.498904 
L 498.765607 -279.964967 
L 498.765607 -282.43103 
L 498.765607 -284.897093 
L 498.765607 -287.363156 
L 498.765607 -289.829218 
L 498.765607 -292.295281 
L 498.765607 -294.761344 
L 498.765607 -297.227407 
L 498.765607 -299.69347 
L 498.765607 -302.159533 
L 498.765607 -304.625595 
L 498.765607 -307.091658 
L 498.765607 -309.557721 
L 498.765607 -312.023784 
L 498.765607 -314.489847 
L 498.765607 -316.95591 
L 498.765607 -319.421973 
L 498.765607 -321.888035 
L 498.765607 -324.354098 
L 498.765607 -326.820161 
L 498.765607 -329.286224 
L 498.765607 -331.752287 
L 498.765607 -334.21835 
L 498.765607 -336.684412 
L 498.765607 -339.150475 
L 498.765607 -341.616538 
L 498.765607 -344.082601 
L 498.765607 -346.548664 
L 498.765607 -349.014727 
L 498.765607 -351.480789 
L 498.765607 -353.946852 
L 498.765607 -356.412915 
L 498.765607 -358.878978 
L 498.765607 -361.345041 
L 498.765607 -363.811104 
L 498.765607 -366.277167 
L 498.765607 -368.743229 
L 498.765607 -371.209292 
L 498.765607 -373.675355 
L 498.765607 -376.141418 
L 498.765607 -378.607481 
L 498.765607 -381.073544 
L 498.765607 -383.539606 
L 498.765607 -386.005669 
L 498.765607 -388.471732 
L 498.765607 -390.937795 
L 498.765607 -393.403858 
L 498.765607 -395.869921 
L 498.765607 -398.335983 
L 498.765607 -400.802046 
L 498.765607 -403.268109 
L 498.765607 -405.734172 
L 498.765607 -408.200235 
L 498.765607 -410.666298 
L 498.765607 -413.132361 
L 498.765607 -415.598423 
L 498.765607 -418.064486 
L 498.765607 -420.530549 
L 498.765607 -422.996612 
L 498.765607 -425.462675 
L 498.765607 -427.928738 
L 498.765607 -430.3948 
L 498.765607 -432.860863 
L 498.765607 -435.326926 
L 498.765607 -437.792989 
L 514.53917 -437.792989 
L 514.53917 -437.792989 
L 516.160895 -435.326926 
L 517.801347 -432.860863 
L 519.440549 -430.3948 
L 521.057255 -427.928738 
L 522.629259 -425.462675 
L 524.133748 -422.996612 
L 525.547717 -420.530549 
L 526.848443 -418.064486 
L 528.014028 -415.598423 
L 529.023992 -413.132361 
L 529.859911 -410.666298 
L 530.506062 -408.200235 
L 530.950048 -405.734172 
L 531.18336 -403.268109 
L 531.201842 -400.802046 
L 531.006011 -398.335983 
L 530.601217 -395.869921 
L 529.997615 -393.403858 
L 529.209947 -390.937795 
L 528.257134 -388.471732 
L 527.16171 -386.005669 
L 525.949112 -383.539606 
L 524.646871 -381.073544 
L 523.28373 -378.607481 
L 521.888744 -376.141418 
L 520.490387 -373.675355 
L 519.115702 -371.209292 
L 517.789534 -368.743229 
L 516.533859 -366.277167 
L 515.367236 -363.811104 
L 514.304402 -361.345041 
L 513.356003 -358.878978 
L 512.52849 -356.412915 
L 511.824148 -353.946852 
L 511.241274 -351.480789 
L 510.774484 -349.014727 
L 510.415131 -346.548664 
L 510.151812 -344.082601 
L 509.97096 -341.616538 
L 509.857471 -339.150475 
L 509.795369 -336.684412 
L 509.768463 -334.21835 
L 509.760982 -331.752287 
L 509.758164 -329.286224 
L 509.746765 -326.820161 
L 509.715487 -324.354098 
L 509.655291 -321.888035 
L 509.559599 -319.421973 
L 509.424368 -316.95591 
L 509.248048 -314.489847 
L 509.031422 -312.023784 
L 508.777346 -309.557721 
L 508.490402 -307.091658 
L 508.176487 -304.625595 
L 507.842358 -302.159533 
L 507.495161 -299.69347 
L 507.141972 -297.227407 
L 506.789365 -294.761344 
L 506.443047 -292.295281 
L 506.107569 -289.829218 
L 505.786134 -287.363156 
L 505.480508 -284.897093 
L 505.191044 -282.43103 
L 504.916804 -279.964967 
L 504.655767 -277.498904 
L 504.405112 -275.032841 
L 504.161533 -272.566779 
L 503.921576 -270.100716 
L 503.681956 -267.634653 
L 503.439844 -265.16859 
L 503.193091 -262.702527 
L 502.940387 -260.236464 
L 502.68134 -257.770401 
L 502.416492 -255.304339 
L 502.147258 -252.838276 
L 501.875815 -250.372213 
L 501.604946 -247.90615 
L 501.337863 -245.440087 
L 501.078009 -242.974024 
L 500.828862 -240.507962 
L 500.593751 -238.041899 
L 500.375684 -235.575836 
L 500.177207 -233.109773 
L 500.000289 -230.64371 
L 499.846239 -228.177647 
L 499.715651 -225.711585 
L 499.608394 -223.245522 
L 499.523621 -220.779459 
L 499.459823 -218.313396 
L 499.4149 -215.847333 
L 499.386263 -213.38127 
L 499.370962 -210.915207 
L 499.365824 -208.449145 
L 499.367602 -205.983082 
L 499.373126 -203.517019 
L 499.37945 -201.050956 
L 499.383982 -198.584893 
L 499.384589 -196.11883 
L 499.379673 -193.652768 
z
" id="mec5a333c82" style="stroke:#3d3d3d;stroke-width:3;"/>
    </defs>
    <g clip-path="url(#p89d1c64906)">
     <use style="fill:#3a923a;stroke:#3d3d3d;stroke-width:3;" x="0" xlink:href="#mec5a333c82" y="460.8"/>
    </g>
   </g>
   <g id="patch_3">
    <path clip-path="url(#p89d1c64906)" d="M 151.386515 586.407522 
L 151.386515 586.407522 
L 151.386515 586.407522 
L 151.386515 586.407522 
z
" style="fill:#e1812c;stroke:#3d3d3d;stroke-linejoin:miter;stroke-width:1.5;"/>
   </g>
   <g id="patch_4">
    <path clip-path="url(#p89d1c64906)" d="M 151.386515 586.407522 
L 151.386515 586.407522 
L 151.386515 586.407522 
L 151.386515 586.407522 
z
" style="fill:#3a923a;stroke:#3d3d3d;stroke-linejoin:miter;stroke-width:1.5;"/>
   </g>
   <g id="matplotlib.axis_1">
    <g id="xtick_1">
     <g id="line2d_1">
      <defs>
       <path d="M 0 0 
L 0 3.5 
" id="m2f1e8fe434" style="stroke:#000000;stroke-width:0.8;"/>
      </defs>
      <g>
       <use style="stroke:#000000;stroke-width:0.8;" x="151.386515" xlink:href="#m2f1e8fe434" y="279.354243"/>
      </g>
     </g>
     <g id="text_1">
      <text style="font-family:DejaVu Sans;font-size:32px;font-stretch:normal;font-style:normal;font-weight:normal;" transform="translate(93.732564 303.547545)rotate(-315)">&lt;2 years</text>
     </g>
    </g>
    <g id="xtick_2">
     <g id="line2d_2">
      <g>
       <use style="stroke:#000000;stroke-width:0.8;" x="267.179546" xlink:href="#m2f1e8fe434" y="279.354243"/>
      </g>
     </g>
     <g id="text_2">
      <text style="font-family:DejaVu Sans;font-size:32px;font-stretch:normal;font-style:normal;font-weight:normal;" transform="translate(209.525594 303.547545)rotate(-315)">&lt;4 years</text>
     </g>
    </g>
    <g id="xtick_3">
     <g id="line2d_3">
      <g>
       <use style="stroke:#000000;stroke-width:0.8;" x="382.972576" xlink:href="#m2f1e8fe434" y="279.354243"/>
      </g>
     </g>
     <g id="text_3">
      <text style="font-family:DejaVu Sans;font-size:32px;font-stretch:normal;font-style:normal;font-weight:normal;" transform="translate(325.318625 303.547545)rotate(-315)">≥4 years</text>
     </g>
    </g>
    <g id="xtick_4">
     <g id="line2d_4">
      <g>
       <use style="stroke:#000000;stroke-width:0.8;" x="498.765607" xlink:href="#m2f1e8fe434" y="279.354243"/>
      </g>
     </g>
     <g id="text_4">
      <text style="font-family:DejaVu Sans;font-size:32px;font-stretch:normal;font-style:normal;font-weight:normal;" transform="translate(439.133524 303.547545)rotate(-315)">Censored</text>
     </g>
    </g>
    <g id="text_5">
     <text style="font-family:DejaVu Sans;font-size:32px;font-stretch:normal;font-style:normal;font-weight:normal;text-anchor:middle;" transform="rotate(-0, 325.076061, 443.345)" x="325.076061" y="443.345">Years since diagnosis</text>
    </g>
   </g>
   <g id="matplotlib.axis_2">
    <g id="ytick_1">
     <g id="line2d_5">
      <defs>
       <path d="M 0 0 
L -3.5 0 
" id="m5e307fe7a1" style="stroke:#000000;stroke-width:0.8;"/>
      </defs>
      <g>
       <use style="stroke:#000000;stroke-width:0.8;" x="93.49" xlink:href="#m5e307fe7a1" y="210.807181"/>
      </g>
     </g>
     <g id="text_6">
      <text style="font-family:DejaVu Sans;font-size:32px;font-stretch:normal;font-style:normal;font-weight:normal;text-anchor:end;" transform="rotate(-0, 86.49, 222.964681)" x="86.49" y="222.964681">20</text>
     </g>
    </g>
    <g id="ytick_2">
     <g id="line2d_6">
      <g>
       <use style="stroke:#000000;stroke-width:0.8;" x="93.49" xlink:href="#m5e307fe7a1" y="116.907096"/>
      </g>
     </g>
     <g id="text_7">
      <text style="font-family:DejaVu Sans;font-size:32px;font-stretch:normal;font-style:normal;font-weight:normal;text-anchor:end;" transform="rotate(-0, 86.49, 129.064596)" x="86.49" y="129.064596">25</text>
     </g>
    </g>
    <g id="ytick_3">
     <g id="line2d_7">
      <g>
       <use style="stroke:#000000;stroke-width:0.8;" x="93.49" xlink:href="#m5e307fe7a1" y="23.007011"/>
      </g>
     </g>
     <g id="text_8">
      <text style="font-family:DejaVu Sans;font-size:32px;font-stretch:normal;font-style:normal;font-weight:normal;text-anchor:end;" transform="rotate(-0, 86.49, 35.164511)" x="86.49" y="35.164511">30</text>
     </g>
    </g>
    <g id="text_9">
     <text style="font-family:DejaVu Sans;font-size:32px;font-stretch:normal;font-style:normal;font-weight:normal;text-anchor:middle;" transform="rotate(-90, 35.115, 145.077122)" x="35.115" y="145.077122">MMSE</text>
    </g>
   </g>
   <g id="line2d_8">
    <path clip-path="url(#p89d1c64906)" d="M 108.478809 116.907096 
L 151.386515 116.907096 
" style="fill:none;stroke:#3d3d3d;stroke-dasharray:13.5,13.5;stroke-dashoffset:0;stroke-width:3;"/>
   </g>
   <g id="line2d_9">
    <path clip-path="url(#p89d1c64906)" d="M 106.571649 98.127079 
L 151.386515 98.127079 
" style="fill:none;stroke:#3d3d3d;stroke-dasharray:27,27;stroke-dashoffset:0;stroke-width:3;"/>
   </g>
   <g id="line2d_10">
    <path clip-path="url(#p89d1c64906)" d="M 117.389673 60.567045 
L 151.386515 60.567045 
" style="fill:none;stroke:#3d3d3d;stroke-dasharray:13.5,13.5;stroke-dashoffset:0;stroke-width:3;"/>
   </g>
   <g id="line2d_11">
    <path clip-path="url(#p89d1c64906)" d="M 151.386515 135.687113 
L 183.641274 135.687113 
" style="fill:none;stroke:#3d3d3d;stroke-dasharray:13.5,13.5;stroke-dashoffset:0;stroke-width:3;"/>
   </g>
   <g id="line2d_12">
    <path clip-path="url(#p89d1c64906)" d="M 151.386515 116.907096 
L 190.796196 116.907096 
" style="fill:none;stroke:#3d3d3d;stroke-dasharray:27,27;stroke-dashoffset:0;stroke-width:3;"/>
   </g>
   <g id="line2d_13">
    <path clip-path="url(#p89d1c64906)" d="M 151.386515 60.567045 
L 177.140104 60.567045 
" style="fill:none;stroke:#3d3d3d;stroke-dasharray:13.5,13.5;stroke-dashoffset:0;stroke-width:3;"/>
   </g>
   <g id="line2d_14">
    <path clip-path="url(#p89d1c64906)" d="M 228.810368 98.127079 
L 267.179546 98.127079 
" style="fill:none;stroke:#3d3d3d;stroke-dasharray:13.5,13.5;stroke-dashoffset:0;stroke-width:3;"/>
   </g>
   <g id="line2d_15">
    <path clip-path="url(#p89d1c64906)" d="M 221.404647 79.347062 
L 267.179546 79.347062 
" style="fill:none;stroke:#3d3d3d;stroke-dasharray:27,27;stroke-dashoffset:0;stroke-width:3;"/>
   </g>
   <g id="line2d_16">
    <path clip-path="url(#p89d1c64906)" d="M 225.672223 41.787028 
L 267.179546 41.787028 
" style="fill:none;stroke:#3d3d3d;stroke-dasharray:13.5,13.5;stroke-dashoffset:0;stroke-width:3;"/>
   </g>
   <g id="line2d_17">
    <path clip-path="url(#p89d1c64906)" d="M 267.179546 98.127079 
L 305.690542 98.127079 
" style="fill:none;stroke:#3d3d3d;stroke-dasharray:13.5,13.5;stroke-dashoffset:0;stroke-width:3;"/>
   </g>
   <g id="line2d_18">
    <path clip-path="url(#p89d1c64906)" d="M 267.179546 79.347062 
L 310.048665 79.347062 
" style="fill:none;stroke:#3d3d3d;stroke-dasharray:27,27;stroke-dashoffset:0;stroke-width:3;"/>
   </g>
   <g id="line2d_19">
    <path clip-path="url(#p89d1c64906)" d="M 267.179546 60.567045 
L 304.561233 60.567045 
" style="fill:none;stroke:#3d3d3d;stroke-dasharray:13.5,13.5;stroke-dashoffset:0;stroke-width:3;"/>
   </g>
   <g id="line2d_20">
    <path clip-path="url(#p89d1c64906)" d="M 353.358055 79.347062 
L 382.972576 79.347062 
" style="fill:none;stroke:#3d3d3d;stroke-dasharray:13.5,13.5;stroke-dashoffset:0;stroke-width:3;"/>
   </g>
   <g id="line2d_21">
    <path clip-path="url(#p89d1c64906)" d="M 344.003838 60.567045 
L 382.972576 60.567045 
" style="fill:none;stroke:#3d3d3d;stroke-dasharray:27,27;stroke-dashoffset:0;stroke-width:3;"/>
   </g>
   <g id="line2d_22">
    <path clip-path="url(#p89d1c64906)" d="M 340.225635 41.787028 
L 382.972576 41.787028 
" style="fill:none;stroke:#3d3d3d;stroke-dasharray:13.5,13.5;stroke-dashoffset:0;stroke-width:3;"/>
   </g>
   <g id="line2d_23">
    <path clip-path="url(#p89d1c64906)" d="M 382.972576 79.347062 
L 428.826616 79.347062 
" style="fill:none;stroke:#3d3d3d;stroke-dasharray:13.5,13.5;stroke-dashoffset:0;stroke-width:3;"/>
   </g>
   <g id="line2d_24">
    <path clip-path="url(#p89d1c64906)" d="M 382.972576 79.347062 
L 428.826616 79.347062 
" style="fill:none;stroke:#3d3d3d;stroke-dasharray:27,27;stroke-dashoffset:0;stroke-width:3;"/>
   </g>
   <g id="line2d_25">
    <path clip-path="url(#p89d1c64906)" d="M 382.972576 60.567045 
L 419.630671 60.567045 
" style="fill:none;stroke:#3d3d3d;stroke-dasharray:13.5,13.5;stroke-dashoffset:0;stroke-width:3;"/>
   </g>
   <g id="line2d_26">
    <path clip-path="url(#p89d1c64906)" d="M 478.609973 79.347062 
L 498.765607 79.347062 
" style="fill:none;stroke:#3d3d3d;stroke-dasharray:13.5,13.5;stroke-dashoffset:0;stroke-width:3;"/>
   </g>
   <g id="line2d_27">
    <path clip-path="url(#p89d1c64906)" d="M 453.07003 41.787028 
L 498.765607 41.787028 
" style="fill:none;stroke:#3d3d3d;stroke-dasharray:27,27;stroke-dashoffset:0;stroke-width:3;"/>
   </g>
   <g id="line2d_28">
    <path clip-path="url(#p89d1c64906)" d="M 453.07003 41.787028 
L 498.765607 41.787028 
" style="fill:none;stroke:#3d3d3d;stroke-dasharray:13.5,13.5;stroke-dashoffset:0;stroke-width:3;"/>
   </g>
   <g id="line2d_29">
    <path clip-path="url(#p89d1c64906)" d="M 498.765607 116.907096 
L 510.03795 116.907096 
" style="fill:none;stroke:#3d3d3d;stroke-dasharray:13.5,13.5;stroke-dashoffset:0;stroke-width:3;"/>
   </g>
   <g id="line2d_30">
    <path clip-path="url(#p89d1c64906)" d="M 498.765607 60.567045 
L 530.87748 60.567045 
" style="fill:none;stroke:#3d3d3d;stroke-dasharray:27,27;stroke-dashoffset:0;stroke-width:3;"/>
   </g>
   <g id="line2d_31">
    <path clip-path="url(#p89d1c64906)" d="M 498.765607 41.787028 
L 526.567614 41.787028 
" style="fill:none;stroke:#3d3d3d;stroke-dasharray:13.5,13.5;stroke-dashoffset:0;stroke-width:3;"/>
   </g>
   <g id="legend_1">
    <g id="patch_5">
     <path d="M 110.29 267.354243 
L 254.56 267.354243 
Q 259.36 267.354243 259.36 262.554243 
L 259.36 194.499243 
Q 259.36 189.699243 254.56 189.699243 
L 110.29 189.699243 
Q 105.49 189.699243 105.49 194.499243 
L 105.49 262.554243 
Q 105.49 267.354243 110.29 267.354243 
z
" style="fill:#ffffff;opacity:0.8;stroke:#cccccc;stroke-linejoin:miter;"/>
    </g>
    <g id="patch_6">
     <path d="M 115.09 217.535493 
L 163.09 217.535493 
L 163.09 200.735493 
L 115.09 200.735493 
z
" style="fill:#e1812c;stroke:#3d3d3d;stroke-linejoin:miter;stroke-width:1.5;"/>
    </g>
    <g id="text_10">
     <text style="font-family:DejaVu Sans;font-size:24px;font-stretch:normal;font-style:normal;font-weight:normal;text-anchor:start;" transform="rotate(-0, 182.29, 217.535493)" x="182.29" y="217.535493">ADNI</text>
    </g>
    <g id="patch_7">
     <path d="M 115.09 252.762993 
L 163.09 252.762993 
L 163.09 235.962993 
L 115.09 235.962993 
z
" style="fill:#3a923a;stroke:#3d3d3d;stroke-linejoin:miter;stroke-width:1.5;"/>
    </g>
    <g id="text_11">
     <text style="font-family:DejaVu Sans;font-size:24px;font-stretch:normal;font-style:normal;font-weight:normal;text-anchor:start;" transform="rotate(-0, 182.29, 252.762993)" x="182.29" y="252.762993">NACC</text>
    </g>
   </g>
  </g>
 </g>
 <defs>
  <clipPath id="p89d1c64906">
   <rect height="268.554243" width="463.172122" x="93.49" y="10.8"/>
  </clipPath>
 </defs>
</svg>
