<?xml version="1.0" encoding="utf-8" standalone="no"?>
<!DOCTYPE svg PUBLIC "-//W3C//DTD SVG 1.1//EN"
  "http://www.w3.org/Graphics/SVG/1.1/DTD/svg11.dtd">
<!-- Created with matplotlib (https://matplotlib.org/) -->
<svg height="460.8pt" version="1.1" viewBox="0 0 576 460.8" width="576pt" xmlns="http://www.w3.org/2000/svg" xmlns:xlink="http://www.w3.org/1999/xlink">
 <metadata>
  <rdf:RDF xmlns:cc="http://creativecommons.org/ns#" xmlns:dc="http://purl.org/dc/elements/1.1/" xmlns:rdf="http://www.w3.org/1999/02/22-rdf-syntax-ns#">
   <cc:Work>
    <dc:type rdf:resource="http://purl.org/dc/dcmitype/StillImage"/>
    <dc:date>2022-02-13T16:43:12.363319</dc:date>
    <dc:format>image/svg+xml</dc:format>
    <dc:creator>
     <cc:Agent>
      <dc:title>Matplotlib v3.3.3, https://matplotlib.org/</dc:title>
     </cc:Agent>
    </dc:creator>
   </cc:Work>
  </rdf:RDF>
 </metadata>
 <defs>
  <style type="text/css">*{stroke-linecap:butt;stroke-linejoin:round;}</style>
 </defs>
 <g id="figure_1">
  <g id="patch_1">
   <path d="M 0 460.8 
L 576 460.8 
L 576 0 
L 0 0 
z
" style="fill:#ffffff;"/>
  </g>
  <g id="axes_1">
   <g id="patch_2">
    <path d="M 134.41 279.354243 
L 556.662122 279.354243 
L 556.662122 10.8 
L 134.41 10.8 
z
" style="fill:#ffffff;"/>
   </g>
   <g id="PathCollection_1"/>
   <g id="PathCollection_2"/>
   <g id="PolyCollection_1">
    <defs>
     <path d="M 187.191515 -193.652768 
L 176.154463 -193.652768 
L 174.704232 -195.045089 
L 173.13031 -196.437411 
L 171.433193 -197.829733 
L 169.616963 -199.222055 
L 167.69014 -200.614377 
L 165.666422 -202.006698 
L 163.565218 -203.39902 
L 161.411873 -204.791342 
L 159.237512 -206.183664 
L 157.078446 -207.575985 
L 154.975127 -208.968307 
L 152.970669 -210.360629 
L 151.108999 -211.752951 
L 149.432759 -213.145273 
L 147.981087 -214.537594 
L 146.78745 -215.929916 
L 145.877696 -217.322238 
L 145.268496 -218.71456 
L 144.966303 -220.106882 
L 144.966941 -221.499203 
L 145.255864 -222.891525 
L 145.809081 -224.283847 
L 146.59468 -225.676169 
L 147.574845 -227.068491 
L 148.708198 -228.460812 
L 149.952285 -229.853134 
L 151.26602 -231.245456 
L 152.611899 -232.637778 
L 153.957818 -234.0301 
L 155.278388 -235.422421 
L 156.555656 -236.814743 
L 157.779234 -238.207065 
L 158.94585 -239.599387 
L 160.058412 -240.991708 
L 161.124699 -242.38403 
L 162.155817 -243.776352 
L 163.164573 -245.168674 
L 164.163906 -246.560996 
L 165.165503 -247.953317 
L 166.178698 -249.345639 
L 167.209709 -250.737961 
L 168.261237 -252.130283 
L 169.33242 -253.522605 
L 170.419096 -254.914926 
L 171.51431 -256.307248 
L 172.608986 -257.69957 
L 173.69269 -259.091892 
L 174.754403 -260.484214 
L 175.78324 -261.876535 
L 176.769072 -263.268857 
L 177.703009 -264.661179 
L 178.577746 -266.053501 
L 179.387757 -267.445823 
L 180.129361 -268.838144 
L 180.800674 -270.230466 
L 181.401477 -271.622788 
L 181.933016 -273.01511 
L 182.397772 -274.407431 
L 182.799208 -275.799753 
L 183.141523 -277.192075 
L 183.429413 -278.584397 
L 183.667862 -279.976719 
L 183.861956 -281.36904 
L 184.016734 -282.761362 
L 184.137073 -284.153684 
L 184.227608 -285.546006 
L 184.292679 -286.938328 
L 184.336317 -288.330649 
L 184.362248 -289.722971 
L 184.373919 -291.115293 
L 184.374532 -292.507615 
L 184.367086 -293.899937 
L 184.354414 -295.292258 
L 184.339201 -296.68458 
L 184.323993 -298.076902 
L 184.311175 -299.469224 
L 184.302934 -300.861546 
L 184.301196 -302.253867 
L 184.307559 -303.646189 
L 184.323211 -305.038511 
L 184.348872 -306.430833 
L 184.384746 -307.823154 
L 184.430505 -309.215476 
L 184.485317 -310.607798 
L 184.54791 -312.00012 
L 184.616679 -313.392442 
L 184.689824 -314.784763 
L 184.765511 -316.177085 
L 184.842037 -317.569407 
L 184.917983 -318.961729 
L 184.992341 -320.354051 
L 185.064597 -321.746372 
L 185.134763 -323.138694 
L 185.203348 -324.531016 
L 185.271284 -325.923338 
L 185.3398 -327.31566 
L 185.410266 -328.707981 
L 185.484022 -330.100303 
L 185.562222 -331.492625 
L 187.191515 -331.492625 
L 187.191515 -331.492625 
L 187.191515 -330.100303 
L 187.191515 -328.707981 
L 187.191515 -327.31566 
L 187.191515 -325.923338 
L 187.191515 -324.531016 
L 187.191515 -323.138694 
L 187.191515 -321.746372 
L 187.191515 -320.354051 
L 187.191515 -318.961729 
L 187.191515 -317.569407 
L 187.191515 -316.177085 
L 187.191515 -314.784763 
L 187.191515 -313.392442 
L 187.191515 -312.00012 
L 187.191515 -310.607798 
L 187.191515 -309.215476 
L 187.191515 -307.823154 
L 187.191515 -306.430833 
L 187.191515 -305.038511 
L 187.191515 -303.646189 
L 187.191515 -302.253867 
L 187.191515 -300.861546 
L 187.191515 -299.469224 
L 187.191515 -298.076902 
L 187.191515 -296.68458 
L 187.191515 -295.292258 
L 187.191515 -293.899937 
L 187.191515 -292.507615 
L 187.191515 -291.115293 
L 187.191515 -289.722971 
L 187.191515 -288.330649 
L 187.191515 -286.938328 
L 187.191515 -285.546006 
L 187.191515 -284.153684 
L 187.191515 -282.761362 
L 187.191515 -281.36904 
L 187.191515 -279.976719 
L 187.191515 -278.584397 
L 187.191515 -277.192075 
L 187.191515 -275.799753 
L 187.191515 -274.407431 
L 187.191515 -273.01511 
L 187.191515 -271.622788 
L 187.191515 -270.230466 
L 187.191515 -268.838144 
L 187.191515 -267.445823 
L 187.191515 -266.053501 
L 187.191515 -264.661179 
L 187.191515 -263.268857 
L 187.191515 -261.876535 
L 187.191515 -260.484214 
L 187.191515 -259.091892 
L 187.191515 -257.69957 
L 187.191515 -256.307248 
L 187.191515 -254.914926 
L 187.191515 -253.522605 
L 187.191515 -252.130283 
L 187.191515 -250.737961 
L 187.191515 -249.345639 
L 187.191515 -247.953317 
L 187.191515 -246.560996 
L 187.191515 -245.168674 
L 187.191515 -243.776352 
L 187.191515 -242.38403 
L 187.191515 -240.991708 
L 187.191515 -239.599387 
L 187.191515 -238.207065 
L 187.191515 -236.814743 
L 187.191515 -235.422421 
L 187.191515 -234.0301 
L 187.191515 -232.637778 
L 187.191515 -231.245456 
L 187.191515 -229.853134 
L 187.191515 -228.460812 
L 187.191515 -227.068491 
L 187.191515 -225.676169 
L 187.191515 -224.283847 
L 187.191515 -222.891525 
L 187.191515 -221.499203 
L 187.191515 -220.106882 
L 187.191515 -218.71456 
L 187.191515 -217.322238 
L 187.191515 -215.929916 
L 187.191515 -214.537594 
L 187.191515 -213.145273 
L 187.191515 -211.752951 
L 187.191515 -210.360629 
L 187.191515 -208.968307 
L 187.191515 -207.575985 
L 187.191515 -206.183664 
L 187.191515 -204.791342 
L 187.191515 -203.39902 
L 187.191515 -202.006698 
L 187.191515 -200.614377 
L 187.191515 -199.222055 
L 187.191515 -197.829733 
L 187.191515 -196.437411 
L 187.191515 -195.045089 
L 187.191515 -193.652768 
z
" id="m6e64e6f47c" style="stroke:#3d3d3d;stroke-width:3;"/>
    </defs>
    <g clip-path="url(#p2a076f9b3a)">
     <use style="fill:#e1812c;stroke:#3d3d3d;stroke-width:3;" x="0" xlink:href="#m6e64e6f47c" y="460.8"/>
    </g>
   </g>
   <g id="PolyCollection_2">
    <defs>
     <path d="M 292.754546 -197.549385 
L 281.304878 -197.549385 
L 280.011316 -198.739757 
L 278.691899 -199.930128 
L 277.356629 -201.1205 
L 276.013552 -202.310871 
L 274.668286 -203.501243 
L 273.323754 -204.691614 
L 271.980165 -205.881986 
L 270.635254 -207.072357 
L 269.284796 -208.262729 
L 267.923389 -209.453101 
L 266.545458 -210.643472 
L 265.146446 -211.833844 
L 263.724107 -213.024215 
L 262.279795 -214.214587 
L 260.819637 -215.404958 
L 259.355438 -216.59533 
L 257.905208 -217.785701 
L 256.493191 -218.976073 
L 255.14932 -220.166444 
L 253.908094 -221.356816 
L 252.806912 -222.547188 
L 251.883986 -223.737559 
L 251.175983 -224.927931 
L 250.715607 -226.118302 
L 250.529333 -227.308674 
L 250.635499 -228.499045 
L 251.042906 -229.689417 
L 251.750063 -230.879788 
L 252.7451 -232.07016 
L 254.006348 -233.260531 
L 255.503506 -234.450903 
L 257.199283 -235.641275 
L 259.051365 -236.831646 
L 261.014565 -238.022018 
L 263.042993 -239.212389 
L 265.092129 -240.402761 
L 267.120663 -241.593132 
L 269.09204 -242.783504 
L 270.975621 -243.973875 
L 272.747443 -245.164247 
L 274.390548 -246.354618 
L 275.894904 -247.54499 
L 277.256962 -248.735362 
L 278.478881 -249.925733 
L 279.567534 -251.116105 
L 280.533362 -252.306476 
L 281.389186 -253.496848 
L 282.149075 -254.687219 
L 282.827342 -255.877591 
L 283.437739 -257.067962 
L 283.992883 -258.258334 
L 284.503909 -259.448705 
L 284.98034 -260.639077 
L 285.430116 -261.829449 
L 285.859733 -263.01982 
L 286.274425 -264.210192 
L 286.678347 -265.400563 
L 287.074712 -266.590935 
L 287.46587 -267.781306 
L 287.853333 -268.971678 
L 288.237764 -270.162049 
L 288.618957 -271.352421 
L 288.995841 -272.542792 
L 289.366533 -273.733164 
L 289.728457 -274.923535 
L 290.078524 -276.113907 
L 290.413369 -277.304279 
L 290.729614 -278.49465 
L 291.024138 -279.685022 
L 291.294304 -280.875393 
L 291.538148 -282.065765 
L 291.75448 -283.256136 
L 291.942911 -284.446508 
L 292.103806 -285.636879 
L 292.238164 -286.827251 
L 292.347457 -288.017622 
L 292.43344 -289.207994 
L 292.497967 -290.398366 
L 292.542817 -291.588737 
L 292.569557 -292.779109 
L 292.579461 -293.96948 
L 292.573471 -295.159852 
L 292.552231 -296.350223 
L 292.516157 -297.540595 
L 292.465573 -298.730966 
L 292.400862 -299.921338 
L 292.322649 -301.111709 
L 292.231977 -302.302081 
L 292.130455 -303.492453 
L 292.020364 -304.682824 
L 291.904704 -305.873196 
L 291.787152 -307.063567 
L 291.671941 -308.253939 
L 291.563663 -309.44431 
L 291.466992 -310.634682 
L 291.386376 -311.825053 
L 291.325707 -313.015425 
L 291.288018 -314.205796 
L 291.27524 -315.396168 
L 292.754546 -315.396168 
L 292.754546 -315.396168 
L 292.754546 -314.205796 
L 292.754546 -313.015425 
L 292.754546 -311.825053 
L 292.754546 -310.634682 
L 292.754546 -309.44431 
L 292.754546 -308.253939 
L 292.754546 -307.063567 
L 292.754546 -305.873196 
L 292.754546 -304.682824 
L 292.754546 -303.492453 
L 292.754546 -302.302081 
L 292.754546 -301.111709 
L 292.754546 -299.921338 
L 292.754546 -298.730966 
L 292.754546 -297.540595 
L 292.754546 -296.350223 
L 292.754546 -295.159852 
L 292.754546 -293.96948 
L 292.754546 -292.779109 
L 292.754546 -291.588737 
L 292.754546 -290.398366 
L 292.754546 -289.207994 
L 292.754546 -288.017622 
L 292.754546 -286.827251 
L 292.754546 -285.636879 
L 292.754546 -284.446508 
L 292.754546 -283.256136 
L 292.754546 -282.065765 
L 292.754546 -280.875393 
L 292.754546 -279.685022 
L 292.754546 -278.49465 
L 292.754546 -277.304279 
L 292.754546 -276.113907 
L 292.754546 -274.923535 
L 292.754546 -273.733164 
L 292.754546 -272.542792 
L 292.754546 -271.352421 
L 292.754546 -270.162049 
L 292.754546 -268.971678 
L 292.754546 -267.781306 
L 292.754546 -266.590935 
L 292.754546 -265.400563 
L 292.754546 -264.210192 
L 292.754546 -263.01982 
L 292.754546 -261.829449 
L 292.754546 -260.639077 
L 292.754546 -259.448705 
L 292.754546 -258.258334 
L 292.754546 -257.067962 
L 292.754546 -255.877591 
L 292.754546 -254.687219 
L 292.754546 -253.496848 
L 292.754546 -252.306476 
L 292.754546 -251.116105 
L 292.754546 -249.925733 
L 292.754546 -248.735362 
L 292.754546 -247.54499 
L 292.754546 -246.354618 
L 292.754546 -245.164247 
L 292.754546 -243.973875 
L 292.754546 -242.783504 
L 292.754546 -241.593132 
L 292.754546 -240.402761 
L 292.754546 -239.212389 
L 292.754546 -238.022018 
L 292.754546 -236.831646 
L 292.754546 -235.641275 
L 292.754546 -234.450903 
L 292.754546 -233.260531 
L 292.754546 -232.07016 
L 292.754546 -230.879788 
L 292.754546 -229.689417 
L 292.754546 -228.499045 
L 292.754546 -227.308674 
L 292.754546 -226.118302 
L 292.754546 -224.927931 
L 292.754546 -223.737559 
L 292.754546 -222.547188 
L 292.754546 -221.356816 
L 292.754546 -220.166444 
L 292.754546 -218.976073 
L 292.754546 -217.785701 
L 292.754546 -216.59533 
L 292.754546 -215.404958 
L 292.754546 -214.214587 
L 292.754546 -213.024215 
L 292.754546 -211.833844 
L 292.754546 -210.643472 
L 292.754546 -209.453101 
L 292.754546 -208.262729 
L 292.754546 -207.072357 
L 292.754546 -205.881986 
L 292.754546 -204.691614 
L 292.754546 -203.501243 
L 292.754546 -202.310871 
L 292.754546 -201.1205 
L 292.754546 -199.930128 
L 292.754546 -198.739757 
L 292.754546 -197.549385 
z
" id="m61d2e09d8f" style="stroke:#3d3d3d;stroke-width:3;"/>
    </defs>
    <g clip-path="url(#p2a076f9b3a)">
     <use style="fill:#e1812c;stroke:#3d3d3d;stroke-width:3;" x="0" xlink:href="#m61d2e09d8f" y="460.8"/>
    </g>
   </g>
   <g id="PolyCollection_3">
    <defs>
     <path d="M 398.317576 -204.90435 
L 372.04791 -204.90435 
L 370.291226 -206.569373 
L 368.572746 -208.234396 
L 366.90952 -209.899419 
L 365.318159 -211.564442 
L 363.814532 -213.229466 
L 362.413487 -214.894489 
L 361.128592 -216.559512 
L 359.971907 -218.224535 
L 358.953799 -219.889558 
L 358.082786 -221.554581 
L 357.365423 -223.219604 
L 356.806236 -224.884627 
L 356.407699 -226.54965 
L 356.170251 -228.214673 
L 356.092364 -229.879696 
L 356.170653 -231.544719 
L 356.400024 -233.209742 
L 356.773857 -234.874765 
L 357.28422 -236.539788 
L 357.922107 -238.204811 
L 358.677676 -239.869834 
L 359.5405 -241.534857 
L 360.499805 -243.19988 
L 361.544683 -244.864903 
L 362.664285 -246.529926 
L 363.84797 -248.194949 
L 365.085419 -249.859972 
L 366.366704 -251.524995 
L 367.682316 -253.190019 
L 369.023157 -254.855042 
L 370.3805 -256.520065 
L 371.745931 -258.185088 
L 373.111283 -259.850111 
L 374.468565 -261.515134 
L 375.809909 -263.180157 
L 377.12754 -264.84518 
L 378.413773 -266.510203 
L 379.661049 -268.175226 
L 380.862003 -269.840249 
L 382.009572 -271.505272 
L 383.097133 -273.170295 
L 384.118662 -274.835318 
L 385.068906 -276.500341 
L 385.943563 -278.165364 
L 386.73944 -279.830387 
L 387.4546 -281.49541 
L 388.088465 -283.160433 
L 388.641885 -284.825456 
L 389.117151 -286.490479 
L 389.517957 -288.155502 
L 389.849307 -289.820525 
L 390.117375 -291.485548 
L 390.329314 -293.150572 
L 390.493031 -294.815595 
L 390.61694 -296.480618 
L 390.709693 -298.145641 
L 390.779918 -299.810664 
L 390.835959 -301.475687 
L 390.885646 -303.14071 
L 390.936088 -304.805733 
L 390.993514 -306.470756 
L 391.063148 -308.135779 
L 391.149135 -309.800802 
L 391.25451 -311.465825 
L 391.381208 -313.130848 
L 391.530116 -314.795871 
L 391.701147 -316.460894 
L 391.893344 -318.125917 
L 392.105002 -319.79094 
L 392.333792 -321.455963 
L 392.576892 -323.120986 
L 392.83112 -324.786009 
L 393.093052 -326.451032 
L 393.359135 -328.116055 
L 393.625795 -329.781078 
L 393.889526 -331.446101 
L 394.146972 -333.111125 
L 394.395003 -334.776148 
L 394.630779 -336.441171 
L 394.851807 -338.106194 
L 395.055993 -339.771217 
L 395.241684 -341.43624 
L 395.407706 -343.101263 
L 395.553388 -344.766286 
L 395.678579 -346.431309 
L 395.783653 -348.096332 
L 395.869495 -349.761355 
L 395.937474 -351.426378 
L 395.989406 -353.091401 
L 396.027489 -354.756424 
L 396.054234 -356.421447 
L 396.072376 -358.08647 
L 396.084782 -359.751493 
L 396.094344 -361.416516 
L 396.103879 -363.081539 
L 396.11603 -364.746562 
L 396.133171 -366.411585 
L 396.157328 -368.076608 
L 396.190119 -369.741631 
L 398.317576 -369.741631 
L 398.317576 -369.741631 
L 398.317576 -368.076608 
L 398.317576 -366.411585 
L 398.317576 -364.746562 
L 398.317576 -363.081539 
L 398.317576 -361.416516 
L 398.317576 -359.751493 
L 398.317576 -358.08647 
L 398.317576 -356.421447 
L 398.317576 -354.756424 
L 398.317576 -353.091401 
L 398.317576 -351.426378 
L 398.317576 -349.761355 
L 398.317576 -348.096332 
L 398.317576 -346.431309 
L 398.317576 -344.766286 
L 398.317576 -343.101263 
L 398.317576 -341.43624 
L 398.317576 -339.771217 
L 398.317576 -338.106194 
L 398.317576 -336.441171 
L 398.317576 -334.776148 
L 398.317576 -333.111125 
L 398.317576 -331.446101 
L 398.317576 -329.781078 
L 398.317576 -328.116055 
L 398.317576 -326.451032 
L 398.317576 -324.786009 
L 398.317576 -323.120986 
L 398.317576 -321.455963 
L 398.317576 -319.79094 
L 398.317576 -318.125917 
L 398.317576 -316.460894 
L 398.317576 -314.795871 
L 398.317576 -313.130848 
L 398.317576 -311.465825 
L 398.317576 -309.800802 
L 398.317576 -308.135779 
L 398.317576 -306.470756 
L 398.317576 -304.805733 
L 398.317576 -303.14071 
L 398.317576 -301.475687 
L 398.317576 -299.810664 
L 398.317576 -298.145641 
L 398.317576 -296.480618 
L 398.317576 -294.815595 
L 398.317576 -293.150572 
L 398.317576 -291.485548 
L 398.317576 -289.820525 
L 398.317576 -288.155502 
L 398.317576 -286.490479 
L 398.317576 -284.825456 
L 398.317576 -283.160433 
L 398.317576 -281.49541 
L 398.317576 -279.830387 
L 398.317576 -278.165364 
L 398.317576 -276.500341 
L 398.317576 -274.835318 
L 398.317576 -273.170295 
L 398.317576 -271.505272 
L 398.317576 -269.840249 
L 398.317576 -268.175226 
L 398.317576 -266.510203 
L 398.317576 -264.84518 
L 398.317576 -263.180157 
L 398.317576 -261.515134 
L 398.317576 -259.850111 
L 398.317576 -258.185088 
L 398.317576 -256.520065 
L 398.317576 -254.855042 
L 398.317576 -253.190019 
L 398.317576 -251.524995 
L 398.317576 -249.859972 
L 398.317576 -248.194949 
L 398.317576 -246.529926 
L 398.317576 -244.864903 
L 398.317576 -243.19988 
L 398.317576 -241.534857 
L 398.317576 -239.869834 
L 398.317576 -238.204811 
L 398.317576 -236.539788 
L 398.317576 -234.874765 
L 398.317576 -233.209742 
L 398.317576 -231.544719 
L 398.317576 -229.879696 
L 398.317576 -228.214673 
L 398.317576 -226.54965 
L 398.317576 -224.884627 
L 398.317576 -223.219604 
L 398.317576 -221.554581 
L 398.317576 -219.889558 
L 398.317576 -218.224535 
L 398.317576 -216.559512 
L 398.317576 -214.894489 
L 398.317576 -213.229466 
L 398.317576 -211.564442 
L 398.317576 -209.899419 
L 398.317576 -208.234396 
L 398.317576 -206.569373 
L 398.317576 -204.90435 
z
" id="mbdb861b452" style="stroke:#3d3d3d;stroke-width:3;"/>
    </defs>
    <g clip-path="url(#p2a076f9b3a)">
     <use style="fill:#e1812c;stroke:#3d3d3d;stroke-width:3;" x="0" xlink:href="#mbdb861b452" y="460.8"/>
    </g>
   </g>
   <g id="PolyCollection_4">
    <defs>
     <path d="M 503.880607 -195.557249 
L 489.251476 -195.557249 
L 486.722363 -198.004075 
L 484.075609 -200.450901 
L 481.363406 -202.897726 
L 478.641586 -205.344552 
L 475.967237 -207.791378 
L 473.396617 -210.238203 
L 470.98336 -212.685029 
L 468.776882 -215.131855 
L 466.82082 -217.57868 
L 465.151401 -220.025506 
L 463.795738 -222.472332 
L 462.770202 -224.919157 
L 462.079153 -227.365983 
L 461.71436 -229.812808 
L 461.655394 -232.259634 
L 461.871135 -234.70646 
L 462.322303 -237.153285 
L 462.964749 -239.600111 
L 463.753051 -242.046937 
L 464.643904 -244.493762 
L 465.59887 -246.940588 
L 466.586173 -249.387414 
L 467.581439 -251.834239 
L 468.567499 -254.281065 
L 469.533512 -256.727891 
L 470.473745 -259.174716 
L 471.386323 -261.621542 
L 472.272158 -264.068368 
L 473.13413 -266.515193 
L 473.976466 -268.962019 
L 474.804171 -271.408845 
L 475.622395 -273.85567 
L 476.435648 -276.302496 
L 477.246939 -278.749322 
L 478.056981 -281.196147 
L 478.863683 -283.642973 
L 479.662134 -286.089798 
L 480.445156 -288.536624 
L 481.204397 -290.98345 
L 481.931722 -293.430275 
L 482.620624 -295.877101 
L 483.267293 -298.323927 
L 483.871097 -300.770752 
L 484.434362 -303.217578 
L 484.961513 -305.664404 
L 485.457796 -308.111229 
L 485.927906 -310.558055 
L 486.374859 -313.004881 
L 486.799392 -315.451706 
L 487.200023 -317.898532 
L 487.573793 -320.345358 
L 487.917518 -322.792183 
L 488.229304 -325.239009 
L 488.510007 -327.685835 
L 488.764326 -330.13266 
L 489.001285 -332.579486 
L 489.233984 -335.026312 
L 489.478588 -337.473137 
L 489.752718 -339.919963 
L 490.073463 -342.366788 
L 490.455321 -344.813614 
L 490.908413 -347.26044 
L 491.437224 -349.707265 
L 492.040065 -352.154091 
L 492.709316 -354.600917 
L 493.432359 -357.047742 
L 494.193028 -359.494568 
L 494.973318 -361.941394 
L 495.755075 -364.388219 
L 496.521471 -366.835045 
L 497.258087 -369.281871 
L 497.953561 -371.728696 
L 498.599827 -374.175522 
L 499.192007 -376.622348 
L 499.728075 -379.069173 
L 500.208372 -381.515999 
L 500.635073 -383.962825 
L 501.011649 -386.40965 
L 501.342363 -388.856476 
L 501.631844 -391.303302 
L 501.884724 -393.750127 
L 502.105386 -396.196953 
L 502.297797 -398.643778 
L 502.465434 -401.090604 
L 502.611289 -403.53743 
L 502.737912 -405.984255 
L 502.847494 -408.431081 
L 502.941943 -410.877907 
L 503.022967 -413.324732 
L 503.09214 -415.771558 
L 503.150968 -418.218384 
L 503.200949 -420.665209 
L 503.243622 -423.112035 
L 503.280597 -425.558861 
L 503.313558 -428.005686 
L 503.344208 -430.452512 
L 503.374182 -432.899338 
L 503.404916 -435.346163 
L 503.437509 -437.792989 
L 503.880607 -437.792989 
L 503.880607 -437.792989 
L 503.880607 -435.346163 
L 503.880607 -432.899338 
L 503.880607 -430.452512 
L 503.880607 -428.005686 
L 503.880607 -425.558861 
L 503.880607 -423.112035 
L 503.880607 -420.665209 
L 503.880607 -418.218384 
L 503.880607 -415.771558 
L 503.880607 -413.324732 
L 503.880607 -410.877907 
L 503.880607 -408.431081 
L 503.880607 -405.984255 
L 503.880607 -403.53743 
L 503.880607 -401.090604 
L 503.880607 -398.643778 
L 503.880607 -396.196953 
L 503.880607 -393.750127 
L 503.880607 -391.303302 
L 503.880607 -388.856476 
L 503.880607 -386.40965 
L 503.880607 -383.962825 
L 503.880607 -381.515999 
L 503.880607 -379.069173 
L 503.880607 -376.622348 
L 503.880607 -374.175522 
L 503.880607 -371.728696 
L 503.880607 -369.281871 
L 503.880607 -366.835045 
L 503.880607 -364.388219 
L 503.880607 -361.941394 
L 503.880607 -359.494568 
L 503.880607 -357.047742 
L 503.880607 -354.600917 
L 503.880607 -352.154091 
L 503.880607 -349.707265 
L 503.880607 -347.26044 
L 503.880607 -344.813614 
L 503.880607 -342.366788 
L 503.880607 -339.919963 
L 503.880607 -337.473137 
L 503.880607 -335.026312 
L 503.880607 -332.579486 
L 503.880607 -330.13266 
L 503.880607 -327.685835 
L 503.880607 -325.239009 
L 503.880607 -322.792183 
L 503.880607 -320.345358 
L 503.880607 -317.898532 
L 503.880607 -315.451706 
L 503.880607 -313.004881 
L 503.880607 -310.558055 
L 503.880607 -308.111229 
L 503.880607 -305.664404 
L 503.880607 -303.217578 
L 503.880607 -300.770752 
L 503.880607 -298.323927 
L 503.880607 -295.877101 
L 503.880607 -293.430275 
L 503.880607 -290.98345 
L 503.880607 -288.536624 
L 503.880607 -286.089798 
L 503.880607 -283.642973 
L 503.880607 -281.196147 
L 503.880607 -278.749322 
L 503.880607 -276.302496 
L 503.880607 -273.85567 
L 503.880607 -271.408845 
L 503.880607 -268.962019 
L 503.880607 -266.515193 
L 503.880607 -264.068368 
L 503.880607 -261.621542 
L 503.880607 -259.174716 
L 503.880607 -256.727891 
L 503.880607 -254.281065 
L 503.880607 -251.834239 
L 503.880607 -249.387414 
L 503.880607 -246.940588 
L 503.880607 -244.493762 
L 503.880607 -242.046937 
L 503.880607 -239.600111 
L 503.880607 -237.153285 
L 503.880607 -234.70646 
L 503.880607 -232.259634 
L 503.880607 -229.812808 
L 503.880607 -227.365983 
L 503.880607 -224.919157 
L 503.880607 -222.472332 
L 503.880607 -220.025506 
L 503.880607 -217.57868 
L 503.880607 -215.131855 
L 503.880607 -212.685029 
L 503.880607 -210.238203 
L 503.880607 -207.791378 
L 503.880607 -205.344552 
L 503.880607 -202.897726 
L 503.880607 -200.450901 
L 503.880607 -198.004075 
L 503.880607 -195.557249 
z
" id="m75ed096b6a" style="stroke:#3d3d3d;stroke-width:3;"/>
    </defs>
    <g clip-path="url(#p2a076f9b3a)">
     <use style="fill:#e1812c;stroke:#3d3d3d;stroke-width:3;" x="0" xlink:href="#m75ed096b6a" y="460.8"/>
    </g>
   </g>
   <g id="patch_3">
    <path clip-path="url(#p2a076f9b3a)" d="M 187.191515 288.439179 
L 187.191515 288.439179 
L 187.191515 288.439179 
L 187.191515 288.439179 
z
" style="fill:#e1812c;stroke:#3d3d3d;stroke-linejoin:miter;stroke-width:1.5;"/>
   </g>
   <g id="patch_4">
    <path clip-path="url(#p2a076f9b3a)" d="M 187.191515 288.439179 
L 187.191515 288.439179 
L 187.191515 288.439179 
L 187.191515 288.439179 
z
" style="fill:#3a923a;stroke:#3d3d3d;stroke-linejoin:miter;stroke-width:1.5;"/>
   </g>
   <g id="matplotlib.axis_1">
    <g id="xtick_1">
     <g id="line2d_1">
      <defs>
       <path d="M 0 0 
L 0 3.5 
" id="m4b6a9f50c3" style="stroke:#000000;stroke-width:0.8;"/>
      </defs>
      <g>
       <use style="stroke:#000000;stroke-width:0.8;" x="187.191515" xlink:href="#m4b6a9f50c3" y="279.354243"/>
      </g>
     </g>
     <g id="text_1">
      <text style="font-family:DejaVu Sans;font-size:32px;font-stretch:normal;font-style:normal;font-weight:normal;" transform="translate(129.537564 303.547545)rotate(-315)">&lt;2 years</text>
     </g>
    </g>
    <g id="xtick_2">
     <g id="line2d_2">
      <g>
       <use style="stroke:#000000;stroke-width:0.8;" x="292.754546" xlink:href="#m4b6a9f50c3" y="279.354243"/>
      </g>
     </g>
     <g id="text_2">
      <text style="font-family:DejaVu Sans;font-size:32px;font-stretch:normal;font-style:normal;font-weight:normal;" transform="translate(235.100594 303.547545)rotate(-315)">&lt;4 years</text>
     </g>
    </g>
    <g id="xtick_3">
     <g id="line2d_3">
      <g>
       <use style="stroke:#000000;stroke-width:0.8;" x="398.317576" xlink:href="#m4b6a9f50c3" y="279.354243"/>
      </g>
     </g>
     <g id="text_3">
      <text style="font-family:DejaVu Sans;font-size:32px;font-stretch:normal;font-style:normal;font-weight:normal;" transform="translate(340.663625 303.547545)rotate(-315)">≥4 years</text>
     </g>
    </g>
    <g id="xtick_4">
     <g id="line2d_4">
      <g>
       <use style="stroke:#000000;stroke-width:0.8;" x="503.880607" xlink:href="#m4b6a9f50c3" y="279.354243"/>
      </g>
     </g>
     <g id="text_4">
      <text style="font-family:DejaVu Sans;font-size:32px;font-stretch:normal;font-style:normal;font-weight:normal;" transform="translate(444.248524 303.547545)rotate(-315)">Censored</text>
     </g>
    </g>
    <g id="text_5">
     <text style="font-family:DejaVu Sans;font-size:32px;font-stretch:normal;font-style:normal;font-weight:normal;text-anchor:middle;" transform="rotate(-0, 345.536061, 443.345)" x="345.536061" y="443.345">Years since diagnosis</text>
    </g>
   </g>
   <g id="matplotlib.axis_2">
    <g id="ytick_1">
     <g id="line2d_5">
      <defs>
       <path d="M 0 0 
L -3.5 0 
" id="mdad967211f" style="stroke:#000000;stroke-width:0.8;"/>
      </defs>
      <g>
       <use style="stroke:#000000;stroke-width:0.8;" x="134.41" xlink:href="#mdad967211f" y="208.753749"/>
      </g>
     </g>
     <g id="text_6">
      <text style="font-family:DejaVu Sans;font-size:32px;font-stretch:normal;font-style:normal;font-weight:normal;text-anchor:end;" transform="rotate(-0, 127.41, 220.911249)" x="127.41" y="220.911249">1000</text>
     </g>
    </g>
    <g id="ytick_2">
     <g id="line2d_6">
      <g>
       <use style="stroke:#000000;stroke-width:0.8;" x="134.41" xlink:href="#mdad967211f" y="129.068319"/>
      </g>
     </g>
     <g id="text_7">
      <text style="font-family:DejaVu Sans;font-size:32px;font-stretch:normal;font-style:normal;font-weight:normal;text-anchor:end;" transform="rotate(-0, 127.41, 141.225819)" x="127.41" y="141.225819">2000</text>
     </g>
    </g>
    <g id="ytick_3">
     <g id="line2d_7">
      <g>
       <use style="stroke:#000000;stroke-width:0.8;" x="134.41" xlink:href="#mdad967211f" y="49.382888"/>
      </g>
     </g>
     <g id="text_8">
      <text style="font-family:DejaVu Sans;font-size:32px;font-stretch:normal;font-style:normal;font-weight:normal;text-anchor:end;" transform="rotate(-0, 127.41, 61.540388)" x="127.41" y="61.540388">3000</text>
     </g>
    </g>
    <g id="text_9">
     <text style="font-family:DejaVu Sans;font-size:32px;font-stretch:normal;font-style:normal;font-weight:normal;text-anchor:middle;" transform="rotate(-90, 35.315, 145.077122)" x="35.315" y="145.077122">Aβ42 (pg/mL)</text>
    </g>
   </g>
   <g id="line2d_8">
    <path clip-path="url(#p2a076f9b3a)" d="M 146.290834 243.707763 
L 187.191515 243.707763 
" style="fill:none;stroke:#3d3d3d;stroke-dasharray:13.5,13.5;stroke-dashoffset:0;stroke-width:3;"/>
   </g>
   <g id="line2d_9">
    <path clip-path="url(#p2a076f9b3a)" d="M 146.222905 236.994266 
L 187.191515 236.994266 
" style="fill:none;stroke:#3d3d3d;stroke-dasharray:27,27;stroke-dashoffset:0;stroke-width:3;"/>
   </g>
   <g id="line2d_10">
    <path clip-path="url(#p2a076f9b3a)" d="M 163.404843 215.989186 
L 187.191515 215.989186 
" style="fill:none;stroke:#3d3d3d;stroke-dasharray:13.5,13.5;stroke-dashoffset:0;stroke-width:3;"/>
   </g>
   <g id="line2d_11">
    <path clip-path="url(#p2a076f9b3a)" d="M 258.253702 243.584251 
L 292.754546 243.584251 
" style="fill:none;stroke:#3d3d3d;stroke-dasharray:13.5,13.5;stroke-dashoffset:0;stroke-width:3;"/>
   </g>
   <g id="line2d_12">
    <path clip-path="url(#p2a076f9b3a)" d="M 250.951586 233.878565 
L 292.754546 233.878565 
" style="fill:none;stroke:#3d3d3d;stroke-dasharray:27,27;stroke-dashoffset:0;stroke-width:3;"/>
   </g>
   <g id="line2d_13">
    <path clip-path="url(#p2a076f9b3a)" d="M 259.388397 224.029446 
L 292.754546 224.029446 
" style="fill:none;stroke:#3d3d3d;stroke-dasharray:13.5,13.5;stroke-dashoffset:0;stroke-width:3;"/>
   </g>
   <g id="line2d_14">
    <path clip-path="url(#p2a076f9b3a)" d="M 360.355363 243.130044 
L 398.317576 243.130044 
" style="fill:none;stroke:#3d3d3d;stroke-dasharray:13.5,13.5;stroke-dashoffset:0;stroke-width:3;"/>
   </g>
   <g id="line2d_15">
    <path clip-path="url(#p2a076f9b3a)" d="M 357.189294 226.300481 
L 398.317576 226.300481 
" style="fill:none;stroke:#3d3d3d;stroke-dasharray:27,27;stroke-dashoffset:0;stroke-width:3;"/>
   </g>
   <g id="line2d_16">
    <path clip-path="url(#p2a076f9b3a)" d="M 372.011648 201.900802 
L 398.317576 201.900802 
" style="fill:none;stroke:#3d3d3d;stroke-dasharray:13.5,13.5;stroke-dashoffset:0;stroke-width:3;"/>
   </g>
   <g id="line2d_17">
    <path clip-path="url(#p2a076f9b3a)" d="M 462.497168 232.924332 
L 503.880607 232.924332 
" style="fill:none;stroke:#3d3d3d;stroke-dasharray:13.5,13.5;stroke-dashoffset:0;stroke-width:3;"/>
   </g>
   <g id="line2d_18">
    <path clip-path="url(#p2a076f9b3a)" d="M 469.876983 204.171837 
L 503.880607 204.171837 
" style="fill:none;stroke:#3d3d3d;stroke-dasharray:27,27;stroke-dashoffset:0;stroke-width:3;"/>
   </g>
   <g id="line2d_19">
    <path clip-path="url(#p2a076f9b3a)" d="M 483.473427 161.978402 
L 503.880607 161.978402 
" style="fill:none;stroke:#3d3d3d;stroke-dasharray:13.5,13.5;stroke-dashoffset:0;stroke-width:3;"/>
   </g>
   <g id="PathCollection_3">
    <defs>
     <path d="M 0 2.5 
C 0.663008 2.5 1.29895 2.236584 1.767767 1.767767 
C 2.236584 1.29895 2.5 0.663008 2.5 -0 
C 2.5 -0.663008 2.236584 -1.29895 1.767767 -1.767767 
C 1.29895 -2.236584 0.663008 -2.5 0 -2.5 
C -0.663008 -2.5 -1.29895 -2.236584 -1.767767 -1.767767 
C -2.236584 -1.29895 -2.5 -0.663008 -2.5 0 
C -2.5 0.663008 -2.236584 1.29895 -1.767767 1.767767 
C -1.29895 2.236584 -0.663008 2.5 0 2.5 
z
" id="C0_0_e1b26823c4"/>
    </defs>
   </g>
   <g id="PathCollection_4">
    <defs>
     <path d="M 0 2.5 
C 0.663008 2.5 1.29895 2.236584 1.767767 1.767767 
C 2.236584 1.29895 2.5 0.663008 2.5 -0 
C 2.5 -0.663008 2.236584 -1.29895 1.767767 -1.767767 
C 1.29895 -2.236584 0.663008 -2.5 0 -2.5 
C -0.663008 -2.5 -1.29895 -2.236584 -1.767767 -1.767767 
C -2.236584 -1.29895 -2.5 -0.663008 -2.5 0 
C -2.5 0.663008 -2.236584 1.29895 -1.767767 1.767767 
C -1.29895 2.236584 -0.663008 2.5 0 2.5 
z
" id="C1_0_f853f39361"/>
    </defs>
    <g clip-path="url(#p2a076f9b3a)">
     <use style="fill:#2ca02c;" x="208.304121" xlink:href="#C1_0_f853f39361" y="266.446001"/>
    </g>
    <g clip-path="url(#p2a076f9b3a)">
     <use style="fill:#2ca02c;" x="208.304121" xlink:href="#C1_0_f853f39361" y="264.294494"/>
    </g>
    <g clip-path="url(#p2a076f9b3a)">
     <use style="fill:#2ca02c;" x="208.304121" xlink:href="#C1_0_f853f39361" y="260.469593"/>
    </g>
    <g clip-path="url(#p2a076f9b3a)">
     <use style="fill:#2ca02c;" x="205.445064" xlink:href="#C1_0_f853f39361" y="259.672739"/>
    </g>
    <g clip-path="url(#p2a076f9b3a)">
     <use style="fill:#2ca02c;" x="208.304121" xlink:href="#C1_0_f853f39361" y="252.261994"/>
    </g>
    <g clip-path="url(#p2a076f9b3a)">
     <use style="fill:#2ca02c;" x="203.976781" xlink:href="#C1_0_f853f39361" y="251.783881"/>
    </g>
   </g>
   <g id="PathCollection_5">
    <defs>
     <path d="M 0 2.5 
C 0.663008 2.5 1.29895 2.236584 1.767767 1.767767 
C 2.236584 1.29895 2.5 0.663008 2.5 -0 
C 2.5 -0.663008 2.236584 -1.29895 1.767767 -1.767767 
C 1.29895 -2.236584 0.663008 -2.5 0 -2.5 
C -0.663008 -2.5 -1.29895 -2.236584 -1.767767 -1.767767 
C -2.236584 -1.29895 -2.5 -0.663008 -2.5 0 
C -2.5 0.663008 -2.236584 1.29895 -1.767767 1.767767 
C -1.29895 2.236584 -0.663008 2.5 0 2.5 
z
" id="C2_0_4680791404"/>
    </defs>
   </g>
   <g id="PathCollection_6">
    <defs>
     <path d="M 0 2.5 
C 0.663008 2.5 1.29895 2.236584 1.767767 1.767767 
C 2.236584 1.29895 2.5 0.663008 2.5 -0 
C 2.5 -0.663008 2.236584 -1.29895 1.767767 -1.767767 
C 1.29895 -2.236584 0.663008 -2.5 0 -2.5 
C -0.663008 -2.5 -1.29895 -2.236584 -1.767767 -1.767767 
C -2.236584 -1.29895 -2.5 -0.663008 -2.5 0 
C -2.5 0.663008 -2.236584 1.29895 -1.767767 1.767767 
C -1.29895 2.236584 -0.663008 2.5 0 2.5 
z
" id="C3_0_ff21d14f46"/>
    </defs>
    <g clip-path="url(#p2a076f9b3a)">
     <use style="fill:#2ca02c;" x="313.867152" xlink:href="#C3_0_ff21d14f46" y="260.947706"/>
    </g>
    <g clip-path="url(#p2a076f9b3a)">
     <use style="fill:#2ca02c;" x="313.867152" xlink:href="#C3_0_ff21d14f46" y="259.513368"/>
    </g>
    <g clip-path="url(#p2a076f9b3a)">
     <use style="fill:#2ca02c;" x="313.867152" xlink:href="#C3_0_ff21d14f46" y="247.79961"/>
    </g>
   </g>
   <g id="PathCollection_7">
    <defs>
     <path d="M 0 2.5 
C 0.663008 2.5 1.29895 2.236584 1.767767 1.767767 
C 2.236584 1.29895 2.5 0.663008 2.5 -0 
C 2.5 -0.663008 2.236584 -1.29895 1.767767 -1.767767 
C 1.29895 -2.236584 0.663008 -2.5 0 -2.5 
C -0.663008 -2.5 -1.29895 -2.236584 -1.767767 -1.767767 
C -2.236584 -1.29895 -2.5 -0.663008 -2.5 0 
C -2.5 0.663008 -2.236584 1.29895 -1.767767 1.767767 
C -1.29895 2.236584 -0.663008 2.5 0 2.5 
z
" id="C4_0_092dfcfeb4"/>
    </defs>
   </g>
   <g id="PathCollection_8">
    <defs>
     <path d="M 0 2.5 
C 0.663008 2.5 1.29895 2.236584 1.767767 1.767767 
C 2.236584 1.29895 2.5 0.663008 2.5 -0 
C 2.5 -0.663008 2.236584 -1.29895 1.767767 -1.767767 
C 1.29895 -2.236584 0.663008 -2.5 0 -2.5 
C -0.663008 -2.5 -1.29895 -2.236584 -1.767767 -1.767767 
C -2.236584 -1.29895 -2.5 -0.663008 -2.5 0 
C -2.5 0.663008 -2.236584 1.29895 -1.767767 1.767767 
C -1.29895 2.236584 -0.663008 2.5 0 2.5 
z
" id="C5_0_cdb47ea30a"/>
    </defs>
    <g clip-path="url(#p2a076f9b3a)">
     <use style="fill:#2ca02c;" x="419.430182" xlink:href="#C5_0_cdb47ea30a" y="264.53355"/>
    </g>
    <g clip-path="url(#p2a076f9b3a)">
     <use style="fill:#2ca02c;" x="419.430182" xlink:href="#C5_0_cdb47ea30a" y="255.050984"/>
    </g>
    <g clip-path="url(#p2a076f9b3a)">
     <use style="fill:#2ca02c;" x="419.430182" xlink:href="#C5_0_cdb47ea30a" y="237.201448"/>
    </g>
   </g>
   <g id="PathCollection_9">
    <defs>
     <path d="M 0 2.5 
C 0.663008 2.5 1.29895 2.236584 1.767767 1.767767 
C 2.236584 1.29895 2.5 0.663008 2.5 -0 
C 2.5 -0.663008 2.236584 -1.29895 1.767767 -1.767767 
C 1.29895 -2.236584 0.663008 -2.5 0 -2.5 
C -0.663008 -2.5 -1.29895 -2.236584 -1.767767 -1.767767 
C -2.236584 -1.29895 -2.5 -0.663008 -2.5 0 
C -2.5 0.663008 -2.236584 1.29895 -1.767767 1.767767 
C -1.29895 2.236584 -0.663008 2.5 0 2.5 
z
" id="C6_0_77d8cef842"/>
    </defs>
   </g>
   <g id="PathCollection_10">
    <defs>
     <path d="M 0 2.5 
C 0.663008 2.5 1.29895 2.236584 1.767767 1.767767 
C 2.236584 1.29895 2.5 0.663008 2.5 -0 
C 2.5 -0.663008 2.236584 -1.29895 1.767767 -1.767767 
C 1.29895 -2.236584 0.663008 -2.5 0 -2.5 
C -0.663008 -2.5 -1.29895 -2.236584 -1.767767 -1.767767 
C -2.236584 -1.29895 -2.5 -0.663008 -2.5 0 
C -2.5 0.663008 -2.236584 1.29895 -1.767767 1.767767 
C -1.29895 2.236584 -0.663008 2.5 0 2.5 
z
" id="C7_0_b6e8228cef"/>
    </defs>
    <g clip-path="url(#p2a076f9b3a)">
     <use style="fill:#2ca02c;" x="524.993213" xlink:href="#C7_0_b6e8228cef" y="260.389908"/>
    </g>
    <g clip-path="url(#p2a076f9b3a)">
     <use style="fill:#2ca02c;" x="524.993213" xlink:href="#C7_0_b6e8228cef" y="254.891613"/>
    </g>
    <g clip-path="url(#p2a076f9b3a)">
     <use style="fill:#2ca02c;" x="524.993213" xlink:href="#C7_0_b6e8228cef" y="253.696332"/>
    </g>
    <g clip-path="url(#p2a076f9b3a)">
     <use style="fill:#2ca02c;" x="520.094059" xlink:href="#C7_0_b6e8228cef" y="253.536961"/>
    </g>
    <g clip-path="url(#p2a076f9b3a)">
     <use style="fill:#2ca02c;" x="524.993213" xlink:href="#C7_0_b6e8228cef" y="250.508915"/>
    </g>
    <g clip-path="url(#p2a076f9b3a)">
     <use style="fill:#2ca02c;" x="524.993213" xlink:href="#C7_0_b6e8228cef" y="242.779428"/>
    </g>
    <g clip-path="url(#p2a076f9b3a)">
     <use style="fill:#2ca02c;" x="524.993213" xlink:href="#C7_0_b6e8228cef" y="234.731199"/>
    </g>
    <g clip-path="url(#p2a076f9b3a)">
     <use style="fill:#2ca02c;" x="524.993213" xlink:href="#C7_0_b6e8228cef" y="228.43605"/>
    </g>
    <g clip-path="url(#p2a076f9b3a)">
     <use style="fill:#2ca02c;" x="524.993213" xlink:href="#C7_0_b6e8228cef" y="203.574196"/>
    </g>
   </g>
   <g id="legend_1">
    <g id="patch_5">
     <path d="M 151.21 170.91 
L 295.48 170.91 
Q 300.28 170.91 300.28 166.11 
L 300.28 27.6 
Q 300.28 22.8 295.48 22.8 
L 151.21 22.8 
Q 146.41 22.8 146.41 27.6 
L 146.41 166.11 
Q 146.41 170.91 151.21 170.91 
z
" style="fill:#ffffff;opacity:0.8;stroke:#cccccc;stroke-linejoin:miter;"/>
    </g>
    <g id="patch_6">
     <path d="M 156.01 50.63625 
L 204.01 50.63625 
L 204.01 33.83625 
L 156.01 33.83625 
z
" style="fill:#e1812c;stroke:#3d3d3d;stroke-linejoin:miter;stroke-width:1.5;"/>
    </g>
    <g id="text_10">
     <text style="font-family:DejaVu Sans;font-size:24px;font-stretch:normal;font-style:normal;font-weight:normal;text-anchor:start;" transform="rotate(-0, 223.21, 50.63625)" x="223.21" y="50.63625">ADNI</text>
    </g>
    <g id="patch_7">
     <path d="M 156.01 85.86375 
L 204.01 85.86375 
L 204.01 69.06375 
L 156.01 69.06375 
z
" style="fill:#3a923a;stroke:#3d3d3d;stroke-linejoin:miter;stroke-width:1.5;"/>
    </g>
    <g id="text_11">
     <text style="font-family:DejaVu Sans;font-size:24px;font-stretch:normal;font-style:normal;font-weight:normal;text-anchor:start;" transform="rotate(-0, 223.21, 85.86375)" x="223.21" y="85.86375">NACC</text>
    </g>
    <g id="PathCollection_11">
     <defs>
      <path d="M 0 3.872983 
C 1.027127 3.872983 2.012324 3.464901 2.738613 2.738613 
C 3.464901 2.012324 3.872983 1.027127 3.872983 0 
C 3.872983 -1.027127 3.464901 -2.012324 2.738613 -2.738613 
C 2.012324 -3.464901 1.027127 -3.872983 0 -3.872983 
C -1.027127 -3.872983 -2.012324 -3.464901 -2.738613 -2.738613 
C -3.464901 -2.012324 -3.872983 -1.027127 -3.872983 0 
C -3.872983 1.027127 -3.464901 2.012324 -2.738613 2.738613 
C -2.012324 3.464901 -1.027127 3.872983 0 3.872983 
z
" id="mdee7f75aea" style="stroke:#ff7f0e;"/>
     </defs>
     <g>
      <use style="fill:#ff7f0e;stroke:#ff7f0e;" x="180.01" xlink:href="#mdee7f75aea" y="114.79125"/>
     </g>
    </g>
    <g id="text_12">
     <text style="font-family:DejaVu Sans;font-size:24px;font-stretch:normal;font-style:normal;font-weight:normal;text-anchor:start;" transform="rotate(-0, 223.21, 121.09125)" x="223.21" y="121.09125">ADNI</text>
    </g>
    <g id="PathCollection_12">
     <defs>
      <path d="M 0 3.872983 
C 1.027127 3.872983 2.012324 3.464901 2.738613 2.738613 
C 3.464901 2.012324 3.872983 1.027127 3.872983 0 
C 3.872983 -1.027127 3.464901 -2.012324 2.738613 -2.738613 
C 2.012324 -3.464901 1.027127 -3.872983 0 -3.872983 
C -1.027127 -3.872983 -2.012324 -3.464901 -2.738613 -2.738613 
C -3.464901 -2.012324 -3.872983 -1.027127 -3.872983 0 
C -3.872983 1.027127 -3.464901 2.012324 -2.738613 2.738613 
C -2.012324 3.464901 -1.027127 3.872983 0 3.872983 
z
" id="mc05c32d284" style="stroke:#2ca02c;"/>
     </defs>
     <g>
      <use style="fill:#2ca02c;stroke:#2ca02c;" x="180.01" xlink:href="#mc05c32d284" y="150.01875"/>
     </g>
    </g>
    <g id="text_13">
     <text style="font-family:DejaVu Sans;font-size:24px;font-stretch:normal;font-style:normal;font-weight:normal;text-anchor:start;" transform="rotate(-0, 223.21, 156.31875)" x="223.21" y="156.31875">NACC</text>
    </g>
   </g>
  </g>
 </g>
 <defs>
  <clipPath id="p2a076f9b3a">
   <rect height="268.554243" width="422.252122" x="134.41" y="10.8"/>
  </clipPath>
 </defs>
</svg>
