<?xml version="1.0" encoding="utf-8" standalone="no"?>
<!DOCTYPE svg PUBLIC "-//W3C//DTD SVG 1.1//EN"
  "http://www.w3.org/Graphics/SVG/1.1/DTD/svg11.dtd">
<!-- Created with matplotlib (https://matplotlib.org/) -->
<svg height="460.8pt" version="1.1" viewBox="0 0 576 460.8" width="576pt" xmlns="http://www.w3.org/2000/svg" xmlns:xlink="http://www.w3.org/1999/xlink">
 <metadata>
  <rdf:RDF xmlns:cc="http://creativecommons.org/ns#" xmlns:dc="http://purl.org/dc/elements/1.1/" xmlns:rdf="http://www.w3.org/1999/02/22-rdf-syntax-ns#">
   <cc:Work>
    <dc:type rdf:resource="http://purl.org/dc/dcmitype/StillImage"/>
    <dc:date>2022-02-13T16:43:13.169898</dc:date>
    <dc:format>image/svg+xml</dc:format>
    <dc:creator>
     <cc:Agent>
      <dc:title>Matplotlib v3.3.3, https://matplotlib.org/</dc:title>
     </cc:Agent>
    </dc:creator>
   </cc:Work>
  </rdf:RDF>
 </metadata>
 <defs>
  <style type="text/css">*{stroke-linecap:butt;stroke-linejoin:round;}</style>
 </defs>
 <g id="figure_1">
  <g id="patch_1">
   <path d="M 0 460.8 
L 576 460.8 
L 576 0 
L 0 0 
z
" style="fill:#ffffff;"/>
  </g>
  <g id="axes_1">
   <g id="patch_2">
    <path d="M 134.21 279.354243 
L 556.662122 279.354243 
L 556.662122 10.8 
L 134.21 10.8 
z
" style="fill:#ffffff;"/>
   </g>
   <g id="PathCollection_1"/>
   <g id="PathCollection_2"/>
   <g id="PolyCollection_1">
    <defs>
     <path d="M 187.016515 -195.174568 
L 181.941346 -195.174568 
L 181.299707 -196.36436 
L 180.591034 -197.554152 
L 179.810937 -198.743943 
L 178.95559 -199.933735 
L 178.021952 -201.123527 
L 177.007988 -202.313319 
L 175.912866 -203.503111 
L 174.737134 -204.692903 
L 173.482852 -205.882695 
L 172.153682 -207.072487 
L 170.75492 -208.262279 
L 169.293471 -209.452071 
L 167.777777 -210.641863 
L 166.217683 -211.831655 
L 164.624269 -213.021447 
L 163.009642 -214.211239 
L 161.386708 -215.40103 
L 159.768935 -216.590822 
L 158.170121 -217.780614 
L 156.604162 -218.970406 
L 155.084858 -220.160198 
L 153.625729 -221.34999 
L 152.239869 -222.539782 
L 150.939819 -223.729574 
L 149.737462 -224.919366 
L 148.643937 -226.109158 
L 147.669548 -227.29895 
L 146.823677 -228.488742 
L 146.11468 -229.678534 
L 145.549767 -230.868326 
L 145.13486 -232.058117 
L 144.874427 -233.247909 
L 144.771303 -234.437701 
L 144.826503 -235.627493 
L 145.039034 -236.817285 
L 145.405734 -238.007077 
L 145.921139 -239.196869 
L 146.577402 -240.386661 
L 147.364274 -241.576453 
L 148.269168 -242.766245 
L 149.277301 -243.956037 
L 150.371922 -245.145829 
L 151.534632 -246.335621 
L 152.745778 -247.525412 
L 153.984917 -248.715204 
L 155.23133 -249.904996 
L 156.464572 -251.094788 
L 157.665037 -252.28458 
L 158.814505 -253.474372 
L 159.896665 -254.664164 
L 160.89758 -255.853956 
L 161.806084 -257.043748 
L 162.614084 -258.23354 
L 163.31676 -259.423332 
L 163.912664 -260.613124 
L 164.403692 -261.802916 
L 164.794951 -262.992708 
L 165.094517 -264.182499 
L 165.313098 -265.372291 
L 165.463611 -266.562083 
L 165.560698 -267.751875 
L 165.620187 -268.941667 
L 165.658542 -270.131459 
L 165.692287 -271.321251 
L 165.737459 -272.511043 
L 165.809083 -273.700835 
L 165.920694 -274.890627 
L 166.083925 -276.080419 
L 166.308159 -277.270211 
L 166.600274 -278.460003 
L 166.964463 -279.649795 
L 167.402166 -280.839586 
L 167.912085 -282.029378 
L 168.490312 -283.21917 
L 169.130539 -284.408962 
L 169.82437 -285.598754 
L 170.561705 -286.788546 
L 171.331195 -287.978338 
L 172.120742 -289.16813 
L 172.91802 -290.357922 
L 173.711004 -291.547714 
L 174.488469 -292.737506 
L 175.240437 -293.927298 
L 175.958549 -295.11709 
L 176.636346 -296.306882 
L 177.269434 -297.496673 
L 177.855543 -298.686465 
L 178.394456 -299.876257 
L 178.887842 -301.066049 
L 179.33899 -302.255841 
L 179.752469 -303.445633 
L 180.133742 -304.635425 
L 180.488759 -305.825217 
L 180.823554 -307.015009 
L 181.143876 -308.204801 
L 181.454873 -309.394593 
L 181.760839 -310.584385 
L 182.065048 -311.774177 
L 182.369665 -312.963968 
L 187.016515 -312.963968 
L 187.016515 -312.963968 
L 187.016515 -311.774177 
L 187.016515 -310.584385 
L 187.016515 -309.394593 
L 187.016515 -308.204801 
L 187.016515 -307.015009 
L 187.016515 -305.825217 
L 187.016515 -304.635425 
L 187.016515 -303.445633 
L 187.016515 -302.255841 
L 187.016515 -301.066049 
L 187.016515 -299.876257 
L 187.016515 -298.686465 
L 187.016515 -297.496673 
L 187.016515 -296.306882 
L 187.016515 -295.11709 
L 187.016515 -293.927298 
L 187.016515 -292.737506 
L 187.016515 -291.547714 
L 187.016515 -290.357922 
L 187.016515 -289.16813 
L 187.016515 -287.978338 
L 187.016515 -286.788546 
L 187.016515 -285.598754 
L 187.016515 -284.408962 
L 187.016515 -283.21917 
L 187.016515 -282.029378 
L 187.016515 -280.839586 
L 187.016515 -279.649795 
L 187.016515 -278.460003 
L 187.016515 -277.270211 
L 187.016515 -276.080419 
L 187.016515 -274.890627 
L 187.016515 -273.700835 
L 187.016515 -272.511043 
L 187.016515 -271.321251 
L 187.016515 -270.131459 
L 187.016515 -268.941667 
L 187.016515 -267.751875 
L 187.016515 -266.562083 
L 187.016515 -265.372291 
L 187.016515 -264.182499 
L 187.016515 -262.992708 
L 187.016515 -261.802916 
L 187.016515 -260.613124 
L 187.016515 -259.423332 
L 187.016515 -258.23354 
L 187.016515 -257.043748 
L 187.016515 -255.853956 
L 187.016515 -254.664164 
L 187.016515 -253.474372 
L 187.016515 -252.28458 
L 187.016515 -251.094788 
L 187.016515 -249.904996 
L 187.016515 -248.715204 
L 187.016515 -247.525412 
L 187.016515 -246.335621 
L 187.016515 -245.145829 
L 187.016515 -243.956037 
L 187.016515 -242.766245 
L 187.016515 -241.576453 
L 187.016515 -240.386661 
L 187.016515 -239.196869 
L 187.016515 -238.007077 
L 187.016515 -236.817285 
L 187.016515 -235.627493 
L 187.016515 -234.437701 
L 187.016515 -233.247909 
L 187.016515 -232.058117 
L 187.016515 -230.868326 
L 187.016515 -229.678534 
L 187.016515 -228.488742 
L 187.016515 -227.29895 
L 187.016515 -226.109158 
L 187.016515 -224.919366 
L 187.016515 -223.729574 
L 187.016515 -222.539782 
L 187.016515 -221.34999 
L 187.016515 -220.160198 
L 187.016515 -218.970406 
L 187.016515 -217.780614 
L 187.016515 -216.590822 
L 187.016515 -215.40103 
L 187.016515 -214.211239 
L 187.016515 -213.021447 
L 187.016515 -211.831655 
L 187.016515 -210.641863 
L 187.016515 -209.452071 
L 187.016515 -208.262279 
L 187.016515 -207.072487 
L 187.016515 -205.882695 
L 187.016515 -204.692903 
L 187.016515 -203.503111 
L 187.016515 -202.313319 
L 187.016515 -201.123527 
L 187.016515 -199.933735 
L 187.016515 -198.743943 
L 187.016515 -197.554152 
L 187.016515 -196.36436 
L 187.016515 -195.174568 
z
" id="m968b5f6192" style="stroke:#3d3d3d;stroke-width:3;"/>
    </defs>
    <g clip-path="url(#p215ebf94a6)">
     <use style="fill:#e1812c;stroke:#3d3d3d;stroke-width:3;" x="0" xlink:href="#m968b5f6192" y="460.8"/>
    </g>
   </g>
   <g id="PolyCollection_2">
    <defs>
     <path d="M 292.629546 -201.282473 
L 278.732924 -201.282473 
L 277.393067 -202.717585 
L 275.994187 -204.152697 
L 274.541013 -205.587809 
L 273.039385 -207.022921 
L 271.49637 -208.458033 
L 269.920368 -209.893145 
L 268.321175 -211.328257 
L 266.709997 -212.763369 
L 265.099391 -214.198481 
L 263.503144 -215.633593 
L 261.936051 -217.068705 
L 260.413627 -218.503817 
L 258.951727 -219.938929 
L 257.566117 -221.374041 
L 256.271989 -222.809153 
L 255.083461 -224.244265 
L 254.013085 -225.679377 
L 253.071394 -227.114489 
L 252.266515 -228.549601 
L 251.603881 -229.984713 
L 251.08606 -231.419825 
L 250.712717 -232.854937 
L 250.48071 -234.290049 
L 250.384333 -235.725161 
L 250.415666 -237.160273 
L 250.56503 -238.595385 
L 250.82151 -240.030497 
L 251.173507 -241.465609 
L 251.609276 -242.900721 
L 252.117426 -244.335833 
L 252.687331 -245.770945 
L 253.309433 -247.206057 
L 253.975426 -248.641169 
L 254.678294 -250.076281 
L 255.41224 -251.511393 
L 256.172486 -252.946505 
L 256.955012 -254.381617 
L 257.756238 -255.816729 
L 258.572697 -257.251841 
L 259.400755 -258.686953 
L 260.236381 -260.122065 
L 261.075026 -261.557177 
L 261.911607 -262.992289 
L 262.740618 -264.427401 
L 263.556342 -265.862513 
L 264.353158 -267.297625 
L 265.125914 -268.732737 
L 265.870316 -270.167849 
L 266.583306 -271.602961 
L 267.263381 -273.038073 
L 267.910825 -274.473185 
L 268.527814 -275.908297 
L 269.118391 -277.343409 
L 269.688301 -278.778521 
L 270.244686 -280.213633 
L 270.795671 -281.648745 
L 271.349866 -283.083857 
L 271.915813 -284.518969 
L 272.501432 -285.954081 
L 273.11349 -287.389193 
L 273.757143 -288.824305 
L 274.43558 -290.259417 
L 275.14978 -291.694529 
L 275.89842 -293.129641 
L 276.677909 -294.564753 
L 277.482566 -295.999865 
L 278.304904 -297.434977 
L 279.136025 -298.870089 
L 279.966068 -300.305201 
L 280.784701 -301.740313 
L 281.58162 -303.175425 
L 282.347025 -304.610537 
L 283.072044 -306.045649 
L 283.749092 -307.480761 
L 284.372147 -308.915873 
L 284.936929 -310.350985 
L 285.440995 -311.786097 
L 285.883729 -313.221209 
L 286.26626 -314.656321 
L 286.591306 -316.091434 
L 286.862961 -317.526546 
L 287.086442 -318.961658 
L 287.267815 -320.39677 
L 287.41371 -321.831882 
L 287.531042 -323.266994 
L 287.626755 -324.702106 
L 287.707583 -326.137218 
L 287.779857 -327.57233 
L 287.849339 -329.007442 
L 287.921101 -330.442554 
L 287.999437 -331.877666 
L 288.087817 -333.312778 
L 288.18887 -334.74789 
L 288.304388 -336.183002 
L 288.43537 -337.618114 
L 288.582068 -339.053226 
L 288.744059 -340.488338 
L 288.920323 -341.92345 
L 289.109333 -343.358562 
L 292.629546 -343.358562 
L 292.629546 -343.358562 
L 292.629546 -341.92345 
L 292.629546 -340.488338 
L 292.629546 -339.053226 
L 292.629546 -337.618114 
L 292.629546 -336.183002 
L 292.629546 -334.74789 
L 292.629546 -333.312778 
L 292.629546 -331.877666 
L 292.629546 -330.442554 
L 292.629546 -329.007442 
L 292.629546 -327.57233 
L 292.629546 -326.137218 
L 292.629546 -324.702106 
L 292.629546 -323.266994 
L 292.629546 -321.831882 
L 292.629546 -320.39677 
L 292.629546 -318.961658 
L 292.629546 -317.526546 
L 292.629546 -316.091434 
L 292.629546 -314.656321 
L 292.629546 -313.221209 
L 292.629546 -311.786097 
L 292.629546 -310.350985 
L 292.629546 -308.915873 
L 292.629546 -307.480761 
L 292.629546 -306.045649 
L 292.629546 -304.610537 
L 292.629546 -303.175425 
L 292.629546 -301.740313 
L 292.629546 -300.305201 
L 292.629546 -298.870089 
L 292.629546 -297.434977 
L 292.629546 -295.999865 
L 292.629546 -294.564753 
L 292.629546 -293.129641 
L 292.629546 -291.694529 
L 292.629546 -290.259417 
L 292.629546 -288.824305 
L 292.629546 -287.389193 
L 292.629546 -285.954081 
L 292.629546 -284.518969 
L 292.629546 -283.083857 
L 292.629546 -281.648745 
L 292.629546 -280.213633 
L 292.629546 -278.778521 
L 292.629546 -277.343409 
L 292.629546 -275.908297 
L 292.629546 -274.473185 
L 292.629546 -273.038073 
L 292.629546 -271.602961 
L 292.629546 -270.167849 
L 292.629546 -268.732737 
L 292.629546 -267.297625 
L 292.629546 -265.862513 
L 292.629546 -264.427401 
L 292.629546 -262.992289 
L 292.629546 -261.557177 
L 292.629546 -260.122065 
L 292.629546 -258.686953 
L 292.629546 -257.251841 
L 292.629546 -255.816729 
L 292.629546 -254.381617 
L 292.629546 -252.946505 
L 292.629546 -251.511393 
L 292.629546 -250.076281 
L 292.629546 -248.641169 
L 292.629546 -247.206057 
L 292.629546 -245.770945 
L 292.629546 -244.335833 
L 292.629546 -242.900721 
L 292.629546 -241.465609 
L 292.629546 -240.030497 
L 292.629546 -238.595385 
L 292.629546 -237.160273 
L 292.629546 -235.725161 
L 292.629546 -234.290049 
L 292.629546 -232.854937 
L 292.629546 -231.419825 
L 292.629546 -229.984713 
L 292.629546 -228.549601 
L 292.629546 -227.114489 
L 292.629546 -225.679377 
L 292.629546 -224.244265 
L 292.629546 -222.809153 
L 292.629546 -221.374041 
L 292.629546 -219.938929 
L 292.629546 -218.503817 
L 292.629546 -217.068705 
L 292.629546 -215.633593 
L 292.629546 -214.198481 
L 292.629546 -212.763369 
L 292.629546 -211.328257 
L 292.629546 -209.893145 
L 292.629546 -208.458033 
L 292.629546 -207.022921 
L 292.629546 -205.587809 
L 292.629546 -204.152697 
L 292.629546 -202.717585 
L 292.629546 -201.282473 
z
" id="mfa70dc3b96" style="stroke:#3d3d3d;stroke-width:3;"/>
    </defs>
    <g clip-path="url(#p215ebf94a6)">
     <use style="fill:#e1812c;stroke:#3d3d3d;stroke-width:3;" x="0" xlink:href="#mfa70dc3b96" y="460.8"/>
    </g>
   </g>
   <g id="PolyCollection_3">
    <defs>
     <path d="M 398.242576 -200.102301 
L 370.342952 -200.102301 
L 368.65919 -201.538459 
L 367.043602 -202.974617 
L 365.511366 -204.410775 
L 364.075726 -205.846932 
L 362.747679 -207.28309 
L 361.53574 -208.719248 
L 360.445836 -210.155405 
L 359.481298 -211.591563 
L 358.642979 -213.027721 
L 357.929467 -214.463878 
L 357.337404 -215.900036 
L 356.861869 -217.336194 
L 356.496826 -218.772352 
L 356.235589 -220.208509 
L 356.071299 -221.644667 
L 355.997364 -223.080825 
L 356.007858 -224.516982 
L 356.09784 -225.95314 
L 356.263587 -227.389298 
L 356.502718 -228.825455 
L 356.814216 -230.261613 
L 357.198337 -231.697771 
L 357.656425 -233.133929 
L 358.190637 -234.570086 
L 358.803601 -236.006244 
L 359.498037 -237.442402 
L 360.276353 -238.878559 
L 361.140251 -240.314717 
L 362.090366 -241.750875 
L 363.12596 -243.187033 
L 364.244683 -244.62319 
L 365.442424 -246.059348 
L 366.713253 -247.495506 
L 368.049449 -248.931663 
L 369.441624 -250.367821 
L 370.878921 -251.803979 
L 372.349276 -253.240136 
L 373.839731 -254.676294 
L 375.336778 -256.112452 
L 376.826713 -257.54861 
L 378.295993 -258.984767 
L 379.731567 -260.420925 
L 381.121179 -261.857083 
L 382.453634 -263.29324 
L 383.719011 -264.729398 
L 384.908826 -266.165556 
L 386.016153 -267.601713 
L 387.035684 -269.037871 
L 387.963751 -270.474029 
L 388.798309 -271.910187 
L 389.538872 -273.346344 
L 390.186438 -274.782502 
L 390.743374 -276.21866 
L 391.213296 -277.654817 
L 391.600921 -279.090975 
L 391.911931 -280.527133 
L 392.152809 -281.96329 
L 392.330688 -283.399448 
L 392.453193 -284.835606 
L 392.528286 -286.271764 
L 392.56411 -287.707921 
L 392.568841 -289.144079 
L 392.550537 -290.580237 
L 392.517 -292.016394 
L 392.47564 -293.452552 
L 392.433343 -294.88871 
L 392.396355 -296.324867 
L 392.370174 -297.761025 
L 392.359458 -299.197183 
L 392.367949 -300.633341 
L 392.39842 -302.069498 
L 392.452641 -303.505656 
L 392.531379 -304.941814 
L 392.634419 -306.377971 
L 392.760617 -307.814129 
L 392.907982 -309.250287 
L 393.073789 -310.686444 
L 393.254705 -312.122602 
L 393.446955 -313.55876 
L 393.646479 -314.994918 
L 393.849117 -316.431075 
L 394.050782 -317.867233 
L 394.247633 -319.303391 
L 394.436225 -320.739548 
L 394.613645 -322.175706 
L 394.777618 -323.611864 
L 394.926575 -325.048021 
L 395.059692 -326.484179 
L 395.176893 -327.920337 
L 395.27881 -329.356495 
L 395.36672 -330.792652 
L 395.442444 -332.22881 
L 395.508235 -333.664968 
L 395.56664 -335.101125 
L 395.620359 -336.537283 
L 395.672106 -337.973441 
L 395.724476 -339.409599 
L 395.779819 -340.845756 
L 395.840147 -342.281914 
L 398.242576 -342.281914 
L 398.242576 -342.281914 
L 398.242576 -340.845756 
L 398.242576 -339.409599 
L 398.242576 -337.973441 
L 398.242576 -336.537283 
L 398.242576 -335.101125 
L 398.242576 -333.664968 
L 398.242576 -332.22881 
L 398.242576 -330.792652 
L 398.242576 -329.356495 
L 398.242576 -327.920337 
L 398.242576 -326.484179 
L 398.242576 -325.048021 
L 398.242576 -323.611864 
L 398.242576 -322.175706 
L 398.242576 -320.739548 
L 398.242576 -319.303391 
L 398.242576 -317.867233 
L 398.242576 -316.431075 
L 398.242576 -314.994918 
L 398.242576 -313.55876 
L 398.242576 -312.122602 
L 398.242576 -310.686444 
L 398.242576 -309.250287 
L 398.242576 -307.814129 
L 398.242576 -306.377971 
L 398.242576 -304.941814 
L 398.242576 -303.505656 
L 398.242576 -302.069498 
L 398.242576 -300.633341 
L 398.242576 -299.197183 
L 398.242576 -297.761025 
L 398.242576 -296.324867 
L 398.242576 -294.88871 
L 398.242576 -293.452552 
L 398.242576 -292.016394 
L 398.242576 -290.580237 
L 398.242576 -289.144079 
L 398.242576 -287.707921 
L 398.242576 -286.271764 
L 398.242576 -284.835606 
L 398.242576 -283.399448 
L 398.242576 -281.96329 
L 398.242576 -280.527133 
L 398.242576 -279.090975 
L 398.242576 -277.654817 
L 398.242576 -276.21866 
L 398.242576 -274.782502 
L 398.242576 -273.346344 
L 398.242576 -271.910187 
L 398.242576 -270.474029 
L 398.242576 -269.037871 
L 398.242576 -267.601713 
L 398.242576 -266.165556 
L 398.242576 -264.729398 
L 398.242576 -263.29324 
L 398.242576 -261.857083 
L 398.242576 -260.420925 
L 398.242576 -258.984767 
L 398.242576 -257.54861 
L 398.242576 -256.112452 
L 398.242576 -254.676294 
L 398.242576 -253.240136 
L 398.242576 -251.803979 
L 398.242576 -250.367821 
L 398.242576 -248.931663 
L 398.242576 -247.495506 
L 398.242576 -246.059348 
L 398.242576 -244.62319 
L 398.242576 -243.187033 
L 398.242576 -241.750875 
L 398.242576 -240.314717 
L 398.242576 -238.878559 
L 398.242576 -237.442402 
L 398.242576 -236.006244 
L 398.242576 -234.570086 
L 398.242576 -233.133929 
L 398.242576 -231.697771 
L 398.242576 -230.261613 
L 398.242576 -228.825455 
L 398.242576 -227.389298 
L 398.242576 -225.95314 
L 398.242576 -224.516982 
L 398.242576 -223.080825 
L 398.242576 -221.644667 
L 398.242576 -220.208509 
L 398.242576 -218.772352 
L 398.242576 -217.336194 
L 398.242576 -215.900036 
L 398.242576 -214.463878 
L 398.242576 -213.027721 
L 398.242576 -211.591563 
L 398.242576 -210.155405 
L 398.242576 -208.719248 
L 398.242576 -207.28309 
L 398.242576 -205.846932 
L 398.242576 -204.410775 
L 398.242576 -202.974617 
L 398.242576 -201.538459 
L 398.242576 -200.102301 
z
" id="ma1219e6f9b" style="stroke:#3d3d3d;stroke-width:3;"/>
    </defs>
    <g clip-path="url(#p215ebf94a6)">
     <use style="fill:#e1812c;stroke:#3d3d3d;stroke-width:3;" x="0" xlink:href="#ma1219e6f9b" y="460.8"/>
    </g>
   </g>
   <g id="PolyCollection_4">
    <defs>
     <path d="M 503.855607 -193.652768 
L 492.019915 -193.652768 
L 489.267179 -195.237937 
L 486.375747 -196.823106 
L 483.439621 -198.408275 
L 480.544733 -199.993445 
L 477.759707 -201.578614 
L 475.132 -203.163783 
L 472.68962 -204.748952 
L 470.446962 -206.334122 
L 468.412417 -207.919291 
L 466.595516 -209.50446 
L 465.012053 -211.089629 
L 463.686541 -212.674799 
L 462.651956 -214.259968 
L 461.946895 -215.845137 
L 461.610394 -217.430306 
L 461.674827 -219.015476 
L 462.157888 -220.600645 
L 463.055385 -222.185814 
L 464.336982 -223.770983 
L 465.946733 -225.356153 
L 467.809118 -226.941322 
L 469.839562 -228.526491 
L 471.956873 -230.111661 
L 474.094234 -231.69683 
L 476.205848 -233.281999 
L 478.267699 -234.867168 
L 480.272815 -236.452338 
L 482.223022 -238.037507 
L 484.119951 -239.622676 
L 485.957928 -241.207845 
L 487.720403 -242.793015 
L 489.380309 -244.378184 
L 490.903693 -245.963353 
L 492.255346 -247.548522 
L 493.405092 -249.133692 
L 494.333632 -250.718861 
L 495.03713 -252.30403 
L 495.529859 -253.889199 
L 495.844296 -255.474369 
L 496.028208 -257.059538 
L 496.138769 -258.644707 
L 496.23447 -260.229876 
L 496.366368 -261.815046 
L 496.570667 -263.400215 
L 496.864354 -264.985384 
L 497.244817 -266.570553 
L 497.693162 -268.155723 
L 498.179981 -269.740892 
L 498.671866 -271.326061 
L 499.13719 -272.91123 
L 499.550342 -274.4964 
L 499.894339 -276.081569 
L 500.162156 -277.666738 
L 500.357122 -279.251908 
L 500.492421 -280.837077 
L 500.589461 -282.422246 
L 500.674833 -284.007415 
L 500.775979 -285.592585 
L 500.916204 -287.177754 
L 501.110191 -288.762923 
L 501.361205 -290.348092 
L 501.660799 -291.933262 
L 501.991098 -293.518431 
L 502.328934 -295.1036 
L 502.650619 -296.688769 
L 502.936122 -298.273939 
L 503.171755 -299.859108 
L 503.351082 -301.444277 
L 503.474325 -303.029446 
L 503.54682 -304.614616 
L 503.577171 -306.199785 
L 503.575542 -307.784954 
L 503.55231 -309.370123 
L 503.517126 -310.955293 
L 503.478311 -312.540462 
L 503.442539 -314.125631 
L 503.414745 -315.7108 
L 503.398212 -317.29597 
L 503.394749 -318.881139 
L 503.404866 -320.466308 
L 503.427889 -322.051478 
L 503.461977 -323.636647 
L 503.504147 -325.221816 
L 503.550374 -326.806985 
L 503.595866 -328.392155 
L 503.63551 -329.977324 
L 503.664443 -331.562493 
L 503.678644 -333.147662 
L 503.675484 -334.732832 
L 503.654151 -336.318001 
L 503.615936 -337.90317 
L 503.564317 -339.488339 
L 503.504778 -341.073509 
L 503.444295 -342.658678 
L 503.390494 -344.243847 
L 503.350546 -345.829016 
L 503.330028 -347.414186 
L 503.331968 -348.999355 
L 503.356357 -350.584524 
L 503.855607 -350.584524 
L 503.855607 -350.584524 
L 503.855607 -348.999355 
L 503.855607 -347.414186 
L 503.855607 -345.829016 
L 503.855607 -344.243847 
L 503.855607 -342.658678 
L 503.855607 -341.073509 
L 503.855607 -339.488339 
L 503.855607 -337.90317 
L 503.855607 -336.318001 
L 503.855607 -334.732832 
L 503.855607 -333.147662 
L 503.855607 -331.562493 
L 503.855607 -329.977324 
L 503.855607 -328.392155 
L 503.855607 -326.806985 
L 503.855607 -325.221816 
L 503.855607 -323.636647 
L 503.855607 -322.051478 
L 503.855607 -320.466308 
L 503.855607 -318.881139 
L 503.855607 -317.29597 
L 503.855607 -315.7108 
L 503.855607 -314.125631 
L 503.855607 -312.540462 
L 503.855607 -310.955293 
L 503.855607 -309.370123 
L 503.855607 -307.784954 
L 503.855607 -306.199785 
L 503.855607 -304.614616 
L 503.855607 -303.029446 
L 503.855607 -301.444277 
L 503.855607 -299.859108 
L 503.855607 -298.273939 
L 503.855607 -296.688769 
L 503.855607 -295.1036 
L 503.855607 -293.518431 
L 503.855607 -291.933262 
L 503.855607 -290.348092 
L 503.855607 -288.762923 
L 503.855607 -287.177754 
L 503.855607 -285.592585 
L 503.855607 -284.007415 
L 503.855607 -282.422246 
L 503.855607 -280.837077 
L 503.855607 -279.251908 
L 503.855607 -277.666738 
L 503.855607 -276.081569 
L 503.855607 -274.4964 
L 503.855607 -272.91123 
L 503.855607 -271.326061 
L 503.855607 -269.740892 
L 503.855607 -268.155723 
L 503.855607 -266.570553 
L 503.855607 -264.985384 
L 503.855607 -263.400215 
L 503.855607 -261.815046 
L 503.855607 -260.229876 
L 503.855607 -258.644707 
L 503.855607 -257.059538 
L 503.855607 -255.474369 
L 503.855607 -253.889199 
L 503.855607 -252.30403 
L 503.855607 -250.718861 
L 503.855607 -249.133692 
L 503.855607 -247.548522 
L 503.855607 -245.963353 
L 503.855607 -244.378184 
L 503.855607 -242.793015 
L 503.855607 -241.207845 
L 503.855607 -239.622676 
L 503.855607 -238.037507 
L 503.855607 -236.452338 
L 503.855607 -234.867168 
L 503.855607 -233.281999 
L 503.855607 -231.69683 
L 503.855607 -230.111661 
L 503.855607 -228.526491 
L 503.855607 -226.941322 
L 503.855607 -225.356153 
L 503.855607 -223.770983 
L 503.855607 -222.185814 
L 503.855607 -220.600645 
L 503.855607 -219.015476 
L 503.855607 -217.430306 
L 503.855607 -215.845137 
L 503.855607 -214.259968 
L 503.855607 -212.674799 
L 503.855607 -211.089629 
L 503.855607 -209.50446 
L 503.855607 -207.919291 
L 503.855607 -206.334122 
L 503.855607 -204.748952 
L 503.855607 -203.163783 
L 503.855607 -201.578614 
L 503.855607 -199.993445 
L 503.855607 -198.408275 
L 503.855607 -196.823106 
L 503.855607 -195.237937 
L 503.855607 -193.652768 
z
" id="m7c8e114ada" style="stroke:#3d3d3d;stroke-width:3;"/>
    </defs>
    <g clip-path="url(#p215ebf94a6)">
     <use style="fill:#e1812c;stroke:#3d3d3d;stroke-width:3;" x="0" xlink:href="#m7c8e114ada" y="460.8"/>
    </g>
   </g>
   <g id="patch_3">
    <path clip-path="url(#p215ebf94a6)" d="M 187.016515 286.578653 
L 187.016515 286.578653 
L 187.016515 286.578653 
L 187.016515 286.578653 
z
" style="fill:#e1812c;stroke:#3d3d3d;stroke-linejoin:miter;stroke-width:1.5;"/>
   </g>
   <g id="patch_4">
    <path clip-path="url(#p215ebf94a6)" d="M 187.016515 286.578653 
L 187.016515 286.578653 
L 187.016515 286.578653 
L 187.016515 286.578653 
z
" style="fill:#3a923a;stroke:#3d3d3d;stroke-linejoin:miter;stroke-width:1.5;"/>
   </g>
   <g id="matplotlib.axis_1">
    <g id="xtick_1">
     <g id="line2d_1">
      <defs>
       <path d="M 0 0 
L 0 3.5 
" id="m2d4cb733da" style="stroke:#000000;stroke-width:0.8;"/>
      </defs>
      <g>
       <use style="stroke:#000000;stroke-width:0.8;" x="187.016515" xlink:href="#m2d4cb733da" y="279.354243"/>
      </g>
     </g>
     <g id="text_1">
      <text style="font-family:DejaVu Sans;font-size:32px;font-stretch:normal;font-style:normal;font-weight:normal;" transform="translate(129.362564 303.547545)rotate(-315)">&lt;2 years</text>
     </g>
    </g>
    <g id="xtick_2">
     <g id="line2d_2">
      <g>
       <use style="stroke:#000000;stroke-width:0.8;" x="292.629546" xlink:href="#m2d4cb733da" y="279.354243"/>
      </g>
     </g>
     <g id="text_2">
      <text style="font-family:DejaVu Sans;font-size:32px;font-stretch:normal;font-style:normal;font-weight:normal;" transform="translate(234.975594 303.547545)rotate(-315)">&lt;4 years</text>
     </g>
    </g>
    <g id="xtick_3">
     <g id="line2d_3">
      <g>
       <use style="stroke:#000000;stroke-width:0.8;" x="398.242576" xlink:href="#m2d4cb733da" y="279.354243"/>
      </g>
     </g>
     <g id="text_3">
      <text style="font-family:DejaVu Sans;font-size:32px;font-stretch:normal;font-style:normal;font-weight:normal;" transform="translate(340.588625 303.547545)rotate(-315)">≥4 years</text>
     </g>
    </g>
    <g id="xtick_4">
     <g id="line2d_4">
      <g>
       <use style="stroke:#000000;stroke-width:0.8;" x="503.855607" xlink:href="#m2d4cb733da" y="279.354243"/>
      </g>
     </g>
     <g id="text_4">
      <text style="font-family:DejaVu Sans;font-size:32px;font-stretch:normal;font-style:normal;font-weight:normal;" transform="translate(444.223524 303.547545)rotate(-315)">Censored</text>
     </g>
    </g>
    <g id="text_5">
     <text style="font-family:DejaVu Sans;font-size:32px;font-stretch:normal;font-style:normal;font-weight:normal;text-anchor:middle;" transform="rotate(-0, 345.436061, 443.345)" x="345.436061" y="443.345">Years since diagnosis</text>
    </g>
   </g>
   <g id="matplotlib.axis_2">
    <g id="ytick_1">
     <g id="line2d_5">
      <defs>
       <path d="M 0 0 
L -3.5 0 
" id="m1c9417c55f" style="stroke:#000000;stroke-width:0.8;"/>
      </defs>
      <g>
       <use style="stroke:#000000;stroke-width:0.8;" x="134.21" xlink:href="#m1c9417c55f" y="183.054835"/>
      </g>
     </g>
     <g id="text_6">
      <text style="font-family:DejaVu Sans;font-size:32px;font-stretch:normal;font-style:normal;font-weight:normal;text-anchor:end;" transform="rotate(-0, 127.21, 195.212335)" x="127.21" y="195.212335">500</text>
     </g>
    </g>
    <g id="ytick_2">
     <g id="line2d_6">
      <g>
       <use style="stroke:#000000;stroke-width:0.8;" x="134.21" xlink:href="#m1c9417c55f" y="79.531016"/>
      </g>
     </g>
     <g id="text_7">
      <text style="font-family:DejaVu Sans;font-size:32px;font-stretch:normal;font-style:normal;font-weight:normal;text-anchor:end;" transform="rotate(-0, 127.21, 91.688516)" x="127.21" y="91.688516">1000</text>
     </g>
    </g>
    <g id="text_8">
     <text style="font-family:DejaVu Sans;font-size:32px;font-stretch:normal;font-style:normal;font-weight:normal;text-anchor:middle;" transform="rotate(-90, 35.115, 145.077122)" x="35.115" y="145.077122">t-tau (pg/mL)</text>
    </g>
   </g>
   <g id="line2d_7">
    <path clip-path="url(#p215ebf94a6)" d="M 148.063018 233.238006 
L 187.016515 233.238006 
" style="fill:none;stroke:#3d3d3d;stroke-dasharray:13.5,13.5;stroke-dashoffset:0;stroke-width:3;"/>
   </g>
   <g id="line2d_8">
    <path clip-path="url(#p215ebf94a6)" d="M 148.656642 218.532447 
L 187.016515 218.532447 
" style="fill:none;stroke:#3d3d3d;stroke-dasharray:27,27;stroke-dashoffset:0;stroke-width:3;"/>
   </g>
   <g id="line2d_9">
    <path clip-path="url(#p215ebf94a6)" d="M 165.834151 192.040702 
L 187.016515 192.040702 
" style="fill:none;stroke:#3d3d3d;stroke-dasharray:13.5,13.5;stroke-dashoffset:0;stroke-width:3;"/>
   </g>
   <g id="line2d_10">
    <path clip-path="url(#p215ebf94a6)" d="M 252.670145 231.648915 
L 292.629546 231.648915 
" style="fill:none;stroke:#3d3d3d;stroke-dasharray:13.5,13.5;stroke-dashoffset:0;stroke-width:3;"/>
   </g>
   <g id="line2d_11">
    <path clip-path="url(#p215ebf94a6)" d="M 252.522547 216.037523 
L 292.629546 216.037523 
" style="fill:none;stroke:#3d3d3d;stroke-dasharray:27,27;stroke-dashoffset:0;stroke-width:3;"/>
   </g>
   <g id="line2d_12">
    <path clip-path="url(#p215ebf94a6)" d="M 265.40095 192.599731 
L 292.629546 192.599731 
" style="fill:none;stroke:#3d3d3d;stroke-dasharray:13.5,13.5;stroke-dashoffset:0;stroke-width:3;"/>
   </g>
   <g id="line2d_13">
    <path clip-path="url(#p215ebf94a6)" d="M 358.332598 246.473526 
L 398.242576 246.473526 
" style="fill:none;stroke:#3d3d3d;stroke-dasharray:13.5,13.5;stroke-dashoffset:0;stroke-width:3;"/>
   </g>
   <g id="line2d_14">
    <path clip-path="url(#p215ebf94a6)" d="M 357.608779 229.122934 
L 398.242576 229.122934 
" style="fill:none;stroke:#3d3d3d;stroke-dasharray:27,27;stroke-dashoffset:0;stroke-width:3;"/>
   </g>
   <g id="line2d_15">
    <path clip-path="url(#p215ebf94a6)" d="M 363.477126 217.383333 
L 398.242576 217.383333 
" style="fill:none;stroke:#3d3d3d;stroke-dasharray:13.5,13.5;stroke-dashoffset:0;stroke-width:3;"/>
   </g>
   <g id="line2d_16">
    <path clip-path="url(#p215ebf94a6)" d="M 465.400488 250.402255 
L 503.855607 250.402255 
" style="fill:none;stroke:#3d3d3d;stroke-dasharray:13.5,13.5;stroke-dashoffset:0;stroke-width:3;"/>
   </g>
   <g id="line2d_17">
    <path clip-path="url(#p215ebf94a6)" d="M 463.463388 239.185449 
L 503.855607 239.185449 
" style="fill:none;stroke:#3d3d3d;stroke-dasharray:27,27;stroke-dashoffset:0;stroke-width:3;"/>
   </g>
   <g id="line2d_18">
    <path clip-path="url(#p215ebf94a6)" d="M 478.523578 225.453014 
L 503.855607 225.453014 
" style="fill:none;stroke:#3d3d3d;stroke-dasharray:13.5,13.5;stroke-dashoffset:0;stroke-width:3;"/>
   </g>
   <g id="PathCollection_3">
    <defs>
     <path d="M 0 2.5 
C 0.663008 2.5 1.29895 2.236584 1.767767 1.767767 
C 2.236584 1.29895 2.5 0.663008 2.5 -0 
C 2.5 -0.663008 2.236584 -1.29895 1.767767 -1.767767 
C 1.29895 -2.236584 0.663008 -2.5 0 -2.5 
C -0.663008 -2.5 -1.29895 -2.236584 -1.767767 -1.767767 
C -2.236584 -1.29895 -2.5 -0.663008 -2.5 0 
C -2.5 0.663008 -2.236584 1.29895 -1.767767 1.767767 
C -1.29895 2.236584 -0.663008 2.5 0 2.5 
z
" id="C0_0_3243bb9ead"/>
    </defs>
   </g>
   <g id="PathCollection_4">
    <defs>
     <path d="M 0 2.5 
C 0.663008 2.5 1.29895 2.236584 1.767767 1.767767 
C 2.236584 1.29895 2.5 0.663008 2.5 -0 
C 2.5 -0.663008 2.236584 -1.29895 1.767767 -1.767767 
C 1.29895 -2.236584 0.663008 -2.5 0 -2.5 
C -0.663008 -2.5 -1.29895 -2.236584 -1.767767 -1.767767 
C -2.236584 -1.29895 -2.5 -0.663008 -2.5 0 
C -2.5 0.663008 -2.236584 1.29895 -1.767767 1.767767 
C -1.29895 2.236584 -0.663008 2.5 0 2.5 
z
" id="C1_0_b8d4fee422"/>
    </defs>
    <g clip-path="url(#p215ebf94a6)">
     <use style="fill:#2ca02c;" x="208.139121" xlink:href="#C1_0_b8d4fee422" y="186.574644"/>
    </g>
    <g clip-path="url(#p215ebf94a6)">
     <use style="fill:#2ca02c;" x="208.139121" xlink:href="#C1_0_b8d4fee422" y="169.389691"/>
    </g>
    <g clip-path="url(#p215ebf94a6)">
     <use style="fill:#2ca02c;" x="208.139121" xlink:href="#C1_0_b8d4fee422" y="165.455785"/>
    </g>
    <g clip-path="url(#p215ebf94a6)">
     <use style="fill:#2ca02c;" x="208.139121" xlink:href="#C1_0_b8d4fee422" y="154.689308"/>
    </g>
    <g clip-path="url(#p215ebf94a6)">
     <use style="fill:#2ca02c;" x="208.139121" xlink:href="#C1_0_b8d4fee422" y="117.213686"/>
    </g>
    <g clip-path="url(#p215ebf94a6)">
     <use style="fill:#2ca02c;" x="208.139121" xlink:href="#C1_0_b8d4fee422" y="23.007011"/>
    </g>
   </g>
   <g id="PathCollection_5">
    <defs>
     <path d="M 0 2.5 
C 0.663008 2.5 1.29895 2.236584 1.767767 1.767767 
C 2.236584 1.29895 2.5 0.663008 2.5 -0 
C 2.5 -0.663008 2.236584 -1.29895 1.767767 -1.767767 
C 1.29895 -2.236584 0.663008 -2.5 0 -2.5 
C -0.663008 -2.5 -1.29895 -2.236584 -1.767767 -1.767767 
C -2.236584 -1.29895 -2.5 -0.663008 -2.5 0 
C -2.5 0.663008 -2.236584 1.29895 -1.767767 1.767767 
C -1.29895 2.236584 -0.663008 2.5 0 2.5 
z
" id="C2_0_053ffba340"/>
    </defs>
   </g>
   <g id="PathCollection_6">
    <defs>
     <path d="M 0 2.5 
C 0.663008 2.5 1.29895 2.236584 1.767767 1.767767 
C 2.236584 1.29895 2.5 0.663008 2.5 -0 
C 2.5 -0.663008 2.236584 -1.29895 1.767767 -1.767767 
C 1.29895 -2.236584 0.663008 -2.5 0 -2.5 
C -0.663008 -2.5 -1.29895 -2.236584 -1.767767 -1.767767 
C -2.236584 -1.29895 -2.5 -0.663008 -2.5 0 
C -2.5 0.663008 -2.236584 1.29895 -1.767767 1.767767 
C -1.29895 2.236584 -0.663008 2.5 0 2.5 
z
" id="C3_0_9d90a41b21"/>
    </defs>
    <g clip-path="url(#p215ebf94a6)">
     <use style="fill:#2ca02c;" x="313.752152" xlink:href="#C3_0_9d90a41b21" y="229.847601"/>
    </g>
    <g clip-path="url(#p215ebf94a6)">
     <use style="fill:#2ca02c;" x="313.752152" xlink:href="#C3_0_9d90a41b21" y="146.61445"/>
    </g>
    <g clip-path="url(#p215ebf94a6)">
     <use style="fill:#2ca02c;" x="313.752152" xlink:href="#C3_0_9d90a41b21" y="42.676537"/>
    </g>
   </g>
   <g id="PathCollection_7">
    <defs>
     <path d="M 0 2.5 
C 0.663008 2.5 1.29895 2.236584 1.767767 1.767767 
C 2.236584 1.29895 2.5 0.663008 2.5 -0 
C 2.5 -0.663008 2.236584 -1.29895 1.767767 -1.767767 
C 1.29895 -2.236584 0.663008 -2.5 0 -2.5 
C -0.663008 -2.5 -1.29895 -2.236584 -1.767767 -1.767767 
C -2.236584 -1.29895 -2.5 -0.663008 -2.5 0 
C -2.5 0.663008 -2.236584 1.29895 -1.767767 1.767767 
C -1.29895 2.236584 -0.663008 2.5 0 2.5 
z
" id="C4_0_bdaa9ec5ba"/>
    </defs>
   </g>
   <g id="PathCollection_8">
    <defs>
     <path d="M 0 2.5 
C 0.663008 2.5 1.29895 2.236584 1.767767 1.767767 
C 2.236584 1.29895 2.5 0.663008 2.5 -0 
C 2.5 -0.663008 2.236584 -1.29895 1.767767 -1.767767 
C 1.29895 -2.236584 0.663008 -2.5 0 -2.5 
C -0.663008 -2.5 -1.29895 -2.236584 -1.767767 -1.767767 
C -2.236584 -1.29895 -2.5 -0.663008 -2.5 0 
C -2.5 0.663008 -2.236584 1.29895 -1.767767 1.767767 
C -1.29895 2.236584 -0.663008 2.5 0 2.5 
z
" id="C5_0_a2a01799f5"/>
    </defs>
    <g clip-path="url(#p215ebf94a6)">
     <use style="fill:#2ca02c;" x="419.365182" xlink:href="#C5_0_a2a01799f5" y="229.847601"/>
    </g>
    <g clip-path="url(#p215ebf94a6)">
     <use style="fill:#2ca02c;" x="419.365182" xlink:href="#C5_0_a2a01799f5" y="193.614264"/>
    </g>
    <g clip-path="url(#p215ebf94a6)">
     <use style="fill:#2ca02c;" x="419.365182" xlink:href="#C5_0_a2a01799f5" y="58.826252"/>
    </g>
   </g>
   <g id="PathCollection_9">
    <defs>
     <path d="M 0 2.5 
C 0.663008 2.5 1.29895 2.236584 1.767767 1.767767 
C 2.236584 1.29895 2.5 0.663008 2.5 -0 
C 2.5 -0.663008 2.236584 -1.29895 1.767767 -1.767767 
C 1.29895 -2.236584 0.663008 -2.5 0 -2.5 
C -0.663008 -2.5 -1.29895 -2.236584 -1.767767 -1.767767 
C -2.236584 -1.29895 -2.5 -0.663008 -2.5 0 
C -2.5 0.663008 -2.236584 1.29895 -1.767767 1.767767 
C -1.29895 2.236584 -0.663008 2.5 0 2.5 
z
" id="C6_0_f9460b55a9"/>
    </defs>
   </g>
   <g id="PathCollection_10">
    <defs>
     <path d="M 0 2.5 
C 0.663008 2.5 1.29895 2.236584 1.767767 1.767767 
C 2.236584 1.29895 2.5 0.663008 2.5 -0 
C 2.5 -0.663008 2.236584 -1.29895 1.767767 -1.767767 
C 1.29895 -2.236584 0.663008 -2.5 0 -2.5 
C -0.663008 -2.5 -1.29895 -2.236584 -1.767767 -1.767767 
C -2.236584 -1.29895 -2.5 -0.663008 -2.5 0 
C -2.5 0.663008 -2.236584 1.29895 -1.767767 1.767767 
C -1.29895 2.236584 -0.663008 2.5 0 2.5 
z
" id="C7_0_5a1e433972"/>
    </defs>
    <g clip-path="url(#p215ebf94a6)">
     <use style="fill:#2ca02c;" x="524.978213" xlink:href="#C7_0_5a1e433972" y="241.649316"/>
    </g>
    <g clip-path="url(#p215ebf94a6)">
     <use style="fill:#2ca02c;" x="520.094011" xlink:href="#C7_0_5a1e433972" y="241.028173"/>
    </g>
    <g clip-path="url(#p215ebf94a6)">
     <use style="fill:#2ca02c;" x="524.978213" xlink:href="#C7_0_5a1e433972" y="227.984172"/>
    </g>
    <g clip-path="url(#p215ebf94a6)">
     <use style="fill:#2ca02c;" x="524.978213" xlink:href="#C7_0_5a1e433972" y="221.565695"/>
    </g>
    <g clip-path="url(#p215ebf94a6)">
     <use style="fill:#2ca02c;" x="524.978213" xlink:href="#C7_0_5a1e433972" y="194.028359"/>
    </g>
    <g clip-path="url(#p215ebf94a6)">
     <use style="fill:#2ca02c;" x="524.978213" xlink:href="#C7_0_5a1e433972" y="171.046072"/>
    </g>
    <g clip-path="url(#p215ebf94a6)">
     <use style="fill:#2ca02c;" x="520.487064" xlink:href="#C7_0_5a1e433972" y="169.596738"/>
    </g>
    <g clip-path="url(#p215ebf94a6)">
     <use style="fill:#2ca02c;" x="524.978213" xlink:href="#C7_0_5a1e433972" y="111.416352"/>
    </g>
    <g clip-path="url(#p215ebf94a6)">
     <use style="fill:#2ca02c;" x="524.978213" xlink:href="#C7_0_5a1e433972" y="32.945298"/>
    </g>
   </g>
   <g id="legend_1">
    <g id="patch_5">
     <path d="M 273.301061 170.91 
L 417.571061 170.91 
Q 422.371061 170.91 422.371061 166.11 
L 422.371061 27.6 
Q 422.371061 22.8 417.571061 22.8 
L 273.301061 22.8 
Q 268.501061 22.8 268.501061 27.6 
L 268.501061 166.11 
Q 268.501061 170.91 273.301061 170.91 
z
" style="fill:#ffffff;opacity:0.8;stroke:#cccccc;stroke-linejoin:miter;"/>
    </g>
    <g id="patch_6">
     <path d="M 278.101061 50.63625 
L 326.101061 50.63625 
L 326.101061 33.83625 
L 278.101061 33.83625 
z
" style="fill:#e1812c;stroke:#3d3d3d;stroke-linejoin:miter;stroke-width:1.5;"/>
    </g>
    <g id="text_9">
     <text style="font-family:DejaVu Sans;font-size:24px;font-stretch:normal;font-style:normal;font-weight:normal;text-anchor:start;" transform="rotate(-0, 345.301061, 50.63625)" x="345.301061" y="50.63625">ADNI</text>
    </g>
    <g id="patch_7">
     <path d="M 278.101061 85.86375 
L 326.101061 85.86375 
L 326.101061 69.06375 
L 278.101061 69.06375 
z
" style="fill:#3a923a;stroke:#3d3d3d;stroke-linejoin:miter;stroke-width:1.5;"/>
    </g>
    <g id="text_10">
     <text style="font-family:DejaVu Sans;font-size:24px;font-stretch:normal;font-style:normal;font-weight:normal;text-anchor:start;" transform="rotate(-0, 345.301061, 85.86375)" x="345.301061" y="85.86375">NACC</text>
    </g>
    <g id="PathCollection_11">
     <defs>
      <path d="M 0 3.872983 
C 1.027127 3.872983 2.012324 3.464901 2.738613 2.738613 
C 3.464901 2.012324 3.872983 1.027127 3.872983 0 
C 3.872983 -1.027127 3.464901 -2.012324 2.738613 -2.738613 
C 2.012324 -3.464901 1.027127 -3.872983 0 -3.872983 
C -1.027127 -3.872983 -2.012324 -3.464901 -2.738613 -2.738613 
C -3.464901 -2.012324 -3.872983 -1.027127 -3.872983 0 
C -3.872983 1.027127 -3.464901 2.012324 -2.738613 2.738613 
C -2.012324 3.464901 -1.027127 3.872983 0 3.872983 
z
" id="m5d8468f311" style="stroke:#ff7f0e;"/>
     </defs>
     <g>
      <use style="fill:#ff7f0e;stroke:#ff7f0e;" x="302.101061" xlink:href="#m5d8468f311" y="114.79125"/>
     </g>
    </g>
    <g id="text_11">
     <text style="font-family:DejaVu Sans;font-size:24px;font-stretch:normal;font-style:normal;font-weight:normal;text-anchor:start;" transform="rotate(-0, 345.301061, 121.09125)" x="345.301061" y="121.09125">ADNI</text>
    </g>
    <g id="PathCollection_12">
     <defs>
      <path d="M 0 3.872983 
C 1.027127 3.872983 2.012324 3.464901 2.738613 2.738613 
C 3.464901 2.012324 3.872983 1.027127 3.872983 0 
C 3.872983 -1.027127 3.464901 -2.012324 2.738613 -2.738613 
C 2.012324 -3.464901 1.027127 -3.872983 0 -3.872983 
C -1.027127 -3.872983 -2.012324 -3.464901 -2.738613 -2.738613 
C -3.464901 -2.012324 -3.872983 -1.027127 -3.872983 0 
C -3.872983 1.027127 -3.464901 2.012324 -2.738613 2.738613 
C -2.012324 3.464901 -1.027127 3.872983 0 3.872983 
z
" id="m840ebade14" style="stroke:#2ca02c;"/>
     </defs>
     <g>
      <use style="fill:#2ca02c;stroke:#2ca02c;" x="302.101061" xlink:href="#m840ebade14" y="150.01875"/>
     </g>
    </g>
    <g id="text_12">
     <text style="font-family:DejaVu Sans;font-size:24px;font-stretch:normal;font-style:normal;font-weight:normal;text-anchor:start;" transform="rotate(-0, 345.301061, 156.31875)" x="345.301061" y="156.31875">NACC</text>
    </g>
   </g>
  </g>
 </g>
 <defs>
  <clipPath id="p215ebf94a6">
   <rect height="268.554243" width="422.452122" x="134.21" y="10.8"/>
  </clipPath>
 </defs>
</svg>
