<?xml version="1.0" encoding="utf-8" standalone="no"?>
<!DOCTYPE svg PUBLIC "-//W3C//DTD SVG 1.1//EN"
  "http://www.w3.org/Graphics/SVG/1.1/DTD/svg11.dtd">
<!-- Created with matplotlib (https://matplotlib.org/) -->
<svg height="460.8pt" version="1.1" viewBox="0 0 576 460.8" width="576pt" xmlns="http://www.w3.org/2000/svg" xmlns:xlink="http://www.w3.org/1999/xlink">
 <metadata>
  <rdf:RDF xmlns:cc="http://creativecommons.org/ns#" xmlns:dc="http://purl.org/dc/elements/1.1/" xmlns:rdf="http://www.w3.org/1999/02/22-rdf-syntax-ns#">
   <cc:Work>
    <dc:type rdf:resource="http://purl.org/dc/dcmitype/StillImage"/>
    <dc:date>2022-01-12T15:37:43.183163</dc:date>
    <dc:format>image/svg+xml</dc:format>
    <dc:creator>
     <cc:Agent>
      <dc:title>Matplotlib v3.3.3, https://matplotlib.org/</dc:title>
     </cc:Agent>
    </dc:creator>
   </cc:Work>
  </rdf:RDF>
 </metadata>
 <defs>
  <style type="text/css">*{stroke-linecap:butt;stroke-linejoin:round;}</style>
 </defs>
 <g id="figure_1">
  <g id="patch_1">
   <path d="M 0 460.8 
L 576 460.8 
L 576 0 
L 0 0 
z
" style="fill:#ffffff;"/>
  </g>
  <g id="axes_1">
   <g id="patch_2">
    <path d="M 124.02 377.06 
L 528.29625 377.06 
L 528.29625 41.77 
L 124.02 41.77 
z
" style="fill:#ffffff;"/>
   </g>
   <g id="PolyCollection_1">
    <defs>
     <path d="M 142.396193 -403.789545 
L 142.396193 -403.789545 
L 162.814186 -403.789545 
L 162.814186 -344.89752 
L 183.232178 -344.89752 
L 183.232178 -297.812034 
L 203.65017 -297.812034 
L 203.65017 -283.661972 
L 224.068163 -283.661972 
L 224.068163 -233.685543 
L 264.904148 -233.685543 
L 264.904148 -197.455647 
L 305.740133 -197.455647 
L 305.740133 -180.195405 
L 346.576117 -180.195405 
L 346.576117 -180.195405 
L 387.412102 -180.195405 
L 387.412102 -137.608453 
L 428.248087 -137.608453 
L 428.248087 -137.608453 
L 469.084072 -137.608453 
L 469.084072 -98.980455 
L 509.920057 -98.980455 
L 509.920057 -98.980455 
L 509.920057 -188.929556 
L 509.920057 -188.929556 
L 509.920057 -188.929556 
L 469.084072 -188.929556 
L 469.084072 -213.497969 
L 428.248087 -213.497969 
L 428.248087 -213.497969 
L 387.412102 -213.497969 
L 387.412102 -243.005642 
L 346.576117 -243.005642 
L 346.576117 -243.005642 
L 305.740133 -243.005642 
L 305.740133 -259.051709 
L 264.904148 -259.051709 
L 264.904148 -292.463206 
L 224.068163 -292.463206 
L 224.068163 -334.979026 
L 203.65017 -334.979026 
L 203.65017 -345.702301 
L 183.232178 -345.702301 
L 183.232178 -381.023993 
L 162.814186 -381.023993 
L 162.814186 -403.789545 
L 142.396193 -403.789545 
z
" id="m2d02eedd85" style="stroke:#d0bbff;stroke-opacity:0.2;"/>
    </defs>
    <g clip-path="url(#p0eee32d220)">
     <use style="fill:#d0bbff;fill-opacity:0.2;stroke:#d0bbff;stroke-opacity:0.2;" x="0" xlink:href="#m2d02eedd85" y="460.8"/>
    </g>
   </g>
   <g id="PolyCollection_2">
    <defs>
     <path d="M 142.396193 -403.789545 
L 142.396193 -403.789545 
L 162.814186 -403.789545 
L 162.814186 -383.975937 
L 183.232178 -383.975937 
L 183.232178 -374.009405 
L 203.65017 -374.009405 
L 203.65017 -369.97314 
L 224.068163 -369.97314 
L 224.068163 -366.087034 
L 264.904148 -366.087034 
L 264.904148 -361.465522 
L 305.740133 -361.465522 
L 305.740133 -350.573202 
L 346.576117 -350.573202 
L 346.576117 -350.573202 
L 387.412102 -350.573202 
L 387.412102 -339.60267 
L 428.248087 -339.60267 
L 428.248087 -305.188623 
L 469.084072 -305.188623 
L 469.084072 -305.188623 
L 509.920057 -305.188623 
L 509.920057 -305.188623 
L 509.920057 -370.015449 
L 509.920057 -370.015449 
L 509.920057 -370.015449 
L 469.084072 -370.015449 
L 469.084072 -370.015449 
L 428.248087 -370.015449 
L 428.248087 -384.173881 
L 387.412102 -384.173881 
L 387.412102 -387.766859 
L 346.576117 -387.766859 
L 346.576117 -387.766859 
L 305.740133 -387.766859 
L 305.740133 -392.740467 
L 264.904148 -392.740467 
L 264.904148 -394.842481 
L 224.068163 -394.842481 
L 224.068163 -396.681742 
L 203.65017 -396.681742 
L 203.65017 -398.424001 
L 183.232178 -398.424001 
L 183.232178 -402.51335 
L 162.814186 -402.51335 
L 162.814186 -403.789545 
L 142.396193 -403.789545 
z
" id="m4d56a0d7d5" style="stroke:#debb9b;stroke-opacity:0.2;"/>
    </defs>
    <g clip-path="url(#p0eee32d220)">
     <use style="fill:#debb9b;fill-opacity:0.2;stroke:#debb9b;stroke-opacity:0.2;" x="0" xlink:href="#m4d56a0d7d5" y="460.8"/>
    </g>
   </g>
   <g id="matplotlib.axis_1">
    <g id="xtick_1">
     <g id="line2d_1">
      <defs>
       <path d="M 0 0 
L 0 3.5 
" id="mbd2fc7deed" style="stroke:#000000;stroke-width:0.8;"/>
      </defs>
      <g>
       <use style="stroke:#000000;stroke-width:0.8;" x="142.396193" xlink:href="#mbd2fc7deed" y="377.06"/>
      </g>
     </g>
     <g id="text_1">
      <text style="font-family:DejaVu Sans;font-size:32px;font-stretch:normal;font-style:normal;font-weight:normal;text-anchor:middle;" transform="rotate(-0, 142.396193, 408.375)" x="142.396193" y="408.375">0</text>
     </g>
    </g>
    <g id="xtick_2">
     <g id="line2d_2">
      <g>
       <use style="stroke:#000000;stroke-width:0.8;" x="312.54613" xlink:href="#mbd2fc7deed" y="377.06"/>
      </g>
     </g>
     <g id="text_2">
      <text style="font-family:DejaVu Sans;font-size:32px;font-stretch:normal;font-style:normal;font-weight:normal;text-anchor:middle;" transform="rotate(-0, 312.54613, 408.375)" x="312.54613" y="408.375">50</text>
     </g>
    </g>
    <g id="xtick_3">
     <g id="line2d_3">
      <g>
       <use style="stroke:#000000;stroke-width:0.8;" x="482.696067" xlink:href="#mbd2fc7deed" y="377.06"/>
      </g>
     </g>
     <g id="text_3">
      <text style="font-family:DejaVu Sans;font-size:32px;font-stretch:normal;font-style:normal;font-weight:normal;text-anchor:middle;" transform="rotate(-0, 482.696067, 408.375)" x="482.696067" y="408.375">100</text>
     </g>
    </g>
    <g id="text_4">
     <text style="font-family:DejaVu Sans;font-size:32px;font-stretch:normal;font-style:normal;font-weight:normal;text-anchor:middle;" transform="rotate(-0, 326.158125, 443.345)" x="326.158125" y="443.345">Months since MCI visit</text>
    </g>
   </g>
   <g id="matplotlib.axis_2">
    <g id="ytick_1">
     <g id="line2d_4">
      <defs>
       <path d="M 0 0 
L -3.5 0 
" id="m69d8f0fb35" style="stroke:#000000;stroke-width:0.8;"/>
      </defs>
      <g>
       <use style="stroke:#000000;stroke-width:0.8;" x="124.02" xlink:href="#m69d8f0fb35" y="300.508201"/>
      </g>
     </g>
     <g id="text_5">
      <text style="font-family:DejaVu Sans;font-size:32px;font-stretch:normal;font-style:normal;font-weight:normal;text-anchor:end;" transform="rotate(-0, 117.02, 312.665701)" x="117.02" y="312.665701">0.25</text>
     </g>
    </g>
    <g id="ytick_2">
     <g id="line2d_5">
      <g>
       <use style="stroke:#000000;stroke-width:0.8;" x="124.02" xlink:href="#m69d8f0fb35" y="219.342285"/>
      </g>
     </g>
     <g id="text_6">
      <text style="font-family:DejaVu Sans;font-size:32px;font-stretch:normal;font-style:normal;font-weight:normal;text-anchor:end;" transform="rotate(-0, 117.02, 231.499785)" x="117.02" y="231.499785">0.50</text>
     </g>
    </g>
    <g id="ytick_3">
     <g id="line2d_6">
      <g>
       <use style="stroke:#000000;stroke-width:0.8;" x="124.02" xlink:href="#m69d8f0fb35" y="138.17637"/>
      </g>
     </g>
     <g id="text_7">
      <text style="font-family:DejaVu Sans;font-size:32px;font-stretch:normal;font-style:normal;font-weight:normal;text-anchor:end;" transform="rotate(-0, 117.02, 150.33387)" x="117.02" y="150.33387">0.75</text>
     </g>
    </g>
    <g id="ytick_4">
     <g id="line2d_7">
      <g>
       <use style="stroke:#000000;stroke-width:0.8;" x="124.02" xlink:href="#m69d8f0fb35" y="57.010455"/>
      </g>
     </g>
     <g id="text_8">
      <text style="font-family:DejaVu Sans;font-size:32px;font-stretch:normal;font-style:normal;font-weight:normal;text-anchor:end;" transform="rotate(-0, 117.02, 69.167955)" x="117.02" y="69.167955">1.00</text>
     </g>
    </g>
    <g id="text_9">
     <text style="font-family:DejaVu Sans;font-size:32px;font-stretch:normal;font-style:normal;font-weight:normal;text-anchor:middle;" transform="rotate(-90, 35.115, 209.415)" x="35.115" y="209.415">Survival probability</text>
    </g>
   </g>
   <g id="line2d_8">
    <path clip-path="url(#p0eee32d220)" d="M 142.396193 57.010455 
L 162.814186 57.010455 
L 162.814186 93.904052 
L 183.232178 93.904052 
L 183.232178 136.077251 
L 203.65017 136.077251 
L 203.65017 148.671962 
L 224.068163 148.671962 
L 224.068163 195.902129 
L 264.904148 195.902129 
L 264.904148 231.627511 
L 305.740133 231.627511 
L 305.740133 248.775694 
L 346.576117 248.775694 
L 346.576117 248.775694 
L 387.412102 248.775694 
L 387.412102 286.746672 
L 428.248087 286.746672 
L 428.248087 286.746672 
L 469.084072 286.746672 
L 469.084072 324.717649 
L 509.920057 324.717649 
L 509.920057 324.717649 
" style="fill:none;stroke:#d0bbff;stroke-linecap:square;stroke-width:3;"/>
   </g>
   <g id="line2d_9">
    <path clip-path="url(#p0eee32d220)" d="M 142.396193 57.010455 
L 162.814186 57.010455 
L 162.814186 62.083324 
L 183.232178 62.083324 
L 183.232178 69.753503 
L 203.65017 69.753503 
L 203.65017 72.641657 
L 224.068163 72.641657 
L 224.068163 75.529811 
L 264.904148 75.529811 
L 264.904148 78.821685 
L 305.740133 78.821685 
L 305.740133 86.488835 
L 346.576117 86.488835 
L 346.576117 86.488835 
L 387.412102 86.488835 
L 387.412102 92.905907 
L 428.248087 92.905907 
L 428.248087 115.703397 
L 469.084072 115.703397 
L 469.084072 115.703397 
L 509.920057 115.703397 
L 509.920057 115.703397 
" style="fill:none;stroke:#debb9b;stroke-linecap:square;stroke-width:3;"/>
   </g>
   <g id="patch_3">
    <path d="M 124.02 377.06 
L 124.02 41.77 
" style="fill:none;stroke:#000000;stroke-linecap:square;stroke-linejoin:miter;stroke-width:0.8;"/>
   </g>
   <g id="patch_4">
    <path d="M 528.29625 377.06 
L 528.29625 41.77 
" style="fill:none;stroke:#000000;stroke-linecap:square;stroke-linejoin:miter;stroke-width:0.8;"/>
   </g>
   <g id="patch_5">
    <path d="M 124.02 377.06 
L 528.29625 377.06 
" style="fill:none;stroke:#000000;stroke-linecap:square;stroke-linejoin:miter;stroke-width:0.8;"/>
   </g>
   <g id="patch_6">
    <path d="M 124.02 41.77 
L 528.29625 41.77 
" style="fill:none;stroke:#000000;stroke-linecap:square;stroke-linejoin:miter;stroke-width:0.8;"/>
   </g>
   <g id="text_10">
    <text style="font-family:DejaVu Sans;font-size:32px;font-stretch:normal;font-style:normal;font-weight:normal;text-anchor:middle;" transform="rotate(-0, 326.158125, 35.115)" x="326.158125" y="35.115">Amygdala</text>
   </g>
   <g id="legend_1">
    <g id="patch_7">
     <path d="M 140.82 365.06 
L 602.52375 365.06 
Q 607.32375 365.06 607.32375 360.26 
L 607.32375 292.205 
Q 607.32375 287.405 602.52375 287.405 
L 140.82 287.405 
Q 136.02 287.405 136.02 292.205 
L 136.02 360.26 
Q 136.02 365.06 140.82 365.06 
z
" style="fill:#ffffff;opacity:0.8;stroke:#cccccc;stroke-linejoin:miter;"/>
    </g>
    <g id="line2d_10">
     <path d="M 145.62 306.84125 
L 193.62 306.84125 
" style="fill:none;stroke:#d0bbff;stroke-linecap:square;stroke-width:3;"/>
    </g>
    <g id="line2d_11"/>
    <g id="text_11">
     <text style="font-family:DejaVu Sans;font-size:24px;font-stretch:normal;font-style:normal;font-weight:normal;text-anchor:start;" transform="rotate(-0, 212.82, 315.24125)" x="212.82" y="315.24125">Bottom (Kaplan-Meier estimate)</text>
    </g>
    <g id="line2d_12">
     <path d="M 145.62 342.06875 
L 193.62 342.06875 
" style="fill:none;stroke:#debb9b;stroke-linecap:square;stroke-width:3;"/>
    </g>
    <g id="line2d_13"/>
    <g id="text_12">
     <text style="font-family:DejaVu Sans;font-size:24px;font-stretch:normal;font-style:normal;font-weight:normal;text-anchor:start;" transform="rotate(-0, 212.82, 350.46875)" x="212.82" y="350.46875">Top (Kaplan-Meier estimate)</text>
    </g>
   </g>
  </g>
 </g>
 <defs>
  <clipPath id="p0eee32d220">
   <rect height="335.29" width="404.27625" x="124.02" y="41.77"/>
  </clipPath>
 </defs>
</svg>
