<?xml version="1.0" encoding="utf-8" standalone="no"?>
<!DOCTYPE svg PUBLIC "-//W3C//DTD SVG 1.1//EN"
  "http://www.w3.org/Graphics/SVG/1.1/DTD/svg11.dtd">
<!-- Created with matplotlib (https://matplotlib.org/) -->
<svg height="460.8pt" version="1.1" viewBox="0 0 576 460.8" width="576pt" xmlns="http://www.w3.org/2000/svg" xmlns:xlink="http://www.w3.org/1999/xlink">
 <metadata>
  <rdf:RDF xmlns:cc="http://creativecommons.org/ns#" xmlns:dc="http://purl.org/dc/elements/1.1/" xmlns:rdf="http://www.w3.org/1999/02/22-rdf-syntax-ns#">
   <cc:Work>
    <dc:type rdf:resource="http://purl.org/dc/dcmitype/StillImage"/>
    <dc:date>2022-01-12T15:37:47.149091</dc:date>
    <dc:format>image/svg+xml</dc:format>
    <dc:creator>
     <cc:Agent>
      <dc:title>Matplotlib v3.3.3, https://matplotlib.org/</dc:title>
     </cc:Agent>
    </dc:creator>
   </cc:Work>
  </rdf:RDF>
 </metadata>
 <defs>
  <style type="text/css">*{stroke-linecap:butt;stroke-linejoin:round;}</style>
 </defs>
 <g id="figure_1">
  <g id="patch_1">
   <path d="M 0 460.8 
L 576 460.8 
L 576 0 
L 0 0 
z
" style="fill:#ffffff;"/>
  </g>
  <g id="axes_1">
   <g id="patch_2">
    <path d="M 124.02 377.06 
L 528.29625 377.06 
L 528.29625 41.77 
L 124.02 41.77 
z
" style="fill:#ffffff;"/>
   </g>
   <g id="PolyCollection_1">
    <defs>
     <path d="M 142.396193 -403.789545 
L 142.396193 -403.789545 
L 162.814186 -403.789545 
L 162.814186 -385.467196 
L 183.232178 -385.467196 
L 183.232178 -379.341038 
L 224.068163 -379.341038 
L 224.068163 -375.410107 
L 264.904148 -375.410107 
L 264.904148 -366.142531 
L 305.740133 -366.142531 
L 305.740133 -335.221676 
L 346.576117 -335.221676 
L 346.576117 -335.221676 
L 387.412102 -335.221676 
L 387.412102 -317.561988 
L 428.248087 -317.561988 
L 428.248087 -317.561988 
L 469.084072 -317.561988 
L 469.084072 -317.561988 
L 509.920057 -317.561988 
L 509.920057 -317.561988 
L 509.920057 -371.379493 
L 509.920057 -371.379493 
L 509.920057 -371.379493 
L 469.084072 -371.379493 
L 469.084072 -371.379493 
L 428.248087 -371.379493 
L 428.248087 -371.379493 
L 387.412102 -371.379493 
L 387.412102 -379.42158 
L 346.576117 -379.42158 
L 346.576117 -379.42158 
L 305.740133 -379.42158 
L 305.740133 -394.936735 
L 264.904148 -394.936735 
L 264.904148 -398.693015 
L 224.068163 -398.693015 
L 224.068163 -400.221276 
L 183.232178 -400.221276 
L 183.232178 -402.609935 
L 162.814186 -402.609935 
L 162.814186 -403.789545 
L 142.396193 -403.789545 
z
" id="m657b134c8d" style="stroke:#d0bbff;stroke-opacity:0.2;"/>
    </defs>
    <g clip-path="url(#p3a196e59ce)">
     <use style="fill:#d0bbff;fill-opacity:0.2;stroke:#d0bbff;stroke-opacity:0.2;" x="0" xlink:href="#m657b134c8d" y="460.8"/>
    </g>
   </g>
   <g id="PolyCollection_2">
    <defs>
     <path d="M 142.396193 -403.789545 
L 142.396193 -403.789545 
L 162.814186 -403.789545 
L 162.814186 -351.962066 
L 183.232178 -351.962066 
L 183.232178 -309.389892 
L 224.068163 -309.389892 
L 224.068163 -241.998933 
L 264.904148 -241.998933 
L 264.904148 -214.438026 
L 305.740133 -214.438026 
L 305.740133 -190.956409 
L 346.576117 -190.956409 
L 346.576117 -178.700656 
L 387.412102 -178.700656 
L 387.412102 -155.537769 
L 428.248087 -155.537769 
L 428.248087 -155.537769 
L 469.084072 -155.537769 
L 469.084072 -117.306455 
L 509.920057 -117.306455 
L 509.920057 -98.980455 
L 509.920057 -98.980455 
L 509.920057 -98.980455 
L 509.920057 -219.116275 
L 469.084072 -219.116275 
L 469.084072 -226.339186 
L 428.248087 -226.339186 
L 428.248087 -226.339186 
L 387.412102 -226.339186 
L 387.412102 -241.067195 
L 346.576117 -241.067195 
L 346.576117 -251.303983 
L 305.740133 -251.303983 
L 305.740133 -271.913693 
L 264.904148 -271.913693 
L 264.904148 -297.047326 
L 224.068163 -297.047326 
L 224.068163 -353.408481 
L 183.232178 -353.408481 
L 183.232178 -384.51103 
L 162.814186 -384.51103 
L 162.814186 -403.789545 
L 142.396193 -403.789545 
z
" id="m2833c92cd0" style="stroke:#debb9b;stroke-opacity:0.2;"/>
    </defs>
    <g clip-path="url(#p3a196e59ce)">
     <use style="fill:#debb9b;fill-opacity:0.2;stroke:#debb9b;stroke-opacity:0.2;" x="0" xlink:href="#m2833c92cd0" y="460.8"/>
    </g>
   </g>
   <g id="matplotlib.axis_1">
    <g id="xtick_1">
     <g id="line2d_1">
      <defs>
       <path d="M 0 0 
L 0 3.5 
" id="mdcccc910e8" style="stroke:#000000;stroke-width:0.8;"/>
      </defs>
      <g>
       <use style="stroke:#000000;stroke-width:0.8;" x="142.396193" xlink:href="#mdcccc910e8" y="377.06"/>
      </g>
     </g>
     <g id="text_1">
      <text style="font-family:DejaVu Sans;font-size:32px;font-stretch:normal;font-style:normal;font-weight:normal;text-anchor:middle;" transform="rotate(-0, 142.396193, 408.375)" x="142.396193" y="408.375">0</text>
     </g>
    </g>
    <g id="xtick_2">
     <g id="line2d_2">
      <g>
       <use style="stroke:#000000;stroke-width:0.8;" x="312.54613" xlink:href="#mdcccc910e8" y="377.06"/>
      </g>
     </g>
     <g id="text_2">
      <text style="font-family:DejaVu Sans;font-size:32px;font-stretch:normal;font-style:normal;font-weight:normal;text-anchor:middle;" transform="rotate(-0, 312.54613, 408.375)" x="312.54613" y="408.375">50</text>
     </g>
    </g>
    <g id="xtick_3">
     <g id="line2d_3">
      <g>
       <use style="stroke:#000000;stroke-width:0.8;" x="482.696067" xlink:href="#mdcccc910e8" y="377.06"/>
      </g>
     </g>
     <g id="text_3">
      <text style="font-family:DejaVu Sans;font-size:32px;font-stretch:normal;font-style:normal;font-weight:normal;text-anchor:middle;" transform="rotate(-0, 482.696067, 408.375)" x="482.696067" y="408.375">100</text>
     </g>
    </g>
    <g id="text_4">
     <text style="font-family:DejaVu Sans;font-size:32px;font-stretch:normal;font-style:normal;font-weight:normal;text-anchor:middle;" transform="rotate(-0, 326.158125, 443.345)" x="326.158125" y="443.345">Months since MCI visit</text>
    </g>
   </g>
   <g id="matplotlib.axis_2">
    <g id="ytick_1">
     <g id="line2d_4">
      <defs>
       <path d="M 0 0 
L -3.5 0 
" id="mf0ace3635a" style="stroke:#000000;stroke-width:0.8;"/>
      </defs>
      <g>
       <use style="stroke:#000000;stroke-width:0.8;" x="124.02" xlink:href="#mf0ace3635a" y="361.819545"/>
      </g>
     </g>
     <g id="text_5">
      <text style="font-family:DejaVu Sans;font-size:32px;font-stretch:normal;font-style:normal;font-weight:normal;text-anchor:end;" transform="rotate(-0, 117.02, 373.977045)" x="117.02" y="373.977045">0.00</text>
     </g>
    </g>
    <g id="ytick_2">
     <g id="line2d_5">
      <g>
       <use style="stroke:#000000;stroke-width:0.8;" x="124.02" xlink:href="#mf0ace3635a" y="285.617273"/>
      </g>
     </g>
     <g id="text_6">
      <text style="font-family:DejaVu Sans;font-size:32px;font-stretch:normal;font-style:normal;font-weight:normal;text-anchor:end;" transform="rotate(-0, 117.02, 297.774773)" x="117.02" y="297.774773">0.25</text>
     </g>
    </g>
    <g id="ytick_3">
     <g id="line2d_6">
      <g>
       <use style="stroke:#000000;stroke-width:0.8;" x="124.02" xlink:href="#mf0ace3635a" y="209.415"/>
      </g>
     </g>
     <g id="text_7">
      <text style="font-family:DejaVu Sans;font-size:32px;font-stretch:normal;font-style:normal;font-weight:normal;text-anchor:end;" transform="rotate(-0, 117.02, 221.5725)" x="117.02" y="221.5725">0.50</text>
     </g>
    </g>
    <g id="ytick_4">
     <g id="line2d_7">
      <g>
       <use style="stroke:#000000;stroke-width:0.8;" x="124.02" xlink:href="#mf0ace3635a" y="133.212727"/>
      </g>
     </g>
     <g id="text_8">
      <text style="font-family:DejaVu Sans;font-size:32px;font-stretch:normal;font-style:normal;font-weight:normal;text-anchor:end;" transform="rotate(-0, 117.02, 145.370227)" x="117.02" y="145.370227">0.75</text>
     </g>
    </g>
    <g id="ytick_5">
     <g id="line2d_8">
      <g>
       <use style="stroke:#000000;stroke-width:0.8;" x="124.02" xlink:href="#mf0ace3635a" y="57.010455"/>
      </g>
     </g>
     <g id="text_9">
      <text style="font-family:DejaVu Sans;font-size:32px;font-stretch:normal;font-style:normal;font-weight:normal;text-anchor:end;" transform="rotate(-0, 117.02, 69.167955)" x="117.02" y="69.167955">1.00</text>
     </g>
    </g>
    <g id="text_10">
     <text style="font-family:DejaVu Sans;font-size:32px;font-stretch:normal;font-style:normal;font-weight:normal;text-anchor:middle;" transform="rotate(-90, 35.115, 209.415)" x="35.115" y="209.415">Survival probability</text>
    </g>
   </g>
   <g id="line2d_9">
    <path clip-path="url(#p3a196e59ce)" d="M 142.396193 57.010455 
L 162.814186 57.010455 
L 162.814186 61.699825 
L 183.232178 61.699825 
L 183.232178 66.42612 
L 224.068163 66.42612 
L 224.068163 69.136151 
L 264.904148 69.136151 
L 264.904148 75.430418 
L 305.740133 75.430418 
L 305.740133 98.341548 
L 346.576117 98.341548 
L 346.576117 98.341548 
L 387.412102 98.341548 
L 387.412102 110.596339 
L 428.248087 110.596339 
L 428.248087 110.596339 
L 469.084072 110.596339 
L 469.084072 110.596339 
L 509.920057 110.596339 
L 509.920057 110.596339 
" style="fill:none;stroke:#d0bbff;stroke-linecap:square;stroke-width:3;"/>
   </g>
   <g id="line2d_10">
    <path clip-path="url(#p3a196e59ce)" d="M 142.396193 57.010455 
L 162.814186 57.010455 
L 162.814186 88.85618 
L 183.232178 88.85618 
L 183.232178 126.5063 
L 224.068163 126.5063 
L 224.068163 189.639122 
L 264.904148 189.639122 
L 264.904148 216.647816 
L 305.740133 216.647816 
L 305.740133 239.330898 
L 346.576117 239.330898 
L 346.576117 250.996484 
L 387.412102 250.996484 
L 387.412102 271.146131 
L 428.248087 271.146131 
L 428.248087 271.146131 
L 469.084072 271.146131 
L 469.084072 301.370603 
L 509.920057 301.370603 
L 509.920057 361.819545 
" style="fill:none;stroke:#debb9b;stroke-linecap:square;stroke-width:3;"/>
   </g>
   <g id="patch_3">
    <path d="M 124.02 377.06 
L 124.02 41.77 
" style="fill:none;stroke:#000000;stroke-linecap:square;stroke-linejoin:miter;stroke-width:0.8;"/>
   </g>
   <g id="patch_4">
    <path d="M 528.29625 377.06 
L 528.29625 41.77 
" style="fill:none;stroke:#000000;stroke-linecap:square;stroke-linejoin:miter;stroke-width:0.8;"/>
   </g>
   <g id="patch_5">
    <path d="M 124.02 377.06 
L 528.29625 377.06 
" style="fill:none;stroke:#000000;stroke-linecap:square;stroke-linejoin:miter;stroke-width:0.8;"/>
   </g>
   <g id="patch_6">
    <path d="M 124.02 41.77 
L 528.29625 41.77 
" style="fill:none;stroke:#000000;stroke-linecap:square;stroke-linejoin:miter;stroke-width:0.8;"/>
   </g>
   <g id="text_11">
    <text style="font-family:DejaVu Sans;font-size:32px;font-stretch:normal;font-style:normal;font-weight:normal;text-anchor:middle;" transform="rotate(-0, 326.158125, 35.115)" x="326.158125" y="35.115">p-tau (pg/mL)</text>
   </g>
   <g id="legend_1">
    <g id="patch_7">
     <path d="M 140.82 365.06 
L 602.52375 365.06 
Q 607.32375 365.06 607.32375 360.26 
L 607.32375 292.205 
Q 607.32375 287.405 602.52375 287.405 
L 140.82 287.405 
Q 136.02 287.405 136.02 292.205 
L 136.02 360.26 
Q 136.02 365.06 140.82 365.06 
z
" style="fill:#ffffff;opacity:0.8;stroke:#cccccc;stroke-linejoin:miter;"/>
    </g>
    <g id="line2d_11">
     <path d="M 145.62 306.84125 
L 193.62 306.84125 
" style="fill:none;stroke:#d0bbff;stroke-linecap:square;stroke-width:3;"/>
    </g>
    <g id="line2d_12"/>
    <g id="text_12">
     <text style="font-family:DejaVu Sans;font-size:24px;font-stretch:normal;font-style:normal;font-weight:normal;text-anchor:start;" transform="rotate(-0, 212.82, 315.24125)" x="212.82" y="315.24125">Bottom (Kaplan-Meier estimate)</text>
    </g>
    <g id="line2d_13">
     <path d="M 145.62 342.06875 
L 193.62 342.06875 
" style="fill:none;stroke:#debb9b;stroke-linecap:square;stroke-width:3;"/>
    </g>
    <g id="line2d_14"/>
    <g id="text_13">
     <text style="font-family:DejaVu Sans;font-size:24px;font-stretch:normal;font-style:normal;font-weight:normal;text-anchor:start;" transform="rotate(-0, 212.82, 350.46875)" x="212.82" y="350.46875">Top (Kaplan-Meier estimate)</text>
    </g>
   </g>
  </g>
 </g>
 <defs>
  <clipPath id="p3a196e59ce">
   <rect height="335.29" width="404.27625" x="124.02" y="41.77"/>
  </clipPath>
 </defs>
</svg>
