<?xml version="1.0" encoding="utf-8" standalone="no"?>
<!DOCTYPE svg PUBLIC "-//W3C//DTD SVG 1.1//EN"
  "http://www.w3.org/Graphics/SVG/1.1/DTD/svg11.dtd">
<!-- Created with matplotlib (https://matplotlib.org/) -->
<svg height="460.8pt" version="1.1" viewBox="0 0 576 460.8" width="576pt" xmlns="http://www.w3.org/2000/svg" xmlns:xlink="http://www.w3.org/1999/xlink">
 <metadata>
  <rdf:RDF xmlns:cc="http://creativecommons.org/ns#" xmlns:dc="http://purl.org/dc/elements/1.1/" xmlns:rdf="http://www.w3.org/1999/02/22-rdf-syntax-ns#">
   <cc:Work>
    <dc:type rdf:resource="http://purl.org/dc/dcmitype/StillImage"/>
    <dc:date>2022-01-12T15:37:43.763664</dc:date>
    <dc:format>image/svg+xml</dc:format>
    <dc:creator>
     <cc:Agent>
      <dc:title>Matplotlib v3.3.3, https://matplotlib.org/</dc:title>
     </cc:Agent>
    </dc:creator>
   </cc:Work>
  </rdf:RDF>
 </metadata>
 <defs>
  <style type="text/css">*{stroke-linecap:butt;stroke-linejoin:round;}</style>
 </defs>
 <g id="figure_1">
  <g id="patch_1">
   <path d="M 0 460.8 
L 576 460.8 
L 576 0 
L 0 0 
z
" style="fill:#ffffff;"/>
  </g>
  <g id="axes_1">
   <g id="patch_2">
    <path d="M 124.02 377.06 
L 528.29625 377.06 
L 528.29625 41.77 
L 124.02 41.77 
z
" style="fill:#ffffff;"/>
   </g>
   <g id="PolyCollection_1">
    <defs>
     <path d="M 142.396193 -403.789545 
L 142.396193 -403.789545 
L 162.814186 -403.789545 
L 162.814186 -349.003204 
L 183.232178 -349.003204 
L 183.232178 -292.323007 
L 203.65017 -292.323007 
L 203.65017 -288.885581 
L 224.068163 -288.885581 
L 224.068163 -246.181113 
L 264.904148 -246.181113 
L 264.904148 -224.58736 
L 305.740133 -224.58736 
L 305.740133 -192.019228 
L 346.576117 -192.019228 
L 346.576117 -184.220744 
L 387.412102 -184.220744 
L 387.412102 -155.071694 
L 428.248087 -155.071694 
L 428.248087 -155.071694 
L 469.084072 -155.071694 
L 469.084072 -98.980455 
L 509.920057 -98.980455 
L 509.920057 -98.980455 
L 509.920057 -202.042134 
L 509.920057 -202.042134 
L 509.920057 -202.042134 
L 469.084072 -202.042134 
L 469.084072 -228.646511 
L 428.248087 -228.646511 
L 428.248087 -228.646511 
L 387.412102 -228.646511 
L 387.412102 -249.590634 
L 346.576117 -249.590634 
L 346.576117 -255.210251 
L 305.740133 -255.210251 
L 305.740133 -283.442072 
L 264.904148 -283.442072 
L 264.904148 -302.393823 
L 224.068163 -302.393823 
L 224.068163 -337.889303 
L 203.65017 -337.889303 
L 203.65017 -340.507978 
L 183.232178 -340.507978 
L 183.232178 -383.39179 
L 162.814186 -383.39179 
L 162.814186 -403.789545 
L 142.396193 -403.789545 
z
" id="mb1722dd4d2" style="stroke:#d0bbff;stroke-opacity:0.2;"/>
    </defs>
    <g clip-path="url(#p098e679b54)">
     <use style="fill:#d0bbff;fill-opacity:0.2;stroke:#d0bbff;stroke-opacity:0.2;" x="0" xlink:href="#mb1722dd4d2" y="460.8"/>
    </g>
   </g>
   <g id="PolyCollection_2">
    <defs>
     <path d="M 142.396193 -403.789545 
L 142.396193 -403.789545 
L 162.814186 -403.789545 
L 162.814186 -386.323512 
L 183.232178 -386.323512 
L 183.232178 -380.925147 
L 224.068163 -380.925147 
L 224.068163 -366.109312 
L 264.904148 -366.109312 
L 264.904148 -350.735223 
L 305.740133 -350.735223 
L 305.740133 -342.258918 
L 346.576117 -342.258918 
L 346.576117 -342.258918 
L 387.412102 -342.258918 
L 387.412102 -327.663187 
L 428.248087 -327.663187 
L 428.248087 -295.716014 
L 469.084072 -295.716014 
L 469.084072 -281.908451 
L 509.920057 -281.908451 
L 509.920057 -220.22772 
L 509.920057 -343.195242 
L 509.920057 -343.195242 
L 509.920057 -351.91449 
L 469.084072 -351.91449 
L 469.084072 -357.956222 
L 428.248087 -357.956222 
L 428.248087 -374.947153 
L 387.412102 -374.947153 
L 387.412102 -381.738254 
L 346.576117 -381.738254 
L 346.576117 -381.738254 
L 305.740133 -381.738254 
L 305.740133 -386.564992 
L 264.904148 -386.564992 
L 264.904148 -394.824508 
L 224.068163 -394.824508 
L 224.068163 -401.330931 
L 183.232178 -401.330931 
L 183.232178 -403.433284 
L 162.814186 -403.433284 
L 162.814186 -403.789545 
L 142.396193 -403.789545 
z
" id="m60c0f3ee53" style="stroke:#debb9b;stroke-opacity:0.2;"/>
    </defs>
    <g clip-path="url(#p098e679b54)">
     <use style="fill:#debb9b;fill-opacity:0.2;stroke:#debb9b;stroke-opacity:0.2;" x="0" xlink:href="#m60c0f3ee53" y="460.8"/>
    </g>
   </g>
   <g id="matplotlib.axis_1">
    <g id="xtick_1">
     <g id="line2d_1">
      <defs>
       <path d="M 0 0 
L 0 3.5 
" id="m1e33fa9e14" style="stroke:#000000;stroke-width:0.8;"/>
      </defs>
      <g>
       <use style="stroke:#000000;stroke-width:0.8;" x="142.396193" xlink:href="#m1e33fa9e14" y="377.06"/>
      </g>
     </g>
     <g id="text_1">
      <text style="font-family:DejaVu Sans;font-size:32px;font-stretch:normal;font-style:normal;font-weight:normal;text-anchor:middle;" transform="rotate(-0, 142.396193, 408.375)" x="142.396193" y="408.375">0</text>
     </g>
    </g>
    <g id="xtick_2">
     <g id="line2d_2">
      <g>
       <use style="stroke:#000000;stroke-width:0.8;" x="312.54613" xlink:href="#m1e33fa9e14" y="377.06"/>
      </g>
     </g>
     <g id="text_2">
      <text style="font-family:DejaVu Sans;font-size:32px;font-stretch:normal;font-style:normal;font-weight:normal;text-anchor:middle;" transform="rotate(-0, 312.54613, 408.375)" x="312.54613" y="408.375">50</text>
     </g>
    </g>
    <g id="xtick_3">
     <g id="line2d_3">
      <g>
       <use style="stroke:#000000;stroke-width:0.8;" x="482.696067" xlink:href="#m1e33fa9e14" y="377.06"/>
      </g>
     </g>
     <g id="text_3">
      <text style="font-family:DejaVu Sans;font-size:32px;font-stretch:normal;font-style:normal;font-weight:normal;text-anchor:middle;" transform="rotate(-0, 482.696067, 408.375)" x="482.696067" y="408.375">100</text>
     </g>
    </g>
    <g id="text_4">
     <text style="font-family:DejaVu Sans;font-size:32px;font-stretch:normal;font-style:normal;font-weight:normal;text-anchor:middle;" transform="rotate(-0, 326.158125, 443.345)" x="326.158125" y="443.345">Months since MCI visit</text>
    </g>
   </g>
   <g id="matplotlib.axis_2">
    <g id="ytick_1">
     <g id="line2d_4">
      <defs>
       <path d="M 0 0 
L -3.5 0 
" id="m2813459577" style="stroke:#000000;stroke-width:0.8;"/>
      </defs>
      <g>
       <use style="stroke:#000000;stroke-width:0.8;" x="124.02" xlink:href="#m2813459577" y="374.593539"/>
      </g>
     </g>
     <g id="text_5">
      <text style="font-family:DejaVu Sans;font-size:32px;font-stretch:normal;font-style:normal;font-weight:normal;text-anchor:end;" transform="rotate(-0, 117.02, 386.751039)" x="117.02" y="386.751039">0.00</text>
     </g>
    </g>
    <g id="ytick_2">
     <g id="line2d_5">
      <g>
       <use style="stroke:#000000;stroke-width:0.8;" x="124.02" xlink:href="#m2813459577" y="295.197768"/>
      </g>
     </g>
     <g id="text_6">
      <text style="font-family:DejaVu Sans;font-size:32px;font-stretch:normal;font-style:normal;font-weight:normal;text-anchor:end;" transform="rotate(-0, 117.02, 307.355268)" x="117.02" y="307.355268">0.25</text>
     </g>
    </g>
    <g id="ytick_3">
     <g id="line2d_6">
      <g>
       <use style="stroke:#000000;stroke-width:0.8;" x="124.02" xlink:href="#m2813459577" y="215.801997"/>
      </g>
     </g>
     <g id="text_7">
      <text style="font-family:DejaVu Sans;font-size:32px;font-stretch:normal;font-style:normal;font-weight:normal;text-anchor:end;" transform="rotate(-0, 117.02, 227.959497)" x="117.02" y="227.959497">0.50</text>
     </g>
    </g>
    <g id="ytick_4">
     <g id="line2d_7">
      <g>
       <use style="stroke:#000000;stroke-width:0.8;" x="124.02" xlink:href="#m2813459577" y="136.406226"/>
      </g>
     </g>
     <g id="text_8">
      <text style="font-family:DejaVu Sans;font-size:32px;font-stretch:normal;font-style:normal;font-weight:normal;text-anchor:end;" transform="rotate(-0, 117.02, 148.563726)" x="117.02" y="148.563726">0.75</text>
     </g>
    </g>
    <g id="ytick_5">
     <g id="line2d_8">
      <g>
       <use style="stroke:#000000;stroke-width:0.8;" x="124.02" xlink:href="#m2813459577" y="57.010455"/>
      </g>
     </g>
     <g id="text_9">
      <text style="font-family:DejaVu Sans;font-size:32px;font-stretch:normal;font-style:normal;font-weight:normal;text-anchor:end;" transform="rotate(-0, 117.02, 69.167955)" x="117.02" y="69.167955">1.00</text>
     </g>
    </g>
    <g id="text_10">
     <text style="font-family:DejaVu Sans;font-size:32px;font-stretch:normal;font-style:normal;font-weight:normal;text-anchor:middle;" transform="rotate(-90, 35.115, 209.415)" x="35.115" y="209.415">Survival probability</text>
    </g>
   </g>
   <g id="line2d_9">
    <path clip-path="url(#p098e679b54)" d="M 142.396193 57.010455 
L 162.814186 57.010455 
L 162.814186 90.693509 
L 183.232178 90.693509 
L 183.232178 141.649925 
L 203.65017 141.649925 
L 203.65017 144.714972 
L 224.068163 144.714972 
L 224.068163 184.56059 
L 264.904148 184.56059 
L 264.904148 205.291458 
L 305.740133 205.291458 
L 305.740133 236.478683 
L 346.576117 236.478683 
L 346.576117 243.384426 
L 387.412102 243.384426 
L 387.412102 269.626248 
L 428.248087 269.626248 
L 428.248087 269.626248 
L 469.084072 269.626248 
L 469.084072 322.109894 
L 509.920057 322.109894 
L 509.920057 322.109894 
" style="fill:none;stroke:#d0bbff;stroke-linecap:square;stroke-width:3;"/>
   </g>
   <g id="line2d_10">
    <path clip-path="url(#p098e679b54)" d="M 142.396193 57.010455 
L 162.814186 57.010455 
L 162.814186 59.530955 
L 183.232178 59.530955 
L 183.232178 64.571957 
L 224.068163 64.571957 
L 224.068163 75.546172 
L 264.904148 75.546172 
L 264.904148 87.508067 
L 305.740133 87.508067 
L 305.740133 94.184473 
L 346.576117 94.184473 
L 346.576117 94.184473 
L 387.412102 94.184473 
L 387.412102 104.381166 
L 428.248087 104.381166 
L 428.248087 128.400044 
L 469.084072 128.400044 
L 469.084072 137.869024 
L 509.920057 137.869024 
L 509.920057 167.459589 
" style="fill:none;stroke:#debb9b;stroke-linecap:square;stroke-width:3;"/>
   </g>
   <g id="patch_3">
    <path d="M 124.02 377.06 
L 124.02 41.77 
" style="fill:none;stroke:#000000;stroke-linecap:square;stroke-linejoin:miter;stroke-width:0.8;"/>
   </g>
   <g id="patch_4">
    <path d="M 528.29625 377.06 
L 528.29625 41.77 
" style="fill:none;stroke:#000000;stroke-linecap:square;stroke-linejoin:miter;stroke-width:0.8;"/>
   </g>
   <g id="patch_5">
    <path d="M 124.02 377.06 
L 528.29625 377.06 
" style="fill:none;stroke:#000000;stroke-linecap:square;stroke-linejoin:miter;stroke-width:0.8;"/>
   </g>
   <g id="patch_6">
    <path d="M 124.02 41.77 
L 528.29625 41.77 
" style="fill:none;stroke:#000000;stroke-linecap:square;stroke-linejoin:miter;stroke-width:0.8;"/>
   </g>
   <g id="text_11">
    <text style="font-family:DejaVu Sans;font-size:32px;font-stretch:normal;font-style:normal;font-weight:normal;text-anchor:middle;" transform="rotate(-0, 326.158125, 35.115)" x="326.158125" y="35.115">Inferior Temporal Gyrus</text>
   </g>
   <g id="legend_1">
    <g id="patch_7">
     <path d="M 140.82 365.06 
L 602.52375 365.06 
Q 607.32375 365.06 607.32375 360.26 
L 607.32375 292.205 
Q 607.32375 287.405 602.52375 287.405 
L 140.82 287.405 
Q 136.02 287.405 136.02 292.205 
L 136.02 360.26 
Q 136.02 365.06 140.82 365.06 
z
" style="fill:#ffffff;opacity:0.8;stroke:#cccccc;stroke-linejoin:miter;"/>
    </g>
    <g id="line2d_11">
     <path d="M 145.62 306.84125 
L 193.62 306.84125 
" style="fill:none;stroke:#d0bbff;stroke-linecap:square;stroke-width:3;"/>
    </g>
    <g id="line2d_12"/>
    <g id="text_12">
     <text style="font-family:DejaVu Sans;font-size:24px;font-stretch:normal;font-style:normal;font-weight:normal;text-anchor:start;" transform="rotate(-0, 212.82, 315.24125)" x="212.82" y="315.24125">Bottom (Kaplan-Meier estimate)</text>
    </g>
    <g id="line2d_13">
     <path d="M 145.62 342.06875 
L 193.62 342.06875 
" style="fill:none;stroke:#debb9b;stroke-linecap:square;stroke-width:3;"/>
    </g>
    <g id="line2d_14"/>
    <g id="text_13">
     <text style="font-family:DejaVu Sans;font-size:24px;font-stretch:normal;font-style:normal;font-weight:normal;text-anchor:start;" transform="rotate(-0, 212.82, 350.46875)" x="212.82" y="350.46875">Top (Kaplan-Meier estimate)</text>
    </g>
   </g>
  </g>
 </g>
 <defs>
  <clipPath id="p098e679b54">
   <rect height="335.29" width="404.27625" x="124.02" y="41.77"/>
  </clipPath>
 </defs>
</svg>
