<?xml version="1.0" encoding="utf-8" standalone="no"?>
<!DOCTYPE svg PUBLIC "-//W3C//DTD SVG 1.1//EN"
  "http://www.w3.org/Graphics/SVG/1.1/DTD/svg11.dtd">
<!-- Created with matplotlib (https://matplotlib.org/) -->
<svg height="460.8pt" version="1.1" viewBox="0 0 576 460.8" width="576pt" xmlns="http://www.w3.org/2000/svg" xmlns:xlink="http://www.w3.org/1999/xlink">
 <metadata>
  <rdf:RDF xmlns:cc="http://creativecommons.org/ns#" xmlns:dc="http://purl.org/dc/elements/1.1/" xmlns:rdf="http://www.w3.org/1999/02/22-rdf-syntax-ns#">
   <cc:Work>
    <dc:type rdf:resource="http://purl.org/dc/dcmitype/StillImage"/>
    <dc:date>2022-01-12T15:37:46.040766</dc:date>
    <dc:format>image/svg+xml</dc:format>
    <dc:creator>
     <cc:Agent>
      <dc:title>Matplotlib v3.3.3, https://matplotlib.org/</dc:title>
     </cc:Agent>
    </dc:creator>
   </cc:Work>
  </rdf:RDF>
 </metadata>
 <defs>
  <style type="text/css">*{stroke-linecap:butt;stroke-linejoin:round;}</style>
 </defs>
 <g id="figure_1">
  <g id="patch_1">
   <path d="M 0 460.8 
L 576 460.8 
L 576 0 
L 0 0 
z
" style="fill:#ffffff;"/>
  </g>
  <g id="axes_1">
   <g id="patch_2">
    <path d="M 124.02 377.06 
L 528.29625 377.06 
L 528.29625 41.97 
L 124.02 41.97 
z
" style="fill:#ffffff;"/>
   </g>
   <g id="PolyCollection_1">
    <defs>
     <path d="M 142.396193 -403.598636 
L 142.396193 -403.598636 
L 162.814186 -403.598636 
L 162.814186 -354.740683 
L 183.232178 -354.740683 
L 183.232178 -313.037177 
L 203.65017 -313.037177 
L 203.65017 -301.367589 
L 224.068163 -301.367589 
L 224.068163 -257.809653 
L 264.904148 -257.809653 
L 264.904148 -224.579975 
L 305.740133 -224.579975 
L 305.740133 -214.086152 
L 346.576117 -214.086152 
L 346.576117 -204.767279 
L 387.412102 -204.767279 
L 387.412102 -179.225968 
L 428.248087 -179.225968 
L 428.248087 -156.431698 
L 469.084072 -156.431698 
L 469.084072 -127.835574 
L 509.920057 -127.835574 
L 509.920057 -98.971364 
L 509.920057 -98.971364 
L 509.920057 -98.971364 
L 509.920057 -224.268985 
L 469.084072 -224.268985 
L 469.084072 -235.08231 
L 428.248087 -235.08231 
L 428.248087 -251.946609 
L 387.412102 -251.946609 
L 387.412102 -271.295591 
L 346.576117 -271.295591 
L 346.576117 -277.224463 
L 305.740133 -277.224463 
L 305.740133 -285.941287 
L 264.904148 -285.941287 
L 264.904148 -314.305527 
L 224.068163 -314.305527 
L 224.068163 -348.979345 
L 203.65017 -348.979345 
L 203.65017 -357.120885 
L 183.232178 -357.120885 
L 183.232178 -386.906206 
L 162.814186 -386.906206 
L 162.814186 -403.598636 
L 142.396193 -403.598636 
z
" id="mf6c7da6a35" style="stroke:#d0bbff;stroke-opacity:0.2;"/>
    </defs>
    <g clip-path="url(#p2dc048fde1)">
     <use style="fill:#d0bbff;fill-opacity:0.2;stroke:#d0bbff;stroke-opacity:0.2;" x="0" xlink:href="#mf6c7da6a35" y="460.8"/>
    </g>
   </g>
   <g id="PolyCollection_2">
    <defs>
     <path d="M 142.396193 -403.598636 
L 142.396193 -403.598636 
L 162.814186 -403.598636 
L 162.814186 -384.719749 
L 183.232178 -384.719749 
L 183.232178 -378.50684 
L 224.068163 -378.50684 
L 224.068163 -374.196263 
L 264.904148 -374.196263 
L 264.904148 -374.196263 
L 305.740133 -374.196263 
L 305.740133 -368.111974 
L 346.576117 -368.111974 
L 346.576117 -368.111974 
L 387.412102 -368.111974 
L 387.412102 -354.466683 
L 428.248087 -354.466683 
L 428.248087 -340.558222 
L 469.084072 -340.558222 
L 469.084072 -292.933804 
L 509.920057 -292.933804 
L 509.920057 -292.933804 
L 509.920057 -376.437846 
L 509.920057 -376.437846 
L 509.920057 -376.437846 
L 469.084072 -376.437846 
L 469.084072 -389.389133 
L 428.248087 -389.389133 
L 428.248087 -393.282773 
L 387.412102 -393.282773 
L 387.412102 -396.287605 
L 346.576117 -396.287605 
L 346.576117 -396.287605 
L 305.740133 -396.287605 
L 305.740133 -398.322111 
L 264.904148 -398.322111 
L 264.904148 -398.322111 
L 224.068163 -398.322111 
L 224.068163 -399.932581 
L 183.232178 -399.932581 
L 183.232178 -402.382079 
L 162.814186 -402.382079 
L 162.814186 -403.598636 
L 142.396193 -403.598636 
z
" id="m2ea8a3c866" style="stroke:#debb9b;stroke-opacity:0.2;"/>
    </defs>
    <g clip-path="url(#p2dc048fde1)">
     <use style="fill:#debb9b;fill-opacity:0.2;stroke:#debb9b;stroke-opacity:0.2;" x="0" xlink:href="#m2ea8a3c866" y="460.8"/>
    </g>
   </g>
   <g id="matplotlib.axis_1">
    <g id="xtick_1">
     <g id="line2d_1">
      <defs>
       <path d="M 0 0 
L 0 3.5 
" id="mb7dc587a65" style="stroke:#000000;stroke-width:0.8;"/>
      </defs>
      <g>
       <use style="stroke:#000000;stroke-width:0.8;" x="142.396193" xlink:href="#mb7dc587a65" y="377.06"/>
      </g>
     </g>
     <g id="text_1">
      <text style="font-family:DejaVu Sans;font-size:32px;font-stretch:normal;font-style:normal;font-weight:normal;text-anchor:middle;" transform="rotate(-0, 142.396193, 408.375)" x="142.396193" y="408.375">0</text>
     </g>
    </g>
    <g id="xtick_2">
     <g id="line2d_2">
      <g>
       <use style="stroke:#000000;stroke-width:0.8;" x="312.54613" xlink:href="#mb7dc587a65" y="377.06"/>
      </g>
     </g>
     <g id="text_2">
      <text style="font-family:DejaVu Sans;font-size:32px;font-stretch:normal;font-style:normal;font-weight:normal;text-anchor:middle;" transform="rotate(-0, 312.54613, 408.375)" x="312.54613" y="408.375">50</text>
     </g>
    </g>
    <g id="xtick_3">
     <g id="line2d_3">
      <g>
       <use style="stroke:#000000;stroke-width:0.8;" x="482.696067" xlink:href="#mb7dc587a65" y="377.06"/>
      </g>
     </g>
     <g id="text_3">
      <text style="font-family:DejaVu Sans;font-size:32px;font-stretch:normal;font-style:normal;font-weight:normal;text-anchor:middle;" transform="rotate(-0, 482.696067, 408.375)" x="482.696067" y="408.375">100</text>
     </g>
    </g>
    <g id="text_4">
     <text style="font-family:DejaVu Sans;font-size:32px;font-stretch:normal;font-style:normal;font-weight:normal;text-anchor:middle;" transform="rotate(-0, 326.158125, 443.345)" x="326.158125" y="443.345">Months since MCI visit</text>
    </g>
   </g>
   <g id="matplotlib.axis_2">
    <g id="ytick_1">
     <g id="line2d_4">
      <defs>
       <path d="M 0 0 
L -3.5 0 
" id="m6b4782a39e" style="stroke:#000000;stroke-width:0.8;"/>
      </defs>
      <g>
       <use style="stroke:#000000;stroke-width:0.8;" x="124.02" xlink:href="#m6b4782a39e" y="361.828636"/>
      </g>
     </g>
     <g id="text_5">
      <text style="font-family:DejaVu Sans;font-size:32px;font-stretch:normal;font-style:normal;font-weight:normal;text-anchor:end;" transform="rotate(-0, 117.02, 373.986136)" x="117.02" y="373.986136">0.00</text>
     </g>
    </g>
    <g id="ytick_2">
     <g id="line2d_5">
      <g>
       <use style="stroke:#000000;stroke-width:0.8;" x="124.02" xlink:href="#m6b4782a39e" y="285.671818"/>
      </g>
     </g>
     <g id="text_6">
      <text style="font-family:DejaVu Sans;font-size:32px;font-stretch:normal;font-style:normal;font-weight:normal;text-anchor:end;" transform="rotate(-0, 117.02, 297.829318)" x="117.02" y="297.829318">0.25</text>
     </g>
    </g>
    <g id="ytick_3">
     <g id="line2d_6">
      <g>
       <use style="stroke:#000000;stroke-width:0.8;" x="124.02" xlink:href="#m6b4782a39e" y="209.515"/>
      </g>
     </g>
     <g id="text_7">
      <text style="font-family:DejaVu Sans;font-size:32px;font-stretch:normal;font-style:normal;font-weight:normal;text-anchor:end;" transform="rotate(-0, 117.02, 221.6725)" x="117.02" y="221.6725">0.50</text>
     </g>
    </g>
    <g id="ytick_4">
     <g id="line2d_7">
      <g>
       <use style="stroke:#000000;stroke-width:0.8;" x="124.02" xlink:href="#m6b4782a39e" y="133.358182"/>
      </g>
     </g>
     <g id="text_8">
      <text style="font-family:DejaVu Sans;font-size:32px;font-stretch:normal;font-style:normal;font-weight:normal;text-anchor:end;" transform="rotate(-0, 117.02, 145.515682)" x="117.02" y="145.515682">0.75</text>
     </g>
    </g>
    <g id="ytick_5">
     <g id="line2d_8">
      <g>
       <use style="stroke:#000000;stroke-width:0.8;" x="124.02" xlink:href="#m6b4782a39e" y="57.201364"/>
      </g>
     </g>
     <g id="text_9">
      <text style="font-family:DejaVu Sans;font-size:32px;font-stretch:normal;font-style:normal;font-weight:normal;text-anchor:end;" transform="rotate(-0, 117.02, 69.358864)" x="117.02" y="69.358864">1.00</text>
     </g>
    </g>
    <g id="text_10">
     <text style="font-family:DejaVu Sans;font-size:32px;font-stretch:normal;font-style:normal;font-weight:normal;text-anchor:middle;" transform="rotate(-90, 35.115, 209.515)" x="35.115" y="209.515">Survival probability</text>
    </g>
   </g>
   <g id="line2d_9">
    <path clip-path="url(#p2dc048fde1)" d="M 142.396193 57.201364 
L 162.814186 57.201364 
L 162.814186 85.985043 
L 183.232178 85.985043 
L 183.232178 122.601449 
L 203.65017 122.601449 
L 203.65017 132.569249 
L 224.068163 132.569249 
L 224.068163 172.440446 
L 264.904148 172.440446 
L 264.904148 204.005145 
L 305.740133 204.005145 
L 305.740133 213.869113 
L 346.576117 213.869113 
L 346.576117 221.656456 
L 387.412102 221.656456 
L 387.412102 245.018486 
L 428.248087 245.018486 
L 428.248087 266.256695 
L 469.084072 266.256695 
L 469.084072 290.149681 
L 509.920057 290.149681 
L 509.920057 361.828636 
" style="fill:none;stroke:#d0bbff;stroke-linecap:square;stroke-width:3;"/>
   </g>
   <g id="line2d_10">
    <path clip-path="url(#p2dc048fde1)" d="M 142.396193 57.201364 
L 162.814186 57.201364 
L 162.814186 62.036717 
L 183.232178 62.036717 
L 183.232178 66.872071 
L 224.068163 66.872071 
L 224.068163 69.763802 
L 264.904148 69.763802 
L 264.904148 69.763802 
L 305.740133 69.763802 
L 305.740133 73.460825 
L 346.576117 73.460825 
L 346.576117 73.460825 
L 387.412102 73.460825 
L 387.412102 80.014639 
L 428.248087 80.014639 
L 428.248087 87.631233 
L 469.084072 87.631233 
L 469.084072 113.745272 
L 509.920057 113.745272 
L 509.920057 113.745272 
" style="fill:none;stroke:#debb9b;stroke-linecap:square;stroke-width:3;"/>
   </g>
   <g id="patch_3">
    <path d="M 124.02 377.06 
L 124.02 41.97 
" style="fill:none;stroke:#000000;stroke-linecap:square;stroke-linejoin:miter;stroke-width:0.8;"/>
   </g>
   <g id="patch_4">
    <path d="M 528.29625 377.06 
L 528.29625 41.97 
" style="fill:none;stroke:#000000;stroke-linecap:square;stroke-linejoin:miter;stroke-width:0.8;"/>
   </g>
   <g id="patch_5">
    <path d="M 124.02 377.06 
L 528.29625 377.06 
" style="fill:none;stroke:#000000;stroke-linecap:square;stroke-linejoin:miter;stroke-width:0.8;"/>
   </g>
   <g id="patch_6">
    <path d="M 124.02 41.97 
L 528.29625 41.97 
" style="fill:none;stroke:#000000;stroke-linecap:square;stroke-linejoin:miter;stroke-width:0.8;"/>
   </g>
   <g id="text_11">
    <text style="font-family:DejaVu Sans;font-size:32px;font-stretch:normal;font-style:normal;font-weight:normal;text-anchor:middle;" transform="rotate(-0, 326.158125, 35.315)" x="326.158125" y="35.315">Aβ42 (pg/mL)</text>
   </g>
   <g id="legend_1">
    <g id="patch_7">
     <path d="M 140.82 365.06 
L 602.52375 365.06 
Q 607.32375 365.06 607.32375 360.26 
L 607.32375 292.205 
Q 607.32375 287.405 602.52375 287.405 
L 140.82 287.405 
Q 136.02 287.405 136.02 292.205 
L 136.02 360.26 
Q 136.02 365.06 140.82 365.06 
z
" style="fill:#ffffff;opacity:0.8;stroke:#cccccc;stroke-linejoin:miter;"/>
    </g>
    <g id="line2d_11">
     <path d="M 145.62 306.84125 
L 193.62 306.84125 
" style="fill:none;stroke:#d0bbff;stroke-linecap:square;stroke-width:3;"/>
    </g>
    <g id="line2d_12"/>
    <g id="text_12">
     <text style="font-family:DejaVu Sans;font-size:24px;font-stretch:normal;font-style:normal;font-weight:normal;text-anchor:start;" transform="rotate(-0, 212.82, 315.24125)" x="212.82" y="315.24125">Bottom (Kaplan-Meier estimate)</text>
    </g>
    <g id="line2d_13">
     <path d="M 145.62 342.06875 
L 193.62 342.06875 
" style="fill:none;stroke:#debb9b;stroke-linecap:square;stroke-width:3;"/>
    </g>
    <g id="line2d_14"/>
    <g id="text_13">
     <text style="font-family:DejaVu Sans;font-size:24px;font-stretch:normal;font-style:normal;font-weight:normal;text-anchor:start;" transform="rotate(-0, 212.82, 350.46875)" x="212.82" y="350.46875">Top (Kaplan-Meier estimate)</text>
    </g>
   </g>
  </g>
 </g>
 <defs>
  <clipPath id="p2dc048fde1">
   <rect height="335.09" width="404.27625" x="124.02" y="41.97"/>
  </clipPath>
 </defs>
</svg>
