<svg class="main-svg" xmlns="http://www.w3.org/2000/svg" xmlns:xlink="http://www.w3.org/1999/xlink" width="700" height="500" style="" viewBox="0 0 700 500"><rect x="0" y="0" width="700" height="500" style="fill: rgb(255, 255, 255); fill-opacity: 1;"/><defs id="defs-e6b944"><g class="clips"/><g class="gradients"><linearGradient x1="0" x2="0" y1="1" y2="0" id="ge6b944-cbcoloraxis"><stop offset="0%" stop-color="rgb(13, 8, 135)" stop-opacity="1"/><stop offset="11.11111111111111%" stop-color="rgb(70, 3, 159)" stop-opacity="1"/><stop offset="22.22222222222222%" stop-color="rgb(114, 1, 168)" stop-opacity="1"/><stop offset="33.33333333333333%" stop-color="rgb(156, 23, 158)" stop-opacity="1"/><stop offset="44.44444444444444%" stop-color="rgb(189, 55, 134)" stop-opacity="1"/><stop offset="55.55555555555556%" stop-color="rgb(216, 87, 107)" stop-opacity="1"/><stop offset="66.66666666666666%" stop-color="rgb(237, 121, 83)" stop-opacity="1"/><stop offset="77.77777777777779%" stop-color="rgb(251, 159, 58)" stop-opacity="1"/><stop offset="88.88888888888889%" stop-color="rgb(253, 202, 38)" stop-opacity="1"/><stop offset="100%" stop-color="rgb(240, 249, 33)" stop-opacity="1"/></linearGradient></g><g class="patterns"/></defs><g class="bglayer"/><g class="layer-below"><g class="imagelayer"/><g class="shapelayer"/></g><g class="cartesianlayer"/><g class="polarlayer"/><g class="ternarylayer"/><g class="geolayer"/><g class="funnelarealayer"/><g class="pielayer"/><g class="iciclelayer"/><g class="treemaplayer"/><g class="sunburstlayer"><g class="trace sunburst" stroke-linejoin="round" style="opacity: 1;"><g class="slice cursor-pointer"><path class="surface" d="M308,240L398,240A90,90 0,0,0 280.18847050625476,154.40491353343617L308,240A0,0 0,0,1 308,240Z" style="pointer-events: all; stroke-width: 1; fill: rgb(156, 23, 158); fill-opacity: 1; stroke: rgb(255, 255, 255); stroke-opacity: 1;"/><g class="slicetext"><text data-notex="1" class="slicetext" text-anchor="middle" x="0" y="0" style="font-family: 'Open Sans', verdana, arial, sans-serif; font-size: 28px; fill: rgb(255, 255, 255); fill-opacity: 1; white-space: pre;" transform="translate(341.1085272902939,204.24981844611855)scale(0.607571763413115)rotate(-54)">Subtype 0</text></g></g><g class="slice cursor-pointer"><path class="surface" d="M308,240L280.18847050625476,154.40491353343617A90,90 0,0,0 225.7809088121659,276.606297876822L308,240A0,0 0,0,1 308,240Z" style="pointer-events: all; stroke-width: 1; fill: rgb(68, 68, 68); fill-opacity: 1; stroke: rgb(255, 255, 255); stroke-opacity: 1;"/><g class="slicetext"><text data-notex="1" class="slicetext" text-anchor="middle" x="0" y="0" style="font-family: 'Open Sans', verdana, arial, sans-serif; font-size: 28px; fill: rgb(255, 255, 255); fill-opacity: 1; white-space: pre;" transform="translate(260.7645753279022,225.16752769492035)scale(0.5960253016288114)rotate(24)">Subtype 2</text></g></g><g class="slice cursor-pointer"><path class="surface" d="M308,240L225.7809088121659,276.606297876822A90,90 0,0,0 352.99999999999994,317.9422863405995L308,240A0,0 0,0,1 308,240Z" style="pointer-events: all; stroke-width: 1; fill: rgb(76, 3, 160); fill-opacity: 1; stroke: rgb(255, 255, 255); stroke-opacity: 1;"/><g class="slicetext"><text data-notex="1" class="slicetext" text-anchor="middle" x="0" y="0" style="font-family: 'Open Sans', verdana, arial, sans-serif; font-size: 28px; fill: rgb(255, 255, 255); fill-opacity: 1; white-space: pre;" transform="translate(298.18622788292413,288.52707960993)scale(0.5960253016288114)rotate(-72)">Subtype 3</text></g></g><g class="slice cursor-pointer"><path class="surface" d="M308,240L352.99999999999994,317.9422863405995A90,90 0,0,0 398,240.0000000000001L308,240A0,0 0,0,1 308,240Z" style="pointer-events: all; stroke-width: 1; fill: rgb(105, 1, 166); fill-opacity: 1; stroke: rgb(255, 255, 255); stroke-opacity: 1;"/><g class="slicetext"><text data-notex="1" class="slicetext" text-anchor="middle" x="0" y="0" style="font-family: 'Open Sans', verdana, arial, sans-serif; font-size: 28px; fill: rgb(255, 255, 255); fill-opacity: 1; white-space: pre;" transform="translate(350.983121381103,270.80937435632285)scale(0.5463305449188254)rotate(30.000000000000057)">Subtype 1</text></g></g><g class="slice"><path class="surface" d="M398,240L488,240A180,180 0,0,0 363.62305898749054,68.80982706687237L335.8115294937453,154.40491353343617A90,90 0,0,1 398,240Z" style="pointer-events: all; stroke-width: 1; fill: rgb(13, 8, 135); fill-opacity: 1; stroke: rgb(255, 255, 255); stroke-opacity: 1; opacity: 1;"/><g class="slicetext"><text data-notex="1" class="slicetext" text-anchor="middle" x="0" y="0" style="font-family: 'Open Sans', verdana, arial, sans-serif; font-size: 28px; fill: rgb(255, 255, 255); fill-opacity: 1; white-space: pre;" transform="translate(421.25062555629415,169.4612499963895)rotate(-36)">No</text></g></g><g class="slice"><path class="surface" d="M335.8115294937453,154.40491353343617L363.62305898749054,68.80982706687237A180,180 0,0,0 252.37694101250946,68.80982706687234L280.18847050625476,154.40491353343617A90,90 0,0,1 335.8115294937453,154.40491353343617Z" style="pointer-events: all; stroke-width: 1; fill: rgb(240, 249, 33); fill-opacity: 1; stroke: rgb(255, 255, 255); stroke-opacity: 1; opacity: 1;"/><g class="slicetext"><text data-notex="1" class="slicetext" text-anchor="middle" x="0" y="0" style="font-family: 'Open Sans', verdana, arial, sans-serif; font-size: 28px; fill: rgb(68, 68, 68); fill-opacity: 1; white-space: pre;" transform="translate(317.5,105.8457511887355)rotate(-90)">Yes</text></g></g><g class="slice"><path class="surface" d="M280.18847050625476,154.40491353343617L252.37694101250946,68.80982706687234A180,180 0,0,0 143.5618176243318,313.212595753644L225.7809088121659,276.606297876822A90,90 0,0,1 280.18847050625476,154.40491353343617Z" style="pointer-events: all; stroke-width: 1; fill: rgb(13, 8, 135); fill-opacity: 1; stroke: rgb(255, 255, 255); stroke-opacity: 1; opacity: 1;"/><g class="slicetext"><text data-notex="1" class="slicetext" text-anchor="middle" x="0" y="0" style="font-family: 'Open Sans', verdana, arial, sans-serif; font-size: 28px; fill: rgb(255, 255, 255); fill-opacity: 1; white-space: pre;" transform="translate(174.9166823340964,249.5)">No</text></g></g><g class="slice"><path class="surface" d="M225.7809088121659,276.606297876822L143.5618176243318,313.212595753644A180,180 0,0,0 143.5618176243318,313.212595753644L225.7809088121659,276.606297876822A90,90 0,0,1 225.7809088121659,276.606297876822Z" style="pointer-events: all; stroke-width: 1; fill: rgb(68, 68, 68); fill-opacity: 1; stroke: rgb(255, 255, 255); stroke-opacity: 1; opacity: 1;"/><g class="slicetext"><text data-notex="1" class="slicetext" text-anchor="middle" x="0" y="0" style="font-family: 'Open Sans', verdana, arial, sans-serif; font-size: 28px; fill: rgb(255, 255, 255); fill-opacity: 1; white-space: pre;" transform="translate(308,105)scale(0)">Yes</text></g></g><g class="slice"><path class="surface" d="M225.7809088121659,276.606297876822L143.5618176243318,313.212595753644A180,180 0,0,0 363.6230589874905,411.19017293312766L335.81152949374524,325.5950864665638A90,90 0,0,1 225.7809088121659,276.606297876822Z" style="pointer-events: all; stroke-width: 1; fill: rgb(13, 8, 135); fill-opacity: 1; stroke: rgb(255, 255, 255); stroke-opacity: 1; opacity: 1;"/><g class="slicetext"><text data-notex="1" class="slicetext" text-anchor="middle" x="0" y="0" style="font-family: 'Open Sans', verdana, arial, sans-serif; font-size: 28px; fill: rgb(255, 255, 255); fill-opacity: 1; white-space: pre;" transform="translate(262.54881997078473,365.4416584509136)rotate(-66)">No</text></g></g><g class="slice"><path class="surface" d="M335.81152949374524,325.5950864665638L363.6230589874905,411.19017293312766A180,180 0,0,0 398,395.88457268119896L353,317.9422863405995A90,90 0,0,1 335.81152949374524,325.5950864665638Z" style="pointer-events: all; stroke-width: 1; fill: rgb(240, 249, 33); fill-opacity: 1; stroke: rgb(255, 255, 255); stroke-opacity: 1; opacity: 1;"/><g class="slicetext"><text data-notex="1" class="slicetext" text-anchor="middle" x="0" y="0" style="font-family: 'Open Sans', verdana, arial, sans-serif; font-size: 28px; fill: rgb(68, 68, 68); fill-opacity: 1; white-space: pre;" transform="translate(364.555043003651,387.99721987989756)scale(0.8979252374456093)rotate(66)">Yes</text></g></g><g class="slice"><path class="surface" d="M352.99999999999994,317.9422863405995L397.9999999999999,395.884572681199A180,180 0,0,0 484.06656813208497,277.42410434719693L396.0332840660425,258.71205217359847A90,90 0,0,1 352.99999999999994,317.9422863405995Z" style="pointer-events: all; stroke-width: 1; fill: rgb(13, 8, 135); fill-opacity: 1; stroke: rgb(255, 255, 255); stroke-opacity: 1; opacity: 1;"/><g class="slicetext"><text data-notex="1" class="slicetext" text-anchor="middle" x="0" y="0" style="font-family: 'Open Sans', verdana, arial, sans-serif; font-size: 28px; fill: rgb(255, 255, 255); fill-opacity: 1; white-space: pre;" transform="translate(410.08270576273713,325.9100728967346)rotate(36.00000000000006)">No</text></g></g><g class="slice"><path class="surface" d="M396.0332840660425,258.71205217359847L484.06656813208497,277.42410434719693A180,180 0,0,0 488,240.0000000000002L398,240.0000000000001A90,90 0,0,1 396.0332840660425,258.71205217359847Z" style="pointer-events: all; stroke-width: 1; fill: rgb(240, 249, 33); fill-opacity: 1; stroke: rgb(255, 255, 255); stroke-opacity: 1; opacity: 1;"/><g class="slicetext"><text data-notex="1" class="slicetext" text-anchor="middle" x="0" y="0" style="font-family: 'Open Sans', verdana, arial, sans-serif; font-size: 28px; fill: rgb(68, 68, 68); fill-opacity: 1; white-space: pre;" transform="translate(464.4468736072881,265.02050598666574)scale(0.8979252374456093)rotate(6.000000000000057)">Yes</text></g></g></g></g><g class="glimages"/><defs id="topdefs-e6b944"><g class="clips"/></defs><g class="layer-above"><g class="imagelayer"/><g class="shapelayer"/></g><g class="infolayer"><g class="cbcoloraxis colorbar" transform="translate(80,60)"><rect class="cbbg" x="465" y="0" width="142.953125" height="360" style="fill: rgb(0, 0, 0); fill-opacity: 0; stroke: rgb(68, 68, 68); stroke-opacity: 1; stroke-width: 0;"/><g class="cbfills" transform="translate(0,53)"><rect class="cbfill" x="475" width="30" y="0" height="297" style="fill: url('#ge6b944-cbcoloraxis');"/></g><g class="cblines" transform="translate(0,53)"/><g class="cbaxis crisp" transform="translate(0,-60)"><g class="ycbcoloraxistick"><text text-anchor="start" x="511.1" y="9.799999999999999" transform="translate(0,410)" style="font-family: 'Open Sans', verdana, arial, sans-serif; font-size: 28px; fill: rgb(42, 63, 95); fill-opacity: 1; white-space: pre; opacity: 1;">0</text></g><g class="ycbcoloraxistick"><text text-anchor="start" x="511.1" y="9.799999999999999" style="font-family: 'Open Sans', verdana, arial, sans-serif; font-size: 28px; fill: rgb(42, 63, 95); fill-opacity: 1; white-space: pre; opacity: 1;" transform="translate(0,350.6)">0.2</text></g><g class="ycbcoloraxistick"><text text-anchor="start" x="511.1" y="9.799999999999999" style="font-family: 'Open Sans', verdana, arial, sans-serif; font-size: 28px; fill: rgb(42, 63, 95); fill-opacity: 1; white-space: pre; opacity: 1;" transform="translate(0,291.2)">0.4</text></g><g class="ycbcoloraxistick"><text text-anchor="start" x="511.1" y="9.799999999999999" style="font-family: 'Open Sans', verdana, arial, sans-serif; font-size: 28px; fill: rgb(42, 63, 95); fill-opacity: 1; white-space: pre; opacity: 1;" transform="translate(0,231.8)">0.6</text></g><g class="ycbcoloraxistick"><text text-anchor="start" x="511.1" y="9.799999999999999" style="font-family: 'Open Sans', verdana, arial, sans-serif; font-size: 28px; fill: rgb(42, 63, 95); fill-opacity: 1; white-space: pre; opacity: 1;" transform="translate(0,172.4)">0.8</text></g><g class="ycbcoloraxistick"><text text-anchor="start" x="511.1" y="9.799999999999999" style="font-family: 'Open Sans', verdana, arial, sans-serif; font-size: 28px; fill: rgb(42, 63, 95); fill-opacity: 1; white-space: pre; opacity: 1;" transform="translate(0,113.00000000000001)">1</text></g></g><g class="cbtitleunshift" transform="translate(-80,-60)"><g class="cbtitle" transform=""><text class="ycbcoloraxistitle" x="555.12" y="98.5" text-anchor="start" style="font-family: 'Open Sans', verdana, arial, sans-serif; font-size: 34px; fill: rgb(42, 63, 95); opacity: 1; font-weight: normal; white-space: pre;">Severity</text></g></g><rect class="cboutline" x="475" y="53" width="30" height="297" style="stroke: rgb(68, 68, 68); stroke-opacity: 1; fill: none; stroke-width: 0;"/></g><g class="g-gtitle"><text class="gtitle" x="35" y="30" text-anchor="start" dy="0em" style="font-family: 'Open Sans', verdana, arial, sans-serif; font-size: 39px; fill: rgb(42, 63, 95); opacity: 1; font-weight: normal; white-space: pre;">TDP-43 Pathology: Entorhinal cortex, n=30</text></g></g></svg>