<svg class="main-svg" xmlns="http://www.w3.org/2000/svg" xmlns:xlink="http://www.w3.org/1999/xlink" width="700" height="500" style="" viewBox="0 0 700 500"><rect x="0" y="0" width="700" height="500" style="fill: rgb(255, 255, 255); fill-opacity: 1;"/><defs id="defs-005c01"><g class="clips"/><g class="gradients"><linearGradient x1="0" x2="0" y1="1" y2="0" id="g005c01-cbcoloraxis"><stop offset="0%" stop-color="rgb(13, 8, 135)" stop-opacity="1"/><stop offset="11.11111111111111%" stop-color="rgb(70, 3, 159)" stop-opacity="1"/><stop offset="22.22222222222222%" stop-color="rgb(114, 1, 168)" stop-opacity="1"/><stop offset="33.33333333333333%" stop-color="rgb(156, 23, 158)" stop-opacity="1"/><stop offset="44.44444444444444%" stop-color="rgb(189, 55, 134)" stop-opacity="1"/><stop offset="55.55555555555556%" stop-color="rgb(216, 87, 107)" stop-opacity="1"/><stop offset="66.66666666666666%" stop-color="rgb(237, 121, 83)" stop-opacity="1"/><stop offset="77.77777777777779%" stop-color="rgb(251, 159, 58)" stop-opacity="1"/><stop offset="88.88888888888889%" stop-color="rgb(253, 202, 38)" stop-opacity="1"/><stop offset="100%" stop-color="rgb(240, 249, 33)" stop-opacity="1"/></linearGradient></g><g class="patterns"/></defs><g class="bglayer"/><g class="layer-below"><g class="imagelayer"/><g class="shapelayer"/></g><g class="cartesianlayer"/><g class="polarlayer"/><g class="ternarylayer"/><g class="geolayer"/><g class="funnelarealayer"/><g class="pielayer"/><g class="iciclelayer"/><g class="treemaplayer"/><g class="sunburstlayer"><g class="trace sunburst" stroke-linejoin="round" style="opacity: 1;"><g class="slice cursor-pointer"><path class="surface" d="M308,240L398,240A90,90 0,0,0 243.2594179695214,177.48074665869026L308,240A0,0 0,0,1 308,240Z" style="pointer-events: all; stroke-width: 1; fill: rgb(249, 155, 61); fill-opacity: 1; stroke: rgb(255, 255, 255); stroke-opacity: 1;"/><g class="slicetext"><text data-notex="1" class="slicetext" text-anchor="middle" x="0" y="0" style="font-family: 'Open Sans', verdana, arial, sans-serif; font-size: 28px; fill: rgb(68, 68, 68); fill-opacity: 1; white-space: pre;" transform="translate(331.086647429146,198.84065990652806)scale(0.6302112181807918)rotate(-68)">Subtype 0</text></g></g><g class="slice cursor-pointer"><path class="surface" d="M308,240L243.2594179695214,177.48074665869026A90,90 0,0,0 235.18847050625473,292.90067270632255L308,240A0,0 0,0,1 308,240Z" style="pointer-events: all; stroke-width: 1; fill: rgb(203, 71, 121); fill-opacity: 1; stroke: rgb(255, 255, 255); stroke-opacity: 1;"/><g class="slicetext"><text data-notex="1" class="slicetext" text-anchor="middle" x="0" y="0" style="font-family: 'Open Sans', verdana, arial, sans-serif; font-size: 28px; fill: rgb(255, 255, 255); fill-opacity: 1; white-space: pre;" transform="translate(257.27920094647953,241.95408783595732)scale(0.5776244067009445)rotate(4)">Subtype 2</text></g></g><g class="slice cursor-pointer"><path class="surface" d="M308,240L235.18847050625473,292.90067270632255A90,90 0,0,0 335.81152949374524,325.5950864665638L308,240A0,0 0,0,1 308,240Z" style="pointer-events: all; stroke-width: 1; fill: rgb(237, 121, 83); fill-opacity: 1; stroke: rgb(255, 255, 255); stroke-opacity: 1;"/><g class="slicetext"><text data-notex="1" class="slicetext" text-anchor="middle" x="0" y="0" style="font-family: 'Open Sans', verdana, arial, sans-serif; font-size: 28px; fill: rgb(68, 68, 68); fill-opacity: 1; white-space: pre;" transform="translate(297.28791697946633,290.38526192037597)scale(0.5665374568058803)rotate(-72)">Subtype 1</text></g></g><g class="slice cursor-pointer"><path class="surface" d="M308,240L335.81152949374524,325.5950864665638A90,90 0,0,0 398,240.00000000000003L308,240A0,0 0,0,1 308,240Z" style="pointer-events: all; stroke-width: 1; fill: rgb(189, 55, 134); fill-opacity: 1; stroke: rgb(255, 255, 255); stroke-opacity: 1;"/><g class="slicetext"><text data-notex="1" class="slicetext" text-anchor="middle" x="0" y="0" style="font-family: 'Open Sans', verdana, arial, sans-serif; font-size: 28px; fill: rgb(255, 255, 255); fill-opacity: 1; white-space: pre;" transform="translate(346.2819710984576,274.4661287388148)scale(0.5665374568058803)rotate(36)">Subtype 3</text></g></g><g class="slice"><path class="surface" d="M398,240L488,240A180,180 0,0,0 264.4540587920598,65.34676927032064L286.2270293960299,152.67338463516032A90,90 0,0,1 398,240Z" style="pointer-events: all; stroke-width: 1; fill: rgb(240, 249, 33); fill-opacity: 1; stroke: rgb(255, 255, 255); stroke-opacity: 1; opacity: 1;"/><g class="slicetext"><text data-notex="1" class="slicetext" text-anchor="middle" x="0" y="0" style="font-family: 'Open Sans', verdana, arial, sans-serif; font-size: 28px; fill: rgb(68, 68, 68); fill-opacity: 1; white-space: pre;" transform="translate(395.4811068426525,143.45984715384432)rotate(-52)">H</text></g></g><g class="slice"><path class="surface" d="M286.2270293960299,152.67338463516032L264.4540587920598,65.34676927032064A180,180 0,0,0 178.51883593904276,114.96149331738052L243.2594179695214,177.48074665869026A90,90 0,0,1 286.2270293960299,152.67338463516032Z" style="pointer-events: all; stroke-width: 1; fill: rgb(13, 8, 135); fill-opacity: 1; stroke: rgb(255, 255, 255); stroke-opacity: 1; opacity: 1;"/><g class="slicetext"><text data-notex="1" class="slicetext" text-anchor="middle" x="0" y="0" style="font-family: 'Open Sans', verdana, arial, sans-serif; font-size: 28px; fill: rgb(255, 255, 255); fill-opacity: 1; white-space: pre;" transform="translate(221.72638572279985,109.56971671928966)rotate(60)">L</text></g></g><g class="slice"><path class="surface" d="M243.2594179695214,177.48074665869026L178.51883593904276,114.96149331738052A180,180 0,0,0 128.43847095323164,227.44383472605742L218.21923547661584,233.7219173630287A90,90 0,0,1 243.2594179695214,177.48074665869026Z" style="pointer-events: all; stroke-width: 1; fill: rgb(13, 8, 135); fill-opacity: 1; stroke: rgb(255, 255, 255); stroke-opacity: 1; opacity: 1;"/><g class="slicetext"><text data-notex="1" class="slicetext" text-anchor="middle" x="0" y="0" style="font-family: 'Open Sans', verdana, arial, sans-serif; font-size: 28px; fill: rgb(255, 255, 255); fill-opacity: 1; white-space: pre;" transform="translate(166.42862479852315,187.3674073875324)rotate(24)">L</text></g></g><g class="slice"><path class="surface" d="M218.21923547661584,233.7219173630287L128.43847095323164,227.44383472605742A180,180 0,0,0 162.37694101250946,345.80134541264516L235.18847050625473,292.90067270632255A90,90 0,0,1 218.21923547661584,233.7219173630287Z" style="pointer-events: all; stroke-width: 1; fill: rgb(240, 249, 33); fill-opacity: 1; stroke: rgb(255, 255, 255); stroke-opacity: 1; opacity: 1;"/><g class="slicetext"><text data-notex="1" class="slicetext" text-anchor="middle" x="0" y="0" style="font-family: 'Open Sans', verdana, arial, sans-serif; font-size: 28px; fill: rgb(68, 68, 68); fill-opacity: 1; white-space: pre;" transform="translate(169.61437898920695,289.56428292089726)rotate(-16)">H</text></g></g><g class="slice"><path class="surface" d="M235.18847050625473,292.90067270632255L162.37694101250946,345.80134541264516A180,180 0,0,0 289.1848766118224,419.0139411662892L298.5924383059112,329.5069705831446A90,90 0,0,1 235.18847050625473,292.90067270632255Z" style="pointer-events: all; stroke-width: 1; fill: rgb(240, 249, 33); fill-opacity: 1; stroke: rgb(255, 255, 255); stroke-opacity: 1; opacity: 1;"/><g class="slicetext"><text data-notex="1" class="slicetext" text-anchor="middle" x="0" y="0" style="font-family: 'Open Sans', verdana, arial, sans-serif; font-size: 28px; fill: rgb(68, 68, 68); fill-opacity: 1; white-space: pre;" transform="translate(245.45612205101767,367.32917431002414)rotate(-60)">H</text></g></g><g class="slice"><path class="surface" d="M298.5924383059112,329.5069705831446L289.1848766118224,419.0139411662892A180,180 0,0,0 363.6230589874905,411.19017293312766L335.81152949374524,325.5950864665638A90,90 0,0,1 298.5924383059112,329.5069705831446Z" style="pointer-events: all; stroke-width: 1; fill: rgb(13, 8, 135); fill-opacity: 1; stroke: rgb(255, 255, 255); stroke-opacity: 1; opacity: 1;"/><g class="slicetext"><text data-notex="1" class="slicetext" text-anchor="middle" x="0" y="0" style="font-family: 'Open Sans', verdana, arial, sans-serif; font-size: 28px; fill: rgb(255, 255, 255); fill-opacity: 1; white-space: pre;" transform="translate(315.45524097015874,401.81621590244583)rotate(84)">L</text></g></g><g class="slice"><path class="surface" d="M335.81152949374524,325.5950864665638L363.6230589874905,411.19017293312766A180,180 0,0,0 460.64865730815666,335.3854675619769L384.32432865407833,287.6927337809884A90,90 0,0,1 335.81152949374524,325.5950864665638Z" style="pointer-events: all; stroke-width: 1; fill: rgb(13, 8, 135); fill-opacity: 1; stroke: rgb(255, 255, 255); stroke-opacity: 1; opacity: 1;"/><g class="slicetext"><text data-notex="1" class="slicetext" text-anchor="middle" x="0" y="0" style="font-family: 'Open Sans', verdana, arial, sans-serif; font-size: 28px; fill: rgb(255, 255, 255); fill-opacity: 1; white-space: pre;" transform="translate(393.318395126096,364.6331237458754)rotate(52)">L</text></g></g><g class="slice"><path class="surface" d="M384.32432865407833,287.6927337809884L460.64865730815666,335.3854675619769A180,180 0,0,0 488,240.00000000000006L398,240.00000000000003A90,90 0,0,1 384.32432865407833,287.6927337809884Z" style="pointer-events: all; stroke-width: 1; fill: rgb(240, 249, 33); fill-opacity: 1; stroke: rgb(255, 255, 255); stroke-opacity: 1; opacity: 1;"/><g class="slicetext"><text data-notex="1" class="slicetext" text-anchor="middle" x="0" y="0" style="font-family: 'Open Sans', verdana, arial, sans-serif; font-size: 28px; fill: rgb(68, 68, 68); fill-opacity: 1; white-space: pre;" transform="translate(451.7265718327493,291.0957759246581)rotate(16)">H</text></g></g></g></g><g class="glimages"/><defs id="topdefs-005c01"><g class="clips"/></defs><g class="layer-above"><g class="imagelayer"/><g class="shapelayer"/></g><g class="infolayer"><g class="cbcoloraxis colorbar" transform="translate(80,60)"><rect class="cbbg" x="465" y="0" width="142.953125" height="360" style="fill: rgb(0, 0, 0); fill-opacity: 0; stroke: rgb(68, 68, 68); stroke-opacity: 1; stroke-width: 0;"/><g class="cbfills" transform="translate(0,53)"><rect class="cbfill" x="475" width="30" y="0" height="297" style="fill: url('#g005c01-cbcoloraxis');"/></g><g class="cblines" transform="translate(0,53)"/><g class="cbaxis crisp" transform="translate(0,-60)"><g class="ycbcoloraxistick"><text text-anchor="start" x="511.1" y="9.799999999999999" transform="translate(0,410)" style="font-family: 'Open Sans', verdana, arial, sans-serif; font-size: 28px; fill: rgb(42, 63, 95); fill-opacity: 1; white-space: pre; opacity: 1;">0</text></g><g class="ycbcoloraxistick"><text text-anchor="start" x="511.1" y="9.799999999999999" style="font-family: 'Open Sans', verdana, arial, sans-serif; font-size: 28px; fill: rgb(42, 63, 95); fill-opacity: 1; white-space: pre; opacity: 1;" transform="translate(0,350.6)">0.2</text></g><g class="ycbcoloraxistick"><text text-anchor="start" x="511.1" y="9.799999999999999" style="font-family: 'Open Sans', verdana, arial, sans-serif; font-size: 28px; fill: rgb(42, 63, 95); fill-opacity: 1; white-space: pre; opacity: 1;" transform="translate(0,291.2)">0.4</text></g><g class="ycbcoloraxistick"><text text-anchor="start" x="511.1" y="9.799999999999999" style="font-family: 'Open Sans', verdana, arial, sans-serif; font-size: 28px; fill: rgb(42, 63, 95); fill-opacity: 1; white-space: pre; opacity: 1;" transform="translate(0,231.8)">0.6</text></g><g class="ycbcoloraxistick"><text text-anchor="start" x="511.1" y="9.799999999999999" style="font-family: 'Open Sans', verdana, arial, sans-serif; font-size: 28px; fill: rgb(42, 63, 95); fill-opacity: 1; white-space: pre; opacity: 1;" transform="translate(0,172.4)">0.8</text></g><g class="ycbcoloraxistick"><text text-anchor="start" x="511.1" y="9.799999999999999" style="font-family: 'Open Sans', verdana, arial, sans-serif; font-size: 28px; fill: rgb(42, 63, 95); fill-opacity: 1; white-space: pre; opacity: 1;" transform="translate(0,113.00000000000001)">1</text></g></g><g class="cbtitleunshift" transform="translate(-80,-60)"><g class="cbtitle" transform=""><text class="ycbcoloraxistitle" x="555.12" y="98.5" text-anchor="start" style="font-family: 'Open Sans', verdana, arial, sans-serif; font-size: 34px; fill: rgb(42, 63, 95); opacity: 1; font-weight: normal; white-space: pre;">Severity</text></g></g><rect class="cboutline" x="475" y="53" width="30" height="297" style="stroke: rgb(68, 68, 68); stroke-opacity: 1; fill: none; stroke-width: 0;"/></g><g class="g-gtitle"><text class="gtitle" x="35" y="30" text-anchor="start" dy="0em" style="font-family: 'Open Sans', verdana, arial, sans-serif; font-size: 39px; fill: rgb(42, 63, 95); opacity: 1; font-weight: normal; white-space: pre;">CERAD Score, n=45</text></g></g></svg>