<svg class="main-svg" xmlns="http://www.w3.org/2000/svg" xmlns:xlink="http://www.w3.org/1999/xlink" width="700" height="500" style="" viewBox="0 0 700 500"><rect x="0" y="0" width="700" height="500" style="fill: rgb(255, 255, 255); fill-opacity: 1;"/><defs id="defs-8eaaa0"><g class="clips"/><g class="gradients"><linearGradient x1="0" x2="0" y1="1" y2="0" id="g8eaaa0-cbcoloraxis"><stop offset="0%" stop-color="rgb(13, 8, 135)" stop-opacity="1"/><stop offset="11.11111111111111%" stop-color="rgb(70, 3, 159)" stop-opacity="1"/><stop offset="22.22222222222222%" stop-color="rgb(114, 1, 168)" stop-opacity="1"/><stop offset="33.33333333333333%" stop-color="rgb(156, 23, 158)" stop-opacity="1"/><stop offset="44.44444444444444%" stop-color="rgb(189, 55, 134)" stop-opacity="1"/><stop offset="55.55555555555556%" stop-color="rgb(216, 87, 107)" stop-opacity="1"/><stop offset="66.66666666666666%" stop-color="rgb(237, 121, 83)" stop-opacity="1"/><stop offset="77.77777777777779%" stop-color="rgb(251, 159, 58)" stop-opacity="1"/><stop offset="88.88888888888889%" stop-color="rgb(253, 202, 38)" stop-opacity="1"/><stop offset="100%" stop-color="rgb(240, 249, 33)" stop-opacity="1"/></linearGradient></g><g class="patterns"/></defs><g class="bglayer"/><g class="layer-below"><g class="imagelayer"/><g class="shapelayer"/></g><g class="cartesianlayer"/><g class="polarlayer"/><g class="ternarylayer"/><g class="geolayer"/><g class="funnelarealayer"/><g class="pielayer"/><g class="iciclelayer"/><g class="treemaplayer"/><g class="sunburstlayer"><g class="trace sunburst" stroke-linejoin="round" style="opacity: 1;"><g class="slice cursor-pointer"><path class="surface" d="M308,240L398,240A90,90 0,0,0 255.09932729367742,167.18847050625473L308,240A0,0 0,0,1 308,240Z" style="pointer-events: all; stroke-width: 1; fill: rgb(68, 68, 68); fill-opacity: 1; stroke: rgb(255, 255, 255); stroke-opacity: 1;"/><g class="slicetext"><text data-notex="1" class="slicetext" text-anchor="middle" x="0" y="0" style="font-family: 'Open Sans', verdana, arial, sans-serif; font-size: 28px; fill: rgb(255, 255, 255); fill-opacity: 1; white-space: pre;" transform="translate(334.7611954092062,200.50693085918988)scale(0.6226233167576498)rotate(-63)">Subtype 0</text></g></g><g class="slice cursor-pointer"><path class="surface" d="M308,240L255.09932729367742,167.18847050625473A90,90 0,0,0 244.36038969321072,303.6396103067893L308,240A0,0 0,0,1 308,240Z" style="pointer-events: all; stroke-width: 1; fill: rgb(68, 68, 68); fill-opacity: 1; stroke: rgb(255, 255, 255); stroke-opacity: 1;"/><g class="slicetext"><text data-notex="1" class="slicetext" text-anchor="middle" x="0" y="0" style="font-family: 'Open Sans', verdana, arial, sans-serif; font-size: 28px; fill: rgb(255, 255, 255); fill-opacity: 1; white-space: pre;" transform="translate(258.73035083012974,241.8310517271324)scale(0.5990588764669951)rotate(4.5)">Subtype 2</text></g></g><g class="slice cursor-pointer"><path class="surface" d="M308,240L244.36038969321072,303.6396103067893A90,90 0,0,0 360.90067270632255,312.8115294937453L308,240A0,0 0,0,1 308,240Z" style="pointer-events: all; stroke-width: 1; fill: rgb(68, 68, 68); fill-opacity: 1; stroke: rgb(255, 255, 255); stroke-opacity: 1;"/><g class="slicetext"><text data-notex="1" class="slicetext" text-anchor="middle" x="0" y="0" style="font-family: 'Open Sans', verdana, arial, sans-serif; font-size: 28px; fill: rgb(255, 255, 255); fill-opacity: 1; white-space: pre;" transform="translate(309.5305201972491,290.6482244428843)scale(0.5789069478185164)rotate(-85.5)">Subtype 3</text></g></g><g class="slice cursor-pointer"><path class="surface" d="M308,240L360.90067270632255,312.8115294937453A90,90 0,0,0 398,240.00000000000003L308,240A0,0 0,0,1 308,240Z" style="pointer-events: all; stroke-width: 1; fill: rgb(68, 68, 68); fill-opacity: 1; stroke: rgb(255, 255, 255); stroke-opacity: 1;"/><g class="slicetext"><text data-notex="1" class="slicetext" text-anchor="middle" x="0" y="0" style="font-family: 'Open Sans', verdana, arial, sans-serif; font-size: 28px; fill: rgb(255, 255, 255); fill-opacity: 1; white-space: pre;" transform="translate(353.3516000268991,268.80114850755604)scale(0.5339805962263727)rotate(27)">Subtype 1</text></g></g><g class="slice"><path class="surface" d="M398,240L488,240A180,180 0,0,0 226.28171004688159,79.61882564609377L267.1408550234408,159.8094128230469A90,90 0,0,1 398,240Z" style="pointer-events: all; stroke-width: 1; fill: rgb(13, 8, 135); fill-opacity: 1; stroke: rgb(255, 255, 255); stroke-opacity: 1; opacity: 1;"/><g class="slicetext"><text data-notex="1" class="slicetext" text-anchor="middle" x="0" y="0" style="font-family: 'Open Sans', verdana, arial, sans-serif; font-size: 28px; fill: rgb(255, 255, 255); fill-opacity: 1; white-space: pre;" transform="translate(386.33105018259715,130.35721173155292)rotate(-58.5)">None</text></g></g><g class="slice"><path class="surface" d="M267.1408550234408,159.8094128230469L226.28171004688159,79.61882564609377A180,180 0,0,0 202.19865458735484,94.37694101250946L255.09932729367742,167.18847050625473A90,90 0,0,1 267.1408550234408,159.8094128230469Z" style="pointer-events: all; stroke-width: 1; fill: rgb(203, 71, 121); fill-opacity: 1; stroke: rgb(255, 255, 255); stroke-opacity: 1; opacity: 1;"/><g class="slicetext"><text data-notex="1" class="slicetext" text-anchor="middle" x="0" y="0" style="font-family: 'Open Sans', verdana, arial, sans-serif; font-size: 28px; fill: rgb(255, 255, 255); fill-opacity: 1; white-space: pre;" transform="translate(225.2947848768808,115.63455110247487)scale(0.5828441754005622)rotate(58.5)">Bilateral</text></g></g><g class="slice"><path class="surface" d="M255.09932729367742,167.18847050625473L202.19865458735484,94.37694101250946A180,180 0,0,0 202.19865458735484,94.37694101250946L255.09932729367742,167.18847050625473A90,90 0,0,1 255.09932729367742,167.18847050625473Z" style="pointer-events: all; stroke-width: 1; fill: rgb(68, 68, 68); fill-opacity: 1; stroke: rgb(255, 255, 255); stroke-opacity: 1; opacity: 1;"/><g class="slicetext"><text data-notex="1" class="slicetext" text-anchor="middle" x="0" y="0" style="font-family: 'Open Sans', verdana, arial, sans-serif; font-size: 28px; fill: rgb(255, 255, 255); fill-opacity: 1; white-space: pre;" transform="translate(308,105)scale(0)">Present</text></g></g><g class="slice"><path class="surface" d="M255.09932729367742,167.18847050625473L202.19865458735484,94.37694101250946A180,180 0,0,0 147.61882564609377,321.7182899531184L227.8094128230469,280.8591449765592A90,90 0,0,1 255.09932729367742,167.18847050625473Z" style="pointer-events: all; stroke-width: 1; fill: rgb(13, 8, 135); fill-opacity: 1; stroke: rgb(255, 255, 255); stroke-opacity: 1; opacity: 1;"/><g class="slicetext"><text data-notex="1" class="slicetext" text-anchor="middle" x="0" y="0" style="font-family: 'Open Sans', verdana, arial, sans-serif; font-size: 28px; fill: rgb(255, 255, 255); fill-opacity: 1; white-space: pre;" transform="translate(173.5862936974504,249.5)">None</text></g></g><g class="slice"><path class="surface" d="M227.8094128230469,280.8591449765592L147.61882564609377,321.7182899531184A180,180 0,0,0 180.7207793864214,367.27922061357856L244.36038969321072,303.6396103067893A90,90 0,0,1 227.8094128230469,280.8591449765592Z" style="pointer-events: all; stroke-width: 1; fill: rgb(240, 249, 33); fill-opacity: 1; stroke: rgb(255, 255, 255); stroke-opacity: 1; opacity: 1;"/><g class="slicetext"><text data-notex="1" class="slicetext" text-anchor="middle" x="0" y="0" style="font-family: 'Open Sans', verdana, arial, sans-serif; font-size: 28px; fill: rgb(68, 68, 68); fill-opacity: 1; white-space: pre;" transform="translate(203.81205440545332,326.1644355405656)scale(0.8914057658860214)rotate(-36)">Present</text></g></g><g class="slice"><path class="surface" d="M244.36038969321072,303.6396103067893L180.7207793864214,367.27922061357856A180,180 0,0,0 180.7207793864214,367.27922061357856L244.36038969321072,303.6396103067893A90,90 0,0,1 244.36038969321072,303.6396103067893Z" style="pointer-events: all; stroke-width: 1; fill: rgb(68, 68, 68); fill-opacity: 1; stroke: rgb(255, 255, 255); stroke-opacity: 1; opacity: 1;"/><g class="slicetext"><text data-notex="1" class="slicetext" text-anchor="middle" x="0" y="0" style="font-family: 'Open Sans', verdana, arial, sans-serif; font-size: 28px; fill: rgb(255, 255, 255); fill-opacity: 1; white-space: pre;" transform="translate(308,105)scale(0)">Bilateral</text></g></g><g class="slice"><path class="surface" d="M244.36038969321072,303.6396103067893L180.7207793864214,367.27922061357856A180,180 0,0,0 413.8013454126451,385.6230589874906L360.90067270632255,312.8115294937453A90,90 0,0,1 244.36038969321072,303.6396103067893Z" style="pointer-events: all; stroke-width: 1; fill: rgb(13, 8, 135); fill-opacity: 1; stroke: rgb(255, 255, 255); stroke-opacity: 1; opacity: 1;"/><g class="slicetext"><text data-notex="1" class="slicetext" text-anchor="middle" x="0" y="0" style="font-family: 'Open Sans', verdana, arial, sans-serif; font-size: 28px; fill: rgb(255, 255, 255); fill-opacity: 1; white-space: pre;" transform="translate(306.9247368205385,374.74471511373997)rotate(-85.5)">None</text></g></g><g class="slice"><path class="surface" d="M360.90067270632255,312.8115294937453L413.8013454126451,385.6230589874906A180,180 0,0,0 413.8013454126451,385.6230589874906L360.90067270632255,312.8115294937453A90,90 0,0,1 360.90067270632255,312.8115294937453Z" style="pointer-events: all; stroke-width: 1; fill: rgb(68, 68, 68); fill-opacity: 1; stroke: rgb(255, 255, 255); stroke-opacity: 1; opacity: 1;"/><g class="slicetext"><text data-notex="1" class="slicetext" text-anchor="middle" x="0" y="0" style="font-family: 'Open Sans', verdana, arial, sans-serif; font-size: 28px; fill: rgb(255, 255, 255); fill-opacity: 1; white-space: pre;" transform="translate(308,105)scale(0)">Bilateral</text></g></g><g class="slice"><path class="surface" d="M360.90067270632255,312.8115294937453L413.8013454126451,385.6230589874906A180,180 0,0,0 413.8013454126451,385.6230589874906L360.90067270632255,312.8115294937453A90,90 0,0,1 360.90067270632255,312.8115294937453Z" style="pointer-events: all; stroke-width: 1; fill: rgb(68, 68, 68); fill-opacity: 1; stroke: rgb(255, 255, 255); stroke-opacity: 1; opacity: 1;"/><g class="slicetext"><text data-notex="1" class="slicetext" text-anchor="middle" x="0" y="0" style="font-family: 'Open Sans', verdana, arial, sans-serif; font-size: 28px; fill: rgb(255, 255, 255); fill-opacity: 1; white-space: pre;" transform="translate(308,105)scale(0)">Present</text></g></g><g class="slice"><path class="surface" d="M360.90067270632255,312.8115294937453L413.8013454126451,385.6230589874906A180,180 0,0,0 479.19017293312766,295.6230589874906L393.5950864665638,267.8115294937453A90,90 0,0,1 360.90067270632255,312.8115294937453Z" style="pointer-events: all; stroke-width: 1; fill: rgb(13, 8, 135); fill-opacity: 1; stroke: rgb(255, 255, 255); stroke-opacity: 1; opacity: 1;"/><g class="slicetext"><text data-notex="1" class="slicetext" text-anchor="middle" x="0" y="0" style="font-family: 'Open Sans', verdana, arial, sans-serif; font-size: 28px; fill: rgb(255, 255, 255); fill-opacity: 1; white-space: pre;" transform="translate(411.1590127789071,326.69205571717254)rotate(36)">None</text></g></g><g class="slice"><path class="surface" d="M393.5950864665638,267.8115294937453L479.19017293312766,295.6230589874906A180,180 0,0,0 488,240.00000000000006L398,240.00000000000003A90,90 0,0,1 393.5950864665638,267.8115294937453Z" style="pointer-events: all; stroke-width: 1; fill: rgb(203, 71, 121); fill-opacity: 1; stroke: rgb(255, 255, 255); stroke-opacity: 1; opacity: 1;"/><g class="slicetext"><text data-notex="1" class="slicetext" text-anchor="middle" x="0" y="0" style="font-family: 'Open Sans', verdana, arial, sans-serif; font-size: 28px; fill: rgb(255, 255, 255); fill-opacity: 1; white-space: pre;" transform="translate(439.81011635952984,269.09854097982725)scale(0.8548046962643737)rotate(9)">Bilateral</text></g></g><g class="slice"><path class="surface" d="M398,240.00000000000003L488,240.00000000000006A180,180 0,0,0 488,240.00000000000006L398,240.00000000000003A90,90 0,0,1 398,240.00000000000003Z" style="pointer-events: all; stroke-width: 1; fill: rgb(68, 68, 68); fill-opacity: 1; stroke: rgb(255, 255, 255); stroke-opacity: 1; opacity: 1;"/><g class="slicetext"><text data-notex="1" class="slicetext" text-anchor="middle" x="0" y="0" style="font-family: 'Open Sans', verdana, arial, sans-serif; font-size: 28px; fill: rgb(255, 255, 255); fill-opacity: 1; white-space: pre;" transform="translate(308,105)scale(0)">Present</text></g></g></g></g><g class="glimages"/><defs id="topdefs-8eaaa0"><g class="clips"/></defs><g class="layer-above"><g class="imagelayer"/><g class="shapelayer"/></g><g class="infolayer"><g class="cbcoloraxis colorbar" transform="translate(80,60)"><rect class="cbbg" x="465" y="0" width="142.953125" height="360" style="fill: rgb(0, 0, 0); fill-opacity: 0; stroke: rgb(68, 68, 68); stroke-opacity: 1; stroke-width: 0;"/><g class="cbfills" transform="translate(0,53)"><rect class="cbfill" x="475" width="30" y="0" height="297" style="fill: url('#g8eaaa0-cbcoloraxis');"/></g><g class="cblines" transform="translate(0,53)"/><g class="cbaxis crisp" transform="translate(0,-60)"><g class="ycbcoloraxistick"><text text-anchor="start" x="511.1" y="9.799999999999999" transform="translate(0,410)" style="font-family: 'Open Sans', verdana, arial, sans-serif; font-size: 28px; fill: rgb(42, 63, 95); fill-opacity: 1; white-space: pre; opacity: 1;">0</text></g><g class="ycbcoloraxistick"><text text-anchor="start" x="511.1" y="9.799999999999999" style="font-family: 'Open Sans', verdana, arial, sans-serif; font-size: 28px; fill: rgb(42, 63, 95); fill-opacity: 1; white-space: pre; opacity: 1;" transform="translate(0,350.6)">0.2</text></g><g class="ycbcoloraxistick"><text text-anchor="start" x="511.1" y="9.799999999999999" style="font-family: 'Open Sans', verdana, arial, sans-serif; font-size: 28px; fill: rgb(42, 63, 95); fill-opacity: 1; white-space: pre; opacity: 1;" transform="translate(0,291.2)">0.4</text></g><g class="ycbcoloraxistick"><text text-anchor="start" x="511.1" y="9.799999999999999" style="font-family: 'Open Sans', verdana, arial, sans-serif; font-size: 28px; fill: rgb(42, 63, 95); fill-opacity: 1; white-space: pre; opacity: 1;" transform="translate(0,231.8)">0.6</text></g><g class="ycbcoloraxistick"><text text-anchor="start" x="511.1" y="9.799999999999999" style="font-family: 'Open Sans', verdana, arial, sans-serif; font-size: 28px; fill: rgb(42, 63, 95); fill-opacity: 1; white-space: pre; opacity: 1;" transform="translate(0,172.4)">0.8</text></g><g class="ycbcoloraxistick"><text text-anchor="start" x="511.1" y="9.799999999999999" style="font-family: 'Open Sans', verdana, arial, sans-serif; font-size: 28px; fill: rgb(42, 63, 95); fill-opacity: 1; white-space: pre; opacity: 1;" transform="translate(0,113.00000000000001)">1</text></g></g><g class="cbtitleunshift" transform="translate(-80,-60)"><g class="cbtitle" transform=""><text class="ycbcoloraxistitle" x="555.12" y="98.5" text-anchor="start" style="font-family: 'Open Sans', verdana, arial, sans-serif; font-size: 34px; fill: rgb(42, 63, 95); opacity: 1; font-weight: normal; white-space: pre;">Severity</text></g></g><rect class="cboutline" x="475" y="53" width="30" height="297" style="stroke: rgb(68, 68, 68); stroke-opacity: 1; fill: none; stroke-width: 0;"/></g><g class="g-gtitle"><text class="gtitle" x="35" y="30" text-anchor="start" dy="0em" style="font-family: 'Open Sans', verdana, arial, sans-serif; font-size: 39px; fill: rgb(42, 63, 95); opacity: 1; font-weight: normal; white-space: pre;">Hippocampal Sclerosis, n=40</text></g></g></svg>