<svg class="main-svg" xmlns="http://www.w3.org/2000/svg" xmlns:xlink="http://www.w3.org/1999/xlink" width="700" height="500" style="" viewBox="0 0 700 500"><rect x="0" y="0" width="700" height="500" style="fill: rgb(255, 255, 255); fill-opacity: 1;"/><defs id="defs-fafb3a"><g class="clips"/><g class="gradients"><linearGradient x1="0" x2="0" y1="1" y2="0" id="gfafb3a-cbcoloraxis"><stop offset="0%" stop-color="rgb(13, 8, 135)" stop-opacity="1"/><stop offset="11.11111111111111%" stop-color="rgb(70, 3, 159)" stop-opacity="1"/><stop offset="22.22222222222222%" stop-color="rgb(114, 1, 168)" stop-opacity="1"/><stop offset="33.33333333333333%" stop-color="rgb(156, 23, 158)" stop-opacity="1"/><stop offset="44.44444444444444%" stop-color="rgb(189, 55, 134)" stop-opacity="1"/><stop offset="55.55555555555556%" stop-color="rgb(216, 87, 107)" stop-opacity="1"/><stop offset="66.66666666666666%" stop-color="rgb(237, 121, 83)" stop-opacity="1"/><stop offset="77.77777777777779%" stop-color="rgb(251, 159, 58)" stop-opacity="1"/><stop offset="88.88888888888889%" stop-color="rgb(253, 202, 38)" stop-opacity="1"/><stop offset="100%" stop-color="rgb(240, 249, 33)" stop-opacity="1"/></linearGradient></g><g class="patterns"/></defs><g class="bglayer"/><g class="layer-below"><g class="imagelayer"/><g class="shapelayer"/></g><g class="cartesianlayer"/><g class="polarlayer"/><g class="ternarylayer"/><g class="geolayer"/><g class="funnelarealayer"/><g class="pielayer"/><g class="iciclelayer"/><g class="treemaplayer"/><g class="sunburstlayer"><g class="trace sunburst" stroke-linejoin="round" style="opacity: 1;"><g class="slice cursor-pointer"><path class="surface" d="M308,240L398,240A90,90 0,0,0 243.2594179695214,177.48074665869026L308,240A0,0 0,0,1 308,240Z" style="pointer-events: all; stroke-width: 1; fill: rgb(242, 134, 74); fill-opacity: 1; stroke: rgb(255, 255, 255); stroke-opacity: 1;"/><g class="slicetext"><text data-notex="1" class="slicetext" text-anchor="middle" x="0" y="0" style="font-family: 'Open Sans', verdana, arial, sans-serif; font-size: 28px; fill: rgb(68, 68, 68); fill-opacity: 1; white-space: pre;" transform="translate(331.086647429146,198.84065990652806)scale(0.6302112181807918)rotate(-68)">Subtype 0</text></g></g><g class="slice cursor-pointer"><path class="surface" d="M308,240L243.2594179695214,177.48074665869026A90,90 0,0,0 235.18847050625473,292.90067270632255L308,240A0,0 0,0,1 308,240Z" style="pointer-events: all; stroke-width: 1; fill: rgb(218, 90, 105); fill-opacity: 1; stroke: rgb(255, 255, 255); stroke-opacity: 1;"/><g class="slicetext"><text data-notex="1" class="slicetext" text-anchor="middle" x="0" y="0" style="font-family: 'Open Sans', verdana, arial, sans-serif; font-size: 28px; fill: rgb(68, 68, 68); fill-opacity: 1; white-space: pre;" transform="translate(257.27920094647953,241.95408783595732)scale(0.5776244067009445)rotate(4)">Subtype 2</text></g></g><g class="slice cursor-pointer"><path class="surface" d="M308,240L235.18847050625473,292.90067270632255A90,90 0,0,0 335.81152949374524,325.5950864665638L308,240A0,0 0,0,1 308,240Z" style="pointer-events: all; stroke-width: 1; fill: rgb(246, 146, 66); fill-opacity: 1; stroke: rgb(255, 255, 255); stroke-opacity: 1;"/><g class="slicetext"><text data-notex="1" class="slicetext" text-anchor="middle" x="0" y="0" style="font-family: 'Open Sans', verdana, arial, sans-serif; font-size: 28px; fill: rgb(68, 68, 68); fill-opacity: 1; white-space: pre;" transform="translate(297.28791697946633,290.38526192037597)scale(0.5665374568058803)rotate(-72)">Subtype 1</text></g></g><g class="slice cursor-pointer"><path class="surface" d="M308,240L335.81152949374524,325.5950864665638A90,90 0,0,0 398,240.00000000000003L308,240A0,0 0,0,1 308,240Z" style="pointer-events: all; stroke-width: 1; fill: rgb(68, 68, 68); fill-opacity: 1; stroke: rgb(255, 255, 255); stroke-opacity: 1;"/><g class="slicetext"><text data-notex="1" class="slicetext" text-anchor="middle" x="0" y="0" style="font-family: 'Open Sans', verdana, arial, sans-serif; font-size: 28px; fill: rgb(255, 255, 255); fill-opacity: 1; white-space: pre;" transform="translate(346.2819710984576,274.4661287388148)scale(0.5665374568058803)rotate(36)">Subtype 3</text></g></g><g class="slice"><path class="surface" d="M398,240L488,240A180,180 0,0,0 363.62305898749054,68.80982706687237L335.8115294937453,154.40491353343617A90,90 0,0,1 398,240Z" style="pointer-events: all; stroke-width: 1; fill: rgb(240, 249, 33); fill-opacity: 1; stroke: rgb(255, 255, 255); stroke-opacity: 1; opacity: 1;"/><g class="slicetext"><text data-notex="1" class="slicetext" text-anchor="middle" x="0" y="0" style="font-family: 'Open Sans', verdana, arial, sans-serif; font-size: 28px; fill: rgb(68, 68, 68); fill-opacity: 1; white-space: pre;" transform="translate(421.282562284486,166.7486364633651)scale(0.7709706832052029)rotate(-36)">Frequent</text></g></g><g class="slice"><path class="surface" d="M335.8115294937453,154.40491353343617L363.62305898749054,68.80982706687237A180,180 0,0,0 264.45405879205987,65.34676927032064L286.22702939602993,152.67338463516032A90,90 0,0,1 335.8115294937453,154.40491353343617Z" style="pointer-events: all; stroke-width: 1; fill: rgb(237, 121, 83); fill-opacity: 1; stroke: rgb(255, 255, 255); stroke-opacity: 1; opacity: 1;"/><g class="slicetext"><text data-notex="1" class="slicetext" text-anchor="middle" x="0" y="0" style="font-family: 'Open Sans', verdana, arial, sans-serif; font-size: 28px; fill: rgb(68, 68, 68); fill-opacity: 1; white-space: pre;" transform="translate(319.6565346907251,105.51619583218171)scale(0.7322122910153649)rotate(-88)">Moderate</text></g></g><g class="slice"><path class="surface" d="M286.22702939602993,152.67338463516032L264.45405879205987,65.34676927032064A180,180 0,0,0 197.1809344413815,98.15806435079003L252.59046722069075,169.079032175395A90,90 0,0,1 286.22702939602993,152.67338463516032Z" style="pointer-events: all; stroke-width: 1; fill: rgb(13, 8, 135); fill-opacity: 1; stroke: rgb(255, 255, 255); stroke-opacity: 1; opacity: 1;"/><g class="slicetext"><text data-notex="1" class="slicetext" text-anchor="middle" x="0" y="0" style="font-family: 'Open Sans', verdana, arial, sans-serif; font-size: 28px; fill: rgb(255, 255, 255); fill-opacity: 1; white-space: pre;" transform="translate(239.80096550700148,121.84239189770241)rotate(64)">None</text></g></g><g class="slice"><path class="surface" d="M252.59046722069075,169.079032175395L197.1809344413815,98.15806435079003A180,180 0,0,0 178.51883593904276,114.96149331738052L243.2594179695214,177.48074665869026A90,90 0,0,1 252.59046722069075,169.079032175395Z" style="pointer-events: all; stroke-width: 1; fill: rgb(156, 23, 158); fill-opacity: 1; stroke: rgb(255, 255, 255); stroke-opacity: 1; opacity: 1;"/><g class="slicetext"><text data-notex="1" class="slicetext" text-anchor="middle" x="0" y="0" style="font-family: 'Open Sans', verdana, arial, sans-serif; font-size: 28px; fill: rgb(255, 255, 255); fill-opacity: 1; white-space: pre;" transform="translate(200.94576984383963,129.05353407505984)scale(0.5599074913988388)rotate(48)">Sparse</text></g></g><g class="slice"><path class="surface" d="M243.2594179695214,177.48074665869026L178.51883593904276,114.96149331738052A180,180 0,0,0 131.93343186791498,202.57589565280333L219.9667159339575,221.28794782640165A90,90 0,0,1 243.2594179695214,177.48074665869026Z" style="pointer-events: all; stroke-width: 1; fill: rgb(240, 249, 33); fill-opacity: 1; stroke: rgb(255, 255, 255); stroke-opacity: 1; opacity: 1;"/><g class="slicetext"><text data-notex="1" class="slicetext" text-anchor="middle" x="0" y="0" style="font-family: 'Open Sans', verdana, arial, sans-serif; font-size: 28px; fill: rgb(68, 68, 68); fill-opacity: 1; white-space: pre;" transform="translate(185.4763674439268,183.14822287320652)scale(0.7709706832052029)rotate(28)">Frequent</text></g></g><g class="slice"><path class="surface" d="M219.9667159339575,221.28794782640165L131.93343186791498,202.57589565280333A180,180 0,0,0 131.933431867915,277.4241043471967L219.96671593395752,258.71205217359835A90,90 0,0,1 219.9667159339575,221.28794782640165Z" style="pointer-events: all; stroke-width: 1; fill: rgb(13, 8, 135); fill-opacity: 1; stroke: rgb(255, 255, 255); stroke-opacity: 1; opacity: 1;"/><g class="slicetext"><text data-notex="1" class="slicetext" text-anchor="middle" x="0" y="0" style="font-family: 'Open Sans', verdana, arial, sans-serif; font-size: 28px; fill: rgb(255, 255, 255); fill-opacity: 1; white-space: pre;" transform="translate(171.9041563521011,249.5)">None</text></g></g><g class="slice"><path class="surface" d="M219.96671593395752,258.71205217359835L131.933431867915,277.4241043471967A180,180 0,0,0 149.06943328539316,324.5048813014604L228.5347166426966,282.2524406507302A90,90 0,0,1 219.96671593395752,258.71205217359835Z" style="pointer-events: all; stroke-width: 1; fill: rgb(237, 121, 83); fill-opacity: 1; stroke: rgb(255, 255, 255); stroke-opacity: 1; opacity: 1;"/><g class="slicetext"><text data-notex="1" class="slicetext" text-anchor="middle" x="0" y="0" style="font-family: 'Open Sans', verdana, arial, sans-serif; font-size: 28px; fill: rgb(68, 68, 68); fill-opacity: 1; white-space: pre;" transform="translate(183.70036902499027,292.64380423108287)scale(0.7322122910153649)rotate(-20)">Moderate</text></g></g><g class="slice"><path class="surface" d="M228.5347166426966,282.2524406507302L149.06943328539316,324.5048813014604A180,180 0,0,0 162.37694101250946,345.80134541264516L235.18847050625473,292.90067270632255A90,90 0,0,1 228.5347166426966,282.2524406507302Z" style="pointer-events: all; stroke-width: 1; fill: rgb(156, 23, 158); fill-opacity: 1; stroke: rgb(255, 255, 255); stroke-opacity: 1; opacity: 1;"/><g class="slicetext"><text data-notex="1" class="slicetext" text-anchor="middle" x="0" y="0" style="font-family: 'Open Sans', verdana, arial, sans-serif; font-size: 28px; fill: rgb(255, 255, 255); fill-opacity: 1; white-space: pre;" transform="translate(180.14928820966074,326.162184224088)scale(0.5599074913988376)rotate(-32)">Sparse</text></g></g><g class="slice"><path class="surface" d="M235.18847050625473,292.90067270632255L162.37694101250946,345.80134541264516A180,180 0,0,0 264.4540587920598,414.65323072967936L286.2270293960299,327.32661536483965A90,90 0,0,1 235.18847050625473,292.90067270632255Z" style="pointer-events: all; stroke-width: 1; fill: rgb(240, 249, 33); fill-opacity: 1; stroke: rgb(255, 255, 255); stroke-opacity: 1; opacity: 1;"/><g class="slicetext"><text data-notex="1" class="slicetext" text-anchor="middle" x="0" y="0" style="font-family: 'Open Sans', verdana, arial, sans-serif; font-size: 28px; fill: rgb(68, 68, 68); fill-opacity: 1; white-space: pre;" transform="translate(238.65245583174973,355.9098063799729)scale(0.7709706832052029)rotate(-56)">Frequent</text></g></g><g class="slice"><path class="surface" d="M286.2270293960299,327.32661536483965L264.4540587920598,414.65323072967936A180,180 0,0,0 314.2819094064502,419.8903488634372L311.14095470322513,329.9451744317186A90,90 0,0,1 286.2270293960299,327.32661536483965Z" style="pointer-events: all; stroke-width: 1; fill: rgb(237, 121, 83); fill-opacity: 1; stroke: rgb(255, 255, 255); stroke-opacity: 1; opacity: 1;"/><g class="slicetext"><text data-notex="1" class="slicetext" text-anchor="middle" x="0" y="0" style="font-family: 'Open Sans', verdana, arial, sans-serif; font-size: 28px; fill: rgb(68, 68, 68); fill-opacity: 1; white-space: pre;" transform="translate(300.826566041462,374.79729310964177)scale(0.7322122910153649)rotate(-84)">Moderate</text></g></g><g class="slice"><path class="surface" d="M311.14095470322513,329.9451744317186L314.2819094064502,419.8903488634372A180,180 0,0,0 339.25667198004754,417.26539554219744L323.6283359900238,328.6326977710987A90,90 0,0,1 311.14095470322513,329.9451744317186Z" style="pointer-events: all; stroke-width: 1; fill: rgb(13, 8, 135); fill-opacity: 1; stroke: rgb(255, 255, 255); stroke-opacity: 1; opacity: 1;"/><g class="slicetext"><text data-notex="1" class="slicetext" text-anchor="middle" x="0" y="0" style="font-family: 'Open Sans', verdana, arial, sans-serif; font-size: 28px; fill: rgb(255, 255, 255); fill-opacity: 1; white-space: pre;" transform="translate(318.92109062771596,398.6239760481598)scale(0.6020480740162678)rotate(84)">None</text></g></g><g class="slice"><path class="surface" d="M323.6283359900238,328.6326977710987L339.25667198004754,417.26539554219744A180,180 0,0,0 363.62305898749065,411.1901729331276L335.8115294937453,325.59508646656377A90,90 0,0,1 323.6283359900238,328.6326977710987Z" style="pointer-events: all; stroke-width: 1; fill: rgb(156, 23, 158); fill-opacity: 1; stroke: rgb(255, 255, 255); stroke-opacity: 1; opacity: 1;"/><g class="slicetext"><text data-notex="1" class="slicetext" text-anchor="middle" x="0" y="0" style="font-family: 'Open Sans', verdana, arial, sans-serif; font-size: 28px; fill: rgb(255, 255, 255); fill-opacity: 1; white-space: pre;" transform="translate(340.1148230041242,390.7924555107975)scale(0.5599074913988388)rotate(76)">Sparse</text></g></g><g class="slice"><path class="surface" d="M335.81152949374524,325.5950864665638L363.6230589874905,411.19017293312766A180,180 0,0,0 445.88799976141604,355.70176974357713L376.943999880708,297.8508848717886A90,90 0,0,1 335.81152949374524,325.5950864665638Z" style="pointer-events: all; stroke-width: 1; fill: rgb(240, 249, 33); fill-opacity: 1; stroke: rgb(255, 255, 255); stroke-opacity: 1; opacity: 1;"/><g class="slicetext"><text data-notex="1" class="slicetext" text-anchor="middle" x="0" y="0" style="font-family: 'Open Sans', verdana, arial, sans-serif; font-size: 28px; fill: rgb(68, 68, 68); fill-opacity: 1; white-space: pre;" transform="translate(377.2532363762557,355.7699893285352)scale(0.7709706832052029)rotate(56)">Frequent</text></g></g><g class="slice"><path class="surface" d="M376.943999880708,297.8508848717886L445.88799976141604,355.70176974357713A180,180 0,0,0 481.02710526889734,289.61472404705995L394.5135526344487,264.80736202353A90,90 0,0,1 376.943999880708,297.8508848717886Z" style="pointer-events: all; stroke-width: 1; fill: rgb(13, 8, 135); fill-opacity: 1; stroke: rgb(255, 255, 255); stroke-opacity: 1; opacity: 1;"/><g class="slicetext"><text data-notex="1" class="slicetext" text-anchor="middle" x="0" y="0" style="font-family: 'Open Sans', verdana, arial, sans-serif; font-size: 28px; fill: rgb(255, 255, 255); fill-opacity: 1; white-space: pre;" transform="translate(423.7055177005513,312.2811305382031)rotate(28)">None</text></g></g><g class="slice"><path class="surface" d="M394.5135526344487,264.80736202353L481.02710526889734,289.61472404705995A180,180 0,0,0 488,240.00000000000006L398,240.00000000000003A90,90 0,0,1 394.5135526344487,264.80736202353Z" style="pointer-events: all; stroke-width: 1; fill: rgb(237, 121, 83); fill-opacity: 1; stroke: rgb(255, 255, 255); stroke-opacity: 1; opacity: 1;"/><g class="slicetext"><text data-notex="1" class="slicetext" text-anchor="middle" x="0" y="0" style="font-family: 'Open Sans', verdana, arial, sans-serif; font-size: 28px; fill: rgb(68, 68, 68); fill-opacity: 1; white-space: pre;" transform="translate(440.5286481590668,265.6500643580961)scale(0.7322122910153649)rotate(8)">Moderate</text></g></g><g class="slice"><path class="surface" d="M398,240.00000000000003L488,240.00000000000006A180,180 0,0,0 488,240.00000000000006L398,240.00000000000003A90,90 0,0,1 398,240.00000000000003Z" style="pointer-events: all; stroke-width: 1; fill: rgb(68, 68, 68); fill-opacity: 1; stroke: rgb(255, 255, 255); stroke-opacity: 1; opacity: 1;"/><g class="slicetext"><text data-notex="1" class="slicetext" text-anchor="middle" x="0" y="0" style="font-family: 'Open Sans', verdana, arial, sans-serif; font-size: 28px; fill: rgb(255, 255, 255); fill-opacity: 1; white-space: pre;" transform="translate(308,105)scale(0)">Sparse</text></g></g></g></g><g class="glimages"/><defs id="topdefs-fafb3a"><g class="clips"/></defs><g class="layer-above"><g class="imagelayer"/><g class="shapelayer"/></g><g class="infolayer"><g class="cbcoloraxis colorbar" transform="translate(80,60)"><rect class="cbbg" x="465" y="0" width="142.953125" height="360" style="fill: rgb(0, 0, 0); fill-opacity: 0; stroke: rgb(68, 68, 68); stroke-opacity: 1; stroke-width: 0;"/><g class="cbfills" transform="translate(0,53)"><rect class="cbfill" x="475" width="30" y="0" height="297" style="fill: url('#gfafb3a-cbcoloraxis');"/></g><g class="cblines" transform="translate(0,53)"/><g class="cbaxis crisp" transform="translate(0,-60)"><g class="ycbcoloraxistick"><text text-anchor="start" x="511.1" y="9.799999999999999" transform="translate(0,410)" style="font-family: 'Open Sans', verdana, arial, sans-serif; font-size: 28px; fill: rgb(42, 63, 95); fill-opacity: 1; white-space: pre; opacity: 1;">0</text></g><g class="ycbcoloraxistick"><text text-anchor="start" x="511.1" y="9.799999999999999" style="font-family: 'Open Sans', verdana, arial, sans-serif; font-size: 28px; fill: rgb(42, 63, 95); fill-opacity: 1; white-space: pre; opacity: 1;" transform="translate(0,350.6)">0.2</text></g><g class="ycbcoloraxistick"><text text-anchor="start" x="511.1" y="9.799999999999999" style="font-family: 'Open Sans', verdana, arial, sans-serif; font-size: 28px; fill: rgb(42, 63, 95); fill-opacity: 1; white-space: pre; opacity: 1;" transform="translate(0,291.2)">0.4</text></g><g class="ycbcoloraxistick"><text text-anchor="start" x="511.1" y="9.799999999999999" style="font-family: 'Open Sans', verdana, arial, sans-serif; font-size: 28px; fill: rgb(42, 63, 95); fill-opacity: 1; white-space: pre; opacity: 1;" transform="translate(0,231.8)">0.6</text></g><g class="ycbcoloraxistick"><text text-anchor="start" x="511.1" y="9.799999999999999" style="font-family: 'Open Sans', verdana, arial, sans-serif; font-size: 28px; fill: rgb(42, 63, 95); fill-opacity: 1; white-space: pre; opacity: 1;" transform="translate(0,172.4)">0.8</text></g><g class="ycbcoloraxistick"><text text-anchor="start" x="511.1" y="9.799999999999999" style="font-family: 'Open Sans', verdana, arial, sans-serif; font-size: 28px; fill: rgb(42, 63, 95); fill-opacity: 1; white-space: pre; opacity: 1;" transform="translate(0,113.00000000000001)">1</text></g></g><g class="cbtitleunshift" transform="translate(-80,-60)"><g class="cbtitle" transform=""><text class="ycbcoloraxistitle" x="555.12" y="98.5" text-anchor="start" style="font-family: 'Open Sans', verdana, arial, sans-serif; font-size: 34px; fill: rgb(42, 63, 95); opacity: 1; font-weight: normal; white-space: pre;">Severity</text></g></g><rect class="cboutline" x="475" y="53" width="30" height="297" style="stroke: rgb(68, 68, 68); stroke-opacity: 1; fill: none; stroke-width: 0;"/></g><g class="g-gtitle"><text class="gtitle" x="35" y="30" text-anchor="start" dy="0em" style="font-family: 'Open Sans', verdana, arial, sans-serif; font-size: 39px; fill: rgb(42, 63, 95); opacity: 1; font-weight: normal; white-space: pre;">Semi-quantitative CERAD Score, n=45</text></g></g></svg>