<svg class="main-svg" xmlns="http://www.w3.org/2000/svg" xmlns:xlink="http://www.w3.org/1999/xlink" width="700" height="500" style="" viewBox="0 0 700 500"><rect x="0" y="0" width="700" height="500" style="fill: rgb(255, 255, 255); fill-opacity: 1;"/><defs id="defs-cbe6ed"><g class="clips"/><g class="gradients"><linearGradient x1="0" x2="0" y1="1" y2="0" id="gcbe6ed-cbcoloraxis"><stop offset="0%" stop-color="rgb(13, 8, 135)" stop-opacity="1"/><stop offset="11.11111111111111%" stop-color="rgb(70, 3, 159)" stop-opacity="1"/><stop offset="22.22222222222222%" stop-color="rgb(114, 1, 168)" stop-opacity="1"/><stop offset="33.33333333333333%" stop-color="rgb(156, 23, 158)" stop-opacity="1"/><stop offset="44.44444444444444%" stop-color="rgb(189, 55, 134)" stop-opacity="1"/><stop offset="55.55555555555556%" stop-color="rgb(216, 87, 107)" stop-opacity="1"/><stop offset="66.66666666666666%" stop-color="rgb(237, 121, 83)" stop-opacity="1"/><stop offset="77.77777777777779%" stop-color="rgb(251, 159, 58)" stop-opacity="1"/><stop offset="88.88888888888889%" stop-color="rgb(253, 202, 38)" stop-opacity="1"/><stop offset="100%" stop-color="rgb(240, 249, 33)" stop-opacity="1"/></linearGradient></g><g class="patterns"/></defs><g class="bglayer"/><g class="layer-below"><g class="imagelayer"/><g class="shapelayer"/></g><g class="cartesianlayer"/><g class="polarlayer"/><g class="ternarylayer"/><g class="geolayer"/><g class="funnelarealayer"/><g class="pielayer"/><g class="iciclelayer"/><g class="treemaplayer"/><g class="sunburstlayer"><g class="trace sunburst" stroke-linejoin="round" style="opacity: 1;"><g class="slice cursor-pointer"><path class="surface" d="M308,240L398,240A90,90 0,0,0 287.9731159439317,152.25648790363587L308,240A0,0 0,0,1 308,240Z" style="pointer-events: all; stroke-width: 1; fill: rgb(76, 3, 160); fill-opacity: 1; stroke: rgb(255, 255, 255); stroke-opacity: 1;"/><g class="slicetext"><text data-notex="1" class="slicetext" text-anchor="middle" x="0" y="0" style="font-family: 'Open Sans', verdana, arial, sans-serif; font-size: 28px; fill: rgb(255, 255, 255); fill-opacity: 1; white-space: pre;" transform="translate(342.8499197596638,205.4844556104301)scale(0.6028078417990066)rotate(-51.428571428571445)">Subtype 0</text></g></g><g class="slice cursor-pointer"><path class="surface" d="M308,240L287.9731159439317,152.25648790363587A90,90 0,0,0 226.91280188878227,279.0495365205802L308,240A0,0 0,0,1 308,240Z" style="pointer-events: all; stroke-width: 1; fill: rgb(68, 68, 68); fill-opacity: 1; stroke: rgb(255, 255, 255); stroke-opacity: 1;"/><g class="slicetext"><text data-notex="1" class="slicetext" text-anchor="middle" x="0" y="0" style="font-family: 'Open Sans', verdana, arial, sans-serif; font-size: 28px; fill: rgb(255, 255, 255); fill-opacity: 1; white-space: pre;" transform="translate(261.625573790221,224.02338253956333)scale(0.6028078417990066)rotate(25.714285714285666)">Subtype 2</text></g></g><g class="slice cursor-pointer"><path class="surface" d="M308,240L226.91280188878227,279.0495365205802A90,90 0,0,0 328.0268840560683,327.74351209636416L308,240A0,0 0,0,1 308,240Z" style="pointer-events: all; stroke-width: 1; fill: rgb(68, 68, 68); fill-opacity: 1; stroke: rgb(255, 255, 255); stroke-opacity: 1;"/><g class="slicetext"><text data-notex="1" class="slicetext" text-anchor="middle" x="0" y="0" style="font-family: 'Open Sans', verdana, arial, sans-serif; font-size: 28px; fill: rgb(255, 255, 255); fill-opacity: 1; white-space: pre;" transform="translate(290.90363706112345,288.0653649163464)scale(0.573840998912194)rotate(-64.28571428571422)">Subtype 1</text></g></g><g class="slice cursor-pointer"><path class="surface" d="M308,240L328.0268840560683,327.74351209636416A90,90 0,0,0 398,240.00000000000003L308,240A0,0 0,0,1 308,240Z" style="pointer-events: all; stroke-width: 1; fill: rgb(68, 68, 68); fill-opacity: 1; stroke: rgb(255, 255, 255); stroke-opacity: 1;"/><g class="slicetext"><text data-notex="1" class="slicetext" text-anchor="middle" x="0" y="0" style="font-family: 'Open Sans', verdana, arial, sans-serif; font-size: 28px; fill: rgb(255, 255, 255); fill-opacity: 1; white-space: pre;" transform="translate(344.2580710142427,275.8875635367667)scale(0.573840998912194)rotate(38.571428571428555)">Subtype 3</text></g></g><g class="slice"><path class="surface" d="M398,240L488,240A180,180 0,0,0 308,60L308,150A90,90 0,0,1 398,240Z" style="pointer-events: all; stroke-width: 1; fill: rgb(13, 8, 135); fill-opacity: 1; stroke: rgb(255, 255, 255); stroke-opacity: 1; opacity: 1;"/><g class="slicetext"><text data-notex="1" class="slicetext" text-anchor="middle" x="0" y="0" style="font-family: 'Open Sans', verdana, arial, sans-serif; font-size: 28px; fill: rgb(255, 255, 255); fill-opacity: 1; white-space: pre;" transform="translate(408.82163080563606,152.6133980369083)rotate(-45)">No</text></g></g><g class="slice"><path class="surface" d="M308,150L308,60A180,180 0,0,0 267.9462318878634,64.51297580727174L287.9731159439317,152.25648790363587A90,90 0,0,1 308,150Z" style="pointer-events: all; stroke-width: 1; fill: rgb(240, 249, 33); fill-opacity: 1; stroke: rgb(255, 255, 255); stroke-opacity: 1; opacity: 1;"/><g class="slicetext"><text data-notex="1" class="slicetext" text-anchor="middle" x="0" y="0" style="font-family: 'Open Sans', verdana, arial, sans-serif; font-size: 28px; fill: rgb(68, 68, 68); fill-opacity: 1; white-space: pre;" transform="translate(281.48956059670064,84.9909405502481)scale(0.9461304412774202)rotate(83.57142857142856)">Yes</text></g></g><g class="slice"><path class="surface" d="M287.9731159439317,152.25648790363587L267.9462318878634,64.51297580727174A180,180 0,0,0 145.82560377756457,318.0990730411604L226.91280188878227,279.0495365205802A90,90 0,0,1 287.9731159439317,152.25648790363587Z" style="pointer-events: all; stroke-width: 1; fill: rgb(13, 8, 135); fill-opacity: 1; stroke: rgb(255, 255, 255); stroke-opacity: 1; opacity: 1;"/><g class="slicetext"><text data-notex="1" class="slicetext" text-anchor="middle" x="0" y="0" style="font-family: 'Open Sans', verdana, arial, sans-serif; font-size: 28px; fill: rgb(255, 255, 255); fill-opacity: 1; white-space: pre;" transform="translate(174.9166823340964,249.5)">No</text></g></g><g class="slice"><path class="surface" d="M226.91280188878227,279.0495365205802L145.82560377756457,318.0990730411604A180,180 0,0,0 145.82560377756457,318.0990730411604L226.91280188878227,279.0495365205802A90,90 0,0,1 226.91280188878227,279.0495365205802Z" style="pointer-events: all; stroke-width: 1; fill: rgb(68, 68, 68); fill-opacity: 1; stroke: rgb(255, 255, 255); stroke-opacity: 1; opacity: 1;"/><g class="slicetext"><text data-notex="1" class="slicetext" text-anchor="middle" x="0" y="0" style="font-family: 'Open Sans', verdana, arial, sans-serif; font-size: 28px; fill: rgb(255, 255, 255); fill-opacity: 1; white-space: pre;" transform="translate(308,105)scale(0)">Yes</text></g></g><g class="slice"><path class="surface" d="M226.91280188878227,279.0495365205802L145.82560377756457,318.0990730411604A180,180 0,0,0 348.05376811213654,415.48702419272826L328.0268840560683,327.74351209636416A90,90 0,0,1 226.91280188878227,279.0495365205802Z" style="pointer-events: all; stroke-width: 1; fill: rgb(13, 8, 135); fill-opacity: 1; stroke: rgb(255, 255, 255); stroke-opacity: 1; opacity: 1;"/><g class="slicetext"><text data-notex="1" class="slicetext" text-anchor="middle" x="0" y="0" style="font-family: 'Open Sans', verdana, arial, sans-serif; font-size: 28px; fill: rgb(255, 255, 255); fill-opacity: 1; white-space: pre;" transform="translate(258.8165167620209,364.025821575764)rotate(-64.28571428571422)">No</text></g></g><g class="slice"><path class="surface" d="M328.0268840560683,327.74351209636416L348.05376811213654,415.48702419272826A180,180 0,0,0 348.05376811213654,415.48702419272826L328.0268840560683,327.74351209636416A90,90 0,0,1 328.0268840560683,327.74351209636416Z" style="pointer-events: all; stroke-width: 1; fill: rgb(68, 68, 68); fill-opacity: 1; stroke: rgb(255, 255, 255); stroke-opacity: 1; opacity: 1;"/><g class="slicetext"><text data-notex="1" class="slicetext" text-anchor="middle" x="0" y="0" style="font-family: 'Open Sans', verdana, arial, sans-serif; font-size: 28px; fill: rgb(255, 255, 255); fill-opacity: 1; white-space: pre;" transform="translate(308,105)scale(0)">Yes</text></g></g><g class="slice"><path class="surface" d="M328.0268840560683,327.74351209636416L348.05376811213654,415.48702419272826A180,180 0,0,0 488,240.00000000000006L398,240.00000000000003A90,90 0,0,1 328.0268840560683,327.74351209636416Z" style="pointer-events: all; stroke-width: 1; fill: rgb(13, 8, 135); fill-opacity: 1; stroke: rgb(255, 255, 255); stroke-opacity: 1; opacity: 1;"/><g class="slicetext"><text data-notex="1" class="slicetext" text-anchor="middle" x="0" y="0" style="font-family: 'Open Sans', verdana, arial, sans-serif; font-size: 28px; fill: rgb(255, 255, 255); fill-opacity: 1; white-space: pre;" transform="translate(406.12557442483916,330.40349044566346)rotate(38.571428571428555)">No</text></g></g><g class="slice"><path class="surface" d="M398,240.00000000000003L488,240.00000000000006A180,180 0,0,0 488,240.00000000000006L398,240.00000000000003A90,90 0,0,1 398,240.00000000000003Z" style="pointer-events: all; stroke-width: 1; fill: rgb(68, 68, 68); fill-opacity: 1; stroke: rgb(255, 255, 255); stroke-opacity: 1; opacity: 1;"/><g class="slicetext"><text data-notex="1" class="slicetext" text-anchor="middle" x="0" y="0" style="font-family: 'Open Sans', verdana, arial, sans-serif; font-size: 28px; fill: rgb(255, 255, 255); fill-opacity: 1; white-space: pre;" transform="translate(308,105)scale(0)">Yes</text></g></g></g></g><g class="glimages"/><defs id="topdefs-cbe6ed"><g class="clips"/></defs><g class="layer-above"><g class="imagelayer"/><g class="shapelayer"/></g><g class="infolayer"><g class="cbcoloraxis colorbar" transform="translate(80,60)"><rect class="cbbg" x="465" y="0" width="142.953125" height="360" style="fill: rgb(0, 0, 0); fill-opacity: 0; stroke: rgb(68, 68, 68); stroke-opacity: 1; stroke-width: 0;"/><g class="cbfills" transform="translate(0,53)"><rect class="cbfill" x="475" width="30" y="0" height="297" style="fill: url('#gcbe6ed-cbcoloraxis');"/></g><g class="cblines" transform="translate(0,53)"/><g class="cbaxis crisp" transform="translate(0,-60)"><g class="ycbcoloraxistick"><text text-anchor="start" x="511.1" y="9.799999999999999" transform="translate(0,410)" style="font-family: 'Open Sans', verdana, arial, sans-serif; font-size: 28px; fill: rgb(42, 63, 95); fill-opacity: 1; white-space: pre; opacity: 1;">0</text></g><g class="ycbcoloraxistick"><text text-anchor="start" x="511.1" y="9.799999999999999" style="font-family: 'Open Sans', verdana, arial, sans-serif; font-size: 28px; fill: rgb(42, 63, 95); fill-opacity: 1; white-space: pre; opacity: 1;" transform="translate(0,350.6)">0.2</text></g><g class="ycbcoloraxistick"><text text-anchor="start" x="511.1" y="9.799999999999999" style="font-family: 'Open Sans', verdana, arial, sans-serif; font-size: 28px; fill: rgb(42, 63, 95); fill-opacity: 1; white-space: pre; opacity: 1;" transform="translate(0,291.2)">0.4</text></g><g class="ycbcoloraxistick"><text text-anchor="start" x="511.1" y="9.799999999999999" style="font-family: 'Open Sans', verdana, arial, sans-serif; font-size: 28px; fill: rgb(42, 63, 95); fill-opacity: 1; white-space: pre; opacity: 1;" transform="translate(0,231.8)">0.6</text></g><g class="ycbcoloraxistick"><text text-anchor="start" x="511.1" y="9.799999999999999" style="font-family: 'Open Sans', verdana, arial, sans-serif; font-size: 28px; fill: rgb(42, 63, 95); fill-opacity: 1; white-space: pre; opacity: 1;" transform="translate(0,172.4)">0.8</text></g><g class="ycbcoloraxistick"><text text-anchor="start" x="511.1" y="9.799999999999999" style="font-family: 'Open Sans', verdana, arial, sans-serif; font-size: 28px; fill: rgb(42, 63, 95); fill-opacity: 1; white-space: pre; opacity: 1;" transform="translate(0,113.00000000000001)">1</text></g></g><g class="cbtitleunshift" transform="translate(-80,-60)"><g class="cbtitle" transform=""><text class="ycbcoloraxistitle" x="555.12" y="98.5" text-anchor="start" style="font-family: 'Open Sans', verdana, arial, sans-serif; font-size: 34px; fill: rgb(42, 63, 95); opacity: 1; font-weight: normal; white-space: pre;">Severity</text></g></g><rect class="cboutline" x="475" y="53" width="30" height="297" style="stroke: rgb(68, 68, 68); stroke-opacity: 1; fill: none; stroke-width: 0;"/></g><g class="g-gtitle"><text class="gtitle" x="35" y="30" text-anchor="start" dy="0em" style="font-family: 'Open Sans', verdana, arial, sans-serif; font-size: 39px; fill: rgb(42, 63, 95); opacity: 1; font-weight: normal; white-space: pre;">TDP-43 Pathology: Neocortex, n=28</text></g></g></svg>