<?xml version="1.0" encoding="utf-8" standalone="no"?>
<!DOCTYPE svg PUBLIC "-//W3C//DTD SVG 1.1//EN"
  "http://www.w3.org/Graphics/SVG/1.1/DTD/svg11.dtd">
<!-- Created with matplotlib (https://matplotlib.org/) -->
<svg height="460.8pt" version="1.1" viewBox="0 0 576 460.8" width="576pt" xmlns="http://www.w3.org/2000/svg" xmlns:xlink="http://www.w3.org/1999/xlink">
 <defs>
  <style type="text/css">
*{stroke-linecap:butt;stroke-linejoin:round;}
  </style>
 </defs>
 <g id="figure_1">
  <g id="patch_1">
   <path d="M 0 460.8 
L 576 460.8 
L 576 0 
L 0 0 
z
" style="fill:#ffffff;"/>
  </g>
  <g id="axes_1">
   <g id="patch_2">
    <path d="M 103.66 377.06 
L 565.2 377.06 
L 565.2 22.9575 
L 103.66 22.9575 
z
" style="fill:#ffffff;"/>
   </g>
   <g id="PolyCollection_1">
    <path clip-path="url(#p5bbd349c62)" d="M 103.66 22.9575 
L 103.66 22.9575 
L 107.933519 24.161769 
L 112.207037 25.396671 
L 116.480556 26.659991 
L 120.754074 27.947713 
L 125.027593 29.257082 
L 129.301111 30.588957 
L 133.57463 31.942542 
L 137.848148 33.328018 
L 142.121667 34.720325 
L 146.395185 36.133602 
L 150.668704 37.564316 
L 154.942222 39.004457 
L 159.215741 40.459057 
L 163.489259 41.92974 
L 167.762778 43.413793 
L 172.036296 44.891107 
L 176.309815 46.384921 
L 180.583333 47.875984 
L 184.856852 49.37425 
L 189.13037 50.850599 
L 193.403889 52.337815 
L 197.677407 53.837657 
L 201.950926 55.346572 
L 206.224444 56.812266 
L 210.497963 58.340433 
L 214.771481 59.967412 
L 219.045 61.653865 
L 223.318519 63.38235 
L 227.592037 65.17949 
L 231.865556 67.006416 
L 236.139074 68.934749 
L 240.412593 70.863803 
L 244.686111 72.824742 
L 248.95963 74.792677 
L 253.233148 76.761152 
L 257.506667 78.734843 
L 261.780185 80.734883 
L 266.053704 82.67678 
L 270.327222 84.638694 
L 274.600741 86.53575 
L 278.874259 88.428794 
L 283.147778 90.260797 
L 287.421296 92.062449 
L 291.694815 93.784635 
L 295.968333 95.441075 
L 300.241852 97.029814 
L 304.51537 98.511307 
L 308.788889 99.93005 
L 313.062407 101.313045 
L 317.335926 102.651896 
L 321.609444 104.03171 
L 325.882963 105.419702 
L 330.156481 106.826849 
L 334.43 108.189508 
L 338.703519 109.588788 
L 342.977037 110.966885 
L 347.250556 112.381052 
L 351.524074 113.756883 
L 355.797593 115.168816 
L 360.071111 116.566001 
L 364.34463 117.908246 
L 368.618148 119.297497 
L 372.891667 120.64739 
L 377.165185 122.013605 
L 381.438704 123.409397 
L 385.712222 124.79197 
L 389.985741 126.148939 
L 394.259259 127.52409 
L 398.532778 128.89903 
L 402.806296 130.267839 
L 407.079815 131.617842 
L 411.353333 132.976217 
L 415.626852 134.341139 
L 419.90037 135.700274 
L 424.173889 137.041022 
L 428.447407 138.413559 
L 432.720926 139.720281 
L 436.994444 141.015926 
L 441.267963 142.322753 
L 445.541481 143.632909 
L 449.815 144.912073 
L 454.088519 146.189699 
L 458.362037 147.451317 
L 462.635556 148.703172 
L 466.909074 149.98629 
L 471.182593 151.239229 
L 475.456111 152.511564 
L 479.72963 153.77489 
L 484.003148 154.997755 
L 488.276667 156.255131 
L 492.550185 157.476866 
L 496.823704 158.636125 
L 501.097222 159.842803 
L 505.370741 161.048498 
L 509.644259 162.179806 
L 513.917778 163.336522 
L 518.191296 164.468388 
L 522.464815 165.623232 
L 526.738333 166.743284 
L 531.011852 167.860865 
L 535.28537 168.948997 
L 539.558889 170.017341 
L 543.832407 171.006125 
L 548.105926 172.083321 
L 552.379444 173.11773 
L 556.652963 174.130676 
L 560.926481 175.123079 
L 565.2 176.10267 
L 565.2 202.778531 
L 565.2 202.778531 
L 560.926481 201.579043 
L 556.652963 200.32634 
L 552.379444 199.074062 
L 548.105926 197.890098 
L 543.832407 196.680408 
L 539.558889 195.441454 
L 535.28537 194.14276 
L 531.011852 192.860366 
L 526.738333 191.57209 
L 522.464815 190.282869 
L 518.191296 188.976504 
L 513.917778 187.663261 
L 509.644259 186.352994 
L 505.370741 184.994586 
L 501.097222 183.712212 
L 496.823704 182.393366 
L 492.550185 180.973534 
L 488.276667 179.566425 
L 484.003148 178.157463 
L 479.72963 176.77803 
L 475.456111 175.388636 
L 471.182593 173.94706 
L 466.909074 172.534648 
L 462.635556 171.1033 
L 458.362037 169.688587 
L 454.088519 168.32135 
L 449.815 166.895792 
L 445.541481 165.462479 
L 441.267963 164.01613 
L 436.994444 162.569257 
L 432.720926 161.078742 
L 428.447407 159.642231 
L 424.173889 158.133613 
L 419.90037 156.647219 
L 415.626852 155.1541 
L 411.353333 153.662679 
L 407.079815 152.160601 
L 402.806296 150.681122 
L 398.532778 149.175974 
L 394.259259 147.68078 
L 389.985741 146.14752 
L 385.712222 144.649881 
L 381.438704 143.130998 
L 377.165185 141.62096 
L 372.891667 140.079007 
L 368.618148 138.527596 
L 364.34463 137.029758 
L 360.071111 135.491779 
L 355.797593 133.986544 
L 351.524074 132.481893 
L 347.250556 130.928093 
L 342.977037 129.382848 
L 338.703519 127.85848 
L 334.43 126.30176 
L 330.156481 124.773967 
L 325.882963 123.259463 
L 321.609444 121.734749 
L 317.335926 120.214336 
L 313.062407 118.660613 
L 308.788889 117.112965 
L 304.51537 115.509635 
L 300.241852 113.746859 
L 295.968333 111.872609 
L 291.694815 109.898163 
L 287.421296 107.897642 
L 283.147778 105.775457 
L 278.874259 103.55772 
L 274.600741 101.247195 
L 270.327222 98.947754 
L 266.053704 96.553263 
L 261.780185 94.170187 
L 257.506667 91.739027 
L 253.233148 89.272952 
L 248.95963 86.832422 
L 244.686111 84.45955 
L 240.412593 82.077863 
L 236.139074 79.732481 
L 231.865556 77.418881 
L 227.592037 75.18584 
L 223.318519 73.035376 
L 219.045 70.958928 
L 214.771481 68.934811 
L 210.497963 67.015054 
L 206.224444 65.182025 
L 201.950926 63.390529 
L 197.677407 61.605729 
L 193.403889 59.814824 
L 189.13037 58.008492 
L 184.856852 56.204645 
L 180.583333 54.389633 
L 176.309815 52.6146 
L 172.036296 50.816622 
L 167.762778 49.008123 
L 163.489259 47.20544 
L 159.215741 45.407123 
L 154.942222 43.610405 
L 150.668704 41.826239 
L 146.395185 40.053581 
L 142.121667 38.286468 
L 137.848148 36.534804 
L 133.57463 34.788222 
L 129.301111 33.05244 
L 125.027593 31.321714 
L 120.754074 29.611746 
L 116.480556 27.922663 
L 112.207037 26.249085 
L 107.933519 24.593249 
L 103.66 22.9575 
z
" style="fill:#d60000;fill-opacity:0.5;"/>
   </g>
   <g id="PolyCollection_2">
    <path clip-path="url(#p5bbd349c62)" d="M 103.66 22.9575 
L 103.66 22.9575 
L 107.933519 23.633019 
L 112.207037 24.375208 
L 116.480556 25.18311 
L 120.754074 26.045734 
L 125.027593 26.966808 
L 129.301111 27.948723 
L 133.57463 28.981569 
L 137.848148 30.071033 
L 142.121667 31.203742 
L 146.395185 32.372515 
L 150.668704 33.59219 
L 154.942222 34.859591 
L 159.215741 36.164437 
L 163.489259 37.489647 
L 167.762778 38.845162 
L 172.036296 40.217457 
L 176.309815 41.616044 
L 180.583333 43.060923 
L 184.856852 44.562508 
L 189.13037 46.023544 
L 193.403889 47.536583 
L 197.677407 49.032434 
L 201.950926 50.527467 
L 206.224444 52.06245 
L 210.497963 53.678267 
L 214.771481 55.495425 
L 219.045 57.479788 
L 223.318519 59.623947 
L 227.592037 61.956145 
L 231.865556 64.372022 
L 236.139074 66.896833 
L 240.412593 69.503829 
L 244.686111 72.20415 
L 248.95963 74.921382 
L 253.233148 77.686431 
L 257.506667 80.46121 
L 261.780185 83.231938 
L 266.053704 85.995563 
L 270.327222 88.736315 
L 274.600741 91.431918 
L 278.874259 94.015762 
L 283.147778 96.562207 
L 287.421296 98.947381 
L 291.694815 101.280225 
L 295.968333 103.484007 
L 300.241852 105.564038 
L 304.51537 107.487022 
L 308.788889 109.212117 
L 313.062407 110.859099 
L 317.335926 112.521135 
L 321.609444 114.114584 
L 325.882963 115.724205 
L 330.156481 117.37786 
L 334.43 119.042362 
L 338.703519 120.71656 
L 342.977037 122.374698 
L 347.250556 124.033396 
L 351.524074 125.652397 
L 355.797593 127.264719 
L 360.071111 128.838469 
L 364.34463 130.41834 
L 368.618148 132.054452 
L 372.891667 133.627768 
L 377.165185 135.222401 
L 381.438704 136.79614 
L 385.712222 138.365118 
L 389.985741 139.904731 
L 394.259259 141.47655 
L 398.532778 143.013567 
L 402.806296 144.544503 
L 407.079815 146.103692 
L 411.353333 147.654585 
L 415.626852 149.192976 
L 419.90037 150.714534 
L 424.173889 152.17102 
L 428.447407 153.667077 
L 432.720926 155.147794 
L 436.994444 156.608306 
L 441.267963 158.078851 
L 445.541481 159.588284 
L 449.815 161.020744 
L 454.088519 162.461802 
L 458.362037 163.883653 
L 462.635556 165.31412 
L 466.909074 166.754805 
L 471.182593 168.149218 
L 475.456111 169.546485 
L 479.72963 170.944378 
L 484.003148 172.299947 
L 488.276667 173.643385 
L 492.550185 174.974149 
L 496.823704 176.330791 
L 501.097222 177.636066 
L 505.370741 178.966409 
L 509.644259 180.269758 
L 513.917778 181.552841 
L 518.191296 182.803633 
L 522.464815 184.046115 
L 526.738333 185.261483 
L 531.011852 186.491863 
L 535.28537 187.730972 
L 539.558889 188.90752 
L 543.832407 190.068886 
L 548.105926 191.250502 
L 552.379444 192.391454 
L 556.652963 193.470052 
L 560.926481 194.601992 
L 565.2 195.693413 
L 565.2 228.532465 
L 565.2 228.532465 
L 560.926481 227.728053 
L 556.652963 226.850471 
L 552.379444 225.986293 
L 548.105926 225.061984 
L 543.832407 224.138797 
L 539.558889 223.184809 
L 535.28537 222.214271 
L 531.011852 221.21481 
L 526.738333 220.191828 
L 522.464815 219.089535 
L 518.191296 217.996325 
L 513.917778 216.892254 
L 509.644259 215.743222 
L 505.370741 214.613175 
L 501.097222 213.43177 
L 496.823704 212.184647 
L 492.550185 210.975088 
L 488.276667 209.703752 
L 484.003148 208.394417 
L 479.72963 207.063153 
L 475.456111 205.722256 
L 471.182593 204.377984 
L 466.909074 203.02957 
L 462.635556 201.658098 
L 458.362037 200.275529 
L 454.088519 198.839635 
L 449.815 197.419904 
L 445.541481 196.002355 
L 441.267963 194.532584 
L 436.994444 193.077213 
L 432.720926 191.606894 
L 428.447407 190.083032 
L 424.173889 188.536624 
L 419.90037 186.982435 
L 415.626852 185.426844 
L 411.353333 183.8415 
L 407.079815 182.222247 
L 402.806296 180.570906 
L 398.532778 178.958682 
L 394.259259 177.325142 
L 389.985741 175.686346 
L 385.712222 174.055558 
L 381.438704 172.410275 
L 377.165185 170.730179 
L 372.891667 169.094057 
L 368.618148 167.358239 
L 364.34463 165.595113 
L 360.071111 163.851651 
L 355.797593 162.119803 
L 351.524074 160.378846 
L 347.250556 158.644249 
L 342.977037 156.906929 
L 338.703519 155.130639 
L 334.43 153.314666 
L 330.156481 151.564357 
L 325.882963 149.759536 
L 321.609444 147.970161 
L 317.335926 146.20556 
L 313.062407 144.397145 
L 308.788889 142.588579 
L 304.51537 140.607955 
L 300.241852 138.380966 
L 295.968333 135.84549 
L 291.694815 133.262721 
L 287.421296 130.409781 
L 283.147778 127.421662 
L 278.874259 124.234298 
L 274.600741 120.954754 
L 270.327222 117.563851 
L 266.053704 114.139926 
L 261.780185 110.645584 
L 257.506667 107.063637 
L 253.233148 103.464516 
L 248.95963 99.906979 
L 244.686111 96.365159 
L 240.412593 92.877835 
L 236.139074 89.44491 
L 231.865556 86.140756 
L 227.592037 82.96433 
L 223.318519 79.94423 
L 219.045 77.05365 
L 214.771481 74.353652 
L 210.497963 71.867303 
L 206.224444 69.577545 
L 201.950926 67.407829 
L 197.677407 65.221591 
L 193.403889 63.033656 
L 189.13037 60.854246 
L 184.856852 58.687378 
L 180.583333 56.551118 
L 176.309815 54.413641 
L 172.036296 52.308544 
L 167.762778 50.228403 
L 163.489259 48.183644 
L 159.215741 46.147857 
L 154.942222 44.1487 
L 150.668704 42.186633 
L 146.395185 40.244197 
L 142.121667 38.322076 
L 137.848148 36.435484 
L 133.57463 34.599665 
L 129.301111 32.792703 
L 125.027593 31.04325 
L 120.754074 29.329764 
L 116.480556 27.659942 
L 112.207037 26.038077 
L 107.933519 24.469163 
L 103.66 22.9575 
z
" style="fill:#e1cd9c;fill-opacity:0.5;"/>
   </g>
   <g id="PolyCollection_3">
    <path clip-path="url(#p5bbd349c62)" d="M 103.66 22.9575 
L 103.66 22.9575 
L 107.933519 23.633019 
L 112.207037 24.375208 
L 116.480556 25.18311 
L 120.754074 26.045734 
L 125.027593 26.966808 
L 129.301111 27.948723 
L 133.57463 28.981569 
L 137.848148 30.071033 
L 142.121667 31.203742 
L 146.395185 32.372515 
L 150.668704 33.59219 
L 154.942222 34.859591 
L 159.215741 36.164437 
L 163.489259 37.489647 
L 167.762778 38.845162 
L 172.036296 40.217457 
L 176.309815 41.616044 
L 180.583333 43.060923 
L 184.856852 44.562508 
L 189.13037 46.023544 
L 193.403889 47.536583 
L 197.677407 49.032434 
L 201.950926 50.527467 
L 206.224444 52.06245 
L 210.497963 53.678267 
L 214.771481 55.495425 
L 219.045 57.479788 
L 223.318519 59.623947 
L 227.592037 61.956145 
L 231.865556 64.372022 
L 236.139074 66.896833 
L 240.412593 69.503829 
L 244.686111 72.20415 
L 248.95963 74.921382 
L 253.233148 77.686431 
L 257.506667 80.46121 
L 261.780185 83.231938 
L 266.053704 85.995563 
L 270.327222 88.736315 
L 274.600741 91.431918 
L 278.874259 94.015762 
L 283.147778 96.562207 
L 287.421296 98.947381 
L 291.694815 101.280225 
L 295.968333 103.484007 
L 300.241852 105.564038 
L 304.51537 107.487022 
L 308.788889 109.212117 
L 313.062407 110.859099 
L 317.335926 112.521135 
L 321.609444 114.114584 
L 325.882963 115.724205 
L 330.156481 117.37786 
L 334.43 119.042362 
L 338.703519 120.71656 
L 342.977037 122.374698 
L 347.250556 124.033396 
L 351.524074 125.652397 
L 355.797593 127.264719 
L 360.071111 128.838469 
L 364.34463 130.41834 
L 368.618148 132.054452 
L 372.891667 133.627768 
L 377.165185 135.222401 
L 381.438704 136.79614 
L 385.712222 138.365118 
L 389.985741 139.904731 
L 394.259259 141.47655 
L 398.532778 143.013567 
L 402.806296 144.544503 
L 407.079815 146.103692 
L 411.353333 147.654585 
L 415.626852 149.192976 
L 419.90037 150.714534 
L 424.173889 152.17102 
L 428.447407 153.667077 
L 432.720926 155.147794 
L 436.994444 156.608306 
L 441.267963 158.078851 
L 445.541481 159.588284 
L 449.815 161.020744 
L 454.088519 162.461802 
L 458.362037 163.883653 
L 462.635556 165.31412 
L 466.909074 166.754805 
L 471.182593 168.149218 
L 475.456111 169.546485 
L 479.72963 170.944378 
L 484.003148 172.299947 
L 488.276667 173.643385 
L 492.550185 174.974149 
L 496.823704 176.330791 
L 501.097222 177.636066 
L 505.370741 178.966409 
L 509.644259 180.269758 
L 513.917778 181.552841 
L 518.191296 182.803633 
L 522.464815 184.046115 
L 526.738333 185.261483 
L 531.011852 186.491863 
L 535.28537 187.730972 
L 539.558889 188.90752 
L 543.832407 190.068886 
L 548.105926 191.250502 
L 552.379444 192.391454 
L 556.652963 193.470052 
L 560.926481 194.601992 
L 565.2 195.693413 
L 565.2 199.36631 
L 565.2 199.36631 
L 560.926481 198.822484 
L 556.652963 198.23487 
L 552.379444 197.614901 
L 548.105926 196.959578 
L 543.832407 196.269339 
L 539.558889 195.549001 
L 535.28537 194.786239 
L 531.011852 193.992272 
L 526.738333 193.170129 
L 522.464815 192.311395 
L 518.191296 191.422558 
L 513.917778 190.50515 
L 509.644259 189.557467 
L 505.370741 188.578682 
L 501.097222 187.56824 
L 496.823704 186.532851 
L 492.550185 185.468507 
L 488.276667 184.375302 
L 484.003148 183.248149 
L 479.72963 182.097002 
L 475.456111 180.922728 
L 471.182593 179.724021 
L 466.909074 178.502605 
L 462.635556 177.252418 
L 458.362037 175.977576 
L 454.088519 174.678919 
L 449.815 173.364778 
L 445.541481 172.026786 
L 441.267963 170.667459 
L 436.994444 169.280361 
L 432.720926 167.874255 
L 428.447407 166.444971 
L 424.173889 164.995857 
L 419.90037 163.523134 
L 415.626852 162.040107 
L 411.353333 160.538946 
L 407.079815 159.023467 
L 402.806296 157.488489 
L 398.532778 155.927283 
L 394.259259 154.369486 
L 389.985741 152.791751 
L 385.712222 151.193685 
L 381.438704 149.581531 
L 377.165185 147.952537 
L 372.891667 146.316145 
L 368.618148 144.666117 
L 364.34463 143.000442 
L 360.071111 141.324569 
L 355.797593 139.637933 
L 351.524074 137.940758 
L 347.250556 136.235397 
L 342.977037 134.517219 
L 338.703519 132.791675 
L 334.43 131.057714 
L 330.156481 129.315282 
L 325.882963 127.567902 
L 321.609444 125.816964 
L 317.335926 124.06096 
L 313.062407 122.295605 
L 308.788889 120.53033 
L 304.51537 118.687932 
L 300.241852 116.712866 
L 295.968333 114.623061 
L 291.694815 112.421871 
L 287.421296 110.122679 
L 283.147778 107.72927 
L 278.874259 105.265109 
L 274.600741 102.745883 
L 270.327222 100.167404 
L 266.053704 97.559465 
L 261.780185 94.919717 
L 257.506667 92.272989 
L 253.233148 89.62714 
L 248.95963 86.989106 
L 244.686111 84.361155 
L 240.412593 81.762555 
L 236.139074 79.209277 
L 231.865556 76.697978 
L 227.592037 74.248984 
L 223.318519 71.875119 
L 219.045 69.578712 
L 214.771481 67.371086 
L 210.497963 65.266692 
L 206.224444 63.266308 
L 201.950926 61.336521 
L 197.677407 59.426433 
L 193.403889 57.525606 
L 189.13037 55.649138 
L 184.856852 53.789555 
L 180.583333 51.951494 
L 176.309815 50.131665 
L 172.036296 48.333392 
L 167.762778 46.554986 
L 163.489259 44.802966 
L 159.215741 43.072264 
L 154.942222 41.367815 
L 150.668704 39.686515 
L 146.395185 38.030665 
L 142.121667 36.398273 
L 137.848148 34.79086 
L 133.57463 33.213176 
L 129.301111 31.660456 
L 125.027593 30.13512 
L 120.754074 28.641021 
L 116.480556 27.17448 
L 112.207037 25.737906 
L 107.933519 24.331984 
L 103.66 22.9575 
z
" style="fill:#93ffba;fill-opacity:0.5;"/>
   </g>
   <g id="PolyCollection_4">
    <defs>
     <path d="M 103.66 -437.8425 
L 103.66 -437.8425 
L 129.301111 -437.8425 
L 129.301111 -406.044958 
L 154.942222 -406.044958 
L 154.942222 -358.803916 
L 206.224444 -358.803916 
L 206.224444 -340.994331 
L 257.506667 -340.994331 
L 257.506667 -316.924894 
L 308.788889 -316.924894 
L 308.788889 -316.924894 
L 360.071111 -316.924894 
L 360.071111 -302.381876 
L 411.353333 -302.381876 
L 411.353333 -302.381876 
L 462.635556 -302.381876 
L 462.635556 -269.82165 
L 513.917778 -269.82165 
L 513.917778 -269.82165 
L 565.2 -269.82165 
L 565.2 -269.82165 
L 565.2 -370.67437 
L 565.2 -370.67437 
L 565.2 -370.67437 
L 513.917778 -370.67437 
L 513.917778 -370.67437 
L 462.635556 -370.67437 
L 462.635556 -379.812669 
L 411.353333 -379.812669 
L 411.353333 -379.812669 
L 360.071111 -379.812669 
L 360.071111 -386.422085 
L 308.788889 -386.422085 
L 308.788889 -386.422085 
L 257.506667 -386.422085 
L 257.506667 -400.545109 
L 206.224444 -400.545109 
L 206.224444 -411.479939 
L 154.942222 -411.479939 
L 154.942222 -435.76482 
L 129.301111 -435.76482 
L 129.301111 -437.8425 
L 103.66 -437.8425 
z
" id="ma93b1da7b0" style="stroke:#9c3190;stroke-opacity:0.5;"/>
    </defs>
    <g clip-path="url(#p5bbd349c62)">
     <use style="fill:#9c3190;fill-opacity:0.5;stroke:#9c3190;stroke-opacity:0.5;" x="0" xlink:href="#ma93b1da7b0" y="460.8"/>
    </g>
   </g>
   <g id="matplotlib.axis_1">
    <g id="xtick_1">
     <g id="line2d_1">
      <defs>
       <path d="M 0 0 
L 0 3.5 
" id="mc85642aae0" style="stroke:#000000;stroke-width:0.8;"/>
      </defs>
      <g>
       <use style="stroke:#000000;stroke-width:0.8;" x="103.66" xlink:href="#mc85642aae0" y="377.06"/>
      </g>
     </g>
     <g id="text_1">
      <text style="font-family:DejaVu Sans;font-size:32px;font-style:normal;font-weight:normal;text-anchor:middle;" transform="rotate(-0, 103.66, 408.375)" x="103.66" y="408.375">0</text>
     </g>
    </g>
    <g id="xtick_2">
     <g id="line2d_2">
      <g>
       <use style="stroke:#000000;stroke-width:0.8;" x="317.335926" xlink:href="#mc85642aae0" y="377.06"/>
      </g>
     </g>
     <g id="text_2">
      <text style="font-family:DejaVu Sans;font-size:32px;font-style:normal;font-weight:normal;text-anchor:middle;" transform="rotate(-0, 317.335926, 408.375)" x="317.335926" y="408.375">50</text>
     </g>
    </g>
    <g id="xtick_3">
     <g id="line2d_3">
      <g>
       <use style="stroke:#000000;stroke-width:0.8;" x="531.011852" xlink:href="#mc85642aae0" y="377.06"/>
      </g>
     </g>
     <g id="text_3">
      <text style="font-family:DejaVu Sans;font-size:32px;font-style:normal;font-weight:normal;text-anchor:middle;" transform="rotate(-0, 531.011852, 408.375)" x="531.011852" y="408.375">100</text>
     </g>
    </g>
    <g id="text_4">
     <text style="font-family:DejaVu Sans;font-size:32px;font-style:normal;font-weight:normal;text-anchor:middle;" transform="rotate(-0, 334.43, 443.345)" x="334.43" y="443.345">Time (months)</text>
    </g>
   </g>
   <g id="matplotlib.axis_2">
    <g id="ytick_1">
     <g id="line2d_4">
      <defs>
       <path d="M 0 0 
L -3.5 0 
" id="mefe722a3ce" style="stroke:#000000;stroke-width:0.8;"/>
      </defs>
      <g>
       <use style="stroke:#000000;stroke-width:0.8;" x="103.66" xlink:href="#mefe722a3ce" y="377.06"/>
      </g>
     </g>
     <g id="text_5">
      <text style="font-family:DejaVu Sans;font-size:32px;font-style:normal;font-weight:normal;text-anchor:end;" transform="rotate(-0, 96.66, 389.2175)" x="96.66" y="389.2175">0.0</text>
     </g>
    </g>
    <g id="ytick_2">
     <g id="line2d_5">
      <g>
       <use style="stroke:#000000;stroke-width:0.8;" x="103.66" xlink:href="#mefe722a3ce" y="306.2395"/>
      </g>
     </g>
     <g id="text_6">
      <text style="font-family:DejaVu Sans;font-size:32px;font-style:normal;font-weight:normal;text-anchor:end;" transform="rotate(-0, 96.66, 318.397)" x="96.66" y="318.397">0.2</text>
     </g>
    </g>
    <g id="ytick_3">
     <g id="line2d_6">
      <g>
       <use style="stroke:#000000;stroke-width:0.8;" x="103.66" xlink:href="#mefe722a3ce" y="235.419"/>
      </g>
     </g>
     <g id="text_7">
      <text style="font-family:DejaVu Sans;font-size:32px;font-style:normal;font-weight:normal;text-anchor:end;" transform="rotate(-0, 96.66, 247.5765)" x="96.66" y="247.5765">0.4</text>
     </g>
    </g>
    <g id="ytick_4">
     <g id="line2d_7">
      <g>
       <use style="stroke:#000000;stroke-width:0.8;" x="103.66" xlink:href="#mefe722a3ce" y="164.5985"/>
      </g>
     </g>
     <g id="text_8">
      <text style="font-family:DejaVu Sans;font-size:32px;font-style:normal;font-weight:normal;text-anchor:end;" transform="rotate(-0, 96.66, 176.756)" x="96.66" y="176.756">0.6</text>
     </g>
    </g>
    <g id="ytick_5">
     <g id="line2d_8">
      <g>
       <use style="stroke:#000000;stroke-width:0.8;" x="103.66" xlink:href="#mefe722a3ce" y="93.778"/>
      </g>
     </g>
     <g id="text_9">
      <text style="font-family:DejaVu Sans;font-size:32px;font-style:normal;font-weight:normal;text-anchor:end;" transform="rotate(-0, 96.66, 105.9355)" x="96.66" y="105.9355">0.8</text>
     </g>
    </g>
    <g id="ytick_6">
     <g id="line2d_9">
      <g>
       <use style="stroke:#000000;stroke-width:0.8;" x="103.66" xlink:href="#mefe722a3ce" y="22.9575"/>
      </g>
     </g>
     <g id="text_10">
      <text style="font-family:DejaVu Sans;font-size:32px;font-style:normal;font-weight:normal;text-anchor:end;" transform="rotate(-0, 96.66, 35.115)" x="96.66" y="35.115">1.0</text>
     </g>
    </g>
    <g id="text_11">
     <text style="font-family:DejaVu Sans;font-size:32px;font-style:normal;font-weight:normal;text-anchor:middle;" transform="rotate(-90, 35.115, 200.00875)" x="35.115" y="200.00875">Probability of survival</text>
    </g>
   </g>
   <g id="line2d_10">
    <path clip-path="url(#p5bbd349c62)" d="M 103.66 22.9575 
L 129.301111 22.9575 
L 129.301111 31.192442 
L 154.942222 31.192442 
L 154.942222 69.153515 
L 206.224444 69.153515 
L 206.224444 83.815729 
L 257.506667 83.815729 
L 257.506667 102.940355 
L 308.788889 102.940355 
L 308.788889 102.940355 
L 360.071111 102.940355 
L 360.071111 113.092935 
L 411.353333 113.092935 
L 411.353333 113.092935 
L 462.635556 113.092935 
L 462.635556 131.947725 
L 513.917778 131.947725 
L 513.917778 131.947725 
L 565.2 131.947725 
L 565.2 131.947725 
" style="fill:none;stroke:#9c3190;stroke-linecap:square;stroke-width:3;"/>
   </g>
   <g id="patch_3">
    <path d="M 103.66 377.06 
L 103.66 22.9575 
" style="fill:none;stroke:#000000;stroke-linecap:square;stroke-linejoin:miter;stroke-width:0.8;"/>
   </g>
   <g id="patch_4">
    <path d="M 565.2 377.06 
L 565.2 22.9575 
" style="fill:none;stroke:#000000;stroke-linecap:square;stroke-linejoin:miter;stroke-width:0.8;"/>
   </g>
   <g id="patch_5">
    <path d="M 103.66 377.06 
L 565.2 377.06 
" style="fill:none;stroke:#000000;stroke-linecap:square;stroke-linejoin:miter;stroke-width:0.8;"/>
   </g>
   <g id="patch_6">
    <path d="M 103.66 22.9575 
L 565.2 22.9575 
" style="fill:none;stroke:#000000;stroke-linecap:square;stroke-linejoin:miter;stroke-width:0.8;"/>
   </g>
   <g id="legend_1">
    <g id="patch_7">
     <path d="M 371.73 103.0125 
L 556.8 103.0125 
Q 559.2 103.0125 559.2 100.6125 
L 559.2 31.3575 
Q 559.2 28.9575 556.8 28.9575 
L 371.73 28.9575 
Q 369.33 28.9575 369.33 31.3575 
L 369.33 100.6125 
Q 369.33 103.0125 371.73 103.0125 
z
" style="fill:#ffffff;opacity:0.8;stroke:#cccccc;stroke-linejoin:miter;"/>
    </g>
    <g id="patch_8">
     <path d="M 374.13 42.875625 
L 398.13 42.875625 
L 398.13 34.475625 
L 374.13 34.475625 
z
" style="fill:#d60000;opacity:0.5;"/>
    </g>
    <g id="text_12">
     <text style="font-family:DejaVu Sans;font-size:12px;font-style:normal;font-weight:normal;text-anchor:start;" transform="rotate(-0, 407.73, 42.875625)" x="407.73" y="42.875625">Predicted survival (MLP)</text>
    </g>
    <g id="patch_9">
     <path d="M 374.13 60.489375 
L 398.13 60.489375 
L 398.13 52.089375 
L 374.13 52.089375 
z
" style="fill:#e1cd9c;opacity:0.5;"/>
    </g>
    <g id="text_13">
     <text style="font-family:DejaVu Sans;font-size:12px;font-style:normal;font-weight:normal;text-anchor:start;" transform="rotate(-0, 407.73, 60.489375)" x="407.73" y="60.489375">Predicted survival (CNN)</text>
    </g>
    <g id="patch_10">
     <path d="M 374.13 78.103125 
L 398.13 78.103125 
L 398.13 69.703125 
L 374.13 69.703125 
z
" style="fill:#93ffba;opacity:0.5;"/>
    </g>
    <g id="text_14">
     <text style="font-family:DejaVu Sans;font-size:12px;font-style:normal;font-weight:normal;text-anchor:start;" transform="rotate(-0, 407.73, 78.103125)" x="407.73" y="78.103125">Predicted survival (ViT)</text>
    </g>
    <g id="line2d_11">
     <path d="M 374.13 91.516875 
L 398.13 91.516875 
" style="fill:none;stroke:#9c3190;stroke-linecap:square;stroke-width:3;"/>
    </g>
    <g id="line2d_12"/>
    <g id="text_15">
     <text style="font-family:DejaVu Sans;font-size:12px;font-style:normal;font-weight:normal;text-anchor:start;" transform="rotate(-0, 407.73, 95.716875)" x="407.73" y="95.716875">Kaplan Meier Estimate</text>
    </g>
   </g>
  </g>
 </g>
 <defs>
  <clipPath id="p5bbd349c62">
   <rect height="354.1025" width="461.54" x="103.66" y="22.9575"/>
  </clipPath>
 </defs>
</svg>
