<?xml version="1.0" encoding="utf-8" standalone="no"?>
<!DOCTYPE svg PUBLIC "-//W3C//DTD SVG 1.1//EN"
  "http://www.w3.org/Graphics/SVG/1.1/DTD/svg11.dtd">
<!-- Created with matplotlib (https://matplotlib.org/) -->
<svg height="460.8pt" version="1.1" viewBox="0 0 576 460.8" width="576pt" xmlns="http://www.w3.org/2000/svg" xmlns:xlink="http://www.w3.org/1999/xlink">
 <defs>
  <style type="text/css">
*{stroke-linecap:butt;stroke-linejoin:round;}
  </style>
 </defs>
 <g id="figure_1">
  <g id="patch_1">
   <path d="M 0 460.8 
L 576 460.8 
L 576 0 
L 0 0 
z
" style="fill:#ffffff;"/>
  </g>
  <g id="axes_1">
   <g id="patch_2">
    <path d="M 103.66 377.06 
L 565.2 377.06 
L 565.2 22.9575 
L 103.66 22.9575 
z
" style="fill:#ffffff;"/>
   </g>
   <g id="PolyCollection_1">
    <path clip-path="url(#p9dfe5914d4)" d="M 103.66 22.9575 
L 103.66 22.9575 
L 107.933519 25.888208 
L 112.207037 28.848344 
L 116.480556 31.832718 
L 120.754074 34.842389 
L 125.027593 37.876496 
L 129.301111 40.936671 
L 133.57463 44.014913 
L 137.848148 47.111952 
L 142.121667 50.236733 
L 146.395185 53.372513 
L 150.668704 56.52026 
L 154.942222 59.687292 
L 159.215741 62.864507 
L 163.489259 66.064956 
L 167.762778 69.266604 
L 172.036296 72.482045 
L 176.309815 75.694695 
L 180.583333 78.925358 
L 184.856852 82.156494 
L 189.13037 85.388649 
L 193.403889 88.624217 
L 197.677407 91.864497 
L 201.950926 95.105598 
L 206.224444 98.349053 
L 210.497963 101.675866 
L 214.771481 105.168999 
L 219.045 108.766342 
L 223.318519 112.508702 
L 227.592037 116.332576 
L 231.865556 120.225256 
L 236.139074 124.21735 
L 240.412593 128.224786 
L 244.686111 132.268989 
L 248.95963 136.334477 
L 253.233148 140.350896 
L 257.506667 144.307221 
L 261.780185 148.257562 
L 266.053704 152.126958 
L 270.327222 155.917562 
L 274.600741 159.62184 
L 278.874259 163.210867 
L 283.147778 166.61382 
L 287.421296 169.830788 
L 291.694815 172.903439 
L 295.968333 175.793318 
L 300.241852 178.483673 
L 304.51537 180.941186 
L 308.788889 183.134782 
L 313.062407 185.192037 
L 317.335926 187.260045 
L 321.609444 189.307945 
L 325.882963 191.385216 
L 330.156481 193.430223 
L 334.43 195.467344 
L 338.703519 197.50154 
L 342.977037 199.508085 
L 347.250556 201.518217 
L 351.524074 203.491548 
L 355.797593 205.44825 
L 360.071111 207.408397 
L 364.34463 209.329005 
L 368.618148 211.229738 
L 372.891667 213.138324 
L 377.165185 215.025388 
L 381.438704 216.890067 
L 385.712222 218.742279 
L 389.985741 220.596054 
L 394.259259 222.411371 
L 398.532778 224.20365 
L 402.806296 226.000274 
L 407.079815 227.751157 
L 411.353333 229.480456 
L 415.626852 231.21082 
L 419.90037 232.886992 
L 424.173889 234.559444 
L 428.447407 236.185042 
L 432.720926 237.793278 
L 436.994444 239.359153 
L 441.267963 240.927701 
L 445.541481 242.474579 
L 449.815 243.974354 
L 454.088519 245.460729 
L 458.362037 246.909121 
L 462.635556 248.310165 
L 466.909074 249.705925 
L 471.182593 251.040992 
L 475.456111 252.364907 
L 479.72963 253.669726 
L 484.003148 254.943049 
L 488.276667 256.164658 
L 492.550185 257.369167 
L 496.823704 258.504628 
L 501.097222 259.612833 
L 505.370741 260.689688 
L 509.644259 261.730853 
L 513.917778 262.760681 
L 518.191296 263.738437 
L 522.464815 264.669294 
L 526.738333 265.564422 
L 531.011852 266.435422 
L 535.28537 267.248604 
L 539.558889 268.033007 
L 543.832407 268.766469 
L 548.105926 269.469931 
L 552.379444 270.09633 
L 556.652963 270.702755 
L 560.926481 271.250837 
L 565.2 271.73058 
L 565.2 284.060761 
L 565.2 284.060761 
L 560.926481 283.577385 
L 556.652963 283.074453 
L 552.379444 282.513981 
L 548.105926 281.89485 
L 543.832407 281.241166 
L 539.558889 280.539995 
L 535.28537 279.79947 
L 531.011852 279.029895 
L 526.738333 278.198718 
L 522.464815 277.338049 
L 518.191296 276.43664 
L 513.917778 275.530976 
L 509.644259 274.574577 
L 505.370741 273.569628 
L 501.097222 272.511434 
L 496.823704 271.461043 
L 492.550185 270.354021 
L 488.276667 269.240961 
L 484.003148 268.069648 
L 479.72963 266.873484 
L 475.456111 265.619034 
L 471.182593 264.352414 
L 466.909074 263.039339 
L 462.635556 261.685647 
L 458.362037 260.318773 
L 454.088519 258.918138 
L 449.815 257.503474 
L 445.541481 256.036482 
L 441.267963 254.563138 
L 436.994444 253.046521 
L 432.720926 251.501408 
L 428.447407 249.941457 
L 424.173889 248.347951 
L 419.90037 246.722479 
L 415.626852 245.076124 
L 411.353333 243.403715 
L 407.079815 241.724968 
L 402.806296 240.022128 
L 398.532778 238.270157 
L 394.259259 236.49294 
L 389.985741 234.711069 
L 385.712222 232.916117 
L 381.438704 231.098584 
L 377.165185 229.241005 
L 372.891667 227.377772 
L 368.618148 225.471957 
L 364.34463 223.598617 
L 360.071111 221.687646 
L 355.797593 219.759477 
L 351.524074 217.801548 
L 347.250556 215.842538 
L 342.977037 213.846713 
L 338.703519 211.858682 
L 334.43 209.845057 
L 330.156481 207.835868 
L 325.882963 205.825138 
L 321.609444 203.778896 
L 317.335926 201.72987 
L 313.062407 199.695535 
L 308.788889 197.634383 
L 304.51537 195.418749 
L 300.241852 192.915459 
L 295.968333 190.153398 
L 291.694815 187.193283 
L 287.421296 183.938751 
L 283.147778 180.514582 
L 278.874259 176.90902 
L 274.600741 173.205206 
L 270.327222 169.361863 
L 266.053704 165.363901 
L 261.780185 161.252165 
L 257.506667 157.077001 
L 253.233148 152.868513 
L 248.95963 148.612065 
L 244.686111 144.363631 
L 240.412593 140.127938 
L 236.139074 135.926044 
L 231.865556 131.734573 
L 227.592037 127.60465 
L 223.318519 123.561242 
L 219.045 119.591344 
L 214.771481 115.750997 
L 210.497963 112.020621 
L 206.224444 108.441471 
L 201.950926 104.930828 
L 197.677407 101.409171 
L 193.403889 97.866683 
L 189.13037 94.319429 
L 184.856852 90.759433 
L 180.583333 87.200106 
L 176.309815 83.634306 
L 172.036296 80.070611 
L 167.762778 76.495396 
L 163.489259 72.908479 
L 159.215741 69.308742 
L 154.942222 65.719513 
L 150.668704 62.127625 
L 146.395185 58.542603 
L 142.121667 54.954375 
L 137.848148 51.376362 
L 133.57463 47.798418 
L 129.301111 44.229024 
L 125.027593 40.663624 
L 120.754074 37.104125 
L 116.480556 33.553073 
L 112.207037 30.011173 
L 107.933519 26.478801 
L 103.66 22.9575 
z
" style="fill:#d60000;fill-opacity:0.5;"/>
   </g>
   <g id="PolyCollection_2">
    <path clip-path="url(#p9dfe5914d4)" d="M 103.66 22.9575 
L 103.66 22.9575 
L 107.933519 25.103157 
L 112.207037 27.30416 
L 116.480556 29.55773 
L 120.754074 31.860976 
L 125.027593 34.214141 
L 129.301111 36.613644 
L 133.57463 39.054033 
L 137.848148 41.539426 
L 142.121667 44.06253 
L 146.395185 46.62921 
L 150.668704 49.238686 
L 154.942222 51.885531 
L 159.215741 54.540197 
L 163.489259 57.220287 
L 167.762778 59.950563 
L 172.036296 62.66578 
L 176.309815 65.457489 
L 180.583333 68.219703 
L 184.856852 71.021123 
L 189.13037 73.842078 
L 193.403889 76.676163 
L 197.677407 79.51001 
L 201.950926 82.361243 
L 206.224444 85.215389 
L 210.497963 88.173426 
L 214.771481 91.411414 
L 219.045 94.818164 
L 223.318519 98.410162 
L 227.592037 102.190825 
L 231.865556 106.051906 
L 236.139074 110.029125 
L 240.412593 114.111091 
L 244.686111 118.188153 
L 248.95963 122.323727 
L 253.233148 126.468448 
L 257.506667 130.630667 
L 261.780185 134.760597 
L 266.053704 138.744957 
L 270.327222 142.713818 
L 274.600741 146.540962 
L 278.874259 150.21577 
L 283.147778 153.734812 
L 287.421296 157.05122 
L 291.694815 160.165281 
L 295.968333 163.05377 
L 300.241852 165.679134 
L 304.51537 168.001641 
L 308.788889 170.049687 
L 313.062407 171.954998 
L 317.335926 173.804886 
L 321.609444 175.641114 
L 325.882963 177.46977 
L 330.156481 179.287435 
L 334.43 181.106318 
L 338.703519 182.944614 
L 342.977037 184.742827 
L 347.250556 186.532803 
L 351.524074 188.276508 
L 355.797593 189.997834 
L 360.071111 191.747173 
L 364.34463 193.45151 
L 368.618148 195.138815 
L 372.891667 196.79488 
L 377.165185 198.471275 
L 381.438704 200.146767 
L 385.712222 201.81513 
L 389.985741 203.420578 
L 394.259259 205.034724 
L 398.532778 206.618846 
L 402.806296 208.14553 
L 407.079815 209.678281 
L 411.353333 211.223909 
L 415.626852 212.762971 
L 419.90037 214.258675 
L 424.173889 215.72938 
L 428.447407 217.194471 
L 432.720926 218.624732 
L 436.994444 220.009417 
L 441.267963 221.365155 
L 445.541481 222.707601 
L 449.815 224.044783 
L 454.088519 225.3527 
L 458.362037 226.642762 
L 462.635556 227.919355 
L 466.909074 229.161677 
L 471.182593 230.391601 
L 475.456111 231.582683 
L 479.72963 232.756995 
L 484.003148 233.903345 
L 488.276667 235.002969 
L 492.550185 236.084257 
L 496.823704 237.13099 
L 501.097222 238.148757 
L 505.370741 239.137059 
L 509.644259 240.11042 
L 513.917778 241.071063 
L 518.191296 242.002869 
L 522.464815 242.900202 
L 526.738333 243.760175 
L 531.011852 244.580643 
L 535.28537 245.368402 
L 539.558889 246.116502 
L 543.832407 246.84912 
L 548.105926 247.566428 
L 552.379444 248.215699 
L 556.652963 248.853825 
L 560.926481 249.45522 
L 565.2 250.034975 
L 565.2 273.022817 
L 565.2 273.022817 
L 560.926481 272.644377 
L 556.652963 272.237577 
L 552.379444 271.780552 
L 548.105926 271.274642 
L 543.832407 270.739161 
L 539.558889 270.169692 
L 535.28537 269.562319 
L 531.011852 268.92659 
L 526.738333 268.257221 
L 522.464815 267.54365 
L 518.191296 266.804163 
L 513.917778 266.031691 
L 509.644259 265.224578 
L 505.370741 264.393089 
L 501.097222 263.516896 
L 496.823704 262.61054 
L 492.550185 261.678931 
L 488.276667 260.716925 
L 484.003148 259.728927 
L 479.72963 258.704655 
L 475.456111 257.672195 
L 471.182593 256.597556 
L 466.909074 255.498645 
L 462.635556 254.379277 
L 458.362037 253.220613 
L 454.088519 252.033859 
L 449.815 250.817604 
L 445.541481 249.574516 
L 441.267963 248.305638 
L 436.994444 247.010771 
L 432.720926 245.69784 
L 428.447407 244.346342 
L 424.173889 242.977249 
L 419.90037 241.592418 
L 415.626852 240.1995 
L 411.353333 238.804107 
L 407.079815 237.360093 
L 402.806296 235.908641 
L 398.532778 234.402237 
L 394.259259 232.882375 
L 389.985741 231.32488 
L 385.712222 229.77049 
L 381.438704 228.178632 
L 377.165185 226.563527 
L 372.891667 224.984377 
L 368.618148 223.346251 
L 364.34463 221.688979 
L 360.071111 220.02019 
L 355.797593 218.322839 
L 351.524074 216.644376 
L 347.250556 214.950834 
L 342.977037 213.233046 
L 338.703519 211.450855 
L 334.43 209.723177 
L 330.156481 207.932763 
L 325.882963 206.134683 
L 321.609444 204.330808 
L 317.335926 202.536407 
L 313.062407 200.714996 
L 308.788889 198.863991 
L 304.51537 196.825487 
L 300.241852 194.387184 
L 295.968333 191.603639 
L 291.694815 188.524931 
L 287.421296 185.15397 
L 283.147778 181.497577 
L 278.874259 177.652207 
L 274.600741 173.580175 
L 270.327222 169.34505 
L 266.053704 164.918435 
L 261.780185 160.387172 
L 257.506667 155.788602 
L 253.233148 151.143526 
L 248.95963 146.429648 
L 244.686111 141.772906 
L 240.412593 137.105444 
L 236.139074 132.472606 
L 231.865556 127.874356 
L 227.592037 123.395339 
L 223.318519 119.063161 
L 219.045 114.875186 
L 214.771481 110.82562 
L 210.497963 107.001236 
L 206.224444 103.442848 
L 201.950926 99.985366 
L 197.677407 96.509781 
L 193.403889 93.026402 
L 189.13037 89.544096 
L 184.856852 86.079661 
L 180.583333 82.603326 
L 176.309815 79.144499 
L 172.036296 75.685665 
L 167.762778 72.249561 
L 163.489259 68.824773 
L 159.215741 65.405671 
L 154.942222 61.990566 
L 150.668704 58.596519 
L 146.395185 55.210146 
L 142.121667 51.859653 
L 137.848148 48.536732 
L 133.57463 45.227721 
L 129.301111 41.956174 
L 125.027593 38.7039 
L 120.754074 35.481336 
L 116.480556 32.295073 
L 112.207037 29.147104 
L 107.933519 26.034427 
L 103.66 22.9575 
z
" style="fill:#e1cd9c;fill-opacity:0.5;"/>
   </g>
   <g id="PolyCollection_3">
    <path clip-path="url(#p9dfe5914d4)" d="M 103.66 22.9575 
L 103.66 22.9575 
L 107.933519 25.103157 
L 112.207037 27.30416 
L 116.480556 29.55773 
L 120.754074 31.860976 
L 125.027593 34.214141 
L 129.301111 36.613644 
L 133.57463 39.054033 
L 137.848148 41.539426 
L 142.121667 44.06253 
L 146.395185 46.62921 
L 150.668704 49.238686 
L 154.942222 51.885531 
L 159.215741 54.540197 
L 163.489259 57.220287 
L 167.762778 59.950563 
L 172.036296 62.66578 
L 176.309815 65.457489 
L 180.583333 68.219703 
L 184.856852 71.021123 
L 189.13037 73.842078 
L 193.403889 76.676163 
L 197.677407 79.51001 
L 201.950926 82.361243 
L 206.224444 85.215389 
L 210.497963 88.173426 
L 214.771481 91.411414 
L 219.045 94.818164 
L 223.318519 98.410162 
L 227.592037 102.190825 
L 231.865556 106.051906 
L 236.139074 110.029125 
L 240.412593 114.111091 
L 244.686111 118.188153 
L 248.95963 122.323727 
L 253.233148 126.468448 
L 257.506667 130.630667 
L 261.780185 134.760597 
L 266.053704 138.744957 
L 270.327222 142.713818 
L 274.600741 146.540962 
L 278.874259 150.21577 
L 283.147778 153.734812 
L 287.421296 157.05122 
L 291.694815 160.165281 
L 295.968333 163.05377 
L 300.241852 165.679134 
L 304.51537 168.001641 
L 308.788889 170.049687 
L 313.062407 171.954998 
L 317.335926 173.804886 
L 321.609444 175.641114 
L 325.882963 177.46977 
L 330.156481 179.287435 
L 334.43 181.106318 
L 338.703519 182.944614 
L 342.977037 184.742827 
L 347.250556 186.532803 
L 351.524074 188.276508 
L 355.797593 189.997834 
L 360.071111 191.747173 
L 364.34463 193.45151 
L 368.618148 195.138815 
L 372.891667 196.79488 
L 377.165185 198.471275 
L 381.438704 200.146767 
L 385.712222 201.81513 
L 389.985741 203.420578 
L 394.259259 205.034724 
L 398.532778 206.618846 
L 402.806296 208.14553 
L 407.079815 209.678281 
L 411.353333 211.223909 
L 415.626852 212.762971 
L 419.90037 214.258675 
L 424.173889 215.72938 
L 428.447407 217.194471 
L 432.720926 218.624732 
L 436.994444 220.009417 
L 441.267963 221.365155 
L 445.541481 222.707601 
L 449.815 224.044783 
L 454.088519 225.3527 
L 458.362037 226.642762 
L 462.635556 227.919355 
L 466.909074 229.161677 
L 471.182593 230.391601 
L 475.456111 231.582683 
L 479.72963 232.756995 
L 484.003148 233.903345 
L 488.276667 235.002969 
L 492.550185 236.084257 
L 496.823704 237.13099 
L 501.097222 238.148757 
L 505.370741 239.137059 
L 509.644259 240.11042 
L 513.917778 241.071063 
L 518.191296 242.002869 
L 522.464815 242.900202 
L 526.738333 243.760175 
L 531.011852 244.580643 
L 535.28537 245.368402 
L 539.558889 246.116502 
L 543.832407 246.84912 
L 548.105926 247.566428 
L 552.379444 248.215699 
L 556.652963 248.853825 
L 560.926481 249.45522 
L 565.2 250.034975 
L 565.2 194.873492 
L 565.2 194.873492 
L 560.926481 194.350937 
L 556.652963 193.793034 
L 552.379444 193.200305 
L 548.105926 192.573273 
L 543.832407 191.912464 
L 539.558889 191.218399 
L 535.28537 190.491602 
L 531.011852 189.732596 
L 526.738333 188.941905 
L 522.464815 188.120054 
L 518.191296 187.267539 
L 513.917778 186.384901 
L 509.644259 185.472673 
L 505.370741 184.53138 
L 501.097222 183.561544 
L 496.823704 182.563732 
L 492.550185 181.538431 
L 488.276667 180.486156 
L 484.003148 179.407432 
L 479.72963 178.302781 
L 475.456111 177.172727 
L 471.182593 176.017794 
L 466.909074 174.838476 
L 462.635556 173.635325 
L 458.362037 172.408865 
L 454.088519 171.159629 
L 449.815 169.888145 
L 445.541481 168.594923 
L 441.267963 167.280487 
L 436.994444 165.94536 
L 432.720926 164.590066 
L 428.447407 163.215128 
L 424.173889 161.821071 
L 419.90037 160.408416 
L 415.626852 158.977689 
L 411.353333 157.529412 
L 407.079815 156.064109 
L 402.806296 154.582303 
L 398.532778 153.084518 
L 394.259259 151.571278 
L 389.985741 150.043106 
L 385.712222 148.500525 
L 381.438704 146.94406 
L 377.165185 145.374233 
L 372.891667 143.791568 
L 368.618148 142.196589 
L 364.34463 140.589819 
L 360.071111 138.971781 
L 355.797593 137.342995 
L 351.524074 135.703988 
L 347.250556 134.055285 
L 342.977037 132.397409 
L 338.703519 130.730882 
L 334.43 129.05623 
L 330.156481 127.373974 
L 325.882963 125.684639 
L 321.609444 123.988749 
L 317.335926 122.286817 
L 313.062407 120.579376 
L 308.788889 118.866949 
L 304.51537 117.086051 
L 300.241852 115.179866 
L 295.968333 113.158925 
L 291.694815 111.033758 
L 287.421296 108.814893 
L 283.147778 106.512861 
L 278.874259 104.138199 
L 274.600741 101.701441 
L 270.327222 99.213106 
L 266.053704 96.683722 
L 261.780185 94.12382 
L 257.506667 91.543929 
L 253.233148 88.954579 
L 248.95963 86.366298 
L 244.686111 83.789618 
L 240.412593 81.235063 
L 236.139074 78.713158 
L 231.865556 76.234442 
L 227.592037 73.809446 
L 223.318519 71.448698 
L 219.045 69.162729 
L 214.771481 66.962069 
L 210.497963 64.857246 
L 206.224444 62.858792 
L 201.950926 60.926415 
L 197.677407 59.013196 
L 193.403889 57.119722 
L 189.13037 55.24658 
L 184.856852 53.394357 
L 180.583333 51.56364 
L 176.309815 49.755016 
L 172.036296 47.969072 
L 167.762778 46.206395 
L 163.489259 44.467569 
L 159.215741 42.753184 
L 154.942222 41.063828 
L 150.668704 39.400088 
L 146.395185 37.76255 
L 142.121667 36.151803 
L 137.848148 34.568433 
L 133.57463 33.013034 
L 129.301111 31.486185 
L 125.027593 29.988472 
L 120.754074 28.520483 
L 116.480556 27.082803 
L 112.207037 25.67602 
L 107.933519 24.300724 
L 103.66 22.9575 
z
" style="fill:#93ffba;fill-opacity:0.5;"/>
   </g>
   <g id="PolyCollection_4">
    <defs>
     <path d="M 103.66 -437.8425 
L 103.66 -437.8425 
L 149.993014 -437.8425 
L 149.993014 -414.368471 
L 150.835432 -414.368471 
L 150.835432 -411.388934 
L 150.975835 -411.388934 
L 150.975835 -407.119936 
L 151.677851 -407.119936 
L 151.677851 -402.704516 
L 151.818254 -402.704516 
L 151.818254 -402.704516 
L 152.09906 -402.704516 
L 152.09906 -398.229423 
L 152.239463 -398.229423 
L 152.239463 -393.821158 
L 152.801075 -393.821158 
L 152.801075 -393.821158 
L 153.362688 -393.821158 
L 153.362688 -393.821158 
L 153.643494 -393.821158 
L 153.643494 -393.821158 
L 154.064703 -393.821158 
L 154.064703 -384.638021 
L 154.485912 -384.638021 
L 154.485912 -380.174319 
L 154.626315 -380.174319 
L 154.626315 -380.174319 
L 154.766718 -380.174319 
L 154.766718 -371.304594 
L 154.907121 -371.304594 
L 154.907121 -371.304594 
L 155.187928 -371.304594 
L 155.187928 -371.304594 
L 155.74954 -371.304594 
L 155.74954 -362.383914 
L 156.591958 -362.383914 
L 156.591958 -358.005743 
L 157.293974 -358.005743 
L 157.293974 -353.674791 
L 158.276795 -353.674791 
L 158.276795 -353.674791 
L 158.557601 -353.674791 
L 158.557601 -353.674791 
L 158.978811 -353.674791 
L 158.978811 -353.674791 
L 159.40002 -353.674791 
L 159.40002 -353.674791 
L 159.821229 -353.674791 
L 159.821229 -353.674791 
L 160.382841 -353.674791 
L 160.382841 -348.917473 
L 160.663647 -348.917473 
L 160.663647 -344.221186 
L 161.506066 -344.221186 
L 161.506066 -339.579555 
L 161.646469 -339.579555 
L 161.646469 -339.579555 
L 161.786872 -339.579555 
L 161.786872 -339.579555 
L 163.612112 -339.579555 
L 163.612112 -339.579555 
L 164.173724 -339.579555 
L 164.173724 -339.579555 
L 167.683801 -339.579555 
L 167.683801 -334.625529 
L 170.632266 -334.625529 
L 170.632266 -334.625529 
L 171.474684 -334.625529 
L 171.474684 -329.63394 
L 172.036296 -329.63394 
L 172.036296 -324.70175 
L 173.861536 -324.70175 
L 173.861536 -319.823673 
L 174.563552 -319.823673 
L 174.563552 -319.823673 
L 175.40597 -319.823673 
L 175.40597 -319.823673 
L 178.635241 -319.823673 
L 178.635241 -314.787971 
L 180.039271 -314.787971 
L 180.039271 -314.787971 
L 194.500788 -314.787971 
L 194.500788 -314.787971 
L 195.904819 -314.787971 
L 195.904819 -314.787971 
L 199.134089 -314.787971 
L 199.134089 -314.787971 
L 200.678523 -314.787971 
L 200.678523 -309.206421 
L 201.661345 -309.206421 
L 201.661345 -303.699827 
L 202.924972 -303.699827 
L 202.924972 -298.261716 
L 203.767391 -298.261716 
L 203.767391 -298.261716 
L 203.907794 -298.261716 
L 203.907794 -292.749742 
L 204.750212 -292.749742 
L 204.750212 -292.749742 
L 204.890615 -292.749742 
L 204.890615 -287.005999 
L 205.873437 -287.005999 
L 205.873437 -287.005999 
L 206.01384 -287.005999 
L 206.01384 -281.173788 
L 206.294646 -281.173788 
L 206.294646 -281.173788 
L 207.137064 -281.173788 
L 207.137064 -275.245133 
L 208.821901 -275.245133 
L 208.821901 -269.392116 
L 209.243111 -269.392116 
L 209.243111 -269.392116 
L 209.804723 -269.392116 
L 209.804723 -269.392116 
L 209.945126 -269.392116 
L 209.945126 -263.234217 
L 211.629963 -263.234217 
L 211.629963 -263.234217 
L 211.770366 -263.234217 
L 211.770366 -256.951541 
L 212.753187 -256.951541 
L 212.753187 -256.951541 
L 213.455203 -256.951541 
L 213.455203 -250.532377 
L 215.701652 -250.532377 
L 215.701652 -244.205083 
L 218.650116 -244.205083 
L 218.650116 -237.964453 
L 219.913744 -237.964453 
L 219.913744 -231.806157 
L 220.334953 -231.806157 
L 220.334953 -225.726601 
L 220.896566 -225.726601 
L 220.896566 -219.722821 
L 227.776316 -219.722821 
L 227.776316 -213.792394 
L 230.022765 -213.792394 
L 230.022765 -207.933381 
L 231.005587 -207.933381 
L 231.005587 -207.933381 
L 232.128811 -207.933381 
L 232.128811 -201.869548 
L 248.555971 -201.869548 
L 248.555971 -201.869548 
L 251.644838 -201.869548 
L 251.644838 -201.869548 
L 253.470078 -201.869548 
L 253.470078 -195.239597 
L 253.610481 -195.239597 
L 253.610481 -188.721334 
L 254.031691 -188.721334 
L 254.031691 -176.01066 
L 267.369983 -176.01066 
L 267.369983 -169.815738 
L 268.63361 -169.815738 
L 268.63361 -169.815738 
L 269.897238 -169.815738 
L 269.897238 -169.815738 
L 278.602228 -169.815738 
L 278.602228 -162.786588 
L 281.41029 -162.786588 
L 281.41029 -162.786588 
L 298.539465 -162.786588 
L 298.539465 -155.326522 
L 303.313169 -155.326522 
L 303.313169 -148.088627 
L 304.015184 -148.088627 
L 304.015184 -148.088627 
L 309.77171 -148.088627 
L 309.77171 -140.296 
L 311.316144 -140.296 
L 311.316144 -140.296 
L 313.000981 -140.296 
L 313.000981 -131.811397 
L 323.952421 -131.811397 
L 323.952421 -123.787998 
L 349.365377 -123.787998 
L 349.365377 -123.787998 
L 353.296663 -123.787998 
L 353.296663 -114.776654 
L 402.437738 -114.776654 
L 402.437738 -114.776654 
L 406.369024 -114.776654 
L 406.369024 -114.776654 
L 433.186011 -114.776654 
L 433.186011 -101.025622 
L 449.753574 -101.025622 
L 449.753574 -91.095558 
L 514.760196 -91.095558 
L 514.760196 -91.095558 
L 563.058853 -91.095558 
L 563.058853 -83.74 
L 563.058853 -83.74 
L 563.058853 -83.74 
L 563.058853 -165.468464 
L 514.760196 -165.468464 
L 514.760196 -165.468464 
L 449.753574 -165.468464 
L 449.753574 -180.684183 
L 433.186011 -180.684183 
L 433.186011 -193.263278 
L 406.369024 -193.263278 
L 406.369024 -193.263278 
L 402.437738 -193.263278 
L 402.437738 -193.263278 
L 353.296663 -193.263278 
L 353.296663 -203.68972 
L 349.365377 -203.68972 
L 349.365377 -203.68972 
L 323.952421 -203.68972 
L 323.952421 -213.065364 
L 313.000981 -213.065364 
L 313.000981 -222.111924 
L 311.316144 -222.111924 
L 311.316144 -222.111924 
L 309.77171 -222.111924 
L 309.77171 -230.435022 
L 304.015184 -230.435022 
L 304.015184 -230.435022 
L 303.313169 -230.435022 
L 303.313169 -238.181631 
L 298.539465 -238.181631 
L 298.539465 -245.768239 
L 281.41029 -245.768239 
L 281.41029 -245.768239 
L 278.602228 -245.768239 
L 278.602228 -252.909919 
L 269.897238 -252.909919 
L 269.897238 -252.909919 
L 268.63361 -252.909919 
L 268.63361 -252.909919 
L 267.369983 -252.909919 
L 267.369983 -259.433902 
L 254.031691 -259.433902 
L 254.031691 -272.238854 
L 253.610481 -272.238854 
L 253.610481 -278.520669 
L 253.470078 -278.520669 
L 253.470078 -284.721768 
L 251.644838 -284.721768 
L 251.644838 -284.721768 
L 248.555971 -284.721768 
L 248.555971 -284.721768 
L 232.128811 -284.721768 
L 232.128811 -290.508776 
L 231.005587 -290.508776 
L 231.005587 -290.508776 
L 230.022765 -290.508776 
L 230.022765 -296.086178 
L 227.776316 -296.086178 
L 227.776316 -301.609145 
L 220.896566 -301.609145 
L 220.896566 -307.077116 
L 220.334953 -307.077116 
L 220.334953 -312.489292 
L 219.913744 -312.489292 
L 219.913744 -317.844609 
L 218.650116 -317.844609 
L 218.650116 -323.141711 
L 215.701652 -323.141711 
L 215.701652 -328.378909 
L 213.455203 -328.378909 
L 213.455203 -333.554127 
L 212.753187 -333.554127 
L 212.753187 -333.554127 
L 211.770366 -333.554127 
L 211.770366 -338.566855 
L 211.629963 -338.566855 
L 211.629963 -338.566855 
L 209.945126 -338.566855 
L 209.945126 -343.42797 
L 209.804723 -343.42797 
L 209.804723 -343.42797 
L 209.243111 -343.42797 
L 209.243111 -343.42797 
L 208.821901 -343.42797 
L 208.821901 -348.065289 
L 207.137064 -348.065289 
L 207.137064 -352.651598 
L 206.294646 -352.651598 
L 206.294646 -352.651598 
L 206.01384 -352.651598 
L 206.01384 -357.111571 
L 205.873437 -357.111571 
L 205.873437 -357.111571 
L 204.890615 -357.111571 
L 204.890615 -361.451617 
L 204.750212 -361.451617 
L 204.750212 -361.451617 
L 203.907794 -361.451617 
L 203.907794 -365.615316 
L 203.767391 -365.615316 
L 203.767391 -365.615316 
L 202.924972 -365.615316 
L 202.924972 -369.674445 
L 201.661345 -369.674445 
L 201.661345 -373.687818 
L 200.678523 -373.687818 
L 200.678523 -377.652702 
L 199.134089 -377.652702 
L 199.134089 -377.652702 
L 195.904819 -377.652702 
L 195.904819 -377.652702 
L 194.500788 -377.652702 
L 194.500788 -377.652702 
L 180.039271 -377.652702 
L 180.039271 -377.652702 
L 178.635241 -377.652702 
L 178.635241 -381.3248 
L 175.40597 -381.3248 
L 175.40597 -381.3248 
L 174.563552 -381.3248 
L 174.563552 -381.3248 
L 173.861536 -381.3248 
L 173.861536 -384.869512 
L 172.036296 -384.869512 
L 172.036296 -388.374996 
L 171.474684 -388.374996 
L 171.474684 -391.838706 
L 170.632266 -391.838706 
L 170.632266 -391.838706 
L 167.683801 -391.838706 
L 167.683801 -395.220161 
L 164.173724 -395.220161 
L 164.173724 -395.220161 
L 163.612112 -395.220161 
L 163.612112 -395.220161 
L 161.786872 -395.220161 
L 161.786872 -395.220161 
L 161.646469 -395.220161 
L 161.646469 -395.220161 
L 161.506066 -395.220161 
L 161.506066 -398.417846 
L 160.663647 -398.417846 
L 160.663647 -401.574142 
L 160.382841 -401.574142 
L 160.382841 -404.685692 
L 159.821229 -404.685692 
L 159.821229 -404.685692 
L 159.40002 -404.685692 
L 159.40002 -404.685692 
L 158.978811 -404.685692 
L 158.978811 -404.685692 
L 158.557601 -404.685692 
L 158.557601 -404.685692 
L 158.276795 -404.685692 
L 158.276795 -404.685692 
L 157.293974 -404.685692 
L 157.293974 -407.579379 
L 156.591958 -407.579379 
L 156.591958 -410.430625 
L 155.74954 -410.430625 
L 155.74954 -415.988721 
L 155.187928 -415.988721 
L 155.187928 -415.988721 
L 154.907121 -415.988721 
L 154.907121 -415.988721 
L 154.766718 -415.988721 
L 154.766718 -421.23029 
L 154.626315 -421.23029 
L 154.626315 -421.23029 
L 154.485912 -421.23029 
L 154.485912 -423.731491 
L 154.064703 -423.731491 
L 154.064703 -428.48398 
L 153.643494 -428.48398 
L 153.643494 -428.48398 
L 153.362688 -428.48398 
L 153.362688 -428.48398 
L 152.801075 -428.48398 
L 152.801075 -428.48398 
L 152.239463 -428.48398 
L 152.239463 -430.640736 
L 152.09906 -430.640736 
L 152.09906 -432.668528 
L 151.818254 -432.668528 
L 151.818254 -432.668528 
L 151.677851 -432.668528 
L 151.677851 -434.51552 
L 150.975835 -434.51552 
L 150.975835 -436.127037 
L 150.835432 -436.127037 
L 150.835432 -437.360894 
L 149.993014 -437.360894 
L 149.993014 -437.8425 
L 103.66 -437.8425 
z
" id="m7e52c2ff33" style="stroke:#9c3190;stroke-opacity:0.5;"/>
    </defs>
    <g clip-path="url(#p9dfe5914d4)">
     <use style="fill:#9c3190;fill-opacity:0.5;stroke:#9c3190;stroke-opacity:0.5;" x="0" xlink:href="#m7e52c2ff33" y="460.8"/>
    </g>
   </g>
   <g id="matplotlib.axis_1">
    <g id="xtick_1">
     <g id="line2d_1">
      <defs>
       <path d="M 0 0 
L 0 3.5 
" id="mf645165753" style="stroke:#000000;stroke-width:0.8;"/>
      </defs>
      <g>
       <use style="stroke:#000000;stroke-width:0.8;" x="103.66" xlink:href="#mf645165753" y="377.06"/>
      </g>
     </g>
     <g id="text_1">
      <text style="font-family:DejaVu Sans;font-size:32px;font-style:normal;font-weight:normal;text-anchor:middle;" transform="rotate(-0, 103.66, 408.375)" x="103.66" y="408.375">0</text>
     </g>
    </g>
    <g id="xtick_2">
     <g id="line2d_2">
      <g>
       <use style="stroke:#000000;stroke-width:0.8;" x="317.335926" xlink:href="#mf645165753" y="377.06"/>
      </g>
     </g>
     <g id="text_2">
      <text style="font-family:DejaVu Sans;font-size:32px;font-style:normal;font-weight:normal;text-anchor:middle;" transform="rotate(-0, 317.335926, 408.375)" x="317.335926" y="408.375">50</text>
     </g>
    </g>
    <g id="xtick_3">
     <g id="line2d_3">
      <g>
       <use style="stroke:#000000;stroke-width:0.8;" x="531.011852" xlink:href="#mf645165753" y="377.06"/>
      </g>
     </g>
     <g id="text_3">
      <text style="font-family:DejaVu Sans;font-size:32px;font-style:normal;font-weight:normal;text-anchor:middle;" transform="rotate(-0, 531.011852, 408.375)" x="531.011852" y="408.375">100</text>
     </g>
    </g>
    <g id="text_4">
     <text style="font-family:DejaVu Sans;font-size:32px;font-style:normal;font-weight:normal;text-anchor:middle;" transform="rotate(-0, 334.43, 443.345)" x="334.43" y="443.345">Time (months)</text>
    </g>
   </g>
   <g id="matplotlib.axis_2">
    <g id="ytick_1">
     <g id="line2d_4">
      <defs>
       <path d="M 0 0 
L -3.5 0 
" id="m8e8c553124" style="stroke:#000000;stroke-width:0.8;"/>
      </defs>
      <g>
       <use style="stroke:#000000;stroke-width:0.8;" x="103.66" xlink:href="#m8e8c553124" y="377.06"/>
      </g>
     </g>
     <g id="text_5">
      <text style="font-family:DejaVu Sans;font-size:32px;font-style:normal;font-weight:normal;text-anchor:end;" transform="rotate(-0, 96.66, 389.2175)" x="96.66" y="389.2175">0.0</text>
     </g>
    </g>
    <g id="ytick_2">
     <g id="line2d_5">
      <g>
       <use style="stroke:#000000;stroke-width:0.8;" x="103.66" xlink:href="#m8e8c553124" y="306.2395"/>
      </g>
     </g>
     <g id="text_6">
      <text style="font-family:DejaVu Sans;font-size:32px;font-style:normal;font-weight:normal;text-anchor:end;" transform="rotate(-0, 96.66, 318.397)" x="96.66" y="318.397">0.2</text>
     </g>
    </g>
    <g id="ytick_3">
     <g id="line2d_6">
      <g>
       <use style="stroke:#000000;stroke-width:0.8;" x="103.66" xlink:href="#m8e8c553124" y="235.419"/>
      </g>
     </g>
     <g id="text_7">
      <text style="font-family:DejaVu Sans;font-size:32px;font-style:normal;font-weight:normal;text-anchor:end;" transform="rotate(-0, 96.66, 247.5765)" x="96.66" y="247.5765">0.4</text>
     </g>
    </g>
    <g id="ytick_4">
     <g id="line2d_7">
      <g>
       <use style="stroke:#000000;stroke-width:0.8;" x="103.66" xlink:href="#m8e8c553124" y="164.5985"/>
      </g>
     </g>
     <g id="text_8">
      <text style="font-family:DejaVu Sans;font-size:32px;font-style:normal;font-weight:normal;text-anchor:end;" transform="rotate(-0, 96.66, 176.756)" x="96.66" y="176.756">0.6</text>
     </g>
    </g>
    <g id="ytick_5">
     <g id="line2d_8">
      <g>
       <use style="stroke:#000000;stroke-width:0.8;" x="103.66" xlink:href="#m8e8c553124" y="93.778"/>
      </g>
     </g>
     <g id="text_9">
      <text style="font-family:DejaVu Sans;font-size:32px;font-style:normal;font-weight:normal;text-anchor:end;" transform="rotate(-0, 96.66, 105.9355)" x="96.66" y="105.9355">0.8</text>
     </g>
    </g>
    <g id="ytick_6">
     <g id="line2d_9">
      <g>
       <use style="stroke:#000000;stroke-width:0.8;" x="103.66" xlink:href="#m8e8c553124" y="22.9575"/>
      </g>
     </g>
     <g id="text_10">
      <text style="font-family:DejaVu Sans;font-size:32px;font-style:normal;font-weight:normal;text-anchor:end;" transform="rotate(-0, 96.66, 35.115)" x="96.66" y="35.115">1.0</text>
     </g>
    </g>
    <g id="text_11">
     <text style="font-family:DejaVu Sans;font-size:32px;font-style:normal;font-weight:normal;text-anchor:middle;" transform="rotate(-90, 35.115, 200.00875)" x="35.115" y="200.00875">Probability of survival</text>
    </g>
   </g>
   <g id="line2d_10">
    <path clip-path="url(#p9dfe5914d4)" d="M 103.66 22.9575 
L 149.993014 22.9575 
L 149.993014 26.362332 
L 150.835432 26.362332 
L 150.835432 29.767163 
L 150.975835 29.767163 
L 150.975835 33.171995 
L 151.677851 33.171995 
L 151.677851 36.576827 
L 152.09906 36.576827 
L 152.09906 40.016051 
L 152.239463 40.016051 
L 152.239463 43.455275 
L 154.064703 43.455275 
L 154.064703 50.62957 
L 154.485912 50.62957 
L 154.485912 54.216718 
L 154.766718 54.216718 
L 154.766718 61.471623 
L 155.74954 61.471623 
L 155.74954 68.897232 
L 156.591958 68.897232 
L 156.591958 72.610036 
L 157.293974 72.610036 
L 157.293974 76.322841 
L 160.382841 76.322841 
L 160.382841 80.332669 
L 160.663647 80.332669 
L 160.663647 84.342498 
L 161.506066 84.342498 
L 161.506066 88.352327 
L 167.683801 88.352327 
L 167.683801 92.598028 
L 171.474684 92.598028 
L 171.474684 96.908058 
L 172.036296 96.908058 
L 172.036296 101.218088 
L 173.861536 101.218088 
L 173.861536 105.528118 
L 178.635241 105.528118 
L 178.635241 109.97946 
L 200.678523 109.97946 
L 200.678523 114.83547 
L 201.661345 114.83547 
L 201.661345 119.69148 
L 202.924972 119.69148 
L 202.924972 124.547489 
L 203.907794 124.547489 
L 203.907794 129.498715 
L 204.890615 129.498715 
L 204.890615 134.656242 
L 206.01384 134.656242 
L 206.01384 139.925889 
L 207.137064 139.925889 
L 207.137064 145.3153 
L 208.821901 145.3153 
L 208.821901 150.704712 
L 209.945126 150.704712 
L 209.945126 156.363594 
L 211.770366 156.363594 
L 211.770366 162.171394 
L 213.455203 162.171394 
L 213.455203 168.140522 
L 215.701652 168.140522 
L 215.701652 174.10965 
L 218.650116 174.10965 
L 218.650116 180.078778 
L 219.913744 180.078778 
L 219.913744 186.047906 
L 220.334953 186.047906 
L 220.334953 192.017034 
L 220.896566 192.017034 
L 220.896566 197.986162 
L 227.776316 197.986162 
L 227.776316 203.95529 
L 230.022765 203.95529 
L 230.022765 209.924418 
L 232.128811 209.924418 
L 232.128811 216.114625 
L 253.470078 216.114625 
L 253.470078 222.820682 
L 253.610481 222.820682 
L 253.610481 229.526739 
L 254.031691 229.526739 
L 254.031691 242.938854 
L 267.369983 242.938854 
L 267.369983 249.644911 
L 278.602228 249.644911 
L 278.602228 257.139916 
L 298.539465 257.139916 
L 298.539465 265.134589 
L 303.313169 265.134589 
L 303.313169 273.129261 
L 309.77171 273.129261 
L 309.77171 281.790156 
L 313.000981 281.790156 
L 313.000981 291.31714 
L 323.952421 291.31714 
L 323.952421 300.844125 
L 353.296663 300.844125 
L 353.296663 311.732107 
L 433.186011 311.732107 
L 433.186011 328.06408 
L 449.753574 328.06408 
L 449.753574 344.396053 
L 563.058853 344.396053 
L 563.058853 377.06 
L 563.058853 377.06 
" style="fill:none;stroke:#9c3190;stroke-linecap:square;stroke-width:3;"/>
   </g>
   <g id="patch_3">
    <path d="M 103.66 377.06 
L 103.66 22.9575 
" style="fill:none;stroke:#000000;stroke-linecap:square;stroke-linejoin:miter;stroke-width:0.8;"/>
   </g>
   <g id="patch_4">
    <path d="M 565.2 377.06 
L 565.2 22.9575 
" style="fill:none;stroke:#000000;stroke-linecap:square;stroke-linejoin:miter;stroke-width:0.8;"/>
   </g>
   <g id="patch_5">
    <path d="M 103.66 377.06 
L 565.2 377.06 
" style="fill:none;stroke:#000000;stroke-linecap:square;stroke-linejoin:miter;stroke-width:0.8;"/>
   </g>
   <g id="patch_6">
    <path d="M 103.66 22.9575 
L 565.2 22.9575 
" style="fill:none;stroke:#000000;stroke-linecap:square;stroke-linejoin:miter;stroke-width:0.8;"/>
   </g>
   <g id="legend_1">
    <g id="patch_7">
     <path d="M 371.73 103.0125 
L 556.8 103.0125 
Q 559.2 103.0125 559.2 100.6125 
L 559.2 31.3575 
Q 559.2 28.9575 556.8 28.9575 
L 371.73 28.9575 
Q 369.33 28.9575 369.33 31.3575 
L 369.33 100.6125 
Q 369.33 103.0125 371.73 103.0125 
z
" style="fill:#ffffff;opacity:0.8;stroke:#cccccc;stroke-linejoin:miter;"/>
    </g>
    <g id="patch_8">
     <path d="M 374.13 42.875625 
L 398.13 42.875625 
L 398.13 34.475625 
L 374.13 34.475625 
z
" style="fill:#d60000;opacity:0.5;"/>
    </g>
    <g id="text_12">
     <text style="font-family:DejaVu Sans;font-size:12px;font-style:normal;font-weight:normal;text-anchor:start;" transform="rotate(-0, 407.73, 42.875625)" x="407.73" y="42.875625">Predicted survival (MLP)</text>
    </g>
    <g id="patch_9">
     <path d="M 374.13 60.489375 
L 398.13 60.489375 
L 398.13 52.089375 
L 374.13 52.089375 
z
" style="fill:#e1cd9c;opacity:0.5;"/>
    </g>
    <g id="text_13">
     <text style="font-family:DejaVu Sans;font-size:12px;font-style:normal;font-weight:normal;text-anchor:start;" transform="rotate(-0, 407.73, 60.489375)" x="407.73" y="60.489375">Predicted survival (CNN)</text>
    </g>
    <g id="patch_10">
     <path d="M 374.13 78.103125 
L 398.13 78.103125 
L 398.13 69.703125 
L 374.13 69.703125 
z
" style="fill:#93ffba;opacity:0.5;"/>
    </g>
    <g id="text_14">
     <text style="font-family:DejaVu Sans;font-size:12px;font-style:normal;font-weight:normal;text-anchor:start;" transform="rotate(-0, 407.73, 78.103125)" x="407.73" y="78.103125">Predicted survival (ViT)</text>
    </g>
    <g id="line2d_11">
     <path d="M 374.13 91.516875 
L 398.13 91.516875 
" style="fill:none;stroke:#9c3190;stroke-linecap:square;stroke-width:3;"/>
    </g>
    <g id="line2d_12"/>
    <g id="text_15">
     <text style="font-family:DejaVu Sans;font-size:12px;font-style:normal;font-weight:normal;text-anchor:start;" transform="rotate(-0, 407.73, 95.716875)" x="407.73" y="95.716875">Kaplan Meier Estimate</text>
    </g>
   </g>
  </g>
 </g>
 <defs>
  <clipPath id="p9dfe5914d4">
   <rect height="354.1025" width="461.54" x="103.66" y="22.9575"/>
  </clipPath>
 </defs>
</svg>
