<?xml version="1.0" encoding="utf-8" standalone="no"?>
<!DOCTYPE svg PUBLIC "-//W3C//DTD SVG 1.1//EN"
  "http://www.w3.org/Graphics/SVG/1.1/DTD/svg11.dtd">
<!-- Created with matplotlib (https://matplotlib.org/) -->
<svg height="460.8pt" version="1.1" viewBox="0 0 576 460.8" width="576pt" xmlns="http://www.w3.org/2000/svg" xmlns:xlink="http://www.w3.org/1999/xlink">
 <defs>
  <style type="text/css">
*{stroke-linecap:butt;stroke-linejoin:round;}
  </style>
 </defs>
 <g id="figure_1">
  <g id="patch_1">
   <path d="M 0 460.8 
L 576 460.8 
L 576 0 
L 0 0 
z
" style="fill:#ffffff;"/>
  </g>
  <g id="axes_1">
   <g id="patch_2">
    <path d="M 103.66 377.06 
L 565.2 377.06 
L 565.2 22.9575 
L 103.66 22.9575 
z
" style="fill:#ffffff;"/>
   </g>
   <g id="PolyCollection_1">
    <path clip-path="url(#p588190ee1f)" d="M 103.66 22.9575 
L 103.66 22.9575 
L 107.933519 25.882436 
L 112.207037 28.831107 
L 116.480556 31.803602 
L 120.754074 34.798064 
L 125.027593 37.809616 
L 129.301111 40.840386 
L 133.57463 43.885051 
L 137.848148 46.939696 
L 142.121667 50.009511 
L 146.395185 53.10529 
L 150.668704 56.184855 
L 154.942222 59.260585 
L 159.215741 62.345492 
L 163.489259 65.435098 
L 167.762778 68.509905 
L 172.036296 71.588968 
L 176.309815 74.665615 
L 180.583333 77.730013 
L 184.856852 80.76384 
L 189.13037 83.8252 
L 193.403889 86.853906 
L 197.677407 89.87345 
L 201.950926 92.86945 
L 206.224444 95.811633 
L 210.497963 98.846637 
L 214.771481 102.010665 
L 219.045 105.351579 
L 223.318519 108.777365 
L 227.592037 112.293525 
L 231.865556 115.902909 
L 236.139074 119.552358 
L 240.412593 123.229565 
L 244.686111 126.926582 
L 248.95963 130.588787 
L 253.233148 134.28441 
L 257.506667 137.923859 
L 261.780185 141.543313 
L 266.053704 145.104817 
L 270.327222 148.563439 
L 274.600741 151.930427 
L 278.874259 155.18191 
L 283.147778 158.374949 
L 287.421296 161.374515 
L 291.694815 164.262338 
L 295.968333 166.953067 
L 300.241852 169.447604 
L 304.51537 171.725015 
L 308.788889 173.828513 
L 313.062407 175.789209 
L 317.335926 177.686472 
L 321.609444 179.635521 
L 325.882963 181.557647 
L 330.156481 183.523324 
L 334.43 185.441998 
L 338.703519 187.328084 
L 342.977037 189.214813 
L 347.250556 191.107811 
L 351.524074 192.992642 
L 355.797593 194.876872 
L 360.071111 196.737149 
L 364.34463 198.596262 
L 368.618148 200.409635 
L 372.891667 202.225272 
L 377.165185 204.017579 
L 381.438704 205.850924 
L 385.712222 207.626369 
L 389.985741 209.383768 
L 394.259259 211.105259 
L 398.532778 212.833785 
L 402.806296 214.569556 
L 407.079815 216.27154 
L 411.353333 217.936809 
L 415.626852 219.612768 
L 419.90037 221.245085 
L 424.173889 222.847029 
L 428.447407 224.440312 
L 432.720926 226.036552 
L 436.994444 227.567477 
L 441.267963 229.123906 
L 445.541481 230.663593 
L 449.815 232.159276 
L 454.088519 233.594962 
L 458.362037 235.005982 
L 462.635556 236.398431 
L 466.909074 237.776989 
L 471.182593 239.140717 
L 475.456111 240.471299 
L 479.72963 241.787339 
L 484.003148 243.068105 
L 488.276667 244.320562 
L 492.550185 245.58045 
L 496.823704 246.784151 
L 501.097222 247.953676 
L 505.370741 249.066611 
L 509.644259 250.180388 
L 513.917778 251.238907 
L 518.191296 252.278805 
L 522.464815 253.302456 
L 526.738333 254.307901 
L 531.011852 255.283108 
L 535.28537 256.206265 
L 539.558889 257.065585 
L 543.832407 257.886638 
L 548.105926 258.702505 
L 552.379444 259.496048 
L 556.652963 260.25399 
L 560.926481 260.964643 
L 565.2 261.600587 
L 565.2 277.901332 
L 565.2 277.901332 
L 560.926481 277.194797 
L 556.652963 276.495548 
L 552.379444 275.714192 
L 548.105926 274.907923 
L 543.832407 274.109551 
L 539.558889 273.238398 
L 535.28537 272.324013 
L 531.011852 271.398505 
L 526.738333 270.442958 
L 522.464815 269.433206 
L 518.191296 268.428402 
L 513.917778 267.388447 
L 509.644259 266.292758 
L 505.370741 265.177444 
L 501.097222 264.044652 
L 496.823704 262.884954 
L 492.550185 261.686286 
L 488.276667 260.46093 
L 484.003148 259.203774 
L 479.72963 257.926403 
L 475.456111 256.635659 
L 471.182593 255.34461 
L 466.909074 254.00703 
L 462.635556 252.622748 
L 458.362037 251.215851 
L 454.088519 249.781879 
L 449.815 248.344501 
L 445.541481 246.866632 
L 441.267963 245.36454 
L 436.994444 243.866804 
L 432.720926 242.354512 
L 428.447407 240.819137 
L 424.173889 239.251769 
L 419.90037 237.662562 
L 415.626852 236.029778 
L 411.353333 234.407501 
L 407.079815 232.755397 
L 402.806296 231.07041 
L 398.532778 229.390992 
L 394.259259 227.686818 
L 389.985741 225.970484 
L 385.712222 224.230949 
L 381.438704 222.478757 
L 377.165185 220.741818 
L 372.891667 218.965301 
L 368.618148 217.166278 
L 364.34463 215.377045 
L 360.071111 213.576583 
L 355.797593 211.727553 
L 351.524074 209.896704 
L 347.250556 208.05278 
L 342.977037 206.180522 
L 338.703519 204.308013 
L 334.43 202.408253 
L 330.156481 200.490094 
L 325.882963 198.583575 
L 321.609444 196.681312 
L 317.335926 194.757614 
L 313.062407 192.819594 
L 308.788889 190.8913 
L 304.51537 188.789953 
L 300.241852 186.464024 
L 295.968333 183.904611 
L 291.694815 181.125538 
L 287.421296 178.13734 
L 283.147778 174.981672 
L 278.874259 171.647659 
L 274.600741 168.206852 
L 270.327222 164.616197 
L 266.053704 160.92088 
L 261.780185 157.156898 
L 257.506667 153.331498 
L 253.233148 149.45057 
L 248.95963 145.48977 
L 244.686111 141.609263 
L 240.412593 137.62956 
L 236.139074 133.669527 
L 231.865556 129.810308 
L 227.592037 126.00178 
L 223.318519 122.290284 
L 219.045 118.618764 
L 214.771481 115.084281 
L 210.497963 111.637811 
L 206.224444 108.342663 
L 201.950926 105.085205 
L 197.677407 101.80382 
L 193.403889 98.465155 
L 189.13037 95.080903 
L 184.856852 91.666503 
L 180.583333 88.236007 
L 176.309815 84.763715 
L 172.036296 81.262979 
L 167.762778 77.74255 
L 163.489259 74.192854 
L 159.215741 70.615066 
L 154.942222 67.011211 
L 150.668704 63.389427 
L 146.395185 59.749501 
L 142.121667 56.104356 
L 137.848148 52.445597 
L 133.57463 48.772675 
L 129.301111 45.088965 
L 125.027593 41.402533 
L 120.754074 37.709295 
L 116.480556 34.017411 
L 112.207037 30.327687 
L 107.933519 26.638937 
L 103.66 22.9575 
z
" style="fill:#d60000;fill-opacity:0.5;"/>
   </g>
   <g id="PolyCollection_2">
    <path clip-path="url(#p588190ee1f)" d="M 103.66 22.9575 
L 103.66 22.9575 
L 107.933519 24.942015 
L 112.207037 27.009465 
L 116.480556 29.155626 
L 120.754074 31.377775 
L 125.027593 33.679436 
L 129.301111 36.039071 
L 133.57463 38.463844 
L 137.848148 40.93125 
L 142.121667 43.458554 
L 146.395185 46.051022 
L 150.668704 48.679552 
L 154.942222 51.353817 
L 159.215741 54.07471 
L 163.489259 56.81975 
L 167.762778 59.603126 
L 172.036296 62.397402 
L 176.309815 65.201648 
L 180.583333 68.04782 
L 184.856852 70.915097 
L 189.13037 73.758586 
L 193.403889 76.661517 
L 197.677407 79.482359 
L 201.950926 82.334028 
L 206.224444 85.170057 
L 210.497963 88.165861 
L 214.771481 91.474325 
L 219.045 95.078118 
L 223.318519 98.879117 
L 227.592037 102.90883 
L 231.865556 107.188102 
L 236.139074 111.581541 
L 240.412593 116.15622 
L 244.686111 120.801599 
L 248.95963 125.441362 
L 253.233148 130.094181 
L 257.506667 134.707444 
L 261.780185 139.3427 
L 266.053704 143.926619 
L 270.327222 148.367611 
L 274.600741 152.657274 
L 278.874259 156.805469 
L 283.147778 160.715688 
L 287.421296 164.375312 
L 291.694815 167.87112 
L 295.968333 171.093776 
L 300.241852 173.888879 
L 304.51537 176.406981 
L 308.788889 178.520496 
L 313.062407 180.474755 
L 317.335926 182.398606 
L 321.609444 184.30463 
L 325.882963 186.227365 
L 330.156481 188.163796 
L 334.43 190.069163 
L 338.703519 191.969235 
L 342.977037 193.815874 
L 347.250556 195.614776 
L 351.524074 197.458663 
L 355.797593 199.317795 
L 360.071111 201.127525 
L 364.34463 202.889295 
L 368.618148 204.70053 
L 372.891667 206.456198 
L 377.165185 208.186793 
L 381.438704 209.909094 
L 385.712222 211.602385 
L 389.985741 213.301189 
L 394.259259 215.002044 
L 398.532778 216.622244 
L 402.806296 218.241044 
L 407.079815 219.82978 
L 411.353333 221.43859 
L 415.626852 223.029019 
L 419.90037 224.587962 
L 424.173889 226.125098 
L 428.447407 227.619838 
L 432.720926 229.086446 
L 436.994444 230.530914 
L 441.267963 231.952264 
L 445.541481 233.381819 
L 449.815 234.821253 
L 454.088519 236.174062 
L 458.362037 237.563005 
L 462.635556 238.867698 
L 466.909074 240.149736 
L 471.182593 241.41812 
L 475.456111 242.647405 
L 479.72963 243.847899 
L 484.003148 245.028868 
L 488.276667 246.192632 
L 492.550185 247.338603 
L 496.823704 248.462662 
L 501.097222 249.548541 
L 505.370741 250.625183 
L 509.644259 251.667599 
L 513.917778 252.651599 
L 518.191296 253.628937 
L 522.464815 254.561537 
L 526.738333 255.477734 
L 531.011852 256.360134 
L 535.28537 257.223161 
L 539.558889 258.053238 
L 543.832407 258.830021 
L 548.105926 259.610536 
L 552.379444 260.307059 
L 556.652963 261.020481 
L 560.926481 261.666436 
L 565.2 262.254748 
L 565.2 287.806064 
L 565.2 287.806064 
L 560.926481 287.383774 
L 556.652963 286.923401 
L 552.379444 286.4075 
L 548.105926 285.892281 
L 543.832407 285.342427 
L 539.558889 284.734304 
L 535.28537 284.080072 
L 531.011852 283.411601 
L 526.738333 282.716972 
L 522.464815 281.963694 
L 518.191296 281.169485 
L 513.917778 280.328519 
L 509.644259 279.479152 
L 505.370741 278.612317 
L 501.097222 277.681391 
L 496.823704 276.734887 
L 492.550185 275.749719 
L 488.276667 274.71506 
L 484.003148 273.668203 
L 479.72963 272.592765 
L 475.456111 271.497548 
L 471.182593 270.350225 
L 466.909074 269.185839 
L 462.635556 267.992104 
L 458.362037 266.7581 
L 454.088519 265.502351 
L 449.815 264.254215 
L 445.541481 262.952043 
L 441.267963 261.610468 
L 436.994444 260.245079 
L 432.720926 258.861355 
L 428.447407 257.435268 
L 424.173889 255.988078 
L 419.90037 254.545917 
L 415.626852 253.078581 
L 411.353333 251.59343 
L 407.079815 250.084499 
L 402.806296 248.529168 
L 398.532778 246.95583 
L 394.259259 245.356628 
L 389.985741 243.726908 
L 385.712222 242.146372 
L 381.438704 240.448172 
L 377.165185 238.797532 
L 372.891667 237.129139 
L 368.618148 235.43827 
L 364.34463 233.73092 
L 360.071111 232.001857 
L 355.797593 230.283115 
L 351.524074 228.519739 
L 347.250556 226.76121 
L 342.977037 224.987555 
L 338.703519 223.196881 
L 334.43 221.40388 
L 330.156481 219.627659 
L 325.882963 217.803824 
L 321.609444 215.938603 
L 317.335926 214.01695 
L 313.062407 212.143238 
L 308.788889 210.255676 
L 304.51537 208.113073 
L 300.241852 205.510869 
L 295.968333 202.504186 
L 291.694815 199.12347 
L 287.421296 195.416031 
L 283.147778 191.323693 
L 278.874259 187.019304 
L 274.600741 182.489105 
L 270.327222 177.734679 
L 266.053704 172.870966 
L 261.780185 167.786366 
L 257.506667 162.635772 
L 253.233148 157.482238 
L 248.95963 152.266457 
L 244.686111 147.081246 
L 240.412593 141.942489 
L 236.139074 136.848878 
L 231.865556 131.900571 
L 227.592037 127.064938 
L 223.318519 122.512922 
L 219.045 118.056042 
L 214.771481 113.900539 
L 210.497963 110.05834 
L 206.224444 106.454211 
L 201.950926 103.061217 
L 197.677407 99.579795 
L 193.403889 96.098067 
L 189.13037 92.606581 
L 184.856852 89.056318 
L 180.583333 85.522578 
L 176.309815 81.968618 
L 172.036296 78.392972 
L 167.762778 74.795722 
L 163.489259 71.171999 
L 159.215741 67.556654 
L 154.942222 63.964596 
L 150.668704 60.377755 
L 146.395185 56.824289 
L 142.121667 53.287625 
L 137.848148 49.77013 
L 133.57463 46.278459 
L 129.301111 42.817647 
L 125.027593 39.400033 
L 120.754074 36.016689 
L 116.480556 32.67636 
L 112.207037 29.382409 
L 107.933519 26.140962 
L 103.66 22.9575 
z
" style="fill:#e1cd9c;fill-opacity:0.5;"/>
   </g>
   <g id="PolyCollection_3">
    <path clip-path="url(#p588190ee1f)" d="M 103.66 22.9575 
L 103.66 22.9575 
L 107.933519 24.942015 
L 112.207037 27.009465 
L 116.480556 29.155626 
L 120.754074 31.377775 
L 125.027593 33.679436 
L 129.301111 36.039071 
L 133.57463 38.463844 
L 137.848148 40.93125 
L 142.121667 43.458554 
L 146.395185 46.051022 
L 150.668704 48.679552 
L 154.942222 51.353817 
L 159.215741 54.07471 
L 163.489259 56.81975 
L 167.762778 59.603126 
L 172.036296 62.397402 
L 176.309815 65.201648 
L 180.583333 68.04782 
L 184.856852 70.915097 
L 189.13037 73.758586 
L 193.403889 76.661517 
L 197.677407 79.482359 
L 201.950926 82.334028 
L 206.224444 85.170057 
L 210.497963 88.165861 
L 214.771481 91.474325 
L 219.045 95.078118 
L 223.318519 98.879117 
L 227.592037 102.90883 
L 231.865556 107.188102 
L 236.139074 111.581541 
L 240.412593 116.15622 
L 244.686111 120.801599 
L 248.95963 125.441362 
L 253.233148 130.094181 
L 257.506667 134.707444 
L 261.780185 139.3427 
L 266.053704 143.926619 
L 270.327222 148.367611 
L 274.600741 152.657274 
L 278.874259 156.805469 
L 283.147778 160.715688 
L 287.421296 164.375312 
L 291.694815 167.87112 
L 295.968333 171.093776 
L 300.241852 173.888879 
L 304.51537 176.406981 
L 308.788889 178.520496 
L 313.062407 180.474755 
L 317.335926 182.398606 
L 321.609444 184.30463 
L 325.882963 186.227365 
L 330.156481 188.163796 
L 334.43 190.069163 
L 338.703519 191.969235 
L 342.977037 193.815874 
L 347.250556 195.614776 
L 351.524074 197.458663 
L 355.797593 199.317795 
L 360.071111 201.127525 
L 364.34463 202.889295 
L 368.618148 204.70053 
L 372.891667 206.456198 
L 377.165185 208.186793 
L 381.438704 209.909094 
L 385.712222 211.602385 
L 389.985741 213.301189 
L 394.259259 215.002044 
L 398.532778 216.622244 
L 402.806296 218.241044 
L 407.079815 219.82978 
L 411.353333 221.43859 
L 415.626852 223.029019 
L 419.90037 224.587962 
L 424.173889 226.125098 
L 428.447407 227.619838 
L 432.720926 229.086446 
L 436.994444 230.530914 
L 441.267963 231.952264 
L 445.541481 233.381819 
L 449.815 234.821253 
L 454.088519 236.174062 
L 458.362037 237.563005 
L 462.635556 238.867698 
L 466.909074 240.149736 
L 471.182593 241.41812 
L 475.456111 242.647405 
L 479.72963 243.847899 
L 484.003148 245.028868 
L 488.276667 246.192632 
L 492.550185 247.338603 
L 496.823704 248.462662 
L 501.097222 249.548541 
L 505.370741 250.625183 
L 509.644259 251.667599 
L 513.917778 252.651599 
L 518.191296 253.628937 
L 522.464815 254.561537 
L 526.738333 255.477734 
L 531.011852 256.360134 
L 535.28537 257.223161 
L 539.558889 258.053238 
L 543.832407 258.830021 
L 548.105926 259.610536 
L 552.379444 260.307059 
L 556.652963 261.020481 
L 560.926481 261.666436 
L 565.2 262.254748 
L 565.2 196.260737 
L 565.2 196.260737 
L 560.926481 195.719181 
L 556.652963 195.147487 
L 552.379444 194.536955 
L 548.105926 193.894527 
L 543.832407 193.211803 
L 539.558889 192.495605 
L 535.28537 191.749147 
L 531.011852 190.973161 
L 526.738333 190.168213 
L 522.464815 189.332077 
L 518.191296 188.461458 
L 513.917778 187.56003 
L 509.644259 186.631664 
L 505.370741 185.678092 
L 501.097222 184.684448 
L 496.823704 183.669956 
L 492.550185 182.637433 
L 488.276667 181.566859 
L 484.003148 180.479583 
L 479.72963 179.357208 
L 475.456111 178.213133 
L 471.182593 177.048545 
L 466.909074 175.850957 
L 462.635556 174.626246 
L 458.362037 173.377358 
L 454.088519 172.111298 
L 449.815 170.821293 
L 445.541481 169.513316 
L 441.267963 168.177279 
L 436.994444 166.819827 
L 432.720926 165.454053 
L 428.447407 164.059953 
L 424.173889 162.647067 
L 419.90037 161.21463 
L 415.626852 159.771271 
L 411.353333 158.305117 
L 407.079815 156.822374 
L 402.806296 155.330306 
L 398.532778 153.814486 
L 394.259259 152.281978 
L 389.985741 150.737623 
L 385.712222 149.175422 
L 381.438704 147.604811 
L 377.165185 146.01927 
L 372.891667 144.419028 
L 368.618148 142.80913 
L 364.34463 141.190802 
L 360.071111 139.560633 
L 355.797593 137.920359 
L 351.524074 136.26875 
L 347.250556 134.611015 
L 342.977037 132.94647 
L 338.703519 131.273665 
L 334.43 129.582688 
L 330.156481 127.886536 
L 325.882963 126.182105 
L 321.609444 124.479577 
L 317.335926 122.764816 
L 313.062407 121.041553 
L 308.788889 119.318627 
L 304.51537 117.520949 
L 300.241852 115.602204 
L 295.968333 113.565978 
L 291.694815 111.428572 
L 287.421296 109.195325 
L 283.147778 106.881189 
L 278.874259 104.488686 
L 274.600741 102.051129 
L 270.327222 99.560973 
L 266.053704 97.029776 
L 261.780185 94.47842 
L 257.506667 91.908368 
L 253.233148 89.337045 
L 248.95963 86.763274 
L 244.686111 84.215946 
L 240.412593 81.694081 
L 236.139074 79.205429 
L 231.865556 76.755762 
L 227.592037 74.369161 
L 223.318519 72.048399 
L 219.045 69.800705 
L 214.771481 67.634368 
L 210.497963 65.55824 
L 206.224444 63.578808 
L 201.950926 61.661703 
L 197.677407 59.759516 
L 193.403889 57.873822 
L 189.13037 56.005111 
L 184.856852 54.153448 
L 180.583333 52.318165 
L 176.309815 50.501658 
L 172.036296 48.702248 
L 167.762778 46.923892 
L 163.489259 45.164607 
L 159.215741 43.426604 
L 154.942222 41.710883 
L 150.668704 40.015094 
L 146.395185 38.341867 
L 142.121667 36.689247 
L 137.848148 35.061408 
L 133.57463 33.458773 
L 129.301111 31.879512 
L 125.027593 30.326406 
L 120.754074 28.799575 
L 116.480556 27.298296 
L 112.207037 25.823535 
L 107.933519 24.376627 
L 103.66 22.9575 
z
" style="fill:#93ffba;fill-opacity:0.5;"/>
   </g>
   <g id="PolyCollection_4">
    <defs>
     <path d="M 103.66 -437.8425 
L 103.66 -437.8425 
L 129.301111 -437.8425 
L 129.301111 -373.1396 
L 154.942222 -373.1396 
L 154.942222 -321.419606 
L 180.583333 -321.419606 
L 180.583333 -305.826689 
L 206.224444 -305.826689 
L 206.224444 -247.278546 
L 257.506667 -247.278546 
L 257.506667 -224.131395 
L 308.788889 -224.131395 
L 308.788889 -194.289476 
L 360.071111 -194.289476 
L 360.071111 -177.412628 
L 411.353333 -177.412628 
L 411.353333 -152.998176 
L 462.635556 -152.998176 
L 462.635556 -140.472101 
L 513.917778 -140.472101 
L 513.917778 -89.393867 
L 513.917778 -219.480048 
L 513.917778 -219.480048 
L 513.917778 -224.736147 
L 462.635556 -224.736147 
L 462.635556 -234.413286 
L 411.353333 -234.413286 
L 411.353333 -251.054244 
L 360.071111 -251.054244 
L 360.071111 -263.812375 
L 308.788889 -263.812375 
L 308.788889 -290.686403 
L 257.506667 -290.686403 
L 257.506667 -312.03506 
L 206.224444 -312.03506 
L 206.224444 -362.164257 
L 180.583333 -362.164257 
L 180.583333 -373.981967 
L 154.942222 -373.981967 
L 154.942222 -412.818554 
L 129.301111 -412.818554 
L 129.301111 -437.8425 
L 103.66 -437.8425 
z
" id="m5cc45f7380" style="stroke:#9c3190;stroke-opacity:0.5;"/>
    </defs>
    <g clip-path="url(#p588190ee1f)">
     <use style="fill:#9c3190;fill-opacity:0.5;stroke:#9c3190;stroke-opacity:0.5;" x="0" xlink:href="#m5cc45f7380" y="460.8"/>
    </g>
   </g>
   <g id="matplotlib.axis_1">
    <g id="xtick_1">
     <g id="line2d_1">
      <defs>
       <path d="M 0 0 
L 0 3.5 
" id="m1730a2c62d" style="stroke:#000000;stroke-width:0.8;"/>
      </defs>
      <g>
       <use style="stroke:#000000;stroke-width:0.8;" x="103.66" xlink:href="#m1730a2c62d" y="377.06"/>
      </g>
     </g>
     <g id="text_1">
      <text style="font-family:DejaVu Sans;font-size:32px;font-style:normal;font-weight:normal;text-anchor:middle;" transform="rotate(-0, 103.66, 408.375)" x="103.66" y="408.375">0</text>
     </g>
    </g>
    <g id="xtick_2">
     <g id="line2d_2">
      <g>
       <use style="stroke:#000000;stroke-width:0.8;" x="317.335926" xlink:href="#m1730a2c62d" y="377.06"/>
      </g>
     </g>
     <g id="text_2">
      <text style="font-family:DejaVu Sans;font-size:32px;font-style:normal;font-weight:normal;text-anchor:middle;" transform="rotate(-0, 317.335926, 408.375)" x="317.335926" y="408.375">50</text>
     </g>
    </g>
    <g id="xtick_3">
     <g id="line2d_3">
      <g>
       <use style="stroke:#000000;stroke-width:0.8;" x="531.011852" xlink:href="#m1730a2c62d" y="377.06"/>
      </g>
     </g>
     <g id="text_3">
      <text style="font-family:DejaVu Sans;font-size:32px;font-style:normal;font-weight:normal;text-anchor:middle;" transform="rotate(-0, 531.011852, 408.375)" x="531.011852" y="408.375">100</text>
     </g>
    </g>
    <g id="text_4">
     <text style="font-family:DejaVu Sans;font-size:32px;font-style:normal;font-weight:normal;text-anchor:middle;" transform="rotate(-0, 334.43, 443.345)" x="334.43" y="443.345">Time (months)</text>
    </g>
   </g>
   <g id="matplotlib.axis_2">
    <g id="ytick_1">
     <g id="line2d_4">
      <defs>
       <path d="M 0 0 
L -3.5 0 
" id="me0100852e0" style="stroke:#000000;stroke-width:0.8;"/>
      </defs>
      <g>
       <use style="stroke:#000000;stroke-width:0.8;" x="103.66" xlink:href="#me0100852e0" y="377.06"/>
      </g>
     </g>
     <g id="text_5">
      <text style="font-family:DejaVu Sans;font-size:32px;font-style:normal;font-weight:normal;text-anchor:end;" transform="rotate(-0, 96.66, 389.2175)" x="96.66" y="389.2175">0.0</text>
     </g>
    </g>
    <g id="ytick_2">
     <g id="line2d_5">
      <g>
       <use style="stroke:#000000;stroke-width:0.8;" x="103.66" xlink:href="#me0100852e0" y="306.2395"/>
      </g>
     </g>
     <g id="text_6">
      <text style="font-family:DejaVu Sans;font-size:32px;font-style:normal;font-weight:normal;text-anchor:end;" transform="rotate(-0, 96.66, 318.397)" x="96.66" y="318.397">0.2</text>
     </g>
    </g>
    <g id="ytick_3">
     <g id="line2d_6">
      <g>
       <use style="stroke:#000000;stroke-width:0.8;" x="103.66" xlink:href="#me0100852e0" y="235.419"/>
      </g>
     </g>
     <g id="text_7">
      <text style="font-family:DejaVu Sans;font-size:32px;font-style:normal;font-weight:normal;text-anchor:end;" transform="rotate(-0, 96.66, 247.5765)" x="96.66" y="247.5765">0.4</text>
     </g>
    </g>
    <g id="ytick_4">
     <g id="line2d_7">
      <g>
       <use style="stroke:#000000;stroke-width:0.8;" x="103.66" xlink:href="#me0100852e0" y="164.5985"/>
      </g>
     </g>
     <g id="text_8">
      <text style="font-family:DejaVu Sans;font-size:32px;font-style:normal;font-weight:normal;text-anchor:end;" transform="rotate(-0, 96.66, 176.756)" x="96.66" y="176.756">0.6</text>
     </g>
    </g>
    <g id="ytick_5">
     <g id="line2d_8">
      <g>
       <use style="stroke:#000000;stroke-width:0.8;" x="103.66" xlink:href="#me0100852e0" y="93.778"/>
      </g>
     </g>
     <g id="text_9">
      <text style="font-family:DejaVu Sans;font-size:32px;font-style:normal;font-weight:normal;text-anchor:end;" transform="rotate(-0, 96.66, 105.9355)" x="96.66" y="105.9355">0.8</text>
     </g>
    </g>
    <g id="ytick_6">
     <g id="line2d_9">
      <g>
       <use style="stroke:#000000;stroke-width:0.8;" x="103.66" xlink:href="#me0100852e0" y="22.9575"/>
      </g>
     </g>
     <g id="text_10">
      <text style="font-family:DejaVu Sans;font-size:32px;font-style:normal;font-weight:normal;text-anchor:end;" transform="rotate(-0, 96.66, 35.115)" x="96.66" y="35.115">1.0</text>
     </g>
    </g>
    <g id="text_11">
     <text style="font-family:DejaVu Sans;font-size:32px;font-style:normal;font-weight:normal;text-anchor:middle;" transform="rotate(-90, 35.115, 200.00875)" x="35.115" y="200.00875">Probability of survival</text>
    </g>
   </g>
   <g id="line2d_10">
    <path clip-path="url(#p588190ee1f)" d="M 103.66 22.9575 
L 129.301111 22.9575 
L 129.301111 63.503588 
L 154.942222 63.503588 
L 154.942222 109.855405 
L 180.583333 109.855405 
L 180.583333 123.736163 
L 206.224444 123.736163 
L 206.224444 179.259196 
L 257.506667 179.259196 
L 257.506667 202.082366 
L 308.788889 202.082366 
L 308.788889 231.245305 
L 360.071111 231.245305 
L 360.071111 246.59422 
L 411.353333 246.59422 
L 411.353333 268.338517 
L 462.635556 268.338517 
L 462.635556 280.418682 
L 513.917778 280.418682 
L 513.917778 328.739341 
" style="fill:none;stroke:#9c3190;stroke-linecap:square;stroke-width:3;"/>
   </g>
   <g id="patch_3">
    <path d="M 103.66 377.06 
L 103.66 22.9575 
" style="fill:none;stroke:#000000;stroke-linecap:square;stroke-linejoin:miter;stroke-width:0.8;"/>
   </g>
   <g id="patch_4">
    <path d="M 565.2 377.06 
L 565.2 22.9575 
" style="fill:none;stroke:#000000;stroke-linecap:square;stroke-linejoin:miter;stroke-width:0.8;"/>
   </g>
   <g id="patch_5">
    <path d="M 103.66 377.06 
L 565.2 377.06 
" style="fill:none;stroke:#000000;stroke-linecap:square;stroke-linejoin:miter;stroke-width:0.8;"/>
   </g>
   <g id="patch_6">
    <path d="M 103.66 22.9575 
L 565.2 22.9575 
" style="fill:none;stroke:#000000;stroke-linecap:square;stroke-linejoin:miter;stroke-width:0.8;"/>
   </g>
   <g id="legend_1">
    <g id="patch_7">
     <path d="M 371.73 103.0125 
L 556.8 103.0125 
Q 559.2 103.0125 559.2 100.6125 
L 559.2 31.3575 
Q 559.2 28.9575 556.8 28.9575 
L 371.73 28.9575 
Q 369.33 28.9575 369.33 31.3575 
L 369.33 100.6125 
Q 369.33 103.0125 371.73 103.0125 
z
" style="fill:#ffffff;opacity:0.8;stroke:#cccccc;stroke-linejoin:miter;"/>
    </g>
    <g id="patch_8">
     <path d="M 374.13 42.875625 
L 398.13 42.875625 
L 398.13 34.475625 
L 374.13 34.475625 
z
" style="fill:#d60000;opacity:0.5;"/>
    </g>
    <g id="text_12">
     <text style="font-family:DejaVu Sans;font-size:12px;font-style:normal;font-weight:normal;text-anchor:start;" transform="rotate(-0, 407.73, 42.875625)" x="407.73" y="42.875625">Predicted survival (MLP)</text>
    </g>
    <g id="patch_9">
     <path d="M 374.13 60.489375 
L 398.13 60.489375 
L 398.13 52.089375 
L 374.13 52.089375 
z
" style="fill:#e1cd9c;opacity:0.5;"/>
    </g>
    <g id="text_13">
     <text style="font-family:DejaVu Sans;font-size:12px;font-style:normal;font-weight:normal;text-anchor:start;" transform="rotate(-0, 407.73, 60.489375)" x="407.73" y="60.489375">Predicted survival (CNN)</text>
    </g>
    <g id="patch_10">
     <path d="M 374.13 78.103125 
L 398.13 78.103125 
L 398.13 69.703125 
L 374.13 69.703125 
z
" style="fill:#93ffba;opacity:0.5;"/>
    </g>
    <g id="text_14">
     <text style="font-family:DejaVu Sans;font-size:12px;font-style:normal;font-weight:normal;text-anchor:start;" transform="rotate(-0, 407.73, 78.103125)" x="407.73" y="78.103125">Predicted survival (ViT)</text>
    </g>
    <g id="line2d_11">
     <path d="M 374.13 91.516875 
L 398.13 91.516875 
" style="fill:none;stroke:#9c3190;stroke-linecap:square;stroke-width:3;"/>
    </g>
    <g id="line2d_12"/>
    <g id="text_15">
     <text style="font-family:DejaVu Sans;font-size:12px;font-style:normal;font-weight:normal;text-anchor:start;" transform="rotate(-0, 407.73, 95.716875)" x="407.73" y="95.716875">Kaplan Meier Estimate</text>
    </g>
   </g>
  </g>
 </g>
 <defs>
  <clipPath id="p588190ee1f">
   <rect height="354.1025" width="461.54" x="103.66" y="22.9575"/>
  </clipPath>
 </defs>
</svg>
