<?xml version="1.0" encoding="utf-8" standalone="no"?>
<!DOCTYPE svg PUBLIC "-//W3C//DTD SVG 1.1//EN"
  "http://www.w3.org/Graphics/SVG/1.1/DTD/svg11.dtd">
<!-- Created with matplotlib (https://matplotlib.org/) -->
<svg height="460.8pt" version="1.1" viewBox="0 0 576 460.8" width="576pt" xmlns="http://www.w3.org/2000/svg" xmlns:xlink="http://www.w3.org/1999/xlink">
 <defs>
  <style type="text/css">
*{stroke-linecap:butt;stroke-linejoin:round;}
  </style>
 </defs>
 <g id="figure_1">
  <g id="patch_1">
   <path d="M 0 460.8 
L 576 460.8 
L 576 0 
L 0 0 
z
" style="fill:#ffffff;"/>
  </g>
  <g id="axes_1">
   <g id="patch_2">
    <path d="M 103.66 377.06 
L 565.2 377.06 
L 565.2 22.9575 
L 103.66 22.9575 
z
" style="fill:#ffffff;"/>
   </g>
   <g id="PolyCollection_1">
    <path clip-path="url(#p1e21454700)" d="M 103.66 22.9575 
L 103.66 22.9575 
L 107.933519 24.304737 
L 112.207037 25.714421 
L 116.480556 27.184942 
L 120.754074 28.71153 
L 125.027593 30.296069 
L 129.301111 31.932176 
L 133.57463 33.613419 
L 137.848148 35.341749 
L 142.121667 37.112036 
L 146.395185 38.924969 
L 150.668704 40.769471 
L 154.942222 42.655343 
L 159.215741 44.572771 
L 163.489259 46.516673 
L 167.762778 48.501036 
L 172.036296 50.511231 
L 176.309815 52.540375 
L 180.583333 54.591381 
L 184.856852 56.673306 
L 189.13037 58.742045 
L 193.403889 60.834061 
L 197.677407 62.939018 
L 201.950926 65.050764 
L 206.224444 67.153132 
L 210.497963 69.389919 
L 214.771481 71.863321 
L 219.045 74.513072 
L 223.318519 77.330992 
L 227.592037 80.309457 
L 231.865556 83.385531 
L 236.139074 86.607635 
L 240.412593 89.91265 
L 244.686111 93.232018 
L 248.95963 96.669707 
L 253.233148 100.111848 
L 257.506667 103.595598 
L 261.780185 107.031151 
L 266.053704 110.442441 
L 270.327222 113.828717 
L 274.600741 117.116951 
L 278.874259 120.32924 
L 283.147778 123.454113 
L 287.421296 126.456319 
L 291.694815 129.290152 
L 295.968333 131.98336 
L 300.241852 134.524686 
L 304.51537 136.844313 
L 308.788889 138.96512 
L 313.062407 140.96423 
L 317.335926 143.008677 
L 321.609444 145.023087 
L 325.882963 147.030235 
L 330.156481 148.997451 
L 334.43 150.994753 
L 338.703519 152.96735 
L 342.977037 154.928461 
L 347.250556 156.860473 
L 351.524074 158.816332 
L 355.797593 160.717563 
L 360.071111 162.644834 
L 364.34463 164.574474 
L 368.618148 166.495654 
L 372.891667 168.388114 
L 377.165185 170.283126 
L 381.438704 172.128788 
L 385.712222 173.97818 
L 389.985741 175.81235 
L 394.259259 177.633064 
L 398.532778 179.425603 
L 402.806296 181.251523 
L 407.079815 183.006057 
L 411.353333 184.765572 
L 415.626852 186.524018 
L 419.90037 188.300721 
L 424.173889 190.037812 
L 428.447407 191.743794 
L 432.720926 193.458623 
L 436.994444 195.145597 
L 441.267963 196.772097 
L 445.541481 198.42475 
L 449.815 200.060363 
L 454.088519 201.67434 
L 458.362037 203.30382 
L 462.635556 204.868763 
L 466.909074 206.423246 
L 471.182593 207.937346 
L 475.456111 209.464121 
L 479.72963 210.945618 
L 484.003148 212.396112 
L 488.276667 213.821341 
L 492.550185 215.224615 
L 496.823704 216.647145 
L 501.097222 218.032253 
L 505.370741 219.333905 
L 509.644259 220.637521 
L 513.917778 221.920173 
L 518.191296 223.161698 
L 522.464815 224.36379 
L 526.738333 225.553786 
L 531.011852 226.716833 
L 535.28537 227.876156 
L 539.558889 228.966773 
L 543.832407 230.015555 
L 548.105926 231.10514 
L 552.379444 232.136904 
L 556.652963 233.125969 
L 560.926481 234.099714 
L 565.2 235.022086 
L 565.2 253.985509 
L 565.2 253.985509 
L 560.926481 252.953357 
L 556.652963 251.934944 
L 552.379444 250.901738 
L 548.105926 249.830497 
L 543.832407 248.739479 
L 539.558889 247.659534 
L 535.28537 246.516942 
L 531.011852 245.384698 
L 526.738333 244.239621 
L 522.464815 243.045466 
L 518.191296 241.773963 
L 513.917778 240.522857 
L 509.644259 239.24027 
L 505.370741 237.894976 
L 501.097222 236.538917 
L 496.823704 235.171925 
L 492.550185 233.762197 
L 488.276667 232.33726 
L 484.003148 230.918746 
L 479.72963 229.443108 
L 475.456111 227.964997 
L 471.182593 226.462073 
L 466.909074 224.991125 
L 462.635556 223.436 
L 458.362037 221.849744 
L 454.088519 220.23398 
L 449.815 218.653987 
L 445.541481 217.037113 
L 441.267963 215.386589 
L 436.994444 213.739837 
L 432.720926 212.084189 
L 428.447407 210.407764 
L 424.173889 208.638392 
L 419.90037 206.863947 
L 415.626852 205.121438 
L 411.353333 203.356847 
L 407.079815 201.574002 
L 402.806296 199.753715 
L 398.532778 197.945353 
L 394.259259 196.111823 
L 389.985741 194.246957 
L 385.712222 192.393302 
L 381.438704 190.516179 
L 377.165185 188.642058 
L 372.891667 186.747822 
L 368.618148 184.85041 
L 364.34463 182.919345 
L 360.071111 180.980726 
L 355.797593 179.048584 
L 351.524074 177.065342 
L 347.250556 175.107897 
L 342.977037 173.140192 
L 338.703519 171.157406 
L 334.43 169.153244 
L 330.156481 167.172505 
L 325.882963 165.161087 
L 321.609444 163.161252 
L 317.335926 161.106261 
L 313.062407 159.107786 
L 308.788889 157.089276 
L 304.51537 154.915935 
L 300.241852 152.520272 
L 295.968333 149.912898 
L 291.694815 147.062609 
L 287.421296 144.024972 
L 283.147778 140.858777 
L 278.874259 137.508802 
L 274.600741 134.043703 
L 270.327222 130.472696 
L 266.053704 126.854522 
L 261.780185 123.150899 
L 257.506667 119.458979 
L 253.233148 115.787872 
L 248.95963 112.059467 
L 244.686111 108.339575 
L 240.412593 104.67535 
L 236.139074 101.093379 
L 231.865556 97.628999 
L 227.592037 94.252102 
L 223.318519 90.984899 
L 219.045 87.843324 
L 214.771481 84.908531 
L 210.497963 82.177391 
L 206.224444 79.612712 
L 201.950926 77.148046 
L 197.677407 74.693075 
L 193.403889 72.224155 
L 189.13037 69.73529 
L 184.856852 67.259693 
L 180.583333 64.762334 
L 176.309815 62.296214 
L 172.036296 59.830586 
L 167.762778 57.377387 
L 163.489259 54.916791 
L 159.215741 52.47654 
L 154.942222 50.046462 
L 150.668704 47.638435 
L 146.395185 45.256393 
L 142.121667 42.885851 
L 137.848148 40.548838 
L 133.57463 38.234258 
L 129.301111 35.952858 
L 125.027593 33.699182 
L 120.754074 31.470411 
L 116.480556 29.283882 
L 112.207037 27.132962 
L 107.933519 25.023249 
L 103.66 22.9575 
z
" style="fill:#d60000;fill-opacity:0.5;"/>
   </g>
   <g id="PolyCollection_2">
    <path clip-path="url(#p1e21454700)" d="M 103.66 22.9575 
L 103.66 22.9575 
L 107.933519 24.0014 
L 112.207037 25.120899 
L 116.480556 26.319459 
L 120.754074 27.586698 
L 125.027593 28.921488 
L 129.301111 30.325761 
L 133.57463 31.779373 
L 137.848148 33.294859 
L 142.121667 34.862785 
L 146.395185 36.46382 
L 150.668704 38.148652 
L 154.942222 39.843165 
L 159.215741 41.57489 
L 163.489259 43.352336 
L 167.762778 45.159736 
L 172.036296 46.991585 
L 176.309815 48.834699 
L 180.583333 50.720557 
L 184.856852 52.644185 
L 189.13037 54.571734 
L 193.403889 56.490948 
L 197.677407 58.446147 
L 201.950926 60.421168 
L 206.224444 62.367343 
L 210.497963 64.461804 
L 214.771481 66.787651 
L 219.045 69.338835 
L 223.318519 72.15173 
L 227.592037 75.112472 
L 231.865556 78.261225 
L 236.139074 81.558251 
L 240.412593 84.90335 
L 244.686111 88.359146 
L 248.95963 91.866999 
L 253.233148 95.387361 
L 257.506667 98.966346 
L 261.780185 102.530673 
L 266.053704 106.101284 
L 270.327222 109.531653 
L 274.600741 112.887657 
L 278.874259 116.1274 
L 283.147778 119.239785 
L 287.421296 122.215543 
L 291.694815 125.060878 
L 295.968333 127.701363 
L 300.241852 130.118043 
L 304.51537 132.300795 
L 308.788889 134.179209 
L 313.062407 135.936636 
L 317.335926 137.718857 
L 321.609444 139.480427 
L 325.882963 141.238265 
L 330.156481 142.931247 
L 334.43 144.654893 
L 338.703519 146.38752 
L 342.977037 148.120192 
L 347.250556 149.808849 
L 351.524074 151.520555 
L 355.797593 153.216869 
L 360.071111 154.907768 
L 364.34463 156.580759 
L 368.618148 158.294471 
L 372.891667 159.975317 
L 377.165185 161.671582 
L 381.438704 163.288991 
L 385.712222 164.901564 
L 389.985741 166.50721 
L 394.259259 168.16347 
L 398.532778 169.827968 
L 402.806296 171.455985 
L 407.079815 173.046451 
L 411.353333 174.615797 
L 415.626852 176.17263 
L 419.90037 177.73118 
L 424.173889 179.277605 
L 428.447407 180.7907 
L 432.720926 182.261829 
L 436.994444 183.795012 
L 441.267963 185.290953 
L 445.541481 186.746295 
L 449.815 188.181352 
L 454.088519 189.611835 
L 458.362037 191.051661 
L 462.635556 192.438463 
L 466.909074 193.871754 
L 471.182593 195.262531 
L 475.456111 196.636533 
L 479.72963 197.992663 
L 484.003148 199.341656 
L 488.276667 200.651952 
L 492.550185 201.954518 
L 496.823704 203.211968 
L 501.097222 204.424753 
L 505.370741 205.660777 
L 509.644259 206.854198 
L 513.917778 208.026677 
L 518.191296 209.154697 
L 522.464815 210.34315 
L 526.738333 211.489389 
L 531.011852 212.563191 
L 535.28537 213.638819 
L 539.558889 214.691648 
L 543.832407 215.734353 
L 548.105926 216.756923 
L 552.379444 217.750699 
L 556.652963 218.731263 
L 560.926481 219.673875 
L 565.2 220.618934 
L 565.2 253.03416 
L 565.2 253.03416 
L 560.926481 252.315031 
L 556.652963 251.623395 
L 552.379444 250.895995 
L 548.105926 250.127218 
L 543.832407 249.310214 
L 539.558889 248.465177 
L 535.28537 247.622471 
L 531.011852 246.72242 
L 526.738333 245.80417 
L 522.464815 244.845118 
L 518.191296 243.869362 
L 513.917778 242.847468 
L 509.644259 241.838144 
L 505.370741 240.764865 
L 501.097222 239.6533 
L 496.823704 238.547072 
L 492.550185 237.394746 
L 488.276667 236.219663 
L 484.003148 235.032642 
L 479.72963 233.794616 
L 475.456111 232.548 
L 471.182593 231.275757 
L 466.909074 229.999372 
L 462.635556 228.677742 
L 458.362037 227.35091 
L 454.088519 225.983698 
L 449.815 224.611171 
L 445.541481 223.192094 
L 441.267963 221.768453 
L 436.994444 220.317119 
L 432.720926 218.879216 
L 428.447407 217.396481 
L 424.173889 215.888497 
L 419.90037 214.342017 
L 415.626852 212.778952 
L 411.353333 211.202732 
L 407.079815 209.601811 
L 402.806296 208.008712 
L 398.532778 206.379952 
L 394.259259 204.750157 
L 389.985741 203.118833 
L 385.712222 201.450687 
L 381.438704 199.78478 
L 377.165185 198.135042 
L 372.891667 196.44025 
L 368.618148 194.681896 
L 364.34463 192.945418 
L 360.071111 191.217355 
L 355.797593 189.484799 
L 351.524074 187.690498 
L 347.250556 185.867821 
L 342.977037 184.083158 
L 338.703519 182.323239 
L 334.43 180.520489 
L 330.156481 178.722588 
L 325.882963 176.939618 
L 321.609444 175.110979 
L 317.335926 173.312452 
L 313.062407 171.463691 
L 308.788889 169.66121 
L 304.51537 167.622254 
L 300.241852 165.297388 
L 295.968333 162.611314 
L 291.694815 159.654559 
L 287.421296 156.37603 
L 283.147778 152.790634 
L 278.874259 149.068846 
L 274.600741 145.197867 
L 270.327222 141.143524 
L 266.053704 137.081794 
L 261.780185 132.916674 
L 257.506667 128.6986 
L 253.233148 124.448615 
L 248.95963 120.108212 
L 244.686111 115.890313 
L 240.412593 111.723497 
L 236.139074 107.632774 
L 231.865556 103.696033 
L 227.592037 99.832261 
L 223.318519 96.124317 
L 219.045 92.680366 
L 214.771481 89.409274 
L 210.497963 86.398839 
L 206.224444 83.688844 
L 201.950926 81.09318 
L 197.677407 78.454758 
L 193.403889 75.8425 
L 189.13037 73.209712 
L 184.856852 70.557819 
L 180.583333 67.901719 
L 176.309815 65.225885 
L 172.036296 62.559855 
L 167.762778 59.923213 
L 163.489259 57.27622 
L 159.215741 54.623621 
L 154.942222 51.985562 
L 150.668704 49.397118 
L 146.395185 46.815131 
L 142.121667 44.24319 
L 137.848148 41.704517 
L 133.57463 39.211387 
L 129.301111 36.75455 
L 125.027593 34.337731 
L 120.754074 31.954317 
L 116.480556 29.62209 
L 112.207037 27.344325 
L 107.933519 25.123954 
L 103.66 22.9575 
z
" style="fill:#e1cd9c;fill-opacity:0.5;"/>
   </g>
   <g id="PolyCollection_3">
    <path clip-path="url(#p1e21454700)" d="M 103.66 22.9575 
L 103.66 22.9575 
L 107.933519 24.0014 
L 112.207037 25.120899 
L 116.480556 26.319459 
L 120.754074 27.586698 
L 125.027593 28.921488 
L 129.301111 30.325761 
L 133.57463 31.779373 
L 137.848148 33.294859 
L 142.121667 34.862785 
L 146.395185 36.46382 
L 150.668704 38.148652 
L 154.942222 39.843165 
L 159.215741 41.57489 
L 163.489259 43.352336 
L 167.762778 45.159736 
L 172.036296 46.991585 
L 176.309815 48.834699 
L 180.583333 50.720557 
L 184.856852 52.644185 
L 189.13037 54.571734 
L 193.403889 56.490948 
L 197.677407 58.446147 
L 201.950926 60.421168 
L 206.224444 62.367343 
L 210.497963 64.461804 
L 214.771481 66.787651 
L 219.045 69.338835 
L 223.318519 72.15173 
L 227.592037 75.112472 
L 231.865556 78.261225 
L 236.139074 81.558251 
L 240.412593 84.90335 
L 244.686111 88.359146 
L 248.95963 91.866999 
L 253.233148 95.387361 
L 257.506667 98.966346 
L 261.780185 102.530673 
L 266.053704 106.101284 
L 270.327222 109.531653 
L 274.600741 112.887657 
L 278.874259 116.1274 
L 283.147778 119.239785 
L 287.421296 122.215543 
L 291.694815 125.060878 
L 295.968333 127.701363 
L 300.241852 130.118043 
L 304.51537 132.300795 
L 308.788889 134.179209 
L 313.062407 135.936636 
L 317.335926 137.718857 
L 321.609444 139.480427 
L 325.882963 141.238265 
L 330.156481 142.931247 
L 334.43 144.654893 
L 338.703519 146.38752 
L 342.977037 148.120192 
L 347.250556 149.808849 
L 351.524074 151.520555 
L 355.797593 153.216869 
L 360.071111 154.907768 
L 364.34463 156.580759 
L 368.618148 158.294471 
L 372.891667 159.975317 
L 377.165185 161.671582 
L 381.438704 163.288991 
L 385.712222 164.901564 
L 389.985741 166.50721 
L 394.259259 168.16347 
L 398.532778 169.827968 
L 402.806296 171.455985 
L 407.079815 173.046451 
L 411.353333 174.615797 
L 415.626852 176.17263 
L 419.90037 177.73118 
L 424.173889 179.277605 
L 428.447407 180.7907 
L 432.720926 182.261829 
L 436.994444 183.795012 
L 441.267963 185.290953 
L 445.541481 186.746295 
L 449.815 188.181352 
L 454.088519 189.611835 
L 458.362037 191.051661 
L 462.635556 192.438463 
L 466.909074 193.871754 
L 471.182593 195.262531 
L 475.456111 196.636533 
L 479.72963 197.992663 
L 484.003148 199.341656 
L 488.276667 200.651952 
L 492.550185 201.954518 
L 496.823704 203.211968 
L 501.097222 204.424753 
L 505.370741 205.660777 
L 509.644259 206.854198 
L 513.917778 208.026677 
L 518.191296 209.154697 
L 522.464815 210.34315 
L 526.738333 211.489389 
L 531.011852 212.563191 
L 535.28537 213.638819 
L 539.558889 214.691648 
L 543.832407 215.734353 
L 548.105926 216.756923 
L 552.379444 217.750699 
L 556.652963 218.731263 
L 560.926481 219.673875 
L 565.2 220.618934 
L 565.2 199.36477 
L 565.2 199.36477 
L 560.926481 198.825597 
L 556.652963 198.252353 
L 552.379444 197.642952 
L 548.105926 196.998285 
L 543.832407 196.314363 
L 539.558889 195.597498 
L 535.28537 194.837298 
L 531.011852 194.05451 
L 526.738333 193.232199 
L 522.464815 192.387536 
L 518.191296 191.503602 
L 513.917778 190.595671 
L 509.644259 189.650004 
L 505.370741 188.679614 
L 501.097222 187.674887 
L 496.823704 186.647083 
L 492.550185 185.591022 
L 488.276667 184.503758 
L 484.003148 183.38849 
L 479.72963 182.244928 
L 475.456111 181.085488 
L 471.182593 179.893535 
L 466.909074 178.677209 
L 462.635556 177.430227 
L 458.362037 176.162271 
L 454.088519 174.87087 
L 449.815 173.560157 
L 445.541481 172.228964 
L 441.267963 170.871023 
L 436.994444 169.490199 
L 432.720926 168.094446 
L 428.447407 166.680997 
L 424.173889 165.247739 
L 419.90037 163.796762 
L 415.626852 162.324847 
L 411.353333 160.8308 
L 407.079815 159.316329 
L 402.806296 157.790172 
L 398.532778 156.246392 
L 394.259259 154.689081 
L 389.985741 153.104967 
L 385.712222 151.515429 
L 381.438704 149.916346 
L 377.165185 148.296901 
L 372.891667 146.670061 
L 368.618148 145.031647 
L 364.34463 143.375729 
L 360.071111 141.711852 
L 355.797593 140.036294 
L 351.524074 138.348695 
L 347.250556 136.65188 
L 342.977037 134.946008 
L 338.703519 133.227562 
L 334.43 131.498524 
L 330.156481 129.772217 
L 325.882963 128.027705 
L 321.609444 126.283474 
L 317.335926 124.53399 
L 313.062407 122.779929 
L 308.788889 121.022316 
L 304.51537 119.189851 
L 300.241852 117.233981 
L 295.968333 115.144785 
L 291.694815 112.947548 
L 287.421296 110.657436 
L 283.147778 108.280909 
L 278.874259 105.841626 
L 274.600741 103.341332 
L 270.327222 100.780778 
L 266.053704 98.171656 
L 261.780185 95.551538 
L 257.506667 92.903813 
L 253.233148 90.265571 
L 248.95963 87.624669 
L 244.686111 85.006836 
L 240.412593 82.412738 
L 236.139074 79.853654 
L 231.865556 77.345005 
L 227.592037 74.889098 
L 223.318519 72.495662 
L 219.045 70.184901 
L 214.771481 67.966519 
L 210.497963 65.841443 
L 206.224444 63.824468 
L 201.950926 61.876557 
L 197.677407 59.942216 
L 193.403889 58.025459 
L 189.13037 56.128293 
L 184.856852 54.246292 
L 180.583333 52.386111 
L 176.309815 50.546557 
L 172.036296 48.73174 
L 167.762778 46.934095 
L 163.489259 45.157632 
L 159.215741 43.403936 
L 154.942222 41.673825 
L 150.668704 39.967954 
L 146.395185 38.286055 
L 142.121667 36.627072 
L 137.848148 34.996463 
L 133.57463 33.392512 
L 129.301111 31.815999 
L 125.027593 30.266564 
L 120.754074 28.746307 
L 116.480556 27.254365 
L 112.207037 25.791866 
L 107.933519 24.359286 
L 103.66 22.9575 
z
" style="fill:#93ffba;fill-opacity:0.5;"/>
   </g>
   <g id="PolyCollection_4">
    <defs>
     <path d="M 103.66 -437.8425 
L 103.66 -437.8425 
L 129.301111 -437.8425 
L 129.301111 -407.119936 
L 154.942222 -407.119936 
L 154.942222 -380.553526 
L 180.583333 -380.553526 
L 180.583333 -374.894324 
L 206.224444 -374.894324 
L 206.224444 -310.14832 
L 257.506667 -310.14832 
L 257.506667 -281.879623 
L 308.788889 -281.879623 
L 308.788889 -248.251359 
L 360.071111 -248.251359 
L 360.071111 -248.251359 
L 411.353333 -248.251359 
L 411.353333 -202.788637 
L 462.635556 -202.788637 
L 462.635556 -202.788637 
L 513.917778 -202.788637 
L 513.917778 -151.071975 
L 513.917778 -285.067861 
L 513.917778 -285.067861 
L 513.917778 -296.554302 
L 462.635556 -296.554302 
L 462.635556 -296.554302 
L 411.353333 -296.554302 
L 411.353333 -327.95544 
L 360.071111 -327.95544 
L 360.071111 -327.95544 
L 308.788889 -327.95544 
L 308.788889 -353.852099 
L 257.506667 -353.852099 
L 257.506667 -375.080424 
L 206.224444 -375.080424 
L 206.224444 -418.435474 
L 180.583333 -418.435474 
L 180.583333 -421.334298 
L 154.942222 -421.334298 
L 154.942222 -434.51552 
L 129.301111 -434.51552 
L 129.301111 -437.8425 
L 103.66 -437.8425 
z
" id="m83d9c4eabd" style="stroke:#9c3190;stroke-opacity:0.5;"/>
    </defs>
    <g clip-path="url(#p1e21454700)">
     <use style="fill:#9c3190;fill-opacity:0.5;stroke:#9c3190;stroke-opacity:0.5;" x="0" xlink:href="#m83d9c4eabd" y="460.8"/>
    </g>
   </g>
   <g id="matplotlib.axis_1">
    <g id="xtick_1">
     <g id="line2d_1">
      <defs>
       <path d="M 0 0 
L 0 3.5 
" id="m872974c93e" style="stroke:#000000;stroke-width:0.8;"/>
      </defs>
      <g>
       <use style="stroke:#000000;stroke-width:0.8;" x="103.66" xlink:href="#m872974c93e" y="377.06"/>
      </g>
     </g>
     <g id="text_1">
      <text style="font-family:DejaVu Sans;font-size:32px;font-style:normal;font-weight:normal;text-anchor:middle;" transform="rotate(-0, 103.66, 408.375)" x="103.66" y="408.375">0</text>
     </g>
    </g>
    <g id="xtick_2">
     <g id="line2d_2">
      <g>
       <use style="stroke:#000000;stroke-width:0.8;" x="317.335926" xlink:href="#m872974c93e" y="377.06"/>
      </g>
     </g>
     <g id="text_2">
      <text style="font-family:DejaVu Sans;font-size:32px;font-style:normal;font-weight:normal;text-anchor:middle;" transform="rotate(-0, 317.335926, 408.375)" x="317.335926" y="408.375">50</text>
     </g>
    </g>
    <g id="xtick_3">
     <g id="line2d_3">
      <g>
       <use style="stroke:#000000;stroke-width:0.8;" x="531.011852" xlink:href="#m872974c93e" y="377.06"/>
      </g>
     </g>
     <g id="text_3">
      <text style="font-family:DejaVu Sans;font-size:32px;font-style:normal;font-weight:normal;text-anchor:middle;" transform="rotate(-0, 531.011852, 408.375)" x="531.011852" y="408.375">100</text>
     </g>
    </g>
    <g id="text_4">
     <text style="font-family:DejaVu Sans;font-size:32px;font-style:normal;font-weight:normal;text-anchor:middle;" transform="rotate(-0, 334.43, 443.345)" x="334.43" y="443.345">Time (months)</text>
    </g>
   </g>
   <g id="matplotlib.axis_2">
    <g id="ytick_1">
     <g id="line2d_4">
      <defs>
       <path d="M 0 0 
L -3.5 0 
" id="m71c6e3d49c" style="stroke:#000000;stroke-width:0.8;"/>
      </defs>
      <g>
       <use style="stroke:#000000;stroke-width:0.8;" x="103.66" xlink:href="#m71c6e3d49c" y="377.06"/>
      </g>
     </g>
     <g id="text_5">
      <text style="font-family:DejaVu Sans;font-size:32px;font-style:normal;font-weight:normal;text-anchor:end;" transform="rotate(-0, 96.66, 389.2175)" x="96.66" y="389.2175">0.0</text>
     </g>
    </g>
    <g id="ytick_2">
     <g id="line2d_5">
      <g>
       <use style="stroke:#000000;stroke-width:0.8;" x="103.66" xlink:href="#m71c6e3d49c" y="306.2395"/>
      </g>
     </g>
     <g id="text_6">
      <text style="font-family:DejaVu Sans;font-size:32px;font-style:normal;font-weight:normal;text-anchor:end;" transform="rotate(-0, 96.66, 318.397)" x="96.66" y="318.397">0.2</text>
     </g>
    </g>
    <g id="ytick_3">
     <g id="line2d_6">
      <g>
       <use style="stroke:#000000;stroke-width:0.8;" x="103.66" xlink:href="#m71c6e3d49c" y="235.419"/>
      </g>
     </g>
     <g id="text_7">
      <text style="font-family:DejaVu Sans;font-size:32px;font-style:normal;font-weight:normal;text-anchor:end;" transform="rotate(-0, 96.66, 247.5765)" x="96.66" y="247.5765">0.4</text>
     </g>
    </g>
    <g id="ytick_4">
     <g id="line2d_7">
      <g>
       <use style="stroke:#000000;stroke-width:0.8;" x="103.66" xlink:href="#m71c6e3d49c" y="164.5985"/>
      </g>
     </g>
     <g id="text_8">
      <text style="font-family:DejaVu Sans;font-size:32px;font-style:normal;font-weight:normal;text-anchor:end;" transform="rotate(-0, 96.66, 176.756)" x="96.66" y="176.756">0.6</text>
     </g>
    </g>
    <g id="ytick_5">
     <g id="line2d_8">
      <g>
       <use style="stroke:#000000;stroke-width:0.8;" x="103.66" xlink:href="#m71c6e3d49c" y="93.778"/>
      </g>
     </g>
     <g id="text_9">
      <text style="font-family:DejaVu Sans;font-size:32px;font-style:normal;font-weight:normal;text-anchor:end;" transform="rotate(-0, 96.66, 105.9355)" x="96.66" y="105.9355">0.8</text>
     </g>
    </g>
    <g id="ytick_6">
     <g id="line2d_9">
      <g>
       <use style="stroke:#000000;stroke-width:0.8;" x="103.66" xlink:href="#m71c6e3d49c" y="22.9575"/>
      </g>
     </g>
     <g id="text_10">
      <text style="font-family:DejaVu Sans;font-size:32px;font-style:normal;font-weight:normal;text-anchor:end;" transform="rotate(-0, 96.66, 35.115)" x="96.66" y="35.115">1.0</text>
     </g>
    </g>
    <g id="text_11">
     <text style="font-family:DejaVu Sans;font-size:32px;font-style:normal;font-weight:normal;text-anchor:middle;" transform="rotate(-90, 35.115, 200.00875)" x="35.115" y="200.00875">Probability of survival</text>
    </g>
   </g>
   <g id="line2d_10">
    <path clip-path="url(#p1e21454700)" d="M 103.66 22.9575 
L 129.301111 22.9575 
L 129.301111 33.171995 
L 154.942222 33.171995 
L 154.942222 54.013692 
L 180.583333 54.013692 
L 180.583333 58.264302 
L 206.224444 58.264302 
L 206.224444 113.522223 
L 257.506667 113.522223 
L 257.506667 138.862394 
L 308.788889 138.862394 
L 308.788889 169.400548 
L 360.071111 169.400548 
L 360.071111 169.400548 
L 411.353333 169.400548 
L 411.353333 208.95473 
L 462.635556 208.95473 
L 462.635556 208.95473 
L 513.917778 208.95473 
L 513.917778 242.575784 
" style="fill:none;stroke:#9c3190;stroke-linecap:square;stroke-width:3;"/>
   </g>
   <g id="patch_3">
    <path d="M 103.66 377.06 
L 103.66 22.9575 
" style="fill:none;stroke:#000000;stroke-linecap:square;stroke-linejoin:miter;stroke-width:0.8;"/>
   </g>
   <g id="patch_4">
    <path d="M 565.2 377.06 
L 565.2 22.9575 
" style="fill:none;stroke:#000000;stroke-linecap:square;stroke-linejoin:miter;stroke-width:0.8;"/>
   </g>
   <g id="patch_5">
    <path d="M 103.66 377.06 
L 565.2 377.06 
" style="fill:none;stroke:#000000;stroke-linecap:square;stroke-linejoin:miter;stroke-width:0.8;"/>
   </g>
   <g id="patch_6">
    <path d="M 103.66 22.9575 
L 565.2 22.9575 
" style="fill:none;stroke:#000000;stroke-linecap:square;stroke-linejoin:miter;stroke-width:0.8;"/>
   </g>
   <g id="legend_1">
    <g id="patch_7">
     <path d="M 371.73 103.0125 
L 556.8 103.0125 
Q 559.2 103.0125 559.2 100.6125 
L 559.2 31.3575 
Q 559.2 28.9575 556.8 28.9575 
L 371.73 28.9575 
Q 369.33 28.9575 369.33 31.3575 
L 369.33 100.6125 
Q 369.33 103.0125 371.73 103.0125 
z
" style="fill:#ffffff;opacity:0.8;stroke:#cccccc;stroke-linejoin:miter;"/>
    </g>
    <g id="patch_8">
     <path d="M 374.13 42.875625 
L 398.13 42.875625 
L 398.13 34.475625 
L 374.13 34.475625 
z
" style="fill:#d60000;opacity:0.5;"/>
    </g>
    <g id="text_12">
     <text style="font-family:DejaVu Sans;font-size:12px;font-style:normal;font-weight:normal;text-anchor:start;" transform="rotate(-0, 407.73, 42.875625)" x="407.73" y="42.875625">Predicted survival (MLP)</text>
    </g>
    <g id="patch_9">
     <path d="M 374.13 60.489375 
L 398.13 60.489375 
L 398.13 52.089375 
L 374.13 52.089375 
z
" style="fill:#e1cd9c;opacity:0.5;"/>
    </g>
    <g id="text_13">
     <text style="font-family:DejaVu Sans;font-size:12px;font-style:normal;font-weight:normal;text-anchor:start;" transform="rotate(-0, 407.73, 60.489375)" x="407.73" y="60.489375">Predicted survival (CNN)</text>
    </g>
    <g id="patch_10">
     <path d="M 374.13 78.103125 
L 398.13 78.103125 
L 398.13 69.703125 
L 374.13 69.703125 
z
" style="fill:#93ffba;opacity:0.5;"/>
    </g>
    <g id="text_14">
     <text style="font-family:DejaVu Sans;font-size:12px;font-style:normal;font-weight:normal;text-anchor:start;" transform="rotate(-0, 407.73, 78.103125)" x="407.73" y="78.103125">Predicted survival (ViT)</text>
    </g>
    <g id="line2d_11">
     <path d="M 374.13 91.516875 
L 398.13 91.516875 
" style="fill:none;stroke:#9c3190;stroke-linecap:square;stroke-width:3;"/>
    </g>
    <g id="line2d_12"/>
    <g id="text_15">
     <text style="font-family:DejaVu Sans;font-size:12px;font-style:normal;font-weight:normal;text-anchor:start;" transform="rotate(-0, 407.73, 95.716875)" x="407.73" y="95.716875">Kaplan Meier Estimate</text>
    </g>
   </g>
  </g>
 </g>
 <defs>
  <clipPath id="p1e21454700">
   <rect height="354.1025" width="461.54" x="103.66" y="22.9575"/>
  </clipPath>
 </defs>
</svg>
