<?xml version="1.0" encoding="utf-8" standalone="no"?>
<!DOCTYPE svg PUBLIC "-//W3C//DTD SVG 1.1//EN"
  "http://www.w3.org/Graphics/SVG/1.1/DTD/svg11.dtd">
<!-- Created with matplotlib (https://matplotlib.org/) -->
<svg height="460.8pt" version="1.1" viewBox="0 0 576 460.8" width="576pt" xmlns="http://www.w3.org/2000/svg" xmlns:xlink="http://www.w3.org/1999/xlink">
 <defs>
  <style type="text/css">
*{stroke-linecap:butt;stroke-linejoin:round;}
  </style>
 </defs>
 <g id="figure_1">
  <g id="patch_1">
   <path d="M 0 460.8 
L 576 460.8 
L 576 0 
L 0 0 
z
" style="fill:#ffffff;"/>
  </g>
  <g id="axes_1">
   <g id="patch_2">
    <path d="M 103.66 377.06 
L 565.2 377.06 
L 565.2 22.9575 
L 103.66 22.9575 
z
" style="fill:#ffffff;"/>
   </g>
   <g id="PolyCollection_1">
    <path clip-path="url(#pa62a54e521)" d="M 103.66 22.9575 
L 103.66 22.9575 
L 107.933519 24.387885 
L 112.207037 25.881708 
L 116.480556 27.437581 
L 120.754074 29.053809 
L 125.027593 30.725248 
L 129.301111 32.452557 
L 133.57463 34.234865 
L 137.848148 36.065647 
L 142.121667 37.950352 
L 146.395185 39.878968 
L 150.668704 41.841172 
L 154.942222 43.846395 
L 159.215741 45.892343 
L 163.489259 47.976107 
L 167.762778 50.08155 
L 172.036296 52.224217 
L 176.309815 54.392434 
L 180.583333 56.598413 
L 184.856852 58.827438 
L 189.13037 61.07517 
L 193.403889 63.3497 
L 197.677407 65.63794 
L 201.950926 67.943859 
L 206.224444 70.255029 
L 210.497963 72.683579 
L 214.771481 75.304949 
L 219.045 78.113659 
L 223.318519 81.085542 
L 227.592037 84.207896 
L 231.865556 87.453054 
L 236.139074 90.80208 
L 240.412593 94.254806 
L 244.686111 97.741349 
L 248.95963 101.228045 
L 253.233148 104.789356 
L 257.506667 108.351669 
L 261.780185 111.888569 
L 266.053704 115.393446 
L 270.327222 118.854082 
L 274.600741 122.252751 
L 278.874259 125.543648 
L 283.147778 128.765521 
L 287.421296 131.835273 
L 291.694815 134.786564 
L 295.968333 137.578727 
L 300.241852 140.221872 
L 304.51537 142.670258 
L 308.788889 144.917737 
L 313.062407 147.052786 
L 317.335926 149.174104 
L 321.609444 151.289942 
L 325.882963 153.410801 
L 330.156481 155.518137 
L 334.43 157.606565 
L 338.703519 159.682624 
L 342.977037 161.758639 
L 347.250556 163.834477 
L 351.524074 165.899833 
L 355.797593 167.943657 
L 360.071111 169.994643 
L 364.34463 172.036621 
L 368.618148 174.057531 
L 372.891667 176.062211 
L 377.165185 178.034406 
L 381.438704 179.998744 
L 385.712222 181.942739 
L 389.985741 183.888175 
L 394.259259 185.808009 
L 398.532778 187.717374 
L 402.806296 189.60966 
L 407.079815 191.469998 
L 411.353333 193.319666 
L 415.626852 195.157869 
L 419.90037 197.000203 
L 424.173889 198.783259 
L 428.447407 200.577728 
L 432.720926 202.33745 
L 436.994444 204.097804 
L 441.267963 205.817583 
L 445.541481 207.505907 
L 449.815 209.169981 
L 454.088519 210.810427 
L 458.362037 212.434252 
L 462.635556 214.018535 
L 466.909074 215.593741 
L 471.182593 217.134707 
L 475.456111 218.660394 
L 479.72963 220.133215 
L 484.003148 221.587282 
L 488.276667 223.018106 
L 492.550185 224.453352 
L 496.823704 225.811565 
L 501.097222 227.15532 
L 505.370741 228.464229 
L 509.644259 229.773939 
L 513.917778 231.013287 
L 518.191296 232.209434 
L 522.464815 233.401667 
L 526.738333 234.537692 
L 531.011852 235.664651 
L 535.28537 236.734542 
L 539.558889 237.777711 
L 543.832407 238.772149 
L 548.105926 239.734914 
L 552.379444 240.627899 
L 556.652963 241.511616 
L 560.926481 242.305442 
L 565.2 243.135145 
L 565.2 255.234026 
L 565.2 255.234026 
L 560.926481 254.444607 
L 556.652963 253.624406 
L 552.379444 252.784106 
L 548.105926 251.902307 
L 543.832407 250.969771 
L 539.558889 250.011728 
L 535.28537 249.02335 
L 531.011852 247.947101 
L 526.738333 246.873249 
L 522.464815 245.789035 
L 518.191296 244.644939 
L 513.917778 243.469414 
L 509.644259 242.265511 
L 505.370741 241.008815 
L 501.097222 239.755966 
L 496.823704 238.426128 
L 492.550185 237.094921 
L 488.276667 235.754767 
L 484.003148 234.356285 
L 479.72963 232.948433 
L 475.456111 231.512407 
L 471.182593 230.044556 
L 466.909074 228.527308 
L 462.635556 226.986798 
L 458.362037 225.42026 
L 454.088519 223.831403 
L 449.815 222.207281 
L 445.541481 220.58408 
L 441.267963 218.922397 
L 436.994444 217.23406 
L 432.720926 215.52559 
L 428.447407 213.784271 
L 424.173889 212.035902 
L 419.90037 210.242086 
L 415.626852 208.435679 
L 411.353333 206.59938 
L 407.079815 204.72851 
L 402.806296 202.872625 
L 398.532778 200.968475 
L 394.259259 199.078413 
L 389.985741 197.134229 
L 385.712222 195.211118 
L 381.438704 193.23937 
L 377.165185 191.262053 
L 372.891667 189.283235 
L 368.618148 187.265091 
L 364.34463 185.232411 
L 360.071111 183.195799 
L 355.797593 181.157888 
L 351.524074 179.082718 
L 347.250556 176.999061 
L 342.977037 174.936371 
L 338.703519 172.835834 
L 334.43 170.725531 
L 330.156481 168.618641 
L 325.882963 166.507123 
L 321.609444 164.352587 
L 317.335926 162.193183 
L 313.062407 160.027586 
L 308.788889 157.865374 
L 304.51537 155.609794 
L 300.241852 153.076811 
L 295.968333 150.348154 
L 291.694815 147.408863 
L 287.421296 144.296802 
L 283.147778 141.037015 
L 278.874259 137.644169 
L 274.600741 134.111243 
L 270.327222 130.487911 
L 266.053704 126.79118 
L 261.780185 123.03208 
L 257.506667 119.251624 
L 253.233148 115.46211 
L 248.95963 111.700958 
L 244.686111 107.949258 
L 240.412593 104.218816 
L 236.139074 100.548536 
L 231.865556 96.978231 
L 227.592037 93.538676 
L 223.318519 90.177914 
L 219.045 86.970245 
L 214.771481 83.907675 
L 210.497963 81.020419 
L 206.224444 78.327134 
L 201.950926 75.726302 
L 197.677407 73.167655 
L 193.403889 70.607555 
L 189.13037 68.06124 
L 184.856852 65.530846 
L 180.583333 63.016243 
L 176.309815 60.535013 
L 172.036296 58.066722 
L 167.762778 55.614488 
L 163.489259 53.190205 
L 159.215741 50.791713 
L 154.942222 48.434594 
L 150.668704 46.092413 
L 146.395185 43.786365 
L 142.121667 41.518264 
L 137.848148 39.290055 
L 133.57463 37.090951 
L 129.301111 34.938629 
L 125.027593 32.824287 
L 120.754074 30.756174 
L 116.480556 28.73471 
L 112.207037 26.760814 
L 107.933519 24.833989 
L 103.66 22.9575 
z
" style="fill:#d60000;fill-opacity:0.5;"/>
   </g>
   <g id="PolyCollection_2">
    <path clip-path="url(#pa62a54e521)" d="M 103.66 22.9575 
L 103.66 22.9575 
L 107.933519 23.909122 
L 112.207037 24.934361 
L 116.480556 26.027226 
L 120.754074 27.189682 
L 125.027593 28.414997 
L 129.301111 29.708904 
L 133.57463 31.057408 
L 137.848148 32.469717 
L 142.121667 33.926568 
L 146.395185 35.433392 
L 150.668704 36.990281 
L 154.942222 38.588368 
L 159.215741 40.231193 
L 163.489259 41.915501 
L 167.762778 43.645636 
L 172.036296 45.390095 
L 176.309815 47.188202 
L 180.583333 49.002145 
L 184.856852 50.84134 
L 189.13037 52.729614 
L 193.403889 54.633948 
L 197.677407 56.549146 
L 201.950926 58.481034 
L 206.224444 60.44001 
L 210.497963 62.490989 
L 214.771481 64.770728 
L 219.045 67.243952 
L 223.318519 69.875114 
L 227.592037 72.679587 
L 231.865556 75.599722 
L 236.139074 78.642489 
L 240.412593 81.763205 
L 244.686111 84.926391 
L 248.95963 88.23346 
L 253.233148 91.528118 
L 257.506667 94.831677 
L 261.780185 98.186111 
L 266.053704 101.459086 
L 270.327222 104.745446 
L 274.600741 107.934479 
L 278.874259 111.070532 
L 283.147778 114.08629 
L 287.421296 116.964564 
L 291.694815 119.7047 
L 295.968333 122.295143 
L 300.241852 124.741998 
L 304.51537 126.964106 
L 308.788889 128.976255 
L 313.062407 130.886616 
L 317.335926 132.813736 
L 321.609444 134.708156 
L 325.882963 136.609533 
L 330.156481 138.504627 
L 334.43 140.399429 
L 338.703519 142.287942 
L 342.977037 144.159824 
L 347.250556 146.008921 
L 351.524074 147.867677 
L 355.797593 149.720846 
L 360.071111 151.561934 
L 364.34463 153.337248 
L 368.618148 155.14782 
L 372.891667 156.947684 
L 377.165185 158.749146 
L 381.438704 160.529696 
L 385.712222 162.273221 
L 389.985741 163.986474 
L 394.259259 165.726464 
L 398.532778 167.469239 
L 402.806296 169.185979 
L 407.079815 170.877665 
L 411.353333 172.533579 
L 415.626852 174.174537 
L 419.90037 175.828294 
L 424.173889 177.431092 
L 428.447407 179.018518 
L 432.720926 180.619574 
L 436.994444 182.199587 
L 441.267963 183.755485 
L 445.541481 185.297461 
L 449.815 186.810453 
L 454.088519 188.289353 
L 458.362037 189.77386 
L 462.635556 191.195388 
L 466.909074 192.606249 
L 471.182593 194.028148 
L 475.456111 195.397651 
L 479.72963 196.762775 
L 484.003148 198.111515 
L 488.276667 199.427135 
L 492.550185 200.729963 
L 496.823704 202.008571 
L 501.097222 203.240171 
L 505.370741 204.440486 
L 509.644259 205.634379 
L 513.917778 206.809765 
L 518.191296 207.945728 
L 522.464815 209.084671 
L 526.738333 210.155665 
L 531.011852 211.198373 
L 535.28537 212.216279 
L 539.558889 213.20663 
L 543.832407 214.179736 
L 548.105926 215.126398 
L 552.379444 216.049383 
L 556.652963 216.936844 
L 560.926481 217.785168 
L 565.2 218.602899 
L 565.2 238.83024 
L 565.2 238.83024 
L 560.926481 238.188595 
L 556.652963 237.513368 
L 552.379444 236.808688 
L 548.105926 236.076517 
L 543.832407 235.289557 
L 539.558889 234.468222 
L 535.28537 233.62718 
L 531.011852 232.742759 
L 526.738333 231.823016 
L 522.464815 230.869581 
L 518.191296 229.881702 
L 513.917778 228.856638 
L 509.644259 227.784646 
L 505.370741 226.70044 
L 501.097222 225.557677 
L 496.823704 224.430514 
L 492.550185 223.255172 
L 488.276667 222.039328 
L 484.003148 220.797066 
L 479.72963 219.496823 
L 475.456111 218.202204 
L 471.182593 216.884593 
L 466.909074 215.513526 
L 462.635556 214.130164 
L 458.362037 212.753733 
L 454.088519 211.340366 
L 449.815 209.876401 
L 445.541481 208.386404 
L 441.267963 206.889332 
L 436.994444 205.392123 
L 432.720926 203.850155 
L 428.447407 202.278624 
L 424.173889 200.674036 
L 419.90037 199.040226 
L 415.626852 197.38701 
L 411.353333 195.744273 
L 407.079815 194.084006 
L 402.806296 192.384972 
L 398.532778 190.670599 
L 394.259259 188.940248 
L 389.985741 187.213609 
L 385.712222 185.433226 
L 381.438704 183.635766 
L 377.165185 181.828856 
L 372.891667 180.017148 
L 368.618148 178.187631 
L 364.34463 176.316528 
L 360.071111 174.473032 
L 355.797593 172.638875 
L 351.524074 170.770592 
L 347.250556 168.906651 
L 342.977037 167.029558 
L 338.703519 165.147716 
L 334.43 163.228297 
L 330.156481 161.28924 
L 325.882963 159.33333 
L 321.609444 157.406992 
L 317.335926 155.438515 
L 313.062407 153.478476 
L 308.788889 151.52997 
L 304.51537 149.412749 
L 300.241852 147.025439 
L 295.968333 144.411496 
L 291.694815 141.592794 
L 287.421296 138.567295 
L 283.147778 135.328784 
L 278.874259 131.928931 
L 274.600741 128.473631 
L 270.327222 124.901738 
L 266.053704 121.184954 
L 261.780185 117.393612 
L 257.506667 113.636237 
L 253.233148 109.839752 
L 248.95963 106.025973 
L 244.686111 102.269539 
L 240.412593 98.560364 
L 236.139074 94.885497 
L 231.865556 91.324657 
L 227.592037 87.855237 
L 223.318519 84.568393 
L 219.045 81.418388 
L 214.771481 78.466876 
L 210.497963 75.694444 
L 206.224444 73.164137 
L 201.950926 70.776295 
L 197.677407 68.391768 
L 193.403889 66.01431 
L 189.13037 63.649727 
L 184.856852 61.300587 
L 180.583333 58.969027 
L 176.309815 56.639712 
L 172.036296 54.354186 
L 167.762778 52.094624 
L 163.489259 49.854195 
L 159.215741 47.637281 
L 154.942222 45.471856 
L 150.668704 43.349263 
L 146.395185 41.251516 
L 142.121667 39.198373 
L 137.848148 37.185942 
L 133.57463 35.216641 
L 129.301111 33.30217 
L 125.027593 31.438562 
L 120.754074 29.626352 
L 116.480556 27.870507 
L 112.207037 26.170881 
L 107.933519 24.532021 
L 103.66 22.9575 
z
" style="fill:#e1cd9c;fill-opacity:0.5;"/>
   </g>
   <g id="PolyCollection_3">
    <path clip-path="url(#pa62a54e521)" d="M 103.66 22.9575 
L 103.66 22.9575 
L 107.933519 23.909122 
L 112.207037 24.934361 
L 116.480556 26.027226 
L 120.754074 27.189682 
L 125.027593 28.414997 
L 129.301111 29.708904 
L 133.57463 31.057408 
L 137.848148 32.469717 
L 142.121667 33.926568 
L 146.395185 35.433392 
L 150.668704 36.990281 
L 154.942222 38.588368 
L 159.215741 40.231193 
L 163.489259 41.915501 
L 167.762778 43.645636 
L 172.036296 45.390095 
L 176.309815 47.188202 
L 180.583333 49.002145 
L 184.856852 50.84134 
L 189.13037 52.729614 
L 193.403889 54.633948 
L 197.677407 56.549146 
L 201.950926 58.481034 
L 206.224444 60.44001 
L 210.497963 62.490989 
L 214.771481 64.770728 
L 219.045 67.243952 
L 223.318519 69.875114 
L 227.592037 72.679587 
L 231.865556 75.599722 
L 236.139074 78.642489 
L 240.412593 81.763205 
L 244.686111 84.926391 
L 248.95963 88.23346 
L 253.233148 91.528118 
L 257.506667 94.831677 
L 261.780185 98.186111 
L 266.053704 101.459086 
L 270.327222 104.745446 
L 274.600741 107.934479 
L 278.874259 111.070532 
L 283.147778 114.08629 
L 287.421296 116.964564 
L 291.694815 119.7047 
L 295.968333 122.295143 
L 300.241852 124.741998 
L 304.51537 126.964106 
L 308.788889 128.976255 
L 313.062407 130.886616 
L 317.335926 132.813736 
L 321.609444 134.708156 
L 325.882963 136.609533 
L 330.156481 138.504627 
L 334.43 140.399429 
L 338.703519 142.287942 
L 342.977037 144.159824 
L 347.250556 146.008921 
L 351.524074 147.867677 
L 355.797593 149.720846 
L 360.071111 151.561934 
L 364.34463 153.337248 
L 368.618148 155.14782 
L 372.891667 156.947684 
L 377.165185 158.749146 
L 381.438704 160.529696 
L 385.712222 162.273221 
L 389.985741 163.986474 
L 394.259259 165.726464 
L 398.532778 167.469239 
L 402.806296 169.185979 
L 407.079815 170.877665 
L 411.353333 172.533579 
L 415.626852 174.174537 
L 419.90037 175.828294 
L 424.173889 177.431092 
L 428.447407 179.018518 
L 432.720926 180.619574 
L 436.994444 182.199587 
L 441.267963 183.755485 
L 445.541481 185.297461 
L 449.815 186.810453 
L 454.088519 188.289353 
L 458.362037 189.77386 
L 462.635556 191.195388 
L 466.909074 192.606249 
L 471.182593 194.028148 
L 475.456111 195.397651 
L 479.72963 196.762775 
L 484.003148 198.111515 
L 488.276667 199.427135 
L 492.550185 200.729963 
L 496.823704 202.008571 
L 501.097222 203.240171 
L 505.370741 204.440486 
L 509.644259 205.634379 
L 513.917778 206.809765 
L 518.191296 207.945728 
L 522.464815 209.084671 
L 526.738333 210.155665 
L 531.011852 211.198373 
L 535.28537 212.216279 
L 539.558889 213.20663 
L 543.832407 214.179736 
L 548.105926 215.126398 
L 552.379444 216.049383 
L 556.652963 216.936844 
L 560.926481 217.785168 
L 565.2 218.602899 
L 565.2 194.736288 
L 565.2 194.736288 
L 560.926481 194.212555 
L 556.652963 193.653556 
L 552.379444 193.059827 
L 548.105926 192.431839 
L 543.832407 191.770151 
L 539.558889 191.07531 
L 535.28537 190.347786 
L 531.011852 189.5881 
L 526.738333 188.796795 
L 522.464815 187.974396 
L 518.191296 187.121431 
L 513.917778 186.238425 
L 509.644259 185.325891 
L 505.370741 184.384349 
L 501.097222 183.414321 
L 496.823704 182.416323 
L 492.550185 181.390889 
L 488.276667 180.33854 
L 484.003148 179.259801 
L 479.72963 178.155192 
L 475.456111 177.02523 
L 471.182593 175.870438 
L 466.909074 174.691333 
L 462.635556 173.488452 
L 458.362037 172.262302 
L 454.088519 171.013404 
L 449.815 169.74229 
L 445.541481 168.449495 
L 441.267963 167.135525 
L 436.994444 165.800893 
L 432.720926 164.446129 
L 428.447407 163.071756 
L 424.173889 161.678298 
L 419.90037 160.26627 
L 415.626852 158.836206 
L 411.353333 157.388627 
L 407.079815 155.924043 
L 402.806296 154.442974 
L 398.532778 152.945951 
L 394.259259 151.433508 
L 389.985741 149.906159 
L 385.712222 148.364424 
L 381.438704 146.808823 
L 377.165185 145.239879 
L 372.891667 143.658119 
L 368.618148 142.064052 
L 364.34463 140.458212 
L 360.071111 138.841118 
L 355.797593 137.213292 
L 351.524074 135.575256 
L 347.250556 133.927532 
L 342.977037 132.270641 
L 338.703519 130.605107 
L 334.43 128.931451 
L 330.156481 127.250181 
L 325.882963 125.561838 
L 321.609444 123.866942 
L 317.335926 122.166025 
L 313.062407 120.45959 
L 308.788889 118.74817 
L 304.51537 116.968377 
L 300.241852 115.063527 
L 295.968333 113.044118 
L 291.694815 110.92067 
L 287.421296 108.703706 
L 283.147778 106.403727 
L 278.874259 104.031254 
L 274.600741 101.596816 
L 270.327222 99.110928 
L 266.053704 96.584108 
L 261.780185 94.026845 
L 257.506667 91.449674 
L 253.233148 88.863111 
L 248.95963 86.277674 
L 244.686111 83.703882 
L 240.412593 81.15222 
L 236.139074 78.633247 
L 231.865556 76.157463 
L 227.592037 73.735381 
L 223.318519 71.377514 
L 219.045 69.094372 
L 214.771481 66.896479 
L 210.497963 64.794353 
L 206.224444 62.798511 
L 201.950926 60.868684 
L 197.677407 58.958005 
L 193.403889 57.067075 
L 189.13037 55.196468 
L 184.856852 53.346772 
L 180.583333 51.518569 
L 176.309815 49.712447 
L 172.036296 47.929001 
L 167.762778 46.168819 
L 163.489259 44.432489 
L 159.215741 42.7206 
L 154.942222 41.03374 
L 150.668704 39.372496 
L 146.395185 37.737453 
L 142.121667 36.129201 
L 137.848148 34.548327 
L 133.57463 32.995419 
L 129.301111 31.471064 
L 125.027593 29.975854 
L 120.754074 28.510372 
L 116.480556 27.075206 
L 112.207037 25.670948 
L 107.933519 24.298183 
L 103.66 22.9575 
z
" style="fill:#93ffba;fill-opacity:0.5;"/>
   </g>
   <g id="PolyCollection_4">
    <defs>
     <path d="M 103.66 -437.8425 
L 103.66 -437.8425 
L 127.107313 -437.8425 
L 127.107313 -437.8425 
L 140.024396 -437.8425 
L 140.024396 -437.8425 
L 146.061728 -437.8425 
L 146.061728 -437.8425 
L 148.44858 -437.8425 
L 148.44858 -413.921898 
L 148.869789 -413.921898 
L 148.869789 -410.885506 
L 150.975835 -410.885506 
L 150.975835 -406.53626 
L 151.958657 -406.53626 
L 151.958657 -406.53626 
L 153.503091 -406.53626 
L 153.503091 -406.53626 
L 153.643494 -406.53626 
L 153.643494 -401.760815 
L 154.626315 -401.760815 
L 154.626315 -397.064078 
L 154.766718 -397.064078 
L 154.766718 -392.453066 
L 154.907121 -392.453066 
L 154.907121 -387.921773 
L 155.047525 -387.921773 
L 155.047525 -387.921773 
L 155.889943 -387.921773 
L 155.889943 -387.921773 
L 156.030346 -387.921773 
L 156.030346 -383.3098 
L 156.732361 -383.3098 
L 156.732361 -378.698947 
L 157.013168 -378.698947 
L 157.013168 -378.698947 
L 157.715183 -378.698947 
L 157.715183 -378.698947 
L 157.855586 -378.698947 
L 157.855586 -378.698947 
L 157.995989 -378.698947 
L 157.995989 -378.698947 
L 158.698004 -378.698947 
L 158.698004 -378.698947 
L 159.540423 -378.698947 
L 159.540423 -373.662905 
L 159.680826 -373.662905 
L 159.680826 -373.662905 
L 160.80405 -373.662905 
L 160.80405 -373.662905 
L 161.22526 -373.662905 
L 161.22526 -373.662905 
L 161.646469 -373.662905 
L 161.646469 -368.451094 
L 162.208081 -368.451094 
L 162.208081 -368.451094 
L 164.735337 -368.451094 
L 164.735337 -368.451094 
L 166.139367 -368.451094 
L 166.139367 -368.451094 
L 171.053475 -368.451094 
L 171.053475 -368.451094 
L 171.615087 -368.451094 
L 171.615087 -368.451094 
L 172.036296 -368.451094 
L 172.036296 -368.451094 
L 172.317102 -368.451094 
L 172.317102 -362.712369 
L 172.457506 -362.712369 
L 172.457506 -357.113625 
L 172.738312 -357.113625 
L 172.738312 -357.113625 
L 173.159521 -357.113625 
L 173.159521 -357.113625 
L 175.40597 -357.113625 
L 175.40597 -357.113625 
L 175.546373 -357.113625 
L 175.546373 -357.113625 
L 176.248388 -357.113625 
L 176.248388 -351.14562 
L 187.76144 -351.14562 
L 187.76144 -345.310008 
L 188.884665 -345.310008 
L 188.884665 -345.310008 
L 195.764416 -345.310008 
L 195.764416 -345.310008 
L 197.589655 -345.310008 
L 197.589655 -339.322586 
L 198.572477 -339.322586 
L 198.572477 -339.322586 
L 201.801748 -339.322586 
L 201.801748 -339.322586 
L 201.942151 -339.322586 
L 201.942151 -339.322586 
L 202.784569 -339.322586 
L 202.784569 -339.322586 
L 203.346181 -339.322586 
L 203.346181 -339.322586 
L 205.311824 -339.322586 
L 205.311824 -332.690782 
L 205.873437 -332.690782 
L 205.873437 -326.207529 
L 207.558274 -326.207529 
L 207.558274 -326.207529 
L 207.83908 -326.207529 
L 207.83908 -319.504647 
L 208.119886 -319.504647 
L 208.119886 -319.504647 
L 208.962304 -319.504647 
L 208.962304 -319.504647 
L 213.595606 -319.504647 
L 213.595606 -319.504647 
L 219.632938 -319.504647 
L 219.632938 -319.504647 
L 219.913744 -319.504647 
L 219.913744 -319.504647 
L 221.317775 -319.504647 
L 221.317775 -319.504647 
L 223.704627 -319.504647 
L 223.704627 -319.504647 
L 225.67027 -319.504647 
L 225.67027 -319.504647 
L 226.231882 -319.504647 
L 226.231882 -319.504647 
L 229.039944 -319.504647 
L 229.039944 -319.504647 
L 230.443974 -319.504647 
L 230.443974 -310.530828 
L 232.409617 -310.530828 
L 232.409617 -310.530828 
L 235.077276 -310.530828 
L 235.077276 -310.530828 
L 239.85098 -310.530828 
L 239.85098 -310.530828 
L 240.833802 -310.530828 
L 240.833802 -300.823402 
L 241.114608 -300.823402 
L 241.114608 -291.470948 
L 244.624685 -291.470948 
L 244.624685 -291.470948 
L 247.292343 -291.470948 
L 247.292343 -291.470948 
L 253.750884 -291.470948 
L 253.750884 -281.606361 
L 254.172094 -281.606361 
L 254.172094 -281.606361 
L 254.593303 -281.606361 
L 254.593303 -281.606361 
L 255.295318 -281.606361 
L 255.295318 -281.606361 
L 256.699349 -281.606361 
L 256.699349 -281.606361 
L 257.120558 -281.606361 
L 257.120558 -281.606361 
L 259.226604 -281.606361 
L 259.226604 -281.606361 
L 259.788217 -281.606361 
L 259.788217 -281.606361 
L 261.75386 -281.606361 
L 261.75386 -281.606361 
L 262.596278 -281.606361 
L 262.596278 -281.606361 
L 267.931595 -281.606361 
L 267.931595 -264.872599 
L 269.897238 -264.872599 
L 269.897238 -264.872599 
L 273.547718 -264.872599 
L 273.547718 -264.872599 
L 282.252708 -264.872599 
L 282.252708 -246.815616 
L 284.077948 -246.815616 
L 284.077948 -246.815616 
L 308.086874 -246.815616 
L 308.086874 -246.815616 
L 328.02411 -246.815616 
L 328.02411 -226.814006 
L 333.921039 -226.814006 
L 333.921039 -208.659473 
L 358.21077 -208.659473 
L 358.21077 -208.659473 
L 365.932939 -208.659473 
L 365.932939 -189.795746 
L 392.46912 -189.795746 
L 392.46912 -189.795746 
L 446.524303 -189.795746 
L 446.524303 -189.795746 
L 452.702038 -189.795746 
L 452.702038 -166.374615 
L 464.636299 -166.374615 
L 464.636299 -166.374615 
L 467.163555 -166.374615 
L 467.163555 -166.374615 
L 469.269601 -166.374615 
L 469.269601 -166.374615 
L 497.069409 -166.374615 
L 497.069409 -166.374615 
L 506.055206 -166.374615 
L 506.055206 -166.374615 
L 507.59964 -166.374615 
L 507.59964 -166.374615 
L 516.164227 -166.374615 
L 516.164227 -166.374615 
L 516.164227 -294.604327 
L 516.164227 -294.604327 
L 516.164227 -294.604327 
L 507.59964 -294.604327 
L 507.59964 -294.604327 
L 506.055206 -294.604327 
L 506.055206 -294.604327 
L 497.069409 -294.604327 
L 497.069409 -294.604327 
L 469.269601 -294.604327 
L 469.269601 -294.604327 
L 467.163555 -294.604327 
L 467.163555 -294.604327 
L 464.636299 -294.604327 
L 464.636299 -294.604327 
L 452.702038 -294.604327 
L 452.702038 -309.963229 
L 446.524303 -309.963229 
L 446.524303 -309.963229 
L 392.46912 -309.963229 
L 392.46912 -309.963229 
L 365.932939 -309.963229 
L 365.932939 -322.837226 
L 358.21077 -322.837226 
L 358.21077 -322.837226 
L 333.921039 -322.837226 
L 333.921039 -334.374519 
L 328.02411 -334.374519 
L 328.02411 -345.013066 
L 308.086874 -345.013066 
L 308.086874 -345.013066 
L 284.077948 -345.013066 
L 284.077948 -345.013066 
L 282.252708 -345.013066 
L 282.252708 -354.240516 
L 273.547718 -354.240516 
L 273.547718 -354.240516 
L 269.897238 -354.240516 
L 269.897238 -354.240516 
L 267.931595 -354.240516 
L 267.931595 -362.335096 
L 262.596278 -362.335096 
L 262.596278 -362.335096 
L 261.75386 -362.335096 
L 261.75386 -362.335096 
L 259.788217 -362.335096 
L 259.788217 -362.335096 
L 259.226604 -362.335096 
L 259.226604 -362.335096 
L 257.120558 -362.335096 
L 257.120558 -362.335096 
L 256.699349 -362.335096 
L 256.699349 -362.335096 
L 255.295318 -362.335096 
L 255.295318 -362.335096 
L 254.593303 -362.335096 
L 254.593303 -362.335096 
L 254.172094 -362.335096 
L 254.172094 -362.335096 
L 253.750884 -362.335096 
L 253.750884 -368.54487 
L 247.292343 -368.54487 
L 247.292343 -368.54487 
L 244.624685 -368.54487 
L 244.624685 -368.54487 
L 241.114608 -368.54487 
L 241.114608 -374.346121 
L 240.833802 -374.346121 
L 240.833802 -379.971536 
L 239.85098 -379.971536 
L 239.85098 -379.971536 
L 235.077276 -379.971536 
L 235.077276 -379.971536 
L 232.409617 -379.971536 
L 232.409617 -379.971536 
L 230.443974 -379.971536 
L 230.443974 -385.150119 
L 229.039944 -385.150119 
L 229.039944 -385.150119 
L 226.231882 -385.150119 
L 226.231882 -385.150119 
L 225.67027 -385.150119 
L 225.67027 -385.150119 
L 223.704627 -385.150119 
L 223.704627 -385.150119 
L 221.317775 -385.150119 
L 221.317775 -385.150119 
L 219.913744 -385.150119 
L 219.913744 -385.150119 
L 219.632938 -385.150119 
L 219.632938 -385.150119 
L 213.595606 -385.150119 
L 213.595606 -385.150119 
L 208.962304 -385.150119 
L 208.962304 -385.150119 
L 208.119886 -385.150119 
L 208.119886 -385.150119 
L 207.83908 -385.150119 
L 207.83908 -389.493781 
L 207.558274 -389.493781 
L 207.558274 -389.493781 
L 205.873437 -389.493781 
L 205.873437 -393.640397 
L 205.311824 -393.640397 
L 205.311824 -397.704525 
L 203.346181 -397.704525 
L 203.346181 -397.704525 
L 202.784569 -397.704525 
L 202.784569 -397.704525 
L 201.942151 -397.704525 
L 201.942151 -397.704525 
L 201.801748 -397.704525 
L 201.801748 -397.704525 
L 198.572477 -397.704525 
L 198.572477 -397.704525 
L 197.589655 -397.704525 
L 197.589655 -401.446993 
L 195.764416 -401.446993 
L 195.764416 -401.446993 
L 188.884665 -401.446993 
L 188.884665 -401.446993 
L 187.76144 -401.446993 
L 187.76144 -405.031851 
L 176.248388 -405.031851 
L 176.248388 -408.540592 
L 175.546373 -408.540592 
L 175.546373 -408.540592 
L 175.40597 -408.540592 
L 175.40597 -408.540592 
L 173.159521 -408.540592 
L 173.159521 -408.540592 
L 172.738312 -408.540592 
L 172.738312 -408.540592 
L 172.457506 -408.540592 
L 172.457506 -411.826873 
L 172.317102 -411.826873 
L 172.317102 -415.033161 
L 172.036296 -415.033161 
L 172.036296 -415.033161 
L 171.615087 -415.033161 
L 171.615087 -415.033161 
L 171.053475 -415.033161 
L 171.053475 -415.033161 
L 166.139367 -415.033161 
L 166.139367 -415.033161 
L 164.735337 -415.033161 
L 164.735337 -415.033161 
L 162.208081 -415.033161 
L 162.208081 -415.033161 
L 161.646469 -415.033161 
L 161.646469 -417.981743 
L 161.22526 -417.981743 
L 161.22526 -417.981743 
L 160.80405 -417.981743 
L 160.80405 -417.981743 
L 159.680826 -417.981743 
L 159.680826 -417.981743 
L 159.540423 -417.981743 
L 159.540423 -420.775048 
L 158.698004 -420.775048 
L 158.698004 -420.775048 
L 157.995989 -420.775048 
L 157.995989 -420.775048 
L 157.855586 -420.775048 
L 157.855586 -420.775048 
L 157.715183 -420.775048 
L 157.715183 -420.775048 
L 157.013168 -420.775048 
L 157.013168 -420.775048 
L 156.732361 -420.775048 
L 156.732361 -423.354204 
L 156.030346 -423.354204 
L 156.030346 -425.832207 
L 155.889943 -425.832207 
L 155.889943 -425.832207 
L 155.047525 -425.832207 
L 155.047525 -425.832207 
L 154.907121 -425.832207 
L 154.907121 -428.180918 
L 154.766718 -428.180918 
L 154.766718 -430.421134 
L 154.626315 -430.421134 
L 154.626315 -432.525154 
L 153.643494 -432.525154 
L 153.643494 -434.449626 
L 153.503091 -434.449626 
L 153.503091 -434.449626 
L 151.958657 -434.449626 
L 151.958657 -434.449626 
L 150.975835 -434.449626 
L 150.975835 -436.09315 
L 148.869789 -436.09315 
L 148.869789 -437.351411 
L 148.44858 -437.351411 
L 148.44858 -437.8425 
L 146.061728 -437.8425 
L 146.061728 -437.8425 
L 140.024396 -437.8425 
L 140.024396 -437.8425 
L 127.107313 -437.8425 
L 127.107313 -437.8425 
L 103.66 -437.8425 
z
" id="md377d48049" style="stroke:#9c3190;stroke-opacity:0.5;"/>
    </defs>
    <g clip-path="url(#pa62a54e521)">
     <use style="fill:#9c3190;fill-opacity:0.5;stroke:#9c3190;stroke-opacity:0.5;" x="0" xlink:href="#md377d48049" y="460.8"/>
    </g>
   </g>
   <g id="matplotlib.axis_1">
    <g id="xtick_1">
     <g id="line2d_1">
      <defs>
       <path d="M 0 0 
L 0 3.5 
" id="m90e7da2fb0" style="stroke:#000000;stroke-width:0.8;"/>
      </defs>
      <g>
       <use style="stroke:#000000;stroke-width:0.8;" x="103.66" xlink:href="#m90e7da2fb0" y="377.06"/>
      </g>
     </g>
     <g id="text_1">
      <text style="font-family:DejaVu Sans;font-size:32px;font-style:normal;font-weight:normal;text-anchor:middle;" transform="rotate(-0, 103.66, 408.375)" x="103.66" y="408.375">0</text>
     </g>
    </g>
    <g id="xtick_2">
     <g id="line2d_2">
      <g>
       <use style="stroke:#000000;stroke-width:0.8;" x="317.335926" xlink:href="#m90e7da2fb0" y="377.06"/>
      </g>
     </g>
     <g id="text_2">
      <text style="font-family:DejaVu Sans;font-size:32px;font-style:normal;font-weight:normal;text-anchor:middle;" transform="rotate(-0, 317.335926, 408.375)" x="317.335926" y="408.375">50</text>
     </g>
    </g>
    <g id="xtick_3">
     <g id="line2d_3">
      <g>
       <use style="stroke:#000000;stroke-width:0.8;" x="531.011852" xlink:href="#m90e7da2fb0" y="377.06"/>
      </g>
     </g>
     <g id="text_3">
      <text style="font-family:DejaVu Sans;font-size:32px;font-style:normal;font-weight:normal;text-anchor:middle;" transform="rotate(-0, 531.011852, 408.375)" x="531.011852" y="408.375">100</text>
     </g>
    </g>
    <g id="text_4">
     <text style="font-family:DejaVu Sans;font-size:32px;font-style:normal;font-weight:normal;text-anchor:middle;" transform="rotate(-0, 334.43, 443.345)" x="334.43" y="443.345">Time (months)</text>
    </g>
   </g>
   <g id="matplotlib.axis_2">
    <g id="ytick_1">
     <g id="line2d_4">
      <defs>
       <path d="M 0 0 
L -3.5 0 
" id="m60c3ce20df" style="stroke:#000000;stroke-width:0.8;"/>
      </defs>
      <g>
       <use style="stroke:#000000;stroke-width:0.8;" x="103.66" xlink:href="#m60c3ce20df" y="377.06"/>
      </g>
     </g>
     <g id="text_5">
      <text style="font-family:DejaVu Sans;font-size:32px;font-style:normal;font-weight:normal;text-anchor:end;" transform="rotate(-0, 96.66, 389.2175)" x="96.66" y="389.2175">0.0</text>
     </g>
    </g>
    <g id="ytick_2">
     <g id="line2d_5">
      <g>
       <use style="stroke:#000000;stroke-width:0.8;" x="103.66" xlink:href="#m60c3ce20df" y="306.2395"/>
      </g>
     </g>
     <g id="text_6">
      <text style="font-family:DejaVu Sans;font-size:32px;font-style:normal;font-weight:normal;text-anchor:end;" transform="rotate(-0, 96.66, 318.397)" x="96.66" y="318.397">0.2</text>
     </g>
    </g>
    <g id="ytick_3">
     <g id="line2d_6">
      <g>
       <use style="stroke:#000000;stroke-width:0.8;" x="103.66" xlink:href="#m60c3ce20df" y="235.419"/>
      </g>
     </g>
     <g id="text_7">
      <text style="font-family:DejaVu Sans;font-size:32px;font-style:normal;font-weight:normal;text-anchor:end;" transform="rotate(-0, 96.66, 247.5765)" x="96.66" y="247.5765">0.4</text>
     </g>
    </g>
    <g id="ytick_4">
     <g id="line2d_7">
      <g>
       <use style="stroke:#000000;stroke-width:0.8;" x="103.66" xlink:href="#m60c3ce20df" y="164.5985"/>
      </g>
     </g>
     <g id="text_8">
      <text style="font-family:DejaVu Sans;font-size:32px;font-style:normal;font-weight:normal;text-anchor:end;" transform="rotate(-0, 96.66, 176.756)" x="96.66" y="176.756">0.6</text>
     </g>
    </g>
    <g id="ytick_5">
     <g id="line2d_8">
      <g>
       <use style="stroke:#000000;stroke-width:0.8;" x="103.66" xlink:href="#m60c3ce20df" y="93.778"/>
      </g>
     </g>
     <g id="text_9">
      <text style="font-family:DejaVu Sans;font-size:32px;font-style:normal;font-weight:normal;text-anchor:end;" transform="rotate(-0, 96.66, 105.9355)" x="96.66" y="105.9355">0.8</text>
     </g>
    </g>
    <g id="ytick_6">
     <g id="line2d_9">
      <g>
       <use style="stroke:#000000;stroke-width:0.8;" x="103.66" xlink:href="#m60c3ce20df" y="22.9575"/>
      </g>
     </g>
     <g id="text_10">
      <text style="font-family:DejaVu Sans;font-size:32px;font-style:normal;font-weight:normal;text-anchor:end;" transform="rotate(-0, 96.66, 35.115)" x="96.66" y="35.115">1.0</text>
     </g>
    </g>
    <g id="text_11">
     <text style="font-family:DejaVu Sans;font-size:32px;font-style:normal;font-weight:normal;text-anchor:middle;" transform="rotate(-90, 35.115, 200.00875)" x="35.115" y="200.00875">Probability of survival</text>
    </g>
   </g>
   <g id="line2d_10">
    <path clip-path="url(#pa62a54e521)" d="M 103.66 22.9575 
L 148.44858 22.9575 
L 148.44858 26.429093 
L 148.869789 26.429093 
L 148.869789 29.900686 
L 150.975835 29.900686 
L 150.975835 33.372279 
L 153.643494 33.372279 
L 153.643494 36.95236 
L 154.626315 36.95236 
L 154.626315 40.53244 
L 154.766718 40.53244 
L 154.766718 44.112521 
L 154.907121 44.112521 
L 154.907121 47.692601 
L 156.030346 47.692601 
L 156.030346 51.352239 
L 156.732361 51.352239 
L 156.732361 55.053463 
L 159.540423 55.053463 
L 159.540423 59.028853 
L 161.646469 59.028853 
L 161.646469 63.159127 
L 172.317102 63.159127 
L 172.317102 67.643426 
L 172.457506 67.643426 
L 172.457506 72.127724 
L 176.248388 72.127724 
L 176.248388 76.892291 
L 187.76144 76.892291 
L 187.76144 81.656857 
L 197.589655 81.656857 
L 197.589655 86.580243 
L 205.311824 86.580243 
L 205.311824 91.959498 
L 205.873437 91.959498 
L 205.873437 97.338753 
L 207.83908 97.338753 
L 207.83908 102.933178 
L 230.443974 102.933178 
L 230.443974 109.96207 
L 240.833802 109.96207 
L 240.833802 117.59344 
L 241.114608 117.59344 
L 241.114608 125.224809 
L 253.750884 125.224809 
L 253.750884 133.348525 
L 267.931595 133.348525 
L 267.931595 145.534099 
L 282.252708 145.534099 
L 282.252708 159.15327 
L 328.02411 159.15327 
L 328.02411 174.718036 
L 333.921039 174.718036 
L 333.921039 190.282802 
L 365.932939 190.282802 
L 365.932939 207.262548 
L 452.702038 207.262548 
L 452.702038 228.487229 
L 516.164227 228.487229 
L 516.164227 228.487229 
" style="fill:none;stroke:#9c3190;stroke-linecap:square;stroke-width:3;"/>
   </g>
   <g id="patch_3">
    <path d="M 103.66 377.06 
L 103.66 22.9575 
" style="fill:none;stroke:#000000;stroke-linecap:square;stroke-linejoin:miter;stroke-width:0.8;"/>
   </g>
   <g id="patch_4">
    <path d="M 565.2 377.06 
L 565.2 22.9575 
" style="fill:none;stroke:#000000;stroke-linecap:square;stroke-linejoin:miter;stroke-width:0.8;"/>
   </g>
   <g id="patch_5">
    <path d="M 103.66 377.06 
L 565.2 377.06 
" style="fill:none;stroke:#000000;stroke-linecap:square;stroke-linejoin:miter;stroke-width:0.8;"/>
   </g>
   <g id="patch_6">
    <path d="M 103.66 22.9575 
L 565.2 22.9575 
" style="fill:none;stroke:#000000;stroke-linecap:square;stroke-linejoin:miter;stroke-width:0.8;"/>
   </g>
   <g id="legend_1">
    <g id="patch_7">
     <path d="M 371.73 103.0125 
L 556.8 103.0125 
Q 559.2 103.0125 559.2 100.6125 
L 559.2 31.3575 
Q 559.2 28.9575 556.8 28.9575 
L 371.73 28.9575 
Q 369.33 28.9575 369.33 31.3575 
L 369.33 100.6125 
Q 369.33 103.0125 371.73 103.0125 
z
" style="fill:#ffffff;opacity:0.8;stroke:#cccccc;stroke-linejoin:miter;"/>
    </g>
    <g id="patch_8">
     <path d="M 374.13 42.875625 
L 398.13 42.875625 
L 398.13 34.475625 
L 374.13 34.475625 
z
" style="fill:#d60000;opacity:0.5;"/>
    </g>
    <g id="text_12">
     <text style="font-family:DejaVu Sans;font-size:12px;font-style:normal;font-weight:normal;text-anchor:start;" transform="rotate(-0, 407.73, 42.875625)" x="407.73" y="42.875625">Predicted survival (MLP)</text>
    </g>
    <g id="patch_9">
     <path d="M 374.13 60.489375 
L 398.13 60.489375 
L 398.13 52.089375 
L 374.13 52.089375 
z
" style="fill:#e1cd9c;opacity:0.5;"/>
    </g>
    <g id="text_13">
     <text style="font-family:DejaVu Sans;font-size:12px;font-style:normal;font-weight:normal;text-anchor:start;" transform="rotate(-0, 407.73, 60.489375)" x="407.73" y="60.489375">Predicted survival (CNN)</text>
    </g>
    <g id="patch_10">
     <path d="M 374.13 78.103125 
L 398.13 78.103125 
L 398.13 69.703125 
L 374.13 69.703125 
z
" style="fill:#93ffba;opacity:0.5;"/>
    </g>
    <g id="text_14">
     <text style="font-family:DejaVu Sans;font-size:12px;font-style:normal;font-weight:normal;text-anchor:start;" transform="rotate(-0, 407.73, 78.103125)" x="407.73" y="78.103125">Predicted survival (ViT)</text>
    </g>
    <g id="line2d_11">
     <path d="M 374.13 91.516875 
L 398.13 91.516875 
" style="fill:none;stroke:#9c3190;stroke-linecap:square;stroke-width:3;"/>
    </g>
    <g id="line2d_12"/>
    <g id="text_15">
     <text style="font-family:DejaVu Sans;font-size:12px;font-style:normal;font-weight:normal;text-anchor:start;" transform="rotate(-0, 407.73, 95.716875)" x="407.73" y="95.716875">Kaplan Meier Estimate</text>
    </g>
   </g>
  </g>
 </g>
 <defs>
  <clipPath id="pa62a54e521">
   <rect height="354.1025" width="461.54" x="103.66" y="22.9575"/>
  </clipPath>
 </defs>
</svg>
