<?xml version="1.0" encoding="utf-8" standalone="no"?>
<!DOCTYPE svg PUBLIC "-//W3C//DTD SVG 1.1//EN"
  "http://www.w3.org/Graphics/SVG/1.1/DTD/svg11.dtd">
<!-- Created with matplotlib (https://matplotlib.org/) -->
<svg height="460.8pt" version="1.1" viewBox="0 0 576 460.8" width="576pt" xmlns="http://www.w3.org/2000/svg" xmlns:xlink="http://www.w3.org/1999/xlink">
 <defs>
  <style type="text/css">
*{stroke-linecap:butt;stroke-linejoin:round;}
  </style>
 </defs>
 <g id="figure_1">
  <g id="patch_1">
   <path d="M 0 460.8 
L 576 460.8 
L 576 0 
L 0 0 
z
" style="fill:#ffffff;"/>
  </g>
  <g id="axes_1">
   <g id="patch_2">
    <path d="M 103.66 377.06 
L 565.2 377.06 
L 565.2 22.9575 
L 103.66 22.9575 
z
" style="fill:#ffffff;"/>
   </g>
   <g id="PolyCollection_1">
    <path clip-path="url(#p2663e43d65)" d="M 103.66 22.9575 
L 103.66 22.9575 
L 107.933519 23.509073 
L 112.207037 24.095181 
L 116.480556 24.71286 
L 120.754074 25.361684 
L 125.027593 26.038283 
L 129.301111 26.742808 
L 133.57463 27.478654 
L 137.848148 28.23312 
L 142.121667 29.012734 
L 146.395185 29.814908 
L 150.668704 30.637916 
L 154.942222 31.476338 
L 159.215741 32.329729 
L 163.489259 33.202621 
L 167.762778 34.084498 
L 172.036296 34.982637 
L 176.309815 35.891923 
L 180.583333 36.811366 
L 184.856852 37.725986 
L 189.13037 38.650365 
L 193.403889 39.582561 
L 197.677407 40.521163 
L 201.950926 41.46521 
L 206.224444 42.404882 
L 210.497963 43.39454 
L 214.771481 44.488626 
L 219.045 45.688634 
L 223.318519 46.946869 
L 227.592037 48.279926 
L 231.865556 49.691959 
L 236.139074 51.151397 
L 240.412593 52.655203 
L 244.686111 54.186658 
L 248.95963 55.759036 
L 253.233148 57.351009 
L 257.506667 58.95273 
L 261.780185 60.554843 
L 266.053704 62.186556 
L 270.327222 63.788303 
L 274.600741 65.388643 
L 278.874259 66.977681 
L 283.147778 68.50145 
L 287.421296 70.003584 
L 291.694815 71.468794 
L 295.968333 72.891114 
L 300.241852 74.269597 
L 304.51537 75.556123 
L 308.788889 76.779062 
L 313.062407 77.972183 
L 317.335926 79.16321 
L 321.609444 80.360469 
L 325.882963 81.562162 
L 330.156481 82.787055 
L 334.43 84.006786 
L 338.703519 85.226086 
L 342.977037 86.433858 
L 347.250556 87.657063 
L 351.524074 88.878997 
L 355.797593 90.112885 
L 360.071111 91.341925 
L 364.34463 92.572513 
L 368.618148 93.823276 
L 372.891667 95.062326 
L 377.165185 96.299824 
L 381.438704 97.529605 
L 385.712222 98.787125 
L 389.985741 100.035031 
L 394.259259 101.294591 
L 398.532778 102.542078 
L 402.806296 103.809326 
L 407.079815 105.064959 
L 411.353333 106.336216 
L 415.626852 107.607267 
L 419.90037 108.868837 
L 424.173889 110.139467 
L 428.447407 111.403704 
L 432.720926 112.683362 
L 436.994444 113.943905 
L 441.267963 115.214634 
L 445.541481 116.471436 
L 449.815 117.726408 
L 454.088519 118.997922 
L 458.362037 120.261892 
L 462.635556 121.490607 
L 466.909074 122.735519 
L 471.182593 123.995944 
L 475.456111 125.24466 
L 479.72963 126.492291 
L 484.003148 127.744542 
L 488.276667 128.994519 
L 492.550185 130.231695 
L 496.823704 131.437841 
L 501.097222 132.696467 
L 505.370741 133.956908 
L 509.644259 135.207874 
L 513.917778 136.435862 
L 518.191296 137.641106 
L 522.464815 138.889691 
L 526.738333 140.137726 
L 531.011852 141.329222 
L 535.28537 142.51927 
L 539.558889 143.700839 
L 543.832407 144.907035 
L 548.105926 146.074966 
L 552.379444 147.24118 
L 556.652963 148.413974 
L 560.926481 149.570489 
L 565.2 150.707394 
L 565.2 168.139351 
L 565.2 168.139351 
L 560.926481 166.861413 
L 556.652963 165.589058 
L 552.379444 164.296777 
L 548.105926 162.967001 
L 543.832407 161.679009 
L 539.558889 160.383317 
L 535.28537 159.101224 
L 531.011852 157.794784 
L 526.738333 156.492036 
L 522.464815 155.182233 
L 518.191296 153.844421 
L 513.917778 152.548199 
L 509.644259 151.210146 
L 505.370741 149.8491 
L 501.097222 148.495451 
L 496.823704 147.178347 
L 492.550185 145.822589 
L 488.276667 144.475411 
L 484.003148 143.148924 
L 479.72963 141.823434 
L 475.456111 140.471906 
L 471.182593 139.10659 
L 466.909074 137.725214 
L 462.635556 136.382436 
L 458.362037 135.028016 
L 454.088519 133.682098 
L 449.815 132.325625 
L 445.541481 130.96494 
L 441.267963 129.587459 
L 436.994444 128.227522 
L 432.720926 126.850009 
L 428.447407 125.469698 
L 424.173889 124.074971 
L 419.90037 122.703452 
L 415.626852 121.336835 
L 411.353333 119.929742 
L 407.079815 118.556959 
L 402.806296 117.179969 
L 398.532778 115.816525 
L 394.259259 114.438463 
L 389.985741 113.096509 
L 385.712222 111.714481 
L 381.438704 110.379175 
L 377.165185 109.014326 
L 372.891667 107.64005 
L 368.618148 106.253882 
L 364.34463 104.887305 
L 360.071111 103.520164 
L 355.797593 102.154124 
L 351.524074 100.809477 
L 347.250556 99.47373 
L 342.977037 98.10757 
L 338.703519 96.767656 
L 334.43 95.416873 
L 330.156481 94.06143 
L 325.882963 92.706758 
L 321.609444 91.359877 
L 317.335926 90.035809 
L 313.062407 88.715179 
L 308.788889 87.39949 
L 304.51537 86.027149 
L 300.241852 84.554665 
L 295.968333 82.984745 
L 291.694815 81.327643 
L 287.421296 79.572914 
L 283.147778 77.770864 
L 278.874259 75.909728 
L 274.600741 74.051246 
L 270.327222 72.162826 
L 266.053704 70.232781 
L 261.780185 68.302651 
L 257.506667 66.37595 
L 253.233148 64.439353 
L 248.95963 62.538919 
L 244.686111 60.675845 
L 240.412593 58.873547 
L 236.139074 57.12698 
L 231.865556 55.414267 
L 227.592037 53.785635 
L 223.318519 52.236692 
L 219.045 50.785453 
L 214.771481 49.434037 
L 210.497963 48.173004 
L 206.224444 47.008095 
L 201.950926 45.904499 
L 197.677407 44.791012 
L 193.403889 43.684361 
L 189.13037 42.5745 
L 184.856852 41.475503 
L 180.583333 40.385615 
L 176.309815 39.293252 
L 172.036296 38.206404 
L 167.762778 37.138178 
L 163.489259 36.074843 
L 159.215741 35.013925 
L 154.942222 33.97316 
L 150.668704 32.948555 
L 146.395185 31.934203 
L 142.121667 30.940443 
L 137.848148 29.962499 
L 133.57463 29.00678 
L 129.301111 28.067273 
L 125.027593 27.152294 
L 120.754074 26.260751 
L 116.480556 25.395951 
L 112.207037 24.555042 
L 107.933519 23.741802 
L 103.66 22.9575 
z
" style="fill:#d60000;fill-opacity:0.5;"/>
   </g>
   <g id="PolyCollection_2">
    <path clip-path="url(#p2663e43d65)" d="M 103.66 22.9575 
L 103.66 22.9575 
L 107.933519 23.109771 
L 112.207037 23.305878 
L 116.480556 23.542372 
L 120.754074 23.819434 
L 125.027593 24.134167 
L 129.301111 24.486609 
L 133.57463 24.871973 
L 137.848148 25.287074 
L 142.121667 25.737855 
L 146.395185 26.216902 
L 150.668704 26.723507 
L 154.942222 27.258093 
L 159.215741 27.812118 
L 163.489259 28.390311 
L 167.762778 28.995652 
L 172.036296 29.613506 
L 176.309815 30.252155 
L 180.583333 30.895593 
L 184.856852 31.564793 
L 189.13037 32.244442 
L 193.403889 32.935325 
L 197.677407 33.632922 
L 201.950926 34.338047 
L 206.224444 35.046016 
L 210.497963 35.819417 
L 214.771481 36.70007 
L 219.045 37.667894 
L 223.318519 38.728707 
L 227.592037 39.873999 
L 231.865556 41.098541 
L 236.139074 42.380543 
L 240.412593 43.725176 
L 244.686111 45.120149 
L 248.95963 46.561375 
L 253.233148 48.05235 
L 257.506667 49.562461 
L 261.780185 51.067899 
L 266.053704 52.614239 
L 270.327222 54.162261 
L 274.600741 55.701239 
L 278.874259 57.231168 
L 283.147778 58.748515 
L 287.421296 60.239468 
L 291.694815 61.699847 
L 295.968333 63.120375 
L 300.241852 64.498019 
L 304.51537 65.812608 
L 308.788889 67.055778 
L 313.062407 68.267104 
L 317.335926 69.484126 
L 321.609444 70.719343 
L 325.882963 71.970821 
L 330.156481 73.221955 
L 334.43 74.471168 
L 338.703519 75.726515 
L 342.977037 77.025193 
L 347.250556 78.298357 
L 351.524074 79.591546 
L 355.797593 80.882206 
L 360.071111 82.174389 
L 364.34463 83.47294 
L 368.618148 84.778989 
L 372.891667 86.087917 
L 377.165185 87.405365 
L 381.438704 88.734023 
L 385.712222 90.073039 
L 389.985741 91.404581 
L 394.259259 92.745744 
L 398.532778 94.072625 
L 402.806296 95.411083 
L 407.079815 96.768318 
L 411.353333 98.107836 
L 415.626852 99.471472 
L 419.90037 100.836661 
L 424.173889 102.203136 
L 428.447407 103.561604 
L 432.720926 104.922258 
L 436.994444 106.308372 
L 441.267963 107.682091 
L 445.541481 109.058911 
L 449.815 110.449088 
L 454.088519 111.820003 
L 458.362037 113.202292 
L 462.635556 114.605096 
L 466.909074 115.998983 
L 471.182593 117.396557 
L 475.456111 118.80365 
L 479.72963 120.203887 
L 484.003148 121.610112 
L 488.276667 123.020191 
L 492.550185 124.443875 
L 496.823704 125.851746 
L 501.097222 127.264761 
L 505.370741 128.67317 
L 509.644259 130.074557 
L 513.917778 131.488559 
L 518.191296 132.900209 
L 522.464815 134.318075 
L 526.738333 135.740214 
L 531.011852 137.148673 
L 535.28537 138.562048 
L 539.558889 139.978923 
L 543.832407 141.385399 
L 548.105926 142.796402 
L 552.379444 144.206708 
L 556.652963 145.617419 
L 560.926481 147.00741 
L 565.2 148.407189 
L 565.2 165.668943 
L 565.2 165.668943 
L 560.926481 164.344741 
L 556.652963 163.017205 
L 552.379444 161.669395 
L 548.105926 160.334374 
L 543.832407 158.97312 
L 539.558889 157.610627 
L 535.28537 156.237749 
L 531.011852 154.869908 
L 526.738333 153.470844 
L 522.464815 152.089664 
L 518.191296 150.707111 
L 513.917778 149.328217 
L 509.644259 147.90882 
L 505.370741 146.524315 
L 501.097222 145.130246 
L 496.823704 143.706 
L 492.550185 142.275898 
L 488.276667 140.839916 
L 484.003148 139.396588 
L 479.72963 137.95957 
L 475.456111 136.538023 
L 471.182593 135.126309 
L 466.909074 133.710848 
L 462.635556 132.291468 
L 458.362037 130.860314 
L 454.088519 129.38425 
L 449.815 127.927037 
L 445.541481 126.454645 
L 441.267963 124.995802 
L 436.994444 123.527738 
L 432.720926 122.08166 
L 428.447407 120.626104 
L 424.173889 119.163966 
L 419.90037 117.693807 
L 415.626852 116.236622 
L 411.353333 114.773431 
L 407.079815 113.320319 
L 402.806296 111.853771 
L 398.532778 110.393165 
L 394.259259 108.940634 
L 389.985741 107.476956 
L 385.712222 106.03216 
L 381.438704 104.56423 
L 377.165185 103.097829 
L 372.891667 101.635397 
L 368.618148 100.213417 
L 364.34463 98.775486 
L 360.071111 97.329617 
L 355.797593 95.906366 
L 351.524074 94.473472 
L 347.250556 93.037113 
L 342.977037 91.597575 
L 338.703519 90.190685 
L 334.43 88.762362 
L 330.156481 87.347757 
L 325.882963 85.9397 
L 321.609444 84.532312 
L 317.335926 83.103219 
L 313.062407 81.697231 
L 308.788889 80.279438 
L 304.51537 78.836149 
L 300.241852 77.277612 
L 295.968333 75.629062 
L 291.694815 73.916502 
L 287.421296 72.129317 
L 283.147778 70.286345 
L 278.874259 68.399197 
L 274.600741 66.494709 
L 270.327222 64.552026 
L 266.053704 62.587012 
L 261.780185 60.658178 
L 257.506667 58.719417 
L 253.233148 56.802007 
L 248.95963 54.92723 
L 244.686111 53.073855 
L 240.412593 51.297946 
L 236.139074 49.586782 
L 231.865556 47.921488 
L 227.592037 46.327808 
L 223.318519 44.834678 
L 219.045 43.459871 
L 214.771481 42.18213 
L 210.497963 41.024465 
L 206.224444 39.991741 
L 201.950926 39.037703 
L 197.677407 38.093011 
L 193.403889 37.16082 
L 189.13037 36.240463 
L 184.856852 35.332023 
L 180.583333 34.44192 
L 176.309815 33.563949 
L 172.036296 32.707129 
L 167.762778 31.86741 
L 163.489259 31.04983 
L 159.215741 30.262936 
L 154.942222 29.492077 
L 150.668704 28.753898 
L 146.395185 28.044375 
L 142.121667 27.365405 
L 137.848148 26.720747 
L 133.57463 26.111164 
L 129.301111 25.536649 
L 125.027593 25.003773 
L 120.754074 24.509041 
L 116.480556 24.055204 
L 112.207037 23.644307 
L 107.933519 23.278038 
L 103.66 22.9575 
z
" style="fill:#e1cd9c;fill-opacity:0.5;"/>
   </g>
   <g id="PolyCollection_3">
    <path clip-path="url(#p2663e43d65)" d="M 103.66 22.9575 
L 103.66 22.9575 
L 107.933519 23.109771 
L 112.207037 23.305878 
L 116.480556 23.542372 
L 120.754074 23.819434 
L 125.027593 24.134167 
L 129.301111 24.486609 
L 133.57463 24.871973 
L 137.848148 25.287074 
L 142.121667 25.737855 
L 146.395185 26.216902 
L 150.668704 26.723507 
L 154.942222 27.258093 
L 159.215741 27.812118 
L 163.489259 28.390311 
L 167.762778 28.995652 
L 172.036296 29.613506 
L 176.309815 30.252155 
L 180.583333 30.895593 
L 184.856852 31.564793 
L 189.13037 32.244442 
L 193.403889 32.935325 
L 197.677407 33.632922 
L 201.950926 34.338047 
L 206.224444 35.046016 
L 210.497963 35.819417 
L 214.771481 36.70007 
L 219.045 37.667894 
L 223.318519 38.728707 
L 227.592037 39.873999 
L 231.865556 41.098541 
L 236.139074 42.380543 
L 240.412593 43.725176 
L 244.686111 45.120149 
L 248.95963 46.561375 
L 253.233148 48.05235 
L 257.506667 49.562461 
L 261.780185 51.067899 
L 266.053704 52.614239 
L 270.327222 54.162261 
L 274.600741 55.701239 
L 278.874259 57.231168 
L 283.147778 58.748515 
L 287.421296 60.239468 
L 291.694815 61.699847 
L 295.968333 63.120375 
L 300.241852 64.498019 
L 304.51537 65.812608 
L 308.788889 67.055778 
L 313.062407 68.267104 
L 317.335926 69.484126 
L 321.609444 70.719343 
L 325.882963 71.970821 
L 330.156481 73.221955 
L 334.43 74.471168 
L 338.703519 75.726515 
L 342.977037 77.025193 
L 347.250556 78.298357 
L 351.524074 79.591546 
L 355.797593 80.882206 
L 360.071111 82.174389 
L 364.34463 83.47294 
L 368.618148 84.778989 
L 372.891667 86.087917 
L 377.165185 87.405365 
L 381.438704 88.734023 
L 385.712222 90.073039 
L 389.985741 91.404581 
L 394.259259 92.745744 
L 398.532778 94.072625 
L 402.806296 95.411083 
L 407.079815 96.768318 
L 411.353333 98.107836 
L 415.626852 99.471472 
L 419.90037 100.836661 
L 424.173889 102.203136 
L 428.447407 103.561604 
L 432.720926 104.922258 
L 436.994444 106.308372 
L 441.267963 107.682091 
L 445.541481 109.058911 
L 449.815 110.449088 
L 454.088519 111.820003 
L 458.362037 113.202292 
L 462.635556 114.605096 
L 466.909074 115.998983 
L 471.182593 117.396557 
L 475.456111 118.80365 
L 479.72963 120.203887 
L 484.003148 121.610112 
L 488.276667 123.020191 
L 492.550185 124.443875 
L 496.823704 125.851746 
L 501.097222 127.264761 
L 505.370741 128.67317 
L 509.644259 130.074557 
L 513.917778 131.488559 
L 518.191296 132.900209 
L 522.464815 134.318075 
L 526.738333 135.740214 
L 531.011852 137.148673 
L 535.28537 138.562048 
L 539.558889 139.978923 
L 543.832407 141.385399 
L 548.105926 142.796402 
L 552.379444 144.206708 
L 556.652963 145.617419 
L 560.926481 147.00741 
L 565.2 148.407189 
L 565.2 197.477706 
L 565.2 197.477706 
L 560.926481 196.942194 
L 556.652963 196.368572 
L 552.379444 195.763832 
L 548.105926 195.123323 
L 543.832407 194.451494 
L 539.558889 193.742537 
L 535.28537 192.998901 
L 531.011852 192.223962 
L 526.738333 191.417814 
L 522.464815 190.579719 
L 518.191296 189.707343 
L 513.917778 188.810275 
L 509.644259 187.878123 
L 505.370741 186.918523 
L 501.097222 185.930659 
L 496.823704 184.914545 
L 492.550185 183.871923 
L 488.276667 182.798478 
L 484.003148 181.695039 
L 479.72963 180.567231 
L 475.456111 179.41329 
L 471.182593 178.232486 
L 466.909074 177.031856 
L 462.635556 175.803948 
L 458.362037 174.549087 
L 454.088519 173.274884 
L 449.815 171.976264 
L 445.541481 170.659466 
L 441.267963 169.315373 
L 436.994444 167.958232 
L 432.720926 166.576065 
L 428.447407 165.172027 
L 424.173889 163.751657 
L 419.90037 162.310793 
L 415.626852 160.854263 
L 411.353333 159.376826 
L 407.079815 157.881234 
L 402.806296 156.371401 
L 398.532778 154.843851 
L 394.259259 153.300423 
L 389.985741 151.743229 
L 385.712222 150.170955 
L 381.438704 148.586324 
L 377.165185 146.989962 
L 372.891667 145.376648 
L 368.618148 143.753154 
L 364.34463 142.115568 
L 360.071111 140.471439 
L 355.797593 138.816481 
L 351.524074 137.149318 
L 347.250556 135.46812 
L 342.977037 133.778126 
L 338.703519 132.082984 
L 334.43 130.381339 
L 330.156481 128.666817 
L 325.882963 126.947055 
L 321.609444 125.218083 
L 317.335926 123.487479 
L 313.062407 121.747716 
L 308.788889 120.005995 
L 304.51537 118.193656 
L 300.241852 116.251953 
L 295.968333 114.191321 
L 291.694815 112.019774 
L 287.421296 109.751329 
L 283.147778 107.40459 
L 278.874259 104.975765 
L 274.600741 102.498365 
L 270.327222 99.961575 
L 266.053704 97.391239 
L 261.780185 94.78778 
L 257.506667 92.174599 
L 253.233148 89.555873 
L 248.95963 86.938329 
L 244.686111 84.337171 
L 240.412593 81.765596 
L 236.139074 79.226026 
L 231.865556 76.739326 
L 227.592037 74.308573 
L 223.318519 71.951657 
L 219.045 69.666133 
L 214.771481 67.469275 
L 210.497963 65.367937 
L 206.224444 63.371238 
L 201.950926 61.44463 
L 197.677407 59.531738 
L 193.403889 57.63669 
L 189.13037 55.757466 
L 184.856852 53.898648 
L 180.583333 52.058561 
L 176.309815 50.238424 
L 172.036296 48.442292 
L 167.762778 46.66227 
L 163.489259 44.905089 
L 159.215741 43.170167 
L 154.942222 41.459117 
L 150.668704 39.769769 
L 146.395185 38.105703 
L 142.121667 36.468504 
L 137.848148 34.856248 
L 133.57463 33.27015 
L 129.301111 31.710846 
L 125.027593 30.180007 
L 120.754074 28.676281 
L 116.480556 27.201228 
L 112.207037 25.756354 
L 107.933519 24.34157 
L 103.66 22.9575 
z
" style="fill:#93ffba;fill-opacity:0.5;"/>
   </g>
   <g id="PolyCollection_4">
    <defs>
     <path d="M 103.66 -437.8425 
L 103.66 -437.8425 
L 129.301111 -437.8425 
L 129.301111 -418.624017 
L 154.942222 -418.624017 
L 154.942222 -416.107635 
L 206.224444 -416.107635 
L 206.224444 -406.579644 
L 257.506667 -406.579644 
L 257.506667 -386.663015 
L 308.788889 -386.663015 
L 308.788889 -375.922056 
L 360.071111 -375.922056 
L 360.071111 -370.486672 
L 411.353333 -370.486672 
L 411.353333 -356.706473 
L 462.635556 -356.706473 
L 462.635556 -324.829827 
L 513.917778 -324.829827 
L 513.917778 -309.010056 
L 565.2 -309.010056 
L 565.2 -223.38506 
L 565.2 -372.300108 
L 565.2 -372.300108 
L 565.2 -380.652031 
L 513.917778 -380.652031 
L 513.917778 -386.837015 
L 462.635556 -386.837015 
L 462.635556 -403.538125 
L 411.353333 -403.538125 
L 411.353333 -410.143636 
L 360.071111 -410.143636 
L 360.071111 -412.889596 
L 308.788889 -412.889596 
L 308.788889 -419.215642 
L 257.506667 -419.215642 
L 257.506667 -429.815768 
L 206.224444 -429.815768 
L 206.224444 -433.978512 
L 154.942222 -433.978512 
L 154.942222 -435.070091 
L 129.301111 -435.070091 
L 129.301111 -437.8425 
L 103.66 -437.8425 
z
" id="m284a10e7e5" style="stroke:#9c3190;stroke-opacity:0.5;"/>
    </defs>
    <g clip-path="url(#p2663e43d65)">
     <use style="fill:#9c3190;fill-opacity:0.5;stroke:#9c3190;stroke-opacity:0.5;" x="0" xlink:href="#m284a10e7e5" y="460.8"/>
    </g>
   </g>
   <g id="matplotlib.axis_1">
    <g id="xtick_1">
     <g id="line2d_1">
      <defs>
       <path d="M 0 0 
L 0 3.5 
" id="m0a3ae64797" style="stroke:#000000;stroke-width:0.8;"/>
      </defs>
      <g>
       <use style="stroke:#000000;stroke-width:0.8;" x="103.66" xlink:href="#m0a3ae64797" y="377.06"/>
      </g>
     </g>
     <g id="text_1">
      <text style="font-family:DejaVu Sans;font-size:32px;font-style:normal;font-weight:normal;text-anchor:middle;" transform="rotate(-0, 103.66, 408.375)" x="103.66" y="408.375">0</text>
     </g>
    </g>
    <g id="xtick_2">
     <g id="line2d_2">
      <g>
       <use style="stroke:#000000;stroke-width:0.8;" x="317.335926" xlink:href="#m0a3ae64797" y="377.06"/>
      </g>
     </g>
     <g id="text_2">
      <text style="font-family:DejaVu Sans;font-size:32px;font-style:normal;font-weight:normal;text-anchor:middle;" transform="rotate(-0, 317.335926, 408.375)" x="317.335926" y="408.375">50</text>
     </g>
    </g>
    <g id="xtick_3">
     <g id="line2d_3">
      <g>
       <use style="stroke:#000000;stroke-width:0.8;" x="531.011852" xlink:href="#m0a3ae64797" y="377.06"/>
      </g>
     </g>
     <g id="text_3">
      <text style="font-family:DejaVu Sans;font-size:32px;font-style:normal;font-weight:normal;text-anchor:middle;" transform="rotate(-0, 531.011852, 408.375)" x="531.011852" y="408.375">100</text>
     </g>
    </g>
    <g id="text_4">
     <text style="font-family:DejaVu Sans;font-size:32px;font-style:normal;font-weight:normal;text-anchor:middle;" transform="rotate(-0, 334.43, 443.345)" x="334.43" y="443.345">Time (months)</text>
    </g>
   </g>
   <g id="matplotlib.axis_2">
    <g id="ytick_1">
     <g id="line2d_4">
      <defs>
       <path d="M 0 0 
L -3.5 0 
" id="md544e2e6d7" style="stroke:#000000;stroke-width:0.8;"/>
      </defs>
      <g>
       <use style="stroke:#000000;stroke-width:0.8;" x="103.66" xlink:href="#md544e2e6d7" y="377.06"/>
      </g>
     </g>
     <g id="text_5">
      <text style="font-family:DejaVu Sans;font-size:32px;font-style:normal;font-weight:normal;text-anchor:end;" transform="rotate(-0, 96.66, 389.2175)" x="96.66" y="389.2175">0.0</text>
     </g>
    </g>
    <g id="ytick_2">
     <g id="line2d_5">
      <g>
       <use style="stroke:#000000;stroke-width:0.8;" x="103.66" xlink:href="#md544e2e6d7" y="306.2395"/>
      </g>
     </g>
     <g id="text_6">
      <text style="font-family:DejaVu Sans;font-size:32px;font-style:normal;font-weight:normal;text-anchor:end;" transform="rotate(-0, 96.66, 318.397)" x="96.66" y="318.397">0.2</text>
     </g>
    </g>
    <g id="ytick_3">
     <g id="line2d_6">
      <g>
       <use style="stroke:#000000;stroke-width:0.8;" x="103.66" xlink:href="#md544e2e6d7" y="235.419"/>
      </g>
     </g>
     <g id="text_7">
      <text style="font-family:DejaVu Sans;font-size:32px;font-style:normal;font-weight:normal;text-anchor:end;" transform="rotate(-0, 96.66, 247.5765)" x="96.66" y="247.5765">0.4</text>
     </g>
    </g>
    <g id="ytick_4">
     <g id="line2d_7">
      <g>
       <use style="stroke:#000000;stroke-width:0.8;" x="103.66" xlink:href="#md544e2e6d7" y="164.5985"/>
      </g>
     </g>
     <g id="text_8">
      <text style="font-family:DejaVu Sans;font-size:32px;font-style:normal;font-weight:normal;text-anchor:end;" transform="rotate(-0, 96.66, 176.756)" x="96.66" y="176.756">0.6</text>
     </g>
    </g>
    <g id="ytick_5">
     <g id="line2d_8">
      <g>
       <use style="stroke:#000000;stroke-width:0.8;" x="103.66" xlink:href="#md544e2e6d7" y="93.778"/>
      </g>
     </g>
     <g id="text_9">
      <text style="font-family:DejaVu Sans;font-size:32px;font-style:normal;font-weight:normal;text-anchor:end;" transform="rotate(-0, 96.66, 105.9355)" x="96.66" y="105.9355">0.8</text>
     </g>
    </g>
    <g id="ytick_6">
     <g id="line2d_9">
      <g>
       <use style="stroke:#000000;stroke-width:0.8;" x="103.66" xlink:href="#md544e2e6d7" y="22.9575"/>
      </g>
     </g>
     <g id="text_10">
      <text style="font-family:DejaVu Sans;font-size:32px;font-style:normal;font-weight:normal;text-anchor:end;" transform="rotate(-0, 96.66, 35.115)" x="96.66" y="35.115">1.0</text>
     </g>
    </g>
    <g id="text_11">
     <text style="font-family:DejaVu Sans;font-size:32px;font-style:normal;font-weight:normal;text-anchor:middle;" transform="rotate(-90, 35.115, 200.00875)" x="35.115" y="200.00875">Probability of survival</text>
    </g>
   </g>
   <g id="line2d_10">
    <path clip-path="url(#p2663e43d65)" d="M 103.66 22.9575 
L 129.301111 22.9575 
L 129.301111 30.296412 
L 154.942222 30.296412 
L 154.942222 32.17081 
L 206.224444 32.17081 
L 206.224444 38.88943 
L 257.506667 38.88943 
L 257.506667 54.031396 
L 308.788889 54.031396 
L 308.788889 62.532149 
L 360.071111 62.532149 
L 360.071111 66.463747 
L 411.353333 66.463747 
L 411.353333 76.16988 
L 462.635556 76.16988 
L 462.635556 99.769105 
L 513.917778 99.769105 
L 513.917778 110.039138 
L 565.2 110.039138 
L 565.2 148.184976 
" style="fill:none;stroke:#9c3190;stroke-linecap:square;stroke-width:3;"/>
   </g>
   <g id="patch_3">
    <path d="M 103.66 377.06 
L 103.66 22.9575 
" style="fill:none;stroke:#000000;stroke-linecap:square;stroke-linejoin:miter;stroke-width:0.8;"/>
   </g>
   <g id="patch_4">
    <path d="M 565.2 377.06 
L 565.2 22.9575 
" style="fill:none;stroke:#000000;stroke-linecap:square;stroke-linejoin:miter;stroke-width:0.8;"/>
   </g>
   <g id="patch_5">
    <path d="M 103.66 377.06 
L 565.2 377.06 
" style="fill:none;stroke:#000000;stroke-linecap:square;stroke-linejoin:miter;stroke-width:0.8;"/>
   </g>
   <g id="patch_6">
    <path d="M 103.66 22.9575 
L 565.2 22.9575 
" style="fill:none;stroke:#000000;stroke-linecap:square;stroke-linejoin:miter;stroke-width:0.8;"/>
   </g>
   <g id="legend_1">
    <g id="patch_7">
     <path d="M 112.06 371.06 
L 297.13 371.06 
Q 299.53 371.06 299.53 368.66 
L 299.53 299.405 
Q 299.53 297.005 297.13 297.005 
L 112.06 297.005 
Q 109.66 297.005 109.66 299.405 
L 109.66 368.66 
Q 109.66 371.06 112.06 371.06 
z
" style="fill:#ffffff;opacity:0.8;stroke:#cccccc;stroke-linejoin:miter;"/>
    </g>
    <g id="patch_8">
     <path d="M 114.46 310.923125 
L 138.46 310.923125 
L 138.46 302.523125 
L 114.46 302.523125 
z
" style="fill:#d60000;opacity:0.5;"/>
    </g>
    <g id="text_12">
     <text style="font-family:DejaVu Sans;font-size:12px;font-style:normal;font-weight:normal;text-anchor:start;" transform="rotate(-0, 148.06, 310.923125)" x="148.06" y="310.923125">Predicted survival (MLP)</text>
    </g>
    <g id="patch_9">
     <path d="M 114.46 328.536875 
L 138.46 328.536875 
L 138.46 320.136875 
L 114.46 320.136875 
z
" style="fill:#e1cd9c;opacity:0.5;"/>
    </g>
    <g id="text_13">
     <text style="font-family:DejaVu Sans;font-size:12px;font-style:normal;font-weight:normal;text-anchor:start;" transform="rotate(-0, 148.06, 328.536875)" x="148.06" y="328.536875">Predicted survival (CNN)</text>
    </g>
    <g id="patch_10">
     <path d="M 114.46 346.150625 
L 138.46 346.150625 
L 138.46 337.750625 
L 114.46 337.750625 
z
" style="fill:#93ffba;opacity:0.5;"/>
    </g>
    <g id="text_14">
     <text style="font-family:DejaVu Sans;font-size:12px;font-style:normal;font-weight:normal;text-anchor:start;" transform="rotate(-0, 148.06, 346.150625)" x="148.06" y="346.150625">Predicted survival (ViT)</text>
    </g>
    <g id="line2d_11">
     <path d="M 114.46 359.564375 
L 138.46 359.564375 
" style="fill:none;stroke:#9c3190;stroke-linecap:square;stroke-width:3;"/>
    </g>
    <g id="line2d_12"/>
    <g id="text_15">
     <text style="font-family:DejaVu Sans;font-size:12px;font-style:normal;font-weight:normal;text-anchor:start;" transform="rotate(-0, 148.06, 363.764375)" x="148.06" y="363.764375">Kaplan Meier Estimate</text>
    </g>
   </g>
  </g>
 </g>
 <defs>
  <clipPath id="p2663e43d65">
   <rect height="354.1025" width="461.54" x="103.66" y="22.9575"/>
  </clipPath>
 </defs>
</svg>
