<?xml version="1.0" encoding="utf-8" standalone="no"?>
<!DOCTYPE svg PUBLIC "-//W3C//DTD SVG 1.1//EN"
  "http://www.w3.org/Graphics/SVG/1.1/DTD/svg11.dtd">
<!-- Created with matplotlib (https://matplotlib.org/) -->
<svg height="460.8pt" version="1.1" viewBox="0 0 576 460.8" width="576pt" xmlns="http://www.w3.org/2000/svg" xmlns:xlink="http://www.w3.org/1999/xlink">
 <defs>
  <style type="text/css">
*{stroke-linecap:butt;stroke-linejoin:round;}
  </style>
 </defs>
 <g id="figure_1">
  <g id="patch_1">
   <path d="M 0 460.8 
L 576 460.8 
L 576 0 
L 0 0 
z
" style="fill:#ffffff;"/>
  </g>
  <g id="axes_1">
   <g id="patch_2">
    <path d="M 103.66 377.06 
L 565.2 377.06 
L 565.2 22.9575 
L 103.66 22.9575 
z
" style="fill:#ffffff;"/>
   </g>
   <g id="PolyCollection_1">
    <path clip-path="url(#pf0c474f79d)" d="M 103.66 22.9575 
L 103.66 22.9575 
L 107.933519 24.405303 
L 112.207037 25.883672 
L 116.480556 27.392246 
L 120.754074 28.931219 
L 125.027593 30.499938 
L 129.301111 32.093718 
L 133.57463 33.709892 
L 137.848148 35.350876 
L 142.121667 37.019148 
L 146.395185 38.706519 
L 150.668704 40.414656 
L 154.942222 42.145483 
L 159.215741 43.879488 
L 163.489259 45.654427 
L 167.762778 47.432834 
L 172.036296 49.214761 
L 176.309815 51.007466 
L 180.583333 52.822567 
L 184.856852 54.644184 
L 189.13037 56.475023 
L 193.403889 58.309258 
L 197.677407 60.14791 
L 201.950926 61.972684 
L 206.224444 63.817642 
L 210.497963 65.720566 
L 214.771481 67.711107 
L 219.045 69.798374 
L 223.318519 71.979007 
L 227.592037 74.224411 
L 231.865556 76.515137 
L 236.139074 78.875038 
L 240.412593 81.262759 
L 244.686111 83.67732 
L 248.95963 86.095165 
L 253.233148 88.509853 
L 257.506667 90.928438 
L 261.780185 93.352843 
L 266.053704 95.752701 
L 270.327222 98.099073 
L 274.600741 100.38777 
L 278.874259 102.635658 
L 283.147778 104.829777 
L 287.421296 106.954907 
L 291.694815 109.021712 
L 295.968333 110.997563 
L 300.241852 112.860233 
L 304.51537 114.636 
L 308.788889 116.282346 
L 313.062407 117.854647 
L 317.335926 119.410691 
L 321.609444 120.939148 
L 325.882963 122.518305 
L 330.156481 124.070305 
L 334.43 125.618204 
L 338.703519 127.147417 
L 342.977037 128.690924 
L 347.250556 130.188371 
L 351.524074 131.703928 
L 355.797593 133.209324 
L 360.071111 134.729993 
L 364.34463 136.254196 
L 368.618148 137.753909 
L 372.891667 139.228266 
L 377.165185 140.701618 
L 381.438704 142.12554 
L 385.712222 143.573417 
L 389.985741 144.993136 
L 394.259259 146.405699 
L 398.532778 147.82844 
L 402.806296 149.245409 
L 407.079815 150.631254 
L 411.353333 152.004214 
L 415.626852 153.375875 
L 419.90037 154.751056 
L 424.173889 156.108757 
L 428.447407 157.42942 
L 432.720926 158.750201 
L 436.994444 160.031396 
L 441.267963 161.306222 
L 445.541481 162.569674 
L 449.815 163.81704 
L 454.088519 165.042142 
L 458.362037 166.2627 
L 462.635556 167.45383 
L 466.909074 168.636929 
L 471.182593 169.783507 
L 475.456111 170.940742 
L 479.72963 172.065438 
L 484.003148 173.160978 
L 488.276667 174.249556 
L 492.550185 175.318028 
L 496.823704 176.388887 
L 501.097222 177.412022 
L 505.370741 178.409558 
L 509.644259 179.383201 
L 513.917778 180.348456 
L 518.191296 181.295858 
L 522.464815 182.210803 
L 526.738333 183.120199 
L 531.011852 184.010641 
L 535.28537 184.84245 
L 539.558889 185.673843 
L 543.832407 186.469112 
L 548.105926 187.245074 
L 552.379444 187.987363 
L 556.652963 188.670089 
L 560.926481 189.380042 
L 565.2 190.056194 
L 565.2 210.791136 
L 565.2 210.791136 
L 560.926481 210.084251 
L 556.652963 209.392182 
L 552.379444 208.640904 
L 548.105926 207.859701 
L 543.832407 207.032348 
L 539.558889 206.204807 
L 535.28537 205.342346 
L 531.011852 204.457912 
L 526.738333 203.529306 
L 522.464815 202.581974 
L 518.191296 201.604656 
L 513.917778 200.621523 
L 509.644259 199.616799 
L 505.370741 198.591202 
L 501.097222 197.550419 
L 496.823704 196.476957 
L 492.550185 195.341628 
L 488.276667 194.240751 
L 484.003148 193.054352 
L 479.72963 191.863904 
L 475.456111 190.703995 
L 471.182593 189.489458 
L 466.909074 188.25336 
L 462.635556 186.966561 
L 458.362037 185.673967 
L 454.088519 184.37146 
L 449.815 183.055564 
L 445.541481 181.731018 
L 441.267963 180.380033 
L 436.994444 178.988533 
L 432.720926 177.605998 
L 428.447407 176.209911 
L 424.173889 174.831867 
L 419.90037 173.399891 
L 415.626852 171.957598 
L 411.353333 170.508137 
L 407.079815 169.052381 
L 402.806296 167.558911 
L 398.532778 166.071755 
L 394.259259 164.565236 
L 389.985741 163.023178 
L 385.712222 161.466336 
L 381.438704 159.897723 
L 377.165185 158.309864 
L 372.891667 156.735165 
L 368.618148 155.157513 
L 364.34463 153.562804 
L 360.071111 151.930928 
L 355.797593 150.282459 
L 351.524074 148.661962 
L 347.250556 147.02342 
L 342.977037 145.38491 
L 338.703519 143.749533 
L 334.43 142.102949 
L 330.156481 140.44241 
L 325.882963 138.762661 
L 321.609444 137.084438 
L 317.335926 135.431919 
L 313.062407 133.733285 
L 308.788889 132.039023 
L 304.51537 130.265103 
L 300.241852 128.324441 
L 295.968333 126.273378 
L 291.694815 124.102586 
L 287.421296 121.795669 
L 283.147778 119.34994 
L 278.874259 116.82709 
L 274.600741 114.240024 
L 270.327222 111.594408 
L 266.053704 108.87676 
L 261.780185 106.166054 
L 257.506667 103.377279 
L 253.233148 100.600658 
L 248.95963 97.806542 
L 244.686111 95.021127 
L 240.412593 92.248572 
L 236.139074 89.537377 
L 231.865556 86.854777 
L 227.592037 84.211415 
L 223.318519 81.623681 
L 219.045 79.139112 
L 214.771481 76.725588 
L 210.497963 74.413811 
L 206.224444 72.225669 
L 201.950926 70.094062 
L 197.677407 67.961386 
L 193.403889 65.80289 
L 189.13037 63.674789 
L 184.856852 61.546821 
L 180.583333 59.409804 
L 176.309815 57.285357 
L 172.036296 55.157456 
L 167.762778 53.046599 
L 163.489259 50.943039 
L 159.215741 48.862929 
L 154.942222 46.784433 
L 150.668704 44.71383 
L 146.395185 42.653297 
L 142.121667 40.606603 
L 137.848148 38.571892 
L 133.57463 36.551792 
L 129.301111 34.549422 
L 125.027593 32.569316 
L 120.754074 30.607527 
L 116.480556 28.664388 
L 112.207037 26.740297 
L 107.933519 24.837104 
L 103.66 22.9575 
z
" style="fill:#d60000;fill-opacity:0.5;"/>
   </g>
   <g id="PolyCollection_2">
    <path clip-path="url(#pf0c474f79d)" d="M 103.66 22.9575 
L 103.66 22.9575 
L 107.933519 23.764839 
L 112.207037 24.635058 
L 116.480556 25.562517 
L 120.754074 26.548148 
L 125.027593 27.591476 
L 129.301111 28.688294 
L 133.57463 29.83572 
L 137.848148 31.018735 
L 142.121667 32.255345 
L 146.395185 33.534197 
L 150.668704 34.852064 
L 154.942222 36.206132 
L 159.215741 37.595429 
L 163.489259 39.01424 
L 167.762778 40.470992 
L 172.036296 41.958836 
L 176.309815 43.469148 
L 180.583333 44.998378 
L 184.856852 46.557075 
L 189.13037 48.119997 
L 193.403889 49.692722 
L 197.677407 51.287722 
L 201.950926 52.917509 
L 206.224444 54.556666 
L 210.497963 56.29239 
L 214.771481 58.189669 
L 219.045 60.272189 
L 223.318519 62.506536 
L 227.592037 64.90289 
L 231.865556 67.394393 
L 236.139074 69.980489 
L 240.412593 72.641655 
L 244.686111 75.341537 
L 248.95963 78.14073 
L 253.233148 80.978093 
L 257.506667 83.795443 
L 261.780185 86.614079 
L 266.053704 89.466838 
L 270.327222 92.288089 
L 274.600741 95.056663 
L 278.874259 97.696962 
L 283.147778 100.313381 
L 287.421296 102.836387 
L 291.694815 105.225924 
L 295.968333 107.506689 
L 300.241852 109.652869 
L 304.51537 111.628857 
L 308.788889 113.402618 
L 313.062407 115.133715 
L 317.335926 116.817416 
L 321.609444 118.498388 
L 325.882963 120.205355 
L 330.156481 121.874332 
L 334.43 123.543473 
L 338.703519 125.226642 
L 342.977037 126.904163 
L 347.250556 128.583008 
L 351.524074 130.24038 
L 355.797593 131.889778 
L 360.071111 133.484224 
L 364.34463 135.139929 
L 368.618148 136.743959 
L 372.891667 138.378575 
L 377.165185 139.987134 
L 381.438704 141.607533 
L 385.712222 143.174862 
L 389.985741 144.736868 
L 394.259259 146.275301 
L 398.532778 147.849738 
L 402.806296 149.40922 
L 407.079815 150.918363 
L 411.353333 152.459165 
L 415.626852 153.983237 
L 419.90037 155.502773 
L 424.173889 157.001113 
L 428.447407 158.485375 
L 432.720926 159.976992 
L 436.994444 161.439448 
L 441.267963 162.885058 
L 445.541481 164.314152 
L 449.815 165.722119 
L 454.088519 167.130661 
L 458.362037 168.544197 
L 462.635556 169.9316 
L 466.909074 171.270808 
L 471.182593 172.629079 
L 475.456111 173.937362 
L 479.72963 175.253486 
L 484.003148 176.555605 
L 488.276667 177.873209 
L 492.550185 179.153146 
L 496.823704 180.424611 
L 501.097222 181.673716 
L 505.370741 182.924496 
L 509.644259 184.123291 
L 513.917778 185.298853 
L 518.191296 186.463262 
L 522.464815 187.616842 
L 526.738333 188.779487 
L 531.011852 189.910293 
L 535.28537 191.000014 
L 539.558889 192.106782 
L 543.832407 193.161519 
L 548.105926 194.197068 
L 552.379444 195.212544 
L 556.652963 196.23589 
L 560.926481 197.195138 
L 565.2 198.156264 
L 565.2 223.925026 
L 565.2 223.925026 
L 560.926481 223.140101 
L 556.652963 222.368547 
L 552.379444 221.571419 
L 548.105926 220.72022 
L 543.832407 219.864716 
L 539.558889 218.948915 
L 535.28537 218.04002 
L 531.011852 217.085024 
L 526.738333 216.099824 
L 522.464815 215.103167 
L 518.191296 214.050386 
L 513.917778 212.984006 
L 509.644259 211.900326 
L 505.370741 210.786072 
L 501.097222 209.666219 
L 496.823704 208.520976 
L 492.550185 207.367988 
L 488.276667 206.177978 
L 484.003148 204.961511 
L 479.72963 203.722137 
L 475.456111 202.469128 
L 471.182593 201.178753 
L 466.909074 199.871118 
L 462.635556 198.537619 
L 458.362037 197.183423 
L 454.088519 195.813708 
L 449.815 194.409562 
L 445.541481 193.015217 
L 441.267963 191.573048 
L 436.994444 190.119595 
L 432.720926 188.647296 
L 428.447407 187.159682 
L 424.173889 185.668694 
L 419.90037 184.171038 
L 415.626852 182.670076 
L 411.353333 181.130861 
L 407.079815 179.589883 
L 402.806296 178.052667 
L 398.532778 176.447382 
L 394.259259 174.838298 
L 389.985741 173.213866 
L 385.712222 171.585511 
L 381.438704 169.957862 
L 377.165185 168.274861 
L 372.891667 166.622703 
L 368.618148 164.954836 
L 364.34463 163.281919 
L 360.071111 161.574989 
L 355.797593 159.861267 
L 351.524074 158.165393 
L 347.250556 156.418361 
L 342.977037 154.66214 
L 338.703519 152.912497 
L 334.43 151.151625 
L 330.156481 149.379831 
L 325.882963 147.611109 
L 321.609444 145.855802 
L 317.335926 144.083509 
L 313.062407 142.273321 
L 308.788889 140.483159 
L 304.51537 138.570876 
L 300.241852 136.40363 
L 295.968333 134.006684 
L 291.694815 131.457647 
L 287.421296 128.675044 
L 283.147778 125.755461 
L 278.874259 122.652344 
L 274.600741 119.482029 
L 270.327222 116.209179 
L 266.053704 112.867224 
L 261.780185 109.450456 
L 257.506667 105.999138 
L 253.233148 102.546833 
L 248.95963 99.117381 
L 244.686111 95.697971 
L 240.412593 92.33975 
L 236.139074 89.038584 
L 231.865556 85.793982 
L 227.592037 82.650763 
L 223.318519 79.612679 
L 219.045 76.795784 
L 214.771481 74.106224 
L 210.497963 71.605276 
L 206.224444 69.300332 
L 201.950926 67.130145 
L 197.677407 64.947593 
L 193.403889 62.783278 
L 189.13037 60.609474 
L 184.856852 58.46197 
L 180.583333 56.326685 
L 176.309815 54.195442 
L 172.036296 52.094265 
L 167.762778 50.014566 
L 163.489259 47.950888 
L 159.215741 45.934025 
L 154.942222 43.935361 
L 150.668704 41.960673 
L 146.395185 40.015282 
L 142.121667 38.117286 
L 137.848148 36.258873 
L 133.57463 34.436931 
L 129.301111 32.657244 
L 125.027593 30.925042 
L 120.754074 29.235301 
L 116.480556 27.590995 
L 112.207037 25.995616 
L 107.933519 24.450569 
L 103.66 22.9575 
z
" style="fill:#e1cd9c;fill-opacity:0.5;"/>
   </g>
   <g id="PolyCollection_3">
    <path clip-path="url(#pf0c474f79d)" d="M 103.66 22.9575 
L 103.66 22.9575 
L 107.933519 23.764839 
L 112.207037 24.635058 
L 116.480556 25.562517 
L 120.754074 26.548148 
L 125.027593 27.591476 
L 129.301111 28.688294 
L 133.57463 29.83572 
L 137.848148 31.018735 
L 142.121667 32.255345 
L 146.395185 33.534197 
L 150.668704 34.852064 
L 154.942222 36.206132 
L 159.215741 37.595429 
L 163.489259 39.01424 
L 167.762778 40.470992 
L 172.036296 41.958836 
L 176.309815 43.469148 
L 180.583333 44.998378 
L 184.856852 46.557075 
L 189.13037 48.119997 
L 193.403889 49.692722 
L 197.677407 51.287722 
L 201.950926 52.917509 
L 206.224444 54.556666 
L 210.497963 56.29239 
L 214.771481 58.189669 
L 219.045 60.272189 
L 223.318519 62.506536 
L 227.592037 64.90289 
L 231.865556 67.394393 
L 236.139074 69.980489 
L 240.412593 72.641655 
L 244.686111 75.341537 
L 248.95963 78.14073 
L 253.233148 80.978093 
L 257.506667 83.795443 
L 261.780185 86.614079 
L 266.053704 89.466838 
L 270.327222 92.288089 
L 274.600741 95.056663 
L 278.874259 97.696962 
L 283.147778 100.313381 
L 287.421296 102.836387 
L 291.694815 105.225924 
L 295.968333 107.506689 
L 300.241852 109.652869 
L 304.51537 111.628857 
L 308.788889 113.402618 
L 313.062407 115.133715 
L 317.335926 116.817416 
L 321.609444 118.498388 
L 325.882963 120.205355 
L 330.156481 121.874332 
L 334.43 123.543473 
L 338.703519 125.226642 
L 342.977037 126.904163 
L 347.250556 128.583008 
L 351.524074 130.24038 
L 355.797593 131.889778 
L 360.071111 133.484224 
L 364.34463 135.139929 
L 368.618148 136.743959 
L 372.891667 138.378575 
L 377.165185 139.987134 
L 381.438704 141.607533 
L 385.712222 143.174862 
L 389.985741 144.736868 
L 394.259259 146.275301 
L 398.532778 147.849738 
L 402.806296 149.40922 
L 407.079815 150.918363 
L 411.353333 152.459165 
L 415.626852 153.983237 
L 419.90037 155.502773 
L 424.173889 157.001113 
L 428.447407 158.485375 
L 432.720926 159.976992 
L 436.994444 161.439448 
L 441.267963 162.885058 
L 445.541481 164.314152 
L 449.815 165.722119 
L 454.088519 167.130661 
L 458.362037 168.544197 
L 462.635556 169.9316 
L 466.909074 171.270808 
L 471.182593 172.629079 
L 475.456111 173.937362 
L 479.72963 175.253486 
L 484.003148 176.555605 
L 488.276667 177.873209 
L 492.550185 179.153146 
L 496.823704 180.424611 
L 501.097222 181.673716 
L 505.370741 182.924496 
L 509.644259 184.123291 
L 513.917778 185.298853 
L 518.191296 186.463262 
L 522.464815 187.616842 
L 526.738333 188.779487 
L 531.011852 189.910293 
L 535.28537 191.000014 
L 539.558889 192.106782 
L 543.832407 193.161519 
L 548.105926 194.197068 
L 552.379444 195.212544 
L 556.652963 196.23589 
L 560.926481 197.195138 
L 565.2 198.156264 
L 565.2 194.792776 
L 565.2 194.792776 
L 560.926481 194.269558 
L 556.652963 193.710995 
L 552.379444 193.11765 
L 548.105926 192.490048 
L 543.832407 191.828711 
L 539.558889 191.134161 
L 535.28537 190.406921 
L 531.011852 189.647508 
L 526.738333 188.856452 
L 522.464815 188.034293 
L 518.191296 187.181524 
L 513.917778 186.298696 
L 509.644259 185.386312 
L 505.370741 184.444872 
L 501.097222 183.474916 
L 496.823704 182.476978 
L 492.550185 181.45159 
L 488.276667 180.399262 
L 484.003148 179.320516 
L 479.72963 178.215876 
L 475.456111 177.085863 
L 471.182593 175.931 
L 466.909074 174.751811 
L 462.635556 173.548818 
L 458.362037 172.322543 
L 454.088519 171.07351 
L 449.815 169.80224 
L 445.541481 168.509257 
L 441.267963 167.195084 
L 436.994444 165.860243 
L 432.720926 164.505256 
L 428.447407 163.130647 
L 424.173889 161.736937 
L 419.90037 160.324651 
L 415.626852 158.894317 
L 411.353333 157.446452 
L 407.079815 155.981577 
L 402.806296 154.500216 
L 398.532778 153.002891 
L 394.259259 151.490125 
L 389.985741 149.96244 
L 385.712222 148.42036 
L 381.438704 146.864406 
L 377.165185 145.295102 
L 372.891667 143.712969 
L 368.618148 142.11852 
L 364.34463 140.512288 
L 360.071111 138.894796 
L 355.797593 137.266563 
L 351.524074 135.628105 
L 347.250556 133.979956 
L 342.977037 132.322645 
L 338.703519 130.656701 
L 334.43 128.982633 
L 330.156481 127.300964 
L 325.882963 125.612218 
L 321.609444 123.916915 
L 317.335926 122.215581 
L 313.062407 120.508731 
L 308.788889 118.796902 
L 304.51537 117.01667 
L 300.241852 115.111286 
L 295.968333 113.091254 
L 291.694815 110.967123 
L 287.421296 108.749402 
L 283.147778 106.448604 
L 278.874259 104.075257 
L 274.600741 101.639882 
L 270.327222 99.153 
L 266.053704 96.625133 
L 261.780185 94.066802 
L 257.506667 91.488527 
L 253.233148 88.900825 
L 248.95963 86.314219 
L 244.686111 83.739246 
L 240.412593 81.186411 
L 236.139074 78.666241 
L 231.865556 76.18926 
L 227.592037 73.765989 
L 223.318519 71.406945 
L 219.045 69.122656 
L 214.771481 66.923637 
L 210.497963 64.820409 
L 206.224444 62.823488 
L 201.950926 60.892612 
L 197.677407 58.980893 
L 193.403889 57.088914 
L 189.13037 55.217261 
L 184.856852 53.366521 
L 180.583333 51.53728 
L 176.309815 49.730129 
L 172.036296 47.945654 
L 167.762778 46.184444 
L 163.489259 44.447085 
L 159.215741 42.734166 
L 154.942222 41.046274 
L 150.668704 39.383996 
L 146.395185 37.747919 
L 142.121667 36.138632 
L 137.848148 34.556721 
L 133.57463 33.002776 
L 129.301111 31.477381 
L 125.027593 29.981126 
L 120.754074 28.514597 
L 116.480556 27.078383 
L 112.207037 25.67307 
L 107.933519 24.299247 
L 103.66 22.9575 
z
" style="fill:#93ffba;fill-opacity:0.5;"/>
   </g>
   <g id="PolyCollection_4">
    <defs>
     <path d="M 103.66 -437.8425 
L 103.66 -437.8425 
L 136.373916 -437.8425 
L 136.373916 -437.8425 
L 137.91835 -437.8425 
L 137.91835 -437.8425 
L 144.938503 -437.8425 
L 144.938503 -406.063681 
L 149.431402 -406.063681 
L 149.431402 -406.063681 
L 149.571805 -406.063681 
L 149.571805 -406.063681 
L 152.941478 -406.063681 
L 152.941478 -401.546442 
L 153.783897 -401.546442 
L 153.783897 -401.546442 
L 153.9243 -401.546442 
L 153.9243 -395.132438 
L 156.311152 -395.132438 
L 156.311152 -395.132438 
L 156.591958 -395.132438 
L 156.591958 -395.132438 
L 158.838407 -395.132438 
L 158.838407 -395.132438 
L 159.259617 -395.132438 
L 159.259617 -395.132438 
L 159.680826 -395.132438 
L 159.680826 -395.132438 
L 160.523244 -395.132438 
L 160.523244 -387.484685 
L 160.663647 -387.484685 
L 160.663647 -380.236643 
L 161.084857 -380.236643 
L 161.084857 -380.236643 
L 162.769694 -380.236643 
L 162.769694 -372.853843 
L 164.173724 -372.853843 
L 164.173724 -372.853843 
L 164.594933 -372.853843 
L 164.594933 -365.528841 
L 165.016143 -365.528841 
L 165.016143 -365.528841 
L 167.964607 -365.528841 
L 167.964607 -365.528841 
L 168.10501 -365.528841 
L 168.10501 -365.528841 
L 168.385816 -365.528841 
L 168.385816 -365.528841 
L 168.526219 -365.528841 
L 168.526219 -365.528841 
L 173.159521 -365.528841 
L 173.159521 -365.528841 
L 173.299924 -365.528841 
L 173.299924 -365.528841 
L 184.953379 -365.528841 
L 184.953379 -365.528841 
L 190.429099 -365.528841 
L 190.429099 -365.528841 
L 191.41192 -365.528841 
L 191.41192 -365.528841 
L 196.88764 -365.528841 
L 196.88764 -365.528841 
L 203.065375 -365.528841 
L 203.065375 -365.528841 
L 205.592631 -365.528841 
L 205.592631 -355.221119 
L 205.733034 -355.221119 
L 205.733034 -355.221119 
L 206.154243 -355.221119 
L 206.154243 -355.221119 
L 206.715855 -355.221119 
L 206.715855 -355.221119 
L 206.856258 -355.221119 
L 206.856258 -355.221119 
L 209.523917 -355.221119 
L 209.523917 -355.221119 
L 210.506738 -355.221119 
L 210.506738 -355.221119 
L 211.349157 -355.221119 
L 211.349157 -355.221119 
L 213.736009 -355.221119 
L 213.736009 -355.221119 
L 219.773341 -355.221119 
L 219.773341 -341.998365 
L 222.300596 -341.998365 
L 222.300596 -341.998365 
L 228.478331 -341.998365 
L 228.478331 -329.289494 
L 232.409617 -329.289494 
L 232.409617 -317.39899 
L 246.028715 -317.39899 
L 246.028715 -317.39899 
L 247.15194 -317.39899 
L 247.15194 -305.543353 
L 251.083226 -305.543353 
L 251.083226 -294.21426 
L 253.470078 -294.21426 
L 253.470078 -294.21426 
L 255.576124 -294.21426 
L 255.576124 -294.21426 
L 259.788217 -294.21426 
L 259.788217 -294.21426 
L 263.719503 -294.21426 
L 263.719503 -294.21426 
L 265.123533 -294.21426 
L 265.123533 -280.603593 
L 269.335626 -280.603593 
L 269.335626 -280.603593 
L 271.582075 -280.603593 
L 271.582075 -280.603593 
L 273.407315 -280.603593 
L 273.407315 -265.882667 
L 279.58505 -265.882667 
L 279.58505 -251.971379 
L 281.831499 -251.971379 
L 281.831499 -238.716573 
L 283.375933 -238.716573 
L 283.375933 -238.716573 
L 284.499157 -238.716573 
L 284.499157 -224.95712 
L 303.453572 -224.95712 
L 303.453572 -224.95712 
L 305.559618 -224.95712 
L 305.559618 -210.580416 
L 324.233227 -210.580416 
L 324.233227 -210.580416 
L 332.797814 -210.580416 
L 332.797814 -195.44244 
L 334.623054 -195.44244 
L 334.623054 -195.44244 
L 383.76413 -195.44244 
L 383.76413 -179.350921 
L 411.142729 -179.350921 
L 411.142729 -179.350921 
L 418.022479 -179.350921 
L 418.022479 -179.350921 
L 435.43246 -179.350921 
L 435.43246 -179.350921 
L 462.951462 -179.350921 
L 462.951462 -179.350921 
L 464.355493 -179.350921 
L 464.355493 -179.350921 
L 467.584764 -179.350921 
L 467.584764 -179.350921 
L 471.235244 -179.350921 
L 471.235244 -179.350921 
L 477.132173 -179.350921 
L 477.132173 -112.063083 
L 512.934956 -112.063083 
L 512.934956 -87.584613 
L 564.74369 -87.584613 
L 564.74369 -87.584613 
L 564.74369 -244.17894 
L 564.74369 -244.17894 
L 564.74369 -244.17894 
L 512.934956 -244.17894 
L 512.934956 -284.143373 
L 477.132173 -284.143373 
L 477.132173 -302.614973 
L 471.235244 -302.614973 
L 471.235244 -302.614973 
L 467.584764 -302.614973 
L 467.584764 -302.614973 
L 464.355493 -302.614973 
L 464.355493 -302.614973 
L 462.951462 -302.614973 
L 462.951462 -302.614973 
L 435.43246 -302.614973 
L 435.43246 -302.614973 
L 418.022479 -302.614973 
L 418.022479 -302.614973 
L 411.142729 -302.614973 
L 411.142729 -302.614973 
L 383.76413 -302.614973 
L 383.76413 -315.775862 
L 334.623054 -315.775862 
L 334.623054 -315.775862 
L 332.797814 -315.775862 
L 332.797814 -327.751992 
L 324.233227 -327.751992 
L 324.233227 -327.751992 
L 305.559618 -327.751992 
L 305.559618 -338.763483 
L 303.453572 -338.763483 
L 303.453572 -338.763483 
L 284.499157 -338.763483 
L 284.499157 -348.965002 
L 283.375933 -348.965002 
L 283.375933 -348.965002 
L 281.831499 -348.965002 
L 281.831499 -358.468986 
L 279.58505 -358.468986 
L 279.58505 -367.623059 
L 273.407315 -367.623059 
L 273.407315 -376.385108 
L 271.582075 -376.385108 
L 271.582075 -376.385108 
L 269.335626 -376.385108 
L 269.335626 -376.385108 
L 265.123533 -376.385108 
L 265.123533 -384.321348 
L 263.719503 -384.321348 
L 263.719503 -384.321348 
L 259.788217 -384.321348 
L 259.788217 -384.321348 
L 255.576124 -384.321348 
L 255.576124 -384.321348 
L 253.470078 -384.321348 
L 253.470078 -384.321348 
L 251.083226 -384.321348 
L 251.083226 -391.255314 
L 247.15194 -391.255314 
L 247.15194 -397.926894 
L 246.028715 -397.926894 
L 246.028715 -397.926894 
L 232.409617 -397.926894 
L 232.409617 -404.179802 
L 228.478331 -404.179802 
L 228.478331 -410.103405 
L 222.300596 -410.103405 
L 222.300596 -410.103405 
L 219.773341 -410.103405 
L 219.773341 -415.539569 
L 213.736009 -415.539569 
L 213.736009 -415.539569 
L 211.349157 -415.539569 
L 211.349157 -415.539569 
L 210.506738 -415.539569 
L 210.506738 -415.539569 
L 209.523917 -415.539569 
L 209.523917 -415.539569 
L 206.856258 -415.539569 
L 206.856258 -415.539569 
L 206.715855 -415.539569 
L 206.715855 -415.539569 
L 206.154243 -415.539569 
L 206.154243 -415.539569 
L 205.733034 -415.539569 
L 205.733034 -415.539569 
L 205.592631 -415.539569 
L 205.592631 -420.061494 
L 203.065375 -420.061494 
L 203.065375 -420.061494 
L 196.88764 -420.061494 
L 196.88764 -420.061494 
L 191.41192 -420.061494 
L 191.41192 -420.061494 
L 190.429099 -420.061494 
L 190.429099 -420.061494 
L 184.953379 -420.061494 
L 184.953379 -420.061494 
L 173.299924 -420.061494 
L 173.299924 -420.061494 
L 173.159521 -420.061494 
L 173.159521 -420.061494 
L 168.526219 -420.061494 
L 168.526219 -420.061494 
L 168.385816 -420.061494 
L 168.385816 -420.061494 
L 168.10501 -420.061494 
L 168.10501 -420.061494 
L 167.964607 -420.061494 
L 167.964607 -420.061494 
L 165.016143 -420.061494 
L 165.016143 -420.061494 
L 164.594933 -420.061494 
L 164.594933 -423.738476 
L 164.173724 -423.738476 
L 164.173724 -423.738476 
L 162.769694 -423.738476 
L 162.769694 -427.177071 
L 161.084857 -427.177071 
L 161.084857 -427.177071 
L 160.663647 -427.177071 
L 160.663647 -430.310881 
L 160.523244 -430.310881 
L 160.523244 -433.145798 
L 159.680826 -433.145798 
L 159.680826 -433.145798 
L 159.259617 -433.145798 
L 159.259617 -433.145798 
L 158.838407 -433.145798 
L 158.838407 -433.145798 
L 156.591958 -433.145798 
L 156.591958 -433.145798 
L 156.311152 -433.145798 
L 156.311152 -433.145798 
L 153.9243 -433.145798 
L 153.9243 -435.456741 
L 153.783897 -435.456741 
L 153.783897 -435.456741 
L 152.941478 -435.456741 
L 152.941478 -437.182452 
L 149.571805 -437.182452 
L 149.571805 -437.182452 
L 149.431402 -437.182452 
L 149.431402 -437.182452 
L 144.938503 -437.182452 
L 144.938503 -437.8425 
L 137.91835 -437.8425 
L 137.91835 -437.8425 
L 136.373916 -437.8425 
L 136.373916 -437.8425 
L 103.66 -437.8425 
z
" id="m00441a3511" style="stroke:#9c3190;stroke-opacity:0.5;"/>
    </defs>
    <g clip-path="url(#pf0c474f79d)">
     <use style="fill:#9c3190;fill-opacity:0.5;stroke:#9c3190;stroke-opacity:0.5;" x="0" xlink:href="#m00441a3511" y="460.8"/>
    </g>
   </g>
   <g id="matplotlib.axis_1">
    <g id="xtick_1">
     <g id="line2d_1">
      <defs>
       <path d="M 0 0 
L 0 3.5 
" id="m417f2fc549" style="stroke:#000000;stroke-width:0.8;"/>
      </defs>
      <g>
       <use style="stroke:#000000;stroke-width:0.8;" x="103.66" xlink:href="#m417f2fc549" y="377.06"/>
      </g>
     </g>
     <g id="text_1">
      <text style="font-family:DejaVu Sans;font-size:32px;font-style:normal;font-weight:normal;text-anchor:middle;" transform="rotate(-0, 103.66, 408.375)" x="103.66" y="408.375">0</text>
     </g>
    </g>
    <g id="xtick_2">
     <g id="line2d_2">
      <g>
       <use style="stroke:#000000;stroke-width:0.8;" x="317.335926" xlink:href="#m417f2fc549" y="377.06"/>
      </g>
     </g>
     <g id="text_2">
      <text style="font-family:DejaVu Sans;font-size:32px;font-style:normal;font-weight:normal;text-anchor:middle;" transform="rotate(-0, 317.335926, 408.375)" x="317.335926" y="408.375">50</text>
     </g>
    </g>
    <g id="xtick_3">
     <g id="line2d_3">
      <g>
       <use style="stroke:#000000;stroke-width:0.8;" x="531.011852" xlink:href="#m417f2fc549" y="377.06"/>
      </g>
     </g>
     <g id="text_3">
      <text style="font-family:DejaVu Sans;font-size:32px;font-style:normal;font-weight:normal;text-anchor:middle;" transform="rotate(-0, 531.011852, 408.375)" x="531.011852" y="408.375">100</text>
     </g>
    </g>
    <g id="text_4">
     <text style="font-family:DejaVu Sans;font-size:32px;font-style:normal;font-weight:normal;text-anchor:middle;" transform="rotate(-0, 334.43, 443.345)" x="334.43" y="443.345">Time (months)</text>
    </g>
   </g>
   <g id="matplotlib.axis_2">
    <g id="ytick_1">
     <g id="line2d_4">
      <defs>
       <path d="M 0 0 
L -3.5 0 
" id="m9735c3e1b1" style="stroke:#000000;stroke-width:0.8;"/>
      </defs>
      <g>
       <use style="stroke:#000000;stroke-width:0.8;" x="103.66" xlink:href="#m9735c3e1b1" y="377.06"/>
      </g>
     </g>
     <g id="text_5">
      <text style="font-family:DejaVu Sans;font-size:32px;font-style:normal;font-weight:normal;text-anchor:end;" transform="rotate(-0, 96.66, 389.2175)" x="96.66" y="389.2175">0.0</text>
     </g>
    </g>
    <g id="ytick_2">
     <g id="line2d_5">
      <g>
       <use style="stroke:#000000;stroke-width:0.8;" x="103.66" xlink:href="#m9735c3e1b1" y="306.2395"/>
      </g>
     </g>
     <g id="text_6">
      <text style="font-family:DejaVu Sans;font-size:32px;font-style:normal;font-weight:normal;text-anchor:end;" transform="rotate(-0, 96.66, 318.397)" x="96.66" y="318.397">0.2</text>
     </g>
    </g>
    <g id="ytick_3">
     <g id="line2d_6">
      <g>
       <use style="stroke:#000000;stroke-width:0.8;" x="103.66" xlink:href="#m9735c3e1b1" y="235.419"/>
      </g>
     </g>
     <g id="text_7">
      <text style="font-family:DejaVu Sans;font-size:32px;font-style:normal;font-weight:normal;text-anchor:end;" transform="rotate(-0, 96.66, 247.5765)" x="96.66" y="247.5765">0.4</text>
     </g>
    </g>
    <g id="ytick_4">
     <g id="line2d_7">
      <g>
       <use style="stroke:#000000;stroke-width:0.8;" x="103.66" xlink:href="#m9735c3e1b1" y="164.5985"/>
      </g>
     </g>
     <g id="text_8">
      <text style="font-family:DejaVu Sans;font-size:32px;font-style:normal;font-weight:normal;text-anchor:end;" transform="rotate(-0, 96.66, 176.756)" x="96.66" y="176.756">0.6</text>
     </g>
    </g>
    <g id="ytick_5">
     <g id="line2d_8">
      <g>
       <use style="stroke:#000000;stroke-width:0.8;" x="103.66" xlink:href="#m9735c3e1b1" y="93.778"/>
      </g>
     </g>
     <g id="text_9">
      <text style="font-family:DejaVu Sans;font-size:32px;font-style:normal;font-weight:normal;text-anchor:end;" transform="rotate(-0, 96.66, 105.9355)" x="96.66" y="105.9355">0.8</text>
     </g>
    </g>
    <g id="ytick_6">
     <g id="line2d_9">
      <g>
       <use style="stroke:#000000;stroke-width:0.8;" x="103.66" xlink:href="#m9735c3e1b1" y="22.9575"/>
      </g>
     </g>
     <g id="text_10">
      <text style="font-family:DejaVu Sans;font-size:32px;font-style:normal;font-weight:normal;text-anchor:end;" transform="rotate(-0, 96.66, 35.115)" x="96.66" y="35.115">1.0</text>
     </g>
    </g>
    <g id="text_11">
     <text style="font-family:DejaVu Sans;font-size:32px;font-style:normal;font-weight:normal;text-anchor:middle;" transform="rotate(-90, 35.115, 200.00875)" x="35.115" y="200.00875">Probability of survival</text>
    </g>
   </g>
   <g id="line2d_10">
    <path clip-path="url(#pf0c474f79d)" d="M 103.66 22.9575 
L 144.938503 22.9575 
L 144.938503 27.616743 
L 152.941478 27.616743 
L 152.941478 32.403637 
L 153.9243 32.403637 
L 153.9243 37.3273 
L 160.523244 37.3273 
L 160.523244 42.719882 
L 160.663647 42.719882 
L 160.663647 48.112465 
L 162.769694 48.112465 
L 162.769694 53.687847 
L 164.594933 53.687847 
L 164.594933 59.361042 
L 205.592631 59.361042 
L 205.592631 66.581473 
L 219.773341 66.581473 
L 219.773341 75.452288 
L 228.478331 75.452288 
L 228.478331 84.591916 
L 232.409617 84.591916 
L 232.409617 93.731544 
L 247.15194 93.731544 
L 247.15194 103.175825 
L 251.083226 103.175825 
L 251.083226 112.620107 
L 265.123533 112.620107 
L 265.123533 123.638436 
L 273.407315 123.638436 
L 273.407315 135.70613 
L 279.58505 135.70613 
L 279.58505 147.773823 
L 281.831499 147.773823 
L 281.831499 159.841517 
L 284.499157 159.841517 
L 284.499157 172.619075 
L 305.559618 172.619075 
L 305.559618 186.24847 
L 332.797814 186.24847 
L 332.797814 200.92628 
L 383.76413 200.92628 
L 383.76413 216.938436 
L 477.132173 216.938436 
L 477.132173 270.312291 
L 512.934956 270.312291 
L 512.934956 323.686145 
L 564.74369 323.686145 
L 564.74369 323.686145 
" style="fill:none;stroke:#9c3190;stroke-linecap:square;stroke-width:3;"/>
   </g>
   <g id="patch_3">
    <path d="M 103.66 377.06 
L 103.66 22.9575 
" style="fill:none;stroke:#000000;stroke-linecap:square;stroke-linejoin:miter;stroke-width:0.8;"/>
   </g>
   <g id="patch_4">
    <path d="M 565.2 377.06 
L 565.2 22.9575 
" style="fill:none;stroke:#000000;stroke-linecap:square;stroke-linejoin:miter;stroke-width:0.8;"/>
   </g>
   <g id="patch_5">
    <path d="M 103.66 377.06 
L 565.2 377.06 
" style="fill:none;stroke:#000000;stroke-linecap:square;stroke-linejoin:miter;stroke-width:0.8;"/>
   </g>
   <g id="patch_6">
    <path d="M 103.66 22.9575 
L 565.2 22.9575 
" style="fill:none;stroke:#000000;stroke-linecap:square;stroke-linejoin:miter;stroke-width:0.8;"/>
   </g>
   <g id="legend_1">
    <g id="patch_7">
     <path d="M 371.73 103.0125 
L 556.8 103.0125 
Q 559.2 103.0125 559.2 100.6125 
L 559.2 31.3575 
Q 559.2 28.9575 556.8 28.9575 
L 371.73 28.9575 
Q 369.33 28.9575 369.33 31.3575 
L 369.33 100.6125 
Q 369.33 103.0125 371.73 103.0125 
z
" style="fill:#ffffff;opacity:0.8;stroke:#cccccc;stroke-linejoin:miter;"/>
    </g>
    <g id="patch_8">
     <path d="M 374.13 42.875625 
L 398.13 42.875625 
L 398.13 34.475625 
L 374.13 34.475625 
z
" style="fill:#d60000;opacity:0.5;"/>
    </g>
    <g id="text_12">
     <text style="font-family:DejaVu Sans;font-size:12px;font-style:normal;font-weight:normal;text-anchor:start;" transform="rotate(-0, 407.73, 42.875625)" x="407.73" y="42.875625">Predicted survival (MLP)</text>
    </g>
    <g id="patch_9">
     <path d="M 374.13 60.489375 
L 398.13 60.489375 
L 398.13 52.089375 
L 374.13 52.089375 
z
" style="fill:#e1cd9c;opacity:0.5;"/>
    </g>
    <g id="text_13">
     <text style="font-family:DejaVu Sans;font-size:12px;font-style:normal;font-weight:normal;text-anchor:start;" transform="rotate(-0, 407.73, 60.489375)" x="407.73" y="60.489375">Predicted survival (CNN)</text>
    </g>
    <g id="patch_10">
     <path d="M 374.13 78.103125 
L 398.13 78.103125 
L 398.13 69.703125 
L 374.13 69.703125 
z
" style="fill:#93ffba;opacity:0.5;"/>
    </g>
    <g id="text_14">
     <text style="font-family:DejaVu Sans;font-size:12px;font-style:normal;font-weight:normal;text-anchor:start;" transform="rotate(-0, 407.73, 78.103125)" x="407.73" y="78.103125">Predicted survival (ViT)</text>
    </g>
    <g id="line2d_11">
     <path d="M 374.13 91.516875 
L 398.13 91.516875 
" style="fill:none;stroke:#9c3190;stroke-linecap:square;stroke-width:3;"/>
    </g>
    <g id="line2d_12"/>
    <g id="text_15">
     <text style="font-family:DejaVu Sans;font-size:12px;font-style:normal;font-weight:normal;text-anchor:start;" transform="rotate(-0, 407.73, 95.716875)" x="407.73" y="95.716875">Kaplan Meier Estimate</text>
    </g>
   </g>
  </g>
 </g>
 <defs>
  <clipPath id="pf0c474f79d">
   <rect height="354.1025" width="461.54" x="103.66" y="22.9575"/>
  </clipPath>
 </defs>
</svg>
