<?xml version="1.0" encoding="utf-8" standalone="no"?>
<!DOCTYPE svg PUBLIC "-//W3C//DTD SVG 1.1//EN"
  "http://www.w3.org/Graphics/SVG/1.1/DTD/svg11.dtd">
<!-- Created with matplotlib (https://matplotlib.org/) -->
<svg height="460.8pt" version="1.1" viewBox="0 0 576 460.8" width="576pt" xmlns="http://www.w3.org/2000/svg" xmlns:xlink="http://www.w3.org/1999/xlink">
 <defs>
  <style type="text/css">
*{stroke-linecap:butt;stroke-linejoin:round;}
  </style>
 </defs>
 <g id="figure_1">
  <g id="patch_1">
   <path d="M 0 460.8 
L 576 460.8 
L 576 0 
L 0 0 
z
" style="fill:#ffffff;"/>
  </g>
  <g id="axes_1">
   <g id="patch_2">
    <path d="M 103.66 377.06 
L 565.2 377.06 
L 565.2 22.9575 
L 103.66 22.9575 
z
" style="fill:#ffffff;"/>
   </g>
   <g id="PolyCollection_1">
    <path clip-path="url(#pc3e4636d42)" d="M 103.66 22.9575 
L 103.66 22.9575 
L 107.933519 23.555229 
L 112.207037 24.191264 
L 116.480556 24.864681 
L 120.754074 25.573019 
L 125.027593 26.314516 
L 129.301111 27.08798 
L 133.57463 27.894387 
L 137.848148 28.7275 
L 142.121667 29.588924 
L 146.395185 30.47123 
L 150.668704 31.378562 
L 154.942222 32.31305 
L 159.215741 33.268703 
L 163.489259 34.247866 
L 167.762778 35.239364 
L 172.036296 36.244797 
L 176.309815 37.264552 
L 180.583333 38.302123 
L 184.856852 39.355628 
L 189.13037 40.417586 
L 193.403889 41.492809 
L 197.677407 42.56941 
L 201.950926 43.659161 
L 206.224444 44.759957 
L 210.497963 45.910275 
L 214.771481 47.170602 
L 219.045 48.516191 
L 223.318519 49.925355 
L 227.592037 51.420186 
L 231.865556 53.000479 
L 236.139074 54.61172 
L 240.412593 56.29307 
L 244.686111 58.013147 
L 248.95963 59.754859 
L 253.233148 61.519576 
L 257.506667 63.284876 
L 261.780185 65.070299 
L 266.053704 66.855172 
L 270.327222 68.654448 
L 274.600741 70.415113 
L 278.874259 72.16259 
L 283.147778 73.870342 
L 287.421296 75.543449 
L 291.694815 77.164974 
L 295.968333 78.742589 
L 300.241852 80.250474 
L 304.51537 81.701324 
L 308.788889 83.095559 
L 313.062407 84.44352 
L 317.335926 85.780181 
L 321.609444 87.118904 
L 325.882963 88.462846 
L 330.156481 89.81543 
L 334.43 91.189486 
L 338.703519 92.54513 
L 342.977037 93.887506 
L 347.250556 95.233325 
L 351.524074 96.569774 
L 355.797593 97.91859 
L 360.071111 99.273779 
L 364.34463 100.622433 
L 368.618148 101.972065 
L 372.891667 103.322902 
L 377.165185 104.68343 
L 381.438704 106.028759 
L 385.712222 107.36207 
L 389.985741 108.712305 
L 394.259259 110.026564 
L 398.532778 111.35372 
L 402.806296 112.683517 
L 407.079815 114.006952 
L 411.353333 115.335874 
L 415.626852 116.66291 
L 419.90037 117.985714 
L 424.173889 119.283856 
L 428.447407 120.587744 
L 432.720926 121.887325 
L 436.994444 123.168441 
L 441.267963 124.46771 
L 445.541481 125.750341 
L 449.815 127.0244 
L 454.088519 128.29024 
L 458.362037 129.565555 
L 462.635556 130.836607 
L 466.909074 132.097206 
L 471.182593 133.349225 
L 475.456111 134.581482 
L 479.72963 135.80682 
L 484.003148 137.022958 
L 488.276667 138.238249 
L 492.550185 139.468601 
L 496.823704 140.673158 
L 501.097222 141.864038 
L 505.370741 143.040347 
L 509.644259 144.223368 
L 513.917778 145.394649 
L 518.191296 146.549639 
L 522.464815 147.707985 
L 526.738333 148.85551 
L 531.011852 150.003453 
L 535.28537 151.124069 
L 539.558889 152.238 
L 543.832407 153.353956 
L 548.105926 154.434337 
L 552.379444 155.494448 
L 556.652963 156.559016 
L 560.926481 157.621622 
L 565.2 158.651303 
L 565.2 174.221387 
L 565.2 174.221387 
L 560.926481 173.201498 
L 556.652963 172.149657 
L 552.379444 171.070755 
L 548.105926 170.023659 
L 543.832407 168.9392 
L 539.558889 167.867689 
L 535.28537 166.763572 
L 531.011852 165.64917 
L 526.738333 164.501927 
L 522.464815 163.349661 
L 518.191296 162.185326 
L 513.917778 161.018666 
L 509.644259 159.811589 
L 505.370741 158.60663 
L 501.097222 157.389727 
L 496.823704 156.16265 
L 492.550185 154.876133 
L 488.276667 153.628104 
L 484.003148 152.372448 
L 479.72963 151.091819 
L 475.456111 149.806582 
L 471.182593 148.528042 
L 466.909074 147.230425 
L 462.635556 145.90593 
L 458.362037 144.598409 
L 454.088519 143.270476 
L 449.815 141.93138 
L 445.541481 140.552357 
L 441.267963 139.196052 
L 436.994444 137.829755 
L 432.720926 136.428816 
L 428.447407 135.032449 
L 424.173889 133.644492 
L 419.90037 132.264363 
L 415.626852 130.880638 
L 411.353333 129.467417 
L 407.079815 128.038138 
L 402.806296 126.601635 
L 398.532778 125.174416 
L 394.259259 123.715561 
L 389.985741 122.285154 
L 385.712222 120.823766 
L 381.438704 119.35913 
L 377.165185 117.893287 
L 372.891667 116.4391 
L 368.618148 114.964237 
L 364.34463 113.499483 
L 360.071111 112.033218 
L 355.797593 110.556789 
L 351.524074 109.075195 
L 347.250556 107.602099 
L 342.977037 106.112245 
L 338.703519 104.618624 
L 334.43 103.161334 
L 330.156481 101.662607 
L 325.882963 100.191321 
L 321.609444 98.703409 
L 317.335926 97.20802 
L 313.062407 95.724481 
L 308.788889 94.243895 
L 304.51537 92.717837 
L 300.241852 91.060717 
L 295.968333 89.305618 
L 291.694815 87.490534 
L 287.421296 85.610031 
L 283.147778 83.654936 
L 278.874259 81.657681 
L 274.600741 79.613413 
L 270.327222 77.548507 
L 266.053704 75.452431 
L 261.780185 73.331809 
L 257.506667 71.224893 
L 253.233148 69.124218 
L 248.95963 67.073508 
L 244.686111 65.045229 
L 240.412593 63.05445 
L 236.139074 61.100779 
L 231.865556 59.213449 
L 227.592037 57.372867 
L 223.318519 55.626646 
L 219.045 53.98654 
L 214.771481 52.423191 
L 210.497963 50.964769 
L 206.224444 49.604702 
L 201.950926 48.310579 
L 197.677407 47.024819 
L 193.403889 45.737524 
L 189.13037 44.470381 
L 184.856852 43.212068 
L 180.583333 41.984211 
L 176.309815 40.742884 
L 172.036296 39.529261 
L 167.762778 38.320997 
L 163.489259 37.127618 
L 159.215741 35.964556 
L 154.942222 34.821409 
L 150.668704 33.690859 
L 146.395185 32.582958 
L 142.121667 31.499314 
L 137.848148 30.440025 
L 133.57463 29.401988 
L 129.301111 28.396794 
L 125.027593 27.414928 
L 120.754074 26.463332 
L 116.480556 25.539812 
L 112.207037 24.647743 
L 107.933519 23.785996 
L 103.66 22.9575 
z
" style="fill:#d60000;fill-opacity:0.5;"/>
   </g>
   <g id="PolyCollection_2">
    <path clip-path="url(#pc3e4636d42)" d="M 103.66 22.9575 
L 103.66 22.9575 
L 107.933519 23.229166 
L 112.207037 23.552005 
L 116.480556 23.92386 
L 120.754074 24.345318 
L 125.027593 24.811087 
L 129.301111 25.317966 
L 133.57463 25.866285 
L 137.848148 26.455265 
L 142.121667 27.079411 
L 146.395185 27.741988 
L 150.668704 28.431467 
L 154.942222 29.156345 
L 159.215741 29.917928 
L 163.489259 30.699157 
L 167.762778 31.507685 
L 172.036296 32.324904 
L 176.309815 33.177517 
L 180.583333 34.042883 
L 184.856852 34.928711 
L 189.13037 35.823446 
L 193.403889 36.751296 
L 197.677407 37.689086 
L 201.950926 38.632883 
L 206.224444 39.570179 
L 210.497963 40.573566 
L 214.771481 41.695887 
L 219.045 42.929387 
L 223.318519 44.253963 
L 227.592037 45.667864 
L 231.865556 47.172769 
L 236.139074 48.739845 
L 240.412593 50.372532 
L 244.686111 52.063914 
L 248.95963 53.791288 
L 253.233148 55.55359 
L 257.506667 57.340463 
L 261.780185 59.151115 
L 266.053704 60.990896 
L 270.327222 62.810873 
L 274.600741 64.641612 
L 278.874259 66.447289 
L 283.147778 68.224225 
L 287.421296 69.959628 
L 291.694815 71.651561 
L 295.968333 73.309952 
L 300.241852 74.922536 
L 304.51537 76.47909 
L 308.788889 77.943642 
L 313.062407 79.380446 
L 317.335926 80.804625 
L 321.609444 82.234942 
L 325.882963 83.655824 
L 330.156481 85.085101 
L 334.43 86.514621 
L 338.703519 87.946686 
L 342.977037 89.390221 
L 347.250556 90.833773 
L 351.524074 92.250116 
L 355.797593 93.692648 
L 360.071111 95.135582 
L 364.34463 96.571031 
L 368.618148 97.995765 
L 372.891667 99.42548 
L 377.165185 100.868688 
L 381.438704 102.313919 
L 385.712222 103.743673 
L 389.985741 105.173083 
L 394.259259 106.604861 
L 398.532778 108.040453 
L 402.806296 109.465589 
L 407.079815 110.886547 
L 411.353333 112.334356 
L 415.626852 113.785425 
L 419.90037 115.218069 
L 424.173889 116.632503 
L 428.447407 118.049392 
L 432.720926 119.488562 
L 436.994444 120.91145 
L 441.267963 122.339634 
L 445.541481 123.757468 
L 449.815 125.183762 
L 454.088519 126.602149 
L 458.362037 128.004542 
L 462.635556 129.397207 
L 466.909074 130.808922 
L 471.182593 132.213095 
L 475.456111 133.593718 
L 479.72963 134.979801 
L 484.003148 136.377813 
L 488.276667 137.766242 
L 492.550185 139.144841 
L 496.823704 140.521282 
L 501.097222 141.90221 
L 505.370741 143.28551 
L 509.644259 144.658878 
L 513.917778 146.040587 
L 518.191296 147.419031 
L 522.464815 148.796689 
L 526.738333 150.151516 
L 531.011852 151.503158 
L 535.28537 152.84869 
L 539.558889 154.185322 
L 543.832407 155.521457 
L 548.105926 156.869558 
L 552.379444 158.214733 
L 556.652963 159.541707 
L 560.926481 160.874556 
L 565.2 162.179934 
L 565.2 178.473946 
L 565.2 178.473946 
L 560.926481 177.269011 
L 556.652963 176.045943 
L 552.379444 174.839221 
L 548.105926 173.610671 
L 543.832407 172.365086 
L 539.558889 171.105795 
L 535.28537 169.836356 
L 531.011852 168.558631 
L 526.738333 167.289029 
L 522.464815 166.00521 
L 518.191296 164.710576 
L 513.917778 163.402645 
L 509.644259 162.085794 
L 505.370741 160.763539 
L 501.097222 159.439771 
L 496.823704 158.089386 
L 492.550185 156.733167 
L 488.276667 155.374682 
L 484.003148 154.005725 
L 479.72963 152.635297 
L 475.456111 151.25858 
L 471.182593 149.867197 
L 466.909074 148.47203 
L 462.635556 147.060836 
L 458.362037 145.638175 
L 454.088519 144.211727 
L 449.815 142.805796 
L 445.541481 141.378806 
L 441.267963 139.953562 
L 436.994444 138.524075 
L 432.720926 137.077331 
L 428.447407 135.617708 
L 424.173889 134.151823 
L 419.90037 132.688973 
L 415.626852 131.20417 
L 411.353333 129.733155 
L 407.079815 128.242263 
L 402.806296 126.746393 
L 398.532778 125.258343 
L 394.259259 123.76156 
L 389.985741 122.264098 
L 385.712222 120.774164 
L 381.438704 119.259941 
L 377.165185 117.751122 
L 372.891667 116.240868 
L 368.618148 114.729483 
L 364.34463 113.224757 
L 360.071111 111.695139 
L 355.797593 110.171098 
L 351.524074 108.631275 
L 347.250556 107.092505 
L 342.977037 105.575083 
L 338.703519 104.065838 
L 334.43 102.536251 
L 330.156481 101.006759 
L 325.882963 99.473588 
L 321.609444 97.939117 
L 317.335926 96.414868 
L 313.062407 94.891634 
L 308.788889 93.361556 
L 304.51537 91.777579 
L 300.241852 90.093822 
L 295.968333 88.261812 
L 291.694815 86.373848 
L 287.421296 84.398051 
L 283.147778 82.346572 
L 278.874259 80.258858 
L 274.600741 78.110787 
L 270.327222 75.936551 
L 266.053704 73.750838 
L 261.780185 71.554185 
L 257.506667 69.381571 
L 253.233148 67.186876 
L 248.95963 65.018222 
L 244.686111 62.854923 
L 240.412593 60.752697 
L 236.139074 58.717037 
L 231.865556 56.751949 
L 227.592037 54.866199 
L 223.318519 53.060977 
L 219.045 51.35857 
L 214.771481 49.779436 
L 210.497963 48.319738 
L 206.224444 46.991155 
L 201.950926 45.751183 
L 197.677407 44.504946 
L 193.403889 43.275367 
L 189.13037 42.045681 
L 184.856852 40.832598 
L 180.583333 39.641192 
L 176.309815 38.471359 
L 172.036296 37.318018 
L 167.762778 36.182615 
L 163.489259 35.085905 
L 159.215741 33.994191 
L 154.942222 32.935345 
L 150.668704 31.900854 
L 146.395185 30.89772 
L 142.121667 29.931937 
L 137.848148 28.994692 
L 133.57463 28.095372 
L 129.301111 27.229989 
L 125.027593 26.408375 
L 120.754074 25.626334 
L 116.480556 24.887574 
L 112.207037 24.195265 
L 107.933519 23.552187 
L 103.66 22.9575 
z
" style="fill:#e1cd9c;fill-opacity:0.5;"/>
   </g>
   <g id="PolyCollection_3">
    <path clip-path="url(#pc3e4636d42)" d="M 103.66 22.9575 
L 103.66 22.9575 
L 107.933519 23.229166 
L 112.207037 23.552005 
L 116.480556 23.92386 
L 120.754074 24.345318 
L 125.027593 24.811087 
L 129.301111 25.317966 
L 133.57463 25.866285 
L 137.848148 26.455265 
L 142.121667 27.079411 
L 146.395185 27.741988 
L 150.668704 28.431467 
L 154.942222 29.156345 
L 159.215741 29.917928 
L 163.489259 30.699157 
L 167.762778 31.507685 
L 172.036296 32.324904 
L 176.309815 33.177517 
L 180.583333 34.042883 
L 184.856852 34.928711 
L 189.13037 35.823446 
L 193.403889 36.751296 
L 197.677407 37.689086 
L 201.950926 38.632883 
L 206.224444 39.570179 
L 210.497963 40.573566 
L 214.771481 41.695887 
L 219.045 42.929387 
L 223.318519 44.253963 
L 227.592037 45.667864 
L 231.865556 47.172769 
L 236.139074 48.739845 
L 240.412593 50.372532 
L 244.686111 52.063914 
L 248.95963 53.791288 
L 253.233148 55.55359 
L 257.506667 57.340463 
L 261.780185 59.151115 
L 266.053704 60.990896 
L 270.327222 62.810873 
L 274.600741 64.641612 
L 278.874259 66.447289 
L 283.147778 68.224225 
L 287.421296 69.959628 
L 291.694815 71.651561 
L 295.968333 73.309952 
L 300.241852 74.922536 
L 304.51537 76.47909 
L 308.788889 77.943642 
L 313.062407 79.380446 
L 317.335926 80.804625 
L 321.609444 82.234942 
L 325.882963 83.655824 
L 330.156481 85.085101 
L 334.43 86.514621 
L 338.703519 87.946686 
L 342.977037 89.390221 
L 347.250556 90.833773 
L 351.524074 92.250116 
L 355.797593 93.692648 
L 360.071111 95.135582 
L 364.34463 96.571031 
L 368.618148 97.995765 
L 372.891667 99.42548 
L 377.165185 100.868688 
L 381.438704 102.313919 
L 385.712222 103.743673 
L 389.985741 105.173083 
L 394.259259 106.604861 
L 398.532778 108.040453 
L 402.806296 109.465589 
L 407.079815 110.886547 
L 411.353333 112.334356 
L 415.626852 113.785425 
L 419.90037 115.218069 
L 424.173889 116.632503 
L 428.447407 118.049392 
L 432.720926 119.488562 
L 436.994444 120.91145 
L 441.267963 122.339634 
L 445.541481 123.757468 
L 449.815 125.183762 
L 454.088519 126.602149 
L 458.362037 128.004542 
L 462.635556 129.397207 
L 466.909074 130.808922 
L 471.182593 132.213095 
L 475.456111 133.593718 
L 479.72963 134.979801 
L 484.003148 136.377813 
L 488.276667 137.766242 
L 492.550185 139.144841 
L 496.823704 140.521282 
L 501.097222 141.90221 
L 505.370741 143.28551 
L 509.644259 144.658878 
L 513.917778 146.040587 
L 518.191296 147.419031 
L 522.464815 148.796689 
L 526.738333 150.151516 
L 531.011852 151.503158 
L 535.28537 152.84869 
L 539.558889 154.185322 
L 543.832407 155.521457 
L 548.105926 156.869558 
L 552.379444 158.214733 
L 556.652963 159.541707 
L 560.926481 160.874556 
L 565.2 162.179934 
L 565.2 194.628847 
L 565.2 194.628847 
L 560.926481 194.104281 
L 556.652963 193.544489 
L 552.379444 192.950018 
L 548.105926 192.32136 
L 543.832407 191.659052 
L 539.558889 190.963615 
L 535.28537 190.23557 
L 531.011852 189.475441 
L 526.738333 188.68374 
L 522.464815 187.860999 
L 518.191296 187.007738 
L 513.917778 186.124473 
L 509.644259 185.211727 
L 505.370741 184.270012 
L 501.097222 183.299859 
L 496.823704 182.301787 
L 492.550185 181.276318 
L 488.276667 180.22397 
L 484.003148 179.145259 
L 479.72963 178.040715 
L 475.456111 176.910874 
L 471.182593 175.756243 
L 466.909074 174.57734 
L 462.635556 173.374688 
L 458.362037 172.148806 
L 454.088519 170.900212 
L 449.815 169.629432 
L 445.541481 168.336987 
L 441.267963 167.023397 
L 436.994444 165.68919 
L 432.720926 164.33487 
L 428.447407 162.960974 
L 424.173889 161.568022 
L 419.90037 160.15653 
L 415.626852 158.727019 
L 411.353333 157.280012 
L 407.079815 155.816029 
L 402.806296 154.335586 
L 398.532778 152.839205 
L 394.259259 151.327415 
L 389.985741 149.800745 
L 385.712222 148.259704 
L 381.438704 146.704804 
L 377.165185 145.136575 
L 372.891667 143.555538 
L 368.618148 141.962214 
L 364.34463 140.357126 
L 360.071111 138.740802 
L 355.797593 137.113758 
L 351.524074 135.476512 
L 347.250556 133.829585 
L 342.977037 132.173498 
L 338.703519 130.508771 
L 334.43 128.835921 
L 330.156481 127.155473 
L 325.882963 125.467946 
L 321.609444 123.77387 
L 317.335926 122.073761 
L 313.062407 120.368133 
L 308.788889 118.657522 
L 304.51537 116.878636 
L 300.241852 114.974846 
L 295.968333 112.956661 
L 291.694815 110.834586 
L 287.421296 108.619126 
L 283.147778 106.320787 
L 278.874259 103.950071 
L 274.600741 101.517486 
L 270.327222 99.033536 
L 266.053704 96.508721 
L 261.780185 93.953552 
L 257.506667 91.378534 
L 253.233148 88.794166 
L 248.95963 86.21096 
L 244.686111 83.639414 
L 240.412593 81.090029 
L 236.139074 78.57332 
L 231.865556 76.099788 
L 227.592037 73.679939 
L 223.318519 71.324275 
L 219.045 69.043303 
L 214.771481 66.847526 
L 210.497963 64.74745 
L 206.224444 62.753579 
L 201.950926 60.825685 
L 197.677407 58.916932 
L 193.403889 57.027906 
L 189.13037 55.159196 
L 184.856852 53.31139 
L 180.583333 51.485077 
L 176.309815 49.680845 
L 172.036296 47.899283 
L 167.762778 46.140979 
L 163.489259 44.406522 
L 159.215741 42.6965 
L 154.942222 41.011501 
L 150.668704 39.352115 
L 146.395185 37.718929 
L 142.121667 36.11253 
L 137.848148 34.533508 
L 133.57463 32.982451 
L 129.301111 31.459949 
L 125.027593 29.966588 
L 120.754074 28.502957 
L 116.480556 27.069644 
L 112.207037 25.667239 
L 107.933519 24.296328 
L 103.66 22.9575 
z
" style="fill:#93ffba;fill-opacity:0.5;"/>
   </g>
   <g id="PolyCollection_4">
    <path clip-path="url(#pc3e4636d42)" d="M 103.66 22.9575 
L 103.66 22.9575 
L 149.010192 22.9575 
L 149.010192 22.9575 
L 150.835432 22.9575 
L 150.835432 22.9575 
L 150.975835 22.9575 
L 150.975835 22.9575 
L 152.09906 22.9575 
L 152.09906 22.9575 
L 152.520269 22.9575 
L 152.520269 45.384768 
L 153.503091 45.384768 
L 153.503091 45.384768 
L 153.783897 45.384768 
L 153.783897 45.384768 
L 153.9243 45.384768 
L 153.9243 48.587673 
L 154.205106 48.587673 
L 154.205106 48.587673 
L 154.345509 48.587673 
L 154.345509 48.587673 
L 154.485912 48.587673 
L 154.485912 48.587673 
L 154.626315 48.587673 
L 154.626315 48.587673 
L 155.328331 48.587673 
L 155.328331 48.587673 
L 155.74954 48.587673 
L 155.74954 48.587673 
L 156.732361 48.587673 
L 156.732361 48.587673 
L 157.293974 48.587673 
L 157.293974 48.587673 
L 157.434377 48.587673 
L 157.434377 48.587673 
L 157.57478 48.587673 
L 157.57478 48.587673 
L 157.715183 48.587673 
L 157.715183 48.587673 
L 158.276795 48.587673 
L 158.276795 48.587673 
L 158.838407 48.587673 
L 158.838407 48.587673 
L 159.259617 48.587673 
L 159.259617 48.587673 
L 159.40002 48.587673 
L 159.40002 48.587673 
L 159.540423 48.587673 
L 159.540423 48.587673 
L 159.680826 48.587673 
L 159.680826 48.587673 
L 159.821229 48.587673 
L 159.821229 48.587673 
L 160.102035 48.587673 
L 160.102035 48.587673 
L 160.382841 48.587673 
L 160.382841 48.587673 
L 160.523244 48.587673 
L 160.523244 48.587673 
L 162.62929 48.587673 
L 162.62929 48.587673 
L 163.0505 48.587673 
L 163.0505 56.744966 
L 163.752515 56.744966 
L 163.752515 56.744966 
L 164.45453 56.744966 
L 164.45453 56.744966 
L 165.156546 56.744966 
L 165.156546 56.744966 
L 166.981786 56.744966 
L 166.981786 56.744966 
L 167.262592 56.744966 
L 167.262592 56.744966 
L 167.964607 56.744966 
L 167.964607 56.744966 
L 168.10501 56.744966 
L 168.10501 64.706367 
L 170.632266 64.706367 
L 170.632266 64.706367 
L 172.176699 64.706367 
L 172.176699 64.706367 
L 172.457506 64.706367 
L 172.457506 72.208934 
L 174.423149 72.208934 
L 174.423149 72.208934 
L 175.546373 72.208934 
L 175.546373 79.570293 
L 177.512016 79.570293 
L 177.512016 86.552179 
L 185.234185 86.552179 
L 185.234185 86.552179 
L 190.990711 86.552179 
L 190.990711 86.552179 
L 195.0624 86.552179 
L 195.0624 86.552179 
L 196.747237 86.552179 
L 196.747237 86.552179 
L 198.71288 86.552179 
L 198.71288 86.552179 
L 198.993686 86.552179 
L 198.993686 86.552179 
L 200.959329 86.552179 
L 200.959329 94.424888 
L 201.099732 94.424888 
L 201.099732 94.424888 
L 201.942151 94.424888 
L 201.942151 94.424888 
L 205.452228 94.424888 
L 205.452228 94.424888 
L 206.435049 94.424888 
L 206.435049 94.424888 
L 206.996661 94.424888 
L 206.996661 94.424888 
L 211.770366 94.424888 
L 211.770366 94.424888 
L 211.910769 94.424888 
L 211.910769 94.424888 
L 212.331978 94.424888 
L 212.331978 94.424888 
L 214.859233 94.424888 
L 214.859233 94.424888 
L 214.999636 94.424888 
L 214.999636 94.424888 
L 215.701652 94.424888 
L 215.701652 94.424888 
L 215.982458 94.424888 
L 215.982458 104.995023 
L 217.526892 104.995023 
L 217.526892 104.995023 
L 218.36931 104.995023 
L 218.36931 104.995023 
L 220.334953 104.995023 
L 220.334953 115.577335 
L 229.039944 115.577335 
L 229.039944 115.577335 
L 229.180347 115.577335 
L 229.180347 115.577335 
L 230.443974 115.577335 
L 230.443974 115.577335 
L 235.077276 115.577335 
L 235.077276 126.773883 
L 238.868159 126.773883 
L 238.868159 137.351271 
L 243.361057 137.351271 
L 243.361057 147.468642 
L 246.449925 147.468642 
L 246.449925 147.468642 
L 253.048869 147.468642 
L 253.048869 147.468642 
L 254.593303 147.468642 
L 254.593303 147.468642 
L 255.997334 147.468642 
L 255.997334 147.468642 
L 259.788217 147.468642 
L 259.788217 147.468642 
L 263.719503 147.468642 
L 263.719503 147.468642 
L 266.80837 147.468642 
L 266.80837 160.366327 
L 273.407315 160.366327 
L 273.407315 160.366327 
L 280.006259 160.366327 
L 280.006259 160.366327 
L 280.989081 160.366327 
L 280.989081 160.366327 
L 284.499157 160.366327 
L 284.499157 160.366327 
L 288.149637 160.366327 
L 288.149637 160.366327 
L 308.36768 160.366327 
L 308.36768 176.769847 
L 309.069695 176.769847 
L 309.069695 191.973749 
L 309.210098 191.973749 
L 309.210098 191.973749 
L 312.01816 191.973749 
L 312.01816 191.973749 
L 317.774686 191.973749 
L 317.774686 191.973749 
L 317.915089 191.973749 
L 317.915089 191.973749 
L 332.236202 191.973749 
L 332.236202 211.652228 
L 348.944168 211.652228 
L 348.944168 211.652228 
L 358.491577 211.652228 
L 358.491577 231.487182 
L 363.124878 231.487182 
L 363.124878 231.487182 
L 383.623727 231.487182 
L 383.623727 254.49205 
L 386.010579 254.49205 
L 386.010579 254.49205 
L 412.546759 254.49205 
L 412.546759 254.49205 
L 454.527278 254.49205 
L 454.527278 254.49205 
L 460.143401 254.49205 
L 460.143401 288.216383 
L 463.793881 288.216383 
L 463.793881 288.216383 
L 489.628046 288.216383 
L 489.628046 288.216383 
L 507.59964 288.216383 
L 507.59964 288.216383 
L 534.276223 288.216383 
L 534.276223 288.216383 
L 536.803479 288.216383 
L 536.803479 370.336193 
L 686.473154 370.336193 
L 686.473154 370.336193 
L 686.473154 169.666995 
L 686.473154 169.666995 
L 686.473154 169.666995 
L 536.803479 169.666995 
L 536.803479 144.658474 
L 534.276223 144.658474 
L 534.276223 144.658474 
L 507.59964 144.658474 
L 507.59964 144.658474 
L 489.628046 144.658474 
L 489.628046 144.658474 
L 463.793881 144.658474 
L 463.793881 144.658474 
L 460.143401 144.658474 
L 460.143401 127.403169 
L 454.527278 127.403169 
L 454.527278 127.403169 
L 412.546759 127.403169 
L 412.546759 127.403169 
L 386.010579 127.403169 
L 386.010579 127.403169 
L 383.623727 127.403169 
L 383.623727 113.885562 
L 363.124878 113.885562 
L 363.124878 113.885562 
L 358.491577 113.885562 
L 358.491577 102.323994 
L 348.944168 102.323994 
L 348.944168 102.323994 
L 332.236202 102.323994 
L 332.236202 91.953247 
L 317.915089 91.953247 
L 317.915089 91.953247 
L 317.774686 91.953247 
L 317.774686 91.953247 
L 312.01816 91.953247 
L 312.01816 91.953247 
L 309.210098 91.953247 
L 309.210098 91.953247 
L 309.069695 91.953247 
L 309.069695 83.267687 
L 308.36768 83.267687 
L 308.36768 75.088161 
L 288.149637 75.088161 
L 288.149637 75.088161 
L 284.499157 75.088161 
L 284.499157 75.088161 
L 280.989081 75.088161 
L 280.989081 75.088161 
L 280.006259 75.088161 
L 280.006259 75.088161 
L 273.407315 75.088161 
L 273.407315 75.088161 
L 266.80837 75.088161 
L 266.80837 68.17247 
L 263.719503 68.17247 
L 263.719503 68.17247 
L 259.788217 68.17247 
L 259.788217 68.17247 
L 255.997334 68.17247 
L 255.997334 68.17247 
L 254.593303 68.17247 
L 254.593303 68.17247 
L 253.048869 68.17247 
L 253.048869 68.17247 
L 246.449925 68.17247 
L 246.449925 68.17247 
L 243.361057 68.17247 
L 243.361057 62.279432 
L 238.868159 62.279432 
L 238.868159 56.606202 
L 235.077276 56.606202 
L 235.077276 51.192952 
L 230.443974 51.192952 
L 230.443974 51.192952 
L 229.180347 51.192952 
L 229.180347 51.192952 
L 229.039944 51.192952 
L 229.039944 51.192952 
L 220.334953 51.192952 
L 220.334953 46.293815 
L 218.36931 46.293815 
L 218.36931 46.293815 
L 217.526892 46.293815 
L 217.526892 46.293815 
L 215.982458 46.293815 
L 215.982458 41.808977 
L 215.701652 41.808977 
L 215.701652 41.808977 
L 214.999636 41.808977 
L 214.999636 41.808977 
L 214.859233 41.808977 
L 214.859233 41.808977 
L 212.331978 41.808977 
L 212.331978 41.808977 
L 211.910769 41.808977 
L 211.910769 41.808977 
L 211.770366 41.808977 
L 211.770366 41.808977 
L 206.996661 41.808977 
L 206.996661 41.808977 
L 206.435049 41.808977 
L 206.435049 41.808977 
L 205.452228 41.808977 
L 205.452228 41.808977 
L 201.942151 41.808977 
L 201.942151 41.808977 
L 201.099732 41.808977 
L 201.099732 41.808977 
L 200.959329 41.808977 
L 200.959329 38.106344 
L 198.993686 38.106344 
L 198.993686 38.106344 
L 198.71288 38.106344 
L 198.71288 38.106344 
L 196.747237 38.106344 
L 196.747237 38.106344 
L 195.0624 38.106344 
L 195.0624 38.106344 
L 190.990711 38.106344 
L 190.990711 38.106344 
L 185.234185 38.106344 
L 185.234185 38.106344 
L 177.512016 38.106344 
L 177.512016 34.816375 
L 175.546373 34.816375 
L 175.546373 31.727417 
L 174.423149 31.727417 
L 174.423149 31.727417 
L 172.457506 31.727417 
L 172.457506 28.943348 
L 172.176699 28.943348 
L 172.176699 28.943348 
L 170.632266 28.943348 
L 170.632266 28.943348 
L 168.10501 28.943348 
L 168.10501 26.523282 
L 167.964607 26.523282 
L 167.964607 26.523282 
L 167.262592 26.523282 
L 167.262592 26.523282 
L 166.981786 26.523282 
L 166.981786 26.523282 
L 165.156546 26.523282 
L 165.156546 26.523282 
L 164.45453 26.523282 
L 164.45453 26.523282 
L 163.752515 26.523282 
L 163.752515 26.523282 
L 163.0505 26.523282 
L 163.0505 24.616886 
L 162.62929 24.616886 
L 162.62929 24.616886 
L 160.523244 24.616886 
L 160.523244 24.616886 
L 160.382841 24.616886 
L 160.382841 24.616886 
L 160.102035 24.616886 
L 160.102035 24.616886 
L 159.821229 24.616886 
L 159.821229 24.616886 
L 159.680826 24.616886 
L 159.680826 24.616886 
L 159.540423 24.616886 
L 159.540423 24.616886 
L 159.40002 24.616886 
L 159.40002 24.616886 
L 159.259617 24.616886 
L 159.259617 24.616886 
L 158.838407 24.616886 
L 158.838407 24.616886 
L 158.276795 24.616886 
L 158.276795 24.616886 
L 157.715183 24.616886 
L 157.715183 24.616886 
L 157.57478 24.616886 
L 157.57478 24.616886 
L 157.434377 24.616886 
L 157.434377 24.616886 
L 157.293974 24.616886 
L 157.293974 24.616886 
L 156.732361 24.616886 
L 156.732361 24.616886 
L 155.74954 24.616886 
L 155.74954 24.616886 
L 155.328331 24.616886 
L 155.328331 24.616886 
L 154.626315 24.616886 
L 154.626315 24.616886 
L 154.485912 24.616886 
L 154.485912 24.616886 
L 154.345509 24.616886 
L 154.345509 24.616886 
L 154.205106 24.616886 
L 154.205106 24.616886 
L 153.9243 24.616886 
L 153.9243 23.416926 
L 153.783897 23.416926 
L 153.783897 23.416926 
L 153.503091 23.416926 
L 153.503091 23.416926 
L 152.520269 23.416926 
L 152.520269 22.9575 
L 152.09906 22.9575 
L 152.09906 22.9575 
L 150.975835 22.9575 
L 150.975835 22.9575 
L 150.835432 22.9575 
L 150.835432 22.9575 
L 149.010192 22.9575 
L 149.010192 22.9575 
L 103.66 22.9575 
z
" style="fill:#9c3190;fill-opacity:0.5;stroke:#9c3190;stroke-opacity:0.5;"/>
   </g>
   <g id="matplotlib.axis_1">
    <g id="xtick_1">
     <g id="line2d_1">
      <defs>
       <path d="M 0 0 
L 0 3.5 
" id="m461c59fc3b" style="stroke:#000000;stroke-width:0.8;"/>
      </defs>
      <g>
       <use style="stroke:#000000;stroke-width:0.8;" x="103.66" xlink:href="#m461c59fc3b" y="377.06"/>
      </g>
     </g>
     <g id="text_1">
      <text style="font-family:DejaVu Sans;font-size:32px;font-style:normal;font-weight:normal;text-anchor:middle;" transform="rotate(-0, 103.66, 408.375)" x="103.66" y="408.375">0</text>
     </g>
    </g>
    <g id="xtick_2">
     <g id="line2d_2">
      <g>
       <use style="stroke:#000000;stroke-width:0.8;" x="317.335926" xlink:href="#m461c59fc3b" y="377.06"/>
      </g>
     </g>
     <g id="text_2">
      <text style="font-family:DejaVu Sans;font-size:32px;font-style:normal;font-weight:normal;text-anchor:middle;" transform="rotate(-0, 317.335926, 408.375)" x="317.335926" y="408.375">50</text>
     </g>
    </g>
    <g id="xtick_3">
     <g id="line2d_3">
      <g>
       <use style="stroke:#000000;stroke-width:0.8;" x="531.011852" xlink:href="#m461c59fc3b" y="377.06"/>
      </g>
     </g>
     <g id="text_3">
      <text style="font-family:DejaVu Sans;font-size:32px;font-style:normal;font-weight:normal;text-anchor:middle;" transform="rotate(-0, 531.011852, 408.375)" x="531.011852" y="408.375">100</text>
     </g>
    </g>
    <g id="text_4">
     <text style="font-family:DejaVu Sans;font-size:32px;font-style:normal;font-weight:normal;text-anchor:middle;" transform="rotate(-0, 334.43, 443.345)" x="334.43" y="443.345">Time (months)</text>
    </g>
   </g>
   <g id="matplotlib.axis_2">
    <g id="ytick_1">
     <g id="line2d_4">
      <defs>
       <path d="M 0 0 
L -3.5 0 
" id="ma57a118bf9" style="stroke:#000000;stroke-width:0.8;"/>
      </defs>
      <g>
       <use style="stroke:#000000;stroke-width:0.8;" x="103.66" xlink:href="#ma57a118bf9" y="377.06"/>
      </g>
     </g>
     <g id="text_5">
      <text style="font-family:DejaVu Sans;font-size:32px;font-style:normal;font-weight:normal;text-anchor:end;" transform="rotate(-0, 96.66, 389.2175)" x="96.66" y="389.2175">0.0</text>
     </g>
    </g>
    <g id="ytick_2">
     <g id="line2d_5">
      <g>
       <use style="stroke:#000000;stroke-width:0.8;" x="103.66" xlink:href="#ma57a118bf9" y="306.2395"/>
      </g>
     </g>
     <g id="text_6">
      <text style="font-family:DejaVu Sans;font-size:32px;font-style:normal;font-weight:normal;text-anchor:end;" transform="rotate(-0, 96.66, 318.397)" x="96.66" y="318.397">0.2</text>
     </g>
    </g>
    <g id="ytick_3">
     <g id="line2d_6">
      <g>
       <use style="stroke:#000000;stroke-width:0.8;" x="103.66" xlink:href="#ma57a118bf9" y="235.419"/>
      </g>
     </g>
     <g id="text_7">
      <text style="font-family:DejaVu Sans;font-size:32px;font-style:normal;font-weight:normal;text-anchor:end;" transform="rotate(-0, 96.66, 247.5765)" x="96.66" y="247.5765">0.4</text>
     </g>
    </g>
    <g id="ytick_4">
     <g id="line2d_7">
      <g>
       <use style="stroke:#000000;stroke-width:0.8;" x="103.66" xlink:href="#ma57a118bf9" y="164.5985"/>
      </g>
     </g>
     <g id="text_8">
      <text style="font-family:DejaVu Sans;font-size:32px;font-style:normal;font-weight:normal;text-anchor:end;" transform="rotate(-0, 96.66, 176.756)" x="96.66" y="176.756">0.6</text>
     </g>
    </g>
    <g id="ytick_5">
     <g id="line2d_8">
      <g>
       <use style="stroke:#000000;stroke-width:0.8;" x="103.66" xlink:href="#ma57a118bf9" y="93.778"/>
      </g>
     </g>
     <g id="text_9">
      <text style="font-family:DejaVu Sans;font-size:32px;font-style:normal;font-weight:normal;text-anchor:end;" transform="rotate(-0, 96.66, 105.9355)" x="96.66" y="105.9355">0.8</text>
     </g>
    </g>
    <g id="ytick_6">
     <g id="line2d_9">
      <g>
       <use style="stroke:#000000;stroke-width:0.8;" x="103.66" xlink:href="#ma57a118bf9" y="22.9575"/>
      </g>
     </g>
     <g id="text_10">
      <text style="font-family:DejaVu Sans;font-size:32px;font-style:normal;font-weight:normal;text-anchor:end;" transform="rotate(-0, 96.66, 35.115)" x="96.66" y="35.115">1.0</text>
     </g>
    </g>
    <g id="text_11">
     <text style="font-family:DejaVu Sans;font-size:32px;font-style:normal;font-weight:normal;text-anchor:middle;" transform="rotate(-90, 35.115, 200.00875)" x="35.115" y="200.00875">Probability of survival</text>
    </g>
   </g>
   <g id="line2d_10">
    <path clip-path="url(#pc3e4636d42)" d="M 103.66 22.9575 
L 152.520269 22.9575 
L 152.520269 26.206147 
L 153.9243 26.206147 
L 153.9243 29.547612 
L 163.0505 29.547612 
L 163.0505 34.06076 
L 168.10501 34.06076 
L 168.10501 38.960749 
L 172.457506 38.960749 
L 172.457506 44.007007 
L 175.546373 44.007007 
L 175.546373 49.21096 
L 177.512016 49.21096 
L 177.512016 54.414913 
L 200.959329 54.414913 
L 200.959329 60.176432 
L 215.982458 60.176432 
L 215.982458 67.378331 
L 220.334953 67.378331 
L 220.334953 74.931543 
L 235.077276 74.931543 
L 235.077276 83.097177 
L 238.868159 83.097177 
L 238.868159 91.262811 
L 243.361057 91.262811 
L 243.361057 99.428445 
L 266.80837 99.428445 
L 266.80837 109.343857 
L 308.36768 109.343857 
L 308.36768 121.512773 
L 309.069695 121.512773 
L 309.069695 133.681689 
L 332.236202 133.681689 
L 332.236202 148.892833 
L 358.491577 148.892833 
L 358.491577 165.190488 
L 383.623727 165.190488 
L 383.623727 184.451353 
L 460.143401 184.451353 
L 460.143401 211.966874 
L 536.803479 211.966874 
L 536.803479 294.513437 
L 577 294.513437 
L 577 294.513437 
" style="fill:none;stroke:#9c3190;stroke-linecap:square;stroke-width:3;"/>
   </g>
   <g id="patch_3">
    <path d="M 103.66 377.06 
L 103.66 22.9575 
" style="fill:none;stroke:#000000;stroke-linecap:square;stroke-linejoin:miter;stroke-width:0.8;"/>
   </g>
   <g id="patch_4">
    <path d="M 565.2 377.06 
L 565.2 22.9575 
" style="fill:none;stroke:#000000;stroke-linecap:square;stroke-linejoin:miter;stroke-width:0.8;"/>
   </g>
   <g id="patch_5">
    <path d="M 103.66 377.06 
L 565.2 377.06 
" style="fill:none;stroke:#000000;stroke-linecap:square;stroke-linejoin:miter;stroke-width:0.8;"/>
   </g>
   <g id="patch_6">
    <path d="M 103.66 22.9575 
L 565.2 22.9575 
" style="fill:none;stroke:#000000;stroke-linecap:square;stroke-linejoin:miter;stroke-width:0.8;"/>
   </g>
   <g id="legend_1">
    <g id="patch_7">
     <path d="M 371.73 103.0125 
L 556.8 103.0125 
Q 559.2 103.0125 559.2 100.6125 
L 559.2 31.3575 
Q 559.2 28.9575 556.8 28.9575 
L 371.73 28.9575 
Q 369.33 28.9575 369.33 31.3575 
L 369.33 100.6125 
Q 369.33 103.0125 371.73 103.0125 
z
" style="fill:#ffffff;opacity:0.8;stroke:#cccccc;stroke-linejoin:miter;"/>
    </g>
    <g id="patch_8">
     <path d="M 374.13 42.875625 
L 398.13 42.875625 
L 398.13 34.475625 
L 374.13 34.475625 
z
" style="fill:#d60000;opacity:0.5;"/>
    </g>
    <g id="text_12">
     <text style="font-family:DejaVu Sans;font-size:12px;font-style:normal;font-weight:normal;text-anchor:start;" transform="rotate(-0, 407.73, 42.875625)" x="407.73" y="42.875625">Predicted survival (MLP)</text>
    </g>
    <g id="patch_9">
     <path d="M 374.13 60.489375 
L 398.13 60.489375 
L 398.13 52.089375 
L 374.13 52.089375 
z
" style="fill:#e1cd9c;opacity:0.5;"/>
    </g>
    <g id="text_13">
     <text style="font-family:DejaVu Sans;font-size:12px;font-style:normal;font-weight:normal;text-anchor:start;" transform="rotate(-0, 407.73, 60.489375)" x="407.73" y="60.489375">Predicted survival (CNN)</text>
    </g>
    <g id="patch_10">
     <path d="M 374.13 78.103125 
L 398.13 78.103125 
L 398.13 69.703125 
L 374.13 69.703125 
z
" style="fill:#93ffba;opacity:0.5;"/>
    </g>
    <g id="text_14">
     <text style="font-family:DejaVu Sans;font-size:12px;font-style:normal;font-weight:normal;text-anchor:start;" transform="rotate(-0, 407.73, 78.103125)" x="407.73" y="78.103125">Predicted survival (ViT)</text>
    </g>
    <g id="line2d_11">
     <path d="M 374.13 91.516875 
L 398.13 91.516875 
" style="fill:none;stroke:#9c3190;stroke-linecap:square;stroke-width:3;"/>
    </g>
    <g id="line2d_12"/>
    <g id="text_15">
     <text style="font-family:DejaVu Sans;font-size:12px;font-style:normal;font-weight:normal;text-anchor:start;" transform="rotate(-0, 407.73, 95.716875)" x="407.73" y="95.716875">Kaplan Meier Estimate</text>
    </g>
   </g>
  </g>
 </g>
 <defs>
  <clipPath id="pc3e4636d42">
   <rect height="354.1025" width="461.54" x="103.66" y="22.9575"/>
  </clipPath>
 </defs>
</svg>
