<?xml version="1.0" encoding="utf-8" standalone="no"?>
<!DOCTYPE svg PUBLIC "-//W3C//DTD SVG 1.1//EN"
  "http://www.w3.org/Graphics/SVG/1.1/DTD/svg11.dtd">
<!-- Created with matplotlib (https://matplotlib.org/) -->
<svg height="460.8pt" version="1.1" viewBox="0 0 576 460.8" width="576pt" xmlns="http://www.w3.org/2000/svg" xmlns:xlink="http://www.w3.org/1999/xlink">
 <metadata>
  <rdf:RDF xmlns:cc="http://creativecommons.org/ns#" xmlns:dc="http://purl.org/dc/elements/1.1/" xmlns:rdf="http://www.w3.org/1999/02/22-rdf-syntax-ns#">
   <cc:Work>
    <dc:type rdf:resource="http://purl.org/dc/dcmitype/StillImage"/>
    <dc:date>2022-02-15T18:48:27.850931</dc:date>
    <dc:format>image/svg+xml</dc:format>
    <dc:creator>
     <cc:Agent>
      <dc:title>Matplotlib v3.3.3, https://matplotlib.org/</dc:title>
     </cc:Agent>
    </dc:creator>
   </cc:Work>
  </rdf:RDF>
 </metadata>
 <defs>
  <style type="text/css">*{stroke-linecap:butt;stroke-linejoin:round;}</style>
 </defs>
 <g id="figure_1">
  <g id="patch_1">
   <path d="M 0 460.8 
L 576 460.8 
L 576 0 
L 0 0 
z
" style="fill:#ffffff;"/>
  </g>
  <g id="axes_1">
   <g id="patch_2">
    <path d="M 103.66 377.06 
L 565.2 377.06 
L 565.2 22.9575 
L 103.66 22.9575 
z
" style="fill:#ffffff;"/>
   </g>
   <g id="PolyCollection_1">
    <defs>
     <path d="M 103.66 -437.8425 
L 103.66 -437.8425 
L 149.993014 -437.8425 
L 149.993014 -414.368471 
L 150.835432 -414.368471 
L 150.835432 -411.388934 
L 150.975835 -411.388934 
L 150.975835 -407.119936 
L 151.677851 -407.119936 
L 151.677851 -402.704516 
L 151.818254 -402.704516 
L 151.818254 -402.704516 
L 152.09906 -402.704516 
L 152.09906 -398.229423 
L 152.239463 -398.229423 
L 152.239463 -393.821158 
L 152.801075 -393.821158 
L 152.801075 -393.821158 
L 153.362688 -393.821158 
L 153.362688 -393.821158 
L 153.643494 -393.821158 
L 153.643494 -393.821158 
L 154.064703 -393.821158 
L 154.064703 -384.638021 
L 154.485912 -384.638021 
L 154.485912 -380.174319 
L 154.626315 -380.174319 
L 154.626315 -380.174319 
L 154.766718 -380.174319 
L 154.766718 -371.304594 
L 154.907121 -371.304594 
L 154.907121 -371.304594 
L 155.187928 -371.304594 
L 155.187928 -371.304594 
L 155.74954 -371.304594 
L 155.74954 -362.383914 
L 156.591958 -362.383914 
L 156.591958 -358.005743 
L 157.293974 -358.005743 
L 157.293974 -353.674791 
L 158.276795 -353.674791 
L 158.276795 -353.674791 
L 158.557601 -353.674791 
L 158.557601 -353.674791 
L 158.978811 -353.674791 
L 158.978811 -353.674791 
L 159.40002 -353.674791 
L 159.40002 -353.674791 
L 159.821229 -353.674791 
L 159.821229 -353.674791 
L 160.382841 -353.674791 
L 160.382841 -348.917473 
L 160.663647 -348.917473 
L 160.663647 -344.221186 
L 161.506066 -344.221186 
L 161.506066 -339.579555 
L 161.646469 -339.579555 
L 161.646469 -339.579555 
L 161.786872 -339.579555 
L 161.786872 -339.579555 
L 163.612112 -339.579555 
L 163.612112 -339.579555 
L 164.173724 -339.579555 
L 164.173724 -339.579555 
L 167.683801 -339.579555 
L 167.683801 -334.625529 
L 170.632266 -334.625529 
L 170.632266 -334.625529 
L 171.474684 -334.625529 
L 171.474684 -329.63394 
L 172.036296 -329.63394 
L 172.036296 -324.70175 
L 173.861536 -324.70175 
L 173.861536 -319.823673 
L 174.563552 -319.823673 
L 174.563552 -319.823673 
L 175.40597 -319.823673 
L 175.40597 -319.823673 
L 178.635241 -319.823673 
L 178.635241 -314.787971 
L 180.039271 -314.787971 
L 180.039271 -314.787971 
L 194.500788 -314.787971 
L 194.500788 -314.787971 
L 195.904819 -314.787971 
L 195.904819 -314.787971 
L 199.134089 -314.787971 
L 199.134089 -314.787971 
L 200.678523 -314.787971 
L 200.678523 -309.206421 
L 201.661345 -309.206421 
L 201.661345 -303.699827 
L 202.924972 -303.699827 
L 202.924972 -298.261716 
L 203.767391 -298.261716 
L 203.767391 -298.261716 
L 203.907794 -298.261716 
L 203.907794 -292.749742 
L 204.750212 -292.749742 
L 204.750212 -292.749742 
L 204.890615 -292.749742 
L 204.890615 -287.005999 
L 205.873437 -287.005999 
L 205.873437 -287.005999 
L 206.01384 -287.005999 
L 206.01384 -281.173788 
L 206.294646 -281.173788 
L 206.294646 -281.173788 
L 207.137064 -281.173788 
L 207.137064 -275.245133 
L 208.821901 -275.245133 
L 208.821901 -269.392116 
L 209.243111 -269.392116 
L 209.243111 -269.392116 
L 209.804723 -269.392116 
L 209.804723 -269.392116 
L 209.945126 -269.392116 
L 209.945126 -263.234217 
L 211.629963 -263.234217 
L 211.629963 -263.234217 
L 211.770366 -263.234217 
L 211.770366 -256.951541 
L 212.753187 -256.951541 
L 212.753187 -256.951541 
L 213.455203 -256.951541 
L 213.455203 -250.532377 
L 215.701652 -250.532377 
L 215.701652 -244.205083 
L 218.650116 -244.205083 
L 218.650116 -237.964453 
L 219.913744 -237.964453 
L 219.913744 -231.806157 
L 220.334953 -231.806157 
L 220.334953 -225.726601 
L 220.896566 -225.726601 
L 220.896566 -219.722821 
L 227.776316 -219.722821 
L 227.776316 -213.792394 
L 230.022765 -213.792394 
L 230.022765 -207.933381 
L 231.005587 -207.933381 
L 231.005587 -207.933381 
L 232.128811 -207.933381 
L 232.128811 -201.869548 
L 248.555971 -201.869548 
L 248.555971 -201.869548 
L 251.644838 -201.869548 
L 251.644838 -201.869548 
L 253.470078 -201.869548 
L 253.470078 -195.239597 
L 253.610481 -195.239597 
L 253.610481 -188.721334 
L 254.031691 -188.721334 
L 254.031691 -176.01066 
L 267.369983 -176.01066 
L 267.369983 -169.815738 
L 268.63361 -169.815738 
L 268.63361 -169.815738 
L 269.897238 -169.815738 
L 269.897238 -169.815738 
L 278.602228 -169.815738 
L 278.602228 -162.786588 
L 281.41029 -162.786588 
L 281.41029 -162.786588 
L 298.539465 -162.786588 
L 298.539465 -155.326522 
L 303.313169 -155.326522 
L 303.313169 -148.088627 
L 304.015184 -148.088627 
L 304.015184 -148.088627 
L 309.77171 -148.088627 
L 309.77171 -140.296 
L 311.316144 -140.296 
L 311.316144 -140.296 
L 313.000981 -140.296 
L 313.000981 -131.811397 
L 323.952421 -131.811397 
L 323.952421 -123.787998 
L 349.365377 -123.787998 
L 349.365377 -123.787998 
L 353.296663 -123.787998 
L 353.296663 -114.776654 
L 402.437738 -114.776654 
L 402.437738 -114.776654 
L 406.369024 -114.776654 
L 406.369024 -114.776654 
L 433.186011 -114.776654 
L 433.186011 -101.025622 
L 449.753574 -101.025622 
L 449.753574 -91.095558 
L 514.760196 -91.095558 
L 514.760196 -91.095558 
L 563.058853 -91.095558 
L 563.058853 -83.74 
L 563.058853 -83.74 
L 563.058853 -83.74 
L 563.058853 -165.468464 
L 514.760196 -165.468464 
L 514.760196 -165.468464 
L 449.753574 -165.468464 
L 449.753574 -180.684183 
L 433.186011 -180.684183 
L 433.186011 -193.263278 
L 406.369024 -193.263278 
L 406.369024 -193.263278 
L 402.437738 -193.263278 
L 402.437738 -193.263278 
L 353.296663 -193.263278 
L 353.296663 -203.68972 
L 349.365377 -203.68972 
L 349.365377 -203.68972 
L 323.952421 -203.68972 
L 323.952421 -213.065364 
L 313.000981 -213.065364 
L 313.000981 -222.111924 
L 311.316144 -222.111924 
L 311.316144 -222.111924 
L 309.77171 -222.111924 
L 309.77171 -230.435022 
L 304.015184 -230.435022 
L 304.015184 -230.435022 
L 303.313169 -230.435022 
L 303.313169 -238.181631 
L 298.539465 -238.181631 
L 298.539465 -245.768239 
L 281.41029 -245.768239 
L 281.41029 -245.768239 
L 278.602228 -245.768239 
L 278.602228 -252.909919 
L 269.897238 -252.909919 
L 269.897238 -252.909919 
L 268.63361 -252.909919 
L 268.63361 -252.909919 
L 267.369983 -252.909919 
L 267.369983 -259.433902 
L 254.031691 -259.433902 
L 254.031691 -272.238854 
L 253.610481 -272.238854 
L 253.610481 -278.520669 
L 253.470078 -278.520669 
L 253.470078 -284.721768 
L 251.644838 -284.721768 
L 251.644838 -284.721768 
L 248.555971 -284.721768 
L 248.555971 -284.721768 
L 232.128811 -284.721768 
L 232.128811 -290.508776 
L 231.005587 -290.508776 
L 231.005587 -290.508776 
L 230.022765 -290.508776 
L 230.022765 -296.086178 
L 227.776316 -296.086178 
L 227.776316 -301.609145 
L 220.896566 -301.609145 
L 220.896566 -307.077116 
L 220.334953 -307.077116 
L 220.334953 -312.489292 
L 219.913744 -312.489292 
L 219.913744 -317.844609 
L 218.650116 -317.844609 
L 218.650116 -323.141711 
L 215.701652 -323.141711 
L 215.701652 -328.378909 
L 213.455203 -328.378909 
L 213.455203 -333.554127 
L 212.753187 -333.554127 
L 212.753187 -333.554127 
L 211.770366 -333.554127 
L 211.770366 -338.566855 
L 211.629963 -338.566855 
L 211.629963 -338.566855 
L 209.945126 -338.566855 
L 209.945126 -343.42797 
L 209.804723 -343.42797 
L 209.804723 -343.42797 
L 209.243111 -343.42797 
L 209.243111 -343.42797 
L 208.821901 -343.42797 
L 208.821901 -348.065289 
L 207.137064 -348.065289 
L 207.137064 -352.651598 
L 206.294646 -352.651598 
L 206.294646 -352.651598 
L 206.01384 -352.651598 
L 206.01384 -357.111571 
L 205.873437 -357.111571 
L 205.873437 -357.111571 
L 204.890615 -357.111571 
L 204.890615 -361.451617 
L 204.750212 -361.451617 
L 204.750212 -361.451617 
L 203.907794 -361.451617 
L 203.907794 -365.615316 
L 203.767391 -365.615316 
L 203.767391 -365.615316 
L 202.924972 -365.615316 
L 202.924972 -369.674445 
L 201.661345 -369.674445 
L 201.661345 -373.687818 
L 200.678523 -373.687818 
L 200.678523 -377.652702 
L 199.134089 -377.652702 
L 199.134089 -377.652702 
L 195.904819 -377.652702 
L 195.904819 -377.652702 
L 194.500788 -377.652702 
L 194.500788 -377.652702 
L 180.039271 -377.652702 
L 180.039271 -377.652702 
L 178.635241 -377.652702 
L 178.635241 -381.3248 
L 175.40597 -381.3248 
L 175.40597 -381.3248 
L 174.563552 -381.3248 
L 174.563552 -381.3248 
L 173.861536 -381.3248 
L 173.861536 -384.869512 
L 172.036296 -384.869512 
L 172.036296 -388.374996 
L 171.474684 -388.374996 
L 171.474684 -391.838706 
L 170.632266 -391.838706 
L 170.632266 -391.838706 
L 167.683801 -391.838706 
L 167.683801 -395.220161 
L 164.173724 -395.220161 
L 164.173724 -395.220161 
L 163.612112 -395.220161 
L 163.612112 -395.220161 
L 161.786872 -395.220161 
L 161.786872 -395.220161 
L 161.646469 -395.220161 
L 161.646469 -395.220161 
L 161.506066 -395.220161 
L 161.506066 -398.417846 
L 160.663647 -398.417846 
L 160.663647 -401.574142 
L 160.382841 -401.574142 
L 160.382841 -404.685692 
L 159.821229 -404.685692 
L 159.821229 -404.685692 
L 159.40002 -404.685692 
L 159.40002 -404.685692 
L 158.978811 -404.685692 
L 158.978811 -404.685692 
L 158.557601 -404.685692 
L 158.557601 -404.685692 
L 158.276795 -404.685692 
L 158.276795 -404.685692 
L 157.293974 -404.685692 
L 157.293974 -407.579379 
L 156.591958 -407.579379 
L 156.591958 -410.430625 
L 155.74954 -410.430625 
L 155.74954 -415.988721 
L 155.187928 -415.988721 
L 155.187928 -415.988721 
L 154.907121 -415.988721 
L 154.907121 -415.988721 
L 154.766718 -415.988721 
L 154.766718 -421.23029 
L 154.626315 -421.23029 
L 154.626315 -421.23029 
L 154.485912 -421.23029 
L 154.485912 -423.731491 
L 154.064703 -423.731491 
L 154.064703 -428.48398 
L 153.643494 -428.48398 
L 153.643494 -428.48398 
L 153.362688 -428.48398 
L 153.362688 -428.48398 
L 152.801075 -428.48398 
L 152.801075 -428.48398 
L 152.239463 -428.48398 
L 152.239463 -430.640736 
L 152.09906 -430.640736 
L 152.09906 -432.668528 
L 151.818254 -432.668528 
L 151.818254 -432.668528 
L 151.677851 -432.668528 
L 151.677851 -434.51552 
L 150.975835 -434.51552 
L 150.975835 -436.127037 
L 150.835432 -436.127037 
L 150.835432 -437.360894 
L 149.993014 -437.360894 
L 149.993014 -437.8425 
L 103.66 -437.8425 
z
" id="m7b42d950cf" style="stroke:#fff123;stroke-opacity:0.2;"/>
    </defs>
    <g clip-path="url(#p1e18b2a16c)">
     <use style="fill:#fff123;fill-opacity:0.2;stroke:#fff123;stroke-opacity:0.2;" x="0" xlink:href="#m7b42d950cf" y="460.8"/>
    </g>
   </g>
   <g id="PolyCollection_2">
    <defs>
     <path d="M 103.66 -437.8425 
L 103.66 -437.8425 
L 127.107313 -437.8425 
L 127.107313 -437.8425 
L 140.024396 -437.8425 
L 140.024396 -437.8425 
L 146.061728 -437.8425 
L 146.061728 -437.8425 
L 148.44858 -437.8425 
L 148.44858 -413.921898 
L 148.869789 -413.921898 
L 148.869789 -410.885506 
L 150.975835 -410.885506 
L 150.975835 -406.53626 
L 151.958657 -406.53626 
L 151.958657 -406.53626 
L 153.503091 -406.53626 
L 153.503091 -406.53626 
L 153.643494 -406.53626 
L 153.643494 -401.760815 
L 154.626315 -401.760815 
L 154.626315 -397.064078 
L 154.766718 -397.064078 
L 154.766718 -392.453066 
L 154.907121 -392.453066 
L 154.907121 -387.921773 
L 155.047525 -387.921773 
L 155.047525 -387.921773 
L 155.889943 -387.921773 
L 155.889943 -387.921773 
L 156.030346 -387.921773 
L 156.030346 -383.3098 
L 156.732361 -383.3098 
L 156.732361 -378.698947 
L 157.013168 -378.698947 
L 157.013168 -378.698947 
L 157.715183 -378.698947 
L 157.715183 -378.698947 
L 157.855586 -378.698947 
L 157.855586 -378.698947 
L 157.995989 -378.698947 
L 157.995989 -378.698947 
L 158.698004 -378.698947 
L 158.698004 -378.698947 
L 159.540423 -378.698947 
L 159.540423 -373.662905 
L 159.680826 -373.662905 
L 159.680826 -373.662905 
L 160.80405 -373.662905 
L 160.80405 -373.662905 
L 161.22526 -373.662905 
L 161.22526 -373.662905 
L 161.646469 -373.662905 
L 161.646469 -368.451094 
L 162.208081 -368.451094 
L 162.208081 -368.451094 
L 164.735337 -368.451094 
L 164.735337 -368.451094 
L 166.139367 -368.451094 
L 166.139367 -368.451094 
L 171.053475 -368.451094 
L 171.053475 -368.451094 
L 171.615087 -368.451094 
L 171.615087 -368.451094 
L 172.036296 -368.451094 
L 172.036296 -368.451094 
L 172.317102 -368.451094 
L 172.317102 -362.712369 
L 172.457506 -362.712369 
L 172.457506 -357.113625 
L 172.738312 -357.113625 
L 172.738312 -357.113625 
L 173.159521 -357.113625 
L 173.159521 -357.113625 
L 175.40597 -357.113625 
L 175.40597 -357.113625 
L 175.546373 -357.113625 
L 175.546373 -357.113625 
L 176.248388 -357.113625 
L 176.248388 -351.14562 
L 187.76144 -351.14562 
L 187.76144 -345.310008 
L 188.884665 -345.310008 
L 188.884665 -345.310008 
L 195.764416 -345.310008 
L 195.764416 -345.310008 
L 197.589655 -345.310008 
L 197.589655 -339.322586 
L 198.572477 -339.322586 
L 198.572477 -339.322586 
L 201.801748 -339.322586 
L 201.801748 -339.322586 
L 201.942151 -339.322586 
L 201.942151 -339.322586 
L 202.784569 -339.322586 
L 202.784569 -339.322586 
L 203.346181 -339.322586 
L 203.346181 -339.322586 
L 205.311824 -339.322586 
L 205.311824 -332.690782 
L 205.873437 -332.690782 
L 205.873437 -326.207529 
L 207.558274 -326.207529 
L 207.558274 -326.207529 
L 207.83908 -326.207529 
L 207.83908 -319.504647 
L 208.119886 -319.504647 
L 208.119886 -319.504647 
L 208.962304 -319.504647 
L 208.962304 -319.504647 
L 213.595606 -319.504647 
L 213.595606 -319.504647 
L 219.632938 -319.504647 
L 219.632938 -319.504647 
L 219.913744 -319.504647 
L 219.913744 -319.504647 
L 221.317775 -319.504647 
L 221.317775 -319.504647 
L 223.704627 -319.504647 
L 223.704627 -319.504647 
L 225.67027 -319.504647 
L 225.67027 -319.504647 
L 226.231882 -319.504647 
L 226.231882 -319.504647 
L 229.039944 -319.504647 
L 229.039944 -319.504647 
L 230.443974 -319.504647 
L 230.443974 -310.530828 
L 232.409617 -310.530828 
L 232.409617 -310.530828 
L 235.077276 -310.530828 
L 235.077276 -310.530828 
L 239.85098 -310.530828 
L 239.85098 -310.530828 
L 240.833802 -310.530828 
L 240.833802 -300.823402 
L 241.114608 -300.823402 
L 241.114608 -291.470948 
L 244.624685 -291.470948 
L 244.624685 -291.470948 
L 247.292343 -291.470948 
L 247.292343 -291.470948 
L 253.750884 -291.470948 
L 253.750884 -281.606361 
L 254.172094 -281.606361 
L 254.172094 -281.606361 
L 254.593303 -281.606361 
L 254.593303 -281.606361 
L 255.295318 -281.606361 
L 255.295318 -281.606361 
L 256.699349 -281.606361 
L 256.699349 -281.606361 
L 257.120558 -281.606361 
L 257.120558 -281.606361 
L 259.226604 -281.606361 
L 259.226604 -281.606361 
L 259.788217 -281.606361 
L 259.788217 -281.606361 
L 261.75386 -281.606361 
L 261.75386 -281.606361 
L 262.596278 -281.606361 
L 262.596278 -281.606361 
L 267.931595 -281.606361 
L 267.931595 -264.872599 
L 269.897238 -264.872599 
L 269.897238 -264.872599 
L 273.547718 -264.872599 
L 273.547718 -264.872599 
L 282.252708 -264.872599 
L 282.252708 -246.815616 
L 284.077948 -246.815616 
L 284.077948 -246.815616 
L 308.086874 -246.815616 
L 308.086874 -246.815616 
L 328.02411 -246.815616 
L 328.02411 -226.814006 
L 333.921039 -226.814006 
L 333.921039 -208.659473 
L 358.21077 -208.659473 
L 358.21077 -208.659473 
L 365.932939 -208.659473 
L 365.932939 -189.795746 
L 392.46912 -189.795746 
L 392.46912 -189.795746 
L 446.524303 -189.795746 
L 446.524303 -189.795746 
L 452.702038 -189.795746 
L 452.702038 -166.374615 
L 464.636299 -166.374615 
L 464.636299 -166.374615 
L 467.163555 -166.374615 
L 467.163555 -166.374615 
L 469.269601 -166.374615 
L 469.269601 -166.374615 
L 497.069409 -166.374615 
L 497.069409 -166.374615 
L 506.055206 -166.374615 
L 506.055206 -166.374615 
L 507.59964 -166.374615 
L 507.59964 -166.374615 
L 516.164227 -166.374615 
L 516.164227 -166.374615 
L 516.164227 -294.604327 
L 516.164227 -294.604327 
L 516.164227 -294.604327 
L 507.59964 -294.604327 
L 507.59964 -294.604327 
L 506.055206 -294.604327 
L 506.055206 -294.604327 
L 497.069409 -294.604327 
L 497.069409 -294.604327 
L 469.269601 -294.604327 
L 469.269601 -294.604327 
L 467.163555 -294.604327 
L 467.163555 -294.604327 
L 464.636299 -294.604327 
L 464.636299 -294.604327 
L 452.702038 -294.604327 
L 452.702038 -309.963229 
L 446.524303 -309.963229 
L 446.524303 -309.963229 
L 392.46912 -309.963229 
L 392.46912 -309.963229 
L 365.932939 -309.963229 
L 365.932939 -322.837226 
L 358.21077 -322.837226 
L 358.21077 -322.837226 
L 333.921039 -322.837226 
L 333.921039 -334.374519 
L 328.02411 -334.374519 
L 328.02411 -345.013066 
L 308.086874 -345.013066 
L 308.086874 -345.013066 
L 284.077948 -345.013066 
L 284.077948 -345.013066 
L 282.252708 -345.013066 
L 282.252708 -354.240516 
L 273.547718 -354.240516 
L 273.547718 -354.240516 
L 269.897238 -354.240516 
L 269.897238 -354.240516 
L 267.931595 -354.240516 
L 267.931595 -362.335096 
L 262.596278 -362.335096 
L 262.596278 -362.335096 
L 261.75386 -362.335096 
L 261.75386 -362.335096 
L 259.788217 -362.335096 
L 259.788217 -362.335096 
L 259.226604 -362.335096 
L 259.226604 -362.335096 
L 257.120558 -362.335096 
L 257.120558 -362.335096 
L 256.699349 -362.335096 
L 256.699349 -362.335096 
L 255.295318 -362.335096 
L 255.295318 -362.335096 
L 254.593303 -362.335096 
L 254.593303 -362.335096 
L 254.172094 -362.335096 
L 254.172094 -362.335096 
L 253.750884 -362.335096 
L 253.750884 -368.54487 
L 247.292343 -368.54487 
L 247.292343 -368.54487 
L 244.624685 -368.54487 
L 244.624685 -368.54487 
L 241.114608 -368.54487 
L 241.114608 -374.346121 
L 240.833802 -374.346121 
L 240.833802 -379.971536 
L 239.85098 -379.971536 
L 239.85098 -379.971536 
L 235.077276 -379.971536 
L 235.077276 -379.971536 
L 232.409617 -379.971536 
L 232.409617 -379.971536 
L 230.443974 -379.971536 
L 230.443974 -385.150119 
L 229.039944 -385.150119 
L 229.039944 -385.150119 
L 226.231882 -385.150119 
L 226.231882 -385.150119 
L 225.67027 -385.150119 
L 225.67027 -385.150119 
L 223.704627 -385.150119 
L 223.704627 -385.150119 
L 221.317775 -385.150119 
L 221.317775 -385.150119 
L 219.913744 -385.150119 
L 219.913744 -385.150119 
L 219.632938 -385.150119 
L 219.632938 -385.150119 
L 213.595606 -385.150119 
L 213.595606 -385.150119 
L 208.962304 -385.150119 
L 208.962304 -385.150119 
L 208.119886 -385.150119 
L 208.119886 -385.150119 
L 207.83908 -385.150119 
L 207.83908 -389.493781 
L 207.558274 -389.493781 
L 207.558274 -389.493781 
L 205.873437 -389.493781 
L 205.873437 -393.640397 
L 205.311824 -393.640397 
L 205.311824 -397.704525 
L 203.346181 -397.704525 
L 203.346181 -397.704525 
L 202.784569 -397.704525 
L 202.784569 -397.704525 
L 201.942151 -397.704525 
L 201.942151 -397.704525 
L 201.801748 -397.704525 
L 201.801748 -397.704525 
L 198.572477 -397.704525 
L 198.572477 -397.704525 
L 197.589655 -397.704525 
L 197.589655 -401.446993 
L 195.764416 -401.446993 
L 195.764416 -401.446993 
L 188.884665 -401.446993 
L 188.884665 -401.446993 
L 187.76144 -401.446993 
L 187.76144 -405.031851 
L 176.248388 -405.031851 
L 176.248388 -408.540592 
L 175.546373 -408.540592 
L 175.546373 -408.540592 
L 175.40597 -408.540592 
L 175.40597 -408.540592 
L 173.159521 -408.540592 
L 173.159521 -408.540592 
L 172.738312 -408.540592 
L 172.738312 -408.540592 
L 172.457506 -408.540592 
L 172.457506 -411.826873 
L 172.317102 -411.826873 
L 172.317102 -415.033161 
L 172.036296 -415.033161 
L 172.036296 -415.033161 
L 171.615087 -415.033161 
L 171.615087 -415.033161 
L 171.053475 -415.033161 
L 171.053475 -415.033161 
L 166.139367 -415.033161 
L 166.139367 -415.033161 
L 164.735337 -415.033161 
L 164.735337 -415.033161 
L 162.208081 -415.033161 
L 162.208081 -415.033161 
L 161.646469 -415.033161 
L 161.646469 -417.981743 
L 161.22526 -417.981743 
L 161.22526 -417.981743 
L 160.80405 -417.981743 
L 160.80405 -417.981743 
L 159.680826 -417.981743 
L 159.680826 -417.981743 
L 159.540423 -417.981743 
L 159.540423 -420.775048 
L 158.698004 -420.775048 
L 158.698004 -420.775048 
L 157.995989 -420.775048 
L 157.995989 -420.775048 
L 157.855586 -420.775048 
L 157.855586 -420.775048 
L 157.715183 -420.775048 
L 157.715183 -420.775048 
L 157.013168 -420.775048 
L 157.013168 -420.775048 
L 156.732361 -420.775048 
L 156.732361 -423.354204 
L 156.030346 -423.354204 
L 156.030346 -425.832207 
L 155.889943 -425.832207 
L 155.889943 -425.832207 
L 155.047525 -425.832207 
L 155.047525 -425.832207 
L 154.907121 -425.832207 
L 154.907121 -428.180918 
L 154.766718 -428.180918 
L 154.766718 -430.421134 
L 154.626315 -430.421134 
L 154.626315 -432.525154 
L 153.643494 -432.525154 
L 153.643494 -434.449626 
L 153.503091 -434.449626 
L 153.503091 -434.449626 
L 151.958657 -434.449626 
L 151.958657 -434.449626 
L 150.975835 -434.449626 
L 150.975835 -436.09315 
L 148.869789 -436.09315 
L 148.869789 -437.351411 
L 148.44858 -437.351411 
L 148.44858 -437.8425 
L 146.061728 -437.8425 
L 146.061728 -437.8425 
L 140.024396 -437.8425 
L 140.024396 -437.8425 
L 127.107313 -437.8425 
L 127.107313 -437.8425 
L 103.66 -437.8425 
z
" id="m182f162547" style="stroke:#ef1875;stroke-opacity:0.2;"/>
    </defs>
    <g clip-path="url(#p1e18b2a16c)">
     <use style="fill:#ef1875;fill-opacity:0.2;stroke:#ef1875;stroke-opacity:0.2;" x="0" xlink:href="#m182f162547" y="460.8"/>
    </g>
   </g>
   <g id="PolyCollection_3">
    <defs>
     <path d="M 103.66 -437.8425 
L 103.66 -437.8425 
L 136.373916 -437.8425 
L 136.373916 -437.8425 
L 137.91835 -437.8425 
L 137.91835 -437.8425 
L 144.938503 -437.8425 
L 144.938503 -406.063681 
L 149.431402 -406.063681 
L 149.431402 -406.063681 
L 149.571805 -406.063681 
L 149.571805 -406.063681 
L 152.941478 -406.063681 
L 152.941478 -401.546442 
L 153.783897 -401.546442 
L 153.783897 -401.546442 
L 153.9243 -401.546442 
L 153.9243 -395.132438 
L 156.311152 -395.132438 
L 156.311152 -395.132438 
L 156.591958 -395.132438 
L 156.591958 -395.132438 
L 158.838407 -395.132438 
L 158.838407 -395.132438 
L 159.259617 -395.132438 
L 159.259617 -395.132438 
L 159.680826 -395.132438 
L 159.680826 -395.132438 
L 160.523244 -395.132438 
L 160.523244 -387.484685 
L 160.663647 -387.484685 
L 160.663647 -380.236643 
L 161.084857 -380.236643 
L 161.084857 -380.236643 
L 162.769694 -380.236643 
L 162.769694 -372.853843 
L 164.173724 -372.853843 
L 164.173724 -372.853843 
L 164.594933 -372.853843 
L 164.594933 -365.528841 
L 165.016143 -365.528841 
L 165.016143 -365.528841 
L 167.964607 -365.528841 
L 167.964607 -365.528841 
L 168.10501 -365.528841 
L 168.10501 -365.528841 
L 168.385816 -365.528841 
L 168.385816 -365.528841 
L 168.526219 -365.528841 
L 168.526219 -365.528841 
L 173.159521 -365.528841 
L 173.159521 -365.528841 
L 173.299924 -365.528841 
L 173.299924 -365.528841 
L 184.953379 -365.528841 
L 184.953379 -365.528841 
L 190.429099 -365.528841 
L 190.429099 -365.528841 
L 191.41192 -365.528841 
L 191.41192 -365.528841 
L 196.88764 -365.528841 
L 196.88764 -365.528841 
L 203.065375 -365.528841 
L 203.065375 -365.528841 
L 205.592631 -365.528841 
L 205.592631 -355.221119 
L 205.733034 -355.221119 
L 205.733034 -355.221119 
L 206.154243 -355.221119 
L 206.154243 -355.221119 
L 206.715855 -355.221119 
L 206.715855 -355.221119 
L 206.856258 -355.221119 
L 206.856258 -355.221119 
L 209.523917 -355.221119 
L 209.523917 -355.221119 
L 210.506738 -355.221119 
L 210.506738 -355.221119 
L 211.349157 -355.221119 
L 211.349157 -355.221119 
L 213.736009 -355.221119 
L 213.736009 -355.221119 
L 219.773341 -355.221119 
L 219.773341 -341.998365 
L 222.300596 -341.998365 
L 222.300596 -341.998365 
L 228.478331 -341.998365 
L 228.478331 -329.289494 
L 232.409617 -329.289494 
L 232.409617 -317.39899 
L 246.028715 -317.39899 
L 246.028715 -317.39899 
L 247.15194 -317.39899 
L 247.15194 -305.543353 
L 251.083226 -305.543353 
L 251.083226 -294.21426 
L 253.470078 -294.21426 
L 253.470078 -294.21426 
L 255.576124 -294.21426 
L 255.576124 -294.21426 
L 259.788217 -294.21426 
L 259.788217 -294.21426 
L 263.719503 -294.21426 
L 263.719503 -294.21426 
L 265.123533 -294.21426 
L 265.123533 -280.603593 
L 269.335626 -280.603593 
L 269.335626 -280.603593 
L 271.582075 -280.603593 
L 271.582075 -280.603593 
L 273.407315 -280.603593 
L 273.407315 -265.882667 
L 279.58505 -265.882667 
L 279.58505 -251.971379 
L 281.831499 -251.971379 
L 281.831499 -238.716573 
L 283.375933 -238.716573 
L 283.375933 -238.716573 
L 284.499157 -238.716573 
L 284.499157 -224.95712 
L 303.453572 -224.95712 
L 303.453572 -224.95712 
L 305.559618 -224.95712 
L 305.559618 -210.580416 
L 324.233227 -210.580416 
L 324.233227 -210.580416 
L 332.797814 -210.580416 
L 332.797814 -195.44244 
L 334.623054 -195.44244 
L 334.623054 -195.44244 
L 383.76413 -195.44244 
L 383.76413 -179.350921 
L 411.142729 -179.350921 
L 411.142729 -179.350921 
L 418.022479 -179.350921 
L 418.022479 -179.350921 
L 435.43246 -179.350921 
L 435.43246 -179.350921 
L 462.951462 -179.350921 
L 462.951462 -179.350921 
L 464.355493 -179.350921 
L 464.355493 -179.350921 
L 467.584764 -179.350921 
L 467.584764 -179.350921 
L 471.235244 -179.350921 
L 471.235244 -179.350921 
L 477.132173 -179.350921 
L 477.132173 -112.063083 
L 512.934956 -112.063083 
L 512.934956 -87.584613 
L 564.74369 -87.584613 
L 564.74369 -87.584613 
L 564.74369 -244.17894 
L 564.74369 -244.17894 
L 564.74369 -244.17894 
L 512.934956 -244.17894 
L 512.934956 -284.143373 
L 477.132173 -284.143373 
L 477.132173 -302.614973 
L 471.235244 -302.614973 
L 471.235244 -302.614973 
L 467.584764 -302.614973 
L 467.584764 -302.614973 
L 464.355493 -302.614973 
L 464.355493 -302.614973 
L 462.951462 -302.614973 
L 462.951462 -302.614973 
L 435.43246 -302.614973 
L 435.43246 -302.614973 
L 418.022479 -302.614973 
L 418.022479 -302.614973 
L 411.142729 -302.614973 
L 411.142729 -302.614973 
L 383.76413 -302.614973 
L 383.76413 -315.775862 
L 334.623054 -315.775862 
L 334.623054 -315.775862 
L 332.797814 -315.775862 
L 332.797814 -327.751992 
L 324.233227 -327.751992 
L 324.233227 -327.751992 
L 305.559618 -327.751992 
L 305.559618 -338.763483 
L 303.453572 -338.763483 
L 303.453572 -338.763483 
L 284.499157 -338.763483 
L 284.499157 -348.965002 
L 283.375933 -348.965002 
L 283.375933 -348.965002 
L 281.831499 -348.965002 
L 281.831499 -358.468986 
L 279.58505 -358.468986 
L 279.58505 -367.623059 
L 273.407315 -367.623059 
L 273.407315 -376.385108 
L 271.582075 -376.385108 
L 271.582075 -376.385108 
L 269.335626 -376.385108 
L 269.335626 -376.385108 
L 265.123533 -376.385108 
L 265.123533 -384.321348 
L 263.719503 -384.321348 
L 263.719503 -384.321348 
L 259.788217 -384.321348 
L 259.788217 -384.321348 
L 255.576124 -384.321348 
L 255.576124 -384.321348 
L 253.470078 -384.321348 
L 253.470078 -384.321348 
L 251.083226 -384.321348 
L 251.083226 -391.255314 
L 247.15194 -391.255314 
L 247.15194 -397.926894 
L 246.028715 -397.926894 
L 246.028715 -397.926894 
L 232.409617 -397.926894 
L 232.409617 -404.179802 
L 228.478331 -404.179802 
L 228.478331 -410.103405 
L 222.300596 -410.103405 
L 222.300596 -410.103405 
L 219.773341 -410.103405 
L 219.773341 -415.539569 
L 213.736009 -415.539569 
L 213.736009 -415.539569 
L 211.349157 -415.539569 
L 211.349157 -415.539569 
L 210.506738 -415.539569 
L 210.506738 -415.539569 
L 209.523917 -415.539569 
L 209.523917 -415.539569 
L 206.856258 -415.539569 
L 206.856258 -415.539569 
L 206.715855 -415.539569 
L 206.715855 -415.539569 
L 206.154243 -415.539569 
L 206.154243 -415.539569 
L 205.733034 -415.539569 
L 205.733034 -415.539569 
L 205.592631 -415.539569 
L 205.592631 -420.061494 
L 203.065375 -420.061494 
L 203.065375 -420.061494 
L 196.88764 -420.061494 
L 196.88764 -420.061494 
L 191.41192 -420.061494 
L 191.41192 -420.061494 
L 190.429099 -420.061494 
L 190.429099 -420.061494 
L 184.953379 -420.061494 
L 184.953379 -420.061494 
L 173.299924 -420.061494 
L 173.299924 -420.061494 
L 173.159521 -420.061494 
L 173.159521 -420.061494 
L 168.526219 -420.061494 
L 168.526219 -420.061494 
L 168.385816 -420.061494 
L 168.385816 -420.061494 
L 168.10501 -420.061494 
L 168.10501 -420.061494 
L 167.964607 -420.061494 
L 167.964607 -420.061494 
L 165.016143 -420.061494 
L 165.016143 -420.061494 
L 164.594933 -420.061494 
L 164.594933 -423.738476 
L 164.173724 -423.738476 
L 164.173724 -423.738476 
L 162.769694 -423.738476 
L 162.769694 -427.177071 
L 161.084857 -427.177071 
L 161.084857 -427.177071 
L 160.663647 -427.177071 
L 160.663647 -430.310881 
L 160.523244 -430.310881 
L 160.523244 -433.145798 
L 159.680826 -433.145798 
L 159.680826 -433.145798 
L 159.259617 -433.145798 
L 159.259617 -433.145798 
L 158.838407 -433.145798 
L 158.838407 -433.145798 
L 156.591958 -433.145798 
L 156.591958 -433.145798 
L 156.311152 -433.145798 
L 156.311152 -433.145798 
L 153.9243 -433.145798 
L 153.9243 -435.456741 
L 153.783897 -435.456741 
L 153.783897 -435.456741 
L 152.941478 -435.456741 
L 152.941478 -437.182452 
L 149.571805 -437.182452 
L 149.571805 -437.182452 
L 149.431402 -437.182452 
L 149.431402 -437.182452 
L 144.938503 -437.182452 
L 144.938503 -437.8425 
L 137.91835 -437.8425 
L 137.91835 -437.8425 
L 136.373916 -437.8425 
L 136.373916 -437.8425 
L 103.66 -437.8425 
z
" id="m5a62628e26" style="stroke:#a6008b;stroke-opacity:0.2;"/>
    </defs>
    <g clip-path="url(#p1e18b2a16c)">
     <use style="fill:#a6008b;fill-opacity:0.2;stroke:#a6008b;stroke-opacity:0.2;" x="0" xlink:href="#m5a62628e26" y="460.8"/>
    </g>
   </g>
   <g id="PolyCollection_4">
    <path clip-path="url(#p1e18b2a16c)" d="M 103.66 22.9575 
L 103.66 22.9575 
L 149.010192 22.9575 
L 149.010192 22.9575 
L 150.835432 22.9575 
L 150.835432 22.9575 
L 150.975835 22.9575 
L 150.975835 22.9575 
L 152.09906 22.9575 
L 152.09906 22.9575 
L 152.520269 22.9575 
L 152.520269 45.384768 
L 153.503091 45.384768 
L 153.503091 45.384768 
L 153.783897 45.384768 
L 153.783897 45.384768 
L 153.9243 45.384768 
L 153.9243 48.587673 
L 154.205106 48.587673 
L 154.205106 48.587673 
L 154.345509 48.587673 
L 154.345509 48.587673 
L 154.485912 48.587673 
L 154.485912 48.587673 
L 154.626315 48.587673 
L 154.626315 48.587673 
L 155.328331 48.587673 
L 155.328331 48.587673 
L 155.74954 48.587673 
L 155.74954 48.587673 
L 156.732361 48.587673 
L 156.732361 48.587673 
L 157.293974 48.587673 
L 157.293974 48.587673 
L 157.434377 48.587673 
L 157.434377 48.587673 
L 157.57478 48.587673 
L 157.57478 48.587673 
L 157.715183 48.587673 
L 157.715183 48.587673 
L 158.276795 48.587673 
L 158.276795 48.587673 
L 158.838407 48.587673 
L 158.838407 48.587673 
L 159.259617 48.587673 
L 159.259617 48.587673 
L 159.40002 48.587673 
L 159.40002 48.587673 
L 159.540423 48.587673 
L 159.540423 48.587673 
L 159.680826 48.587673 
L 159.680826 48.587673 
L 159.821229 48.587673 
L 159.821229 48.587673 
L 160.102035 48.587673 
L 160.102035 48.587673 
L 160.382841 48.587673 
L 160.382841 48.587673 
L 160.523244 48.587673 
L 160.523244 48.587673 
L 162.62929 48.587673 
L 162.62929 48.587673 
L 163.0505 48.587673 
L 163.0505 56.744966 
L 163.752515 56.744966 
L 163.752515 56.744966 
L 164.45453 56.744966 
L 164.45453 56.744966 
L 165.156546 56.744966 
L 165.156546 56.744966 
L 166.981786 56.744966 
L 166.981786 56.744966 
L 167.262592 56.744966 
L 167.262592 56.744966 
L 167.964607 56.744966 
L 167.964607 56.744966 
L 168.10501 56.744966 
L 168.10501 64.706367 
L 170.632266 64.706367 
L 170.632266 64.706367 
L 172.176699 64.706367 
L 172.176699 64.706367 
L 172.457506 64.706367 
L 172.457506 72.208934 
L 174.423149 72.208934 
L 174.423149 72.208934 
L 175.546373 72.208934 
L 175.546373 79.570293 
L 177.512016 79.570293 
L 177.512016 86.552179 
L 185.234185 86.552179 
L 185.234185 86.552179 
L 190.990711 86.552179 
L 190.990711 86.552179 
L 195.0624 86.552179 
L 195.0624 86.552179 
L 196.747237 86.552179 
L 196.747237 86.552179 
L 198.71288 86.552179 
L 198.71288 86.552179 
L 198.993686 86.552179 
L 198.993686 86.552179 
L 200.959329 86.552179 
L 200.959329 94.424888 
L 201.099732 94.424888 
L 201.099732 94.424888 
L 201.942151 94.424888 
L 201.942151 94.424888 
L 205.452228 94.424888 
L 205.452228 94.424888 
L 206.435049 94.424888 
L 206.435049 94.424888 
L 206.996661 94.424888 
L 206.996661 94.424888 
L 211.770366 94.424888 
L 211.770366 94.424888 
L 211.910769 94.424888 
L 211.910769 94.424888 
L 212.331978 94.424888 
L 212.331978 94.424888 
L 214.859233 94.424888 
L 214.859233 94.424888 
L 214.999636 94.424888 
L 214.999636 94.424888 
L 215.701652 94.424888 
L 215.701652 94.424888 
L 215.982458 94.424888 
L 215.982458 104.995023 
L 217.526892 104.995023 
L 217.526892 104.995023 
L 218.36931 104.995023 
L 218.36931 104.995023 
L 220.334953 104.995023 
L 220.334953 115.577335 
L 229.039944 115.577335 
L 229.039944 115.577335 
L 229.180347 115.577335 
L 229.180347 115.577335 
L 230.443974 115.577335 
L 230.443974 115.577335 
L 235.077276 115.577335 
L 235.077276 126.773883 
L 238.868159 126.773883 
L 238.868159 137.351271 
L 243.361057 137.351271 
L 243.361057 147.468642 
L 246.449925 147.468642 
L 246.449925 147.468642 
L 253.048869 147.468642 
L 253.048869 147.468642 
L 254.593303 147.468642 
L 254.593303 147.468642 
L 255.997334 147.468642 
L 255.997334 147.468642 
L 259.788217 147.468642 
L 259.788217 147.468642 
L 263.719503 147.468642 
L 263.719503 147.468642 
L 266.80837 147.468642 
L 266.80837 160.366327 
L 273.407315 160.366327 
L 273.407315 160.366327 
L 280.006259 160.366327 
L 280.006259 160.366327 
L 280.989081 160.366327 
L 280.989081 160.366327 
L 284.499157 160.366327 
L 284.499157 160.366327 
L 288.149637 160.366327 
L 288.149637 160.366327 
L 308.36768 160.366327 
L 308.36768 176.769847 
L 309.069695 176.769847 
L 309.069695 191.973749 
L 309.210098 191.973749 
L 309.210098 191.973749 
L 312.01816 191.973749 
L 312.01816 191.973749 
L 317.774686 191.973749 
L 317.774686 191.973749 
L 317.915089 191.973749 
L 317.915089 191.973749 
L 332.236202 191.973749 
L 332.236202 211.652228 
L 348.944168 211.652228 
L 348.944168 211.652228 
L 358.491577 211.652228 
L 358.491577 231.487182 
L 363.124878 231.487182 
L 363.124878 231.487182 
L 383.623727 231.487182 
L 383.623727 254.49205 
L 386.010579 254.49205 
L 386.010579 254.49205 
L 412.546759 254.49205 
L 412.546759 254.49205 
L 454.527278 254.49205 
L 454.527278 254.49205 
L 460.143401 254.49205 
L 460.143401 288.216383 
L 463.793881 288.216383 
L 463.793881 288.216383 
L 489.628046 288.216383 
L 489.628046 288.216383 
L 507.59964 288.216383 
L 507.59964 288.216383 
L 534.276223 288.216383 
L 534.276223 288.216383 
L 536.803479 288.216383 
L 536.803479 370.336193 
L 686.473154 370.336193 
L 686.473154 370.336193 
L 686.473154 169.666995 
L 686.473154 169.666995 
L 686.473154 169.666995 
L 536.803479 169.666995 
L 536.803479 144.658474 
L 534.276223 144.658474 
L 534.276223 144.658474 
L 507.59964 144.658474 
L 507.59964 144.658474 
L 489.628046 144.658474 
L 489.628046 144.658474 
L 463.793881 144.658474 
L 463.793881 144.658474 
L 460.143401 144.658474 
L 460.143401 127.403169 
L 454.527278 127.403169 
L 454.527278 127.403169 
L 412.546759 127.403169 
L 412.546759 127.403169 
L 386.010579 127.403169 
L 386.010579 127.403169 
L 383.623727 127.403169 
L 383.623727 113.885562 
L 363.124878 113.885562 
L 363.124878 113.885562 
L 358.491577 113.885562 
L 358.491577 102.323994 
L 348.944168 102.323994 
L 348.944168 102.323994 
L 332.236202 102.323994 
L 332.236202 91.953247 
L 317.915089 91.953247 
L 317.915089 91.953247 
L 317.774686 91.953247 
L 317.774686 91.953247 
L 312.01816 91.953247 
L 312.01816 91.953247 
L 309.210098 91.953247 
L 309.210098 91.953247 
L 309.069695 91.953247 
L 309.069695 83.267687 
L 308.36768 83.267687 
L 308.36768 75.088161 
L 288.149637 75.088161 
L 288.149637 75.088161 
L 284.499157 75.088161 
L 284.499157 75.088161 
L 280.989081 75.088161 
L 280.989081 75.088161 
L 280.006259 75.088161 
L 280.006259 75.088161 
L 273.407315 75.088161 
L 273.407315 75.088161 
L 266.80837 75.088161 
L 266.80837 68.17247 
L 263.719503 68.17247 
L 263.719503 68.17247 
L 259.788217 68.17247 
L 259.788217 68.17247 
L 255.997334 68.17247 
L 255.997334 68.17247 
L 254.593303 68.17247 
L 254.593303 68.17247 
L 253.048869 68.17247 
L 253.048869 68.17247 
L 246.449925 68.17247 
L 246.449925 68.17247 
L 243.361057 68.17247 
L 243.361057 62.279432 
L 238.868159 62.279432 
L 238.868159 56.606202 
L 235.077276 56.606202 
L 235.077276 51.192952 
L 230.443974 51.192952 
L 230.443974 51.192952 
L 229.180347 51.192952 
L 229.180347 51.192952 
L 229.039944 51.192952 
L 229.039944 51.192952 
L 220.334953 51.192952 
L 220.334953 46.293815 
L 218.36931 46.293815 
L 218.36931 46.293815 
L 217.526892 46.293815 
L 217.526892 46.293815 
L 215.982458 46.293815 
L 215.982458 41.808977 
L 215.701652 41.808977 
L 215.701652 41.808977 
L 214.999636 41.808977 
L 214.999636 41.808977 
L 214.859233 41.808977 
L 214.859233 41.808977 
L 212.331978 41.808977 
L 212.331978 41.808977 
L 211.910769 41.808977 
L 211.910769 41.808977 
L 211.770366 41.808977 
L 211.770366 41.808977 
L 206.996661 41.808977 
L 206.996661 41.808977 
L 206.435049 41.808977 
L 206.435049 41.808977 
L 205.452228 41.808977 
L 205.452228 41.808977 
L 201.942151 41.808977 
L 201.942151 41.808977 
L 201.099732 41.808977 
L 201.099732 41.808977 
L 200.959329 41.808977 
L 200.959329 38.106344 
L 198.993686 38.106344 
L 198.993686 38.106344 
L 198.71288 38.106344 
L 198.71288 38.106344 
L 196.747237 38.106344 
L 196.747237 38.106344 
L 195.0624 38.106344 
L 195.0624 38.106344 
L 190.990711 38.106344 
L 190.990711 38.106344 
L 185.234185 38.106344 
L 185.234185 38.106344 
L 177.512016 38.106344 
L 177.512016 34.816375 
L 175.546373 34.816375 
L 175.546373 31.727417 
L 174.423149 31.727417 
L 174.423149 31.727417 
L 172.457506 31.727417 
L 172.457506 28.943348 
L 172.176699 28.943348 
L 172.176699 28.943348 
L 170.632266 28.943348 
L 170.632266 28.943348 
L 168.10501 28.943348 
L 168.10501 26.523282 
L 167.964607 26.523282 
L 167.964607 26.523282 
L 167.262592 26.523282 
L 167.262592 26.523282 
L 166.981786 26.523282 
L 166.981786 26.523282 
L 165.156546 26.523282 
L 165.156546 26.523282 
L 164.45453 26.523282 
L 164.45453 26.523282 
L 163.752515 26.523282 
L 163.752515 26.523282 
L 163.0505 26.523282 
L 163.0505 24.616886 
L 162.62929 24.616886 
L 162.62929 24.616886 
L 160.523244 24.616886 
L 160.523244 24.616886 
L 160.382841 24.616886 
L 160.382841 24.616886 
L 160.102035 24.616886 
L 160.102035 24.616886 
L 159.821229 24.616886 
L 159.821229 24.616886 
L 159.680826 24.616886 
L 159.680826 24.616886 
L 159.540423 24.616886 
L 159.540423 24.616886 
L 159.40002 24.616886 
L 159.40002 24.616886 
L 159.259617 24.616886 
L 159.259617 24.616886 
L 158.838407 24.616886 
L 158.838407 24.616886 
L 158.276795 24.616886 
L 158.276795 24.616886 
L 157.715183 24.616886 
L 157.715183 24.616886 
L 157.57478 24.616886 
L 157.57478 24.616886 
L 157.434377 24.616886 
L 157.434377 24.616886 
L 157.293974 24.616886 
L 157.293974 24.616886 
L 156.732361 24.616886 
L 156.732361 24.616886 
L 155.74954 24.616886 
L 155.74954 24.616886 
L 155.328331 24.616886 
L 155.328331 24.616886 
L 154.626315 24.616886 
L 154.626315 24.616886 
L 154.485912 24.616886 
L 154.485912 24.616886 
L 154.345509 24.616886 
L 154.345509 24.616886 
L 154.205106 24.616886 
L 154.205106 24.616886 
L 153.9243 24.616886 
L 153.9243 23.416926 
L 153.783897 23.416926 
L 153.783897 23.416926 
L 153.503091 23.416926 
L 153.503091 23.416926 
L 152.520269 23.416926 
L 152.520269 22.9575 
L 152.09906 22.9575 
L 152.09906 22.9575 
L 150.975835 22.9575 
L 150.975835 22.9575 
L 150.835432 22.9575 
L 150.835432 22.9575 
L 149.010192 22.9575 
L 149.010192 22.9575 
L 103.66 22.9575 
z
" style="fill:#7b0896;fill-opacity:0.2;stroke:#7b0896;stroke-opacity:0.2;"/>
   </g>
   <g id="matplotlib.axis_1">
    <g id="xtick_1">
     <g id="line2d_1">
      <defs>
       <path d="M 0 0 
L 0 3.5 
" id="mc6529d48ee" style="stroke:#000000;stroke-width:0.8;"/>
      </defs>
      <g>
       <use style="stroke:#000000;stroke-width:0.8;" x="103.66" xlink:href="#mc6529d48ee" y="377.06"/>
      </g>
     </g>
     <g id="text_1">
      <text style="font-family:DejaVu Sans;font-size:32px;font-stretch:normal;font-style:normal;font-weight:normal;text-anchor:middle;" transform="rotate(-0, 103.66, 408.375)" x="103.66" y="408.375">0</text>
     </g>
    </g>
    <g id="xtick_2">
     <g id="line2d_2">
      <g>
       <use style="stroke:#000000;stroke-width:0.8;" x="317.335926" xlink:href="#mc6529d48ee" y="377.06"/>
      </g>
     </g>
     <g id="text_2">
      <text style="font-family:DejaVu Sans;font-size:32px;font-stretch:normal;font-style:normal;font-weight:normal;text-anchor:middle;" transform="rotate(-0, 317.335926, 408.375)" x="317.335926" y="408.375">50</text>
     </g>
    </g>
    <g id="xtick_3">
     <g id="line2d_3">
      <g>
       <use style="stroke:#000000;stroke-width:0.8;" x="531.011852" xlink:href="#mc6529d48ee" y="377.06"/>
      </g>
     </g>
     <g id="text_3">
      <text style="font-family:DejaVu Sans;font-size:32px;font-stretch:normal;font-style:normal;font-weight:normal;text-anchor:middle;" transform="rotate(-0, 531.011852, 408.375)" x="531.011852" y="408.375">100</text>
     </g>
    </g>
    <g id="text_4">
     <text style="font-family:DejaVu Sans;font-size:32px;font-stretch:normal;font-style:normal;font-weight:normal;text-anchor:middle;" transform="rotate(-0, 334.43, 443.345)" x="334.43" y="443.345">Time (months)</text>
    </g>
   </g>
   <g id="matplotlib.axis_2">
    <g id="ytick_1">
     <g id="line2d_4">
      <defs>
       <path d="M 0 0 
L -3.5 0 
" id="me4dbabec46" style="stroke:#000000;stroke-width:0.8;"/>
      </defs>
      <g>
       <use style="stroke:#000000;stroke-width:0.8;" x="103.66" xlink:href="#me4dbabec46" y="377.06"/>
      </g>
     </g>
     <g id="text_5">
      <text style="font-family:DejaVu Sans;font-size:32px;font-stretch:normal;font-style:normal;font-weight:normal;text-anchor:end;" transform="rotate(-0, 96.66, 389.2175)" x="96.66" y="389.2175">0.0</text>
     </g>
    </g>
    <g id="ytick_2">
     <g id="line2d_5">
      <g>
       <use style="stroke:#000000;stroke-width:0.8;" x="103.66" xlink:href="#me4dbabec46" y="306.2395"/>
      </g>
     </g>
     <g id="text_6">
      <text style="font-family:DejaVu Sans;font-size:32px;font-stretch:normal;font-style:normal;font-weight:normal;text-anchor:end;" transform="rotate(-0, 96.66, 318.397)" x="96.66" y="318.397">0.2</text>
     </g>
    </g>
    <g id="ytick_3">
     <g id="line2d_6">
      <g>
       <use style="stroke:#000000;stroke-width:0.8;" x="103.66" xlink:href="#me4dbabec46" y="235.419"/>
      </g>
     </g>
     <g id="text_7">
      <text style="font-family:DejaVu Sans;font-size:32px;font-stretch:normal;font-style:normal;font-weight:normal;text-anchor:end;" transform="rotate(-0, 96.66, 247.5765)" x="96.66" y="247.5765">0.4</text>
     </g>
    </g>
    <g id="ytick_4">
     <g id="line2d_7">
      <g>
       <use style="stroke:#000000;stroke-width:0.8;" x="103.66" xlink:href="#me4dbabec46" y="164.5985"/>
      </g>
     </g>
     <g id="text_8">
      <text style="font-family:DejaVu Sans;font-size:32px;font-stretch:normal;font-style:normal;font-weight:normal;text-anchor:end;" transform="rotate(-0, 96.66, 176.756)" x="96.66" y="176.756">0.6</text>
     </g>
    </g>
    <g id="ytick_5">
     <g id="line2d_8">
      <g>
       <use style="stroke:#000000;stroke-width:0.8;" x="103.66" xlink:href="#me4dbabec46" y="93.778"/>
      </g>
     </g>
     <g id="text_9">
      <text style="font-family:DejaVu Sans;font-size:32px;font-stretch:normal;font-style:normal;font-weight:normal;text-anchor:end;" transform="rotate(-0, 96.66, 105.9355)" x="96.66" y="105.9355">0.8</text>
     </g>
    </g>
    <g id="ytick_6">
     <g id="line2d_9">
      <g>
       <use style="stroke:#000000;stroke-width:0.8;" x="103.66" xlink:href="#me4dbabec46" y="22.9575"/>
      </g>
     </g>
     <g id="text_10">
      <text style="font-family:DejaVu Sans;font-size:32px;font-stretch:normal;font-style:normal;font-weight:normal;text-anchor:end;" transform="rotate(-0, 96.66, 35.115)" x="96.66" y="35.115">1.0</text>
     </g>
    </g>
    <g id="text_11">
     <text style="font-family:DejaVu Sans;font-size:32px;font-stretch:normal;font-style:normal;font-weight:normal;text-anchor:middle;" transform="rotate(-90, 35.115, 200.00875)" x="35.115" y="200.00875">Probability of survival</text>
    </g>
   </g>
   <g id="line2d_10">
    <path clip-path="url(#p1e18b2a16c)" d="M 103.66 22.9575 
L 149.993014 22.9575 
L 149.993014 26.362332 
L 150.835432 26.362332 
L 150.835432 29.767163 
L 150.975835 29.767163 
L 150.975835 33.171995 
L 151.677851 33.171995 
L 151.677851 36.576827 
L 152.09906 36.576827 
L 152.09906 40.016051 
L 152.239463 40.016051 
L 152.239463 43.455275 
L 154.064703 43.455275 
L 154.064703 50.62957 
L 154.485912 50.62957 
L 154.485912 54.216718 
L 154.766718 54.216718 
L 154.766718 61.471623 
L 155.74954 61.471623 
L 155.74954 68.897232 
L 156.591958 68.897232 
L 156.591958 72.610036 
L 157.293974 72.610036 
L 157.293974 76.322841 
L 160.382841 76.322841 
L 160.382841 80.332669 
L 160.663647 80.332669 
L 160.663647 84.342498 
L 161.506066 84.342498 
L 161.506066 88.352327 
L 167.683801 88.352327 
L 167.683801 92.598028 
L 171.474684 92.598028 
L 171.474684 96.908058 
L 172.036296 96.908058 
L 172.036296 101.218088 
L 173.861536 101.218088 
L 173.861536 105.528118 
L 178.635241 105.528118 
L 178.635241 109.97946 
L 200.678523 109.97946 
L 200.678523 114.83547 
L 201.661345 114.83547 
L 201.661345 119.69148 
L 202.924972 119.69148 
L 202.924972 124.547489 
L 203.907794 124.547489 
L 203.907794 129.498715 
L 204.890615 129.498715 
L 204.890615 134.656242 
L 206.01384 134.656242 
L 206.01384 139.925889 
L 207.137064 139.925889 
L 207.137064 145.3153 
L 208.821901 145.3153 
L 208.821901 150.704712 
L 209.945126 150.704712 
L 209.945126 156.363594 
L 211.770366 156.363594 
L 211.770366 162.171394 
L 213.455203 162.171394 
L 213.455203 168.140522 
L 215.701652 168.140522 
L 215.701652 174.10965 
L 218.650116 174.10965 
L 218.650116 180.078778 
L 219.913744 180.078778 
L 219.913744 186.047906 
L 220.334953 186.047906 
L 220.334953 192.017034 
L 220.896566 192.017034 
L 220.896566 197.986162 
L 227.776316 197.986162 
L 227.776316 203.95529 
L 230.022765 203.95529 
L 230.022765 209.924418 
L 232.128811 209.924418 
L 232.128811 216.114625 
L 253.470078 216.114625 
L 253.470078 222.820682 
L 253.610481 222.820682 
L 253.610481 229.526739 
L 254.031691 229.526739 
L 254.031691 242.938854 
L 267.369983 242.938854 
L 267.369983 249.644911 
L 278.602228 249.644911 
L 278.602228 257.139916 
L 298.539465 257.139916 
L 298.539465 265.134589 
L 303.313169 265.134589 
L 303.313169 273.129261 
L 309.77171 273.129261 
L 309.77171 281.790156 
L 313.000981 281.790156 
L 313.000981 291.31714 
L 323.952421 291.31714 
L 323.952421 300.844125 
L 353.296663 300.844125 
L 353.296663 311.732107 
L 433.186011 311.732107 
L 433.186011 328.06408 
L 449.753574 328.06408 
L 449.753574 344.396053 
L 563.058853 344.396053 
L 563.058853 377.06 
L 563.058853 377.06 
" style="fill:none;stroke:#fff123;stroke-linecap:square;stroke-width:3;"/>
   </g>
   <g id="line2d_11">
    <path clip-path="url(#p1e18b2a16c)" d="M 103.66 22.9575 
L 148.44858 22.9575 
L 148.44858 26.429093 
L 148.869789 26.429093 
L 148.869789 29.900686 
L 150.975835 29.900686 
L 150.975835 33.372279 
L 153.643494 33.372279 
L 153.643494 36.95236 
L 154.626315 36.95236 
L 154.626315 40.53244 
L 154.766718 40.53244 
L 154.766718 44.112521 
L 154.907121 44.112521 
L 154.907121 47.692601 
L 156.030346 47.692601 
L 156.030346 51.352239 
L 156.732361 51.352239 
L 156.732361 55.053463 
L 159.540423 55.053463 
L 159.540423 59.028853 
L 161.646469 59.028853 
L 161.646469 63.159127 
L 172.317102 63.159127 
L 172.317102 67.643426 
L 172.457506 67.643426 
L 172.457506 72.127724 
L 176.248388 72.127724 
L 176.248388 76.892291 
L 187.76144 76.892291 
L 187.76144 81.656857 
L 197.589655 81.656857 
L 197.589655 86.580243 
L 205.311824 86.580243 
L 205.311824 91.959498 
L 205.873437 91.959498 
L 205.873437 97.338753 
L 207.83908 97.338753 
L 207.83908 102.933178 
L 230.443974 102.933178 
L 230.443974 109.96207 
L 240.833802 109.96207 
L 240.833802 117.59344 
L 241.114608 117.59344 
L 241.114608 125.224809 
L 253.750884 125.224809 
L 253.750884 133.348525 
L 267.931595 133.348525 
L 267.931595 145.534099 
L 282.252708 145.534099 
L 282.252708 159.15327 
L 328.02411 159.15327 
L 328.02411 174.718036 
L 333.921039 174.718036 
L 333.921039 190.282802 
L 365.932939 190.282802 
L 365.932939 207.262548 
L 452.702038 207.262548 
L 452.702038 228.487229 
L 516.164227 228.487229 
L 516.164227 228.487229 
" style="fill:none;stroke:#ef1875;stroke-linecap:square;stroke-width:3;"/>
   </g>
   <g id="line2d_12">
    <path clip-path="url(#p1e18b2a16c)" d="M 103.66 22.9575 
L 144.938503 22.9575 
L 144.938503 27.616743 
L 152.941478 27.616743 
L 152.941478 32.403637 
L 153.9243 32.403637 
L 153.9243 37.3273 
L 160.523244 37.3273 
L 160.523244 42.719882 
L 160.663647 42.719882 
L 160.663647 48.112465 
L 162.769694 48.112465 
L 162.769694 53.687847 
L 164.594933 53.687847 
L 164.594933 59.361042 
L 205.592631 59.361042 
L 205.592631 66.581473 
L 219.773341 66.581473 
L 219.773341 75.452288 
L 228.478331 75.452288 
L 228.478331 84.591916 
L 232.409617 84.591916 
L 232.409617 93.731544 
L 247.15194 93.731544 
L 247.15194 103.175825 
L 251.083226 103.175825 
L 251.083226 112.620107 
L 265.123533 112.620107 
L 265.123533 123.638436 
L 273.407315 123.638436 
L 273.407315 135.70613 
L 279.58505 135.70613 
L 279.58505 147.773823 
L 281.831499 147.773823 
L 281.831499 159.841517 
L 284.499157 159.841517 
L 284.499157 172.619075 
L 305.559618 172.619075 
L 305.559618 186.24847 
L 332.797814 186.24847 
L 332.797814 200.92628 
L 383.76413 200.92628 
L 383.76413 216.938436 
L 477.132173 216.938436 
L 477.132173 270.312291 
L 512.934956 270.312291 
L 512.934956 323.686145 
L 564.74369 323.686145 
L 564.74369 323.686145 
" style="fill:none;stroke:#a6008b;stroke-linecap:square;stroke-width:3;"/>
   </g>
   <g id="line2d_13">
    <path clip-path="url(#p1e18b2a16c)" d="M 103.66 22.9575 
L 152.520269 22.9575 
L 152.520269 26.206147 
L 153.9243 26.206147 
L 153.9243 29.547612 
L 163.0505 29.547612 
L 163.0505 34.06076 
L 168.10501 34.06076 
L 168.10501 38.960749 
L 172.457506 38.960749 
L 172.457506 44.007007 
L 175.546373 44.007007 
L 175.546373 49.21096 
L 177.512016 49.21096 
L 177.512016 54.414913 
L 200.959329 54.414913 
L 200.959329 60.176432 
L 215.982458 60.176432 
L 215.982458 67.378331 
L 220.334953 67.378331 
L 220.334953 74.931543 
L 235.077276 74.931543 
L 235.077276 83.097177 
L 238.868159 83.097177 
L 238.868159 91.262811 
L 243.361057 91.262811 
L 243.361057 99.428445 
L 266.80837 99.428445 
L 266.80837 109.343857 
L 308.36768 109.343857 
L 308.36768 121.512773 
L 309.069695 121.512773 
L 309.069695 133.681689 
L 332.236202 133.681689 
L 332.236202 148.892833 
L 358.491577 148.892833 
L 358.491577 165.190488 
L 383.623727 165.190488 
L 383.623727 184.451353 
L 460.143401 184.451353 
L 460.143401 211.966874 
L 536.803479 211.966874 
L 536.803479 294.513437 
L 577 294.513437 
L 577 294.513437 
" style="fill:none;stroke:#7b0896;stroke-linecap:square;stroke-width:3;"/>
   </g>
   <g id="patch_3">
    <path d="M 103.66 377.06 
L 103.66 22.9575 
" style="fill:none;stroke:#000000;stroke-linecap:square;stroke-linejoin:miter;stroke-width:0.8;"/>
   </g>
   <g id="patch_4">
    <path d="M 565.2 377.06 
L 565.2 22.9575 
" style="fill:none;stroke:#000000;stroke-linecap:square;stroke-linejoin:miter;stroke-width:0.8;"/>
   </g>
   <g id="patch_5">
    <path d="M 103.66 377.06 
L 565.2 377.06 
" style="fill:none;stroke:#000000;stroke-linecap:square;stroke-linejoin:miter;stroke-width:0.8;"/>
   </g>
   <g id="patch_6">
    <path d="M 103.66 22.9575 
L 565.2 22.9575 
" style="fill:none;stroke:#000000;stroke-linecap:square;stroke-linejoin:miter;stroke-width:0.8;"/>
   </g>
   <g id="legend_1">
    <g id="patch_7">
     <path d="M 349.4025 183.0675 
L 548.4 183.0675 
Q 553.2 183.0675 553.2 178.2675 
L 553.2 39.7575 
Q 553.2 34.9575 548.4 34.9575 
L 349.4025 34.9575 
Q 344.6025 34.9575 344.6025 39.7575 
L 344.6025 178.2675 
Q 344.6025 183.0675 349.4025 183.0675 
z
" style="fill:#ffffff;opacity:0.8;stroke:#cccccc;stroke-linejoin:miter;"/>
    </g>
    <g id="line2d_14">
     <path d="M 354.2025 54.39375 
L 402.2025 54.39375 
" style="fill:none;stroke:#fff123;stroke-linecap:square;stroke-width:3;"/>
    </g>
    <g id="line2d_15"/>
    <g id="text_12">
     <text style="font-family:DejaVu Sans;font-size:24px;font-stretch:normal;font-style:normal;font-weight:normal;text-anchor:start;" transform="rotate(-0, 421.4025, 62.79375)" x="421.4025" y="62.79375">Subtype 0</text>
    </g>
    <g id="line2d_16">
     <path d="M 354.2025 89.62125 
L 402.2025 89.62125 
" style="fill:none;stroke:#ef1875;stroke-linecap:square;stroke-width:3;"/>
    </g>
    <g id="line2d_17"/>
    <g id="text_13">
     <text style="font-family:DejaVu Sans;font-size:24px;font-stretch:normal;font-style:normal;font-weight:normal;text-anchor:start;" transform="rotate(-0, 421.4025, 98.02125)" x="421.4025" y="98.02125">Subtype 1</text>
    </g>
    <g id="line2d_18">
     <path d="M 354.2025 124.84875 
L 402.2025 124.84875 
" style="fill:none;stroke:#a6008b;stroke-linecap:square;stroke-width:3;"/>
    </g>
    <g id="line2d_19"/>
    <g id="text_14">
     <text style="font-family:DejaVu Sans;font-size:24px;font-stretch:normal;font-style:normal;font-weight:normal;text-anchor:start;" transform="rotate(-0, 421.4025, 133.24875)" x="421.4025" y="133.24875">Subtype 2</text>
    </g>
    <g id="line2d_20">
     <path d="M 354.2025 160.07625 
L 402.2025 160.07625 
" style="fill:none;stroke:#7b0896;stroke-linecap:square;stroke-width:3;"/>
    </g>
    <g id="line2d_21"/>
    <g id="text_15">
     <text style="font-family:DejaVu Sans;font-size:24px;font-stretch:normal;font-style:normal;font-weight:normal;text-anchor:start;" transform="rotate(-0, 421.4025, 168.47625)" x="421.4025" y="168.47625">Subtype 3</text>
    </g>
   </g>
  </g>
 </g>
 <defs>
  <clipPath id="p1e18b2a16c">
   <rect height="354.1025" width="461.54" x="103.66" y="22.9575"/>
  </clipPath>
 </defs>
</svg>
